<?xml version="1.0" encoding="UTF-8" standalone="no"?>
<!-- Created with Inkscape (http://www.inkscape.org/) -->

<svg
   xmlns:dc="http://purl.org/dc/elements/1.1/"
   xmlns:cc="http://creativecommons.org/ns#"
   xmlns:rdf="http://www.w3.org/1999/02/22-rdf-syntax-ns#"
   xmlns:svg="http://www.w3.org/2000/svg"
   xmlns="http://www.w3.org/2000/svg"
   version="1.1"
   width="100%"
   height="100%"
   viewBox="0 0 14 14"
   id="svg2">
  <metadata
     id="metadata8">
    <rdf:RDF>
      <cc:Work
         rdf:about="">
        <dc:format>image/svg+xml</dc:format>
        <dc:type
           rdf:resource="http://purl.org/dc/dcmitype/StillImage" />
        <dc:title></dc:title>
      </cc:Work>
    </rdf:RDF>
  </metadata>
  <defs
     id="defs6" />
  <rect
     width="14"
     height="14"
     x="0"
     y="0"
     id="canvas"
     style="fill:none;stroke:none;visibility:hidden" />
  <path
     d="M 2,0 C 0.491525,0 0,1 0,2 0.02381,3 0.542373,4 2,4 L 12,4 11,3 2,3 C 1,3 1,2 1,2 1,2 1,1 2,1 L 11,1 12,0 2,0 z m 0,1.75 0,0.5 9,0 0,-0.5 -9,0 z M 4,5 C 2.491525,5 2,6 2,7 2.02381,8 2.542373,9 4,9 L 14,9 13,8 4,8 C 3,8 3,7 3,7 3,7 3,6 4,6 L 13,6 14,5 4,5 z m 0,1.75 0,0.5 9,0 0,-0.5 -9,0 z M 2,10 c -1.508475,0 -2,1 -2,2 0.02381,1 0.542373,2 2,2 l 10,0 -1,-1 -9,0 C 1,13 1,12 1,12 1,12 1,11 2,11 l 9,0 1,-1 -10,0 z m 0,1.75 0,0.5 9,0 0,-0.5 -9,0 z"
     id="books"
     style="fill:#000000;fill-opacity:1;fill-rule:evenodd;stroke:none" />
</svg>
