<?xml version="1.0" encoding="UTF-8" standalone="no"?>
<!-- Created with Inkscape (http://www.inkscape.org/) -->

<svg
   xmlns:dc="http://purl.org/dc/elements/1.1/"
   xmlns:cc="http://creativecommons.org/ns#"
   xmlns:rdf="http://www.w3.org/1999/02/22-rdf-syntax-ns#"
   xmlns:svg="http://www.w3.org/2000/svg"
   xmlns="http://www.w3.org/2000/svg"
   version="1.1"
   width="100%"
   height="100%"
   viewBox="0 0 14 14"
   id="svg2">
  <metadata
     id="metadata8">
    <rdf:RDF>
      <cc:Work
         rdf:about="">
        <dc:format>image/svg+xml</dc:format>
        <dc:type
           rdf:resource="http://purl.org/dc/dcmitype/StillImage" />
        <dc:title></dc:title>
      </cc:Work>
    </rdf:RDF>
  </metadata>
  <defs
     id="defs6" />
  <rect
     width="14"
     height="14"
     x="0"
     y="0"
     id="canvas"
     style="fill:none;stroke:none;visibility:hidden" />
  <path
     d="M 2,0 2,2.5 6,2.5 6,0 2,0 z M 9,0 9,0.75 C 9.5038009,0.75 10.75,0.7201147 10.75,0 L 9,0 z m 2.5,0 0,13 c 0.02966,1 0.75,1 0.75,1 0,0 0.75,0 0.75,-1 L 13,1.5 C 13,0.545632 12.326618,0 11.5,0 z M 9,1 9,1.75 c 0.524757,0 1.75,0.011131 1.75,-0.75 L 9,1 z M 9,2 9,2.75 C 9.4741399,2.75 10.75,2.727344 10.75,2 L 9,2 z M 9,3 9,3.75 C 9.5033641,3.75 10.75,3.729464 10.75,3 L 9,3 z M 2,4 c 0,4 -1,6 -1,8 l 6,0 C 7,9.9986973 6,8.0004238 6,4 L 2,4 z m 7,0 0,0.75 c 0.524757,0 1.75,-0.015927 1.75,-0.75 L 9,4 z m -8,9 c 0,0 0,1 1,1 l 4,0 c 1,0 1,-1 1,-1 l -6,0 z"
     id="chemist"
     style="fill:#000000;fill-opacity:1;stroke:none" />
</svg>
