<?xml version="1.0" encoding="UTF-8" standalone="no"?>
<!-- Created with Inkscape (http://www.inkscape.org/) -->

<svg
   xmlns:dc="http://purl.org/dc/elements/1.1/"
   xmlns:cc="http://creativecommons.org/ns#"
   xmlns:rdf="http://www.w3.org/1999/02/22-rdf-syntax-ns#"
   xmlns:svg="http://www.w3.org/2000/svg"
   xmlns="http://www.w3.org/2000/svg"
   version="1.1"
   width="100%"
   height="100%"
   viewBox="0 0 14 14"
   id="svg2">
  <metadata
     id="metadata8">
    <rdf:RDF>
      <cc:Work
         rdf:about="">
        <dc:format>image/svg+xml</dc:format>
        <dc:type
           rdf:resource="http://purl.org/dc/dcmitype/StillImage" />
        <dc:title></dc:title>
      </cc:Work>
    </rdf:RDF>
  </metadata>
  <defs
     id="defs6" />
  <rect
     width="14"
     height="14"
     x="0"
     y="0"
     id="canvas"
     style="fill:none;stroke:none;visibility:hidden" />
  <path
     d="M 3.5,2 C 2.541947,2 2,2.6048675 2,3.5 L 2,10 12,10 12,3.5 C 12,2.6468145 11.332212,2 10.5,2 l -7,0 z M 7,2.4375 c 0.2071068,0 0.375,0.1678932 0.375,0.375 0,0.2071068 -0.1678932,0.375 -0.375,0.375 -0.2071068,0 -0.375,-0.1678932 -0.375,-0.375 0,-0.2071068 0.1678932,-0.375 0.375,-0.375 z M 3,3.5 11,3.5 11,9 3,9 3,3.5 z M 4,4.75 4,5 7,5 7,4.75 l -3,0 z m 4,0 0,0.25 2,0 0,-0.25 -2,0 z m -4,1 0,0.25 4,0 0,-0.25 -4,0 z m 5,0 0,0.25 1,0 0,-0.25 -1,0 z m -5,1 0,0.25 2,0 0,-0.25 -2,0 z m 3,0 0,0.25 3,0 0,-0.25 -3,0 z m -3,1 0,0.25 6,0 0,-0.25 -6,0 z M 1.25,11 C 0,11 0,12 0,12 c 0,0 0,1 1.25,1 l 11.5,0 C 14,13 14,12 14,12 c 0,0 0,-1 -1.25,-1 l -11.5,0 z m 4.75,0.75 2,0 c 0.4813687,0 0.5739503,0.5 0,0.5 l -2,0 c -0.4813687,0 -0.5320033,-0.5 0,-0.5 z"
     id="computer"
     style="fill:#000000;fill-opacity:1;stroke:none" />
</svg>
