<?xml version="1.0" encoding="UTF-8" standalone="no"?>
<!-- Created with Inkscape (http://www.inkscape.org/) -->

<svg
   xmlns:dc="http://purl.org/dc/elements/1.1/"
   xmlns:cc="http://creativecommons.org/ns#"
   xmlns:rdf="http://www.w3.org/1999/02/22-rdf-syntax-ns#"
   xmlns:svg="http://www.w3.org/2000/svg"
   xmlns="http://www.w3.org/2000/svg"
   version="1.1"
   width="100%"
   height="100%"
   viewBox="0 0 14 14"
   id="svg2">
  <defs
     id="defs8" />
  <metadata
     id="metadata8">
    <rdf:RDF>
      <cc:Work
         rdf:about="">
        <dc:format>image/svg+xml</dc:format>
        <dc:type
           rdf:resource="http://purl.org/dc/dcmitype/StillImage" />
        <dc:title></dc:title>
      </cc:Work>
    </rdf:RDF>
  </metadata>
  <rect
     width="14"
     height="14"
     x="0"
     y="0"
     id="canvas"
     style="fill:none;stroke:none;visibility:hidden" />
  <path
     d="M 2,0 2,14 12,14 12,0 2,0 z M 7,1 C 8.1045695,1 9,1.8954305 9,3 9,4.1045695 8.1045695,5 7,5 5.8954305,5 5,4.1045695 5,3 5,1.8954305 5.8954305,1 7,1 z M 7,2.5 C 6.7238576,2.5 6.5,2.7238576 6.5,3 6.5,3.2761424 6.7238576,3.5 7,3.5 7.2761424,3.5 7.5,3.2761424 7.5,3 7.5,2.7238576 7.2761424,2.5 7,2.5 z M 7,6 c 1.8325958,-2e-7 3.5,1.6674042 3.5,3.5 C 10.5,11.332596 8.8325958,13 7,13 5.1674044,13 3.5000001,11.332596 3.5,9.5 3.5,7.6674043 5.1674043,6 7,6 z M 7,8 C 6.2146018,8 5.5,8.7146018 5.5,9.5 5.5000002,10.285398 6.2146019,11 7,11 7.7853981,11 8.4999998,10.285398 8.5,9.5 8.5,8.7146018 7.7853982,8 7,8 z"
     id="hifi"
     style="fill:#000000;fill-opacity:1;fill-rule:evenodd;stroke:none" />
</svg>
