<?xml version="1.0" encoding="UTF-8" standalone="no"?>
<!-- Created with Inkscape (http://www.inkscape.org/) -->

<svg
   xmlns:dc="http://purl.org/dc/elements/1.1/"
   xmlns:cc="http://creativecommons.org/ns#"
   xmlns:rdf="http://www.w3.org/1999/02/22-rdf-syntax-ns#"
   xmlns:svg="http://www.w3.org/2000/svg"
   xmlns="http://www.w3.org/2000/svg"
   version="1.1"
   width="100%"
   height="100%"
   viewBox="0 0 14 14"
   id="svg2">
  <metadata
     id="metadata8">
    <rdf:RDF>
      <cc:Work
         rdf:about="">
        <dc:format>image/svg+xml</dc:format>
        <dc:type
           rdf:resource="http://purl.org/dc/dcmitype/StillImage" />
        <dc:title></dc:title>
      </cc:Work>
    </rdf:RDF>
  </metadata>
  <defs
     id="defs6" />
  <rect
     width="14"
     height="14"
     x="0"
     y="0"
     id="canvas"
     style="fill:none;stroke:none;visibility:hidden" />
  <path
     d="M 2,0 0,3 C 0,4.0419699 0.230228,5 1.75,5 3.269772,5 3.496775,4.0003095 3.5,3 L 4.75,0 2,0 z M 6,0 5.25,3 C 5.25,4.0167432 5.409138,5 7,5 8.590862,5 8.746852,3.9766052 8.75,3 L 8,0 6,0 z m 3.25,0 1.25,3 c 0,1.0227654 0.323901,2 1.75,2 C 13.676099,5 14,3.9832355 14,3 L 12,0 9.25,0 z M 1,6 1,14 13,14 13,6 1,6 z m 3,2 6,0 c 0.565272,0 1,0.505387 1,1 l 0,2 -8,0 0,-2 C 3,8.458281 3.505387,8 4,8 z"
     id="kiosk"
     style="fill:#000000;fill-opacity:1;stroke:none" />
</svg>
