<?xml version="1.0" encoding="UTF-8" standalone="no"?>
<!-- Created with Inkscape (http://www.inkscape.org/) -->

<svg
   xmlns:dc="http://purl.org/dc/elements/1.1/"
   xmlns:cc="http://creativecommons.org/ns#"
   xmlns:rdf="http://www.w3.org/1999/02/22-rdf-syntax-ns#"
   xmlns:svg="http://www.w3.org/2000/svg"
   xmlns="http://www.w3.org/2000/svg"
   version="1.1"
   width="100%"
   height="100%"
   viewBox="0 0 14 14"
   id="svg2">
  <metadata
     id="metadata8">
    <rdf:RDF>
      <cc:Work
         rdf:about="">
        <dc:format>image/svg+xml</dc:format>
        <dc:type
           rdf:resource="http://purl.org/dc/dcmitype/StillImage" />
        <dc:title></dc:title>
      </cc:Work>
    </rdf:RDF>
  </metadata>
  <defs
     id="defs6" />
  <rect
     width="14"
     height="14"
     x="0"
     y="0"
     id="canvas"
     style="fill:none;stroke:none;visibility:hidden" />
  <path
     d="M 3,1 C 2,1 1,2 1,3 L 1,14 13,14 13,3 C 13,2 12,1 11,1 z M 7,2 C 7,2 8,2 8,3 8,4 7,4 7,4 L 6,4 C 6,4 5,4 5,3 5,2 6,2 6,2 z m 3,0 c 0.552285,0 1,0.4477153 1,1 0,0.5522847 -0.447715,1 -1,1 C 9.4477153,4 9,3.5522847 9,3 9,2.4477153 9.4477153,2 10,2 z M 7,5.53125 c 1.932997,0 3.5,1.5670034 3.5,3.5 0,1.932997 -1.567003,3.5 -3.5,3.5 -1.932997,0 -3.5,-1.567003 -3.5,-3.5 0,-1.9329966 1.567003,-3.5 3.5,-3.5 z m -2,3.5 c 0,1.104569 0.895431,2 2,2 1.104569,0 2,-0.895431 2,-2 l -2,0 z"
     id="laundry"
     style="fill:#000000" />
</svg>
