<?xml version="1.0" encoding="UTF-8" standalone="no"?>
<!-- Created with Inkscape (http://www.inkscape.org/) -->

<svg
   xmlns:dc="http://purl.org/dc/elements/1.1/"
   xmlns:cc="http://creativecommons.org/ns#"
   xmlns:rdf="http://www.w3.org/1999/02/22-rdf-syntax-ns#"
   xmlns:svg="http://www.w3.org/2000/svg"
   xmlns="http://www.w3.org/2000/svg"
   version="1.1"
   width="100%"
   height="100%"
   viewBox="0 0 14 14"
   id="svg2">
  <metadata
     id="metadata8">
    <rdf:RDF>
      <cc:Work
         rdf:about="">
        <dc:format>image/svg+xml</dc:format>
        <dc:type
           rdf:resource="http://purl.org/dc/dcmitype/StillImage" />
        <dc:title></dc:title>
      </cc:Work>
    </rdf:RDF>
  </metadata>
  <defs
     id="defs6" />
  <rect
     width="14"
     height="14"
     x="0"
     y="0"
     id="canvas"
     style="fill:none;stroke:none;visibility:hidden" />
  <path
     d="M 10.5,0 C 9.574658,0 8.776015,0.502762 8.34375,1.25 L 2.5,1.25 C 1.622246,1.25 1,1.7711864 1,2.5 1,3.2288136 1.603432,3.75 2.5,3.75 l 5.84375,0 C 8.776015,4.4972377 9.574658,5 10.5,5 11.425343,5 12.223985,4.4972377 12.65625,3.75 L 11,3.75 9.5,2.5 11,1.25 l 1.65625,0 C 12.223985,0.5027623 11.425343,0 10.5,0 z m -8,2 C 2.776142,2 3,2.2238576 3,2.5 3,2.7761424 2.776142,3 2.5,3 2.223858,3 2,2.7761424 2,2.5 2,2.2238576 2.223858,2 2.5,2 z m 5.5,3.4375 0.03125,1 L 9,7 9,8 5.25,8 5,8 5,7 5.5,7 c 0.999979,0 0.999979,-1 0,-1 l -2,0 C 2.500021,6 2.500021,7 3.5,7 L 4,7 4,8 3.4375,9.375 c -0.04165,-0.0023 -0.08284,0 -0.125,0 C 2.04203,9.375 1,10.417004 1,11.6875 1,12.957996 2.04203,14 3.3125,14 4.58297,14 5.625,12.957996 5.625,11.6875 5.625,11.447485 5.56957,11.218899 5.5,11 L 6,11 7,11 9.15625,9 9.4375,9.71875 C 8.797874,10.135655 8.375,10.877559 8.375,11.6875 8.375,12.957996 9.41703,14 10.6875,14 c 1.270469,0 2.34375,-1.042004 2.34375,-2.3125 0,-1.270496 -1.073281,-2.3125 -2.34375,-2.3125 -0.04216,0 -0.08335,-0.0023 -0.125,0 L 10,8 10,6.625 8,5.4375 z M 4.84375,9 l 3.125,0 -1.3125,1.25 -1.5625,0 C 4.939892,10.062277 4.766288,9.851578 4.5625,9.71875 L 4.84375,9 z M 3.3125,10.5 C 3.974987,10.5 4.5,11.024999 4.5,11.6875 4.5,12.350001 3.974987,12.875 3.3125,12.875 2.650013,12.875 2.125,12.350001 2.125,11.6875 2.125,11.024999 2.650013,10.5 3.3125,10.5 z m 7.375,0 c 0.662487,0 1.1875,0.524999 1.1875,1.1875 0,0.662501 -0.525013,1.1875 -1.1875,1.1875 -0.662488,0 -1.15625,-0.524999 -1.15625,-1.1875 0,-0.662501 0.493762,-1.1875 1.15625,-1.1875 z"
     id="repair-bicycle"
     style="fill:#000000;stroke:none" />
</svg>
