<?xml version="1.0" encoding="UTF-8" standalone="no"?>
<!-- Created with Inkscape (http://www.inkscape.org/) -->

<svg
   xmlns:dc="http://purl.org/dc/elements/1.1/"
   xmlns:cc="http://creativecommons.org/ns#"
   xmlns:rdf="http://www.w3.org/1999/02/22-rdf-syntax-ns#"
   xmlns:svg="http://www.w3.org/2000/svg"
   xmlns="http://www.w3.org/2000/svg"
   version="1.1"
   width="100%"
   height="100%"
   viewBox="0 0 14 14"
   id="svg2">
  <metadata
     id="metadata8">
    <rdf:RDF>
      <cc:Work
         rdf:about="">
        <dc:format>image/svg+xml</dc:format>
        <dc:type
           rdf:resource="http://purl.org/dc/dcmitype/StillImage" />
        <dc:title></dc:title>
      </cc:Work>
    </rdf:RDF>
  </metadata>
  <defs
     id="defs6" />
  <rect
     width="14"
     height="14"
     x="0"
     y="0"
     id="canvas"
     style="fill:none;stroke:none;visibility:hidden" />
  <path
     d="M 2,2 0,4.5 0,5 14,5 14,4.5 12,2 z m -2,4 0,6 5,0 c 0,-1 0,-3 2,-3 2,0 2,2 2,3 l 5,0 0,-6 z M 2.5,8 C 3,8 3.017512,8.67576 3,9 L 3,10 2,10 2,9 C 2,8.675287 2,8 2.5,8 z m 9,0 C 12,8 12.017511,8.67576 12,9 l 0,1 -1,0 0,-1 c 0,-0.324713 0,-1 0.5,-1 z"
     id="castle-manor"
     style="fill:#000000;fill-opacity:1;stroke:none" />
</svg>
