<?xml version="1.0" encoding="UTF-8" standalone="no"?>
<!-- Created with Inkscape (http://www.inkscape.org/) -->

<svg
   xmlns:dc="http://purl.org/dc/elements/1.1/"
   xmlns:cc="http://creativecommons.org/ns#"
   xmlns:rdf="http://www.w3.org/1999/02/22-rdf-syntax-ns#"
   xmlns:svg="http://www.w3.org/2000/svg"
   xmlns="http://www.w3.org/2000/svg"
   version="1.1"
   width="100%"
   height="100%"
   viewBox="0 0 14 14"
   id="svg2">
  <metadata
     id="metadata8">
    <rdf:RDF>
      <cc:Work
         rdf:about="">
        <dc:format>image/svg+xml</dc:format>
        <dc:type
           rdf:resource="http://purl.org/dc/dcmitype/StillImage" />
        <dc:title></dc:title>
      </cc:Work>
    </rdf:RDF>
  </metadata>
  <defs
     id="defs6" />
  <rect
     width="14"
     height="14"
     x="0"
     y="0"
     id="canvas"
     style="fill:none;stroke:none;visibility:hidden" />
  <path
     d="M 0,1 0,3 5,3 5,1 4,1 4,2 3,2 3,1 2,1 2,2 1,2 1,1 0,1 z m 9,0 0,2 5,0 0,-2 -1,0 0,1 -1,0 0,-1 -1,0 0,1 -1,0 0,-1 -1,0 z m -9,3 0,9 5,0 c 0,-1 0,-3 2,-3 2,0 2,2 2,3 L 14,13 14,4 9,4 9,6 7,6 5,6 5,4 0,4 z M 2,6 3,6 3,7 2.5,8 2,7 2,6 z m 9,0 1,0 0,1 L 11.5,8 11,7 11,6 z"
     id="castle-fortress"
     style="fill:#000000;fill-opacity:1;stroke:none" />
</svg>
