<?xml version="1.0" encoding="UTF-8" standalone="no"?>
<!-- Created with Inkscape (http://www.inkscape.org/) -->

<svg
   xmlns:dc="http://purl.org/dc/elements/1.1/"
   xmlns:cc="http://creativecommons.org/ns#"
   xmlns:rdf="http://www.w3.org/1999/02/22-rdf-syntax-ns#"
   xmlns:svg="http://www.w3.org/2000/svg"
   xmlns="http://www.w3.org/2000/svg"
   version="1.1"
   width="100%"
   height="100%"
   viewBox="0 0 14 14"
   id="svg2">
  <metadata
     id="metadata8">
    <rdf:RDF>
      <cc:Work
         rdf:about="">
        <dc:format>image/svg+xml</dc:format>
        <dc:type
           rdf:resource="http://purl.org/dc/dcmitype/StillImage" />
        <dc:title></dc:title>
      </cc:Work>
    </rdf:RDF>
  </metadata>
  <defs
     id="defs6" />
  <rect
     width="14"
     height="14"
     x="0"
     y="0"
     id="canvas"
     style="fill:none;stroke:none;visibility:hidden" />
  <path
     d="M 2.75,2 2,3 l 0,0.34375 3,0 L 5,3 4.1875,2 z M 9.8125,2 9,3 l 0,0.34375 3,0 L 12,3 11.25,2 z M 2,4 2,7 12,7 12,4 9,4 9,5 7,5 5,5 5,4 z M 3.5,5 C 4,5 4,5.4907295 4,5.5 L 4,6 3,6 3,5.5 C 3,5.5 3,5 3.5,5 z m 7,0 C 11,5 11,5.4907296 11,5.5 L 11,6 10,6 10,5.5 c 0,-2e-7 0,-0.5 0.5,-0.5 z M 1,8 0,12 14,12 13,8 z"
     id="fort"
     style="fill:#000000;fill-opacity:1;stroke:none" />
</svg>
