<?xml version="1.0" encoding="UTF-8" standalone="no"?>
<!-- Created with Inkscape (http://www.inkscape.org/) -->

<svg
   xmlns:dc="http://purl.org/dc/elements/1.1/"
   xmlns:cc="http://creativecommons.org/ns#"
   xmlns:rdf="http://www.w3.org/1999/02/22-rdf-syntax-ns#"
   xmlns:svg="http://www.w3.org/2000/svg"
   xmlns="http://www.w3.org/2000/svg"
   version="1.1"
   width="100%"
   height="100%"
   viewBox="0 0 14 14"
   id="svg2">
  <metadata
     id="metadata8">
    <rdf:RDF>
      <cc:Work
         rdf:about="">
        <dc:format>image/svg+xml</dc:format>
        <dc:type
           rdf:resource="http://purl.org/dc/dcmitype/StillImage" />
        <dc:title></dc:title>
      </cc:Work>
    </rdf:RDF>
  </metadata>
  <defs
     id="defs6" />
  <rect
     width="14"
     height="14"
     x="0"
     y="0"
     id="canvas"
     style="fill:none;stroke:none;visibility:hidden" />
  <path
     d="M 7,0.75 C 5,0.75 4.75,1.9948911 4.75,2.5 l 0,2.5 -1,0 0,1 L 5,7 4.25,14 9.75,13.999936 9,7 l 1.25,-1 0,-1 -1,0 0,-2.5 C 9.25,1.9927186 9,0.72902649 7,0.75 z M 7,2 C 7.7483179,2 8,2.5805299 8,3 L 8,5 6,5 6,3 C 6,2.5595564 6.2097351,2 7,2 z"
     id="lighthouse"
     style="color:#000000;fill:#000000;fill-opacity:1" />
</svg>
