<?xml version="1.0" encoding="UTF-8" standalone="no"?>
<!-- Created with Inkscape (http://www.inkscape.org/) -->

<svg
   xmlns:dc="http://purl.org/dc/elements/1.1/"
   xmlns:cc="http://creativecommons.org/ns#"
   xmlns:rdf="http://www.w3.org/1999/02/22-rdf-syntax-ns#"
   xmlns:svg="http://www.w3.org/2000/svg"
   xmlns="http://www.w3.org/2000/svg"
   version="1.1"
   width="100%"
   height="100%"
   viewBox="0 0 10 10"
   id="svg2">
  <metadata
     id="metadata8">
    <rdf:RDF>
      <cc:Work
         rdf:about="">
        <dc:format>image/svg+xml</dc:format>
        <dc:type
           rdf:resource="http://purl.org/dc/dcmitype/StillImage" />
        <dc:title></dc:title>
      </cc:Work>
    </rdf:RDF>
  </metadata>
  <defs
     id="defs6" />
  <rect
     width="10"
     height="10"
     x="0"
     y="0"
     id="canvas"
     style="fill:none;stroke:none;visibility:hidden" />
  <path
     d="M 0.5,1.5 C 0.5,1.5 0,1.5 0,2 L 0,8 1,8 1,2 C 1,1.5 0.5,1.5 0.5,1.5 z M 1,8 9,8 8.5,7 1.5,7 1,8 z m 8,0 1,0 0,-6 C 10,1.5 9.5,1.5 9.5,1.5 9.5,1.5 9,1.5 9,2 L 9,8 z M 3.5,3 3,4 7,4 6.5,3 3.5,3 z M 2.5,5 2,6 8,6 7.5,5 2.5,5 z"
     id="cattle-grid"
     style="fill:#000000;fill-opacity:1;stroke:none" />
</svg>
