<?xml version="1.0" encoding="UTF-8" standalone="no"?>
<!-- Created with Inkscape (http://www.inkscape.org/) -->

<svg
   xmlns:dc="http://purl.org/dc/elements/1.1/"
   xmlns:cc="http://creativecommons.org/ns#"
   xmlns:rdf="http://www.w3.org/1999/02/22-rdf-syntax-ns#"
   xmlns:svg="http://www.w3.org/2000/svg"
   xmlns="http://www.w3.org/2000/svg"
   version="1.1"
   width="100%"
   height="100%"
   viewBox="0 0 14 14"
   id="svg2">
  <metadata
     id="metadata8">
    <rdf:RDF>
      <cc:Work
         rdf:about="">
        <dc:format>image/svg+xml</dc:format>
        <dc:type
           rdf:resource="http://purl.org/dc/dcmitype/StillImage" />
        <dc:title></dc:title>
      </cc:Work>
    </rdf:RDF>
  </metadata>
  <defs
     id="defs6" />
  <rect
     width="14"
     height="14"
     x="0"
     y="0"
     id="canvas"
     style="fill:none;stroke:none;visibility:hidden" />
  <path
     d="M 0.84375,3 C 0.5625,3.046875 -1.071429e-8,3.25 0,4 l 0,7 2,0 0,-7 C 2,3 1,3 1,3 1,3 0.9375,2.984375 0.84375,3 z M 2,11 12,11 11.5,10 2.5,10 2,11 z m 10,0 2,0 0,-7 C 14,3 13,3 13,3 13,3 12.9375,2.984375 12.84375,3 12.5625,3.046875 12,3.25 12,4 l 0,7 z M 4.5,6 4,7 10,7 9.5,6 4.5,6 z M 3.5,8 3,9 11,9 10.5,8 3.5,8 z"
     id="cattle-grid"
     style="fill:#000000;fill-opacity:1;stroke:none" />
</svg>
