<?xml version="1.0" encoding="UTF-8" standalone="no"?>
<!-- Created with Inkscape (http://www.inkscape.org/) -->

<svg
   xmlns:dc="http://purl.org/dc/elements/1.1/"
   xmlns:cc="http://creativecommons.org/ns#"
   xmlns:rdf="http://www.w3.org/1999/02/22-rdf-syntax-ns#"
   xmlns:svg="http://www.w3.org/2000/svg"
   xmlns="http://www.w3.org/2000/svg"
   version="1.1"
   width="100%"
   height="100%"
   viewBox="0 0 14 14"
   id="svg2">
  <metadata
     id="metadata8">
    <rdf:RDF>
      <cc:Work
         rdf:about="">
        <dc:format>image/svg+xml</dc:format>
        <dc:type
           rdf:resource="http://purl.org/dc/dcmitype/StillImage" />
        <dc:title></dc:title>
      </cc:Work>
    </rdf:RDF>
  </metadata>
  <defs
     id="defs6" />
  <rect
     width="14"
     height="14"
     x="0"
     y="0"
     id="canvas"
     style="fill:none;stroke:none;visibility:hidden" />
  <path
     d="M 0.84375,2 C 0.5625,2.046875 0,2.25 0,3 l 0,9 2,0 0,-3.3125 C 1.6300346,8.4774734 1.3229566,8.1746775 1.15625,7.78125 0.78008275,6.8934953 1.1828719,5.7751702 2,5.28125 L 2,3 C 2,2 1,2 1,2 1,2 0.9375,1.984375 0.84375,2 z m 12,0 C 12.5625,2.046875 12,2.25 12,3 l 0,9 2,0 0,-9 C 14,2 13,2 13,2 13,2 12.9375,1.984375 12.84375,2 z M 9.875,3 C 9.777294,3.017072 9.6821585,3.048784 9.59375,3.09375 l -7,3 C 2.0564586,6.2619445 1.7697007,6.9550053 2,7.46875 2.2302993,7.9824946 2.9232021,8.195449 3.40625,7.90625 l 7,-3 C 10.840329,4.7135022 11.096254,4.1762637 10.96875,3.71875 10.841246,3.2612362 10.346201,2.9404567 9.875,3 z"
     id="lift-gate"
     style="fill:#000000;fill-opacity:1;stroke:none" />
</svg>
