<?xml version="1.0" encoding="UTF-8" standalone="no"?>
<!-- Created with Inkscape (http://www.inkscape.org/) -->

<svg
   xmlns:dc="http://purl.org/dc/elements/1.1/"
   xmlns:cc="http://creativecommons.org/ns#"
   xmlns:rdf="http://www.w3.org/1999/02/22-rdf-syntax-ns#"
   xmlns:svg="http://www.w3.org/2000/svg"
   xmlns="http://www.w3.org/2000/svg"
   version="1.1"
   width="100%"
   height="100%"
   viewBox="0 0 10 10"
   id="svg2">
  <metadata
     id="metadata8">
    <rdf:RDF>
      <cc:Work
         rdf:about="">
        <dc:format>image/svg+xml</dc:format>
        <dc:type
           rdf:resource="http://purl.org/dc/dcmitype/StillImage" />
        <dc:title></dc:title>
      </cc:Work>
    </rdf:RDF>
  </metadata>
  <defs
     id="defs6" />
  <rect
     width="10"
     height="10"
     x="0"
     y="0"
     id="canvas"
     style="fill:none;stroke:none;visibility:hidden" />
  <path
     d="M 0.5,2 C 0.5,2 0,2 0,2.5 l 0,3.3125 a 0.76098723,0.76098723 0 0 0 0,0.375 L 0,9 1,9 1,6.71875 7.25,4.46875 A 0.7579333,0.7579333 0 0 0 6.875,3 0.750075,0.750075 0 0 0 6.75,3.03125 L 1,5.09375 1,2.5 C 1,2 0.5,2 0.5,2 z m 9,0 C 9.5,2 9,2 9,2.5 L 9,9 10,9 10,2.5 C 10,2 9.5,2 9.5,2 z"
     id="lift-gate"
     style="fill:#000000;fill-opacity:1;stroke:none" />
</svg>
