<?xml version="1.0" encoding="utf-8"?>
<!-- Uploaded to: SVG Repo, www.svgrepo.com, Generator: SVG Repo Mixer Tools -->
<svg width="800px" height="800px" viewBox="0 0 16 16" version="1.1" xmlns="http://www.w3.org/2000/svg" xmlns:xlink="http://www.w3.org/1999/xlink" class="si-glyph si-glyph-leaf">
    
    <title>97</title>
    
    <defs>
</defs>
    <g stroke="none" stroke-width="1" fill="none" fill-rule="evenodd">
        <g fill="#434343">
            <path d="M12.295,14.201 C12.43,14.088 12.557,13.969 12.676,13.847 C10.687,12.944 9.178,11.848 7.818,10.739 C6.194,10.735 4.52,10.321 3.663,9.262 C4.94,9.905 6.284,9.908 6.737,9.847 C2.898,6.381 1.835,2.992 1.835,2.992 C3.149,5.052 4.536,6.644 5.894,7.908 C5.325,6.82 5.658,4.808 5.658,4.808 C6.765,8.706 6.895,8.768 6.822,8.802 C7.722,9.531 8.697,10.216 9.509,10.739 C9.217,10.059 9.01,9.068 9.037,7.37 C9.037,7.37 9.759,10.932 10.893,11.809 C11.796,12.33 12.591,12.734 13.207,13.041 C14.183,11.585 14.188,7.703 11.796,6.144 C9.218,4.462 4.871,4.398 0.474,0.096 C-0.841,-1.191 1.603,10.132 5.144,13.289 C7.32,15.234 10.152,15.99 12.295,14.201 L12.295,14.201 Z" class="si-glyph-fill">
</path>
            <path d="M11.266,14.064 C11.266,14.064 12.446,14.677 13.8,15.275 C15.154,15.873 15.803,15.752 15.879,15.9 C15.957,16.05 15.918,14.258 15.918,14.258 C15.918,14.258 14.09,14.691 12.055,13.562 L11.266,14.064 L11.266,14.064 Z" class="si-glyph-fill">
</path>
        </g>
    </g>
</svg>