<?xml version="1.0" encoding="utf-8"?>
<!-- Generator: Adobe Illustrator 24.1.1, SVG Export Plug-In . SVG Version: 6.00 Build 0)  -->
<svg version="1.1" id="Layer_1" xmlns="http://www.w3.org/2000/svg" xmlns:xlink="http://www.w3.org/1999/xlink" x="0px" y="0px"
	 viewBox="0 0 512 512" style="enable-background:new 0 0 512 512;" xml:space="preserve">
<g>
	<path d="M256,198.3c67.2,0,121.6,54.5,121.6,121.6S323.2,441.6,256,441.6S134.4,387.1,134.4,320C134.4,252.8,188.8,198.4,256,198.3
		 M256,422.4c56.6,0,102.4-45.9,102.4-102.4c0-56.6-45.9-102.4-102.4-102.4S153.6,263.4,153.6,320
		C153.6,376.5,199.4,422.3,256,422.4 M256,191.9c-70.7,0-128,57.3-128,128c0,70.7,57.3,128,128,128s128-57.3,128-128
		C383.9,249.3,326.7,192,256,191.9z M256,416c-53,0-96-43-96-96s43-96,96-96s96,43,96,96C352,373,309,415.9,256,416z M346.6,229.5
		c-20.1-20.2-46.3-33.1-74.6-36.6V96c-0.7-3.1,1.3-6.1,4.4-6.8l4.3,0.8l47.2,21.5c3.3,1,6.7-0.7,7.8-4l-1.3-6L256,0l-78.5,101.5
		l0.5,8.7l6,1.3L231.3,90l7.9,1.7L240,96v127.9h16c53,0,96,43,96,96s-43,96-96,96h-16v96h32v-65c70.2-8.9,119.9-72.9,111-143.1
		C379.5,275.8,366.6,249.6,346.6,229.5z"/>
</g>
</svg>
