<?xml version="1.0" encoding="utf-8"?>
<!-- Generator: Adobe Illustrator 24.1.1, SVG Export Plug-In . SVG Version: 6.00 Build 0)  -->
<svg version="1.1" id="Layer_1" xmlns="http://www.w3.org/2000/svg" xmlns:xlink="http://www.w3.org/1999/xlink" x="0px" y="0px"
	 viewBox="0 0 512 512" style="enable-background:new 0 0 512 512;" xml:space="preserve">
<g>
	<path d="M186.9,145c71.5,0,129.4,57.9,129.4,129.4s-57.9,129.4-129.4,129.4S57.5,345.8,57.5,274.4
		C57.6,202.9,115.5,145.1,186.9,145 M186.9,383.3c60.2,0,109-48.8,109-109c0-60.2-48.8-108.9-109-108.9
		C126.8,165.4,78,214.2,78,274.4C78,334.5,126.8,383.3,186.9,383.3 M186.9,138.2c-75.2,0-136.2,61-136.2,136.2
		c0,75.2,61,136.2,136.2,136.2s136.2-61,136.2-136.2C323,199.2,262.1,138.2,186.9,138.2z M186.9,376.5
		c-56.4,0-102.1-45.7-102.1-102.1s45.7-102.1,102.1-102.1s102.1,45.7,102.1,102.1C289,330.7,243.3,376.5,186.9,376.5z M325.9,17.3
		c-3.6,0.2-6.4,3.4-6.2,7l3.6,5.5L375,49.1c3.3,0.7,5.4,4,4.7,7.2l-2.7,3.8L247.1,190.1l12,12c39.9,39.9,39.9,104.6,0,144.4
		c-19.2,19.2-45.1,29.9-72.2,29.9h-17V512h34V409.5c74.6-9.4,127.5-77.6,118.1-152.2c-3.1-24.2-12.6-47.2-27.5-66.5L401.1,84.3
		l8.4-1.8l2.7,3.8l19.4,51.7c1.6,3.2,5.6,4.5,8.8,2.9l3.6-5.5L461.3,0L325.9,17.3z"/>
</g>
</svg>
