<?xml version="1.0" encoding="utf-8"?>
<!-- Generator: Adobe Illustrator 24.1.1, SVG Export Plug-In . SVG Version: 6.00 Build 0)  -->
<svg version="1.1" id="Layer_1" xmlns="http://www.w3.org/2000/svg" xmlns:xlink="http://www.w3.org/1999/xlink" x="0px" y="0px"
	 viewBox="0 0 512 512" style="enable-background:new 0 0 512 512;" xml:space="preserve">
<g>
	<path d="M136.5,75.2c71.6,0,129.6,58,129.6,129.6s-58,129.6-129.6,129.6S6.8,276.4,6.8,204.8C6.9,133.3,64.9,75.3,136.5,75.2
		 M136.5,314c60.3,0,109.2-48.9,109.2-109.2S196.7,95.7,136.5,95.7c-60.3,0-109.2,48.9-109.2,109.2C27.4,265.1,76.2,313.9,136.5,314
		 M136.5,68.4C61.1,68.4,0,129.5,0,204.8s61.1,136.5,136.5,136.5c75.4,0,136.5-61.1,136.5-136.5C272.8,129.5,211.8,68.5,136.5,68.4z
		 M136.5,307.2c-56.5,0-102.3-45.8-102.3-102.3s45.8-102.3,102.3-102.3c56.5,0,102.3,45.8,102.3,102.3
		C238.7,261.3,192.9,307.1,136.5,307.2z M403.8,121.2l-9.3,0.6l-1.3,6.4l22.9,50.3l-1.8,8.4l-4.6,0.8H238.8v17.1
		c0,56.5-45.8,102.3-102.3,102.3h-17.1v136.5h34.1V340.2c61.8-7.8,110.5-56.5,118.3-118.3h137.8c3.3-0.7,6.5,1.4,7.3,4.6l-0.8,4.6
		l-22.9,50.3c-1.1,3.5,0.8,7.2,4.2,8.3l6.4-1.3L512,204.8L403.8,121.2z"/>
</g>
</svg>
