<?xml version="1.0" encoding="utf-8"?>
<!-- Generator: Adobe Illustrator 24.1.1, SVG Export Plug-In . SVG Version: 6.00 Build 0)  -->
<svg version="1.1" id="Layer_1" xmlns="http://www.w3.org/2000/svg" xmlns:xlink="http://www.w3.org/1999/xlink" x="0px" y="0px"
	 viewBox="0 0 512 512" style="enable-background:new 0 0 512 512;" xml:space="preserve">
<g>
	<path d="M165.7,179.1l83.9-70.8c5.9-3.2,8.1-10.7,4.9-16.6c-1.5-2.8-4.2-5-7.3-5.9L146.5,39.8c-6.2-3.8-8.3-11.9-4.5-18.1
		c2.4-4,6.8-6.4,11.4-6.4L426.7,0l-54,268.3c-1,7.2-7.6,12.3-14.8,11.3c-4.6-0.6-8.6-3.6-10.4-8l-31.4-106.2
		c-1-6.7-7.1-11.3-13.8-10.3c-3.2,0.5-6.1,2.2-8,4.8l-83.6,70.5c-39.2,36.3-60.1,88.2-56.8,141.4L154,495c0,9.4-7.6,17-16.9,17h0
		h-34.3c-9.3,0-16.9-7.6-16.9-16.9V376.9C81.2,302.3,110.5,229.6,165.7,179.1z"/>
</g>
</svg>
