<?xml version="1.0" encoding="utf-8"?>
<!-- Generator: Adobe Illustrator 24.1.1, SVG Export Plug-In . SVG Version: 6.00 Build 0)  -->
<svg version="1.1" id="Layer_1" xmlns="http://www.w3.org/2000/svg" xmlns:xlink="http://www.w3.org/1999/xlink" x="0px" y="0px"
	 viewBox="0 0 512 512" style="enable-background:new 0 0 512 512;" xml:space="preserve">
<g>
	<path d="M17.4,512c-9.4,0-17-7.6-17-17l0-425.4C0.2,51.2,7,33.3,19.5,19.8c12.9-13,30.6-20,48.9-19.4l9-0.1
		c42.7-2.7,84.6,12.6,115.4,42.3l183.9,157.2l0.1-0.2c4.1,5.3,11.8,6.3,17.1,2.2c2.6-2,4.2-4.9,4.7-8.1l29.8-106.5
		c2.7-6.8,10.4-10,17.2-7.3c4.3,1.7,7.4,5.7,8.1,10.3l57.8,267.3l-273.2-11.3c-7.3,0.2-13.3-5.6-13.5-12.9c-0.1-4.7,2.2-9,6.2-11.5
		l99.9-47.5c6.3-1.9,9.9-8.5,8-14.8l-5.2-6.7l-184-157.3C131.3,76,104.9,66.1,78.2,68.5l-9.5,0.2V495c0,9.4-7.6,17-17,17H17.4z"/>
</g>
</svg>
