<?xml version="1.0" encoding="utf-8"?>
<!-- Generator: Adobe Illustrator 24.1.1, SVG Export Plug-In . SVG Version: 6.00 Build 0)  -->
<svg version="1.1" id="Layer_1" xmlns="http://www.w3.org/2000/svg" xmlns:xlink="http://www.w3.org/1999/xlink" x="0px" y="0px"
	 viewBox="0 0 512 512" style="enable-background:new 0 0 512 512;" xml:space="preserve">
<g>
	<path d="M223.8,191.8C152.8,193,96,251,96.3,322v174.2c0,8.8-7.1,15.9-15.9,15.9H48.3c-8.8,0-15.9-7.1-15.9-15.9v0l0.1-48.1h-0.1
		V322c-0.2-106.3,85.2-192.9,191.4-194.1l0.3-0.1v0.1h63.5c6.2,1.3,12.3-2.6,13.6-8.7c0.7-3,0.1-6.1-1.5-8.6l-42.9-94.3
		c-2.1-6.5,1.4-13.5,7.9-15.6c4.2-1.4,8.7-0.4,12,2.5l202.9,157.3L276.7,316.6c-5.1,4.5-12.9,4-17.4-1.1c-2.9-3.3-3.8-7.8-2.5-12
		l42.9-94.3c3.4-5.3,1.9-12.4-3.4-15.8c-2.6-1.6-5.7-2.2-8.6-1.5H223.8z"/>
</g>
</svg>
