<?xml version="1.0" encoding="UTF-8" standalone="no"?>
<!-- Created with Inkscape (http://www.inkscape.org/) -->

<svg
   xmlns:dc="http://purl.org/dc/elements/1.1/"
   xmlns:cc="http://creativecommons.org/ns#"
   xmlns:rdf="http://www.w3.org/1999/02/22-rdf-syntax-ns#"
   xmlns:svg="http://www.w3.org/2000/svg"
   xmlns="http://www.w3.org/2000/svg"
   version="1.1"
   width="100%"
   height="100%"
   viewBox="0 0 14 14"
   id="svg2">
  <metadata
     id="metadata8">
    <rdf:RDF>
      <cc:Work
         rdf:about="">
        <dc:format>image/svg+xml</dc:format>
        <dc:type
           rdf:resource="http://purl.org/dc/dcmitype/StillImage" />
        <dc:title></dc:title>
      </cc:Work>
    </rdf:RDF>
  </metadata>
  <defs
     id="defs6" />
  <rect
     width="14"
     height="14"
     x="0"
     y="0"
     id="canvas"
     style="fill:none;stroke:none;visibility:hidden" />
  <path
     d="M 8.28125,1.90625 C 8.1873095,1.9137211 8.0966058,1.9442246 8,2 L 4.96875,3.625 C 4.58422,3.807 4.4339,4.37715 4.6875,4.71875 L 5.25,5.75 2,7.75 2,8.5 C 2,8.5 2.4991574,8 3,8 3.4737861,8 4.4232286,9 5,9 5.5033641,9 6.4961991,8 7,8 7.5243377,8 8.4756623,9 9,9 L 9.34375,9 6.5,4.5 8.59375,3.40625 C 9.041742,3.1476017 9.186529,2.6980781 9,2.375 8.8279386,2.0769809 8.5630716,1.8838367 8.28125,1.90625 z M 10,4.5 C 9.17157,4.5 8.5,5.1716 8.5,6 8.5,6.8284 9.17157,7.5 10,7.5 10.82843,7.5 11.5,6.8284 11.5,6 11.5,5.1716 10.82843,4.5 10,4.5 z m -7,5 c -0.533898,0 -1.492285,1 -2,1 L 1,12 c 0.537184,0 1.525424,-1 2,-1 0.504237,0 1.466102,1 2,1 0.475502,0 1.492285,-1 2,-1 0.504237,0 1.52173,1 2,1 0.504237,0 1.525424,-1 2,-1 0.474576,0 1.495763,1 2,1 l 0,-1.5 c -0.415254,0 -1.466102,-1.0296611 -2,-1 -0.47827,0 -1.465278,1 -2,1 -0.444915,0 -1.495763,-1 -2,-1 -0.504237,0 -1.554097,1 -2,1 -0.475502,0 -1.466102,-1 -2,-1 z"
     id="swimming"
     style="fill:#000000;fill-opacity:1;stroke:none" />
</svg>
