<?xml version="1.0" encoding="UTF-8" standalone="no"?>
<!-- Created with Inkscape (http://www.inkscape.org/) -->

<svg
   xmlns:dc="http://purl.org/dc/elements/1.1/"
   xmlns:cc="http://creativecommons.org/ns#"
   xmlns:rdf="http://www.w3.org/1999/02/22-rdf-syntax-ns#"
   xmlns:svg="http://www.w3.org/2000/svg"
   xmlns="http://www.w3.org/2000/svg"
   version="1.1"
   width="100%"
   height="100%"
   viewBox="0 0 14 14"
   id="svg2">
  <metadata
     id="metadata8">
    <rdf:RDF>
      <cc:Work
         rdf:about="">
        <dc:format>image/svg+xml</dc:format>
        <dc:type
           rdf:resource="http://purl.org/dc/dcmitype/StillImage" />
        <dc:title></dc:title>
      </cc:Work>
    </rdf:RDF>
  </metadata>
  <defs
     id="defs6" />
  <rect
     width="14"
     height="14"
     x="0"
     y="0"
     id="canvas"
     style="fill:none;stroke:none;visibility:hidden" />
  <path
     d="m 3.9686322,0 -2.96878874,3 0,7 c -0.0365905,0.575273 0.47725624,1.000467 1.03126344,1 l 9.9688801,0 C 12.553994,10.999533 13,10.599243 13,10 L 13,3 9.9999609,0 z m 1.0625138,1 3.9688018,0 0,1 -3.9688018,0 z m -2.000026,2 7.968854,0 0,4 -7.968854,0 z m 0.7812601,5 c 0.01042,-1.63e-4 0.02083,-1.63e-4 0.031251,0 0.5728964,-0.09067 1.1633961,0.420024 1.156265,1 0,0.523599 -0.4764072,1 -1.000013,1 C 3.4762768,10 2.9998695,9.523599 2.9998695,9 2.9915694,8.533391 3.3539552,8.08743 3.8123801,8 z m 6.0313287,0 c 0.5728962,-0.09067 1.1633962,0.420024 1.1562652,1 0,0.523599 -0.476407,1 -1.0000131,1 C 9.476355,10 8.9999478,9.523599 8.9999478,9 8.9941477,8.524619 9.3741197,8.074248 9.8437088,8 z m -7.8438523,4 -1.00001304,2 3.00003914,0 1.000013,-2 z M 8.9999478,12 9.9999609,14 13,14 11.999987,12 z"
     id="railway-halt"
     style="fill:#000000;fill-opacity:1;stroke:none" />
</svg>
