<?xml version="1.0" encoding="UTF-8" standalone="no"?>
<!-- Created with Inkscape (http://www.inkscape.org/) -->

<svg
   xmlns:dc="http://purl.org/dc/elements/1.1/"
   xmlns:cc="http://creativecommons.org/ns#"
   xmlns:rdf="http://www.w3.org/1999/02/22-rdf-syntax-ns#"
   xmlns:svg="http://www.w3.org/2000/svg"
   xmlns="http://www.w3.org/2000/svg"
   version="1.1"
   width="100%"
   height="100%"
   viewBox="0 0 14 14"
   id="svg2">
  <metadata
     id="metadata8">
    <rdf:RDF>
      <cc:Work
         rdf:about="">
        <dc:format>image/svg+xml</dc:format>
        <dc:type
           rdf:resource="http://purl.org/dc/dcmitype/StillImage" />
        <dc:title></dc:title>
      </cc:Work>
    </rdf:RDF>
  </metadata>
  <defs
     id="defs6" />
  <rect
     width="14"
     height="14"
     x="0"
     y="0"
     id="canvas"
     style="fill:none;stroke:none;visibility:hidden" />
  <path
     d="M 3.90625,0 A 1.25,1.25 0 0 0 2.75,1.25 1.25,1.25 0 0 0 5.25,1.25 1.25,1.25 0 0 0 3.90625,0 z m 6,0 A 1.25,1.25 0 0 0 8.75,1.25 a 1.25,1.25 0 0 0 2.5,0 A 1.25,1.25 0 0 0 10.03125,0 1.25,1.25 0 0 0 10,0 1.25,1.25 0 0 0 9.90625,0 z M 3,3 C 2,3 2,4 2,4 L 2,5 6,5 6,4 C 6,4 6,3 5,3 L 3,3 z M 9,3 C 8,3 8,4 8,4 l 0,1 4,0 0,-1 C 12,4 12,3 11,3 L 9,3 z M 4,6 3,9 C 2.383515,9 2,9.431455 2,10 l 0,3 1,0 c 0,0 0,1 1,1 1,0 1,-1 1,-1 l 4,0 c 0,0 0,1 1,1 1,0 1,-1 1,-1 l 1,0 0,-3 C 12,9.479394 11.520606,9 11,9 L 10,6 4,6 z M 5,7 9,7 9.625,9 4.375,9 5,7 z m -1,3.25 c 0.414214,0 0.75,0.335786 0.75,0.75 0,0.414214 -0.335786,0.75 -0.75,0.75 -0.414214,0 -0.75,-0.335786 -0.75,-0.75 0,-0.414214 0.335786,-0.75 0.75,-0.75 z m 6,0 c 0.414214,0 0.75,0.335786 0.75,0.75 0,0.414214 -0.335786,0.75 -0.75,0.75 -0.414214,0 -0.75,-0.335786 -0.75,-0.75 0,-0.414214 0.335786,-0.75 0.75,-0.75 z"
     id="shared-car"
     style="fill:#000000;stroke:none" />
</svg>
