/* XPM */
static char *dummy[]={
"16 16 57 1",
". c None",
"X c #000000",
"z c #010101",
"T c #030303",
"k c #060606",
"w c #0a0a0a",
"H c #0b0b0b",
"o c #0d0d0d",
"n c #0e0e0e",
"q c #141414",
"Y c #151515",
"l c #1a1a1a",
"G c #1b1b1b",
"m c #202020",
"A c #272727",
"W c #2b2b2b",
"F c #414141",
"L c #434343",
"j c #454545",
"u c #474747",
"y c #4d4d4d",
"t c #4f4f4f",
"M c #545454",
"J c #5f5f5f",
"E c #606060",
"e c #626262",
"N c #696969",
"f c #6f6f6f",
"B c #727272",
"v c #787878",
"0 c #7a7a7a",
"p c #7c7c7c",
"Z c #888888",
"x c #8a8a8a",
"Q c #8b8b8b",
"2 c #8e8e8e",
"b c #8f8f8f",
"O c #929292",
"S c #949494",
"R c #999999",
"V c #9e9e9e",
"U c #9f9f9f",
"c c #a9a9a9",
"s c #b4b4b4",
"g c #c3c3c3",
"I c #cbcbcb",
"d c #d5d5d5",
"C c #dcdcdc",
"D c #dddddd",
"P c #dedede",
"# c #e7e7e7",
"a c #ececec",
"i c #f1f1f1",
"h c #f5f5f5",
"r c #fbfbfb",
"1 c #fdfdfd",
"K c #fefefe",
"................",
".......#a.......",
".......bc.......",
"......defgh.....",
"....ijklmno.....",
"....pq.bcrs.....",
"....tu.bc.......",
"....vw.xc.......",
"....iyzzABC.....",
"......DEFGHI....",
".......bc.mJ....",
"....K..bc.LM....",
"....NOPQRSTU....",
"....VWzzXYZK....",
"......i0R1......",
".......2c......."};
