/* XPM */
static char * bar_xpm[] = {
"14 16 33 1",
" 	c None",
".	c #FFFFFF",
"+	c #F3F5F9",
"@	c #AAC0EC",
"#	c #99B4E9",
"$	c #97B2E9",
"%	c #ACC2ED",
"&	c #F5F8FD",
"*	c #B3C6EB",
"=	c #3869CF",
"-	c #2D63D3",
";	c #2F65D3",
">	c #B0C2E8",
",	c #F7F7F7",
"'	c #8FA1C4",
")	c #3D6ED1",
"!	c #3166D3",
"~	c #3368D4",
"{	c #3066D3",
"]	c #4172D5",
"^	c #AFC0E4",
"/	c #FBFBFB",
"(	c #B9CBEE",
"_	c #4374D7",
":	c #BACCF0",
"<	c #4474D7",
"[	c #B8CAEE",
"}	c #8CAAE6",
"|	c #95B0E8",
"1	c #BDC8DF",
"2	c #688FDF",
"3	c #B0BBD2",
"4	c #F4F4F3",
" ............ ",
"+@#########$%&",
".*=-;;;;;;;=>.",
" ,')!~~~~{]^/ ",
"  ,(_;~~{):.  ",
"   .(]{{]*.   ",
"    .(<<[.    ",
"     .}}.     ",
"     .$|.     ",
"     .||.     ",
"     .||.     ",
"     .||.     ",
"     .||.     ",
"     .||.     ",
"     .||.     ",
"    ,12234    "};
