/* XPM */
static char *bar[] = {
/* columns rows colors chars-per-pixel */
"16 16 48 1",
"  c #2D63D2",
". c #2D63D3",
"X c #2F65D3",
"o c #3869CF",
"O c #3066D3",
"+ c #3166D3",
"@ c #3368D4",
"# c #3B6CD2",
"$ c #3D6ED1",
"% c #4172D5",
"& c #4273D6",
"* c #4374D7",
"= c #4474D7",
"- c #688FDF",
"; c #6990DF",
": c #8FA1C4",
"> c #8CAAE6",
", c #95B0E8",
"< c #97B2E9",
"1 c #98B3E9",
"2 c #99B4E9",
"3 c #B0BBD2",
"4 c #BDC8DF",
"5 c #AFC0E4",
"6 c #AAC0EC",
"7 c #ACC2ED",
"8 c #B0C2E8",
"9 c #B3C6EB",
"0 c #B4C6EA",
"q c #B8CAEE",
"w c #B9CBEE",
"e c #B9CBEF",
"r c #BACCEF",
"t c #BACCF0",
"y c #F4F4F3",
"u c gray97",
"i c #F3F5F9",
"p c #F5F8FD",
"a c #F9F8F7",
"s c #F9F9F8",
"d c #FBFBFB",
"f c #FCFDFD",
"g c #FDFDFD",
"h c #FDFEFD",
"j c #FEFEFD",
"k c #FEFEFE",
"l c #FEFEFF",
"z c gray100",
/* pixels */
"zzzzzzzzzzzzzzzz",
"zzi6222222222<7p",
"zzz9o.XXXXXXXo8z",
"zzzu:$+@@@@O%5dz",
"zzzzuw*X@@O$tzzz",
"zzzzzzw%OO%9zzzz",
"zzzzzzzw==qzzzzz",
"zzzzzzzz>>zzzzzz",
"zzzzzzzz<,zzzzzz",
"zzzzzzzz,,zzzzzz",
"zzzzzzzz,,zzzzzz",
"zzzzzzzz,,zzzzzz",
"zzzzzzzz,,zzzzzz",
"zzzzzzzz,,zzzzzz",
"zzzzzzzz,,zzzzzz",
"zzzzzzu4--3yzzzz"
};
