/* XPM */
static char *car_dealer[]={
"16 16 7 1",
". c None",
"c c #000000",
"a c #0000ff",
"b c #7f7f7f",
"d c #bfbfbf",
"e c #f6f6fa",
"# c #ffffff",
".##############.",
"#aaaaaaaaaaaaaa#",
"#a############a#",
"#a####bccb####a#",
"#a##dccccccd##a#",
"#a#####cc#####a#",
"#a##dccccccd##a#",
"#a####bccbe###a#",
"#a#####cc#####a#",
"#a####dccd####a#",
"#a####dccd####a#",
"#a####bccb####a#",
"#a####bccb####a#",
"#a############a#",
"#aaaaaaaaaaaaaa#",
".##############."};
