/* XPM */
static char *dummy[]={
"16 10 71 2",
"Qt c None",
".T c #0e101a",
".S c #11111d",
".R c #121220",
".I c #141524",
".Q c #151725",
".A c #1a1d2c",
".5 c #1b1c2b",
".0 c #202439",
".H c #222636",
"#a c #262637",
".8 c #2a2a41",
".E c #313648",
".B c #393a4d",
".J c #3f4352",
".F c #42475c",
".G c #434658",
".D c #454b5d",
".P c #474856",
".4 c #4b5265",
".C c #4c5269",
".W c #525664",
".3 c #53535e",
".e c #555586",
".2 c #555765",
".f c #565797",
".a c #6060f6",
".V c #646d7e",
".1 c #666d82",
".U c #6b707d",
".r c #737585",
".i c #7c7d88",
".c c #82838d",
"## c #868593",
".d c #898992",
".# c #8a8afd",
".O c #8a90a3",
".s c #9096a0",
".k c #9799a5",
".v c #99a0af",
".K c #9eaab6",
".m c #aaabb3",
".9 c #ccccd5",
".j c #d2d2d6",
".u c #d6d6d9",
".b c #d9dce3",
"#b c #e0e0e2",
".n c #ecedee",
".w c #f0f0f3",
".h c #f4f5f8",
"#. c #fbfbfc",
".N c #fe5558",
".q c #fec4c7",
".y c #ff0005",
".Y c #ff050a",
".z c #ff0a0f",
".Z c #ff191e",
"#d c #ff3d41",
".M c #ff4246",
".6 c #ff474b",
".p c #ff5154",
"#c c #ff676a",
".7 c #ff6a6d",
"#e c #ff8082",
".x c #ffacae",
".g c #ffd4d5",
".X c #ffddde",
".o c #ffe2e3",
".L c #ffe9e9",
".l c #fffbfb",
".t c #ffffff",
"QtQtQtQtQtQtQtQtQtQtQtQtQtQtQtQt",
"QtQtQtQt.#.aQtQtQtQtQtQtQtQtQtQt",
"Qt.b.c.d.e.f.bQtQtQtQtQtQt.gQtQt",
".h.i.j.j.k.l.m.nQtQtQtQt.o.p.qQt",
".r.s.t.u.v.t.w.k.j.nQtQt.x.y.z.q",
".A.B.C.D.E.F.G.H.I.J.K.L.M.y.y.N",
".F.O.P.Q.R.S.T.T.U.V.W.X.Y.y.Y.Z",
".B.0.1.2.2.2.3.2.4.5.sQt.Z.6.7.z",
".i.8.9#.#.#.#.#.###a#bQt.p#c#d#e",
"QtQtQtQtQtQtQtQtQtQtQtQtQtQtQtQt"};
