/* XPM */
static char *gc_reference[] = {
/* columns rows colors chars-per-pixel */
"16 16 18 1",
"  c #00656A",
". c #00658B",
"X c #39658B",
"o c #39958B",
"O c #3995B4",
"+ c #7B958B",
"@ c #7B95B4",
"# c #7BCAB4",
"$ c #7BCAD5",
"% c none",
"& c #B4B4B4",
"* c #BDCAD5",
"= c #BDCAFF",
"- c #C5C5C5",
"; c #D5D5D5",
": c #FFFFD5",
"> c #E6E6E6",
", c gray100",
/* pixels */
"%%%%%%%%%%%%%%%%",
"%%%%%**&$*;%%%%%",
"%%%%@#*=;-#@%%%%",
"%%%@*,>,>,>*@%%%",
"%%@*,,,,,,>>*%%%",
"%*#,,,>$*>,,>@;%",
"%&*,,*o. O>,>**%",
"%$>,>@.X..*,,;$%",
"%&>,>@ .X $,,;*%",
"%$*,:*X..o>,,*$%",
"%*#,,;*@@;,,>#*%",
"%%@*,,>>,,,,*@%%",
"%%%@*,,,,,,*+%%%",
"%%%%@#*>>*#@%%%%",
"%%%%%*&&$&*%%%%%",
"%%%%%%%%%%%%%%%%"
};
