/* XPM */
static char * mini_roundabout_xpm[] = {
"13 13 2 1",
" 	c None",
".	c #000000",
"             ",
"             ",
"    .....    ",
"   ..   ..   ",
"  ..     ..  ",
"  .   .   .  ",
"  .  ...  .  ",
"  .   .   .  ",
"  ..     ..  ",
"   ..   ..   ",
"    .....    ",
"             ",
"             "};
