/* XPM */
static char *museum[] = {
/* columns rows colors chars-per-pixel */
"16 15 81 1",
"  c black",
". c #010101",
"X c #020202",
"o c #040404",
"O c #070707",
"+ c gray3",
"@ c gray4",
"# c gray6",
"$ c gray7",
"% c gray8",
"& c gray9",
"* c gray10",
"= c #1E1E1E",
"- c gray13",
"; c #222222",
": c #232323",
"> c #313131",
", c #353535",
"< c #3A3A3A",
"1 c #3E3E3E",
"2 c #3F3F3F",
"3 c #444444",
"4 c gray27",
"5 c gray28",
"6 c #494949",
"7 c gray30",
"8 c #515151",
"9 c #565656",
"0 c #5D5D5D",
"q c #626262",
"w c #646464",
"e c #656565",
"r c #676767",
"t c #686868",
"y c #6D6D6D",
"u c gray43",
"i c #747474",
"p c #7C7C7C",
"a c gray49",
"s c #7E7E7E",
"d c #848484",
"f c gray53",
"g c gray54",
"h c gray55",
"j c #909090",
"k c gray57",
"l c #929292",
"z c gray58",
"x c gray59",
"c c #989898",
"v c #9B9B9B",
"b c gray61",
"n c gray63",
"m c #A2A2A2",
"M c gray66",
"N c #A9A9A9",
"B c #AAAAAA",
"V c gray67",
"C c #ACACAC",
"Z c #B2B2B2",
"A c gray71",
"S c gray72",
"D c #B9B9B9",
"F c #BCBCBC",
"G c #C6C6C6",
"H c #C8C8C8",
"J c #CACACA",
"K c #D8D8D8",
"L c #DADADA",
"P c gainsboro",
"I c #E6E6E6",
"U c #ECECEC",
"Y c #EEEEEE",
"T c gray94",
"R c #F3F3F3",
"E c #F4F4F4",
"W c #F8F8F8",
"Q c gray99",
"! c #FDFDFD",
"~ c #FEFEFE",
"^ c gray100",
/* pixels */
"^^^^^^^^^^^^^^^^",
"^^^^^Ym9<fL^^^^^",
"^^Iz4+     >fL^^",
"^L+           A^",
"^^bjjjjjjjjjjv^^",
"^^y1D^W44R^J1i^^",
"^^y%T^^8w^^^*V^^",
"^^f$^^^0t^^^=V^^",
"^^h*^^^wq^^^=V^^",
"^^j%^^^ww^^^;V^^",
"^^m$^^^tw^^^;V^^",
"^^t$T^I,4^^G#p^^",
"^T+ j^J  L^j ;^^",
"^U76gJDaaDJZzz^^",
"^TDDDDDDDDDDDFW^"
};
