/* XPM */
static char *post[] = {
/* columns rows colors chars-per-pixel */
"16 16 58 1",
"  c black",
". c red",
"X c #FF0101",
"o c #FF0202",
"O c #FF0303",
"+ c #FF0404",
"@ c #FF0505",
"# c #FF0606",
"$ c #FF0808",
"% c #FF0A0A",
"& c #FF0B0B",
"* c #FF0C0C",
"= c #FF0E0E",
"- c #FF1010",
"; c #FF1111",
": c #FF1212",
"> c #FF1313",
", c #FF1414",
"< c #FF1515",
"1 c #FF1616",
"2 c #FF1717",
"3 c #FF1818",
"4 c #FF1A1A",
"5 c #FF1B1B",
"6 c #FF1D1D",
"7 c #FF1F1F",
"8 c #FF2121",
"9 c #FF2222",
"0 c #FF2323",
"q c #FF2424",
"w c #FF2525",
"e c #FF2828",
"r c #FF2A2A",
"t c #FF2C2C",
"y c #FF3030",
"u c #FF3333",
"i c #FF3434",
"p c #FF3737",
"a c #FF3838",
"s c #FF3B3B",
"d c #FF3C3C",
"f c #FF4E4E",
"g c #FF5252",
"h c #FF5858",
"j c #FF6363",
"k c #FF6666",
"l c #FF6B6B",
"z c #FF6D6D",
"x c #FF8282",
"c c #FF9D9D",
"v c #FFA3A3",
"b c #FFA5A5",
"n c #FFA9A9",
"m c #FFAAAA",
"M c #FFC6C6",
"N c #FFDCDC",
"B c #FFF8F8",
"V c None",
/* pixels */
"VVVVhr2..:9fVVVV",
"VVya=......&r3VV",
"Vr&+.........+:V",
"Va............6V",
"g2zzzzzzzzzzzz3a",
"02BckjjkjjkkcB63",
":2Nbna+...anbN9&",
".2M.ybnddmvp.M6.",
".:M...yvby...M9.",
"=2M..........M6+",
"32NjkkkjkkjjjN9=",
"a:xxxxxxxxxxxx29",
"V9............=V",
"V&3..........9.V",
"VV&2+......+=lVV",
"VVVV9:+..+03VVVV"
};
