/* XPM */
static char *skiing[] = {
/* columns rows colors chars-per-pixel */
"32 32 101 2",
"   c #000000030000",
".  c #000001430000",
"X  c #000002470000",
"o  c #0000034C0000",
"O  c #0000057D0000",
"+  c #000006C60000",
"@  c #000007920000",
"#  c #0000084A0000",
"$  c #000009AD0000",
"%  c #00000A890000",
"&  c #00000B5E0000",
"*  c #00000C9B0000",
"=  c #00000E7E0000",
"-  c #00000FB70000",
";  c #000010F30000",
":  c #000011AC0000",
">  c #000012800000",
",  c #000013A40000",
"<  c #0000147A0000",
"1  c #000015510000",
"2  c #000017790000",
"3  c #000018EC0000",
"4  c #000019C80000",
"5  c #00001AA40000",
"6  c #00001BBA0000",
"7  c #00001C600000",
"8  c #00001D780000",
"9  c #00001EB60000",
"0  c #00001FAB0000",
"q  c #000020C70000",
"w  c #000021AB0000",
"e  c #000023EA0000",
"r  c #000024840000",
"t  c #000025800000",
"y  c #000026560000",
"u  c #000028F00000",
"i  c #000029DE0000",
"p  c #00002BBB0000",
"a  c #00002CD30000",
"s  c #00002D9D0000",
"d  c #00002F090000",
"f  c #00002F830000",
"g  c #000030C90000",
"h  c #000033850000",
"j  c #000034550000",
"k  c #000035CD0000",
"l  c #000037470000",
"z  c #000038850000",
"x  c #000039830000",
"c  c #00003B910000",
"v  c #00003CC80000",
"b  c #00003D6B0000",
"n  c #00003F540000",
"m  c #000040DF0000",
"M  c #000041E80000",
"N  c #000043FD0000",
"B  c #000044B00000",
"V  c #000045D40000",
"C  c #000046E20000",
"Z  c #000049040000",
"A  c #000049D10000",
"S  c #00004AE40000",
"D  c #00004D0F0000",
"F  c #00004EE20000",
"G  c #000052920000",
"H  c #000053B00000",
"J  c #000054CF0000",
"K  c #0000555F0000",
"L  c #000056810000",
"P  c #000058C80000",
"I  c #000059EE0000",
"U  c #00005C200000",
"Y  c #00005CD30000",
"T  c #00005DCC0000",
"R  c #000060580000",
"E  c #0000621F0000",
"W  c #000064AB0000",
"Q  c #000069120000",
"!  c #000069FD0000",
"~  c #00006BD70000",
"^  c #00006CF50000",
"/  c #00006E050000",
"(  c #00006EF50000",
")  c #00006FE70000",
"_  c #0000721D0000",
"`  c #000073640000",
"'  c #000074070000",
"]  c #000074AB0000",
"[  c #000075F50000",
"{  c #000077090000",
"}  c #000077E70000",
"|  c #000079130000",
" . c #000079DC0000",
".. c #00007A840000",
"X. c #00007BD50000",
"o. c #00007CD40000",
"O. c #00007E280000",
"+. c #00007F280000",
"@. c #00007FD40000",
"#. c #000080800000",
"$. c None",
/* pixels */
"$.$.@.@.@.@.@.#.#.#.#.#.#.#.#.#.#.#.#.#.#.#.#.#.#.#.#.#.#.#.$.$.",
"$.@.@.                                                    #.#.$.",
"@.@.    #.#.#.#.#.#.#.#.#.#.#.#.#.#.#.#.#.#.#.#.#.#.#.#.    #.#.",
"@.    @.#.#.#.#.#.#.#.#.#.#.#.#.#.#.#.#.#.#.#.#.#.#.#.#.#.    #.",
"#.  #.#.#.#.#.#.#.#.#.#.#.#.#.#.#.#.#.#.#.#.#.#.#.#.#.#.#.#.  #.",
"#.  #.#.#.#.#.#.#.#.#.#.#.#.#.#.#.#.#.#.#.#.#.#.#.#.#.#.#.#.  #.",
"#.  #.#.#.#.#.#.#.#.#.#.#.#.#.#.#.#.#.#.#.#.#.#.#.#.#.#.#.#.  #.",
"#.  #.#.#.#.#.#.#.#.#.#.#.#.#.#.#.#.#.#.#.#.#.#.#.#.#.#.#.#.  #.",
"#.  #.#.#.#.#.#.#.#.#.#.#.#.#.#.@.@.@.@.@.@.@.@.#.#.#.#.#.#.  #.",
"#.  #.#.#.#.#.#.#.#.#.#.#.#.#.#.#.@.@.@.#.@.@.@.#.#.#.#.#.#.  #.",
"#.  #.#.#.#.#.#.#.#.#.#.#.#.#.#.#.#.@.@.#.#.@.@.#.@.@.#.#.#.  #.",
"#.  #.#.#.#.#.#.#.#.#.#.#.#.#.#.@.@.Q F A v h v o.@.@.@.#.#.  #.",
"#.  #.#.#.#.#.#.#.#.#.#.#.#.#.#.#.' v > * * * 1 A j c ) #.#.  #.",
"#.  #.#.#.#.#.#.#.#.#.#.#.#.#.#.#.o.K t # @ > # q @ * c #.#.  #.",
"#.  #.#.#.#.#.#.#.#.#.#.#.#.#.#.@.@.] B > * 3 # 1     q #.#.  #.",
"#.  #.#.#.#.#.#.#.#.#.#.#.#.#.#.@.) B q * > * * q   # v #.#.  #.",
"#.  #.#.#.#.#.#.#.@.@.@.@.@.@.@.) v >   * 1   # 7 3 7 j @.@.  #.",
"#.  #.#.#.#.#.#.#.@.@.@.@.@.@.@.G 1   # > *     # 7 7 7 @.@.  #.",
"#.  #.#.#.#.@.#.#.#.@.@.@.#.@.@.B *   * 3 # 1 3 7 @   j #.#.  #.",
"#.  #.#.#.#.@.@.#.#.@.@...) ] ..c   @ 1 1 i G I K # # E #.#.  #.",
"#.  #.#.@.@.@.@.#.#.#.#.Q v A I t   > 1 3 U @.@.U @ q o.#.#.  #.",
"#.  #.#.@.@.@.@.#.#.#.#.E c c h > @ > 1 s ..@.] B # B @.#.#.  #.",
"#.  #.#.o.@.@.@.#.#.#.#.] ' U t   1 3 > m ..@.) h * ' @.#.#.  #.",
"#.  #.#.) ' ..@.#.#.#.#...U t @ @ 7 t t B U ' I 7 s #.#.#.#.  #.",
"#.  #.#.c m F W ) ) ' ] G 3   @ 7 v K ..' K m j 1 K @.@.@.#.  #.",
"#.  #.#...W A h i s v c 1   # t I o.@.@.@.@.o.I q o.@.@.@.#.  #.",
"#.  #.#.@.@.o.@.@...U B s q t v K ) ] ....o.o.@.@.@.@.@.#.#.  #.",
"#.  #.#.@.@.@.@.@.@.@.#.@.@.) F j q 7 h A W ..o.o.o.] ] #.#.  #.",
"#.    #.@.#.#.#.#.#.#.#.#.#.#.#.@.@...E B s q q j h 7 E #.    #.",
"#.#.    #.#.#.#.#.#.#.#.#.#.#.#.@.@.@.@.@.@.@.@.@.@.@.#.    #.#.",
"$.#.#.                                                    #.#.$.",
"$.$.#.#.#.#.#.#.#.#.#.#.#.#.@.@.@.@.@.@.@.@.@.@.@.@.#.#.#.#.$.$."
};
