/* XPM */
static char * swimming_xpm[] = {
"16 16 119 2",
"  	c None",
". 	c #262CA6",
"+ 	c #242CA6",
"@ 	c #242DA7",
"# 	c #232EA8",
"$ 	c #232DA7",
"% 	c #2131AB",
"& 	c #2032AC",
"* 	c #2233AB",
"= 	c #2031AB",
"- 	c #222EA8",
"; 	c #222FA8",
"> 	c #1C33AC",
", 	c #222EA7",
"' 	c #0E44BC",
") 	c #0B4CC2",
"! 	c #5584BF",
"~ 	c #B9C7D9",
"{ 	c #EFF3F5",
"] 	c #5987BF",
"^ 	c #1243BD",
"/ 	c #1C36AF",
"( 	c #1E33AC",
"_ 	c #1E33AB",
": 	c #1B34AD",
"< 	c #1937AE",
"[ 	c #1B35AD",
"} 	c #7B94B7",
"| 	c #B3C1D3",
"1 	c #A4B7CE",
"2 	c #658ABD",
"3 	c #C0CEDE",
"4 	c #EEF1F4",
"5 	c #3778C9",
"6 	c #1D34AE",
"7 	c #212FA9",
"8 	c #3B69BD",
"9 	c #7190B9",
"0 	c #1048BC",
"a 	c #212FA8",
"b 	c #1935AF",
"c 	c #1A35AE",
"d 	c #1C35AD",
"e 	c #2436AB",
"f 	c #2230A9",
"g 	c #0F46C0",
"h 	c #183BB5",
"i 	c #2051BC",
"j 	c #E5EBEF",
"k 	c #E3E9EF",
"l 	c #2348B6",
"m 	c #2446B4",
"n 	c #F5F7F7",
"o 	c #FEFFFB",
"p 	c #93A8C1",
"q 	c #1141B6",
"r 	c #1A34AD",
"s 	c #1E2FA8",
"t 	c #173AB2",
"u 	c #173CB4",
"v 	c #2869C3",
"w 	c #8799C4",
"x 	c #D2D8E7",
"y 	c #FEFEFE",
"z 	c #D3DCE5",
"A 	c #2739AC",
"B 	c #EBF0F1",
"C 	c #FDFEFA",
"D 	c #869DBA",
"E 	c #1F33AB",
"F 	c #123CB4",
"G 	c #1838B0",
"H 	c #1A37AE",
"I 	c #5A80B7",
"J 	c #BDCAD9",
"K 	c #F9FBF9",
"L 	c #FCFDFB",
"M 	c #FCFCFC",
"N 	c #FCFCFA",
"O 	c #C0CCDA",
"P 	c #266DC4",
"Q 	c #437ABF",
"R 	c #084EC2",
"S 	c #1D33AB",
"T 	c #1837AF",
"U 	c #3355B1",
"V 	c #AFBED1",
"W 	c #7C96B6",
"X 	c #A8B9CE",
"Y 	c #6B8DB7",
"Z 	c #A2B6CC",
"` 	c #7291B8",
" .	c #9BB0C9",
"..	c #7391B7",
"+.	c #93AAC3",
"@.	c #3E78C0",
"#.	c #1441B7",
"$.	c #1A3AAF",
"%.	c #0349BD",
"&.	c #2A37A8",
"*.	c #516BAE",
"=.	c #7E96B4",
"-.	c #6788B5",
";.	c #8098B6",
">.	c #6588B7",
",.	c #859CB9",
"'.	c #6C8DB6",
").	c #7A96B6",
"!.	c #6C8BB6",
"~.	c #7E97B6",
"{.	c #5F84B7",
"].	c #7790B3",
"^.	c #4375B9",
"/.	c #708CB2",
"(.	c #2F64B3",
"_.	c #1B35AC",
":.	c #252CA6",
"<.	c #2130A9",
"[.	c #1F32AB",
". . . . . . . . . . . . . . . . ",
". . . . . . . . . . . . . . . . ",
". . . . . . . . . . . . . . . + ",
"@ # $ # % & * & & = - + - $ ; > ",
", - ' ) ! ~ { ] ^ . = / ( _ . : ",
"< [ } | 1 2 3 4 5 6 7 8 9 0 a b ",
"c d e f g h i j k l m n o p q . ",
"r s t u v w x y y z A B C D E F ",
"G H I J K L y M y N O P Q R S T ",
". U V W X Y Z `  ...+.@.#._ $.%.",
"&.*.=.-.;.>.,.'.).!.~.{.].^./.(.",
"_.:.. . :.:.<.[.<.# ; ; - - , , ",
":.. . . . . . . . . . . . . . . ",
". . . . . . . . . . . . . . . . ",
". . . . . . . . . . . . . . . . ",
":.. . . . . . . . . . . . . . . "};
