/* XPM */
static char * townhall_xpm[] = {
"16 18 88 1",
" 	c None",
".	c #BF0000",
"+	c #CE0000",
"@	c #A80000",
"#	c #C20000",
"$	c #5C652F",
"%	c #5D6630",
"&	c #808C42",
"*	c #818D42",
"=	c #5B642F",
"-	c #5D662F",
";	c #808C41",
">	c #5B632E",
",	c #111208",
"'	c #2B2F16",
")	c #535A2A",
"!	c #535B2B",
"~	c #535C2A",
"{	c #545C2B",
"]	c #555C2B",
"^	c #555D2B",
"/	c #535B2A",
"(	c #292D14",
"_	c #454C23",
":	c #565F2C",
"<	c #5D6730",
"[	c #5A632E",
"}	c #424822",
"|	c #363B1C",
"1	c #414621",
"2	c #4A5026",
"3	c #484F25",
"4	c #454B23",
"5	c #495026",
"6	c #484E25",
"7	c #444922",
"8	c #3A401D",
"9	c #32361A",
"0	c #484D2A",
"a	c #888888",
"b	c #66685F",
"c	c #4E542D",
"d	c #72736F",
"e	c #6C6E66",
"f	c #51582E",
"g	c #6E6E68",
"h	c #80807F",
"i	c #4C512B",
"j	c #272B14",
"k	c #6B743E",
"l	c #9E9E9E",
"m	c #7D7E76",
"n	c #75803C",
"o	c #8F8F8F",
"p	c #7E7E7A",
"q	c #7F8B41",
"r	c #81827E",
"s	c #6A743C",
"t	c #75716C",
"u	c #68665D",
"v	c #7C5A20",
"w	c #6E531E",
"x	c #33371E",
"y	c #505730",
"z	c #9A9A9A",
"A	c #75766E",
"B	c #58602D",
"C	c #78571E",
"D	c #684F1D",
"E	c #5C6430",
"F	c #7B7C78",
"G	c #989898",
"H	c #50572E",
"I	c #4B5227",
"J	c #5D6531",
"K	c #67695B",
"L	c #5A5D45",
"M	c #59602E",
"N	c #564A1F",
"O	c #554B20",
"P	c #5D6430",
"Q	c #5F624E",
"R	c #626454",
"S	c #5C6431",
"T	c #444A23",
"U	c #373C1C",
"V	c #434922",
"W	c #393E1D",
"        .+      ",
"        @#      ",
"                ",
"       $%       ",
"     $&**&=     ",
"   -&******;>   ",
",')!~~{{{{]^^/( ",
"_:<<<<<<<<<<<<[}",
"  |123456}3578  ",
"  90abcdefghij  ",
"   klmnopqrls   ",
"   klmnopqrls   ",
"   klmnopqrls   ",
"   klmntuqrls   ",
"   klmnvwqrls   ",
"  xyzABCDEFGH   ",
"  IJKLMNOPQRST  ",
"UV_4444444444_VW"};
