<?xml version="1.0" encoding="UTF-8" standalone="no"?>
<!-- Created with Inkscape (http://www.inkscape.org/) -->

<svg
   xmlns:dc="http://purl.org/dc/elements/1.1/"
   xmlns:cc="http://creativecommons.org/ns#"
   xmlns:rdf="http://www.w3.org/1999/02/22-rdf-syntax-ns#"
   xmlns:svg="http://www.w3.org/2000/svg"
   xmlns="http://www.w3.org/2000/svg"
   version="1.1"
   width="100%"
   height="100%"
   viewBox="0 0 10 10"
   id="svg2">
  <metadata
     id="metadata8">
    <rdf:RDF>
      <cc:Work
         rdf:about="">
        <dc:format>image/svg+xml</dc:format>
        <dc:type
           rdf:resource="http://purl.org/dc/dcmitype/StillImage" />
        <dc:title></dc:title>
      </cc:Work>
    </rdf:RDF>
  </metadata>
  <defs
     id="defs6" />
  <rect
     width="10"
     height="10"
     x="0"
     y="0"
     id="canvas"
     style="fill:none;stroke:none;visibility:hidden" />
  <path
     d="M 5,0 C 4.2857143,0 4.25,0.75 4.25,0.75 L 1.2895,1.4497578 1.2895,2 0,5.5 C 0,6.2142857 0.2800057,7 1.5,7 2.7199942,7 3,6.2142857 3,5.5 L 1.6605,2 4.25,2 4.25,9 2,9 1,10 9,10 8,9 5.75,9 5.75,2 8.31,2 7,5.5 C 7,6.2142857 7.2663857,7 8.5,7 9.7336142,7 10,6.2142857 10,5.5 L 8.71,2 8.71,1.4285714 5.75,0.75 C 5.75,0.75 5.7142857,0 5,0 z m -3.5,2.7 1.1,2.8 -2.2,0 z m 7,0 1.1,2.8 -2.2,0 z"
     id="courthouse"
     style="fill:#000000;fill-opacity:1" />
</svg>
