<?xml version="1.0" standalone="no"?>
<!DOCTYPE svg PUBLIC "-//W3C//DTD SVG 20010904//EN"
 "http://www.w3.org/TR/2001/REC-SVG-20010904/DTD/svg10.dtd">
<svg version="1.0" xmlns="http://www.w3.org/2000/svg"
 width="60.000000pt" height="60.000000pt" viewBox="0 0 60.000000 60.000000"
 preserveAspectRatio="xMidYMid meet">

<g transform="translate(0.000000,60.000000) scale(0.100000,-0.100000)"
fill="#000000" stroke="none">
<path d="M93 550 c-57 -34 -63 -60 -63 -250 0 -190 6 -216 63 -250 28 -18 51
-20 205 -20 193 0 218 6 252 63 18 29 20 51 20 207 0 156 -2 178 -20 207 -34
57 -59 63 -252 63 -154 0 -177 -2 -205 -20z m352 -170 c30 -28 39 -77 23 -126
-16 -47 -46 -64 -115 -64 l-53 0 0 111 0 112 61 -6 c43 -4 68 -12 84 -27z
m-208 12 c19 -12 31 -55 22 -78 -4 -12 -24 -35 -45 -50 l-38 -29 45 -5 c30 -3
44 -10 44 -20 0 -12 -15 -16 -67 -18 -66 -3 -68 -2 -68 22 0 17 14 36 46 62
35 29 44 43 42 63 -4 33 -37 42 -45 12 -6 -25 -43 -29 -43 -4 0 40 69 70 107
45z"/>
<path d="M347 363 c-4 -3 -7 -35 -7 -70 l0 -63 35 0 c24 0 37 6 45 19 16 31
12 86 -8 104 -19 17 -53 22 -65 10z"/>
</g>
</svg>
