<?xml version="1.0" standalone="no"?>
<!DOCTYPE svg PUBLIC "-//W3C//DTD SVG 20010904//EN"
 "http://www.w3.org/TR/2001/REC-SVG-20010904/DTD/svg10.dtd">
<svg version="1.0" xmlns="http://www.w3.org/2000/svg"
 width="60.000000pt" height="60.000000pt" viewBox="0 0 60.000000 60.000000"
 preserveAspectRatio="xMidYMid meet">

<g transform="translate(0.000000,60.000000) scale(0.100000,-0.100000)"
fill="#000000" stroke="none">
<path d="M93 550 c-57 -34 -63 -60 -63 -250 0 -190 6 -216 63 -250 28 -18 51
-20 205 -20 193 0 218 6 252 63 18 29 20 51 20 207 0 156 -2 178 -20 207 -34
57 -59 63 -252 63 -154 0 -177 -2 -205 -20z m163 -186 c4 -13 1 -30 -5 -38 -8
-10 -8 -20 3 -41 15 -29 12 -49 -12 -77 -31 -36 -112 -12 -112 34 0 24 24 23
41 -3 9 -13 20 -18 32 -14 24 10 22 52 -3 60 -26 8 -26 31 1 38 13 4 20 12 17
24 -4 23 -48 31 -48 9 0 -9 -8 -16 -20 -16 -23 0 -26 18 -7 42 27 36 103 23
113 -18z m167 35 c33 -15 50 -49 50 -99 0 -61 -28 -93 -91 -104 -81 -14 -82
-12 -82 109 l0 105 50 0 c27 0 60 -5 73 -11z"/>
<path d="M340 300 l0 -70 29 0 c39 0 61 24 61 66 0 54 -15 74 -55 74 l-35 0 0
-70z"/>
</g>
</svg>
