<?xml version="1.0" encoding="UTF-8" standalone="no"?>
<!-- Created with Inkscape (http://www.inkscape.org/) -->

<svg
   xmlns:dc="http://purl.org/dc/elements/1.1/"
   xmlns:cc="http://creativecommons.org/ns#"
   xmlns:rdf="http://www.w3.org/1999/02/22-rdf-syntax-ns#"
   xmlns:svg="http://www.w3.org/2000/svg"
   xmlns="http://www.w3.org/2000/svg"
   xmlns:sodipodi="http://sodipodi.sourceforge.net/DTD/sodipodi-0.dtd"
   xmlns:inkscape="http://www.inkscape.org/namespaces/inkscape"
   height="22"
   id="svg2"
   inkscape:output_extension="org.inkscape.output.svg.inkscape"
   inkscape:version="0.48.1 r9760"
   sodipodi:docname="bahai.svg"
   sodipodi:version="0.32"
   version="1.0"
   width="22">
  <metadata
     id="metadata2975">
    <rdf:RDF>
      <cc:Work
         rdf:about="">
        <dc:format>image/svg+xml</dc:format>
        <dc:type
           rdf:resource="http://purl.org/dc/dcmitype/StillImage" />
        <cc:license
           rdf:resource="http://web.resource.org/cc/PublicDomain" />
        <dc:language>en</dc:language>
      </cc:Work>
    </rdf:RDF>
  </metadata>
  <sodipodi:namedview
     bordercolor="#666666"
     borderopacity="1.0"
     gridtolerance="10.0"
     guidetolerance="10.0"
     id="base"
     inkscape:current-layer="svg2"
     inkscape:cx="32.208528"
     inkscape:cy="19.1875"
     inkscape:pageopacity="0.0"
     inkscape:pageshadow="2"
     inkscape:window-height="725"
     inkscape:window-width="1024"
     inkscape:window-x="-3"
     inkscape:window-y="-3"
     inkscape:zoom="8"
     objecttolerance="10.0"
     pagecolor="#ffffff"
     showgrid="false"
     inkscape:window-maximized="0" />
  <defs
     id="defs4">
    <inkscape:perspective
       id="perspective2441"
       inkscape:persp3d-origin="290 : 193.33333 : 1"
       inkscape:vp_x="0 : 290 : 1"
       inkscape:vp_y="0 : 1000 : 0"
       inkscape:vp_z="580 : 290 : 1"
       sodipodi:type="inkscape:persp3d" />
    <inkscape:perspective
       id="perspective2466"
       inkscape:persp3d-origin="372.04724 : 350.78739 : 1"
       inkscape:vp_x="0 : 526.18109 : 1"
       inkscape:vp_y="0 : 1000 : 0"
       inkscape:vp_z="744.09448 : 526.18109 : 1"
       sodipodi:type="inkscape:persp3d" />
    <inkscape:perspective
       id="perspective3333"
       inkscape:persp3d-origin="372.04724 : 350.78739 : 1"
       inkscape:vp_x="0 : 526.18109 : 1"
       inkscape:vp_y="0 : 1000 : 0"
       inkscape:vp_z="744.09448 : 526.18109 : 1"
       sodipodi:type="inkscape:persp3d" />
    <inkscape:perspective
       id="perspective3401"
       inkscape:persp3d-origin="372.04724 : 350.78739 : 1"
       inkscape:vp_x="0 : 526.18109 : 1"
       inkscape:vp_y="0 : 1000 : 0"
       inkscape:vp_z="744.09448 : 526.18109 : 1"
       sodipodi:type="inkscape:persp3d" />
    <inkscape:perspective
       id="perspective3464"
       inkscape:persp3d-origin="372.04724 : 350.78739 : 1"
       inkscape:vp_x="0 : 526.18109 : 1"
       inkscape:vp_y="0 : 1000 : 0"
       inkscape:vp_z="744.09448 : 526.18109 : 1"
       sodipodi:type="inkscape:persp3d" />
    <inkscape:perspective
       id="perspective3581"
       inkscape:persp3d-origin="225 : 150 : 1"
       inkscape:vp_x="0 : 225 : 1"
       inkscape:vp_y="0 : 1000 : 0"
       inkscape:vp_z="450 : 225 : 1"
       sodipodi:type="inkscape:persp3d" />
    <inkscape:perspective
       id="perspective4312"
       inkscape:persp3d-origin="225 : 150 : 1"
       inkscape:vp_x="0 : 225 : 1"
       inkscape:vp_y="0 : 1000 : 0"
       inkscape:vp_z="450 : 225 : 1"
       sodipodi:type="inkscape:persp3d" />
  </defs>
  <g
     id="g1327">
    <path
       d="M 66.275,1.768 C 24.94,1.768 1.704,23.139 1.704,66.804 L 1.704,516.927 C 1.704,557.771 22.599,579.156 63.896,579.156 L 515.92,579.156 C 557.227,579.156 578.149,558.841 578.149,516.927 L 578.149,66.804 C 578.149,24.203 557.227,1.768 514.628,1.768 C 514.624,1.768 66.133,1.625 66.275,1.768 z "
       id="path1329"
       style="fill:#111;fill-opacity:0;stroke:#eee;stroke-opacity:0;stroke-width:3.40799999" />
  </g>
  <path
     d="M 211.93658,502.90415 C 211.62064,467.41944 210.72008,437.74441 209.93535,436.95967 C 208.44146,435.46579 144.37645,444.49134 106.13848,451.58271 C 84.17773,455.65541 76.216627,454.51689 76.216627,447.30367 C 76.216627,445.27966 94.355879,421.12254 116.52608,393.62116 L 156.83549,343.6186 L 143.36752,335.6723 C 135.96011,331.30184 129.10233,327.72599 128.12801,327.72599 C 127.15365,327.72599 117.24965,321.8749 106.11914,314.72355 C 94.988602,307.57217 77.514623,296.99986 67.288108,291.22949 C 52.866925,283.09223 48.962908,278.86966 49.890838,272.41255 C 50.86408,265.64018 54.692944,263.545 70.417537,261.18033 C 110.93294,255.08765 172.86817,241.35355 172.86817,238.46195 C 172.86817,236.80159 164.00939,210.0363 153.18198,178.98348 C 133.88137,123.62964 132.11121,111.22655 143.51188,111.22655 C 146.6364,111.22655 171.68631,124.2745 199.17838,140.22202 C 226.67049,156.16951 250.83333,169.21746 252.8736,169.21746 C 254.91392,169.21746 261.5262,155.01809 267.56758,137.66334 C 291.78321,68.100199 299.49089,51.353397 307.88446,50.064915 C 312.31887,49.384208 316.70051,51.123944 317.62144,53.93098 C 319.32297,59.117252 342.18875,122.83827 353.09507,152.78671 C 356.38602,161.82364 360.50716,169.21746 362.25312,169.21746 C 363.99906,169.21746 386.90657,156.47858 413.15867,140.90877 C 467.8955,108.44507 471.29659,106.90623 478.48757,111.35049 C 482.7678,113.99581 479.86579,126.00059 463.38728,173.8163 C 452.16794,206.37145 442.66697,234.59806 442.27398,236.54207 C 441.6009,239.87157 508.60064,254.63111 548.84267,260.01835 C 564.46924,262.11026 567.18597,263.73796 567.06894,270.93845 C 566.95988,277.64765 556.1501,285.7836 514.87711,310.22028 C 486.24724,327.1713 462.82279,342.51553 462.82279,344.3186 C 462.82279,346.12165 480.22008,369.0158 501.48342,395.19457 C 522.74675,421.3733 540.14402,444.73799 540.14402,447.11613 C 540.14402,453.23409 525.13482,452.53767 466.68886,443.70784 C 438.53975,439.45517 413.10639,435.97573 410.17029,435.97573 C 405.83914,435.97573 404.83187,448.3764 404.83187,501.69878 C 404.83187,585.22233 404.77291,585.2434 350.707,521.02908 C 329.22354,495.51307 310.07427,474.63634 308.15303,474.63634 C 306.23179,474.63634 287.69024,495.51307 266.94955,521.02908 C 239.83003,554.39257 226.89015,567.42181 220.87507,567.42181 C 212.6574,567.42181 212.5009,566.29242 211.93658,502.90415 z M 277.49207,443.70784 C 291.13478,426.69718 304.92554,412.79323 308.13822,412.81017 C 311.35088,412.82714 325.28765,426.70696 339.10882,443.65423 L 364.23823,474.46743 L 365.20396,440.72383 C 366.53698,394.14787 367.92598,389.57838 380.74263,389.60456 C 386.54954,389.61637 397.3897,391.18979 404.83187,393.10098 C 425.44692,398.39506 451.22462,400.80922 451.22462,397.44582 C 451.22462,395.79606 440.60987,381.14847 427.63629,364.8957 C 414.66273,348.6429 404.95329,332.98586 406.05989,330.10222 C 407.16643,327.21862 422.21024,316.51048 439.49057,306.30635 C 456.77093,296.10226 471.66637,286.52866 472.59155,285.03165 C 473.51675,283.53467 465.17328,280.94259 454.05055,279.27152 C 442.92776,277.60041 432.95746,275.99074 431.89429,275.69449 C 430.83113,275.3982 421.69756,273.82954 411.59748,272.20855 C 388.9489,268.57362 388.46579,264.79834 404.84498,219.44001 C 411.23117,201.7549 415.69933,186.52838 414.77421,185.60328 C 413.84911,184.67815 398.02215,192.79098 379.60319,203.63178 C 361.18419,214.47258 344.59912,223.34233 342.74748,223.34233 C 337.93121,223.34233 333.47016,213.8733 321.2983,177.81432 C 315.39571,160.32805 309.4772,146.02111 308.146,146.02111 C 306.81483,146.02111 299.75397,162.72237 292.45528,183.13506 C 285.15653,203.54771 277.14846,221.07807 274.65948,222.09139 C 270.4338,223.81178 256.43727,216.95846 216.36136,193.54594 C 207.32445,188.26652 199.93059,185.71341 199.93059,187.87238 C 199.93059,190.03134 205.14979,206.5848 211.52879,224.65788 C 217.9078,242.73094 223.12697,260.18802 223.12697,263.45137 C 223.12697,269.6775 213.90869,272.20012 164.08277,279.60891 C 153.93493,281.11784 144.80346,283.69333 143.79055,285.33227 C 142.77763,286.97116 147.67397,291.52613 154.67127,295.45435 C 193.97119,317.51704 207.658,326.26531 209.27517,330.35586 C 210.26737,332.86542 206.05885,341.56406 199.9229,349.68614 C 193.787,357.80825 182.47416,372.83977 174.7833,383.08951 L 160.79987,401.72544 L 179.39872,399.17937 C 189.62807,397.77899 204.08663,395.05667 211.52879,393.1297 C 218.97096,391.20271 229.84426,389.61637 235.69167,389.60456 L 246.32334,389.58298 L 246.37612,423.41103 C 246.42091,452.11232 248.84502,474.63634 251.88915,474.63634 C 252.32803,474.63634 263.84935,460.71852 277.49207,443.70784 z"
     id="path1873"
     sodipodi:nodetypes="cssscccssssssssssssssssssssssssssssssssccscccssssssssssssssssssssssssssscccscccsc"
     style="opacity:0.25;fill:#ffffff;fill-opacity:0" />
  <path
     d="m 6.9497884,18.870696 c -0.01301,-1.461279 -0.050094,-2.683312 -0.082408,-2.715628 -0.061517,-0.06152 -2.6997502,0.310158 -4.27441,0.602185 -0.904355,0.167715 -1.2321974,0.12083 -1.2321974,-0.176214 0,-0.08335 0.7469838,-1.078152 1.659964,-2.210674 L 4.6807002,12.311234 4.1260819,11.984001 C 3.8210416,11.804023 3.5386342,11.656768 3.4985113,11.656768 c -0.040129,0 -0.4479764,-0.240951 -0.906337,-0.535447 C 2.1338134,10.826823 1.4142254,10.39145 0.99309292,10.153822 0.39922051,9.8187265 0.23845138,9.6448385 0.27666383,9.3789306 0.31674245,9.1000412 0.47441695,9.0137606 1.1219644,8.9163822 2.7904094,8.6654826 5.3409351,8.099906 5.3409351,7.9808283 c 0,-0.068372 -0.3648092,-1.1705836 -0.8106876,-2.4493549 -0.79481,-2.2794997 -0.8677054,-2.790266 -0.3982201,-2.790266 0.1286695,0 1.1602376,0.5373217 2.2923757,1.1940492 1.1321396,0.6567257 2.1271774,1.1940474 2.2111978,1.1940474 0.084022,0 0.3563182,-0.584738 0.6051053,-1.2994154 0.9972128,-2.8646465 1.3146178,-3.55428863 1.6602698,-3.60734904 0.182612,-0.0280316 0.36305,0.0436109 0.400974,0.15920687 0.07007,0.21357281 1.011696,2.83763767 1.460823,4.07093037 0.135523,0.372145 0.305233,0.6766272 0.377132,0.6766272 0.0719,0 1.015243,-0.5245939 2.096319,-1.1657673 2.254091,-1.3368718 2.394149,-1.4002418 2.690277,-1.2172247 0.176263,0.108936 0.05677,0.6032984 -0.621836,2.5723748 -0.462019,1.3406379 -0.853274,2.5030243 -0.869458,2.5830797 -0.02772,0.1371104 2.731367,0.7449158 4.388554,0.9667652 0.643511,0.086144 0.755387,0.1531749 0.750567,0.4496946 -0.0045,0.2762891 -0.449642,0.6113317 -2.149285,1.6176467 -1.178994,0.698053 -2.143625,1.329936 -2.143625,1.404187 0,0.07425 0.716429,1.017043 1.592066,2.0951 0.875635,1.078053 1.592063,2.040223 1.592063,2.138156 0,0.25194 -0.618088,0.223261 -3.024923,-0.140356 -1.159194,-0.175126 -2.206554,-0.318412 -2.327464,-0.318412 -0.178359,0 -0.219839,0.510666 -0.219839,2.706511 0,3.439543 -0.0025,3.440411 -2.228889,0.79603 -0.884701,-1.050762 -1.673279,-1.910477 -1.752396,-1.910477 -0.07911,0 -0.842668,0.859715 -1.696781,1.910477 -1.1167955,1.373928 -1.6496673,1.910479 -1.8973708,1.910479 -0.3384079,0 -0.3448525,-0.04651 -0.3680924,-2.656872 z M 9.6493983,16.43296 c 0.5618137,-0.700507 1.1297247,-1.273079 1.2620237,-1.27238 0.1323,7.03e-4 0.706224,0.572275 1.275386,1.270173 l 1.034842,1.268905 0.03977,-1.38958 c 0.05489,-1.918023 0.112093,-2.106197 0.639892,-2.105119 0.23913,4.78e-4 0.685534,0.06528 0.992007,0.143986 0.848939,0.218013 1.910477,0.317429 1.910477,0.178921 0,-0.06793 -0.437121,-0.671132 -0.971379,-1.340431 -0.534259,-0.669298 -0.934099,-1.314063 -0.888529,-1.432813 0.04556,-0.118748 0.665079,-0.559715 1.376694,-0.979926 0.711614,-0.420211 1.325016,-0.814456 1.363115,-0.876104 0.0381,-0.061647 -0.305489,-0.1683899 -0.76353,-0.2372051 C 16.462123,9.5925706 16.051541,9.5262829 16.007761,9.5140828 15.963977,9.501879 15.587854,9.4372877 15.171925,9.3705304 14.239246,9.2208416 14.219352,9.0653738 14.893855,7.197495 c 0.262986,-0.7282831 0.446988,-1.3553189 0.408891,-1.3934145 -0.0381,-0.038099 -0.68986,0.2959929 -1.448361,0.7424225 -0.758505,0.4464306 -1.441486,0.8116912 -1.517737,0.8116912 -0.198337,0 -0.382045,-0.3899393 -0.883289,-1.8748678 -0.243072,-0.7200939 -0.4868,-1.3092606 -0.541618,-1.3092606 -0.05482,0 -0.345589,0.6877663 -0.646152,1.5283723 C 9.9650228,6.5430413 9.6352452,7.2649503 9.5327477,7.3066799 9.3587321,7.3775272 8.7823474,7.0953031 7.1320002,6.1311632 6.7598561,5.9137542 6.4553732,5.8086158 6.4553732,5.897523 c 0,0.088908 0.2149291,0.7705873 0.4776199,1.5148459 0.2626907,0.7442585 0.4776191,1.4631497 0.4776191,1.5975356 0,0.2563959 -0.3796134,0.3602786 -2.4314716,0.6653762 -0.4178931,0.062142 -0.7939314,0.1681981 -0.8356438,0.2356913 -0.041716,0.06749 0.1599215,0.255066 0.4480734,0.416832 1.6183915,0.908554 2.1820211,1.268812 2.2486177,1.437262 0.040864,0.103355 -0.1324501,0.46156 -0.3851312,0.796033 -0.2526803,0.334472 -0.718549,0.953477 -1.035262,1.375566 l -0.5758452,0.767439 0.7659108,-0.104849 c 0.4212494,-0.05767 1.0166606,-0.169774 1.3231328,-0.249128 0.3064723,-0.07935 0.754241,-0.144681 0.9950402,-0.145168 l 0.4378173,-8.8e-4 0.00217,1.393058 c 0.00181,1.181934 0.1016702,2.109484 0.2270295,2.109484 0.018069,0 0.4925276,-0.573142 1.054342,-1.273651 z"
     id="path4757"
     sodipodi:nodetypes="cssscccssssssssssssssssssssssssssssssssccscccssssssssssssssssssssssssssscccscccsc"
     style="fill:#5e8019"
     inkscape:connector-curvature="0" />
</svg>
