<?xml version="1.0" encoding="UTF-8" standalone="no"?>
<!-- Created with Inkscape (http://www.inkscape.org/) -->

<svg
   xmlns:dc="http://purl.org/dc/elements/1.1/"
   xmlns:cc="http://creativecommons.org/ns#"
   xmlns:rdf="http://www.w3.org/1999/02/22-rdf-syntax-ns#"
   xmlns:svg="http://www.w3.org/2000/svg"
   xmlns="http://www.w3.org/2000/svg"
   xmlns:sodipodi="http://sodipodi.sourceforge.net/DTD/sodipodi-0.dtd"
   xmlns:inkscape="http://www.inkscape.org/namespaces/inkscape"
   sodipodi:docname="bench.svg"
   inkscape:version="0.91 r13725"
   xml:space="preserve"
   id="Layer_1"
   viewBox="12.5 44.907 57.374999 31.795826"
   width="22"
   height="22"
   inkscape:export-xdpi="90"
   inkscape:export-ydpi="90"
   version="1.0"><sodipodi:namedview
     pagecolor="#ff00ff"
     bordercolor="#666666"
     borderopacity="1"
     objecttolerance="10"
     gridtolerance="10"
     guidetolerance="10"
     inkscape:pageopacity="0"
     inkscape:pageshadow="2"
     inkscape:window-width="938"
     inkscape:window-height="689"
     id="namedview77"
     showgrid="false"
     inkscape:zoom="2.8284271"
     inkscape:cx="95.371787"
     inkscape:cy="16.007613"
     inkscape:window-x="248"
     inkscape:window-y="170"
     inkscape:window-maximized="0"
     inkscape:current-layer="Layer_1" /><metadata
     id="metadata79"><rdf:RDF><cc:Work
         rdf:about=""><dc:format>image/svg+xml</dc:format><dc:type
           rdf:resource="http://purl.org/dc/dcmitype/StillImage" /><dc:title>bench g.aoi</dc:title><dc:description>jfitie@gmail.com</dc:description><cc:license
           rdf:resource="http://creativecommons.org/publicdomain/zero/1.0/" /></cc:Work><cc:License
         rdf:about="http://creativecommons.org/publicdomain/zero/1.0/"><cc:permits
           rdf:resource="http://creativecommons.org/ns#Reproduction" /><cc:permits
           rdf:resource="http://creativecommons.org/ns#Distribution" /><cc:permits
           rdf:resource="http://creativecommons.org/ns#DerivativeWorks" /></cc:License></rdf:RDF></metadata><defs
     id="defs150"><inkscape:perspective
       sodipodi:type="inkscape:persp3d"
       inkscape:vp_x="0 : 103.9075 : 1"
       inkscape:vp_y="0 : 1000 : 0"
       inkscape:vp_z="374.99999 : 103.9075 : 1"
       inkscape:persp3d-origin="187.5 : 69.271667 : 1"
       id="perspective81" /></defs><title
     id="title3">bench g.aoi</title><g
     id="g3659"
     transform="matrix(0.21216376,0,0,0.21216184,-26.456315,34.735924)"><path
       inkscape:connector-curvature="0"
       id="path3654"
       d="m 240.24267,39.985999 c -11.05725,0.762915 -11.30458,14.201647 -13.83947,22.310233 -1.36739,6.333271 -0.78909,13.750431 -3.45351,19.544377 -11.0028,-0.204534 -22.45764,2.742097 -30.71986,10.105823 -11.33227,4.172969 -11.24288,23.854488 2.48061,24.347698 8.00464,2.68885 17.46386,2.39977 24.59729,6.95285 -0.99336,12.03044 -9.56182,32.72196 6.86116,37.68799 8.60725,4.86759 17.2427,0.17654 19.687,-9.05143 0.88605,-7.61094 1.08052,-16.19851 3.13769,-22.86544 12.37247,0.14477 16.32769,15.65607 29.05426,16.24877 6.79609,3.40105 12.4831,-3.18229 16.58494,-5.52153 14.85027,4.14914 30.70549,5.51915 44.44729,11.6543 -0.35189,12.75302 -9.36036,28.86531 -0.29543,40.06164 8.60617,6.43644 26.1297,8.02853 27.44974,-6.41292 2.76787,-8.53552 0.39226,-21.48664 5.26176,-27.42936 6.51631,2.36221 8.038,12.29836 15.89222,14.02285 9.47188,5.98764 27.4832,2.4933 24.84178,-11.54733 0.25649,-4.74938 -6.98243,-8.36937 0.21902,-10.99721 6.78107,-10.47754 23.5365,1.34397 27.67386,-12.36741 4.79126,-15.67838 5.65473,-32.48111 10.7731,-47.860038 0.2852,-6.277729 7.49596,-15.630516 -2.84226,-19.070666 -17.97749,-2.979525 -35.42123,-6.387396 -53.25933,-9.45893 -32.90657,-1.404879 -65.70582,-9.188785 -98.48063,-12.970561 -14.54316,-5.197085 -30.09567,-2.743057 -44.9212,-6.482128 -3.68929,-0.55218 -7.41424,-0.968954 -11.15003,-0.901578 z"
       style="fill:#ffffff;stroke:#ffffff;stroke-width:0.87021828" /><g
       transform="matrix(0.87812658,0,0,0.87813208,142.568,-13.01737)"
       id="g2884"><g
         id="g5"
         transform="matrix(0.765,0,0,0.765,47,34.971508)"><line
           x1="138.5"
           y1="174.907"
           x2="138.5"
           y2="174.907"
           id="line7"
           style="fill:#a05a2c" /><line
           x1="95.5"
           y1="130.907"
           x2="95.5"
           y2="130.907"
           id="line9"
           style="fill:#a05a2c" /><line
           x1="95.5"
           y1="130.907"
           x2="95.5"
           y2="130.907"
           id="line11"
           style="fill:#a05a2c" /><line
           x1="95.5"
           y1="130.907"
           x2="95.5"
           y2="130.907"
           id="line13"
           style="fill:#a05a2c" /><line
           x1="95.5"
           y1="130.907"
           x2="95.5"
           y2="130.907"
           id="line15"
           style="fill:#a05a2c" /><path
           inkscape:connector-curvature="0"
           d="m 127.5,168.907 c -6.442,-6.442 -11.455,-13.773 -16.889,-21.019 -1.376,-1.834 -2.935,-3.627 -3.963,-5.686 -0.853,-1.705 -2.595,-3.791 -3.898,-5.546 -1.303,-1.755 -1.645,-2.785 -2.75,-3.75 -0.795,-0.694 -1.57,-1.023 -3,-1.5 3.313,0.663 6.627,1.325 9.94,1.987 1.968,0.395 4.569,1.885 5.477,3.013 3.679,4.567 6.857,9.262 9.917,14.361 1.54,2.567 3.916,4.638 5.583,7.139 1.613,2.419 3.571,5.571 5.607,7.607 3.75,3.75 6.258,9.552 11.476,11.393 -6.521,-1.715 -12.845,-2.764 -17.5,-7.999"
           id="path17"
           style="fill:#a05a2c" /><line
           x1="106"
           y1="133.407"
           x2="106"
           y2="133.407"
           id="line19"
           style="fill:#a05a2c" /><line
           x1="106"
           y1="133.407"
           x2="106"
           y2="133.407"
           id="line21"
           style="fill:#a05a2c" /><line
           x1="106"
           y1="133.407"
           x2="106"
           y2="133.407"
           id="line23"
           style="fill:#a05a2c" /><path
           inkscape:connector-curvature="0"
           d="m 60.5,193.907 c 1.128,-10.202 2.024,-21.12 4.068,-31.34 0.529,-2.646 0.792,-5.319 1.235,-7.979 0.456,-2.734 1.474,-5.291 2.145,-7.973 0.28,-1.121 0.323,-2.295 0.604,-3.416 0.396,-1.585 0.089,-1.877 1.625,-1.512 3.108,0.74 6.215,1.48 9.323,2.22 -1.24,4.961 -1.211,9.771 -2.055,14.834 -0.842,5.056 -2.685,10.246 -3.797,15.25 -1.163,5.233 0.336,10.517 -0.534,15.735 -0.511,3.066 1.09,7.727 0.386,12.181 -4.45,-1.271 -13.527,-1.663 -13,-8"
           id="path25"
           style="fill:#a05a2c" /><line
           x1="79"
           y1="144.407"
           x2="79"
           y2="144.407"
           id="line27"
           style="fill:#a05a2c" /><line
           x1="79"
           y1="144.407"
           x2="79"
           y2="144.407"
           id="line29"
           style="fill:#a05a2c" /><line
           x1="77"
           y1="146.907"
           x2="77"
           y2="146.907"
           id="line31"
           style="fill:#a05a2c" /><path
           inkscape:connector-curvature="0"
           d="m 60.5,146.407 c -2.115,-1.918 -1.717,-6.561 0.156,-8.656 1.979,-2.214 4.022,-4.269 6.344,-6.344 2.43,-2.173 5.67,-3.585 8.5,-5 3.396,-1.698 6.771,-3.091 10.405,-4.302 3.328,-1.109 7.438,-1.054 10.927,-1.49 3.847,-0.48 7.011,0.412 10.775,0.95 1.152,0.165 3.285,1.136 4.393,0.842 1.054,-0.279 1.609,-1.609 2.25,-2.25 1.617,-1.617 2.58,-6.981 3.25,-9.25 1.719,-5.817 1.784,-11.923 2.963,-17.815 1.206,-6.028 1.823,-12.187 2.695,-18.292 0.91,-6.373 3.054,-12.529 5.092,-18.643 0.461,-1.384 1.436,-2.778 2.25,-4 0.243,-0.365 2.609,-1.787 3.058,-1.744 3.481,0.331 6.981,0.907 10.462,1.239 -2.425,1.788 -4.787,4.559 -5.77,7.505 -0.623,1.867 -1.381,3.035 -1.723,5.084 -0.315,1.891 0.324,3.624 0.048,5.559 -1.014,7.096 -3.658,14.288 -3.658,21.513 0,1.635 -1.967,3.342 -2.287,4.946 -0.315,1.575 -0.306,3.353 -0.682,4.856 -0.429,1.713 -0.317,3.398 -0.87,5.058 -0.521,1.565 -0.884,3.265 -1.208,4.883 -0.791,3.956 -2.032,15.089 -8.036,13.296 -10.734,-3.205 -23.224,-1.46 -32.912,4.354 -5.507,3.304 -24.716,14.34 -14.422,21.202 -3.91,-0.931 -8.787,-1.359 -12,-3.501"
           id="path33"
           style="fill:#a05a2c" /><line
           x1="310"
           y1="216.907"
           x2="310"
           y2="216.907"
           id="line35"
           style="fill:#a05a2c" /><line
           x1="310"
           y1="216.907"
           x2="310"
           y2="216.907"
           id="line37"
           style="fill:#a05a2c" /><line
           x1="309.5"
           y1="216.907"
           x2="309.5"
           y2="216.907"
           id="line39"
           style="fill:#a05a2c" /><line
           x1="309.5"
           y1="216.907"
           x2="309.5"
           y2="216.907"
           id="line41"
           style="fill:#a05a2c" /><line
           x1="247"
           y1="183.407"
           x2="247"
           y2="183.407"
           id="line43"
           style="fill:#a05a2c" /><line
           x1="247"
           y1="183.407"
           x2="247"
           y2="183.407"
           id="line45"
           style="fill:#a05a2c" /><path
           inkscape:connector-curvature="0"
           d="m 322.5,220.407 c -4.032,-1.046 -8.064,-2.091 -12.096,-3.136 -2.597,-0.674 -5.271,-1.232 -7.248,-3.208 -4.501,-4.501 -8.535,-10.195 -11.725,-15.776 -3.527,-6.173 -7.109,-12.235 -10.283,-18.584 -0.71,-1.419 -1.463,-2.967 -2.148,-4.296 -0.502,-0.975 -2,-2.241 -2,-3.25 0,-0.515 -1.5,-0.985 -1.5,-1.5 0,-0.837 -2.469,-0.575 -3,-1.25 3.895,0.835 7.789,1.669 11.684,2.504 2.046,0.438 4.99,1.077 6.316,2.496 0.068,0.073 1.418,0.642 1.418,0.75 0,0.649 0.322,-0.072 0.5,0.25 0.288,0.525 0.375,1.375 0.75,1.75 1.033,1.034 1.711,2.635 2.172,4.016 1.001,3.005 2.934,6.708 4.828,9.234 1.004,1.339 1.538,2.841 2.198,4.38 0.608,1.422 1.794,2.67 2.569,4.027 1.783,3.119 2.299,6.15 4.147,9.231 3.121,5.202 7.264,10.824 13.418,12.362"
           id="path47"
           style="fill:#a05a2c" /><line
           x1="278"
           y1="174.907"
           x2="278"
           y2="174.907"
           id="line49"
           style="fill:#a05a2c" /><path
           inkscape:connector-curvature="0"
           d="m 253.418,240.407 c 1.932,-11.594 1.344,-23.31 3.65,-34.84 1.113,-5.569 3.353,-11.171 5.15,-16.565 0.154,-0.462 -0.605,-3.066 -0.762,-3.105 -1.331,-0.333 -2.662,-0.666 -3.994,-0.998 -3.321,-0.83 -6.643,-1.661 -9.963,-2.491 -0.004,3.052 -1.598,6.083 -2.1,9.095 -0.6,3.604 -1.62,7.005 -2.332,10.565 -1.48,7.399 -1.824,14.991 -3.465,22.372 -1.324,5.961 -2.104,13.127 -2.104,19.202 0,1.795 0.064,2.894 0.87,4.507 0.438,0.877 2.484,1.146 3.317,1.384 3.938,1.125 8.021,2.015 11.959,3.14 -3.9,-2.234 -0.683,-9.53 -0.226,-12.266 z"
           id="path51"
           style="fill:#a05a2c" /><path
           inkscape:connector-curvature="0"
           d="m 254.418,183.907 c 0.866,-2.599 1.995,-5.913 3.926,-7.844 2.174,-2.173 4.536,-4.19 7.008,-6.045 6.09,-4.567 12.298,-5.95 19.602,-8.038 1.459,-0.416 3.049,-1.448 4.552,-1.637 2.612,-0.326 3.927,-0.312 6.448,0.407 1.586,0.453 8.465,2.329 8.465,-0.594 0,-0.835 -0.276,-2.33 0.082,-3.25 0.701,-1.8 1.49,-3.454 1.87,-5.353 0.696,-3.48 2.634,-6.993 3.495,-10.439 1.31,-5.237 1.963,-10.676 2.855,-16.027 0.945,-5.674 0.549,-11.336 1.262,-17.043 0.695,-5.562 3.052,-11.488 4.828,-16.818 1.562,-4.686 1.664,-11.073 6.362,-13.422 -4.21,-0.601 -8.593,-1.601 -12.803,-2.202 -3.57,-0.51 -4.546,3.007 -5.87,5.554 -1.477,2.843 -2.3,6.8 -3.156,9.797 -1.038,3.634 -1.561,7.322 -2.47,10.958 -1.819,7.278 -2.611,14.918 -3.847,22.329 -0.285,1.712 -0.685,4.593 -0.771,5.642 -0.087,1.05 -0.396,2.186 -0.756,4.209 -0.359,2.024 -1.215,7.101 -1.803,10.635 -0.292,1.749 -0.656,3.395 -1.148,5.166 -0.491,1.771 -0.909,3.235 -1.679,4.773 -1.062,2.126 -1.603,4.241 -4.13,4.241 -1.643,0 -3.137,-0.925 -4.777,-1.13 -2.146,-0.268 -4.147,-0.37 -6.312,-0.37 -3.608,0 -7.438,0.909 -10.709,2.311 -6.271,2.688 -12.705,5.452 -17.598,10.346 -4.357,4.357 -9.344,8.944 -9.344,15.578 0,2.972 2.251,4.212 4.816,4.762 3.895,0.835 7.789,1.669 11.684,2.504 -3.857,-1.343 -1.021,-6.184 -0.082,-9 z"
           id="path53"
           style="fill:#a05a2c" /></g><g
         id="g55"
         transform="matrix(0.765,0,0,0.765,47,34.971508)"><line
           x1="110.5"
           y1="122.407"
           x2="110.5"
           y2="122.407"
           id="line57"
           style="fill:#784421" /><path
           inkscape:connector-curvature="0"
           d="m 147,166.407 c -1.478,-0.961 -4.314,-3.204 -6.75,-6 -2.436,-2.796 -4.633,-5.96 -6.75,-8.5 -2.438,-2.927 -4.527,-6.038 -6.74,-9.136 -0.943,-1.32 -1.702,-2.777 -2.604,-4.13 -0.734,-1.101 -1.688,-2.87 -2.656,-3.734 0.451,0.056 2.644,-0.61 3.12,-0.878 0.802,-0.45 3.097,-2.64 3.576,-3.107 0.802,-0.781 1.531,-1.698 1.882,-2.749 0.568,-1.704 1.278,-3.335 1.844,-5.031 1.122,-3.366 2.52,-6.384 3.105,-9.9 0.616,-3.695 1.161,-7.43 1.973,-11.084 1.634,-7.352 1.596,-15.134 3.417,-22.418 0.862,-3.449 1.09,-6.924 2.083,-10.332 0.275,-0.944 0.932,-3.501 1.25,-4.25 0.466,-1.097 0.211,-2.127 1,-3.5 1.392,-2.422 2.89,-5.737 1.25,-8.25 -2.705,-4.145 -4.736,0.104 -6.5,2.75 -2.008,3.012 -2.484,6.701 -3.606,10.069 -1.151,3.455 -1.799,7.518 -2.315,11.134 -0.493,3.451 -1.145,6.879 -1.828,10.297 -0.699,3.493 -0.691,7.015 -1.574,10.546 -0.815,3.262 -0.794,6.678 -1.624,9.996 -0.823,3.295 -1.227,6.733 -2.302,9.958 -0.766,2.297 -1.917,5.884 -4.25,6.25 -1.557,0.245 -2.959,-0.319 -4.405,-0.802 -1.647,-0.549 -3.513,-0.5 -5.232,-0.715 -6.816,-0.853 -15.613,0.392 -21.812,3.491 -5.975,2.987 -11.813,5.788 -16.551,10.525 -1.896,1.896 -4.5,4.833 -4.5,7.734 0,2.376 1.517,5.921 4.5,5.266 1.082,-0.237 2.354,-1.708 2.87,-2.741 0.638,-1.273 1.536,-2.164 2.63,-3.259 -0.857,3.431 -1.699,6.796 -2.552,10.208 -0.898,3.592 -1.001,7.278 -1.8,10.876 -1.625,7.313 -3.26,17.835 -3.776,25.28 -0.217,3.127 -0.439,3.74 -0.372,6.87 0.076,3.509 2.599,6.667 5.656,3.609 1.021,-1.021 2.344,-1.983 2.344,-3.578 0,-1.938 0.152,-3.681 0.473,-5.6 0.571,-3.431 0.654,-6.927 1.226,-10.355 1.254,-7.524 2.018,-15.108 3.274,-22.645 0.53,-3.181 1.657,-6.624 2.527,-9.666 0.437,-1.524 0.656,-2.812 1.37,-4.241 0.292,-0.584 0.35,-1.173 0.63,-1.759 0.308,-0.644 0.795,-1.091 1.13,-1.759 2.521,-5.045 8.594,-7.741 14.12,-7.741 2.669,0 4.874,0.101 6.75,2 0.463,0.47 1.256,1.597 2,2.5 0.83,1.007 2.031,2.562 2.604,3.708 1.281,2.562 3.193,4.787 4.693,7.287 1.645,2.742 3.81,4.949 5.703,7.505 3.522,4.759 6.815,9.815 11,14 2.482,2.482 8.861,8.763 12.5,6.5 2.066,-1.285 2.5,-4.063 2.5,-6.25 0,-1.063 -0.625,-2.573 -1.5,-3.25 -0.766,-0.592 -1.523,-0.038 -3.001,-0.999 z"
           id="path59"
           style="fill:#784421" /><path
           inkscape:connector-curvature="0"
           d="m 290.5,174.407 c 0.248,0.413 2.725,5.181 3.5,7 1.437,3.372 4.75,9.184 5.438,10.354 0.688,1.17 1.039,2.361 1.875,3.615 1.223,1.835 2.341,3.675 3.436,5.589 1.793,3.139 3.805,6.197 5.669,9.304 1.982,3.305 9.233,12.048 13.083,9.639 2.642,-1.653 3.19,-5.136 3,-8 -0.229,-3.439 -3.128,-2.628 -5.156,-4.656 -9.326,-9.327 -15.088,-22.332 -20.844,-33.844 1.017,0.228 2.337,-0.919 3.24,-1.37 1.279,-0.64 1.998,-1.536 3.008,-2.546 0.326,-0.326 1.179,-2.198 1.404,-2.661 0.396,-0.811 0.969,-1.721 1.258,-2.588 0.59,-1.771 0.725,-2.865 1.434,-4.601 0.636,-1.556 0.815,-3.225 1.156,-4.734 0.451,-2.001 1.062,-3.874 1.4,-5.905 0.589,-3.529 1.498,-7.04 2.1,-10.595 2.479,-14.647 4.342,-29.37 7.948,-43.792 0.714,-2.859 2.065,-5.248 2.974,-7.974 0.82,-2.46 2.439,-7.054 -0.662,-8.604 -1.565,-0.783 -2.223,0.016 -3.26,1.37 -1.131,1.476 -1.994,2.983 -2.578,4.734 -1.182,3.546 -2.588,6.931 -3.505,10.598 -3.503,14.012 -4.342,28.793 -7.167,42.918 -0.709,3.544 -1.627,7.012 -2.223,10.584 -0.586,3.521 -1.768,6.382 -3.027,9.666 -0.4,1.044 -0.767,2.094 -1.5,3 -1.047,1.294 -1.451,0.849 -3,0.5 -1.824,-0.41 -3.588,-0.668 -5.393,-1.184 -1.803,-0.515 -3.415,0.184 -5.258,0.184 -7.541,0 -14.375,3.615 -20.711,7.417 -2.703,1.621 -5.238,4.117 -7.639,6.083 -2.402,1.968 -4.49,4.481 -5.871,7.241 -0.906,1.812 -2.629,3.707 -2.629,5.993 0,2.057 0.061,5.039 2,5.766 1.888,0.707 3.586,-0.673 4.371,-2.241 0.859,-1.719 2.049,-3.138 3.129,-4.759 -0.727,3.632 -1.632,7.396 -2.802,10.905 -1.171,3.513 -1.384,7.525 -2.111,11.159 -1.45,7.253 -2.3,14.642 -3.216,21.973 -0.462,3.688 -0.859,7.392 -1.471,11.058 -0.491,2.951 -1.674,6.859 -0.271,9.664 2.033,4.065 4.919,1.365 6.371,-1.759 0.688,-1.481 0.553,-3.211 0.948,-4.792 0.437,-1.746 0.589,-3.582 0.768,-5.368 1.478,-14.769 3.511,-29.743 7.108,-44.136 1.492,-5.967 2.527,-11.512 6.676,-16.204 1.311,-1.483 2.652,-3.128 5.26,-4 2.606,-0.872 3.732,-1.257 4.506,-1.422 0.774,-0.165 1.291,-0.204 1.994,-0.208 0.702,-0.003 1.109,0.035 1.99,0.13 0.881,0.095 3.002,1.086 3.25,1.499 z"
           id="path61"
           style="fill:#784421" /></g><g
         id="g63"
         transform="matrix(0.765,0,0,0.765,47,34.971508)"><line
           x1="86"
           y1="45.907001"
           x2="86"
           y2="45.907001"
           id="line65"
           style="fill:#a05a2c" /><line
           x1="86"
           y1="45.907001"
           x2="86"
           y2="45.907001"
           id="line67"
           style="fill:#a05a2c" /><line
           x1="86"
           y1="45.907001"
           x2="86"
           y2="45.907001"
           id="line69"
           style="fill:#a05a2c" /><line
           x1="86"
           y1="45.907001"
           x2="86"
           y2="45.907001"
           id="line71"
           style="fill:#a05a2c" /><line
           x1="86"
           y1="45.907001"
           x2="86"
           y2="45.907001"
           id="line73"
           style="fill:#a05a2c" /><polygon
           points="383.815,99.188 383.5,99.907 383.295,100.559 383.267,100.97 383.13,101.463 382.938,102.012 382.5,102.407 81,55.407 80.392,54.979 80,54.407 79.834,53.694 79.742,53.131 79.75,52.288 79.868,51.595 80.307,50.451 80.5,49.907 81,48.907 81.294,48.326 81.794,47.326 82.132,46.634 82.621,45.803 83.263,45.248 84,44.907 84.5,44.907 84.5,44.907 387,88.407 387.5,88.907 387.5,89.407 387,90.407 386,92.407 385.5,93.907 384.803,95.65 384.303,97.65 "
           id="polygon75"
           style="fill:#a05a2c" /><polygon
           points="70.5,99.907 70.5,100.407 70.5,101.407 70.5,102.407 70.667,103.105 71,103.907 71.5,104.407 371,163.907 371.53,163.795 371.753,162.947 372,161.407 372.342,159.94 372.729,158.457 373,156.791 373.257,155.389 373.5,154.407 373.684,153.397 373.866,152.382 374,151.407 374.09,150.086 374,149.407 74.5,92.907 74,92.907 73.33,93.159 72.498,93.741 72,94.407 71.707,95.219 71.5,95.907 71.354,96.363 71.249,96.779 71.249,96.779 71.083,97.175 70.937,97.674 70.792,98.236 70.688,98.694 70.625,99.214 "
           id="polygon77"
           style="fill:#a05a2c" /><line
           x1="75.5"
           y1="87.406998"
           x2="75.5"
           y2="87.406998"
           id="line79"
           style="fill:#a05a2c" /><line
           x1="75.5"
           y1="87.906998"
           x2="75.5"
           y2="87.906998"
           id="line81"
           style="fill:#a05a2c" /><line
           x1="75.5"
           y1="87.906998"
           x2="75.5"
           y2="87.906998"
           id="line83"
           style="fill:#a05a2c" /><polygon
           points="73.5,82.907 73.5,83.907 73.5,84.407 73.5,85.407 73.5,86.407 73.697,86.963 74,87.407 74.827,88.094 75.5,88.407 375,143.407 375.5,143.407 375.672,142.819 375.727,142.113 375.821,141.025 376,139.907 376.412,137.445 376.741,135.389 377,133.407 377.5,130.907 377.619,129.302 377.5,128.407 77,76.407 77,76.407 76.443,76.557 75.797,76.896 75,77.407 74.555,77.853 74.278,78.593 73.987,79.579 73.809,80.37 73.68,81.243 73.5,81.907 "
           id="polygon85"
           style="fill:#a05a2c" /><polygon
           points="76,66.907 76,66.407 76.188,65.268 76.347,64.391 76.5,63.907 76.746,62.876 77,61.907 77.444,61.242 77.882,60.764 78.5,60.407 79.277,60.325 80,60.407 80,60.407 381.5,107.907 381,109.907 380.5,112.907 380,115.407 379.5,117.907 379,120.407 378.5,122.907 78,71.907 77.264,71.684 76.487,71.066 76.125,70.532 76,69.907 76,68.907 76,67.907 "
           id="polygon87"
           style="fill:#a05a2c" /><line
           x1="366.5"
           y1="170.407"
           x2="366.5"
           y2="170.407"
           id="line89"
           style="fill:#a05a2c" /><polygon
           points="66.869,109.841 66.5,109.741 66.226,109.588 65.349,109.643 64.777,109.797 64.377,110.006 63.73,110.523 63.014,111.24 62.855,112.093 63.19,112.496 63.682,112.67 64.107,112.758 64.446,112.903 64.967,113.002 65.394,113.102 65.724,113.223 66.5,113.407 366,175.407 366.23,175.334 366.746,175.099 367,174.907 367.311,174.629 367.5,174.407 367.817,174.135 368,173.907 368.251,173.441 368.5,172.907 368.768,172.443 369,171.907 369.367,171.15 369.5,170.407 369.438,169.939 368.994,169.297 368.5,168.907 69.5,108.407 69,108.407 68.291,108.684 67.784,109.125 67.5,109.407 67.123,109.709 67.123,109.709 "
           id="polygon91"
           style="fill:#a05a2c" /><line
           x1="352"
           y1="173.907"
           x2="352"
           y2="173.907"
           id="line93"
           style="fill:#a05a2c" /><line
           x1="352"
           y1="173.907"
           x2="352"
           y2="173.907"
           id="line95"
           style="fill:#a05a2c" /><polygon
           points="56.928,107.764 55.893,107.68 55.379,107.651 54.893,107.68 53.928,107.764 53.472,107.833 53,107.907 52,108.407 51.5,108.907 51,109.407 50.5,110.407 50.5,111.407 50.5,111.407 352,174.407 353.151,174.441 354.807,174.394 356.276,174.3 357.688,174.14 358.803,174.041 359.895,173.83 360,172.907 360,171.407 359.725,170.414 359.5,169.907 359,169.407 58,107.907 57.472,107.833 "
           id="polygon97"
           style="fill:#a05a2c" /><line
           x1="343.40799"
           y1="172.715"
           x2="343.40799"
           y2="172.715"
           id="line99"
           style="fill:#a05a2c" /><line
           x1="344"
           y1="172.407"
           x2="344"
           y2="172.407"
           id="line101"
           style="fill:#a05a2c" /><line
           x1="345"
           y1="171.907"
           x2="345"
           y2="171.907"
           id="line103"
           style="fill:#a05a2c" /><line
           x1="345.26001"
           y1="171.69901"
           x2="345.26001"
           y2="171.69901"
           id="line105"
           style="fill:#a05a2c" /><polygon
           points="344.699,176.686 345.5,176.407 346.11,176.133 346.651,175.957 347.59,175.639 348.484,175.193 348.86,174.828 348.723,173.832 348.5,172.907 348,171.907 347.5,171.407 45.5,108.907 44.494,108.826 43.931,108.77 43.431,108.77 42.931,108.77 42.431,108.77 41.846,108.797 41.273,108.983 40.658,109.152 40.17,109.276 39.761,109.43 39,109.907 38.5,110.407 37.884,111.258 37.5,111.907 37.276,113.049 37.5,113.907 37.5,113.907 340.5,178.407 341,178.407 342.059,178.013 342.691,177.625 343.332,177.355 344.053,176.99 "
           id="polygon107"
           style="fill:#a05a2c" /><polygon
           points="336.5,178.907 336,177.907 32.5,113.407 31.626,112.97 31,112.907 30.046,113.194 29.5,113.407 28.824,113.729 28.038,114.079 27.5,114.407 26.845,114.823 26,115.407 25.5,115.907 25,116.407 24.289,117.238 24,117.907 24,118.907 24.5,119.907 24.5,119.907 328.5,187.407 329.281,187.105 329.781,186.605 330.281,186.105 331.281,185.105 332.701,183.96 333.5,183.407 334.629,182.479 336,181.407 337,180.407 337,179.907 "
           id="polygon109"
           style="fill:#a05a2c" /><line
           x1="14"
           y1="132.407"
           x2="14"
           y2="132.407"
           id="line111"
           style="fill:#a05a2c" /><line
           x1="13.5"
           y1="131.907"
           x2="13.5"
           y2="131.907"
           id="line113"
           style="fill:#a05a2c" /><line
           x1="13.5"
           y1="131.907"
           x2="13.5"
           y2="131.907"
           id="line115"
           style="fill:#a05a2c" /><line
           x1="20.5"
           y1="122.407"
           x2="20.5"
           y2="122.407"
           id="line117"
           style="fill:#a05a2c" /><line
           x1="20.5"
           y1="122.407"
           x2="20.5"
           y2="122.407"
           id="line119"
           style="fill:#a05a2c" /><line
           x1="20.5"
           y1="122.407"
           x2="20.5"
           y2="122.407"
           id="line121"
           style="fill:#a05a2c" /><line
           x1="20.5"
           y1="122.407"
           x2="20.5"
           y2="122.407"
           id="line123"
           style="fill:#a05a2c" /><polygon
           points="319.727,199.978 320,199.407 320.5,197.907 321.5,196.407 322,195.407 322.747,194.243 323.57,192.998 324.57,191.998 325,191.407 325.085,190.895 325,190.407 324,189.407 19.5,121.407 19,121.407 18,121.407 17.5,121.907 16.5,122.407 16,122.907 15.5,123.407 14.5,124.407 14,124.907 13.5,125.907 13,126.907 12.5,127.907 12.5,128.407 12.5,129.407 12.5,130.407 13,131.407 13.5,131.907 14,132.407 14,132.407 319,203.907 319.257,203.586 319.316,202.588 319.316,201.588 319.557,200.56 "
           id="polygon125"
           style="fill:#a05a2c" /></g><g
         id="g127"
         transform="matrix(0.765,0,0,0.765,47,34.971508)"><polygon
           points="384.803,95.65 385.5,93.907 386,92.407 387,90.407 387.5,89.407 387.5,88.907 387,88.407 386.5,88.407 386,88.407 385,88.907 384.5,89.407 384,90.407 383.612,91.568 383.27,92.356 383,93.407 382.5,94.407 382.207,95.44 382,96.407 381.693,97.737 381.5,98.907 381.5,99.907 381.624,100.753 381.761,101.404 382.172,101.987 382.172,101.987 382.5,102.407 382.938,102.012 383.13,101.463 383.267,100.97 383.295,100.559 383.5,99.907 383.815,99.188 384.303,97.65 "
           id="polygon129"
           style="fill:#784421" /><polygon
           points="370,158.907 370,160.407 370,161.407 370,162.407 370.27,163.473 371,163.907 371.53,163.795 371.753,162.947 372,161.407 372.342,159.94 372.729,158.457 373,156.791 373.257,155.389 373.5,154.407 373.684,153.397 373.866,152.382 374,151.407 374.09,150.086 374,149.407 373.452,149.455 373,149.907 372.5,150.407 372,151.407 371.5,152.407 371.225,153.018 371.071,153.479 370.855,153.957 370.67,154.496 370.67,154.496 370.547,155.05 370.393,155.589 370.254,156.112 370.177,156.574 370.039,157.684 370.039,158.184 "
           id="polygon131"
           style="fill:#784421" /><polygon
           points="376.346,129.238 376,129.907 375.5,130.907 375,131.907 374.5,132.907 374.221,133.928 374.016,134.961 373.844,135.887 373.639,136.841 373.467,137.807 373.467,138.801 373.5,139.907 373.5,140.907 373.844,142.021 374.344,143.021 375,143.407 375,143.407 375.5,143.407 375.672,142.819 375.727,142.113 375.821,141.025 376,139.907 376.412,137.445 376.741,135.389 377,133.407 377.5,130.907 377.619,129.302 377.5,128.407 376.895,128.689 "
           id="polygon133"
           style="fill:#784421" /><polygon
           points="377.305,114.979 377.076,115.975 377.066,116.897 377,117.907 377,118.907 377,120.407 377.168,121.25 377.5,121.907 378,122.407 378.5,122.907 378.5,122.907 379,120.407 379.5,117.907 380,115.407 380.5,112.907 381,109.907 381.5,107.907 381,107.907 380.5,107.907 380,108.407 379.5,108.907 379,109.907 378.5,110.907 378.197,111.825 377.785,112.956 377.536,113.964 "
           id="polygon135"
           style="fill:#784421" /><line
           x1="366.5"
           y1="170.407"
           x2="366.5"
           y2="170.407"
           id="line137"
           style="fill:#784421" /><polygon
           points="367,170.407 366.733,171.09 366.004,171.175 365.471,171.074 364.5,170.907 364,171.407 363.5,172.407 363,173.407 363.076,174.256 363.33,174.594 363.686,174.729 364,174.907 364.428,175.082 364.85,175.169 365.37,175.277 366,175.407 366.23,175.334 366.746,175.099 367,174.907 367.311,174.629 367.5,174.407 367.817,174.135 368,173.907 368.251,173.441 368.5,172.907 368.768,172.443 369,171.907 369.367,171.15 369.5,170.407 369.438,169.939 369.438,169.939 368.994,169.297 368.5,168.907 367.883,169.025 367.5,169.407 367,169.907 "
           id="polygon139"
           style="fill:#784421" /><polygon
           points="352.5,171.907 352.16,172.885 352,173.907 352,174.407 353.151,174.441 354.807,174.394 356.276,174.3 357.688,174.14 358.803,174.041 359.895,173.83 359.895,173.83 360,172.907 360,171.407 359.725,170.414 359.5,169.907 359,169.407 358.5,169.407 357.5,169.407 357,169.407 356.5,169.407 356,169.407 355.5,169.407 355,169.407 354.141,169.703 353.411,170.041 352.871,170.854 "
           id="polygon141"
           style="fill:#784421" /><polygon
           points="346.651,175.957 347.59,175.639 348.484,175.193 348.86,174.828 348.723,173.832 348.5,172.907 348,171.907 347.5,171.407 347,171.365 346.5,171.351 346,171.407 345.676,171.547 345.26,171.699 345,171.907 344.44,172.174 344,172.407 343.408,172.715 343,172.907 342.393,173.273 341.5,173.907 341,174.907 340.683,175.932 340.5,177.407 340.5,178.407 340.5,178.407 341,178.407 342.059,178.013 342.691,177.625 343.332,177.355 344.053,176.99 344.699,176.686 345.5,176.407 346.11,176.133 "
           id="polygon143"
           style="fill:#784421" /><polygon
           points="328.817,183.903 328.174,185.748 328.174,186.51 328.5,187.407 329.281,187.105 330.281,186.105 331.281,185.105 332.701,183.96 333.5,183.407 334.629,182.479 336,181.407 337,180.407 337,180.407 337,179.907 336.5,178.907 336,177.907 335.465,177.864 335,177.907 334,178.407 333.59,178.59 333,178.907 332.253,179.385 331.5,179.907 331,180.407 330.5,180.907 329.909,181.77 329.409,182.77 "
           id="polygon145"
           style="fill:#784421" /><polygon
           points="321,191.907 320.243,192.84 319.743,193.84 319,194.907 318.5,195.907 318,196.907 317.576,198.021 317.5,199.407 317.5,200.407 317.5,201.407 317.561,202.387 318,203.407 318.389,203.674 319,203.907 319.257,203.586 319.316,202.588 319.316,201.588 319.557,200.56 319.727,199.978 320,199.407 320.5,197.907 321.5,196.407 322,195.407 322.747,194.243 323.57,192.998 324.57,191.998 325,191.407 325.085,190.895 325.085,190.895 325,190.407 324,189.407 323.5,189.407 323.01,189.559 322.5,189.907 321.606,190.963 "
           id="polygon147"
           style="fill:#784421" /></g></g></g></svg>