/* XPM */
static char *dummy[]={
"16 16 32 1",
". c None",
"f c #009933",
"e c #019933",
"h c #149d33",
"i c #1a9e33",
"k c #1b9e33",
"r c #1c9e33",
"A c #2ca133",
"v c #2fa233",
"y c #40a533",
"D c #49a733",
"j c #4ea833",
"d c #53a933",
"z c #57aa33",
"B c #68ad33",
"b c #7cb133",
"u c #83b333",
"C c #8fb533",
"m c #9bb833",
"a c #9cb833",
"q c #a0b933",
"g c #b4bd33",
"x c #b7bd33",
"t c #bbbe33",
"# c #c7c033",
"l c #d3c333",
"c c #d4c333",
"s c #e4c633",
"w c #ecc833",
"p c #f1c933",
"n c #f7ca33",
"o c #ffcc33",
".....#abba#.....",
"...cdeffffedc...",
"..ghffijjkffhg..",
".lhfkmnoopqkfhl.",
".dfrsftoouvwrfd.",
"#efxnftoouvoxfe#",
"afionftoouvooifa",
"bfjonfyzzAvoojfb",
"bfjonfBCCDvoojfb",
"afionftoouvooifa",
"#efxnftoouvoxfe#",
".dfrsftoouvwrfd.",
".lhfkmnoopqkfhl.",
"..ghffijjkffhg..",
"...cdeffffedc...",
".....#abba#....."};
