<?xml version="1.0" encoding="UTF-8" standalone="no"?>
<!-- Created with Inkscape (http://www.inkscape.org/) -->

<svg
   xmlns:dc="http://purl.org/dc/elements/1.1/"
   xmlns:cc="http://creativecommons.org/ns#"
   xmlns:rdf="http://www.w3.org/1999/02/22-rdf-syntax-ns#"
   xmlns:svg="http://www.w3.org/2000/svg"
   xmlns="http://www.w3.org/2000/svg"
   xmlns:sodipodi="http://sodipodi.sourceforge.net/DTD/sodipodi-0.dtd"
   xmlns:inkscape="http://www.inkscape.org/namespaces/inkscape"
   height="22"
   id="svg2"
   inkscape:output_extension="org.inkscape.output.svg.inkscape"
   inkscape:version="0.48.1 r9760"
   sodipodi:docname="bus_stop.svg"
   sodipodi:version="0.32"
   version="1.0"
   width="22">
  <metadata
     id="metadata1976">
    <rdf:RDF>
      <cc:Work
         rdf:about="">
        <dc:format>image/svg+xml</dc:format>
        <dc:type
           rdf:resource="http://purl.org/dc/dcmitype/StillImage" />
        <cc:license
           rdf:resource="http://web.resource.org/cc/PublicDomain" />
        <dc:language>en</dc:language>
      </cc:Work>
    </rdf:RDF>
  </metadata>
  <sodipodi:namedview
     bordercolor="#666666"
     borderopacity="1.0"
     gridtolerance="10.0"
     guidetolerance="10.0"
     id="base"
     inkscape:current-layer="svg2"
     inkscape:cx="53.760581"
     inkscape:cy="3.3320865"
     inkscape:pageopacity="0.0"
     inkscape:pageshadow="2"
     inkscape:window-height="725"
     inkscape:window-width="1024"
     inkscape:window-x="-4"
     inkscape:window-y="-4"
     inkscape:zoom="5.2137932"
     objecttolerance="10.0"
     pagecolor="#ffffff"
     showgrid="false"
     inkscape:window-maximized="0" />
  <defs
     id="defs4">
    <inkscape:perspective
       id="perspective3653"
       inkscape:persp3d-origin="290 : 193.33333 : 1"
       inkscape:vp_x="0 : 290 : 1"
       inkscape:vp_y="0 : 1000 : 0"
       inkscape:vp_z="580 : 290 : 1"
       sodipodi:type="inkscape:persp3d" />
    <marker
       id="ArrowStart"
       markerHeight="3"
       markerUnits="strokeWidth"
       markerWidth="4"
       orient="auto"
       refX="10"
       refY="5"
       viewBox="0 0 10 10">
      <path
         d="M 10 0 L 0 5 L 10 10 z"
         id="path2111" />
    </marker>
    <marker
       id="ArrowEnd"
       markerHeight="3"
       markerUnits="strokeWidth"
       markerWidth="4"
       orient="auto"
       refX="0"
       refY="5"
       viewBox="0 0 10 10">
      <path
         d="M 0 0 L 10 5 L 0 10 z"
         id="path2108" />
    </marker>
    <inkscape:perspective
       id="perspective2512"
       inkscape:persp3d-origin="177.51199 : 145.02 : 1"
       inkscape:vp_x="0 : 217.53 : 1"
       inkscape:vp_y="0 : 1000 : 0"
       inkscape:vp_z="355.02399 : 217.53 : 1"
       sodipodi:type="inkscape:persp3d" />
  </defs>
  <g
     id="g1327"
     transform="matrix(0.0385034,0,0,0.0385034,0,4.2733549e-4)">
    <path
       d="M 66.275,1.768 C 24.94,1.768 1.704,23.139 1.704,66.804 l 0,450.123 c 0,40.844 20.896,62.229 62.192,62.229 l 452.024,0 c 41.307,0 62.229,-20.314 62.229,-62.229 l 0,-450.123 c 0,-42.601 -20.922,-65.036 -63.521,-65.036 -0.004,0 -448.495,-0.143 -448.353,0 z"
       id="path1329"
       style="fill:#111111;fill-opacity:0;stroke:#eeeeee;stroke-width:3.40799999;stroke-opacity:0"
       inkscape:connector-curvature="0" />
  </g>
  <g
     id="g2117"
     style="fill:#000000"
     transform="matrix(0.04610796,0,0,0.04610796,3.0852084,1.3317145)">
    <g
       id="g2119"
       style="fill:#000000">
      <g
         id="g2121"
         style="fill:#000000">
        <path
           d=""
           id="path2125"
           style="fill:#000000;stroke:none"
           inkscape:connector-curvature="0" />
      </g>
      <g
         id="g2127"
         style="fill:#000000">
        <path
           d=""
           id="path2131"
           style="fill:#000000;stroke:none"
           inkscape:connector-curvature="0" />
      </g>
    </g>
  </g>
  <path
     d="m 11.382891,2.0411182 c 0.01245,0 0.02537,4.731e-4 0.03795,5.772e-4 0.01267,-1.041e-4 0.02542,-5.772e-4 0.03795,-5.772e-4 l -0.0759,0 z m 0.03795,5.772e-4 c -0.883707,0.007 -2.0810063,0.2558264 -2.5807453,0.464051 C 8.3331996,2.7169549 7.9951651,2.9282649 7.889571,3.456275 l -0.3800962,2.9274901 0,4.0332779 0.6549623,0 0,0.632535 c 0,0.771237 1.1282136,0.771237 1.1282136,0 l 0,-0.632535 2.0839183,0 0.0063,0 2.166147,0 0,0.632535 c 0,0.771237 1.128788,0.771237 1.128788,0 l 0,-0.632535 0.654962,0 0,-4.0332779 L 14.952719,3.456275 C 14.847104,2.9282649 14.509069,2.7169549 14.002169,2.5057464 13.502381,2.2975016 12.30458,2.0486505 11.420847,2.0416954 z m -1.6089403,0.7389167 1.5709893,0 1.647467,0 c 0.316824,0 0.316824,0.4749767 0,0.4749767 l -1.650918,0 -1.5675383,0 c -0.3168233,0 -0.3168233,-0.4749767 0,-0.4749767 z m -0.7004842,0.9551287 2.2680225,0 2.273821,0 c 0.334672,0 0.422268,0.1698792 0.462901,0.4278243 l 0.296141,2.1230197 c 0.02759,0.2034963 -0.03167,0.4053978 -0.312817,0.4053978 l -2.716595,0 -2.717699,0 c -0.2811483,0 -0.3398307,-0.2019019 -0.3122428,-0.4053978 L 8.6490946,4.163563 C 8.6897271,3.9056179 8.7767477,3.7357388 9.1114205,3.7357388 z m -0.3823021,4.257013 c 0.2989753,-8e-7 0.6181128,0.319712 0.6181128,0.6186873 0,0.2989753 -0.3191375,0.6181121 -0.6181128,0.6181121 -0.2989753,7e-7 -0.6186873,-0.3191375 -0.6186873,-0.6181121 0,-0.2989753 0.319712,-0.6186873 0.6186873,-0.6186873 z m 5.3840296,0 c 0.298974,0 0.618112,0.319712 0.618112,0.6186873 0,0.2989746 -0.319138,0.6181128 -0.618112,0.6181121 -0.298976,0 -0.618689,-0.3191368 -0.618688,-0.6181121 0,-0.2989753 0.319712,-0.6186881 0.618688,-0.6186873 z"
     id="path2115"
     sodipodi:nodetypes="cscccsccccccccccccccccsccccccccccccccccccccsssccsssc"
     style="fill:#0089cd;stroke:none"
     inkscape:connector-curvature="0" />
  <rect
     height="12.438084"
     id="rect3653"
     ry="0.77344877"
     style="fill:none;stroke:#0089cd;stroke-width:0.57755101;stroke-linecap:round;stroke-linejoin:round;stroke-miterlimit:4;stroke-opacity:1;stroke-dasharray:none;stroke-dashoffset:0"
     width="11.373988"
     x="5.6446185"
     y="0.59913504" />
  <path
     d="m 11.343224,13.060768 0,8.653797"
     id="path4184"
     style="fill:none;stroke:#0089cd;stroke-width:1.10887802;stroke-linecap:butt;stroke-linejoin:miter;stroke-miterlimit:4;stroke-opacity:1;stroke-dasharray:none"
     inkscape:connector-curvature="0" />
  <path
     d="m 14.769315,21.227006 -6.9703409,0"
     id="path4186"
     style="fill:none;stroke:#0089cd;stroke-width:1.15510201;stroke-linecap:round;stroke-linejoin:round;stroke-miterlimit:4;stroke-opacity:1;stroke-dasharray:none"
     inkscape:connector-curvature="0" />
</svg>
