<?xml version="1.0" encoding="UTF-8" standalone="no"?>
<!-- Created with Inkscape (http://www.inkscape.org/) -->

<svg
   xmlns:dc="http://purl.org/dc/elements/1.1/"
   xmlns:cc="http://creativecommons.org/ns#"
   xmlns:rdf="http://www.w3.org/1999/02/22-rdf-syntax-ns#"
   xmlns:svg="http://www.w3.org/2000/svg"
   xmlns="http://www.w3.org/2000/svg"
   xmlns:sodipodi="http://sodipodi.sourceforge.net/DTD/sodipodi-0.dtd"
   xmlns:inkscape="http://www.inkscape.org/namespaces/inkscape"
   height="22"
   id="svg2"
   inkscape:output_extension="org.inkscape.output.svg.inkscape"
   inkscape:version="0.48.1 r9760"
   sodipodi:docname="car_dealer.svg"
   sodipodi:version="0.32"
   version="1.0"
   width="22">
  <metadata
     id="metadata10">
    <rdf:RDF>
      <cc:Work
         rdf:about="">
        <dc:format>image/svg+xml</dc:format>
        <dc:type
           rdf:resource="http://purl.org/dc/dcmitype/StillImage" />
        <cc:license
           rdf:resource="http://web.resource.org/cc/PublicDomain" />
        <dc:language>en</dc:language>
      </cc:Work>
    </rdf:RDF>
  </metadata>
  <sodipodi:namedview
     bordercolor="#666666"
     borderopacity="1.0"
     gridtolerance="10.0"
     guidetolerance="10.0"
     id="base"
     inkscape:current-layer="svg2"
     inkscape:cx="-28.16038"
     inkscape:cy="2.5297942"
     inkscape:pageopacity="0.0"
     inkscape:pageshadow="2"
     inkscape:window-height="725"
     inkscape:window-width="1024"
     inkscape:window-x="-3"
     inkscape:window-y="-3"
     inkscape:zoom="5.6568542"
     objecttolerance="10.0"
     pagecolor="#ffffff"
     showgrid="false"
     inkscape:window-maximized="0" />
  <defs
     id="defs4">
    <inkscape:perspective
       id="perspective12"
       inkscape:persp3d-origin="290 : 193.33333 : 1"
       inkscape:vp_x="0 : 290 : 1"
       inkscape:vp_y="0 : 1000 : 0"
       inkscape:vp_z="580 : 290 : 1"
       sodipodi:type="inkscape:persp3d" />
    <style
       id="style6"
       type="text/css">
    .fil0 {fill:#EF7900}
  </style>
    <inkscape:perspective
       id="perspective6807"
       inkscape:persp3d-origin="29.116032 : 19.410688 : 1"
       inkscape:vp_x="0 : 29.116032 : 1"
       inkscape:vp_y="0 : 1000 : 0"
       inkscape:vp_z="58.232063 : 29.116032 : 1"
       sodipodi:type="inkscape:persp3d" />
    <inkscape:perspective
       id="perspective6954"
       inkscape:persp3d-origin="290 : 193.33333 : 1"
       inkscape:vp_x="0 : 290 : 1"
       inkscape:vp_y="0 : 1000 : 0"
       inkscape:vp_z="580 : 290 : 1"
       sodipodi:type="inkscape:persp3d" />
    <marker
       id="ArrowStart"
       markerHeight="3"
       markerUnits="strokeWidth"
       markerWidth="4"
       orient="auto"
       refX="10"
       refY="5"
       viewBox="0 0 10 10">
      <path
         d="M 10 0 L 0 5 L 10 10 z"
         id="path2295" />
    </marker>
    <marker
       id="ArrowEnd"
       markerHeight="3"
       markerUnits="strokeWidth"
       markerWidth="4"
       orient="auto"
       refX="0"
       refY="5"
       viewBox="0 0 10 10">
      <path
         d="M 0 0 L 10 5 L 0 10 z"
         id="path2292" />
    </marker>
    <inkscape:perspective
       id="perspective7597"
       inkscape:persp3d-origin="178.5405 : 158.483 : 1"
       inkscape:vp_x="0 : 237.7245 : 1"
       inkscape:vp_y="0 : 1000 : 0"
       inkscape:vp_z="357.08099 : 237.7245 : 1"
       sodipodi:type="inkscape:persp3d" />
  </defs>
  <g
     id="g1327"
     transform="matrix(0.04255774,0,0,0.04255774,-1.4142136,-1.7673414)">
    <path
       d="M 66.275,1.768 C 24.94,1.768 1.704,23.139 1.704,66.804 l 0,450.123 c 0,40.844 20.894,62.229 62.192,62.229 l 452.024,0 c 41.307,0 62.229,-20.316 62.229,-62.229 l 0,-450.123 c 0,-42.601 -20.922,-65.036 -63.522,-65.036 -0.003,0 -448.494,-0.143 -448.352,0 z"
       id="path1329"
       style="fill:#111111;fill-opacity:0;stroke:#eeeeee;stroke-width:3.40799999;stroke-opacity:0"
       inkscape:connector-curvature="0" />
  </g>
  <path
     d="m 6.3944746,2.0462016 c -1.3503363,0 -2.0666597,0.7371955 -2.3973581,1.6001099 L 2.2416743,8.1790208 C 1.5457851,8.2682521 0.31218496,9.0850971 0.31218496,10.632523 l 0,5.764138 1.70865554,0 0,1.843404 c 0,2.267925 3.2095769,2.241215 3.2095773,0 l 0,-1.843404 5.7734982,0 0.0019,0 5.773494,0 0,1.843404 c 0,2.241215 3.209562,2.267925 3.20958,0 l 0,-1.843404 1.708653,0 0,-5.764138 c 0,-1.5474249 -1.233592,-2.3642709 -1.929493,-2.4535022 L 18.010713,3.6463115 C 17.680016,2.7833971 16.963699,2.0462016 15.613353,2.0462016 l -2.481569,0 -4.2257949,0 -2.5115145,0 z m -0.020586,1.6506399 4.6262844,0 0.0038,0 0.0019,0 4.628152,0 c 0.578688,0.00539 0.826533,0.367287 0.99188,0.8683627 l 1.323129,3.5670299 -6.943161,0 -0.0019,0 -0.0038,0 -6.9412971,0 1.3231312,-3.5670299 C 5.5473564,4.0641285 5.7951381,3.7022303 6.3738882,3.6968415 z M 3.6770951,9.8670903 c 0.8188373,0 1.482207,0.6831927 1.482207,1.5271217 -4e-7,0.843991 -0.6633697,1.528995 -1.482207,1.528995 -0.8187774,0 -1.4822075,-0.685005 -1.4822075,-1.528995 0,-0.843927 0.6634301,-1.5271217 1.4822075,-1.5271217 z m 14.6555119,0 c 0.818837,0 1.482212,0.6831947 1.482207,1.5271217 0,0.84399 -0.66337,1.528995 -1.482207,1.528995 -0.818777,0 -1.484083,-0.685004 -1.484083,-1.528995 0,-0.843929 0.665306,-1.5271217 1.484083,-1.5271217 z"
     id="path2301"
     style="fill:#ad30c0;stroke:none"
     inkscape:connector-curvature="0" />
  <g
     id="g2319"
     transform="matrix(0.04255774,0,0,0.04255774,36.006437,-0.20099864)">
    <path
       d=""
       id="path2323"
       style="fill:#ad30c0;stroke:none"
       inkscape:connector-curvature="0" />
  </g>
  <g
     id="g2325"
     transform="matrix(0.04255774,0,0,0.04255774,36.006437,-0.20099864)">
    <path
       d=""
       id="path2329"
       style="fill:#ad30c0;stroke:none"
       inkscape:connector-curvature="0" />
  </g>
</svg>
