<?xml version="1.0" encoding="UTF-8" standalone="no"?>
<!-- Created with Inkscape (http://www.inkscape.org/) -->

<svg
   xmlns:dc="http://purl.org/dc/elements/1.1/"
   xmlns:cc="http://creativecommons.org/ns#"
   xmlns:rdf="http://www.w3.org/1999/02/22-rdf-syntax-ns#"
   xmlns:svg="http://www.w3.org/2000/svg"
   xmlns="http://www.w3.org/2000/svg"
   xmlns:sodipodi="http://sodipodi.sourceforge.net/DTD/sodipodi-0.dtd"
   xmlns:inkscape="http://www.inkscape.org/namespaces/inkscape"
   height="22"
   id="svg2"
   inkscape:output_extension="org.inkscape.output.svg.inkscape"
   inkscape:version="0.91 r13725"
   sodipodi:docname="castle.svg"
   sodipodi:version="0.32"
   version="1.0"
   width="22">
  <metadata
     id="metadata2975">
    <rdf:RDF>
      <cc:Work
         rdf:about="">
        <dc:format>image/svg+xml</dc:format>
        <dc:type
           rdf:resource="http://purl.org/dc/dcmitype/StillImage" />
        <cc:license
           rdf:resource="http://creativecommons.org/publicdomain/zero/1.0/" />
        <dc:language>en</dc:language>
        <dc:title />
        <dc:description>jfitie@gmail.com</dc:description>
      </cc:Work>
      <cc:License
         rdf:about="http://creativecommons.org/publicdomain/zero/1.0/">
        <cc:permits
           rdf:resource="http://creativecommons.org/ns#Reproduction" />
        <cc:permits
           rdf:resource="http://creativecommons.org/ns#Distribution" />
        <cc:permits
           rdf:resource="http://creativecommons.org/ns#DerivativeWorks" />
      </cc:License>
    </rdf:RDF>
  </metadata>
  <sodipodi:namedview
     bordercolor="#666666"
     borderopacity="1.0"
     gridtolerance="10.0"
     guidetolerance="10.0"
     id="base"
     inkscape:current-layer="svg2"
     inkscape:cx="55.005049"
     inkscape:cy="43.549644"
     inkscape:pageopacity="0"
     inkscape:pageshadow="2"
     inkscape:window-height="874"
     inkscape:window-maximized="1"
     inkscape:window-width="1440"
     inkscape:window-x="0"
     inkscape:window-y="0"
     inkscape:zoom="5.2137932"
     objecttolerance="10.0"
     pagecolor="#ffff00"
     showgrid="false" />
  <defs
     id="defs4">
    <inkscape:perspective
       id="perspective2441"
       inkscape:persp3d-origin="290 : 193.33333 : 1"
       inkscape:vp_x="0 : 290 : 1"
       inkscape:vp_y="0 : 1000 : 0"
       inkscape:vp_z="580 : 290 : 1"
       sodipodi:type="inkscape:persp3d" />
    <inkscape:perspective
       id="perspective3452"
       inkscape:persp3d-origin="30 : 20 : 1"
       inkscape:vp_x="0 : 30 : 1"
       inkscape:vp_y="0 : 1000 : 0"
       inkscape:vp_z="60 : 30 : 1"
       sodipodi:type="inkscape:persp3d" />
    <symbol
       id="symbol-university"
       viewBox="244.5 110 489 219.9">
      <path
         d="m 79,43 57,119 c 0,0 21,-96 104,-96 83,0 124,106 124,106 L 407,39 489,22 0,17 79,43 Z"
         id="path4460"
         inkscape:connector-curvature="0" />
      <path
         d="M 94,176 73,215"
         id="path4462"
         inkscape:connector-curvature="0"
         style="fill:none;stroke:#000000;stroke-width:20" />
      <path
         d="M 300,19 C 300,29.5 277.4,38 249.5,38 221.6,38 199,29.5 199,19 199,8.5 221.6,0 249.5,0 277.4,0 300,8.5 300,19 Z"
         id="path4464"
         inkscape:connector-curvature="0" />
      <path
         d="M 112,216 96,178 64,88 C 64,88 55,80 60,53 65,26 76,29 76,29"
         id="path4466"
         ill="none"
         inkscape:connector-curvature="0"
         style="stroke:#000000;stroke-width:20" />
    </symbol>
    <inkscape:perspective
       id="perspective4471"
       inkscape:persp3d-origin="372.04724 : 350.78739 : 1"
       inkscape:vp_x="0 : 526.18109 : 1"
       inkscape:vp_y="0 : 1000 : 0"
       inkscape:vp_z="744.09448 : 526.18109 : 1"
       sodipodi:type="inkscape:persp3d" />
    <inkscape:perspective
       id="perspective4668"
       inkscape:persp3d-origin="6 : 4 : 1"
       inkscape:vp_x="0 : 6 : 1"
       inkscape:vp_y="0 : 1000 : 0"
       inkscape:vp_z="12 : 6 : 1"
       sodipodi:type="inkscape:persp3d" />
    <inkscape:perspective
       id="perspective4904"
       inkscape:persp3d-origin="16 : 10.666667 : 1"
       inkscape:vp_x="0 : 16 : 1"
       inkscape:vp_y="0 : 1000 : 0"
       inkscape:vp_z="32 : 16 : 1"
       sodipodi:type="inkscape:persp3d" />
    <marker
       id="Arrow2Lend"
       inkscape:stockid="Arrow2Lend"
       orient="auto"
       refX="0"
       refY="0"
       style="overflow:visible">
      <path
         d="M 8.7185878,4.0337352 -2.2072895,0.01601326 8.7185884,-4.0017078 c -1.7454984,2.3720609 -1.7354408,5.6174519 -6e-7,8.035443 z"
         id="path4137"
         style="font-size:12px;fill-rule:evenodd;stroke-width:0.625;stroke-linejoin:round"
         transform="matrix(-1.1,0,0,-1.1,-1.1,0)"
         inkscape:connector-curvature="0" />
    </marker>
    <marker
       id="Arrow1Mend"
       inkscape:stockid="Arrow1Mend"
       orient="auto"
       refX="0"
       refY="0"
       style="overflow:visible">
      <path
         d="M 0,0 5,-5 -12.5,0 5,5 0,0 Z"
         id="path4125"
         style="fill-rule:evenodd;stroke:#000000;stroke-width:1pt;marker-start:none"
         transform="matrix(-0.4,0,0,-0.4,-4,0)"
         inkscape:connector-curvature="0" />
    </marker>
    <marker
       id="TriangleOutL"
       inkscape:stockid="TriangleOutL"
       orient="auto"
       refX="0"
       refY="0"
       style="overflow:visible">
      <path
         d="m 5.77,0 -8.65,5 0,-10 8.65,5 z"
         id="path4214"
         style="fill-rule:evenodd;stroke:#000000;stroke-width:1pt;marker-start:none"
         transform="scale(0.8,0.8)"
         inkscape:connector-curvature="0" />
    </marker>
    <marker
       id="Arrow1Lend"
       inkscape:stockid="Arrow1Lend"
       orient="auto"
       refX="0"
       refY="0"
       style="overflow:visible">
      <path
         d="M 0,0 5,-5 -12.5,0 5,5 0,0 Z"
         id="path4119"
         style="fill-rule:evenodd;stroke:#000000;stroke-width:1pt;marker-start:none"
         transform="matrix(-0.8,0,0,-0.8,-10,0)"
         inkscape:connector-curvature="0" />
    </marker>
    <marker
       id="Tail"
       inkscape:stockid="Tail"
       orient="auto"
       refX="0"
       refY="0"
       style="overflow:visible">
      <g
         id="g4152"
         transform="scale(-1.2,-1.2)">
        <path
           d="M -3.8048674,-3.9585227 0.54352094,0"
           id="path4154"
           style="fill:none;fill-rule:evenodd;stroke:#000000;stroke-width:0.80000001;stroke-linecap:round;marker-start:none;marker-end:none"
           inkscape:connector-curvature="0" />
        <path
           d="M -1.2866832,-3.9585227 3.0617053,0"
           id="path4156"
           style="fill:none;fill-rule:evenodd;stroke:#000000;stroke-width:0.80000001;stroke-linecap:round;marker-start:none;marker-end:none"
           inkscape:connector-curvature="0" />
        <path
           d="M 1.3053582,-3.9585227 5.6537466,0"
           id="path4158"
           style="fill:none;fill-rule:evenodd;stroke:#000000;stroke-width:0.80000001;stroke-linecap:round;marker-start:none;marker-end:none"
           inkscape:connector-curvature="0" />
        <path
           d="M -3.8048674,4.1775838 0.54352094,0.21974226"
           id="path4160"
           style="fill:none;fill-rule:evenodd;stroke:#000000;stroke-width:0.80000001;stroke-linecap:round;marker-start:none;marker-end:none"
           inkscape:connector-curvature="0" />
        <path
           d="M -1.2866832,4.1775838 3.0617053,0.21974226"
           id="path4162"
           style="fill:none;fill-rule:evenodd;stroke:#000000;stroke-width:0.80000001;stroke-linecap:round;marker-start:none;marker-end:none"
           inkscape:connector-curvature="0" />
        <path
           d="M 1.3053582,4.1775838 5.6537466,0.21974226"
           id="path4164"
           style="fill:none;fill-rule:evenodd;stroke:#000000;stroke-width:0.80000001;stroke-linecap:round;marker-start:none;marker-end:none"
           inkscape:connector-curvature="0" />
      </g>
    </marker>
    <marker
       id="Arrow1Sstart"
       inkscape:stockid="Arrow1Sstart"
       orient="auto"
       refX="0"
       refY="0"
       style="overflow:visible">
      <path
         d="M 0,0 5,-5 -12.5,0 5,5 0,0 Z"
         id="path4128"
         style="fill-rule:evenodd;stroke:#000000;stroke-width:1pt;marker-start:none"
         transform="matrix(0.2,0,0,0.2,1.2,0)"
         inkscape:connector-curvature="0" />
    </marker>
    <marker
       id="Arrow1Send"
       inkscape:stockid="Arrow1Send"
       orient="auto"
       refX="0"
       refY="0"
       style="overflow:visible">
      <path
         d="M 0,0 5,-5 -12.5,0 5,5 0,0 Z"
         id="path4131"
         style="fill-rule:evenodd;stroke:#000000;stroke-width:1pt;marker-start:none"
         transform="matrix(-0.2,0,0,-0.2,-1.2,0)"
         inkscape:connector-curvature="0" />
    </marker>
    <marker
       id="SemiCircleOut"
       inkscape:stockid="SemiCircleOut"
       orient="auto"
       refX="0"
       refY="0"
       style="overflow:visible">
      <path
         d="m -2.5,-0.80913858 c 0,2.75999998 -2.24,4.99999998 -5,4.99999998 l 0,-10 c 2.76,0 5,2.24 5,5.00000002 z"
         id="path4235"
         style="fill-rule:evenodd;stroke:#000000;stroke-width:1pt;marker-start:none;marker-end:none"
         transform="matrix(0.6,0,0,0.6,4.2752958,0.4580676)"
         inkscape:connector-curvature="0" />
    </marker>
    <marker
       id="Arrow2Send"
       inkscape:stockid="Arrow2Send"
       orient="auto"
       refX="0"
       refY="0"
       style="overflow:visible">
      <path
         d="M 8.7185878,4.0337352 -2.2072895,0.01601326 8.7185884,-4.0017078 c -1.7454984,2.3720609 -1.7354408,5.6174519 -6e-7,8.035443 z"
         id="path4149"
         style="font-size:12px;fill-rule:evenodd;stroke-width:0.625;stroke-linejoin:round"
         transform="matrix(-0.3,0,0,-0.3,0.69,0)"
         inkscape:connector-curvature="0" />
    </marker>
    <marker
       id="TriangleOutS"
       inkscape:stockid="TriangleOutS"
       orient="auto"
       refX="0"
       refY="0"
       style="overflow:visible">
      <path
         d="m 5.77,0 -8.65,5 0,-10 8.65,5 z"
         id="path4220"
         style="fill-rule:evenodd;stroke:#000000;stroke-width:1pt;marker-start:none"
         transform="scale(0.2,0.2)"
         inkscape:connector-curvature="0" />
    </marker>
    <marker
       id="CurveIn"
       inkscape:stockid="CurveIn"
       orient="auto"
       refX="0"
       refY="0"
       style="overflow:visible">
      <path
         d="m 4.625493,-5.0456926 c -2.76,0 -5.00000002,2.24 -5.00000002,5.00000002 0,2.75999998 2.24000002,4.99999998 5.00000002,4.99999998"
         id="path4238"
         style="fill:none;fill-rule:evenodd;stroke:#000000;stroke-width:1pt;marker-start:none;marker-end:none"
         transform="scale(0.6,0.6)"
         inkscape:connector-curvature="0" />
    </marker>
    <marker
       id="InfiniteLineStart"
       inkscape:stockid="InfiniteLineStart"
       orient="auto"
       refX="0"
       refY="0"
       style="overflow:visible">
      <g
         id="g4298"
         transform="translate(-13,0)">
        <circle
           cx="3"
           cy="0"
           id="circle4300"
           r="0.80000001" />
        <circle
           cx="6.5"
           cy="0"
           id="circle4302"
           r="0.80000001" />
        <circle
           cx="10"
           cy="0"
           id="circle4304"
           r="0.80000001" />
      </g>
    </marker>
    <marker
       id="StopS"
       inkscape:stockid="StopS"
       orient="auto"
       refX="0"
       refY="0"
       style="overflow:visible">
      <path
         d="M 0,5.65 0,-5.65"
         id="path4229"
         style="fill:none;fill-opacity:0.75;fill-rule:evenodd;stroke:#000000;stroke-width:1pt"
         transform="scale(0.2,0.2)"
         inkscape:connector-curvature="0" />
    </marker>
    <marker
       id="Arrow2Sstart"
       inkscape:stockid="Arrow2Sstart"
       orient="auto"
       refX="0"
       refY="0"
       style="overflow:visible">
      <path
         d="M 8.7185878,4.0337352 -2.2072895,0.01601326 8.7185884,-4.0017078 c -1.7454984,2.3720609 -1.7354408,5.6174519 -6e-7,8.035443 z"
         id="path4146"
         style="font-size:12px;fill-rule:evenodd;stroke-width:0.625;stroke-linejoin:round"
         transform="matrix(0.3,0,0,0.3,-0.69,0)"
         inkscape:connector-curvature="0" />
    </marker>
    <marker
       id="DiamondS"
       inkscape:stockid="DiamondS"
       orient="auto"
       refX="0"
       refY="0"
       style="overflow:visible">
      <path
         d="M 0,-7.0710768 -7.0710894,0 0,7.0710589 7.0710462,0 0,-7.0710768 Z"
         id="path4202"
         style="fill-rule:evenodd;stroke:#000000;stroke-width:1pt;marker-start:none"
         transform="scale(0.2,0.2)"
         inkscape:connector-curvature="0" />
    </marker>
    <marker
       id="RazorWire"
       inkscape:stockid="RazorWire"
       orient="auto"
       refX="0"
       refY="0">
       style=&quot;overflow:visible&quot;&gt;
      <path
   d="m 0.02272727,-0.74009011 0,1.4375 -7.78124997,2.31250001 18.4374997,0 -7.1874997,-2.31250001 0,-1.4375 7.2499997,-2.15624999 -18.4687497,0 7.74999997,2.15624999 z"
   id="path4286"
   style="fill:#808080;fill-opacity:1;fill-rule:evenodd;stroke:#000000;stroke-width:0.1pt"
   transform="scale(0.8,0.8)"
   inkscape:connector-curvature="0" />
</marker>
    <inkscape:perspective
       id="perspective5233"
       inkscape:persp3d-origin="16 : 10.666667 : 1"
       inkscape:vp_x="0 : 16 : 1"
       inkscape:vp_y="0 : 1000 : 0"
       inkscape:vp_z="32 : 16 : 1"
       sodipodi:type="inkscape:persp3d" />
    <inkscape:perspective
       id="perspective5412"
       inkscape:persp3d-origin="250 : 166.66667 : 1"
       inkscape:vp_x="0 : 250 : 1"
       inkscape:vp_y="0 : 1000 : 0"
       inkscape:vp_z="500 : 250 : 1"
       sodipodi:type="inkscape:persp3d" />
    <inkscape:perspective
       id="perspective8631"
       inkscape:persp3d-origin="0.5 : 0.33333333 : 1"
       inkscape:vp_x="0 : 0.5 : 1"
       inkscape:vp_y="0 : 1000 : 0"
       inkscape:vp_z="1 : 0.5 : 1"
       sodipodi:type="inkscape:persp3d" />
  </defs>
  <g
     id="layer3"
     inkscape:label="Layout"
     style="display:none;stroke:#757575;stroke-opacity:1"
     transform="matrix(48.14969,0,0,48.14969,-536.27327,44.693248)">
    <rect
       height="10"
       id="rect4134"
       style="display:inline;fill:none;stroke:#757575;stroke-width:0.1;stroke-miterlimit:4;stroke-dasharray:none;stroke-opacity:1"
       width="10"
       x="1"
       y="1" />
    <rect
       height="8"
       id="rect4136"
       style="display:inline;fill:none;stroke:#757575;stroke-width:0.1;stroke-miterlimit:4;stroke-dasharray:none;stroke-opacity:1"
       width="8"
       x="2"
       y="2" />
  </g>
  <g
     id="g4738"
     transform="matrix(0.20554798,0,0,0.20554796,0.7776223,-1.6818662)">
    <path
       inkscape:connector-curvature="0"
       id="path2958-8"
       d="m 69.910849,26.034711 c -4.360829,0.455733 -9.176699,3.214028 -8.296875,8.392578 0.852858,4.688734 0.271393,9.216875 -0.476562,13.785157 -0.515409,2.119883 4.29039,4.651269 0.412109,3.751953 -2.382569,-0.265039 -4.169265,2.740933 -5.09375,3.509766 -3.000396,-3.967297 -10.650513,-3.905745 -13.498047,-0.13086 -0.269809,0.213306 -3.434006,-4.245145 -6.322266,-3.238281 -1.297527,0.05335 2.114169,-4.236895 0.757813,-6.416016 -0.560731,-5.916042 2.193136,-13.921397 -2.492187,-18.367187 -3.9181,-2.103176 -9.069191,0.0092 -11.429688,2.517578 C 20.667389,24.987155 11.60383,25.42548 10.641318,30.472211 9.4298696,25.456347 2.5414206,26.545004 -1.2805574,27.835493 c -3.009286,7.214436 -1.594921,15.919406 -1.285156,23.728515 1.284726,2.770134 7.102947,1.040261 6.335937,5.675781 0.146028,13.378048 -1.141075,26.943402 0.498047,40.316409 3.754315,3.601022 10.4841274,1.66197 15.5605454,2.30088 7.223651,-0.57573 15.007992,0.809252 21.867189,-0.94151 4.402108,-4.170421 1.578013,-11.074916 2.257813,-15.837888 3.631314,0.541563 8.290994,-1.922716 11.4375,0.148438 0.191749,5.757113 -2.334197,18.074902 7.230469,16.54297 10.694188,-0.8954 22.181652,1.927212 32.371089,-1.60547 1.75282,-14.332727 0.39606,-28.972713 0.78321,-43.375 6.801584,0.663059 7.399524,-7.571944 6.576174,-12.410157 -0.34459,-5.148353 2.07004,-14.697268 -5.326174,-15.730468 -3.10176,-0.380886 -7.05163,0.579013 -8.527346,2.632812 -3.246303,-4.497769 -10.854024,-2.653339 -13.451172,0.002 -0.952947,-1.929959 -2.905594,-3.43413 -5.136719,-3.248047 z m -2.078125,28.669922 c 0.951997,1.02756 0.192289,0.197326 0,0 z"
       style="font-style:normal;font-weight:normal;font-size:20.57779694px;font-family:'Bitstream Vera Sans';fill:#ffffff;fill-opacity:1;stroke:#ffffff;stroke-width:1.20922267;stroke-linecap:round;stroke-linejoin:round;stroke-miterlimit:4;stroke-dasharray:none;stroke-opacity:1" />
    <path
       inkscape:connector-curvature="0"
       style="font-style:normal;font-weight:normal;font-size:20.57779694px;font-family:'Bitstream Vera Sans';fill:#b26609;fill-opacity:1;stroke:#b26609;stroke-width:1.20922267;stroke-linecap:round;stroke-linejoin:round;stroke-miterlimit:4;stroke-dasharray:none;stroke-opacity:1"
       sodipodi:nodetypes="ccccccccccccccccccccccccccccccccc"
       id="path2958"
       d="m 0.70479201,50.591063 0.0712967,-19.488227 6.48157579,0 0,6.481643 6.4815745,0 0,-6.481643 6.481576,0 0,6.481643 6.481577,0 0,-6.481643 6.481577,0 0,19.444992 -6.481577,0 0,12.962694 6.481577,0 0,-6.481055 6.481579,0 0,6.481055 6.48157,0 0,-6.481055 6.48158,0 0,6.481055 0,6.481639 0,6.481643 0.773759,0 0,2.4509 -13.736909,0 0,16.994024 -32.4078835,0 0,-45.3709 -6.55319738,0.05834 3.2252e-4,-0.0149 1.58e-6,-4e-6 z" />
    <path
       inkscape:connector-curvature="0"
       style="font-style:normal;font-weight:normal;font-size:20.57779694px;font-family:'Bitstream Vera Sans';fill:#b26609;fill-opacity:1;stroke:#b26609;stroke-width:1.20922267;stroke-linecap:round;stroke-linejoin:round;stroke-miterlimit:4;stroke-dasharray:none;stroke-opacity:1"
       sodipodi:nodetypes="ccccccccccccccccccccccccccccccccc"
       id="path2958-0"
       d="m 98.035182,50.591063 -0.07063,-19.488227 -6.472693,0 0,6.481643 -6.472634,0 0,-6.481643 -6.472629,0 0,6.481643 -6.472634,0 0,-6.481643 -6.472634,0 0,19.444992 6.472634,0 0,12.963277 -6.472634,0 0,-6.481638 -6.472629,0 0,6.481638 -6.472629,0 0,-6.481638 -6.472634,0 0,6.481638 0,6.481056 0,6.481643 3.248038,0 0,2.4509 9.697225,0 0,16.994024 32.36316,0 0,-45.3709 6.544187,0.05834 -8.03e-4,-0.0149 -4.1e-5,-4e-6 z" />
  </g>
</svg>
