/* XPM */
static char * cemetery_xpm[] = {
"14 16 8 1",
" 	c None",
".	c #8E8E8E",
"+	c #8D8D8D",
"@	c #404040",
"#	c #8E8D8E",
"$	c #8C8C8C",
"%	c #8F8F8F",
"&	c #898989",
"              ",
"              ",
"              ",
"    .++.      ",
"   .++++++    ",
"  +.++++++.   ",
"  ++++++++.   ",
"  .+@@+++++   ",
"  .+++@@+++   ",
"  #+@@++++.   ",
"  #.++@@+++   ",
"   .+++++++   ",
"     $%....   ",
"       $%.&   ",
"              ",
"              "};
