<?xml version="1.0" encoding="UTF-8" standalone="no"?>
<!-- Uploaded to: SVG Repo, www.svgrepo.com, Generator: SVG Repo Mixer Tools -->

<svg
   width="800px"
   height="800px"
   viewBox="0 0 960 960"
   version="1.1"
   xml:space="preserve"
   id="svg25"
   sodipodi:docname="charging_station.svg"
   inkscape:version="1.4 (e7c3feb100, 2024-10-09)"
   xmlns:inkscape="http://www.inkscape.org/namespaces/inkscape"
   xmlns:sodipodi="http://sodipodi.sourceforge.net/DTD/sodipodi-0.dtd"
   xmlns="http://www.w3.org/2000/svg"
   xmlns:svg="http://www.w3.org/2000/svg"
   xmlns:rdf="http://www.w3.org/1999/02/22-rdf-syntax-ns#"
   xmlns:cc="http://creativecommons.org/ns#"
   xmlns:dc="http://purl.org/dc/elements/1.1/"><defs
   id="defs25" /><sodipodi:namedview
   id="namedview25"
   pagecolor="#ffffff"
   bordercolor="#000000"
   borderopacity="0.25"
   inkscape:showpageshadow="2"
   inkscape:pageopacity="0.0"
   inkscape:pagecheckerboard="0"
   inkscape:deskcolor="#d1d1d1"
   inkscape:zoom="1.08875"
   inkscape:cx="399.54076"
   inkscape:cy="400"
   inkscape:window-width="1918"
   inkscape:window-height="1054"
   inkscape:window-x="0"
   inkscape:window-y="24"
   inkscape:window-maximized="1"
   inkscape:current-layer="outline" />

<style
   type="text/css"
   id="style1">
	.st0{display:none;}
	.st1{display:inline;opacity:0.93;}
	.st2{display:inline;}
	.st3{fill:none;stroke:#000000;stroke-width:15;stroke-linecap:round;stroke-linejoin:round;stroke-miterlimit:10;}
	.st4{display:inline;fill:none;stroke:#000000;stroke-width:15;stroke-linecap:round;stroke-linejoin:round;stroke-miterlimit:10;}
	.st5{fill:#222222;}
	.st6{fill:#DDEDE7;}
	.st7{fill:#1A1D3F;}
	.st8{fill:#ED644E;}
	.st9{fill:#E9B44D;}
	.st10{fill:#3DC5A1;}
	.st11{fill:#494EDF;}
</style>
<metadata
   id="metadata4">
  <rdf:RDF>
     <cc:Work
   rdf:about="">
       <dc:title>Charging Station</dc:title>
       <dc:source>https://www.svgrepo.com/svg/414984/charging-station-ev-2</dc:source>
       <cc:license
   rdf:resource="http://creativecommons.org/publicdomain/zero/1.0/" />
     </cc:Work>
     <cc:License
   rdf:about="http://creativecommons.org/publicdomain/zero/1.0/">
        <cc:permits
   rdf:resource="http://creativecommons.org/ns#Reproduction" />
        <cc:permits
   rdf:resource="http://creativecommons.org/ns#Distribution" />
        <cc:permits
   rdf:resource="http://creativecommons.org/ns#DerivativeWorks" />
     </cc:License>
  </rdf:RDF>
</metadata>

<g
   class="st0"
   id="guide" />

<g
   class="st0"
   id="sketch" />

<g
   class="st0"
   id="stroke">

<path
   class="st4"
   d="M586.2,835.2c0-53.4,1.7-76.9-28.6-92.9c-19-10-41.5-9.8-63-9.4c-76.9,1.6-153.9-0.2-230.8,1.4   c-32.3,0.7-66.8,2-93.1,20.7s-26.1,48.6-24.8,83.3C286.1,839.4,446,834.3,586.2,835.2z"
   id="path1" />

<path
   class="st4"
   d="M203.4,740.6c1.3-155.4,2.6-310.9,3.9-466.3c0.3-35.4,1.4-73.3,21.9-102.1c30.9-43.2,91.7-48.8,144.8-50.5   c48.9-1.5,105.4,0.3,135.7,38.7c22.1,28,22.6,66.9,22.1,102.6c-2.3,156.8-4.6,313.7-6.9,470.5"
   id="path2" />

<path
   class="st4"
   d="M282.4,315.9c0.9-39.4,3.4-82.8,30.8-111.2c16-16.5,39.4-25.6,62.3-24.1c22.9,1.5,45,13.5,58.6,32   c17.1,23.1,20.4,53.2,22.4,81.9c5.2,73.8,5.8,148,1.8,221.9c-2.1,37.9-7.2,79.6-35.6,104.7c-29,25.7-76.5,24.2-107.2,0.5   c-38.3-29.5-39.4-76.9-38.6-121.6C278.2,424.2,281,376.8,282.4,315.9z"
   id="path3" />

<path
   class="st4"
   d="M323.9,426.2c12.9-0.2,22-0.9,38.8-0.3c-7.7,17.2-16.1,41.2-26.3,66.8c-2.2,5.7,5,10.2,9.2,5.7   c29.1-31.9,49.1-55.2,81.2-93.4c3-3.6,0.4-9.1-4.3-9c-18.2,0.2-25.3,0.9-43.5-0.1c-0.9,0,5.7-36.4,10.6-62.6c1.1-5.9-6.6-9-10-4.1   c-17.1,25.5-44.7,66.6-60.2,88.3C316.7,421.1,319.4,426.2,323.9,426.2z"
   id="path4" />

<path
   class="st4"
   d="M763.1,309.8c0,104.9,0,125,0.1,232.5c0,28.5-0.1,57.7-10.1,84.4c-10,26.7-32.2,45.7-60.5,49.4   c-34,4.5-66-16.9-79.5-48.5s-12.6-67.2-11.5-101.5c1.6-49.6,2.1-59.2,3.7-108.8c0.9-28.7,4.9-61.8-17.6-79.7   c-16.9-13.4-31.2-17.1-56.7-16.8"
   id="path5" />

<path
   class="st4"
   d="M812.5,216c3.8,21.2,3,54.7-9.6,72.2c-9.2,12.7-24.3,21-40,21.6s-31.5-6.7-41-19.2   c-13.2-17.3-13.1-50.9-12.5-72.7C748.5,215.9,778.3,215.7,812.5,216z"
   id="path6" />

<path
   class="st4"
   d="M738.3,216.7c-0.3-15.2-0.6-30.4-0.9-45.6"
   id="path7" />

<path
   class="st4"
   d="M784.4,215.9c-0.4-15.9-0.8-31.8-1.1-47.6"
   id="path8" />

</g>

<g
   id="outline">

<path
   class="st5"
   d="M515.5,155.8c-31.1-39.5-86.6-43.3-141.8-41.6c-25.7,0.8-55.7,2.6-82.4,9.9c-30.9,8.4-53.2,22.7-68.2,43.7   c-21,29.4-23,65.6-23.3,106.4l-3.8,460.7c-10.4,3.2-20.4,7.7-29.5,14.2c-30.6,21.7-29.2,57.8-28,89.7c0.2,4,3.4,7.2,7.4,7.2   c11.9,0.1,24,0.1,36.2,0.1c59.8,0,122.8-0.9,184.1-1.7c73.7-1,150-2.1,220-1.6c0,0,0,0,0.1,0c2,0,3.9-0.8,5.3-2.2   c1.4-1.4,2.2-3.3,2.2-5.3c0-2.9,0-5.8,0-8.5c0-47.6,0.1-73.8-32.6-91c-9.1-4.8-18.8-7.4-28.7-8.8l5.8-398.7   c20.1,0.5,31.2,4.5,44.7,15.1c17.2,13.7,16.2,39.6,15.1,64.8c-0.1,3-0.2,5.9-0.3,8.8c-0.8,25.1-1.3,40.2-1.8,54.9   c-0.5,14.5-1,29.4-1.8,53.9c-1,33.3-2.2,71,12.1,104.7c13.9,32.7,44.8,53.7,77.4,53.7c3.3,0,6.6-0.2,10-0.7   c30.4-4,55.3-24.3,66.5-54.2c10.6-28.3,10.6-59.5,10.6-87c0-48.1,0-78.7,0-107.2c0-33.8,0-64.8,0-118.5   c15.1-2.6,29.4-11.3,38.4-23.9c13.6-18.9,15.2-53.7,10.9-77.9c-0.6-3.6-3.7-6.2-7.3-6.2c-7.1-0.1-14-0.1-20.8-0.1l-0.9-40.3   c-0.1-4.1-3.5-7.4-7.7-7.3c-4.1,0.1-7.4,3.5-7.3,7.7l0.9,40c-10.2,0.1-20.4,0.2-31.1,0.5l-0.7-38c-0.1-4.1-3.5-7.4-7.6-7.4   c-4.1,0.1-7.4,3.5-7.4,7.6l0.7,38.2c-6.9,0.3-14,0.6-21.5,0.9c-3.9,0.2-7,3.4-7.1,7.3c-0.8,28.1,0.2,59.3,14,77.4   c9.4,12.3,24,20.3,39.5,21.9c0,53.4,0,84.3,0,118c0,28.5,0,59.1,0,107.2c0,27.5,0,56-9.7,81.7c-9.3,24.6-29.6,41.3-54.4,44.6   c-29.5,3.9-58.9-14.2-71.6-44c-13-30.6-11.9-66.6-10.9-98.3c0.8-24.5,1.3-39.4,1.8-53.9c0.5-14.7,1.1-29.8,1.8-54.9   c0.1-2.8,0.2-5.7,0.3-8.6c1.1-27.5,2.4-58.7-20.8-77.1c-16.1-12.8-30.3-17.8-53.8-18.4l0.7-50C539.8,223.2,538.4,184.9,515.5,155.8   z M214.7,274.3c0.3-38.2,2.1-71.9,20.5-97.8c29-40.5,86.9-45.7,138.9-47.3c51.4-1.6,102.6,1.6,129.6,35.8   c19.8,25.2,21,60.6,20.5,97.8l-0.8,57.8c0,0,0,0,0,0c0,0,0,0,0,0l-5.9,404.8c-8-0.3-15.8-0.2-23,0c-38.4,0.8-77.4,0.8-115.2,0.7   c-37.9,0-77-0.1-115.6,0.7c-16.3,0.3-34.7,0.7-52.8,4.2L214.7,274.3z M554.1,749c24.6,13,24.6,30.6,24.6,77.7c0,0.3,0,0.6,0,1   c-68.1-0.4-141.6,0.7-212.7,1.7c-71.2,1-144.7,2-212.8,1.7c-0.9-32.3,1.1-54.9,21.9-69.7c25.4-18,60.6-18.8,88.9-19.3   c38.4-0.8,77.5-0.8,115.2-0.7c37.9,0,77,0.1,115.5-0.7c9.3-0.2,19.2-0.4,29,0.5c0.2,0,0.5,0.1,0.7,0.1   C534.9,742,545.1,744.3,554.1,749z M728,286c-10.8-14.2-11.5-43.5-11.1-61c7.5-0.3,14.6-0.6,21.4-0.8c0,0,0,0,0,0c0,0,0.1,0,0.1,0   c0,0,0.1,0,0.1,0c23.6-0.8,44.6-0.9,67.5-0.8c2.5,20.8,0.3,47.2-9.2,60.4c-7.9,10.9-20.9,18-34.1,18.4   C749.3,302.7,736,296.5,728,286z M310.9,627.6c17.2,13.2,38.4,19.8,59.1,19.8c21.3,0,42.1-6.9,57.6-20.7   c29.7-26.3,35.8-68.4,38.1-109.9c4-74,3.4-148.9-1.8-222.8c-2.1-30-5.7-61.3-23.8-85.8c-15-20.3-39-33.4-64.2-35   c-25.2-1.7-50.7,8.2-68.2,26.4c-28.6,29.6-31.9,73.6-32.9,116.2c-0.6,26.3-1.5,49.7-2.4,74.6c-1.2,32.6-2.4,66.4-3.2,109.6   C268.5,549.6,271,596.8,310.9,627.6z M284.4,500.1c0.8-43,2-76.7,3.2-109.3c0.9-24.9,1.8-48.4,2.4-74.8c0,0,0,0,0,0   c1-41.3,3.9-80.4,28.7-106.1c13.4-13.9,32.6-21.9,51.9-21.9c1.5,0,3,0,4.5,0.1c20.8,1.4,40.7,12.2,53.1,29   c15.7,21.3,19,50.2,20.9,77.9c5.2,73.3,5.8,147.6,1.8,220.9c-2.1,38.3-7.6,76.9-33.1,99.5c-12.3,10.9-29.1,16.9-47.4,16.9   c-0.2,0-0.4,0-0.5,0c-18.2-0.1-35.9-6-49.7-16.7C285.6,589.1,283.5,547.6,284.4,500.1z M324,433.7c4.1,0,7.8-0.2,11.5-0.3   c5.1-0.1,10.1-0.3,15.9-0.3c-3.6,8.8-7.4,18.8-11.3,29.1c-3.4,8.9-6.9,18.1-10.7,27.6c-2.4,5.9-0.2,12.4,5.2,15.8   c2.2,1.4,4.6,2,6.9,2c3.5,0,7-1.5,9.5-4.3c29.2-32,49.5-55.7,81.4-93.7c3.3-3.9,4-9.3,1.8-13.9c-2.2-4.6-6.8-7.5-11.9-7.4   c-4.8,0.1-8.8,0.2-12.5,0.2c-7.9,0.2-14,0.3-22.6,0c1.2-7.4,3.8-22.7,9.7-54.1c1.1-6.1-2.1-12.1-7.9-14.4   c-5.8-2.4-12.2-0.4-15.7,4.8c-15.7,23.4-44.4,66-60.1,88.1c-2.9,4-3.2,9.2-0.9,13.6C314.6,431,319.1,433.7,324,433.7z M380.4,341.5   c-2.3,12.4-4.2,22.9-5.6,31.2c-1.2,6.6-2,11.9-2.6,15.6c-1,6.8-1.4,9.4,0.8,12.3c1.3,1.7,3.4,2.8,5.5,2.9   c13.7,0.7,21.2,0.6,31.7,0.3c2.5-0.1,5.1-0.1,8-0.2c-27.5,32.7-46.4,54.8-70.8,81.8c2.3-6,4.6-11.9,6.8-17.7   c5.5-14.5,10.7-28.1,15.4-38.7c1-2.3,0.8-4.9-0.5-7c-1.3-2.1-3.6-3.4-6.1-3.5c-4.6-0.2-8.7-0.2-12.4-0.2c-5.8,0-10.7,0.1-15.5,0.3   c-2.3,0.1-4.8,0.1-7.2,0.2C342.1,398.2,364.9,364.5,380.4,341.5z"
   id="path9"
   style="fill:#ff2900;fill-opacity:1" />

</g>

<g
   class="st0"
   id="flat">

<g
   class="st2"
   id="g17">

<path
   class="st10"
   d="M709.5,217.9c-0.6,21.7-0.7,55.4,12.5,72.7c9.5,12.5,25.3,19.8,41,19.2c15.7-0.6,30.8-8.8,40-21.6    c12.6-17.5,13.4-51,9.6-72.2C778.3,215.7,748.5,215.9,709.5,217.9z"
   id="path10" />

<path
   class="st10"
   d="M373.9,121.8c-53,1.7-113.9,7.3-144.8,50.5c-20.6,28.8-21.7,66.7-21.9,102.1c-1.3,155.4-2.6,310.9-3.9,466.3    l321.5-7c2.3-156.8,4.6-313.7,6.9-470.5c0.5-35.7,0-74.5-22.1-102.6C479.4,122.1,422.8,120.2,373.9,121.8z M458.3,516.3    c-2.1,37.9-7.2,79.6-35.6,104.7c-29,25.7-76.5,24.2-107.2,0.5c-38.3-29.5-39.4-76.9-38.6-121.6c1.4-75.8,4.1-123.2,5.6-184.1    c0.9-39.4,3.4-82.8,30.8-111.2c16-16.5,39.4-25.6,62.3-24.1c22.9,1.5,45,13.5,58.6,32c17.1,23.1,20.4,53.2,22.4,81.9    C461.8,368.3,462.4,442.5,458.3,516.3z"
   id="path11" />

<path
   class="st9"
   d="M422.4,396c-18.2,0.2-25.3,0.9-43.5-0.1c-0.9,0,5.7-36.4,10.6-62.6c1.1-5.9-6.6-9-10-4.1    c-17.1,25.5-44.7,66.6-60.2,88.3c-2.6,3.7,0,8.7,4.5,8.7c12.9-0.2,22-0.9,38.8-0.3c-7.7,17.2-16.1,41.2-26.3,66.8    c-2.2,5.7,5,10.2,9.2,5.7c29.1-31.9,49.1-55.2,81.2-93.4C429.7,401.4,427.1,395.9,422.4,396z"
   id="path12" />

<path
   class="st7"
   d="M610.9,472.3c0.5-14.7,1.1-29.8,1.8-54.9c0.1-2.8,0.2-5.7,0.3-8.6c1.1-27.5,2.4-58.7-20.8-77.1    c-17.7-14.1-33.3-18.8-61.5-18.4c-4.1,0-7.5,3.4-7.4,7.6c0,4.1,3.4,7.4,7.5,7.4c0,0,0.1,0,0.1,0c24.8-0.3,37,3.3,52,15.2    c17.2,13.7,16.2,39.6,15.1,64.8c-0.1,3-0.2,5.9-0.3,8.8c-0.8,25.1-1.3,40.2-1.8,54.9c-0.5,14.5-1,29.4-1.8,53.9    c-1,33.3-2.2,71,12.1,104.7c13.9,32.7,44.8,53.7,77.4,53.7c3.3,0,6.6-0.2,10-0.7c30.4-4,55.3-24.3,66.5-54.2    c10.6-28.3,10.6-59.5,10.6-87c0-48.1,0-78.7,0-107.2c0-35.2,0-67.3,0-125.2c0-4.1-3.4-7.5-7.5-7.5c-4.1,0-7.5,3.4-7.5,7.5    c0,57.9,0,90,0,125.2c0,28.5,0,59.1,0,107.2c0,27.5,0,56-9.7,81.7c-9.3,24.6-29.6,41.3-54.4,44.6c-29.5,3.9-58.9-14.2-71.6-44    c-13-30.6-11.9-66.6-10.9-98.3C609.8,501.7,610.3,486.8,610.9,472.3z"
   id="path13" />

<path
   class="st7"
   d="M738.3,224.2c0,0,0.1,0,0.1,0c4.1-0.1,7.4-3.5,7.4-7.6l-0.9-45.6c-0.1-4.1-3.5-7.4-7.6-7.4    c-4.1,0.1-7.4,3.5-7.4,7.6l0.9,45.6C730.9,220.9,734.2,224.2,738.3,224.2z"
   id="path14" />

<path
   class="st7"
   d="M784.4,223.4c0.1,0,0.1,0,0.2,0c4.1-0.1,7.4-3.5,7.3-7.7l-1.1-47.6c-0.1-4.1-3.5-7.4-7.7-7.3    c-4.1,0.1-7.4,3.5-7.3,7.7l1.1,47.6C777,220.1,780.4,223.4,784.4,223.4z"
   id="path15" />

<path
   class="st7"
   d="M138.4,838.8c0.2,4,3.4,7.2,7.4,7.2c11.9,0.1,24,0.1,36.2,0.1c59.8,0,122.8-0.9,184.1-1.7    c73.7-1,150-2.1,220-1.6c0,0,0,0,0.1,0c2,0,3.9-0.8,5.3-2.2c1.4-1.4,2.2-3.3,2.2-5.3c0-2.9,0-5.8,0-8.5c0-47.6,0.1-73.8-32.6-91    c-21.2-11.2-46.4-10.6-66.6-10.2c-38.4,0.8-77.4,0.8-115.2,0.7c-37.9,0-77-0.1-115.6,0.7c-30.4,0.6-68.1,1.4-97.3,22.1    C135.9,770.8,137.2,806.9,138.4,838.8z M175.1,761.3c25.4-18,60.6-18.8,88.9-19.3c38.4-0.8,77.5-0.8,115.2-0.7    c37.9,0,77,0.1,115.5-0.7c19.5-0.4,41.6-0.9,59.3,8.5c24.6,13,24.6,30.6,24.6,77.7c0,0.3,0,0.6,0,1c-68.1-0.4-141.6,0.7-212.7,1.7    c-71.2,1-144.7,2-212.8,1.7C152.3,798.7,154.3,776.1,175.1,761.3z"
   id="path16" />

<path
   class="st7"
   d="M307.8,199.5c-28.6,29.6-31.9,73.6-32.9,116.2c-0.6,26.3-1.5,49.7-2.4,74.6c-1.2,32.6-2.4,66.4-3.2,109.6    c-0.9,49.7,1.6,96.9,41.5,127.7c17.2,13.2,38.4,19.8,59.1,19.8c21.3,0,42.1-6.9,57.6-20.7c29.7-26.3,35.8-68.4,38.1-109.9    c4-74,3.4-148.9-1.8-222.8c-2.1-30-5.7-61.3-23.8-85.8c-15-20.3-39-33.4-64.2-35C350.9,171.5,325.4,181.3,307.8,199.5z M370.5,188    c1.5,0,3,0,4.5,0.1c20.8,1.4,40.7,12.2,53.1,29c15.7,21.3,19,50.2,20.9,77.9c5.2,73.3,5.8,147.6,1.8,220.9    c-2.1,38.3-7.6,76.9-33.1,99.5c-12.3,10.9-29.1,16.9-47.4,16.9c-0.2,0-0.4,0-0.5,0c-18.2-0.1-35.9-6-49.7-16.7    c-34.5-26.6-36.6-68-35.7-115.6c0.8-43,2-76.7,3.2-109.3c0.9-24.9,1.8-48.4,2.4-74.8c0,0,0,0,0,0c1-41.3,3.9-80.4,28.7-106.1    C332.1,196,351.2,188,370.5,188z"
   id="path17" />

</g>

</g>

<g
   class="st0"
   id="colored_x5F_line">

<g
   class="st2"
   id="g25">

<path
   class="st9"
   d="M763,309.8c15.7-0.6,30.8-8.8,40-21.6c12.6-17.5,13.4-51,9.6-72.2c-34.2-0.3-64,0-103,1.9    c-0.6,21.7-0.7,55.4,12.5,72.7C731.5,303,747.3,310.3,763,309.8z"
   id="path18" />

<path
   class="st9"
   d="M531.7,263.1c0.5-35.7,0-74.5-22.1-102.6c-30.3-38.4-86.8-40.2-135.7-38.7c-53,1.7-113.9,7.3-144.8,50.5    c-20.6,28.8-21.7,66.7-21.9,102.1c-1.3,155.4-2.6,310.9-3.9,466.3l321.5-7C527.1,576.7,529.4,419.9,531.7,263.1z M458.3,516.3    c-2.1,37.9-7.2,79.6-35.6,104.7c-29,25.7-76.5,24.2-107.2,0.5c-38.3-29.5-39.4-76.9-38.6-121.6c1.4-75.8,4.1-123.2,5.6-184.1    c0.9-39.4,3.4-82.8,30.8-111.2c16-16.5,39.4-25.6,62.3-24.1c22.9,1.5,45,13.5,58.6,32c17.1,23.1,20.4,53.2,22.4,81.9    C461.8,368.3,462.4,442.5,458.3,516.3z"
   id="path19" />

<path
   class="st9"
   d="M422.4,396c-18.2,0.2-25.3,0.9-43.5-0.1c-0.9,0,5.7-36.4,10.6-62.6c1.1-5.9-6.6-9-10-4.1    c-17.1,25.5-44.7,66.6-60.2,88.3c-2.6,3.7,0,8.7,4.5,8.7c12.9-0.2,22-0.9,38.8-0.3c-7.7,17.2-16.1,41.2-26.3,66.8    c-2.2,5.7,5,10.2,9.2,5.7c29.1-31.9,49.1-55.2,81.2-93.4C429.7,401.4,427.1,395.9,422.4,396z"
   id="path20" />

<path
   class="st5"
   d="M610.9,472.3c0.5-14.7,1.1-29.8,1.8-54.9c0.1-2.8,0.2-5.7,0.3-8.6c1.1-27.5,2.4-58.7-20.8-77.1    c-17.7-14.1-33.3-18.8-61.5-18.4c-4.1,0-7.5,3.4-7.4,7.6c0,4.1,3.4,7.4,7.5,7.4c0,0,0.1,0,0.1,0c24.8-0.3,37,3.3,52,15.2    c17.2,13.7,16.2,39.6,15.1,64.8c-0.1,3-0.2,5.9-0.3,8.8c-0.8,25.1-1.3,40.2-1.8,54.9c-0.5,14.5-1,29.4-1.8,53.9    c-1,33.3-2.2,71,12.1,104.7c13.9,32.7,44.8,53.7,77.4,53.7c3.3,0,6.6-0.2,10-0.7c30.4-4,55.3-24.3,66.5-54.2    c10.6-28.3,10.6-59.5,10.6-87c0-48.1,0-78.7,0-107.2c0-35.2,0-67.3,0-125.2c0-4.1-3.4-7.5-7.5-7.5c-4.1,0-7.5,3.4-7.5,7.5    c0,57.9,0,90,0,125.2c0,28.5,0,59.1,0,107.2c0,27.5,0,56-9.7,81.7c-9.3,24.6-29.6,41.3-54.4,44.6c-29.5,3.9-58.9-14.2-71.6-44    c-13-30.6-11.9-66.6-10.9-98.3C609.8,501.7,610.3,486.8,610.9,472.3z"
   id="path21" />

<path
   class="st5"
   d="M738.3,224.2c0,0,0.1,0,0.1,0c4.1-0.1,7.4-3.5,7.4-7.6l-0.9-45.6c-0.1-4.1-3.5-7.4-7.6-7.4    c-4.1,0.1-7.4,3.5-7.4,7.6l0.9,45.6C730.9,220.9,734.2,224.2,738.3,224.2z"
   id="path22" />

<path
   class="st5"
   d="M784.4,223.4c0.1,0,0.1,0,0.2,0c4.1-0.1,7.4-3.5,7.3-7.7l-1.1-47.6c-0.1-4.1-3.5-7.4-7.7-7.3    c-4.1,0.1-7.4,3.5-7.3,7.7l1.1,47.6C777,220.1,780.4,223.4,784.4,223.4z"
   id="path23" />

<path
   class="st5"
   d="M138.4,838.8c0.2,4,3.4,7.2,7.4,7.2c11.9,0.1,24,0.1,36.2,0.1c59.8,0,122.8-0.9,184.1-1.7    c73.7-1,150-2.1,220-1.6c0,0,0,0,0.1,0c2,0,3.9-0.8,5.3-2.2c1.4-1.4,2.2-3.3,2.2-5.3c0-2.9,0-5.8,0-8.5c0-47.6,0.1-73.8-32.6-91    c-21.2-11.2-46.4-10.6-66.6-10.2c-38.4,0.8-77.4,0.8-115.2,0.7c-37.9,0-77-0.1-115.6,0.7c-30.4,0.6-68.1,1.4-97.3,22.1    C135.9,770.8,137.2,806.9,138.4,838.8z M175.1,761.3c25.4-18,60.6-18.8,88.9-19.3c38.4-0.8,77.5-0.8,115.2-0.7    c37.9,0,77,0.1,115.5-0.7c19.5-0.4,41.6-0.9,59.3,8.5c24.6,13,24.6,30.6,24.6,77.7c0,0.3,0,0.6,0,1c-68.1-0.4-141.6,0.7-212.7,1.7    c-71.2,1-144.7,2-212.8,1.7C152.3,798.7,154.3,776.1,175.1,761.3z"
   id="path24" />

<path
   class="st5"
   d="M307.8,199.5c-28.6,29.6-31.9,73.6-32.9,116.2c-0.6,26.3-1.5,49.7-2.4,74.6c-1.2,32.6-2.4,66.4-3.2,109.6    c-0.9,49.7,1.6,96.9,41.5,127.7c17.2,13.2,38.4,19.8,59.1,19.8c21.3,0,42.1-6.9,57.6-20.7c29.7-26.3,35.8-68.4,38.1-109.9    c4-74,3.4-148.9-1.8-222.8c-2.1-30-5.7-61.3-23.8-85.8c-15-20.3-39-33.4-64.2-35C350.9,171.5,325.4,181.3,307.8,199.5z M370.5,188    c1.5,0,3,0,4.5,0.1c20.8,1.4,40.7,12.2,53.1,29c15.7,21.3,19,50.2,20.9,77.9c5.2,73.3,5.8,147.6,1.8,220.9    c-2.1,38.3-7.6,76.9-33.1,99.5c-12.3,10.9-29.1,16.9-47.4,16.9c-0.2,0-0.4,0-0.5,0c-18.2-0.1-35.9-6-49.7-16.7    c-34.5-26.6-36.6-68-35.7-115.6c0.8-43,2-76.7,3.2-109.3c0.9-24.9,1.8-48.4,2.4-74.8c0,0,0,0,0,0c1-41.3,3.9-80.4,28.7-106.1    C332.1,196,351.2,188,370.5,188z"
   id="path25" />

</g>

</g>

</svg>
