<?xml version="1.0" encoding="UTF-8" standalone="no"?>
<!-- Created with Inkscape (http://www.inkscape.org/) -->

<svg
   xmlns:dc="http://purl.org/dc/elements/1.1/"
   xmlns:cc="http://creativecommons.org/ns#"
   xmlns:rdf="http://www.w3.org/1999/02/22-rdf-syntax-ns#"
   xmlns:svg="http://www.w3.org/2000/svg"
   xmlns="http://www.w3.org/2000/svg"
   xmlns:sodipodi="http://sodipodi.sourceforge.net/DTD/sodipodi-0.dtd"
   xmlns:inkscape="http://www.inkscape.org/namespaces/inkscape"
   height="22"
   id="svg2"
   inkscape:output_extension="org.inkscape.output.svg.inkscape"
   inkscape:version="0.92.2 (5c3e80d, 2017-08-06)"
   sodipodi:docname="communication.svg"
   sodipodi:version="0.32"
   version="1.0"
   width="22">
  <defs
     id="defs22">
    <inkscape:perspective
       id="perspective24"
       inkscape:persp3d-origin="290 : 193.33333 : 1"
       inkscape:vp_x="0 : 290 : 1"
       inkscape:vp_y="0 : 1000 : 0"
       inkscape:vp_z="580 : 290 : 1"
       sodipodi:type="inkscape:persp3d" />
  </defs>
  <metadata
     id="metadata10">
    <rdf:RDF>
      <cc:Work
         rdf:about="">
        <dc:format>image/svg+xml</dc:format>
        <dc:type
           rdf:resource="http://purl.org/dc/dcmitype/StillImage" />
        <cc:license
           rdf:resource="http://web.resource.org/cc/PublicDomain" />
        <dc:language>en</dc:language>
        <dc:title></dc:title>
      </cc:Work>
    </rdf:RDF>
  </metadata>
  <sodipodi:namedview
     bordercolor="#666666"
     borderopacity="1.0"
     gridtolerance="10.0"
     guidetolerance="10.0"
     id="base"
     inkscape:current-layer="svg2"
     inkscape:cx="14.450743"
     inkscape:cy="12.141264"
     inkscape:pageopacity="0.0"
     inkscape:pageshadow="2"
     inkscape:window-height="705"
     inkscape:window-width="1366"
     inkscape:window-x="-8"
     inkscape:window-y="-8"
     inkscape:zoom="17.57188"
     objecttolerance="10.0"
     pagecolor="#ffffff"
     showgrid="false"
     inkscape:window-maximized="1"
     inkscape:measure-start="0,0"
     inkscape:measure-end="0,0" />
  <g
     id="g1327"
     transform="matrix(0.04083073,0,0,0.04083073,-0.1767767,-1.0602338)">
    <path
       d="M 66.275,1.768 C 24.94,1.768 1.704,23.139 1.704,66.804 l 0,450.123 c 0,40.844 20.894,62.229 62.192,62.229 l 452.024,0 c 41.307,0 62.229,-20.316 62.229,-62.229 l 0,-450.123 c 0,-42.601 -20.922,-65.036 -63.522,-65.036 -0.003,0 -448.494,-0.143 -448.352,0 z"
       id="path1329"
       style="fill:#111111;fill-opacity:0;stroke:#eeeeee;stroke-width:3.40799999;stroke-opacity:0"
       inkscape:connector-curvature="0" />
  </g>
  <g
     id="g2319"
     transform="matrix(0.04083073,0,0,0.04083073,35.725326,0.442546)">
    <path
       d=""
       id="path2323"
       style="fill:#0089cd;stroke:none"
       inkscape:connector-curvature="0" />
  </g>
  <g
     id="g2325"
     transform="matrix(0.04083073,0,0,0.04083073,35.725326,0.442546)">
    <path
       d=""
       id="path2329"
       style="fill:#0089cd;stroke:none"
       inkscape:connector-curvature="0" />
  </g>
  <circle
     style="fill:#0089cd;fill-opacity:1;stroke:none;stroke-width:2.10489988;stroke-miterlimit:4;stroke-dasharray:none;stroke-opacity:1"
     id="path898"
     cx="7.4564438"
     cy="6.1999226"
     r="2.5702684" />
  <path
     style="fill:#0089cd;fill-opacity:1;stroke:none;stroke-width:1.2851342px;stroke-linecap:butt;stroke-linejoin:miter;stroke-opacity:1"
     d="M 1.7888865,21.595802 C 1.7472225,18.024565 2.7605344,9.5386167 5.2788818,9.3760639 c 1.9139241,-0.076555 2.6380187,-0.132203 4.1544689,0 2.1751583,0.1782276 3.9757453,7.8313611 3.9921953,12.2197371 h -1.607697 c -0.229376,-3.388486 -0.611612,-5.480113 -1.301468,-7.693975 -0.153114,1.071798 -0.229671,7.693976 -0.229671,7.693976 H 4.9277222 L 4.6214943,13.901826 c -1.1217852,2.785041 -1.3214048,5.746992 -1.3014684,7.770533 z"
     id="path900"
     inkscape:connector-curvature="0"
     sodipodi:nodetypes="ccccccccccc" />
  <path
     style="fill:#0089cd;fill-opacity:1;stroke:none;stroke-width:1.2851342px;stroke-linecap:butt;stroke-linejoin:miter;stroke-opacity:1"
     d="m 10.036017,7.7333484 c 0.706308,0.4985691 2.617492,-1.4126154 3.406895,-1.3710679 0.789403,0.041547 4.071655,0.9971401 5.027247,-0.1661899 C 19.425753,5.0327605 19.010277,1.2103904 17.680758,0.91955782 16.351238,0.62872539 10.243755,-0.32686724 9.4959004,1.7920554 8.7480459,3.910978 11.240895,5.3651405 11.656369,5.5313305 11.781013,6.320733 10.036017,7.7333484 10.036017,7.7333484 Z"
     id="path902"
     inkscape:connector-curvature="0"
     sodipodi:nodetypes="csssscc" />
  <circle
     style="fill:#0089cd;fill-opacity:1;stroke:#ffffff;stroke-width:0.50433594;stroke-miterlimit:4;stroke-dasharray:none;stroke-opacity:1"
     id="path904"
     cx="12.427114"
     cy="3.3160748"
     r="0.24783203" />
  <circle
     style="fill:#0089cd;fill-opacity:1;stroke:#ffffff;stroke-width:0.50433594;stroke-miterlimit:4;stroke-dasharray:none;stroke-opacity:1"
     id="path904-5"
     cx="14.454914"
     cy="3.3160748"
     r="0.24783203" />
  <circle
     style="fill:#0089cd;fill-opacity:1;stroke:#ffffff;stroke-width:0.50433594;stroke-miterlimit:4;stroke-dasharray:none;stroke-opacity:1"
     id="path904-5-5"
     cx="16.446732"
     cy="3.3160748"
     r="0.24783203" />
</svg>
