<?xml version="1.0" encoding="UTF-8" standalone="no"?>
<!-- Created with Inkscape (http://www.inkscape.org/) -->

<svg
   xmlns:dc="http://purl.org/dc/elements/1.1/"
   xmlns:cc="http://creativecommons.org/ns#"
   xmlns:rdf="http://www.w3.org/1999/02/22-rdf-syntax-ns#"
   xmlns:svg="http://www.w3.org/2000/svg"
   xmlns="http://www.w3.org/2000/svg"
   xmlns:sodipodi="http://sodipodi.sourceforge.net/DTD/sodipodi-0.dtd"
   xmlns:inkscape="http://www.inkscape.org/namespaces/inkscape"
   height="22"
   id="svg2"
   inkscape:output_extension="org.inkscape.output.svg.inkscape"
   inkscape:version="0.92.2 (5c3e80d, 2017-08-06)"
   sodipodi:docname="dam.svg"
   sodipodi:version="0.32"
   version="1.0"
   width="22">
  <defs
     id="defs22">
    <inkscape:perspective
       id="perspective24"
       inkscape:persp3d-origin="290 : 193.33333 : 1"
       inkscape:vp_x="0 : 290 : 1"
       inkscape:vp_y="0 : 1000 : 0"
       inkscape:vp_z="580 : 290 : 1"
       sodipodi:type="inkscape:persp3d" />
  </defs>
  <metadata
     id="metadata10">
    <rdf:RDF>
      <cc:Work
         rdf:about="">
        <dc:format>image/svg+xml</dc:format>
        <dc:type
           rdf:resource="http://purl.org/dc/dcmitype/StillImage" />
        <cc:license
           rdf:resource="http://web.resource.org/cc/PublicDomain" />
        <dc:language>en</dc:language>
        <dc:title />
      </cc:Work>
    </rdf:RDF>
  </metadata>
  <sodipodi:namedview
     bordercolor="#666666"
     borderopacity="1.0"
     gridtolerance="10.0"
     guidetolerance="10.0"
     id="base"
     inkscape:current-layer="svg2"
     inkscape:cx="19.113183"
     inkscape:cy="10.931933"
     inkscape:pageopacity="0.0"
     inkscape:pageshadow="2"
     inkscape:window-height="705"
     inkscape:window-width="1366"
     inkscape:window-x="-8"
     inkscape:window-y="-8"
     inkscape:zoom="22.919321"
     objecttolerance="10.0"
     pagecolor="#ffffff"
     showgrid="false"
     inkscape:window-maximized="1"
     inkscape:measure-start="0,0"
     inkscape:measure-end="0,0"
     inkscape:lockguides="true" />
  <g
     id="g1327"
     transform="matrix(0.04083073,0,0,0.04083073,-0.1767767,-1.0602338)">
    <path
       d="M 66.275,1.768 C 24.94,1.768 1.704,23.139 1.704,66.804 l 0,450.123 c 0,40.844 20.894,62.229 62.192,62.229 l 452.024,0 c 41.307,0 62.229,-20.316 62.229,-62.229 l 0,-450.123 c 0,-42.601 -20.922,-65.036 -63.522,-65.036 -0.003,0 -448.494,-0.143 -448.352,0 z"
       id="path1329"
       style="fill:#111111;fill-opacity:0;stroke:#eeeeee;stroke-width:3.40799999;stroke-opacity:0"
       inkscape:connector-curvature="0" />
  </g>
  <g
     id="g2319"
     transform="matrix(0.04083073,0,0,0.04083073,35.725326,0.442546)">
    <path
       d=""
       id="path2323"
       style="fill:#0089cd;stroke:none"
       inkscape:connector-curvature="0" />
  </g>
  <g
     id="g2325"
     transform="matrix(0.04083073,0,0,0.04083073,35.725326,0.442546)">
    <path
       d=""
       id="path2329"
       style="fill:#0089cd;stroke:none"
       inkscape:connector-curvature="0" />
  </g>
  <path
     style="fill:#0089cd;fill-opacity:1;stroke:none;stroke-width:1.16406763px;stroke-linecap:butt;stroke-linejoin:miter;stroke-opacity:1"
     d="M 11.107616,0.42913812 C 6.0066699,0.49538362 2.2391786,4.105382 2.2306449,9.3392329 2.2228749,14.103459 11.107616,21.429138 11.107616,21.429138 c 0,0 8.399996,-7.12183 8.41325,-12.0899051 0.01237,-4.6376808 -3.312304,-8.91009478 -8.41325,-8.91009478 z"
     id="path1492"
     inkscape:connector-curvature="0"
     sodipodi:nodetypes="cscsc" />
  <path
     style="fill:#0089cd;fill-opacity:1;stroke:#ffffff;stroke-width:0.30000001;stroke-linecap:butt;stroke-linejoin:miter;stroke-miterlimit:4;stroke-dasharray:none;stroke-opacity:1"
     d="M 11.090315,1.1899265 C 6.37002,1.2512285 2.8836724,4.591836 2.8757755,9.4351181 2.8685855,13.84382 11.090315,20.622831 11.090315,20.622831 c 0,0 7.773159,-6.590374 7.785423,-11.1877129 0.01145,-4.2916004 -3.065128,-8.2451916 -7.785423,-8.2451916 z"
     id="path1492-2"
     inkscape:connector-curvature="0"
     sodipodi:nodetypes="cscsc"
     inkscape:transform-center-x="-1.3165584"
     inkscape:transform-center-y="3.1070785" />
  <circle
     style="fill:#ffffff;fill-opacity:1;stroke:none;stroke-width:1.25710332;stroke-miterlimit:4;stroke-dasharray:none;stroke-opacity:1"
     id="path1494"
     cx="10.875771"
     cy="8.9291391"
     r="7" />
  <path
     style="fill:none;fill-opacity:1;stroke:#0089cd;stroke-width:0.29015145;stroke-linecap:round;stroke-miterlimit:4;stroke-dasharray:none;stroke-opacity:1"
     id="path830"
     sodipodi:type="arc"
     sodipodi:cx="5.9102416"
     sodipodi:cy="5.5574636"
     sodipodi:rx="0.80913812"
     sodipodi:ry="0.82178432"
     sodipodi:start="0"
     sodipodi:end="3.1415927"
     sodipodi:open="true"
     d="m 6.7193797,5.5574636 a 0.80913812,0.82178432 0 0 1 -0.404569,0.7116861 0.80913812,0.82178432 0 0 1 -0.8091382,0 0.80913812,0.82178432 0 0 1 -0.404569,-0.7116861" />
  <path
     style="fill:none;fill-opacity:1;stroke:#0089cd;stroke-width:0.29015145;stroke-linecap:round;stroke-miterlimit:4;stroke-dasharray:none;stroke-opacity:1"
     id="path830-0"
     sodipodi:type="arc"
     sodipodi:cx="7.5475278"
     sodipodi:cy="5.5574636"
     sodipodi:rx="0.80913812"
     sodipodi:ry="0.82178432"
     sodipodi:start="0"
     sodipodi:end="3.1415927"
     sodipodi:open="true"
     d="m 8.3566659,5.5574636 a 0.80913812,0.82178432 0 0 1 -0.4045691,0.7116861 0.80913812,0.82178432 0 0 1 -0.8091381,0 0.80913812,0.82178432 0 0 1 -0.404569,-0.7116861" />
  <path
     style="fill:none;fill-opacity:1;stroke:#0089cd;stroke-width:0.29015145;stroke-linecap:round;stroke-miterlimit:4;stroke-dasharray:none;stroke-opacity:1"
     id="path830-0-3"
     sodipodi:type="arc"
     sodipodi:cx="9.1765404"
     sodipodi:cy="5.5574636"
     sodipodi:rx="0.80913812"
     sodipodi:ry="0.82178432"
     sodipodi:start="6.2639059"
     sodipodi:end="3.1415927"
     sodipodi:open="true"
     d="M 9.9855281,5.5416211 A 0.80913812,0.82178432 0 0 1 9.5900823,6.2638099 0.80913812,0.82178432 0 0 1 8.7764829,6.2717756 0.80913812,0.82178432 0 0 1 8.3674023,5.5574636" />
  <path
     style="fill:none;fill-opacity:1;stroke:#0089cd;stroke-width:0.29015145;stroke-linecap:round;stroke-miterlimit:4;stroke-dasharray:none;stroke-opacity:1"
     id="path830-6"
     sodipodi:type="arc"
     sodipodi:cx="5.9505248"
     sodipodi:cy="6.964376"
     sodipodi:rx="0.80913812"
     sodipodi:ry="0.82178432"
     sodipodi:start="0"
     sodipodi:end="3.1415927"
     sodipodi:open="true"
     d="m 6.7596629,6.964376 a 0.80913812,0.82178432 0 0 1 -0.404569,0.7116861 0.80913812,0.82178432 0 0 1 -0.8091382,0 0.80913812,0.82178432 0 0 1 -0.404569,-0.7116862" />
  <path
     style="fill:none;fill-opacity:1;stroke:#0089cd;stroke-width:0.29015145;stroke-linecap:round;stroke-miterlimit:4;stroke-dasharray:none;stroke-opacity:1"
     id="path830-0-8"
     sodipodi:type="arc"
     sodipodi:cx="7.587811"
     sodipodi:cy="6.964376"
     sodipodi:rx="0.80913812"
     sodipodi:ry="0.82178432"
     sodipodi:start="0"
     sodipodi:end="3.1415927"
     sodipodi:open="true"
     d="M 8.3969491,6.964376 A 0.80913812,0.82178432 0 0 1 7.99238,7.6760621 a 0.80913812,0.82178432 0 0 1 -0.8091381,0 0.80913812,0.82178432 0 0 1 -0.404569,-0.7116862" />
  <path
     style="fill:none;fill-opacity:1;stroke:#0089cd;stroke-width:0.29015145;stroke-linecap:round;stroke-miterlimit:4;stroke-dasharray:none;stroke-opacity:1"
     id="path830-0-3-4"
     sodipodi:type="arc"
     sodipodi:cx="9.2168236"
     sodipodi:cy="6.964376"
     sodipodi:rx="0.80913812"
     sodipodi:ry="0.82178432"
     sodipodi:start="6.2639059"
     sodipodi:end="3.1415927"
     sodipodi:open="true"
     d="M 10.025811,6.9485334 A 0.80913812,0.82178432 0 0 1 9.6303655,7.6707223 0.80913812,0.82178432 0 0 1 8.8167661,7.6786879 0.80913812,0.82178432 0 0 1 8.4076855,6.9643759" />
  <path
     style="fill:none;fill-opacity:1;stroke:#0089cd;stroke-width:0.29015145;stroke-linecap:round;stroke-miterlimit:4;stroke-dasharray:none;stroke-opacity:1"
     id="path830-6-0"
     sodipodi:type="arc"
     sodipodi:cx="5.9267492"
     sodipodi:cy="8.2720375"
     sodipodi:rx="0.80913812"
     sodipodi:ry="0.82178432"
     sodipodi:start="0"
     sodipodi:end="3.1415927"
     sodipodi:open="true"
     d="m 6.7358873,8.2720375 a 0.80913812,0.82178432 0 0 1 -0.404569,0.7116861 0.80913812,0.82178432 0 0 1 -0.8091382,0 0.80913812,0.82178432 0 0 1 -0.404569,-0.7116861" />
  <path
     style="fill:none;fill-opacity:1;stroke:#0089cd;stroke-width:0.29015145;stroke-linecap:round;stroke-miterlimit:4;stroke-dasharray:none;stroke-opacity:1"
     id="path830-0-8-2"
     sodipodi:type="arc"
     sodipodi:cx="7.5640359"
     sodipodi:cy="8.2720375"
     sodipodi:rx="0.80913812"
     sodipodi:ry="0.82178432"
     sodipodi:start="0"
     sodipodi:end="3.1415927"
     sodipodi:open="true"
     d="m 8.373174,8.2720375 a 0.80913812,0.82178432 0 0 1 -0.4045691,0.7116861 0.80913812,0.82178432 0 0 1 -0.8091381,0 0.80913812,0.82178432 0 0 1 -0.404569,-0.7116861" />
  <path
     style="fill:none;fill-opacity:1;stroke:#0089cd;stroke-width:0.29015145;stroke-linecap:round;stroke-miterlimit:4;stroke-dasharray:none;stroke-opacity:1"
     id="path830-0-3-4-9"
     sodipodi:type="arc"
     sodipodi:cx="9.1930475"
     sodipodi:cy="8.2720375"
     sodipodi:rx="0.80913812"
     sodipodi:ry="0.82178432"
     sodipodi:start="6.2639059"
     sodipodi:end="3.1415927"
     sodipodi:open="true"
     d="M 10.002035,8.256195 A 0.80913812,0.82178432 0 0 1 9.6065894,8.9783838 0.80913812,0.82178432 0 0 1 8.79299,8.9863495 0.80913812,0.82178432 0 0 1 8.3839094,8.2720375" />
  <path
     style="fill:none;fill-opacity:1;stroke:#0089cd;stroke-width:0.29015145;stroke-linecap:round;stroke-miterlimit:4;stroke-dasharray:none;stroke-opacity:1"
     id="path830-6-0-0"
     sodipodi:type="arc"
     sodipodi:cx="5.9267492"
     sodipodi:cy="9.6034737"
     sodipodi:rx="0.80913812"
     sodipodi:ry="0.82178432"
     sodipodi:start="0"
     sodipodi:end="3.1415927"
     sodipodi:open="true"
     d="m 6.7358873,9.6034737 a 0.80913812,0.82178432 0 0 1 -0.404569,0.7116863 0.80913812,0.82178432 0 0 1 -0.8091382,0 0.80913812,0.82178432 0 0 1 -0.404569,-0.7116864" />
  <path
     style="fill:none;fill-opacity:1;stroke:#0089cd;stroke-width:0.29015145;stroke-linecap:round;stroke-miterlimit:4;stroke-dasharray:none;stroke-opacity:1"
     id="path830-0-8-2-8"
     sodipodi:type="arc"
     sodipodi:cx="7.5640359"
     sodipodi:cy="9.6034737"
     sodipodi:rx="0.80913812"
     sodipodi:ry="0.82178432"
     sodipodi:start="0"
     sodipodi:end="3.1415927"
     sodipodi:open="true"
     d="m 8.373174,9.6034737 a 0.80913812,0.82178432 0 0 1 -0.4045691,0.7116863 0.80913812,0.82178432 0 0 1 -0.8091381,0 0.80913812,0.82178432 0 0 1 -0.404569,-0.7116864" />
  <path
     style="fill:none;fill-opacity:1;stroke:#0089cd;stroke-width:0.29015145;stroke-linecap:round;stroke-miterlimit:4;stroke-dasharray:none;stroke-opacity:1"
     id="path830-0-3-4-9-1"
     sodipodi:type="arc"
     sodipodi:cx="9.1930475"
     sodipodi:cy="9.6034737"
     sodipodi:rx="0.80913812"
     sodipodi:ry="0.82178432"
     sodipodi:start="6.2639059"
     sodipodi:end="3.1415927"
     sodipodi:open="true"
     d="M 10.002035,9.5876311 A 0.80913812,0.82178432 0 0 1 9.6065894,10.30982 0.80913812,0.82178432 0 0 1 8.79299,10.317786 0.80913812,0.82178432 0 0 1 8.3839094,9.6034736" />
  <path
     style="fill:none;fill-opacity:1;stroke:#0089cd;stroke-width:0.29015145;stroke-linecap:round;stroke-miterlimit:4;stroke-dasharray:none;stroke-opacity:1"
     id="path830-6-0-3"
     sodipodi:type="arc"
     sodipodi:cx="5.9267492"
     sodipodi:cy="10.831888"
     sodipodi:rx="0.80913812"
     sodipodi:ry="0.82178432"
     sodipodi:start="0"
     sodipodi:end="3.1415927"
     sodipodi:open="true"
     d="m 6.7358873,10.831888 a 0.80913812,0.82178432 0 0 1 -0.404569,0.711686 0.80913812,0.82178432 0 0 1 -0.8091382,0 0.80913812,0.82178432 0 0 1 -0.404569,-0.711686" />
  <path
     style="fill:none;fill-opacity:1;stroke:#0089cd;stroke-width:0.29015145;stroke-linecap:round;stroke-miterlimit:4;stroke-dasharray:none;stroke-opacity:1"
     id="path830-0-8-2-6"
     sodipodi:type="arc"
     sodipodi:cx="7.5640359"
     sodipodi:cy="10.831888"
     sodipodi:rx="0.80913812"
     sodipodi:ry="0.82178432"
     sodipodi:start="0"
     sodipodi:end="3.1415927"
     sodipodi:open="true"
     d="m 8.373174,10.831888 a 0.80913812,0.82178432 0 0 1 -0.4045691,0.711686 0.80913812,0.82178432 0 0 1 -0.8091381,0 0.80913812,0.82178432 0 0 1 -0.404569,-0.711686" />
  <path
     style="fill:none;fill-opacity:1;stroke:#0089cd;stroke-width:0.29015145;stroke-linecap:round;stroke-miterlimit:4;stroke-dasharray:none;stroke-opacity:1"
     id="path830-0-3-4-9-7"
     sodipodi:type="arc"
     sodipodi:cx="9.1930475"
     sodipodi:cy="10.839812"
     sodipodi:rx="0.80913812"
     sodipodi:ry="0.82178432"
     sodipodi:start="6.2639059"
     sodipodi:end="3.1415927"
     sodipodi:open="true"
     d="M 10.002035,10.82397 A 0.80913812,0.82178432 0 0 1 9.6065894,11.546159 0.80913812,0.82178432 0 0 1 8.79299,11.554124 0.80913812,0.82178432 0 0 1 8.3839094,10.839812" />
  <path
     style="fill:none;fill-opacity:1;stroke:#0089cd;stroke-width:0.29349035;stroke-linecap:round;stroke-miterlimit:4;stroke-dasharray:none;stroke-opacity:1"
     id="path830-6-0-0-5"
     sodipodi:type="arc"
     sodipodi:cx="5.9029737"
     sodipodi:cy="12.034188"
     sodipodi:rx="0.83113402"
     sodipodi:ry="0.8185544"
     sodipodi:start="0"
     sodipodi:end="3.1415927"
     sodipodi:open="true"
     d="m 6.7341077,12.034188 a 0.83113402,0.8185544 0 0 1 -0.415567,0.708889 0.83113402,0.8185544 0 0 1 -0.8311341,0 0.83113402,0.8185544 0 0 1 -0.415567,-0.708889" />
  <path
     style="fill:none;fill-opacity:1;stroke:#0089cd;stroke-width:0.29015145;stroke-linecap:round;stroke-miterlimit:4;stroke-dasharray:none;stroke-opacity:1"
     id="path830-0-8-2-8-6"
     sodipodi:type="arc"
     sodipodi:cx="7.5640359"
     sodipodi:cy="12.032672"
     sodipodi:rx="0.80913812"
     sodipodi:ry="0.82178432"
     sodipodi:start="0"
     sodipodi:end="3.1415927"
     sodipodi:open="true"
     d="m 8.373174,12.032672 a 0.80913812,0.82178432 0 0 1 -0.4045691,0.711686 0.80913812,0.82178432 0 0 1 -0.8091381,0 0.80913812,0.82178432 0 0 1 -0.404569,-0.711686" />
  <path
     style="fill:none;fill-opacity:1;stroke:#0089cd;stroke-width:0.29015145;stroke-linecap:round;stroke-miterlimit:4;stroke-dasharray:none;stroke-opacity:1"
     id="path830-0-3-4-9-1-6"
     sodipodi:type="arc"
     sodipodi:cx="9.1930475"
     sodipodi:cy="12.040596"
     sodipodi:rx="0.80913812"
     sodipodi:ry="0.82178432"
     sodipodi:start="6.2639059"
     sodipodi:end="3.1415927"
     sodipodi:open="true"
     d="M 10.002035,12.024753 A 0.80913812,0.82178432 0 0 1 9.6065894,12.746942 0.80913812,0.82178432 0 0 1 8.79299,12.754908 0.80913812,0.82178432 0 0 1 8.3839094,12.040596" />
  <path
     style="fill:#0089cd;fill-opacity:1;stroke:none;stroke-width:1px;stroke-linecap:butt;stroke-linejoin:miter;stroke-opacity:1"
     d="m 10.008784,5.2858401 v 7.6795369 h 2.258687 L 10.650727,5.2858401 Z"
     id="path966"
     inkscape:connector-curvature="0"
     sodipodi:nodetypes="ccccc" />
  <path
     style="fill:none;fill-opacity:1;stroke:#0089cd;stroke-width:0.29015145;stroke-linecap:round;stroke-miterlimit:4;stroke-dasharray:none;stroke-opacity:1"
     id="path830-6-0-0-4"
     sodipodi:type="arc"
     sodipodi:cx="12.488831"
     sodipodi:cy="10.831888"
     sodipodi:rx="0.80913812"
     sodipodi:ry="0.82178432"
     sodipodi:start="0"
     sodipodi:end="3.1415927"
     sodipodi:open="true"
     d="m 13.297969,10.831888 a 0.80913812,0.82178432 0 0 1 -0.404569,0.711686 0.80913812,0.82178432 0 0 1 -0.809139,0 0.80913812,0.82178432 0 0 1 -0.404569,-0.711686" />
  <path
     style="fill:none;fill-opacity:1;stroke:#0089cd;stroke-width:0.29015145;stroke-linecap:round;stroke-miterlimit:4;stroke-dasharray:none;stroke-opacity:1"
     id="path830-0-8-2-8-2"
     sodipodi:type="arc"
     sodipodi:cx="14.126117"
     sodipodi:cy="10.831888"
     sodipodi:rx="0.80913812"
     sodipodi:ry="0.82178432"
     sodipodi:start="0"
     sodipodi:end="3.1415927"
     sodipodi:open="true"
     d="m 14.935255,10.831888 a 0.80913812,0.82178432 0 0 1 -0.404569,0.711686 0.80913812,0.82178432 0 0 1 -0.809138,0 0.80913812,0.82178432 0 0 1 -0.404569,-0.711686" />
  <path
     style="fill:none;fill-opacity:1;stroke:#0089cd;stroke-width:0.29015145;stroke-linecap:round;stroke-miterlimit:4;stroke-dasharray:none;stroke-opacity:1"
     id="path830-0-3-4-9-1-1"
     sodipodi:type="arc"
     sodipodi:cx="15.755129"
     sodipodi:cy="10.839812"
     sodipodi:rx="0.80913812"
     sodipodi:ry="0.82178432"
     sodipodi:start="6.2639059"
     sodipodi:end="3.1415927"
     sodipodi:open="true"
     d="m 16.564117,10.82397 a 0.80913812,0.82178432 0 0 1 -0.395446,0.722189 0.80913812,0.82178432 0 0 1 -0.8136,0.008 0.80913812,0.82178432 0 0 1 -0.40908,-0.714312" />
  <path
     style="fill:none;fill-opacity:1;stroke:#0089cd;stroke-width:0.29015145;stroke-linecap:round;stroke-miterlimit:4;stroke-dasharray:none;stroke-opacity:1"
     id="path830-6-0-0-4-3"
     sodipodi:type="arc"
     sodipodi:cx="12.631482"
     sodipodi:cy="12.032672"
     sodipodi:rx="0.80913812"
     sodipodi:ry="0.82178432"
     sodipodi:start="0"
     sodipodi:end="3.1415927"
     sodipodi:open="true"
     d="m 13.44062,12.032672 a 0.80913812,0.82178432 0 0 1 -0.404569,0.711686 0.80913812,0.82178432 0 0 1 -0.809138,0 0.80913812,0.82178432 0 0 1 -0.404569,-0.711686" />
  <path
     style="fill:none;fill-opacity:1;stroke:#0089cd;stroke-width:0.29015145;stroke-linecap:round;stroke-miterlimit:4;stroke-dasharray:none;stroke-opacity:1"
     id="path830-0-8-2-8-2-2"
     sodipodi:type="arc"
     sodipodi:cx="14.26877"
     sodipodi:cy="12.032672"
     sodipodi:rx="0.80913812"
     sodipodi:ry="0.82178432"
     sodipodi:start="0"
     sodipodi:end="3.1415927"
     sodipodi:open="true"
     d="m 15.077908,12.032672 a 0.80913812,0.82178432 0 0 1 -0.404569,0.711686 0.80913812,0.82178432 0 0 1 -0.809138,0 0.80913812,0.82178432 0 0 1 -0.404569,-0.711686" />
  <path
     style="fill:none;fill-opacity:1;stroke:#0089cd;stroke-width:0.29015145;stroke-linecap:round;stroke-miterlimit:4;stroke-dasharray:none;stroke-opacity:1"
     id="path830-0-3-4-9-1-1-5"
     sodipodi:type="arc"
     sodipodi:cx="15.897783"
     sodipodi:cy="12.040596"
     sodipodi:rx="0.80913812"
     sodipodi:ry="0.82178432"
     sodipodi:start="6.2639059"
     sodipodi:end="3.1415927"
     sodipodi:open="true"
     d="m 16.706771,12.024753 a 0.80913812,0.82178432 0 0 1 -0.395446,0.722189 0.80913812,0.82178432 0 0 1 -0.813599,0.008 0.80913812,0.82178432 0 0 1 -0.409081,-0.714312" />
</svg>
