<?xml version="1.0" encoding="UTF-8" standalone="no"?>
<!-- Created with Inkscape (http://www.inkscape.org/) -->

<svg
   xmlns:dc="http://purl.org/dc/elements/1.1/"
   xmlns:cc="http://creativecommons.org/ns#"
   xmlns:rdf="http://www.w3.org/1999/02/22-rdf-syntax-ns#"
   xmlns:svg="http://www.w3.org/2000/svg"
   xmlns="http://www.w3.org/2000/svg"
   xmlns:sodipodi="http://sodipodi.sourceforge.net/DTD/sodipodi-0.dtd"
   xmlns:inkscape="http://www.inkscape.org/namespaces/inkscape"
   height="22"
   id="svg2"
   inkscape:output_extension="org.inkscape.output.svg.inkscape"
   inkscape:version="0.92.2 (5c3e80d, 2017-08-06)"
   sodipodi:docname="dam.svg"
   sodipodi:version="0.32"
   version="1.0"
   width="22">
  <defs
     id="defs22">
    <inkscape:perspective
       id="perspective24"
       inkscape:persp3d-origin="290 : 193.33333 : 1"
       inkscape:vp_x="0 : 290 : 1"
       inkscape:vp_y="0 : 1000 : 0"
       inkscape:vp_z="580 : 290 : 1"
       sodipodi:type="inkscape:persp3d" />
  </defs>
  <metadata
     id="metadata10">
    <rdf:RDF>
      <cc:Work
         rdf:about="">
        <dc:format>image/svg+xml</dc:format>
        <dc:type
           rdf:resource="http://purl.org/dc/dcmitype/StillImage" />
        <cc:license
           rdf:resource="http://web.resource.org/cc/PublicDomain" />
        <dc:language>en</dc:language>
        <dc:title></dc:title>
      </cc:Work>
    </rdf:RDF>
  </metadata>
  <sodipodi:namedview
     bordercolor="#666666"
     borderopacity="1.0"
     gridtolerance="10.0"
     guidetolerance="10.0"
     id="base"
     inkscape:current-layer="svg2"
     inkscape:cx="14.477228"
     inkscape:cy="14.147826"
     inkscape:pageopacity="0.0"
     inkscape:pageshadow="2"
     inkscape:window-height="705"
     inkscape:window-width="1366"
     inkscape:window-x="-8"
     inkscape:window-y="-8"
     inkscape:zoom="21.029915"
     objecttolerance="10.0"
     pagecolor="#ffffff"
     showgrid="false"
     inkscape:window-maximized="1"
     inkscape:measure-start="0,0"
     inkscape:measure-end="0,0"
     inkscape:lockguides="true" />
  <g
     id="g1327"
     transform="matrix(0.04083073,0,0,0.04083073,-0.1767767,-1.0602338)">
    <path
       d="M 66.275,1.768 C 24.94,1.768 1.704,23.139 1.704,66.804 l 0,450.123 c 0,40.844 20.894,62.229 62.192,62.229 l 452.024,0 c 41.307,0 62.229,-20.316 62.229,-62.229 l 0,-450.123 c 0,-42.601 -20.922,-65.036 -63.522,-65.036 -0.003,0 -448.494,-0.143 -448.352,0 z"
       id="path1329"
       style="fill:#111111;fill-opacity:0;stroke:#eeeeee;stroke-width:3.40799999;stroke-opacity:0"
       inkscape:connector-curvature="0" />
  </g>
  <g
     id="g2319"
     transform="matrix(0.04083073,0,0,0.04083073,35.725326,0.442546)">
    <path
       d=""
       id="path2323"
       style="fill:#0089cd;stroke:none"
       inkscape:connector-curvature="0" />
  </g>
  <g
     id="g2325"
     transform="matrix(0.04083073,0,0,0.04083073,35.725326,0.442546)">
    <path
       d=""
       id="path2329"
       style="fill:#0089cd;stroke:none"
       inkscape:connector-curvature="0" />
  </g>
  <path
     style="fill:#0089cd;fill-opacity:1;stroke:none;stroke-width:1.16406763px;stroke-linecap:butt;stroke-linejoin:miter;stroke-opacity:1"
     d="M 11.89298,0.29824419 C 6.7920335,0.36448969 3.0245422,3.9744881 3.0160085,9.208339 c -0.00777,4.764226 8.8769715,12.089905 8.8769715,12.089905 0,0 8.399996,-7.12183 8.41325,-12.089905 C 20.3186,4.5706582 16.993926,0.29824419 11.89298,0.29824419 Z"
     id="path1492"
     inkscape:connector-curvature="0"
     sodipodi:nodetypes="cscsc" />
  <path
     style="fill:#0089cd;fill-opacity:1;stroke:#ffffff;stroke-width:0.30000001;stroke-linecap:butt;stroke-linejoin:miter;stroke-miterlimit:4;stroke-dasharray:none;stroke-opacity:1"
     d="M 11.875679,1.0590326 C 7.1553836,1.1203346 3.669036,4.4609421 3.6611391,9.3042242 3.6539491,13.712926 11.875679,20.491937 11.875679,20.491937 c 0,0 7.773159,-6.590374 7.785423,-11.1877128 0.01145,-4.2916004 -3.065128,-8.2451916 -7.785423,-8.2451916 z"
     id="path1492-2"
     inkscape:connector-curvature="0"
     sodipodi:nodetypes="cscsc"
     inkscape:transform-center-x="-1.3165584"
     inkscape:transform-center-y="3.1070785" />
  <circle
     style="fill:#ffffff;fill-opacity:1;stroke:none;stroke-width:1.25710332;stroke-miterlimit:4;stroke-dasharray:none;stroke-opacity:1"
     id="path1494"
     cx="11.661134"
     cy="8.7982445"
     r="7" />
  <path
     style="fill:none;fill-opacity:1;stroke:#0089cd;stroke-width:0.29015145;stroke-linecap:round;stroke-miterlimit:4;stroke-dasharray:none;stroke-opacity:1"
     id="path830"
     sodipodi:type="arc"
     sodipodi:cx="6.6956053"
     sodipodi:cy="5.4265699"
     sodipodi:rx="0.80913812"
     sodipodi:ry="0.82178432"
     sodipodi:start="0"
     sodipodi:end="3.1415927"
     sodipodi:open="true"
     d="m 7.5047434,5.4265699 a 0.80913812,0.82178432 0 0 1 -0.4045691,0.7116861 0.80913812,0.82178432 0 0 1 -0.8091381,0 0.80913812,0.82178432 0 0 1 -0.404569,-0.7116861" />
  <path
     style="fill:none;fill-opacity:1;stroke:#0089cd;stroke-width:0.29015145;stroke-linecap:round;stroke-miterlimit:4;stroke-dasharray:none;stroke-opacity:1"
     id="path830-0"
     sodipodi:type="arc"
     sodipodi:cx="8.3328915"
     sodipodi:cy="5.4265699"
     sodipodi:rx="0.80913812"
     sodipodi:ry="0.82178432"
     sodipodi:start="0"
     sodipodi:end="3.1415927"
     sodipodi:open="true"
     d="m 9.1420296,5.4265699 a 0.80913812,0.82178432 0 0 1 -0.4045691,0.7116861 0.80913812,0.82178432 0 0 1 -0.8091381,0 0.80913812,0.82178432 0 0 1 -0.4045691,-0.7116861" />
  <path
     style="fill:none;fill-opacity:1;stroke:#0089cd;stroke-width:0.29015145;stroke-linecap:round;stroke-miterlimit:4;stroke-dasharray:none;stroke-opacity:1"
     id="path830-0-3"
     sodipodi:type="arc"
     sodipodi:cx="9.9619036"
     sodipodi:cy="5.4265699"
     sodipodi:rx="0.80913812"
     sodipodi:ry="0.82178432"
     sodipodi:start="6.2639059"
     sodipodi:end="3.1415927"
     sodipodi:open="true"
     d="M 10.770891,5.4107274 A 0.80913812,0.82178432 0 0 1 10.375445,6.1329162 0.80913812,0.82178432 0 0 1 9.5618461,6.1408819 0.80913812,0.82178432 0 0 1 9.1527655,5.4265699" />
  <path
     style="fill:none;fill-opacity:1;stroke:#0089cd;stroke-width:0.29015145;stroke-linecap:round;stroke-miterlimit:4;stroke-dasharray:none;stroke-opacity:1"
     id="path830-6"
     sodipodi:type="arc"
     sodipodi:cx="6.7358885"
     sodipodi:cy="6.8334823"
     sodipodi:rx="0.80913812"
     sodipodi:ry="0.82178432"
     sodipodi:start="0"
     sodipodi:end="3.1415927"
     sodipodi:open="true"
     d="M 7.5450266,6.8334823 A 0.80913812,0.82178432 0 0 1 7.1404575,7.5451684 0.80913812,0.82178432 0 0 1 6.3313194,7.5451683 0.80913812,0.82178432 0 0 1 5.9267504,6.8334822" />
  <path
     style="fill:none;fill-opacity:1;stroke:#0089cd;stroke-width:0.29015145;stroke-linecap:round;stroke-miterlimit:4;stroke-dasharray:none;stroke-opacity:1"
     id="path830-0-8"
     sodipodi:type="arc"
     sodipodi:cx="8.3731747"
     sodipodi:cy="6.8334823"
     sodipodi:rx="0.80913812"
     sodipodi:ry="0.82178432"
     sodipodi:start="0"
     sodipodi:end="3.1415927"
     sodipodi:open="true"
     d="M 9.1823128,6.8334823 A 0.80913812,0.82178432 0 0 1 8.7777437,7.5451684 0.80913812,0.82178432 0 0 1 7.9686056,7.5451683 0.80913812,0.82178432 0 0 1 7.5640365,6.8334822" />
  <path
     style="fill:none;fill-opacity:1;stroke:#0089cd;stroke-width:0.29015145;stroke-linecap:round;stroke-miterlimit:4;stroke-dasharray:none;stroke-opacity:1"
     id="path830-0-3-4"
     sodipodi:type="arc"
     sodipodi:cx="10.002187"
     sodipodi:cy="6.8334823"
     sodipodi:rx="0.80913812"
     sodipodi:ry="0.82178432"
     sodipodi:start="6.2639059"
     sodipodi:end="3.1415927"
     sodipodi:open="true"
     d="M 10.811175,6.8176397 A 0.80913812,0.82178432 0 0 1 10.415729,7.5398286 0.80913812,0.82178432 0 0 1 9.6021293,7.5477942 0.80913812,0.82178432 0 0 1 9.1930487,6.8334822" />
  <path
     style="fill:none;fill-opacity:1;stroke:#0089cd;stroke-width:0.29015145;stroke-linecap:round;stroke-miterlimit:4;stroke-dasharray:none;stroke-opacity:1"
     id="path830-6-0"
     sodipodi:type="arc"
     sodipodi:cx="6.7121129"
     sodipodi:cy="8.1411428"
     sodipodi:rx="0.80913812"
     sodipodi:ry="0.82178432"
     sodipodi:start="0"
     sodipodi:end="3.1415927"
     sodipodi:open="true"
     d="m 7.521251,8.1411428 a 0.80913812,0.82178432 0 0 1 -0.404569,0.7116861 0.80913812,0.82178432 0 0 1 -0.8091382,0 0.80913812,0.82178432 0 0 1 -0.404569,-0.7116861" />
  <path
     style="fill:none;fill-opacity:1;stroke:#0089cd;stroke-width:0.29015145;stroke-linecap:round;stroke-miterlimit:4;stroke-dasharray:none;stroke-opacity:1"
     id="path830-0-8-2"
     sodipodi:type="arc"
     sodipodi:cx="8.3493996"
     sodipodi:cy="8.1411428"
     sodipodi:rx="0.80913812"
     sodipodi:ry="0.82178432"
     sodipodi:start="0"
     sodipodi:end="3.1415927"
     sodipodi:open="true"
     d="m 9.1585377,8.1411428 a 0.80913812,0.82178432 0 0 1 -0.4045691,0.7116861 0.80913812,0.82178432 0 0 1 -0.8091381,0 0.80913812,0.82178432 0 0 1 -0.4045691,-0.7116861" />
  <path
     style="fill:none;fill-opacity:1;stroke:#0089cd;stroke-width:0.29015145;stroke-linecap:round;stroke-miterlimit:4;stroke-dasharray:none;stroke-opacity:1"
     id="path830-0-3-4-9"
     sodipodi:type="arc"
     sodipodi:cx="9.9784107"
     sodipodi:cy="8.1411428"
     sodipodi:rx="0.80913812"
     sodipodi:ry="0.82178432"
     sodipodi:start="6.2639059"
     sodipodi:end="3.1415927"
     sodipodi:open="true"
     d="M 10.787398,8.1253003 A 0.80913812,0.82178432 0 0 1 10.391953,8.8474891 0.80913812,0.82178432 0 0 1 9.5783532,8.8554548 0.80913812,0.82178432 0 0 1 9.1692726,8.1411428" />
  <path
     style="fill:none;fill-opacity:1;stroke:#0089cd;stroke-width:0.29015145;stroke-linecap:round;stroke-miterlimit:4;stroke-dasharray:none;stroke-opacity:1"
     id="path830-6-0-0"
     sodipodi:type="arc"
     sodipodi:cx="6.7121129"
     sodipodi:cy="9.472579"
     sodipodi:rx="0.80913812"
     sodipodi:ry="0.82178432"
     sodipodi:start="0"
     sodipodi:end="3.1415927"
     sodipodi:open="true"
     d="m 7.521251,9.472579 a 0.80913812,0.82178432 0 0 1 -0.404569,0.711686 0.80913812,0.82178432 0 0 1 -0.8091382,0 0.80913812,0.82178432 0 0 1 -0.404569,-0.711686" />
  <path
     style="fill:none;fill-opacity:1;stroke:#0089cd;stroke-width:0.29015145;stroke-linecap:round;stroke-miterlimit:4;stroke-dasharray:none;stroke-opacity:1"
     id="path830-0-8-2-8"
     sodipodi:type="arc"
     sodipodi:cx="8.3493996"
     sodipodi:cy="9.472579"
     sodipodi:rx="0.80913812"
     sodipodi:ry="0.82178432"
     sodipodi:start="0"
     sodipodi:end="3.1415927"
     sodipodi:open="true"
     d="m 9.1585377,9.472579 a 0.80913812,0.82178432 0 0 1 -0.4045691,0.711686 0.80913812,0.82178432 0 0 1 -0.8091381,0 0.80913812,0.82178432 0 0 1 -0.4045691,-0.711686" />
  <path
     style="fill:none;fill-opacity:1;stroke:#0089cd;stroke-width:0.29015145;stroke-linecap:round;stroke-miterlimit:4;stroke-dasharray:none;stroke-opacity:1"
     id="path830-0-3-4-9-1"
     sodipodi:type="arc"
     sodipodi:cx="9.9784107"
     sodipodi:cy="9.472579"
     sodipodi:rx="0.80913812"
     sodipodi:ry="0.82178432"
     sodipodi:start="6.2639059"
     sodipodi:end="3.1415927"
     sodipodi:open="true"
     d="m 10.787398,9.4567365 a 0.80913812,0.82178432 0 0 1 -0.395445,0.7221885 0.80913812,0.82178432 0 0 1 -0.8135998,0.008 0.80913812,0.82178432 0 0 1 -0.4090806,-0.714312" />
  <path
     style="fill:none;fill-opacity:1;stroke:#0089cd;stroke-width:0.29015145;stroke-linecap:round;stroke-miterlimit:4;stroke-dasharray:none;stroke-opacity:1"
     id="path830-6-0-3"
     sodipodi:type="arc"
     sodipodi:cx="6.7121129"
     sodipodi:cy="10.700994"
     sodipodi:rx="0.80913812"
     sodipodi:ry="0.82178432"
     sodipodi:start="0"
     sodipodi:end="3.1415927"
     sodipodi:open="true"
     d="m 7.521251,10.700994 a 0.80913812,0.82178432 0 0 1 -0.404569,0.711686 0.80913812,0.82178432 0 0 1 -0.8091382,0 0.80913812,0.82178432 0 0 1 -0.404569,-0.711687" />
  <path
     style="fill:none;fill-opacity:1;stroke:#0089cd;stroke-width:0.29015145;stroke-linecap:round;stroke-miterlimit:4;stroke-dasharray:none;stroke-opacity:1"
     id="path830-0-8-2-6"
     sodipodi:type="arc"
     sodipodi:cx="8.3493996"
     sodipodi:cy="10.700994"
     sodipodi:rx="0.80913812"
     sodipodi:ry="0.82178432"
     sodipodi:start="0"
     sodipodi:end="3.1415927"
     sodipodi:open="true"
     d="m 9.1585377,10.700994 a 0.80913812,0.82178432 0 0 1 -0.4045691,0.711686 0.80913812,0.82178432 0 0 1 -0.8091381,0 0.80913812,0.82178432 0 0 1 -0.4045691,-0.711687" />
  <path
     style="fill:none;fill-opacity:1;stroke:#0089cd;stroke-width:0.29015145;stroke-linecap:round;stroke-miterlimit:4;stroke-dasharray:none;stroke-opacity:1"
     id="path830-0-3-4-9-7"
     sodipodi:type="arc"
     sodipodi:cx="9.9784107"
     sodipodi:cy="10.708917"
     sodipodi:rx="0.80913812"
     sodipodi:ry="0.82178432"
     sodipodi:start="6.2639059"
     sodipodi:end="3.1415927"
     sodipodi:open="true"
     d="m 10.787398,10.693074 a 0.80913812,0.82178432 0 0 1 -0.395445,0.722189 0.80913812,0.82178432 0 0 1 -0.8135998,0.008 0.80913812,0.82178432 0 0 1 -0.4090806,-0.714312" />
  <path
     style="fill:none;fill-opacity:1;stroke:#0089cd;stroke-width:0.29349035;stroke-linecap:round;stroke-miterlimit:4;stroke-dasharray:none;stroke-opacity:1"
     id="path830-6-0-0-5"
     sodipodi:type="arc"
     sodipodi:cx="6.6883373"
     sodipodi:cy="11.903293"
     sodipodi:rx="0.83113402"
     sodipodi:ry="0.8185544"
     sodipodi:start="0"
     sodipodi:end="3.1415927"
     sodipodi:open="true"
     d="m 7.5194713,11.903293 a 0.83113402,0.8185544 0 0 1 -0.415567,0.708889 0.83113402,0.8185544 0 0 1 -0.831134,0 0.83113402,0.8185544 0 0 1 -0.415567,-0.708889" />
  <path
     style="fill:none;fill-opacity:1;stroke:#0089cd;stroke-width:0.29015145;stroke-linecap:round;stroke-miterlimit:4;stroke-dasharray:none;stroke-opacity:1"
     id="path830-0-8-2-8-6"
     sodipodi:type="arc"
     sodipodi:cx="8.3493996"
     sodipodi:cy="11.901777"
     sodipodi:rx="0.80913812"
     sodipodi:ry="0.82178432"
     sodipodi:start="0"
     sodipodi:end="3.1415927"
     sodipodi:open="true"
     d="m 9.1585377,11.901777 a 0.80913812,0.82178432 0 0 1 -0.4045691,0.711686 0.80913812,0.82178432 0 0 1 -0.8091381,0 0.80913812,0.82178432 0 0 1 -0.4045691,-0.711686" />
  <path
     style="fill:none;fill-opacity:1;stroke:#0089cd;stroke-width:0.29015145;stroke-linecap:round;stroke-miterlimit:4;stroke-dasharray:none;stroke-opacity:1"
     id="path830-0-3-4-9-1-6"
     sodipodi:type="arc"
     sodipodi:cx="9.9784107"
     sodipodi:cy="11.909701"
     sodipodi:rx="0.80913812"
     sodipodi:ry="0.82178432"
     sodipodi:start="6.2639059"
     sodipodi:end="3.1415927"
     sodipodi:open="true"
     d="m 10.787398,11.893859 a 0.80913812,0.82178432 0 0 1 -0.395445,0.722189 0.80913812,0.82178432 0 0 1 -0.8135998,0.008 0.80913812,0.82178432 0 0 1 -0.4090806,-0.714312" />
  <path
     style="fill:#0089cd;fill-opacity:1;stroke:none;stroke-width:1px;stroke-linecap:butt;stroke-linejoin:miter;stroke-opacity:1"
     d="m 10.794148,5.1549462 v 7.6795368 h 2.258687 L 11.436091,5.1549462 Z"
     id="path966"
     inkscape:connector-curvature="0"
     sodipodi:nodetypes="ccccc" />
  <path
     style="fill:none;fill-opacity:1;stroke:#0089cd;stroke-width:0.29015145;stroke-linecap:round;stroke-miterlimit:4;stroke-dasharray:none;stroke-opacity:1"
     id="path830-6-0-0-4"
     sodipodi:type="arc"
     sodipodi:cx="13.274194"
     sodipodi:cy="10.700994"
     sodipodi:rx="0.80913812"
     sodipodi:ry="0.82178432"
     sodipodi:start="0"
     sodipodi:end="3.1415927"
     sodipodi:open="true"
     d="m 14.083332,10.700994 a 0.80913812,0.82178432 0 0 1 -0.404569,0.711686 0.80913812,0.82178432 0 0 1 -0.809138,0 0.80913812,0.82178432 0 0 1 -0.404569,-0.711687" />
  <path
     style="fill:none;fill-opacity:1;stroke:#0089cd;stroke-width:0.29015145;stroke-linecap:round;stroke-miterlimit:4;stroke-dasharray:none;stroke-opacity:1"
     id="path830-0-8-2-8-2"
     sodipodi:type="arc"
     sodipodi:cx="14.91148"
     sodipodi:cy="10.700994"
     sodipodi:rx="0.80913812"
     sodipodi:ry="0.82178432"
     sodipodi:start="0"
     sodipodi:end="3.1415927"
     sodipodi:open="true"
     d="m 15.720618,10.700994 a 0.80913812,0.82178432 0 0 1 -0.404569,0.711686 0.80913812,0.82178432 0 0 1 -0.809138,0 0.80913812,0.82178432 0 0 1 -0.404569,-0.711687" />
  <path
     style="fill:none;fill-opacity:1;stroke:#0089cd;stroke-width:0.29015145;stroke-linecap:round;stroke-miterlimit:4;stroke-dasharray:none;stroke-opacity:1"
     id="path830-0-3-4-9-1-1"
     sodipodi:type="arc"
     sodipodi:cx="16.540491"
     sodipodi:cy="10.708917"
     sodipodi:rx="0.80913812"
     sodipodi:ry="0.82178432"
     sodipodi:start="6.2639059"
     sodipodi:end="3.1415927"
     sodipodi:open="true"
     d="m 17.349479,10.693074 a 0.80913812,0.82178432 0 0 1 -0.395446,0.722189 0.80913812,0.82178432 0 0 1 -0.813599,0.008 0.80913812,0.82178432 0 0 1 -0.409081,-0.714312" />
  <path
     style="fill:none;fill-opacity:1;stroke:#0089cd;stroke-width:0.29015145;stroke-linecap:round;stroke-miterlimit:4;stroke-dasharray:none;stroke-opacity:1"
     id="path830-6-0-0-4-3"
     sodipodi:type="arc"
     sodipodi:cx="13.416846"
     sodipodi:cy="11.901777"
     sodipodi:rx="0.80913812"
     sodipodi:ry="0.82178432"
     sodipodi:start="0"
     sodipodi:end="3.1415927"
     sodipodi:open="true"
     d="m 14.225984,11.901777 a 0.80913812,0.82178432 0 0 1 -0.404569,0.711686 0.80913812,0.82178432 0 0 1 -0.809138,0 0.80913812,0.82178432 0 0 1 -0.404569,-0.711686" />
  <path
     style="fill:none;fill-opacity:1;stroke:#0089cd;stroke-width:0.29015145;stroke-linecap:round;stroke-miterlimit:4;stroke-dasharray:none;stroke-opacity:1"
     id="path830-0-8-2-8-2-2"
     sodipodi:type="arc"
     sodipodi:cx="15.054133"
     sodipodi:cy="11.901777"
     sodipodi:rx="0.80913812"
     sodipodi:ry="0.82178432"
     sodipodi:start="0"
     sodipodi:end="3.1415927"
     sodipodi:open="true"
     d="m 15.863272,11.901777 a 0.80913812,0.82178432 0 0 1 -0.40457,0.711686 0.80913812,0.82178432 0 0 1 -0.809138,0 0.80913812,0.82178432 0 0 1 -0.404569,-0.711686" />
  <path
     style="fill:none;fill-opacity:1;stroke:#0089cd;stroke-width:0.29015145;stroke-linecap:round;stroke-miterlimit:4;stroke-dasharray:none;stroke-opacity:1"
     id="path830-0-3-4-9-1-1-5"
     sodipodi:type="arc"
     sodipodi:cx="16.683146"
     sodipodi:cy="11.909701"
     sodipodi:rx="0.80913812"
     sodipodi:ry="0.82178432"
     sodipodi:start="6.2639059"
     sodipodi:end="3.1415927"
     sodipodi:open="true"
     d="m 17.492133,11.893859 a 0.80913812,0.82178432 0 0 1 -0.395446,0.722189 0.80913812,0.82178432 0 0 1 -0.813599,0.008 0.80913812,0.82178432 0 0 1 -0.409081,-0.714312" />
</svg>
