<?xml version="1.0" encoding="UTF-8" standalone="no"?>
<!-- Created with Inkscape (http://www.inkscape.org/) -->

<svg
   xmlns:dc="http://purl.org/dc/elements/1.1/"
   xmlns:cc="http://creativecommons.org/ns#"
   xmlns:rdf="http://www.w3.org/1999/02/22-rdf-syntax-ns#"
   xmlns:svg="http://www.w3.org/2000/svg"
   xmlns="http://www.w3.org/2000/svg"
   xmlns:sodipodi="http://sodipodi.sourceforge.net/DTD/sodipodi-0.dtd"
   xmlns:inkscape="http://www.inkscape.org/namespaces/inkscape"
   height="200"
   id="svg2"
   inkscape:output_extension="org.inkscape.output.svg.inkscape"
   inkscape:version="0.92.2 (5c3e80d, 2017-08-06)"
   sodipodi:docname="dam.svg"
   sodipodi:version="0.32"
   version="1.0"
   width="200"
   inkscape:export-filename="C:\Users\jeremy\Pictures\svg\dam.png"
   inkscape:export-xdpi="96"
   inkscape:export-ydpi="96">
  <defs
     id="defs22">
    <inkscape:perspective
       id="perspective24"
       inkscape:persp3d-origin="290 : 193.33333 : 1"
       inkscape:vp_x="0 : 290 : 1"
       inkscape:vp_y="0 : 1000 : 0"
       inkscape:vp_z="580 : 290 : 1"
       sodipodi:type="inkscape:persp3d" />
  </defs>
  <metadata
     id="metadata10">
    <rdf:RDF>
      <cc:Work
         rdf:about="">
        <dc:format>image/svg+xml</dc:format>
        <dc:type
           rdf:resource="http://purl.org/dc/dcmitype/StillImage" />
        <cc:license
           rdf:resource="http://web.resource.org/cc/PublicDomain" />
        <dc:language>en</dc:language>
        <dc:title></dc:title>
      </cc:Work>
    </rdf:RDF>
  </metadata>
  <sodipodi:namedview
     bordercolor="#666666"
     borderopacity="1.0"
     gridtolerance="10.0"
     guidetolerance="10.0"
     id="base"
     inkscape:current-layer="svg2"
     inkscape:cx="98.38513"
     inkscape:cy="57.71461"
     inkscape:pageopacity="0.0"
     inkscape:pageshadow="2"
     inkscape:window-height="705"
     inkscape:window-width="1366"
     inkscape:window-x="-8"
     inkscape:window-y="-8"
     inkscape:zoom="5.0449372"
     objecttolerance="10.0"
     pagecolor="#ffffff"
     showgrid="false"
     inkscape:window-maximized="1"
     inkscape:measure-start="0,0"
     inkscape:measure-end="0,0"
     inkscape:lockguides="true" />
  <rect
     style="fill:#eeeeee;fill-opacity:1;stroke:none;stroke-width:5.44347048;stroke-linecap:round;stroke-linejoin:miter;stroke-miterlimit:4;stroke-dasharray:none;stroke-dashoffset:0;stroke-opacity:1"
     id="rect4532"
     width="200.79305"
     height="136.68173"
     x="0"
     y="36.605217" />
  <g
     id="g1327"
     transform="matrix(0.04083073,0,0,0.04083073,-0.1767767,176.93977)">
    <path
       d="M 66.275,1.768 C 24.94,1.768 1.704,23.139 1.704,66.804 v 450.123 c 0,40.844 20.894,62.229 62.192,62.229 H 515.92 c 41.307,0 62.229,-20.316 62.229,-62.229 V 66.804 c 0,-42.601 -20.922,-65.036 -63.522,-65.036 -0.003,0 -448.494,-0.143 -448.352,0 z"
       id="path1329"
       style="fill:#111111;fill-opacity:0;stroke:#eeeeee;stroke-width:3.40799999;stroke-opacity:0"
       inkscape:connector-curvature="0" />
  </g>
  <g
     id="g2319"
     transform="matrix(0.04083073,0,0,0.04083073,35.725326,178.44255)">
    <path
       d=""
       id="path2323"
       style="fill:#0089cd;stroke:none"
       inkscape:connector-curvature="0" />
  </g>
  <g
     id="g2325"
     transform="matrix(0.04083073,0,0,0.04083073,35.725326,178.44255)">
    <path
       d=""
       id="path2329"
       style="fill:#0089cd;stroke:none"
       inkscape:connector-curvature="0" />
  </g>
  <path
     style="fill:none;fill-opacity:1;stroke:#0089cd;stroke-width:4.74385262;stroke-linecap:round;stroke-miterlimit:4;stroke-dasharray:none;stroke-opacity:1"
     id="path830"
     sodipodi:type="arc"
     sodipodi:cx="19.048073"
     sodipodi:cy="46.809044"
     sodipodi:rx="13.229063"
     sodipodi:ry="13.435823"
     sodipodi:start="0"
     sodipodi:end="3.1415927"
     sodipodi:open="true"
     d="m 32.277136,46.809044 a 13.229063,13.435823 0 0 1 -6.614532,11.635764 13.229063,13.435823 0 0 1 -13.229063,0 13.229063,13.435823 0 0 1 -6.6145312,-11.635765" />
  <path
     style="fill:none;fill-opacity:1;stroke:#0089cd;stroke-width:4.74385262;stroke-linecap:round;stroke-miterlimit:4;stroke-dasharray:none;stroke-opacity:1"
     id="path830-0"
     sodipodi:type="arc"
     sodipodi:cx="45.817001"
     sodipodi:cy="46.809044"
     sodipodi:rx="13.229063"
     sodipodi:ry="13.435823"
     sodipodi:start="0"
     sodipodi:end="3.1415927"
     sodipodi:open="true"
     d="m 59.046064,46.809044 a 13.229063,13.435823 0 0 1 -6.614531,11.635764 13.229063,13.435823 0 0 1 -13.229064,0 13.229063,13.435823 0 0 1 -6.614531,-11.635765" />
  <path
     style="fill:none;fill-opacity:1;stroke:#0089cd;stroke-width:4.74385262;stroke-linecap:round;stroke-miterlimit:4;stroke-dasharray:none;stroke-opacity:1"
     id="path830-0-3"
     sodipodi:type="arc"
     sodipodi:cx="72.450668"
     sodipodi:cy="46.809044"
     sodipodi:rx="13.229063"
     sodipodi:ry="13.435823"
     sodipodi:start="6.2639059"
     sodipodi:end="3.1415927"
     sodipodi:open="true"
     d="M 85.677273,46.550025 A 13.229063,13.435823 0 0 1 79.211902,58.357505 13.229063,13.435823 0 0 1 65.909899,58.48774 13.229063,13.435823 0 0 1 59.221605,46.809043" />
  <path
     style="fill:none;fill-opacity:1;stroke:#0089cd;stroke-width:4.74385262;stroke-linecap:round;stroke-miterlimit:4;stroke-dasharray:none;stroke-opacity:1"
     id="path830-6"
     sodipodi:type="arc"
     sodipodi:cx="19.706688"
     sodipodi:cy="69.811371"
     sodipodi:rx="13.229063"
     sodipodi:ry="13.435823"
     sodipodi:start="0"
     sodipodi:end="3.1415927"
     sodipodi:open="true"
     d="m 32.935751,69.811371 a 13.229063,13.435823 0 0 1 -6.614532,11.635764 13.229063,13.435823 0 0 1 -13.229063,0 A 13.229063,13.435823 0 0 1 6.4776249,69.81137" />
  <path
     style="fill:none;fill-opacity:1;stroke:#0089cd;stroke-width:4.74385262;stroke-linecap:round;stroke-miterlimit:4;stroke-dasharray:none;stroke-opacity:1"
     id="path830-0-8"
     sodipodi:type="arc"
     sodipodi:cx="46.475624"
     sodipodi:cy="69.811371"
     sodipodi:rx="13.229063"
     sodipodi:ry="13.435823"
     sodipodi:start="0"
     sodipodi:end="3.1415927"
     sodipodi:open="true"
     d="m 59.704687,69.811371 a 13.229063,13.435823 0 0 1 -6.614532,11.635764 13.229063,13.435823 0 0 1 -13.229063,0 13.229063,13.435823 0 0 1 -6.614531,-11.635765" />
  <path
     style="fill:none;fill-opacity:1;stroke:#0089cd;stroke-width:4.74385262;stroke-linecap:round;stroke-miterlimit:4;stroke-dasharray:none;stroke-opacity:1"
     id="path830-0-3-4"
     sodipodi:type="arc"
     sodipodi:cx="73.109268"
     sodipodi:cy="69.811371"
     sodipodi:rx="13.229063"
     sodipodi:ry="13.435823"
     sodipodi:start="6.2639059"
     sodipodi:end="3.1415927"
     sodipodi:open="true"
     d="M 86.335873,69.552352 A 13.229063,13.435823 0 0 1 79.870501,81.359832 13.229063,13.435823 0 0 1 66.568499,81.490067 13.229063,13.435823 0 0 1 59.880205,69.81137" />
  <path
     style="fill:none;fill-opacity:1;stroke:#0089cd;stroke-width:4.74385262;stroke-linecap:round;stroke-miterlimit:4;stroke-dasharray:none;stroke-opacity:1"
     id="path830-6-0"
     sodipodi:type="arc"
     sodipodi:cx="19.317963"
     sodipodi:cy="91.191093"
     sodipodi:rx="13.229063"
     sodipodi:ry="13.435823"
     sodipodi:start="0"
     sodipodi:end="3.1415927"
     sodipodi:open="true"
     d="m 32.547026,91.191093 a 13.229063,13.435823 0 0 1 -6.614532,11.635767 13.229063,13.435823 0 0 1 -13.229063,0 13.229063,13.435823 0 0 1 -6.6145314,-11.635767" />
  <path
     style="fill:none;fill-opacity:1;stroke:#0089cd;stroke-width:4.74385262;stroke-linecap:round;stroke-miterlimit:4;stroke-dasharray:none;stroke-opacity:1"
     id="path830-0-8-2"
     sodipodi:type="arc"
     sodipodi:cx="46.086906"
     sodipodi:cy="91.191093"
     sodipodi:rx="13.229063"
     sodipodi:ry="13.435823"
     sodipodi:start="0"
     sodipodi:end="3.1415927"
     sodipodi:open="true"
     d="m 59.315969,91.191093 a 13.229063,13.435823 0 0 1 -6.614531,11.635767 13.229063,13.435823 0 0 1 -13.229063,0 13.229063,13.435823 0 0 1 -6.614532,-11.635767" />
  <path
     style="fill:none;fill-opacity:1;stroke:#0089cd;stroke-width:4.74385262;stroke-linecap:round;stroke-miterlimit:4;stroke-dasharray:none;stroke-opacity:1"
     id="path830-0-3-4-9"
     sodipodi:type="arc"
     sodipodi:cx="72.720543"
     sodipodi:cy="91.191093"
     sodipodi:rx="13.229063"
     sodipodi:ry="13.435823"
     sodipodi:start="6.2639059"
     sodipodi:end="3.1415927"
     sodipodi:open="true"
     d="M 85.947147,90.932075 A 13.229063,13.435823 0 0 1 79.481776,102.73955 13.229063,13.435823 0 0 1 66.179773,102.86979 13.229063,13.435823 0 0 1 59.49148,91.191093" />
  <path
     style="fill:none;fill-opacity:1;stroke:#0089cd;stroke-width:4.74385262;stroke-linecap:round;stroke-miterlimit:4;stroke-dasharray:none;stroke-opacity:1"
     id="path830-6-0-0"
     sodipodi:type="arc"
     sodipodi:cx="19.317963"
     sodipodi:cy="112.95952"
     sodipodi:rx="13.229063"
     sodipodi:ry="13.435823"
     sodipodi:start="0"
     sodipodi:end="3.1415927"
     sodipodi:open="true"
     d="m 32.547026,112.95952 a 13.229063,13.435823 0 0 1 -6.614532,11.63576 13.229063,13.435823 0 0 1 -13.229063,0 13.229063,13.435823 0 0 1 -6.6145314,-11.63576" />
  <path
     style="fill:none;fill-opacity:1;stroke:#0089cd;stroke-width:4.74385262;stroke-linecap:round;stroke-miterlimit:4;stroke-dasharray:none;stroke-opacity:1"
     id="path830-0-8-2-8"
     sodipodi:type="arc"
     sodipodi:cx="46.086906"
     sodipodi:cy="112.95952"
     sodipodi:rx="13.229063"
     sodipodi:ry="13.435823"
     sodipodi:start="0"
     sodipodi:end="3.1415927"
     sodipodi:open="true"
     d="m 59.315969,112.95952 a 13.229063,13.435823 0 0 1 -6.614531,11.63576 13.229063,13.435823 0 0 1 -13.229063,0 13.229063,13.435823 0 0 1 -6.614532,-11.63576" />
  <path
     style="fill:none;fill-opacity:1;stroke:#0089cd;stroke-width:4.74385262;stroke-linecap:round;stroke-miterlimit:4;stroke-dasharray:none;stroke-opacity:1"
     id="path830-0-3-4-9-1"
     sodipodi:type="arc"
     sodipodi:cx="72.720543"
     sodipodi:cy="112.95952"
     sodipodi:rx="13.229063"
     sodipodi:ry="13.435823"
     sodipodi:start="6.2639059"
     sodipodi:end="3.1415927"
     sodipodi:open="true"
     d="m 85.947147,112.7005 a 13.229063,13.435823 0 0 1 -6.465371,11.80748 13.229063,13.435823 0 0 1 -13.302003,0.13023 13.229063,13.435823 0 0 1 -6.688293,-11.67869" />
  <path
     style="fill:none;fill-opacity:1;stroke:#0089cd;stroke-width:4.74385262;stroke-linecap:round;stroke-miterlimit:4;stroke-dasharray:none;stroke-opacity:1"
     id="path830-6-0-3"
     sodipodi:type="arc"
     sodipodi:cx="19.317963"
     sodipodi:cy="133.04347"
     sodipodi:rx="13.229063"
     sodipodi:ry="13.435823"
     sodipodi:start="0"
     sodipodi:end="3.1415927"
     sodipodi:open="true"
     d="m 32.547026,133.04347 a 13.229063,13.435823 0 0 1 -6.614532,11.63577 13.229063,13.435823 0 0 1 -13.229063,0 13.229063,13.435823 0 0 1 -6.6145314,-11.63577" />
  <path
     style="fill:none;fill-opacity:1;stroke:#0089cd;stroke-width:4.74385262;stroke-linecap:round;stroke-miterlimit:4;stroke-dasharray:none;stroke-opacity:1"
     id="path830-0-8-2-6"
     sodipodi:type="arc"
     sodipodi:cx="46.086906"
     sodipodi:cy="133.04347"
     sodipodi:rx="13.229063"
     sodipodi:ry="13.435823"
     sodipodi:start="0"
     sodipodi:end="3.1415927"
     sodipodi:open="true"
     d="m 59.315969,133.04347 a 13.229063,13.435823 0 0 1 -6.614531,11.63577 13.229063,13.435823 0 0 1 -13.229063,0 13.229063,13.435823 0 0 1 -6.614532,-11.63577" />
  <path
     style="fill:none;fill-opacity:1;stroke:#0089cd;stroke-width:4.74385262;stroke-linecap:round;stroke-miterlimit:4;stroke-dasharray:none;stroke-opacity:1"
     id="path830-0-3-4-9-7"
     sodipodi:type="arc"
     sodipodi:cx="72.720543"
     sodipodi:cy="133.17322"
     sodipodi:rx="13.229063"
     sodipodi:ry="13.435823"
     sodipodi:start="6.2639059"
     sodipodi:end="3.1415927"
     sodipodi:open="true"
     d="m 85.947147,132.9142 a 13.229063,13.435823 0 0 1 -6.465371,11.80748 13.229063,13.435823 0 0 1 -13.302003,0.13023 13.229063,13.435823 0 0 1 -6.688293,-11.67869" />
  <path
     style="fill:none;fill-opacity:1;stroke:#0089cd;stroke-width:4.79844189;stroke-linecap:round;stroke-miterlimit:4;stroke-dasharray:none;stroke-opacity:1"
     id="path830-6-0-0-5"
     sodipodi:type="arc"
     sodipodi:cx="18.929245"
     sodipodi:cy="152.70058"
     sodipodi:rx="13.588687"
     sodipodi:ry="13.383015"
     sodipodi:start="0"
     sodipodi:end="3.1415927"
     sodipodi:open="true"
     d="m 32.517932,152.70058 a 13.588687,13.383015 0 0 1 -6.794344,11.59003 13.588687,13.383015 0 0 1 -13.588687,0 13.588687,13.383015 0 0 1 -6.7943429,-11.59003" />
  <path
     style="fill:none;fill-opacity:1;stroke:#0089cd;stroke-width:4.74385262;stroke-linecap:round;stroke-miterlimit:4;stroke-dasharray:none;stroke-opacity:1"
     id="path830-0-8-2-8-6"
     sodipodi:type="arc"
     sodipodi:cx="46.086906"
     sodipodi:cy="152.67587"
     sodipodi:rx="13.229063"
     sodipodi:ry="13.435823"
     sodipodi:start="0"
     sodipodi:end="3.1415927"
     sodipodi:open="true"
     d="m 59.315969,152.67587 a 13.229063,13.435823 0 0 1 -6.614531,11.63577 13.229063,13.435823 0 0 1 -13.229063,0 13.229063,13.435823 0 0 1 -6.614532,-11.63577" />
  <path
     style="fill:none;fill-opacity:1;stroke:#0089cd;stroke-width:4.74385262;stroke-linecap:round;stroke-miterlimit:4;stroke-dasharray:none;stroke-opacity:1"
     id="path830-0-3-4-9-1-6"
     sodipodi:type="arc"
     sodipodi:cx="72.720543"
     sodipodi:cy="152.80534"
     sodipodi:rx="13.229063"
     sodipodi:ry="13.435823"
     sodipodi:start="6.2639059"
     sodipodi:end="3.1415927"
     sodipodi:open="true"
     d="m 85.947147,152.54632 a 13.229063,13.435823 0 0 1 -6.465371,11.80748 13.229063,13.435823 0 0 1 -13.302003,0.13024 13.229063,13.435823 0 0 1 -6.688293,-11.6787" />
  <path
     style="fill:#0089cd;fill-opacity:1;stroke:none;stroke-width:16.34957314px;stroke-linecap:butt;stroke-linejoin:miter;stroke-opacity:1"
     d="M 86.0575,42.368095 V 167.92514 h 36.92857 L 96.55299,42.368095 Z"
     id="path966"
     inkscape:connector-curvature="0"
     sodipodi:nodetypes="ccccc" />
  <path
     style="fill:none;fill-opacity:1;stroke:#0089cd;stroke-width:4.74385262;stroke-linecap:round;stroke-miterlimit:4;stroke-dasharray:none;stroke-opacity:1"
     id="path830-6-0-0-4"
     sodipodi:type="arc"
     sodipodi:cx="126.60519"
     sodipodi:cy="133.04347"
     sodipodi:rx="13.229063"
     sodipodi:ry="13.435823"
     sodipodi:start="0"
     sodipodi:end="3.1415927"
     sodipodi:open="true"
     d="m 139.83425,133.04347 a 13.229063,13.435823 0 0 1 -6.61453,11.63577 13.229063,13.435823 0 0 1 -13.22907,0 13.229063,13.435823 0 0 1 -6.61453,-11.63577" />
  <path
     style="fill:none;fill-opacity:1;stroke:#0089cd;stroke-width:4.74385262;stroke-linecap:round;stroke-miterlimit:4;stroke-dasharray:none;stroke-opacity:1"
     id="path830-0-8-2-8-2"
     sodipodi:type="arc"
     sodipodi:cx="153.37411"
     sodipodi:cy="133.04347"
     sodipodi:rx="13.229063"
     sodipodi:ry="13.435823"
     sodipodi:start="0"
     sodipodi:end="3.1415927"
     sodipodi:open="true"
     d="m 166.60318,133.04347 a 13.229063,13.435823 0 0 1 -6.61453,11.63577 13.229063,13.435823 0 0 1 -13.22907,0 13.229063,13.435823 0 0 1 -6.61453,-11.63577" />
  <path
     style="fill:none;fill-opacity:1;stroke:#0089cd;stroke-width:4.74385262;stroke-linecap:round;stroke-miterlimit:4;stroke-dasharray:none;stroke-opacity:1"
     id="path830-0-3-4-9-1-1"
     sodipodi:type="arc"
     sodipodi:cx="180.00777"
     sodipodi:cy="133.17322"
     sodipodi:rx="13.229063"
     sodipodi:ry="13.435823"
     sodipodi:start="6.2639059"
     sodipodi:end="3.1415927"
     sodipodi:open="true"
     d="m 193.23437,132.9142 a 13.229063,13.435823 0 0 1 -6.46537,11.80748 13.229063,13.435823 0 0 1 -13.302,0.13023 13.229063,13.435823 0 0 1 -6.6883,-11.67869" />
  <path
     style="fill:none;fill-opacity:1;stroke:#0089cd;stroke-width:4.74385262;stroke-linecap:round;stroke-miterlimit:4;stroke-dasharray:none;stroke-opacity:1"
     id="path830-6-0-0-4-3"
     sodipodi:type="arc"
     sodipodi:cx="128.93752"
     sodipodi:cy="152.67587"
     sodipodi:rx="13.229063"
     sodipodi:ry="13.435823"
     sodipodi:start="0"
     sodipodi:end="3.1415927"
     sodipodi:open="true"
     d="m 142.16658,152.67587 a 13.229063,13.435823 0 0 1 -6.61453,11.63577 13.229063,13.435823 0 0 1 -13.22907,0 13.229063,13.435823 0 0 1 -6.61453,-11.63577" />
  <path
     style="fill:none;fill-opacity:1;stroke:#0089cd;stroke-width:4.74385262;stroke-linecap:round;stroke-miterlimit:4;stroke-dasharray:none;stroke-opacity:1"
     id="path830-0-8-2-8-2-2"
     sodipodi:type="arc"
     sodipodi:cx="155.70645"
     sodipodi:cy="152.67587"
     sodipodi:rx="13.229063"
     sodipodi:ry="13.435823"
     sodipodi:start="0"
     sodipodi:end="3.1415927"
     sodipodi:open="true"
     d="m 168.93551,152.67587 a 13.229063,13.435823 0 0 1 -6.61453,11.63577 13.229063,13.435823 0 0 1 -13.22906,0 13.229063,13.435823 0 0 1 -6.61453,-11.63577" />
  <path
     style="fill:none;fill-opacity:1;stroke:#0089cd;stroke-width:4.74385262;stroke-linecap:round;stroke-miterlimit:4;stroke-dasharray:none;stroke-opacity:1"
     id="path830-0-3-4-9-1-1-5"
     sodipodi:type="arc"
     sodipodi:cx="182.3401"
     sodipodi:cy="152.80534"
     sodipodi:rx="13.229063"
     sodipodi:ry="13.435823"
     sodipodi:start="6.2639059"
     sodipodi:end="3.1415927"
     sodipodi:open="true"
     d="m 195.56671,152.54632 a 13.229063,13.435823 0 0 1 -6.46537,11.80748 13.229063,13.435823 0 0 1 -13.30201,0.13024 13.229063,13.435823 0 0 1 -6.68829,-11.6787" />
</svg>
