<?xml version="1.0" encoding="UTF-8" standalone="no"?>
<!-- Created with Inkscape (http://www.inkscape.org/) -->

<svg
   xmlns:dc="http://purl.org/dc/elements/1.1/"
   xmlns:cc="http://creativecommons.org/ns#"
   xmlns:rdf="http://www.w3.org/1999/02/22-rdf-syntax-ns#"
   xmlns:svg="http://www.w3.org/2000/svg"
   xmlns="http://www.w3.org/2000/svg"
   xmlns:sodipodi="http://sodipodi.sourceforge.net/DTD/sodipodi-0.dtd"
   xmlns:inkscape="http://www.inkscape.org/namespaces/inkscape"
   height="200"
   id="svg2"
   inkscape:output_extension="org.inkscape.output.svg.inkscape"
   inkscape:version="0.92.2 (5c3e80d, 2017-08-06)"
   sodipodi:docname="diving.svg"
   sodipodi:version="0.32"
   version="1.0"
   width="200"
   inkscape:export-filename="C:\Users\jeremy\Pictures\svg\diving.png"
   inkscape:export-xdpi="96"
   inkscape:export-ydpi="96">
  <defs
     id="defs22">
    <inkscape:perspective
       id="perspective24"
       inkscape:persp3d-origin="290 : 193.33333 : 1"
       inkscape:vp_x="0 : 290 : 1"
       inkscape:vp_y="0 : 1000 : 0"
       inkscape:vp_z="580 : 290 : 1"
       sodipodi:type="inkscape:persp3d" />
  </defs>
  <metadata
     id="metadata10">
    <rdf:RDF>
      <cc:Work
         rdf:about="">
        <dc:format>image/svg+xml</dc:format>
        <dc:type
           rdf:resource="http://purl.org/dc/dcmitype/StillImage" />
        <cc:license
           rdf:resource="http://web.resource.org/cc/PublicDomain" />
        <dc:language>en</dc:language>
        <dc:title></dc:title>
      </cc:Work>
    </rdf:RDF>
  </metadata>
  <sodipodi:namedview
     bordercolor="#666666"
     borderopacity="1.0"
     gridtolerance="10.0"
     guidetolerance="10.0"
     id="base"
     inkscape:current-layer="svg2"
     inkscape:cx="8.2895468"
     inkscape:cy="15.403137"
     inkscape:pageopacity="0.0"
     inkscape:pageshadow="2"
     inkscape:window-height="705"
     inkscape:window-width="1366"
     inkscape:window-x="-8"
     inkscape:window-y="-8"
     inkscape:zoom="1"
     objecttolerance="10.0"
     pagecolor="#ffffff"
     showgrid="false"
     inkscape:window-maximized="1"
     inkscape:measure-start="0,0"
     inkscape:measure-end="0,0"
     inkscape:lockguides="true" />
  <g
     id="g1327"
     transform="matrix(0.32710145,0,0,0.32710145,-0.1767767,10.656562)">
    <path
       d="M 66.275,1.768 C 24.94,1.768 1.704,23.139 1.704,66.804 v 450.123 c 0,40.844 20.894,62.229 62.192,62.229 H 515.92 c 41.307,0 62.229,-20.316 62.229,-62.229 V 66.804 c 0,-42.601 -20.922,-65.036 -63.522,-65.036 -0.003,0 -448.494,-0.143 -448.352,0 z"
       id="path1329"
       style="fill:#111111;fill-opacity:0;stroke:#eeeeee;stroke-width:3.40799999;stroke-opacity:0"
       inkscape:connector-curvature="0" />
  </g>
  <g
     id="g2319"
     transform="matrix(0.04083073,0,0,0.04083073,35.725326,178.44255)">
    <path
       d=""
       id="path2323"
       style="fill:#0089cd;stroke:none"
       inkscape:connector-curvature="0" />
  </g>
  <g
     id="g2325"
     transform="matrix(0.04083073,0,0,0.04083073,35.725326,178.44255)">
    <path
       d=""
       id="path2329"
       style="fill:#0089cd;stroke:none"
       inkscape:connector-curvature="0" />
  </g>
  <path
     style="fill:#0089cd;fill-opacity:1;stroke:none;stroke-width:10.5320406px;stroke-linecap:butt;stroke-linejoin:miter;stroke-opacity:1"
     d="M 105.71659,7.77381 C 59.565172,8.3727616 25.478346,41.035119 25.401136,88.388999 c -0.0703,43.104841 80.315454,109.384811 80.315454,109.384811 0,0 75.99996,-64.43561 76.11988,-109.384811 C 181.94839,46.429038 151.868,7.77381 105.71659,7.77381 Z"
     id="path1492"
     inkscape:connector-curvature="0"
     sodipodi:nodetypes="cscsc" />
  <path
     style="fill:#0089cd;fill-opacity:1;stroke:#ffffff;stroke-width:2.71428585;stroke-linecap:butt;stroke-linejoin:miter;stroke-miterlimit:4;stroke-dasharray:none;stroke-opacity:1"
     d="M 105.56006,14.657148 C 62.852625,15.211767 31.309481,45.436333 31.238033,89.256485 31.172981,129.14482 105.56006,190.47871 105.56006,190.47871 c 0,0 70.32858,-59.62725 70.43954,-101.222225 0.10359,-38.828761 -27.73211,-74.599337 -70.43954,-74.599337 z"
     id="path1492-2"
     inkscape:connector-curvature="0"
     sodipodi:nodetypes="cscsc"
     inkscape:transform-center-x="-11.911719"
     inkscape:transform-center-y="28.111661" />
  <circle
     style="fill:#ffffff;fill-opacity:1;stroke:none;stroke-width:11.37379265;stroke-miterlimit:4;stroke-dasharray:none;stroke-opacity:1"
     id="path1494"
     cx="103.61893"
     cy="84.678642"
     r="63.333332" />
  <path
     style="fill:none;fill-opacity:1;stroke:#0089cd;stroke-width:2.62517977;stroke-linecap:round;stroke-miterlimit:4;stroke-dasharray:none;stroke-opacity:1"
     id="path830"
     sodipodi:type="arc"
     sodipodi:cx="51.743343"
     sodipodi:cy="106.26794"
     sodipodi:rx="7.3207736"
     sodipodi:ry="7.4351912"
     sodipodi:start="0"
     sodipodi:end="3.1415927"
     sodipodi:open="true"
     d="m 59.064117,106.26794 a 7.3207736,7.4351912 0 0 1 -3.660387,6.43906 7.3207736,7.4351912 0 0 1 -7.320774,0 7.3207736,7.4351912 0 0 1 -3.660386,-6.43906" />
  <path
     style="fill:none;fill-opacity:1;stroke:#0089cd;stroke-width:2.62517977;stroke-linecap:round;stroke-miterlimit:4;stroke-dasharray:none;stroke-opacity:1"
     id="path830-0"
     sodipodi:type="arc"
     sodipodi:cx="66.556892"
     sodipodi:cy="106.26794"
     sodipodi:rx="7.3207736"
     sodipodi:ry="7.4351912"
     sodipodi:start="0"
     sodipodi:end="3.1415927"
     sodipodi:open="true"
     d="m 73.877666,106.26794 a 7.3207736,7.4351912 0 0 1 -3.660387,6.43906 7.3207736,7.4351912 0 0 1 -7.320774,0 7.3207736,7.4351912 0 0 1 -3.660386,-6.43906" />
  <path
     style="fill:none;fill-opacity:1;stroke:#0089cd;stroke-width:2.62517977;stroke-linecap:round;stroke-miterlimit:4;stroke-dasharray:none;stroke-opacity:1"
     id="path830-0-3"
     sodipodi:type="arc"
     sodipodi:cx="81.295563"
     sodipodi:cy="106.26794"
     sodipodi:rx="7.3207736"
     sodipodi:ry="7.4351912"
     sodipodi:start="6.2639059"
     sodipodi:end="3.1415927"
     sodipodi:open="true"
     d="m 88.614976,106.1246 a 7.3207736,7.4351912 0 0 1 -3.577844,6.53409 7.3207736,7.4351912 0 0 1 -7.361137,0.0721 7.3207736,7.4351912 0 0 1 -3.701206,-6.46282" />
  <path
     style="fill:none;fill-opacity:1;stroke:#0089cd;stroke-width:2.62517977;stroke-linecap:round;stroke-miterlimit:4;stroke-dasharray:none;stroke-opacity:1"
     id="path830-8"
     sodipodi:type="arc"
     sodipodi:cx="96.486855"
     sodipodi:cy="106.26794"
     sodipodi:rx="7.3207736"
     sodipodi:ry="7.4351912"
     sodipodi:start="0"
     sodipodi:end="3.1415927"
     sodipodi:open="true"
     d="m 103.80763,106.26794 a 7.3207736,7.4351912 0 0 1 -3.66039,6.43906 7.3207736,7.4351912 0 0 1 -7.320772,0 7.3207736,7.4351912 0 0 1 -3.660387,-6.43906" />
  <path
     style="fill:none;fill-opacity:1;stroke:#0089cd;stroke-width:2.62517977;stroke-linecap:round;stroke-miterlimit:4;stroke-dasharray:none;stroke-opacity:1"
     id="path830-0-7"
     sodipodi:type="arc"
     sodipodi:cx="111.30039"
     sodipodi:cy="106.26794"
     sodipodi:rx="7.3207736"
     sodipodi:ry="7.4351912"
     sodipodi:start="0"
     sodipodi:end="3.1415927"
     sodipodi:open="true"
     d="m 118.62117,106.26794 a 7.3207736,7.4351912 0 0 1 -3.66039,6.43906 7.3207736,7.4351912 0 0 1 -7.32077,0 7.3207736,7.4351912 0 0 1 -3.66039,-6.43906" />
  <path
     style="fill:none;fill-opacity:1;stroke:#0089cd;stroke-width:2.62517977;stroke-linecap:round;stroke-miterlimit:4;stroke-dasharray:none;stroke-opacity:1"
     id="path830-0-3-0"
     sodipodi:type="arc"
     sodipodi:cx="126.03909"
     sodipodi:cy="106.26794"
     sodipodi:rx="7.3207736"
     sodipodi:ry="7.4351912"
     sodipodi:start="6.2639059"
     sodipodi:end="3.1415927"
     sodipodi:open="true"
     d="m 133.35851,106.1246 a 7.3207736,7.4351912 0 0 1 -3.57785,6.53409 7.3207736,7.4351912 0 0 1 -7.36114,0.0721 7.3207736,7.4351912 0 0 1 -3.7012,-6.46282" />
  <path
     style="fill:none;fill-opacity:1;stroke:#0089cd;stroke-width:2.62517977;stroke-linecap:round;stroke-miterlimit:4;stroke-dasharray:none;stroke-opacity:1"
     id="path830-9"
     sodipodi:type="arc"
     sodipodi:cx="140.80014"
     sodipodi:cy="106.69812"
     sodipodi:rx="7.3207736"
     sodipodi:ry="7.4351912"
     sodipodi:start="0"
     sodipodi:end="3.1415927"
     sodipodi:open="true"
     d="m 148.12091,106.69812 a 7.3207736,7.4351912 0 0 1 -3.66038,6.43906 7.3207736,7.4351912 0 0 1 -7.32078,0 7.3207736,7.4351912 0 0 1 -3.66038,-6.43906" />
  <path
     style="fill:none;fill-opacity:1;stroke:#0089cd;stroke-width:2.62517977;stroke-linecap:round;stroke-miterlimit:4;stroke-dasharray:none;stroke-opacity:1"
     id="path830-0-31"
     sodipodi:type="arc"
     sodipodi:cx="155.61369"
     sodipodi:cy="106.69812"
     sodipodi:rx="7.3207736"
     sodipodi:ry="7.4351912"
     sodipodi:start="0"
     sodipodi:end="3.1415927"
     sodipodi:open="true"
     d="m 162.93447,106.69812 a 7.3207736,7.4351912 0 0 1 -3.66039,6.43906 7.3207736,7.4351912 0 0 1 -7.32077,0 7.3207736,7.4351912 0 0 1 -3.66039,-6.43906" />
  <circle
     style="fill:#0089cd;fill-opacity:1;stroke:none;stroke-width:2.54270792;stroke-linecap:round;stroke-miterlimit:4;stroke-dasharray:none;stroke-opacity:1"
     id="path1643"
     cx="129.37593"
     cy="70.390434"
     r="6.7857141" />
  <rect
     style="fill:#0089cd;fill-opacity:1;stroke:none;stroke-width:1.05734622;stroke-linecap:round;stroke-miterlimit:4;stroke-dasharray:none;stroke-opacity:1"
     id="rect1645"
     width="32.729244"
     height="6.0114937"
     x="120.18913"
     y="-64.555145"
     ry="2.748287"
     rx="2.6472816"
     transform="rotate(57.709826)"
     inkscape:transform-center-y="0.64987615"
     inkscape:transform-center-x="0.15432644" />
  <rect
     style="fill:#0089cd;fill-opacity:1;stroke:none;stroke-width:1.05734622;stroke-linecap:round;stroke-miterlimit:4;stroke-dasharray:none;stroke-opacity:1"
     id="rect1645-8"
     width="32.729244"
     height="6.0114937"
     x="77.826042"
     y="-36.33596"
     ry="2.748287"
     rx="2.6472816"
     transform="rotate(53.038857)"
     inkscape:transform-center-y="0.66027451"
     inkscape:transform-center-x="0.10088982" />
  <rect
     style="fill:#0089cd;fill-opacity:1;stroke:none;stroke-width:1.19884491;stroke-linecap:round;stroke-miterlimit:4;stroke-dasharray:none;stroke-opacity:1"
     id="rect1645-8-8"
     width="33.038124"
     height="7.6558709"
     x="97.159592"
     y="40.117359"
     ry="3.5000503"
     rx="2.6722651"
     transform="matrix(0.9758835,0.21829199,-0.135073,0.99083565,0,0)"
     inkscape:transform-center-y="0.70558839"
     inkscape:transform-center-x="-0.37780337" />
</svg>
