<?xml version="1.0" encoding="UTF-8" standalone="no"?>
<!-- Created with Inkscape (http://www.inkscape.org/) -->

<svg
   xmlns:dc="http://purl.org/dc/elements/1.1/"
   xmlns:cc="http://creativecommons.org/ns#"
   xmlns:rdf="http://www.w3.org/1999/02/22-rdf-syntax-ns#"
   xmlns:svg="http://www.w3.org/2000/svg"
   xmlns="http://www.w3.org/2000/svg"
   xmlns:sodipodi="http://sodipodi.sourceforge.net/DTD/sodipodi-0.dtd"
   xmlns:inkscape="http://www.inkscape.org/namespaces/inkscape"
   height="200"
   id="svg2"
   inkscape:output_extension="org.inkscape.output.svg.inkscape"
   inkscape:version="0.92.2 (5c3e80d, 2017-08-06)"
   sodipodi:docname="diving.svg"
   sodipodi:version="0.32"
   version="1.0"
   width="200"
   inkscape:export-filename="C:\Users\jeremy\Pictures\svg\diving.png"
   inkscape:export-xdpi="96"
   inkscape:export-ydpi="96">
  <defs
     id="defs22">
    <inkscape:perspective
       id="perspective24"
       inkscape:persp3d-origin="290 : 193.33333 : 1"
       inkscape:vp_x="0 : 290 : 1"
       inkscape:vp_y="0 : 1000 : 0"
       inkscape:vp_z="580 : 290 : 1"
       sodipodi:type="inkscape:persp3d" />
  </defs>
  <metadata
     id="metadata10">
    <rdf:RDF>
      <cc:Work
         rdf:about="">
        <dc:format>image/svg+xml</dc:format>
        <dc:type
           rdf:resource="http://purl.org/dc/dcmitype/StillImage" />
        <cc:license
           rdf:resource="http://web.resource.org/cc/PublicDomain" />
        <dc:language>en</dc:language>
        <dc:title />
      </cc:Work>
    </rdf:RDF>
  </metadata>
  <sodipodi:namedview
     bordercolor="#666666"
     borderopacity="1.0"
     gridtolerance="10.0"
     guidetolerance="10.0"
     id="base"
     inkscape:current-layer="svg2"
     inkscape:cx="-75.438052"
     inkscape:cy="15.403137"
     inkscape:pageopacity="0.0"
     inkscape:pageshadow="2"
     inkscape:window-height="705"
     inkscape:window-width="1366"
     inkscape:window-x="-8"
     inkscape:window-y="-8"
     inkscape:zoom="1"
     objecttolerance="10.0"
     pagecolor="#ffffff"
     showgrid="false"
     inkscape:window-maximized="1"
     inkscape:measure-start="0,0"
     inkscape:measure-end="0,0"
     inkscape:lockguides="true" />
  <g
     id="g1327"
     transform="matrix(0.32710145,0,0,0.32710145,-0.1767767,10.656562)">
    <path
       d="M 66.275,1.768 C 24.94,1.768 1.704,23.139 1.704,66.804 v 450.123 c 0,40.844 20.894,62.229 62.192,62.229 H 515.92 c 41.307,0 62.229,-20.316 62.229,-62.229 V 66.804 c 0,-42.601 -20.922,-65.036 -63.522,-65.036 -0.003,0 -448.494,-0.143 -448.352,0 z"
       id="path1329"
       style="fill:#111111;fill-opacity:0;stroke:#eeeeee;stroke-width:3.40799999;stroke-opacity:0"
       inkscape:connector-curvature="0" />
  </g>
  <g
     id="g2319"
     transform="matrix(0.04083073,0,0,0.04083073,35.725326,178.44255)">
    <path
       d=""
       id="path2323"
       style="fill:#0089cd;stroke:none"
       inkscape:connector-curvature="0" />
  </g>
  <g
     id="g2325"
     transform="matrix(0.04083073,0,0,0.04083073,35.725326,178.44255)">
    <path
       d=""
       id="path2329"
       style="fill:#0089cd;stroke:none"
       inkscape:connector-curvature="0" />
  </g>
  <path
     style="fill:none;fill-opacity:1;stroke:#0089cd;stroke-width:4.22586489;stroke-linecap:round;stroke-miterlimit:4;stroke-dasharray:none;stroke-opacity:1"
     id="path830"
     sodipodi:type="arc"
     sodipodi:cx="18.007557"
     sodipodi:cy="143.67285"
     sodipodi:rx="11.784565"
     sodipodi:ry="11.968748"
     sodipodi:start="0"
     sodipodi:end="3.1415927"
     sodipodi:open="true"
     d="m 29.792122,143.67285 a 11.784565,11.968748 0 0 1 -5.892283,10.36524 11.784565,11.968748 0 0 1 -11.784565,0 11.784565,11.968748 0 0 1 -5.8922821,-10.36524" />
  <path
     style="fill:none;fill-opacity:1;stroke:#0089cd;stroke-width:4.22586489;stroke-linecap:round;stroke-miterlimit:4;stroke-dasharray:none;stroke-opacity:1"
     id="path830-0"
     sodipodi:type="arc"
     sodipodi:cx="41.853569"
     sodipodi:cy="143.67285"
     sodipodi:rx="11.784565"
     sodipodi:ry="11.968748"
     sodipodi:start="0"
     sodipodi:end="3.1415927"
     sodipodi:open="true"
     d="m 53.638134,143.67285 a 11.784565,11.968748 0 0 1 -5.892283,10.36524 11.784565,11.968748 0 0 1 -11.784565,0 11.784565,11.968748 0 0 1 -5.892282,-10.36524" />
  <path
     style="fill:none;fill-opacity:1;stroke:#0089cd;stroke-width:4.22586489;stroke-linecap:round;stroke-miterlimit:4;stroke-dasharray:none;stroke-opacity:1"
     id="path830-0-3"
     sodipodi:type="arc"
     sodipodi:cx="65.579041"
     sodipodi:cy="143.67285"
     sodipodi:rx="11.784565"
     sodipodi:ry="11.968748"
     sodipodi:start="6.2639059"
     sodipodi:end="3.1415927"
     sodipodi:open="true"
     d="m 77.361415,143.44212 a 11.784565,11.968748 0 0 1 -5.759409,10.5182 11.784565,11.968748 0 0 1 -11.84954,0.11602 11.784565,11.968748 0 0 1 -5.95799,-10.40349" />
  <path
     style="fill:none;fill-opacity:1;stroke:#0089cd;stroke-width:4.22586489;stroke-linecap:round;stroke-miterlimit:4;stroke-dasharray:none;stroke-opacity:1"
     id="path830-8"
     sodipodi:type="arc"
     sodipodi:cx="90.033112"
     sodipodi:cy="143.67285"
     sodipodi:rx="11.784565"
     sodipodi:ry="11.968748"
     sodipodi:start="0"
     sodipodi:end="3.1415927"
     sodipodi:open="true"
     d="m 101.81768,143.67285 a 11.784565,11.968748 0 0 1 -5.892286,10.36524 11.784565,11.968748 0 0 1 -11.784565,0 11.784565,11.968748 0 0 1 -5.892282,-10.36524" />
  <path
     style="fill:none;fill-opacity:1;stroke:#0089cd;stroke-width:4.22586489;stroke-linecap:round;stroke-miterlimit:4;stroke-dasharray:none;stroke-opacity:1"
     id="path830-0-7"
     sodipodi:type="arc"
     sodipodi:cx="113.8791"
     sodipodi:cy="143.67285"
     sodipodi:rx="11.784565"
     sodipodi:ry="11.968748"
     sodipodi:start="0"
     sodipodi:end="3.1415927"
     sodipodi:open="true"
     d="m 125.66366,143.67285 a 11.784565,11.968748 0 0 1 -5.89228,10.36524 11.784565,11.968748 0 0 1 -11.78457,0 11.784565,11.968748 0 0 1 -5.89228,-10.36524" />
  <path
     style="fill:none;fill-opacity:1;stroke:#0089cd;stroke-width:4.22586489;stroke-linecap:round;stroke-miterlimit:4;stroke-dasharray:none;stroke-opacity:1"
     id="path830-0-3-0"
     sodipodi:type="arc"
     sodipodi:cx="137.60463"
     sodipodi:cy="143.67285"
     sodipodi:rx="11.784565"
     sodipodi:ry="11.968748"
     sodipodi:start="6.2639059"
     sodipodi:end="3.1415927"
     sodipodi:open="true"
     d="m 149.387,143.44212 a 11.784565,11.968748 0 0 1 -5.7594,10.5182 11.784565,11.968748 0 0 1 -11.84955,0.11602 11.784565,11.968748 0 0 1 -5.95799,-10.40349" />
  <path
     style="fill:none;fill-opacity:1;stroke:#0089cd;stroke-width:4.22586489;stroke-linecap:round;stroke-miterlimit:4;stroke-dasharray:none;stroke-opacity:1"
     id="path830-9"
     sodipodi:type="arc"
     sodipodi:cx="161.36612"
     sodipodi:cy="144.36534"
     sodipodi:rx="11.784565"
     sodipodi:ry="11.968748"
     sodipodi:start="0"
     sodipodi:end="3.1415927"
     sodipodi:open="true"
     d="m 173.15068,144.36534 a 11.784565,11.968748 0 0 1 -5.89228,10.36524 11.784565,11.968748 0 0 1 -11.78456,0 11.784565,11.968748 0 0 1 -5.89229,-10.36524" />
  <path
     style="fill:none;fill-opacity:1;stroke:#0089cd;stroke-width:4.22586489;stroke-linecap:round;stroke-miterlimit:4;stroke-dasharray:none;stroke-opacity:1"
     id="path830-0-31"
     sodipodi:type="arc"
     sodipodi:cx="185.21214"
     sodipodi:cy="144.36534"
     sodipodi:rx="11.784565"
     sodipodi:ry="11.968748"
     sodipodi:start="0"
     sodipodi:end="3.1415927"
     sodipodi:open="true"
     d="m 196.99671,144.36534 a 11.784565,11.968748 0 0 1 -5.89228,10.36524 11.784565,11.968748 0 0 1 -11.78457,0 11.784565,11.968748 0 0 1 -5.89228,-10.36524" />
  <circle
     style="fill:#0089cd;fill-opacity:1;stroke:none;stroke-width:4.09310675;stroke-linecap:round;stroke-miterlimit:4;stroke-dasharray:none;stroke-opacity:1"
     id="path1643"
     cx="142.97609"
     cy="85.919296"
     r="10.923257" />
  <rect
     style="fill:#0089cd;fill-opacity:1;stroke:none;stroke-width:1.70205581;stroke-linecap:round;stroke-miterlimit:4;stroke-dasharray:none;stroke-opacity:1"
     id="rect1645"
     width="52.685677"
     height="9.6769609"
     x="135.44214"
     y="-63.360096"
     ry="4.424036"
     rx="4.2614436"
     transform="rotate(57.709826)"
     inkscape:transform-center-y="1.0461464"
     inkscape:transform-center-x="0.24843131" />
  <rect
     style="fill:#0089cd;fill-opacity:1;stroke:none;stroke-width:1.70205581;stroke-linecap:round;stroke-miterlimit:4;stroke-dasharray:none;stroke-opacity:1"
     id="rect1645-8"
     width="52.685677"
     height="9.6769609"
     x="64.138474"
     y="-22.794872"
     ry="4.424036"
     rx="4.2614436"
     transform="rotate(53.038857)"
     inkscape:transform-center-y="1.0628748"
     inkscape:transform-center-x="0.16240914" />
  <rect
     style="fill:#0089cd;fill-opacity:1;stroke:none;stroke-width:1.92983234;stroke-linecap:round;stroke-miterlimit:4;stroke-dasharray:none;stroke-opacity:1"
     id="rect1645-8-8"
     width="53.182892"
     height="12.323986"
     x="87.769211"
     y="52.05463"
     ry="5.634182"
     rx="4.3016605"
     transform="matrix(0.9758835,0.21829199,-0.135073,0.99083565,0,0)"
     inkscape:transform-center-y="1.135816"
     inkscape:transform-center-x="-0.60816508" />
</svg>
