<?xml version="1.0" encoding="UTF-8" standalone="no"?>
<!-- Created with Inkscape (http://www.inkscape.org/) -->

<svg
   xmlns:dc="http://purl.org/dc/elements/1.1/"
   xmlns:cc="http://creativecommons.org/ns#"
   xmlns:rdf="http://www.w3.org/1999/02/22-rdf-syntax-ns#"
   xmlns:svg="http://www.w3.org/2000/svg"
   xmlns="http://www.w3.org/2000/svg"
   xmlns:sodipodi="http://sodipodi.sourceforge.net/DTD/sodipodi-0.dtd"
   xmlns:inkscape="http://www.inkscape.org/namespaces/inkscape"
   height="200"
   id="svg2"
   inkscape:output_extension="org.inkscape.output.svg.inkscape"
   inkscape:version="0.92.2 (5c3e80d, 2017-08-06)"
   sodipodi:docname="drinking_water.svg"
   sodipodi:version="0.32"
   version="1.0"
   width="200"
   inkscape:export-filename="C:\Users\jeremy\Pictures\svg\drinking_water.png"
   inkscape:export-xdpi="96"
   inkscape:export-ydpi="96">
  <defs
     id="defs22">
    <inkscape:perspective
       id="perspective24"
       inkscape:persp3d-origin="290 : 193.33333 : 1"
       inkscape:vp_x="0 : 290 : 1"
       inkscape:vp_y="0 : 1000 : 0"
       inkscape:vp_z="580 : 290 : 1"
       sodipodi:type="inkscape:persp3d" />
  </defs>
  <metadata
     id="metadata10">
    <rdf:RDF>
      <cc:Work
         rdf:about="">
        <dc:format>image/svg+xml</dc:format>
        <dc:type
           rdf:resource="http://purl.org/dc/dcmitype/StillImage" />
        <cc:license
           rdf:resource="http://web.resource.org/cc/PublicDomain" />
        <dc:language>en</dc:language>
        <dc:title></dc:title>
      </cc:Work>
    </rdf:RDF>
  </metadata>
  <sodipodi:namedview
     bordercolor="#666666"
     borderopacity="1.0"
     gridtolerance="10.0"
     guidetolerance="10.0"
     id="base"
     inkscape:current-layer="svg2"
     inkscape:cx="11.370929"
     inkscape:cy="13.89007"
     inkscape:pageopacity="0.0"
     inkscape:pageshadow="2"
     inkscape:window-height="705"
     inkscape:window-width="1366"
     inkscape:window-x="-8"
     inkscape:window-y="-8"
     inkscape:zoom="1"
     objecttolerance="10.0"
     pagecolor="#ffffff"
     showgrid="false"
     inkscape:window-maximized="1"
     inkscape:measure-start="0,0"
     inkscape:measure-end="0,0"
     inkscape:lockguides="true" />
  <g
     id="g1327"
     transform="matrix(0.04083073,0,0,0.04083073,-0.1767767,176.93977)">
    <path
       d="M 66.275,1.768 C 24.94,1.768 1.704,23.139 1.704,66.804 v 450.123 c 0,40.844 20.894,62.229 62.192,62.229 H 515.92 c 41.307,0 62.229,-20.316 62.229,-62.229 V 66.804 c 0,-42.601 -20.922,-65.036 -63.522,-65.036 -0.003,0 -448.494,-0.143 -448.352,0 z"
       id="path1329"
       style="fill:#111111;fill-opacity:0;stroke:#eeeeee;stroke-width:3.40799999;stroke-opacity:0"
       inkscape:connector-curvature="0" />
  </g>
  <g
     id="g2319"
     transform="matrix(0.04083073,0,0,0.04083073,35.725326,178.44255)">
    <path
       d=""
       id="path2323"
       style="fill:#0089cd;stroke:none"
       inkscape:connector-curvature="0" />
  </g>
  <g
     id="g2325"
     transform="matrix(0.04083073,0,0,0.04083073,35.725326,178.44255)">
    <path
       d=""
       id="path2329"
       style="fill:#0089cd;stroke:none"
       inkscape:connector-curvature="0" />
  </g>
  <path
     style="fill:#0089cd;fill-opacity:1;stroke:none;stroke-width:10.5320406px;stroke-linecap:butt;stroke-linejoin:miter;stroke-opacity:1"
     d="M 103.33151,6.29824 C 57.180085,6.8971924 23.093259,39.55955 23.016049,86.91343 c -0.0703,43.10485 80.315461,109.38481 80.315461,109.38481 0,0 75.99996,-64.4356 76.11988,-109.38481 C 179.56331,44.953469 149.48292,6.29824 103.33151,6.29824 Z"
     id="path1492"
     inkscape:connector-curvature="0"
     sodipodi:nodetypes="cscsc" />
  <path
     style="fill:#0089cd;fill-opacity:1;stroke:#ffffff;stroke-width:2.71428585;stroke-linecap:butt;stroke-linejoin:miter;stroke-miterlimit:4;stroke-dasharray:none;stroke-opacity:1"
     d="M 103.17497,13.181578 C 60.467538,13.736197 28.924393,43.960764 28.852945,87.780916 28.787893,127.66924 103.17497,189.00314 103.17497,189.00314 c 0,0 70.32858,-59.62724 70.43954,-101.222224 0.1036,-38.828762 -27.73211,-74.599338 -70.43954,-74.599338 z"
     id="path1492-2"
     inkscape:connector-curvature="0"
     sodipodi:nodetypes="cscsc"
     inkscape:transform-center-x="-11.911717"
     inkscape:transform-center-y="28.11166" />
  <circle
     style="fill:#ffffff;fill-opacity:1;stroke:none;stroke-width:11.37379169;stroke-miterlimit:4;stroke-dasharray:none;stroke-opacity:1"
     id="path1494"
     cx="101.23385"
     cy="83.203079"
     r="63.333332" />
  <path
     style="fill:#0089cd;fill-opacity:1;stroke:none;stroke-width:4.48494482;stroke-linecap:butt;stroke-linejoin:miter;stroke-miterlimit:4;stroke-dasharray:none;stroke-opacity:1"
     d="m 75.78481,42.116135 v 6.044172 h 6.613544 v 5.037714 H 56.097479 l -6.394551,-5.190076 v 24.527009 l 6.15366,-4.993019 h 22.096237 c 0,0 1.032332,5.948357 7.292416,5.628072 5.132345,-0.262381 5.649978,-5.628072 5.649978,-5.628072 0,0 4.88195,-0.08143 8.650166,0 1.512935,0.03619 1.881805,1.131857 1.861425,2.167991 -0.11572,5.880771 0,8.4531 0,8.4531 0,0 7.17054,-0.08143 11.56274,0 0.0416,-6.641405 0.12667,-11.843515 0,-17.672624 -0.10875,-5.017629 -7.93841,-7.188333 -12.89858,-7.292381 -4.960176,-0.104048 -12.964297,0 -12.964297,0 l 3.6e-5,-5.037714 h 7.445666 v -6.044172 z"
     id="path1679"
     inkscape:connector-curvature="0"
     sodipodi:nodetypes="cccccccccscccccccccccc" />
  <path
     style="fill:none;stroke:#0089cd;stroke-width:1.80952382;stroke-linecap:butt;stroke-linejoin:miter;stroke-miterlimit:4;stroke-dasharray:none;stroke-opacity:1"
     d="M 84.295582,83.191692 94.891661,127.47526 H 120.88204 L 131.07827,83.191692"
     id="path1681"
     inkscape:connector-curvature="0"
     sodipodi:nodetypes="cccc" />
  <path
     style="fill:none;fill-opacity:1;stroke:#0089cd;stroke-width:2.09227252;stroke-linecap:round;stroke-miterlimit:4;stroke-dasharray:none;stroke-opacity:1"
     id="path830-6-0-0-4"
     sodipodi:type="arc"
     sodipodi:cx="94.43795"
     sodipodi:cy="94.236076"
     sodipodi:rx="6.6486578"
     sodipodi:ry="5.2003613"
     sodipodi:start="0"
     sodipodi:end="3.1415927"
     sodipodi:open="true"
     d="m 101.08661,94.236076 a 6.6486578,5.2003613 0 0 1 -3.324331,4.503645 6.6486578,5.2003613 0 0 1 -6.648658,0 6.6486578,5.2003613 0 0 1 -3.324329,-4.503645" />
  <path
     style="fill:none;fill-opacity:1;stroke:#0089cd;stroke-width:2.09227252;stroke-linecap:round;stroke-miterlimit:4;stroke-dasharray:none;stroke-opacity:1"
     id="path830-0-8-2-8-2"
     sodipodi:type="arc"
     sodipodi:cx="107.89147"
     sodipodi:cy="94.236076"
     sodipodi:rx="6.6486578"
     sodipodi:ry="5.2003613"
     sodipodi:start="0"
     sodipodi:end="3.1415927"
     sodipodi:open="true"
     d="m 114.54013,94.236076 a 6.6486578,5.2003613 0 0 1 -3.32433,4.503645 6.6486578,5.2003613 0 0 1 -6.64866,0 6.6486578,5.2003613 0 0 1 -3.32433,-4.503645" />
  <path
     style="fill:none;fill-opacity:1;stroke:#0089cd;stroke-width:2.09227252;stroke-linecap:round;stroke-miterlimit:4;stroke-dasharray:none;stroke-opacity:1"
     id="path830-0-3-4-9-1-1"
     sodipodi:type="arc"
     sodipodi:cx="121.27702"
     sodipodi:cy="94.286331"
     sodipodi:rx="6.6486578"
     sodipodi:ry="5.2003613"
     sodipodi:start="6.2639059"
     sodipodi:end="3.1415927"
     sodipodi:open="true"
     d="m 127.92445,94.186078 a 6.6486578,5.2003613 0 0 1 -3.24937,4.570107 6.6486578,5.2003613 0 0 1 -6.68531,0.05041 6.6486578,5.2003613 0 0 1 -3.3614,-4.520262" />
</svg>
