<?xml version="1.0" encoding="UTF-8" standalone="no"?>
<!-- Created with Inkscape (http://www.inkscape.org/) -->

<svg
   xmlns:dc="http://purl.org/dc/elements/1.1/"
   xmlns:cc="http://creativecommons.org/ns#"
   xmlns:rdf="http://www.w3.org/1999/02/22-rdf-syntax-ns#"
   xmlns:svg="http://www.w3.org/2000/svg"
   xmlns="http://www.w3.org/2000/svg"
   xmlns:sodipodi="http://sodipodi.sourceforge.net/DTD/sodipodi-0.dtd"
   xmlns:inkscape="http://www.inkscape.org/namespaces/inkscape"
   height="200"
   id="svg2"
   inkscape:output_extension="org.inkscape.output.svg.inkscape"
   inkscape:version="0.92.2 (5c3e80d, 2017-08-06)"
   sodipodi:docname="drinking_water.svg"
   sodipodi:version="0.32"
   version="1.0"
   width="200"
   inkscape:export-filename="C:\Users\jeremy\Pictures\svg\drinking_water.png"
   inkscape:export-xdpi="96"
   inkscape:export-ydpi="96">
  <defs
     id="defs22">
    <inkscape:perspective
       id="perspective24"
       inkscape:persp3d-origin="290 : 193.33333 : 1"
       inkscape:vp_x="0 : 290 : 1"
       inkscape:vp_y="0 : 1000 : 0"
       inkscape:vp_z="580 : 290 : 1"
       sodipodi:type="inkscape:persp3d" />
  </defs>
  <metadata
     id="metadata10">
    <rdf:RDF>
      <cc:Work
         rdf:about="">
        <dc:format>image/svg+xml</dc:format>
        <dc:type
           rdf:resource="http://purl.org/dc/dcmitype/StillImage" />
        <cc:license
           rdf:resource="http://web.resource.org/cc/PublicDomain" />
        <dc:language>en</dc:language>
        <dc:title />
      </cc:Work>
    </rdf:RDF>
  </metadata>
  <sodipodi:namedview
     bordercolor="#666666"
     borderopacity="1.0"
     gridtolerance="10.0"
     guidetolerance="10.0"
     id="base"
     inkscape:current-layer="svg2"
     inkscape:cx="24.94017"
     inkscape:cy="6.5543801"
     inkscape:pageopacity="0.0"
     inkscape:pageshadow="2"
     inkscape:window-height="705"
     inkscape:window-width="1366"
     inkscape:window-x="-8"
     inkscape:window-y="-8"
     inkscape:zoom="1.2239456"
     objecttolerance="10.0"
     pagecolor="#ffffff"
     showgrid="false"
     inkscape:window-maximized="1"
     inkscape:measure-start="0,0"
     inkscape:measure-end="0,0"
     inkscape:lockguides="true" />
  <g
     id="g2319"
     transform="matrix(0.04083073,0,0,0.04083073,35.725326,178.44255)">
    <path
       d=""
       id="path2323"
       style="fill:#0089cd;stroke:none"
       inkscape:connector-curvature="0" />
  </g>
  <g
     id="g2325"
     transform="matrix(0.04083073,0,0,0.04083073,35.725326,178.44255)">
    <path
       d=""
       id="path2329"
       style="fill:#0089cd;stroke:none"
       inkscape:connector-curvature="0" />
  </g>
  <path
     style="fill:#0089cd;fill-opacity:1;stroke:none;stroke-width:10.13824272;stroke-linecap:butt;stroke-linejoin:miter;stroke-miterlimit:4;stroke-dasharray:none;stroke-opacity:1"
     d="M 62.783034,3.5735704 V 17.236455 h 14.94995 v 11.38778 H 18.27971 L 3.8247918,16.892039 V 72.335481 L 17.735175,61.048734 h 49.948669 c 0,0 2.33359,13.446294 16.48455,12.722288 11.60169,-0.593114 12.7718,-12.722288 12.7718,-12.722288 0,0 11.035676,-0.184073 19.553746,0 3.42,0.08181 4.25383,2.558569 4.20776,4.900756 -0.26158,13.293515 0,19.108279 0,19.108279 0,0 16.20905,-0.184073 26.13764,0 0.094,-15.012933 0.28634,-26.772332 0,-39.949066 -0.24583,-11.342378 -17.94482,-16.249267 -29.15731,-16.484468 -11.21251,-0.235201 -29.305866,0 -29.305866,0 l 8e-5,-11.38778 H 105.20721 V 3.5735704 Z"
     id="path1679"
     inkscape:connector-curvature="0"
     sodipodi:nodetypes="cccccccccscccccccccccc" />
  <path
     style="fill:none;stroke:#0089cd;stroke-width:4.09043884;stroke-linecap:butt;stroke-linejoin:miter;stroke-miterlimit:4;stroke-dasharray:none;stroke-opacity:1"
     d="M 82.021684,96.425097 105.97417,196.52835 h 58.7514 L 187.7742,96.425097"
     id="path1681"
     inkscape:connector-curvature="0"
     sodipodi:nodetypes="cccc" />
  <path
     style="fill:none;fill-opacity:1;stroke:#0089cd;stroke-width:4.72959375;stroke-linecap:round;stroke-miterlimit:4;stroke-dasharray:none;stroke-opacity:1"
     id="path830-6-0-0-4"
     sodipodi:type="arc"
     sodipodi:cx="104.94855"
     sodipodi:cy="121.39098"
     sodipodi:rx="15.029328"
     sodipodi:ry="11.755445"
     sodipodi:start="0"
     sodipodi:end="3.1415927"
     sodipodi:open="true"
     d="m 119.97788,121.39098 a 15.029328,11.755445 0 0 1 -7.51467,10.18052 15.029328,11.755445 0 0 1 -15.029327,0 15.029328,11.755445 0 0 1 -7.514664,-10.18052" />
  <path
     style="fill:none;fill-opacity:1;stroke:#0089cd;stroke-width:4.72959375;stroke-linecap:round;stroke-miterlimit:4;stroke-dasharray:none;stroke-opacity:1"
     id="path830-0-8-2-8-2"
     sodipodi:type="arc"
     sodipodi:cx="135.36032"
     sodipodi:cy="121.39098"
     sodipodi:rx="15.029328"
     sodipodi:ry="11.755445"
     sodipodi:start="0"
     sodipodi:end="3.1415927"
     sodipodi:open="true"
     d="m 150.38965,121.39098 a 15.029328,11.755445 0 0 1 -7.51466,10.18052 15.029328,11.755445 0 0 1 -15.02933,0 15.029328,11.755445 0 0 1 -7.51467,-10.18052" />
  <path
     style="fill:none;fill-opacity:1;stroke:#0089cd;stroke-width:4.72959375;stroke-linecap:round;stroke-miterlimit:4;stroke-dasharray:none;stroke-opacity:1"
     id="path830-0-3-4-9-1-1"
     sodipodi:type="arc"
     sodipodi:cx="165.61842"
     sodipodi:cy="121.5046"
     sodipodi:rx="15.029328"
     sodipodi:ry="11.755445"
     sodipodi:start="6.2639059"
     sodipodi:end="3.1415927"
     sodipodi:open="true"
     d="m 180.64496,121.27798 a 15.029328,11.755445 0 0 1 -7.34521,10.33075 15.029328,11.755445 0 0 1 -15.11219,0.11395 15.029328,11.755445 0 0 1 -7.59846,-10.21808" />
</svg>
