<?xml version="1.0" encoding="UTF-8" standalone="no"?>
<!-- Created with Inkscape (http://www.inkscape.org/) -->

<svg
   xmlns:dc="http://purl.org/dc/elements/1.1/"
   xmlns:cc="http://creativecommons.org/ns#"
   xmlns:rdf="http://www.w3.org/1999/02/22-rdf-syntax-ns#"
   xmlns:svg="http://www.w3.org/2000/svg"
   xmlns="http://www.w3.org/2000/svg"
   xmlns:sodipodi="http://sodipodi.sourceforge.net/DTD/sodipodi-0.dtd"
   xmlns:inkscape="http://www.inkscape.org/namespaces/inkscape"
   height="22"
   id="svg2"
   inkscape:output_extension="org.inkscape.output.svg.inkscape"
   inkscape:version="0.92.2 (5c3e80d, 2017-08-06)"
   sodipodi:docname="drinking_water.svg"
   sodipodi:version="0.32"
   version="1.0"
   width="22">
  <defs
     id="defs22">
    <inkscape:perspective
       id="perspective24"
       inkscape:persp3d-origin="290 : 193.33333 : 1"
       inkscape:vp_x="0 : 290 : 1"
       inkscape:vp_y="0 : 1000 : 0"
       inkscape:vp_z="580 : 290 : 1"
       sodipodi:type="inkscape:persp3d" />
  </defs>
  <metadata
     id="metadata10">
    <rdf:RDF>
      <cc:Work
         rdf:about="">
        <dc:format>image/svg+xml</dc:format>
        <dc:type
           rdf:resource="http://purl.org/dc/dcmitype/StillImage" />
        <cc:license
           rdf:resource="http://web.resource.org/cc/PublicDomain" />
        <dc:language>en</dc:language>
        <dc:title></dc:title>
      </cc:Work>
    </rdf:RDF>
  </metadata>
  <sodipodi:namedview
     bordercolor="#666666"
     borderopacity="1.0"
     gridtolerance="10.0"
     guidetolerance="10.0"
     id="base"
     inkscape:current-layer="svg2"
     inkscape:cx="13.221065"
     inkscape:cy="13.89007"
     inkscape:pageopacity="0.0"
     inkscape:pageshadow="2"
     inkscape:window-height="705"
     inkscape:window-width="1366"
     inkscape:window-x="-8"
     inkscape:window-y="-8"
     inkscape:zoom="45.254834"
     objecttolerance="10.0"
     pagecolor="#ffffff"
     showgrid="false"
     inkscape:window-maximized="1"
     inkscape:measure-start="0,0"
     inkscape:measure-end="0,0"
     inkscape:lockguides="true" />
  <g
     id="g1327"
     transform="matrix(0.04083073,0,0,0.04083073,-0.1767767,-1.0602338)">
    <path
       d="M 66.275,1.768 C 24.94,1.768 1.704,23.139 1.704,66.804 l 0,450.123 c 0,40.844 20.894,62.229 62.192,62.229 l 452.024,0 c 41.307,0 62.229,-20.316 62.229,-62.229 l 0,-450.123 c 0,-42.601 -20.922,-65.036 -63.522,-65.036 -0.003,0 -448.494,-0.143 -448.352,0 z"
       id="path1329"
       style="fill:#111111;fill-opacity:0;stroke:#eeeeee;stroke-width:3.40799999;stroke-opacity:0"
       inkscape:connector-curvature="0" />
  </g>
  <g
     id="g2319"
     transform="matrix(0.04083073,0,0,0.04083073,35.725326,0.442546)">
    <path
       d=""
       id="path2323"
       style="fill:#0089cd;stroke:none"
       inkscape:connector-curvature="0" />
  </g>
  <g
     id="g2325"
     transform="matrix(0.04083073,0,0,0.04083073,35.725326,0.442546)">
    <path
       d=""
       id="path2329"
       style="fill:#0089cd;stroke:none"
       inkscape:connector-curvature="0" />
  </g>
  <path
     style="fill:#0089cd;fill-opacity:1;stroke:none;stroke-width:1.16406763px;stroke-linecap:butt;stroke-linejoin:miter;stroke-opacity:1"
     d="M 11.89298,0.29824419 C 6.7920335,0.36448969 3.0245422,3.9744881 3.0160085,9.208339 c -0.00777,4.764226 8.8769715,12.089905 8.8769715,12.089905 0,0 8.399996,-7.12183 8.41325,-12.089905 C 20.3186,4.5706582 16.993926,0.29824419 11.89298,0.29824419 Z"
     id="path1492"
     inkscape:connector-curvature="0"
     sodipodi:nodetypes="cscsc" />
  <path
     style="fill:#0089cd;fill-opacity:1;stroke:#ffffff;stroke-width:0.30000001;stroke-linecap:butt;stroke-linejoin:miter;stroke-miterlimit:4;stroke-dasharray:none;stroke-opacity:1"
     d="M 11.875679,1.0590326 C 7.1553836,1.1203346 3.669036,4.4609421 3.6611391,9.3042242 3.6539491,13.712926 11.875679,20.491937 11.875679,20.491937 c 0,0 7.773159,-6.590374 7.785423,-11.1877128 0.01145,-4.2916004 -3.065128,-8.2451916 -7.785423,-8.2451916 z"
     id="path1492-2"
     inkscape:connector-curvature="0"
     sodipodi:nodetypes="cscsc"
     inkscape:transform-center-x="-1.3165584"
     inkscape:transform-center-y="3.1070785" />
  <circle
     style="fill:#ffffff;fill-opacity:1;stroke:none;stroke-width:1.25710332;stroke-miterlimit:4;stroke-dasharray:none;stroke-opacity:1"
     id="path1494"
     cx="11.661134"
     cy="8.7982445"
     r="7" />
  <path
     style="fill:#0089cd;fill-opacity:1;stroke:none;stroke-width:0.49570444;stroke-linecap:butt;stroke-linejoin:miter;stroke-miterlimit:4;stroke-dasharray:none;stroke-opacity:1"
     d="M 8.8483452,4.257064 V 4.9251032 H 9.5793158 V 5.4818981 H 6.672377 L 5.9656109,4.9082558 V 7.6191394 L 6.6457522,7.0672809 h 2.4422157 c 0,0 0.1140999,0.6574516 0.8060039,0.622051 0.5672592,-0.029024 0.6244712,-0.622051 0.6244712,-0.622051 0,0 0.539584,-0.00886 0.956071,0 0.167219,0.00356 0.207989,0.1251007 0.205736,0.2396228 -0.01279,0.6499752 0,0.9342866 0,0.9342866 0,0 0.792534,-0.00876 1.277988,0 0.0046,-0.734054 0.014,-1.309017 0,-1.9532883 -0.01202,-0.5545827 -0.877404,-0.7945 -1.425633,-0.8060039 -0.54823,-0.0115 -1.432896,0 -1.432896,0 l 4e-6,-0.5567949 h 0.822942 V 4.257064 Z"
     id="path1679"
     inkscape:connector-curvature="0"
     sodipodi:nodetypes="cccccccccscccccccccccc" />
  <path
     style="fill:none;stroke:#0089cd;stroke-width:0.2;stroke-linecap:butt;stroke-linejoin:miter;stroke-miterlimit:4;stroke-dasharray:none;stroke-opacity:1"
     d="m 9.7890095,8.7969885 1.1711455,4.8945045 h 2.872621 l 1.126952,-4.8945045"
     id="path1681"
     inkscape:connector-curvature="0"
     sodipodi:nodetypes="cccc" />
  <path
     style="fill:none;fill-opacity:1;stroke:#0089cd;stroke-width:0.23125117;stroke-linecap:round;stroke-miterlimit:4;stroke-dasharray:none;stroke-opacity:1"
     id="path830-6-0-0-4"
     sodipodi:type="arc"
     sodipodi:cx="10.910008"
     sodipodi:cy="10.017691"
     sodipodi:rx="0.73485166"
     sodipodi:ry="0.57477677"
     sodipodi:start="0"
     sodipodi:end="3.1415927"
     sodipodi:open="true"
     d="m 11.64486,10.017691 a 0.73485166,0.57477677 0 0 1 -0.367426,0.497771 0.73485166,0.57477677 0 0 1 -0.734851,0 0.73485166,0.57477677 0 0 1 -0.367426,-0.497771" />
  <path
     style="fill:none;fill-opacity:1;stroke:#0089cd;stroke-width:0.23125117;stroke-linecap:round;stroke-miterlimit:4;stroke-dasharray:none;stroke-opacity:1"
     id="path830-0-8-2-8-2"
     sodipodi:type="arc"
     sodipodi:cx="12.396976"
     sodipodi:cy="10.017691"
     sodipodi:rx="0.73485166"
     sodipodi:ry="0.57477677"
     sodipodi:start="0"
     sodipodi:end="3.1415927"
     sodipodi:open="true"
     d="m 13.131828,10.017691 a 0.73485166,0.57477677 0 0 1 -0.367426,0.497771 0.73485166,0.57477677 0 0 1 -0.734851,0 0.73485166,0.57477677 0 0 1 -0.367426,-0.497771" />
  <path
     style="fill:none;fill-opacity:1;stroke:#0089cd;stroke-width:0.23125117;stroke-linecap:round;stroke-miterlimit:4;stroke-dasharray:none;stroke-opacity:1"
     id="path830-0-3-4-9-1-1"
     sodipodi:type="arc"
     sodipodi:cx="13.876431"
     sodipodi:cy="10.023232"
     sodipodi:rx="0.73485166"
     sodipodi:ry="0.57477677"
     sodipodi:start="6.2639059"
     sodipodi:end="3.1415927"
     sodipodi:open="true"
     d="m 14.611147,10.012152 a 0.73485166,0.57477677 0 0 1 -0.359141,0.505117 0.73485166,0.57477677 0 0 1 -0.738903,0.0056 0.73485166,0.57477677 0 0 1 -0.371523,-0.499608" />
</svg>
