/* XPM */
static char *flag_bl_wh[]={
"22 22 3 1 0 21",
" 	c None",
"+	c #0000ff",
"* 	c #ffffff",
"+++++++               ",
"+***+++++++++         ",
"+***+++***+++++++++   ",
"+***+++***+++***+++   ",
"++++******+++***+++   ",
"++++***+++******+++   ",
"++++***+++***+++**+   ",
"+***++++++***+++**+   ",
"+***+++***++++++**+   ",
"+***+++***+++***+++   ",
"++++******+++***+++   ",
"++++***+++******+++   ",
"++++++++++***+++**+   ",
"+      +++++++++**+   ",
"+            ++++++   ",
"+                     ",
"+                     ",
"+                     ",
"+                     ",
"+                     ",
"+                     ",
"+                     "};
