<?xml version="1.0" encoding="UTF-8" standalone="no"?>
<!-- Created with Inkscape (http://www.inkscape.org/) -->

<svg
   xmlns:dc="http://purl.org/dc/elements/1.1/"
   xmlns:cc="http://creativecommons.org/ns#"
   xmlns:rdf="http://www.w3.org/1999/02/22-rdf-syntax-ns#"
   xmlns:svg="http://www.w3.org/2000/svg"
   xmlns="http://www.w3.org/2000/svg"
   xmlns:sodipodi="http://sodipodi.sourceforge.net/DTD/sodipodi-0.dtd"
   xmlns:inkscape="http://www.inkscape.org/namespaces/inkscape"
   height="200"
   id="svg2"
   inkscape:output_extension="org.inkscape.output.svg.inkscape"
   inkscape:version="0.92.2 (5c3e80d, 2017-08-06)"
   sodipodi:docname="forbidden_area.svg"
   sodipodi:version="0.32"
   version="1.0"
   width="200"
   inkscape:export-filename="C:\Users\jeremy\Pictures\svg\forbidden_area.png"
   inkscape:export-xdpi="96"
   inkscape:export-ydpi="96">
  <defs
     id="defs22">
    <inkscape:perspective
       id="perspective24"
       inkscape:persp3d-origin="290 : 193.33333 : 1"
       inkscape:vp_x="0 : 290 : 1"
       inkscape:vp_y="0 : 1000 : 0"
       inkscape:vp_z="580 : 290 : 1"
       sodipodi:type="inkscape:persp3d" />
  </defs>
  <metadata
     id="metadata10">
    <rdf:RDF>
      <cc:Work
         rdf:about="">
        <dc:format>image/svg+xml</dc:format>
        <dc:type
           rdf:resource="http://purl.org/dc/dcmitype/StillImage" />
        <cc:license
           rdf:resource="http://web.resource.org/cc/PublicDomain" />
        <dc:language>en</dc:language>
        <dc:title />
      </cc:Work>
    </rdf:RDF>
  </metadata>
  <sodipodi:namedview
     bordercolor="#666666"
     borderopacity="1.0"
     gridtolerance="10.0"
     guidetolerance="10.0"
     id="base"
     inkscape:current-layer="svg2"
     inkscape:cx="63.25448"
     inkscape:cy="116.93699"
     inkscape:pageopacity="0.0"
     inkscape:pageshadow="2"
     inkscape:window-height="705"
     inkscape:window-width="1366"
     inkscape:window-x="-8"
     inkscape:window-y="-8"
     inkscape:zoom="2.1796875"
     objecttolerance="10.0"
     pagecolor="#ffffff"
     showgrid="false"
     inkscape:window-maximized="1"
     inkscape:measure-start="0,0"
     inkscape:measure-end="0,0"
     inkscape:lockguides="true" />
  <g
     id="g1327"
     transform="matrix(0.04083073,0,0,0.04083073,-0.1767767,176.93977)">
    <path
       d="M 66.275,1.768 C 24.94,1.768 1.704,23.139 1.704,66.804 v 450.123 c 0,40.844 20.894,62.229 62.192,62.229 H 515.92 c 41.307,0 62.229,-20.316 62.229,-62.229 V 66.804 c 0,-42.601 -20.922,-65.036 -63.522,-65.036 -0.003,0 -448.494,-0.143 -448.352,0 z"
       id="path1329"
       style="fill:#111111;fill-opacity:0;stroke:#eeeeee;stroke-width:3.40799999;stroke-opacity:0"
       inkscape:connector-curvature="0" />
  </g>
  <g
     id="g2319"
     transform="matrix(0.04083073,0,0,0.04083073,35.725326,178.44255)">
    <path
       d=""
       id="path2323"
       style="fill:#0089cd;stroke:none"
       inkscape:connector-curvature="0" />
  </g>
  <g
     id="g2325"
     transform="matrix(0.04083073,0,0,0.04083073,35.725326,178.44255)">
    <path
       d=""
       id="path2329"
       style="fill:#0089cd;stroke:none"
       inkscape:connector-curvature="0" />
  </g>
  <circle
     style="fill:#ffd7ff;fill-opacity:1;stroke:none;stroke-width:17.50965309;stroke-miterlimit:4;stroke-dasharray:none;stroke-opacity:1"
     id="path1494"
     cx="99.780441"
     cy="100.87871"
     r="97.5" />
  <path
     inkscape:connector-curvature="0"
     id="path2400"
     d="m 99.237348,24.906864 c -6.97702,0 -12.63961,5.662522 -12.63961,12.639481 0,6.976961 5.66259,12.639483 12.63961,12.639483 6.977012,0 12.639592,-5.662522 12.639592,-12.639483 0,-6.976959 -5.66258,-12.639481 -12.639592,-12.639481 z m -19.95721,26.609421 c -6.65235,0 -9.97855,3.326143 -9.97855,9.978569 v 46.566416 c 0,3.32615 9.97855,3.32615 9.97855,0 V 74.799424 c 0,-1.330177 3.32622,-1.330177 3.32622,0 v 99.785266 c 0,6.65228 16.63099,6.65228 16.63099,0 v -63.19727 c 0,-1.33018 3.326212,-1.33018 3.326212,0 v 63.19727 c 0,6.65228 16.63099,6.65228 16.63099,0 V 74.799424 c 0,-1.330177 3.32622,-1.330177 3.32622,0 v 33.261846 c 0,3.32615 9.97856,3.32615 9.97856,0 V 61.494854 c 0,-6.652426 -6.65234,-9.978569 -13.30478,-9.978569 z"
     style="fill:#0089cd;fill-opacity:1;fill-rule:nonzero;stroke:none;stroke-width:2.3118937"
     sodipodi:nodetypes="cssscccccccccccccccccccc" />
  <rect
     style="fill:#ff0000;fill-opacity:1;stroke:#ff0000;stroke-width:7.27071524;stroke-linecap:round;stroke-linejoin:round;stroke-miterlimit:4;stroke-dasharray:none;stroke-opacity:1"
     id="rect1712"
     width="187.66129"
     height="27.857143"
     x="-234.66626"
     y="-29.908518"
     transform="rotate(-140.767)" />
</svg>
