<?xml version="1.0" encoding="UTF-8" standalone="no"?>
<!-- Created with Inkscape (http://www.inkscape.org/) -->

<svg
   xmlns:dc="http://purl.org/dc/elements/1.1/"
   xmlns:cc="http://creativecommons.org/ns#"
   xmlns:rdf="http://www.w3.org/1999/02/22-rdf-syntax-ns#"
   xmlns:svg="http://www.w3.org/2000/svg"
   xmlns="http://www.w3.org/2000/svg"
   xmlns:sodipodi="http://sodipodi.sourceforge.net/DTD/sodipodi-0.dtd"
   xmlns:inkscape="http://www.inkscape.org/namespaces/inkscape"
   height="200"
   id="svg2"
   inkscape:output_extension="org.inkscape.output.svg.inkscape"
   inkscape:version="0.92.2 (5c3e80d, 2017-08-06)"
   sodipodi:docname="forbiden_area.svg"
   sodipodi:version="0.32"
   version="1.0"
   width="200"
   inkscape:export-filename="C:\Users\jeremy\Pictures\svg\forbiden_area.png"
   inkscape:export-xdpi="96"
   inkscape:export-ydpi="96">
  <defs
     id="defs22">
    <inkscape:perspective
       id="perspective24"
       inkscape:persp3d-origin="290 : 193.33333 : 1"
       inkscape:vp_x="0 : 290 : 1"
       inkscape:vp_y="0 : 1000 : 0"
       inkscape:vp_z="580 : 290 : 1"
       sodipodi:type="inkscape:persp3d" />
  </defs>
  <metadata
     id="metadata10">
    <rdf:RDF>
      <cc:Work
         rdf:about="">
        <dc:format>image/svg+xml</dc:format>
        <dc:type
           rdf:resource="http://purl.org/dc/dcmitype/StillImage" />
        <cc:license
           rdf:resource="http://web.resource.org/cc/PublicDomain" />
        <dc:language>en</dc:language>
        <dc:title></dc:title>
      </cc:Work>
    </rdf:RDF>
  </metadata>
  <sodipodi:namedview
     bordercolor="#666666"
     borderopacity="1.0"
     gridtolerance="10.0"
     guidetolerance="10.0"
     id="base"
     inkscape:current-layer="svg2"
     inkscape:cx="21.230924"
     inkscape:cy="11.138132"
     inkscape:pageopacity="0.0"
     inkscape:pageshadow="2"
     inkscape:window-height="705"
     inkscape:window-width="1366"
     inkscape:window-x="-8"
     inkscape:window-y="-8"
     inkscape:zoom="1"
     objecttolerance="10.0"
     pagecolor="#ffffff"
     showgrid="false"
     inkscape:window-maximized="1"
     inkscape:measure-start="0,0"
     inkscape:measure-end="0,0"
     inkscape:lockguides="true" />
  <g
     id="g1327"
     transform="matrix(0.04083073,0,0,0.04083073,-0.1767767,176.93977)">
    <path
       d="M 66.275,1.768 C 24.94,1.768 1.704,23.139 1.704,66.804 v 450.123 c 0,40.844 20.894,62.229 62.192,62.229 H 515.92 c 41.307,0 62.229,-20.316 62.229,-62.229 V 66.804 c 0,-42.601 -20.922,-65.036 -63.522,-65.036 -0.003,0 -448.494,-0.143 -448.352,0 z"
       id="path1329"
       style="fill:#111111;fill-opacity:0;stroke:#eeeeee;stroke-width:3.40799999;stroke-opacity:0"
       inkscape:connector-curvature="0" />
  </g>
  <g
     id="g2319"
     transform="matrix(0.04083073,0,0,0.04083073,35.725326,178.44255)">
    <path
       d=""
       id="path2323"
       style="fill:#0089cd;stroke:none"
       inkscape:connector-curvature="0" />
  </g>
  <g
     id="g2325"
     transform="matrix(0.04083073,0,0,0.04083073,35.725326,178.44255)">
    <path
       d=""
       id="path2329"
       style="fill:#0089cd;stroke:none"
       inkscape:connector-curvature="0" />
  </g>
  <path
     style="fill:#0089cd;fill-opacity:1;stroke:none;stroke-width:10.5320406px;stroke-linecap:butt;stroke-linejoin:miter;stroke-opacity:1"
     d="M 105.33151,6.29824 C 59.180085,6.8971924 25.093259,39.55955 25.016049,86.91343 c -0.0703,43.10485 80.315461,109.38481 80.315461,109.38481 0,0 75.99996,-64.4356 76.11988,-109.38481 C 181.56331,44.953469 151.48292,6.29824 105.33151,6.29824 Z"
     id="path1492"
     inkscape:connector-curvature="0"
     sodipodi:nodetypes="cscsc" />
  <path
     style="fill:#0089cd;fill-opacity:1;stroke:#ffffff;stroke-width:2.71428585;stroke-linecap:butt;stroke-linejoin:miter;stroke-miterlimit:4;stroke-dasharray:none;stroke-opacity:1"
     d="M 105.17497,13.181578 C 62.467538,13.736197 30.924393,43.960764 30.852945,87.780916 30.787893,127.66924 105.17497,189.00314 105.17497,189.00314 c 0,0 70.32858,-59.62724 70.43954,-101.222224 0.1036,-38.828762 -27.73211,-74.599338 -70.43954,-74.599338 z"
     id="path1492-2"
     inkscape:connector-curvature="0"
     sodipodi:nodetypes="cscsc"
     inkscape:transform-center-x="-11.911717"
     inkscape:transform-center-y="28.11166" />
  <circle
     style="fill:#ffffff;fill-opacity:1;stroke:none;stroke-width:11.37379169;stroke-miterlimit:4;stroke-dasharray:none;stroke-opacity:1"
     id="path1494"
     cx="103.23385"
     cy="83.203079"
     r="63.333332" />
  <path
     inkscape:connector-curvature="0"
     id="path2400"
     d="m 102.88107,33.85385 c -4.532082,0 -8.210346,3.678219 -8.210346,8.210261 0,4.532043 3.678264,8.210262 8.210346,8.210262 4.53207,0 8.21033,-3.678219 8.21033,-8.210262 0,-4.532042 -3.67826,-8.210261 -8.21033,-8.210261 z M 89.917412,51.138602 c -4.321184,0 -6.481795,2.160571 -6.481795,6.481805 v 30.248271 c 0,2.160572 6.481795,2.160572 6.481795,0 V 66.262692 c 0,-0.864047 2.160617,-0.864047 2.160617,0 v 64.817778 c 0,4.32114 10.803041,4.32114 10.803041,0 V 90.02925 c 0,-0.864048 2.16061,-0.864048 2.16061,0 v 41.05122 c 0,4.32114 10.80304,4.32114 10.80304,0 V 66.262692 c 0,-0.864047 2.16062,-0.864047 2.16062,0 v 21.605986 c 0,2.160572 6.4818,2.160572 6.4818,0 V 57.620407 c 0,-4.321234 -4.32118,-6.481805 -8.64242,-6.481805 z"
     style="fill:#0089cd;fill-opacity:1;fill-rule:nonzero;stroke:none;stroke-width:1.50174284"
     sodipodi:nodetypes="cssscccccccccccccccccccc" />
  <rect
     style="fill:#ff0000;fill-opacity:1;stroke:#ff0000;stroke-width:4.72285748;stroke-linecap:round;stroke-linejoin:round;stroke-miterlimit:4;stroke-dasharray:none;stroke-opacity:1"
     id="rect1712"
     width="121.89964"
     height="18.095238"
     x="-193.37057"
     y="-8.8192806"
     transform="rotate(-140.767)" />
</svg>
