<?xml version="1.0" encoding="UTF-8" standalone="no"?>
<!-- Generator: Adobe Illustrator 15.0.0, SVG Export Plug-In . SVG Version: 6.00 Build 0)  -->

<svg
   xmlns:dc="http://purl.org/dc/elements/1.1/"
   xmlns:cc="http://creativecommons.org/ns#"
   xmlns:rdf="http://www.w3.org/1999/02/22-rdf-syntax-ns#"
   xmlns:svg="http://www.w3.org/2000/svg"
   xmlns="http://www.w3.org/2000/svg"
   xmlns:xlink="http://www.w3.org/1999/xlink"
   xmlns:sodipodi="http://sodipodi.sourceforge.net/DTD/sodipodi-0.dtd"
   xmlns:inkscape="http://www.inkscape.org/namespaces/inkscape"
   version="1.1"
   x="0px"
   y="0px"
   width="22"
   height="22"
   viewBox="0 0 100 100"
   enable-background="new 0 0 500 500"
   xml:space="preserve"
   id="svg3541"
   inkscape:version="0.91 r13725"
   sodipodi:docname="golf.svg"><metadata
     id="metadata3581"><rdf:RDF><cc:Work
         rdf:about=""><dc:format>image/svg+xml</dc:format><dc:type
           rdf:resource="http://purl.org/dc/dcmitype/StillImage" /><dc:title></dc:title><dc:description>jfitie@gmail.com</dc:description><cc:license
           rdf:resource="http://creativecommons.org/publicdomain/zero/1.0/" /></cc:Work><cc:License
         rdf:about="http://creativecommons.org/publicdomain/zero/1.0/"><cc:permits
           rdf:resource="http://creativecommons.org/ns#Reproduction" /><cc:permits
           rdf:resource="http://creativecommons.org/ns#Distribution" /><cc:permits
           rdf:resource="http://creativecommons.org/ns#DerivativeWorks" /></cc:License></rdf:RDF></metadata><defs
     id="defs3579"><inkscape:perspective
       sodipodi:type="inkscape:persp3d"
       inkscape:vp_x="0 : 250 : 1"
       inkscape:vp_y="0 : 1000 : 0"
       inkscape:vp_z="500 : 250 : 1"
       inkscape:persp3d-origin="250 : 166.66667 : 1"
       id="perspective3583" /><linearGradient
       inkscape:collect="always"
       xlink:href="#SVGID_1_"
       id="linearGradient3616"
       gradientUnits="userSpaceOnUse"
       x1="272.74319"
       y1="121.6006"
       x2="316.9014"
       y2="121.6006" /><linearGradient
       inkscape:collect="always"
       xlink:href="#SVGID_2_"
       id="linearGradient3618"
       gradientUnits="userSpaceOnUse"
       x1="181.84621"
       y1="343.44531"
       x2="311.8457"
       y2="343.44531" /><linearGradient
       y2="121.6006"
       x2="316.9014"
       y1="121.6006"
       x1="272.74319"
       gradientUnits="userSpaceOnUse"
       id="linearGradient3470"><stop
         id="stop3551-6"
         style="stop-color:#2B2B2B"
         offset="0.2184" /><stop
         id="stop3553-7"
         style="stop-color:#222222"
         offset="0.5415" /><stop
         id="stop3555-5"
         style="stop-color:#0D0D0D"
         offset="1" /></linearGradient><linearGradient
       y2="343.44531"
       x2="311.8457"
       y1="343.44531"
       x1="181.84621"
       gradientUnits="userSpaceOnUse"
       id="linearGradient3476"><stop
         id="stop3560-5"
         style="stop-color:#7D7D7D"
         offset="0" /><stop
         id="stop3562-6"
         style="stop-color:#A6A6A6"
         offset="0.977" /></linearGradient></defs><sodipodi:namedview
     pagecolor="#ff37ff"
     bordercolor="#666666"
     borderopacity="1"
     objecttolerance="10"
     gridtolerance="10"
     guidetolerance="10"
     inkscape:pageopacity="0"
     inkscape:pageshadow="2"
     inkscape:window-width="1148"
     inkscape:window-height="830"
     id="namedview3577"
     showgrid="false"
     inkscape:zoom="5.0558131"
     inkscape:cx="57.104884"
     inkscape:cy="55.046611"
     inkscape:window-x="97"
     inkscape:window-y="41"
     inkscape:window-maximized="0"
     inkscape:current-layer="svg3541" /><g
     id="g3503"
     transform="matrix(0.94577661,0,0,0.94577518,28.132858,2.4686065)"><path
       inkscape:connector-curvature="0"
       id="path3547-9"
       d="m 32.680842,-2.4772927 c -6.310243,-0.6299494 -13.82898,5.6859412 -9.939453,12.1953125 3.23894,6.6447622 1.857374,14.3744192 2.548828,21.4570312 0.56232,5.059742 -3.853892,10.302011 0.162109,14.710938 3.532988,4.572236 0.625166,10.752651 1.682936,16.0796 -0.656347,3.689224 1.562932,11.249733 -0.838865,12.659296 C 18.855076,71.897094 8.0965745,72.237741 4.7492015,80.803957 1.2081295,88.293071 2.9081885,100.0164 12.04217,102.36451 22.593707,105.31281 34.259141,99.297496 40.346857,90.735598 42.803429,85.178875 39.443,79.036834 40.252357,73.234973 39.991657,64.351896 38.966871,55.144057 39.575373,46.505129 44.682048,41.778232 38.76315,35.092724 40.282404,29.487551 39.723456,21.533678 39.642856,13.401586 42.678889,5.9348166 43.373247,0.29052505 37.884714,-3.3661264 32.680842,-2.4772927 Z"
       style="fill:#ffffff" /><g
       transform="matrix(0.20727942,0,0,0.20727942,-28.695502,-1.8812881)"
       id="Outlines"><path
         inkscape:connector-curvature="0"
         style="fill:#050606"
         d="m 268,24.461 c 0,0 27.691,-18.461 56.923,-4.615 5.385,14.615 -1.066,29.23 -5.148,36.154 -4.082,13.846 -4.852,14.615 -4.852,32.308 0,17.693 -0.297,98.462 4.852,106.923 5.149,8.461 3.312,20.769 0,22.308 -3.312,1.539 -8.697,3.846 -8.697,3.846 0,0 -1.836,37.692 8.697,215.384 -17.159,18.462 -70.236,66.154 -123.313,43.077 -23.846,-10.77 -20.452,-33.847 -20.452,-55.385 0,-21.538 18.145,-37.693 23.529,-40.77 5.384,-3.077 32.861,-6.153 48.354,-1.538 15.493,4.615 43.954,13.077 43.954,13.077 0,0 -0.769,-139.231 -3.076,-165.385 -6.924,-6.923 -16.154,-20 -15.385,-27.692 4.615,-13.846 6.922,-11.539 8.461,-31.539 1.539,-20 -3.847,-97.692 -6.155,-110.769 C 271.077,53.691 260.308,42.923 268,24.461 Z"
         id="path3547" /></g><g
       transform="matrix(0.20727942,0,0,0.20727942,-28.695502,-1.8812881)"
       id="Color"><linearGradient
         id="SVGID_1_"
         gradientUnits="userSpaceOnUse"
         x1="272.74319"
         y1="121.6006"
         x2="316.9014"
         y2="121.6006"><stop
           offset="0.2184"
           style="stop-color:#2B2B2B"
           id="stop3551" /><stop
           offset="0.5415"
           style="stop-color:#222222"
           id="stop3553" /><stop
           offset="1"
           style="stop-color:#0D0D0D"
           id="stop3555" /></linearGradient><path
         inkscape:connector-curvature="0"
         style="fill:url(#linearGradient3616)"
         d="m 314.154,25.999 c 0,0 -24.616,-6.154 -39.231,3.846 -3.846,7.692 -3.076,19.23 6.154,25.384 0.769,10.77 14.615,123.077 -0.77,149.231 1.538,6.154 2.308,11.538 7.692,14.615 0,-7.692 0,-7.692 0,-7.692 l 21.538,-7.692 0,10.769 c 0,0 12.309,4.616 4.616,-18.461 -2.309,-12.308 -6.924,-115.384 -4.616,-138.461 3.077,-6.923 7.146,-11.539 7.146,-11.539 0,0 1.318,-14.615 -2.529,-20 z"
         id="path3557" /><linearGradient
         id="SVGID_2_"
         gradientUnits="userSpaceOnUse"
         x1="181.84621"
         y1="343.44531"
         x2="311.8457"
         y2="343.44531"><stop
           offset="0"
           style="stop-color:#7D7D7D"
           id="stop3560" /><stop
           offset="0.977"
           style="stop-color:#A6A6A6"
           id="stop3562" /></linearGradient><path
         inkscape:connector-curvature="0"
         style="fill:url(#linearGradient3618)"
         d="m 311.846,431.383 c 0,0 -33.076,47.693 -87.692,45.385 -27.692,1.538 -42.308,-20 -42.308,-36.154 0,-16.154 7.693,-48.461 29.231,-52.308 21.538,-3.847 66.688,6.923 87.692,19.23 0,-22.308 -7.103,-194.87 -7.103,-194.87 0,0 8.129,-3.667 13,-2.333 0.668,8.334 7.18,221.05 7.18,221.05 z"
         id="path3564" /></g><g
       transform="matrix(0.20727942,0,0,0.20727942,-28.695502,-1.8812881)"
       id="Iron_x5F_Lines"><line
         style="fill:#726658;stroke:#414042;stroke-width:8;stroke-miterlimit:10"
         stroke-miterlimit="10"
         x1="212.312"
         y1="396.87399"
         x2="217.688"
         y2="466.62601"
         id="line3567" /><line
         style="fill:none;stroke:#414042;stroke-width:4;stroke-miterlimit:10"
         stroke-miterlimit="10"
         x1="215.15601"
         y1="407.29901"
         x2="286"
         y2="412.228"
         id="line3569" /><line
         style="fill:none;stroke:#414042;stroke-width:4;stroke-miterlimit:10"
         stroke-miterlimit="10"
         x1="215.57201"
         y1="425.80301"
         x2="286.21301"
         y2="421.13699"
         id="line3571" /><line
         style="fill:none;stroke:#414042;stroke-width:4;stroke-miterlimit:10"
         stroke-miterlimit="10"
         x1="217.688"
         y1="443"
         x2="286.21301"
         y2="428.5"
         id="line3573" /><line
         style="fill:none;stroke:#414042;stroke-width:4;stroke-miterlimit:10"
         stroke-miterlimit="10"
         x1="217.688"
         y1="458"
         x2="289.5"
         y2="435.75"
         id="line3575" /></g></g></svg>