<?xml version="1.0" encoding="UTF-8" standalone="no"?>
<svg
   xmlns:i="http://ns.adobe.com/AdobeIllustrator/10.0/"
   xmlns:dc="http://purl.org/dc/elements/1.1/"
   xmlns:cc="http://web.resource.org/cc/"
   xmlns:rdf="http://www.w3.org/1999/02/22-rdf-syntax-ns#"
   xmlns:svg="http://www.w3.org/2000/svg"
   xmlns="http://www.w3.org/2000/svg"
   xmlns:sodipodi="http://sodipodi.sourceforge.net/DTD/sodipodi-0.dtd"
   xmlns:inkscape="http://www.inkscape.org/namespaces/inkscape"
   width="220"
   height="220"
   id="svg2009"
   sodipodi:version="0.32"
   inkscape:version="0.44"
   version="1.0"
   sodipodi:docbase="E:\"
   sodipodi:docname="Feinstaubplakette Klasse 4.svg">
  <defs
     id="defs2011" />
  <sodipodi:namedview
     id="base"
     pagecolor="#ffffff"
     bordercolor="#666666"
     borderopacity="1.0"
     inkscape:pageopacity="0.0"
     inkscape:pageshadow="2"
     inkscape:zoom="2.1220032"
     inkscape:cx="220.95426"
     inkscape:cy="123.5955"
     inkscape:document-units="px"
     inkscape:current-layer="layer1"
     width="220px"
     height="220px"
     inkscape:window-width="1440"
     inkscape:window-height="853"
     inkscape:window-x="-4"
     inkscape:window-y="-4" />
  <metadata
     id="metadata2014">
    <rdf:RDF>
      <cc:Work
         rdf:about="">
        <dc:format>image/svg+xml</dc:format>
        <dc:type
           rdf:resource="http://purl.org/dc/dcmitype/StillImage" />
      </cc:Work>
    </rdf:RDF>
  </metadata>
  <g
     inkscape:label="Ebene 1"
     inkscape:groupmode="layer"
     id="layer1"
     transform="translate(716.5715,152.7852)">
    <path
       style="fill:white;stroke:black;stroke-width:1.00000012"
       id="path1955"
       d="M -499.07139,-42.785198 C -499.07139,16.585801 -547.20041,64.714795 -606.57143,64.714795 C -665.94245,64.714795 -714.07147,16.585801 -714.07147,-42.785198 C -714.07147,-102.15618 -665.94245,-150.28518 -606.57143,-150.28518 C -547.20041,-150.28518 -499.07139,-102.15618 -499.07139,-42.785198 z "
       i:knockout="Off" />
    <path
       style="fill:#108434;stroke:black;stroke-width:4.00000048"
       id="path1957"
       d="M -505.57039,-42.785198 C -505.57039,12.995801 -550.79142,58.214794 -606.57043,58.214794 C -662.35245,58.214794 -707.57047,12.995801 -707.57047,-42.785198 C -707.57047,-98.566183 -662.35145,-143.78518 -606.57043,-143.78518 C -550.79041,-143.78518 -505.57039,-98.566183 -505.57039,-42.785198 z "
       i:knockout="Off" />
    <g
       id="g1959"
       i:knockout="Off"
       transform="translate(-714.5714,-150.7851)">
			<path
   id="path1961"
   d="M 76.491,92.537 L 76.491,80.255 L 106.913,15.177 L 121.436,15.177 L 90.702,80.255 L 114.393,80.255 L 114.393,54.075 L 127.42,54.075 L 127.42,80.255 L 134.713,80.255 L 134.713,92.536 L 127.42,92.536 L 127.42,106.001 L 114.393,106.001 L 114.393,92.537 L 76.491,92.537 z "
   i:knockout="Off" />

		</g>
    <path
       style="fill:white"
       id="path1963"
       d="M -530.0714,8.9647987 L -683.07146,8.9647987 L -683.07146,-41.506191 L -530.0714,-41.506191 L -530.0714,8.9647987 z "
       i:knockout="Off" />
    <path
       style="fill:none"
       id="path1965"
       d="M -606.57043,-3.0351994 C -597.91243,-3.0351994 -590.14943,0.8517998 -584.91843,6.9647993 C -556.09141,6.9647993 -531.8594,6.9647993 -531.0704,6.9647993 C -531.0704,5.085795 -531.0704,-38.156196 -531.0704,-40.0352 C -533.0314,-40.0352 -680.11046,-40.0352 -682.07046,-40.0352 C -682.07046,-38.156196 -682.07046,5.085795 -682.07046,6.9647993 C -681.28246,6.9647993 -657.05045,6.9647993 -628.22343,6.9647993 C -622.99143,0.85080165 -615.22843,-3.0351994 -606.57043,-3.0351994 z "
       i:knockout="Off" />
    <path
       id="path1967"
       d="M -529.0704,-42.0352 L -530.0704,-42.0352 L -684.07046,-42.0352 L -684.07046,8.9647987 L -632.78644,8.9647987 C -632.29445,8.2757977 -631.77344,7.6077964 -631.22344,6.9647993 C -660.05045,6.9647993 -681.28246,6.9647993 -682.07046,6.9647993 C -682.07046,5.085795 -682.07046,-38.156196 -682.07046,-40.0352 C -680.10946,-40.0352 -533.0304,-40.0352 -531.0704,-40.0352 C -531.0704,-38.156196 -531.0704,5.085795 -531.0704,6.9647993 C -531.8594,6.9647993 -553.09142,6.9647993 -581.91842,6.9647993 C -581.36842,7.6077964 -580.84842,8.2757977 -580.35541,8.9647987 L -529.0704,8.9647987 L -529.0704,-42.0352 z "
       i:knockout="Off" />
    <path
       style="fill:none;stroke:black;stroke-width:2.00000024"
       id="path1969"
       d="M -581.07042,25.464799 C -581.07042,39.547793 -592.48843,50.964793 -606.57043,50.964793 C -620.65443,50.964793 -632.07044,39.547793 -632.07044,25.464799 C -632.07044,11.381795 -620.65443,-0.035204633 -606.57043,-0.035204633 C -592.48843,-0.035204633 -581.07042,11.381795 -581.07042,25.464799 z "
       i:knockout="Off" />
    <g
       id="g1971"
       i:knockout="Off"
       transform="translate(-714.5714,-150.7851)">
			<path
   id="path1973"
   d="M 68.688,143.273 L 67.306,143.273 C 66.964,143.273 66.699,143.054 66.507,142.617 L 64.057,137.008 C 63.997,136.871 63.934,136.803 63.869,136.803 C 63.803,136.803 63.74,136.866 63.681,136.991 L 61.115,142.618 C 60.917,143.056 60.651,143.274 60.316,143.274 L 58.934,143.274 C 58.73,143.274 58.546,143.186 58.382,143.008 C 58.217,142.832 58.135,142.642 58.135,142.438 C 58.135,142.336 58.156,142.241 58.198,142.151 L 61.949,134.538 C 62.039,134.358 62.083,134.169 62.083,133.972 C 62.083,133.804 62.053,133.658 61.994,133.533 L 58.575,126.645 C 58.515,126.519 58.485,126.4 58.485,126.287 C 58.485,125.951 58.668,125.783 59.033,125.783 L 60.64,125.783 C 61.029,125.783 61.334,126 61.555,126.43 L 63.754,130.782 C 63.837,130.949 63.898,131.033 63.934,131.033 C 63.97,131.033 64.026,130.946 64.104,130.772 L 66.042,126.439 C 66.24,126.001 66.536,125.783 66.931,125.783 L 68.475,125.783 C 68.882,125.783 69.085,125.987 69.085,126.394 C 69.085,126.513 69.058,126.63 69.004,126.744 L 65.729,133.541 C 65.663,133.674 65.63,133.82 65.63,133.981 C 65.63,134.149 65.669,134.314 65.747,134.475 L 69.337,142.162 C 69.39,142.275 69.418,142.392 69.418,142.512 C 69.418,142.709 69.346,142.886 69.202,143.042 C 69.055,143.195 68.885,143.273 68.688,143.273 z "
   i:knockout="Off" />

			<path
   id="path1975"
   d="M 82.157,126.482 C 82.157,126.65 81.729,128.095 80.873,130.816 L 79.419,135.429 C 79.294,135.824 79.132,136.177 78.935,136.488 C 78.725,136.775 78.513,137.062 78.297,137.349 C 78.088,137.678 77.984,138.017 77.984,138.364 L 77.984,142.447 C 77.984,142.676 77.898,142.869 77.727,143.031 C 77.556,143.192 77.353,143.273 77.119,143.273 L 75.687,143.273 C 75.459,143.273 75.26,143.192 75.088,143.031 C 74.917,142.869 74.831,142.675 74.831,142.447 L 74.831,138.354 C 74.831,137.996 74.763,137.664 74.626,137.358 C 74.566,137.226 74.395,136.933 74.109,136.478 C 73.937,136.263 73.726,135.914 73.477,135.428 L 70.991,126.777 C 70.967,126.699 70.955,126.602 70.955,126.488 C 70.955,126.017 71.224,125.781 71.761,125.781 L 73.239,125.781 C 73.746,125.781 74.069,126.039 74.206,126.554 L 76.328,134.406 C 76.367,134.621 76.412,134.728 76.464,134.728 C 76.509,134.728 76.555,134.619 76.6,134.4 L 78.888,126.541 C 79.032,126.035 79.362,125.781 79.879,125.781 L 81.364,125.781 C 81.893,125.781 82.157,126.015 82.157,126.482 z "
   i:knockout="Off" />

			<path
   id="path1977"
   d="M 94.356,142.689 C 94.356,143.078 94.162,143.273 93.773,143.273 L 84.556,143.273 C 84.395,143.273 84.242,143.201 84.098,143.058 C 83.954,142.913 83.883,142.761 83.883,142.599 L 83.883,140.634 C 83.883,140.185 84.006,139.754 84.252,139.341 L 90.139,129.415 C 90.223,129.271 90.265,129.134 90.265,129.002 C 90.265,128.655 90.037,128.481 89.583,128.481 L 84.467,128.481 C 84.078,128.481 83.884,128.286 83.884,127.895 L 83.884,126.366 C 83.884,125.975 84.078,125.78 84.467,125.78 L 93.065,125.78 C 93.454,125.78 93.648,125.975 93.648,126.364 L 93.648,128.286 C 93.648,129.095 93.462,129.804 93.091,130.414 L 87.571,139.564 C 87.464,139.745 87.41,139.909 87.41,140.058 C 87.41,140.405 87.622,140.579 88.047,140.579 L 93.773,140.579 C 94.162,140.579 94.356,140.774 94.356,141.163 L 94.356,142.689 z "
   i:knockout="Off" />

			<path
   id="path1979"
   d="M 102.988,137.002 C 102.988,137.393 102.794,137.588 102.405,137.588 L 96.437,137.588 C 96.048,137.588 95.854,137.393 95.854,137.002 L 95.854,135.487 C 95.854,135.096 96.048,134.901 96.437,134.901 L 102.405,134.901 C 102.794,134.901 102.988,135.096 102.988,135.487 L 102.988,137.002 z "
   i:knockout="Off" />

			<path
   id="path1981"
   d="M 115.421,142.689 C 115.427,142.73 115.43,142.77 115.43,142.806 C 115.43,143.117 115.271,143.273 114.954,143.273 L 113.033,143.273 C 112.637,143.273 112.405,143.078 112.333,142.689 L 111.839,140.195 C 111.768,139.841 111.57,139.665 111.247,139.665 L 108.097,139.665 C 107.792,139.665 107.616,139.814 107.568,140.114 L 107.146,142.689 C 107.086,143.078 106.853,143.273 106.446,143.273 L 104.526,143.273 C 104.209,143.273 104.05,143.117 104.05,142.806 C 104.05,142.77 104.053,142.73 104.059,142.689 L 107.505,126.365 C 107.583,125.976 107.816,125.781 108.205,125.781 L 111.347,125.781 C 111.736,125.781 111.969,125.976 112.047,126.365 L 115.421,142.689 z M 111.181,136.497 C 111.181,136.432 111.177,136.383 111.171,136.353 L 109.921,130.412 C 109.866,130.179 109.782,130.062 109.669,130.062 C 109.556,130.062 109.474,130.178 109.426,130.412 L 108.167,136.353 C 108.16,136.382 108.157,136.431 108.157,136.497 C 108.157,136.79 108.268,136.936 108.49,136.936 L 110.846,136.936 C 111.07,136.936 111.181,136.79 111.181,136.497 z "
   i:knockout="Off" />

			<path
   id="path1983"
   d="M 128.041,138.109 C 128.041,140.08 127.576,141.498 126.649,142.366 C 126.003,142.97 124.886,143.273 123.301,143.273 L 117.261,143.273 C 117.075,143.273 116.917,143.205 116.786,143.066 C 116.653,142.929 116.588,142.767 116.588,142.582 L 116.588,126.455 C 116.588,126.269 116.653,126.111 116.786,125.979 C 116.917,125.847 117.075,125.781 117.261,125.781 L 122.287,125.781 C 123.514,125.781 124.426,125.91 125.024,126.168 C 125.729,126.473 126.284,127.023 126.684,127.82 C 127.037,128.526 127.213,129.296 127.213,130.127 C 127.213,131.875 126.537,133.061 125.186,133.684 C 127.088,134.228 128.041,135.704 128.041,138.109 z M 124.365,130.335 C 124.365,129.763 124.165,129.29 123.763,128.919 C 123.367,128.567 122.876,128.39 122.29,128.39 L 120.421,128.39 C 120.247,128.39 120.099,128.453 119.976,128.575 C 119.853,128.697 119.792,128.846 119.792,129.018 L 119.792,131.707 C 119.792,132.131 120.001,132.343 120.421,132.343 L 122.298,132.343 C 122.903,132.343 123.399,132.158 123.785,131.788 C 124.171,131.417 124.365,130.933 124.365,130.335 z M 125.218,138.138 C 125.218,136.735 124.9,135.822 124.265,135.396 C 123.775,135.066 123.155,134.902 122.406,134.902 L 120.422,134.902 C 120.248,134.902 120.1,134.964 119.977,135.086 C 119.854,135.209 119.793,135.357 119.793,135.531 L 119.793,139.414 C 119.793,139.588 119.854,139.736 119.977,139.859 C 120.1,139.982 120.248,140.043 120.422,140.043 L 122.982,140.043 C 123.659,140.043 124.192,139.888 124.581,139.576 C 125.005,139.246 125.218,138.767 125.218,138.138 z "
   i:knockout="Off" />

			<path
   id="path1985"
   d="M 145.063,142.687 C 145.063,143.078 144.869,143.273 144.48,143.273 L 135.173,143.273 C 134.783,143.273 134.589,143.078 134.589,142.687 L 134.589,140.939 C 134.589,140.548 134.784,140.353 135.173,140.353 L 138.696,140.353 C 139.127,140.353 139.342,140.121 139.342,139.654 L 139.342,130.976 C 139.342,130.755 139.285,130.645 139.172,130.645 C 139.075,130.645 138.836,130.866 138.451,131.308 C 138.026,131.792 137.723,132.034 137.544,132.034 L 136.114,132.034 C 135.724,132.034 135.53,131.84 135.53,131.45 L 135.53,129.338 C 135.53,128.947 135.724,128.753 136.113,128.753 C 136.461,128.753 136.699,128.732 136.831,128.69 C 137.034,128.624 137.217,128.473 137.379,128.239 L 138.635,126.415 C 138.922,125.993 139.395,125.782 140.052,125.782 L 141.963,125.782 C 142.352,125.782 142.546,125.977 142.546,126.366 L 142.546,139.654 C 142.546,140.121 142.749,140.354 143.156,140.354 L 144.477,140.354 C 144.867,140.354 145.061,140.549 145.061,140.94 L 145.061,142.687 L 145.063,142.687 z "
   i:knockout="Off" />

			<path
   id="path1987"
   d="M 157.869,142.552 C 157.869,143.05 157.629,143.298 157.15,143.298 L 148.05,143.298 C 147.487,143.298 147.206,143.023 147.206,142.471 L 147.206,139.946 C 147.206,139.533 147.29,139.232 147.459,139.047 L 153.816,131.979 C 153.987,131.793 154.141,131.534 154.282,131.196 C 154.421,130.86 154.491,130.573 154.491,130.335 C 154.491,129.661 154.384,129.19 154.168,128.923 C 153.958,128.673 153.61,128.548 153.124,128.548 L 151.81,128.548 C 151.283,128.548 150.947,128.646 150.803,128.841 C 150.712,128.96 150.668,129.198 150.668,129.555 L 150.668,130.624 C 150.668,130.928 150.474,131.079 150.085,131.079 L 148.667,131.079 C 148.141,131.079 147.878,130.813 147.878,130.282 L 147.878,127.361 C 147.878,127.027 148.089,126.672 148.51,126.296 C 148.933,125.919 149.314,125.732 149.655,125.732 L 154.861,125.732 C 155.86,125.732 156.608,126.243 157.104,127.265 C 157.482,128.054 157.669,129.007 157.669,130.124 C 157.669,131.41 157.042,132.77 155.786,134.205 L 151.138,139.514 C 150.98,139.695 150.901,139.836 150.901,139.939 C 150.901,140.095 151.08,140.174 151.439,140.174 L 157.222,140.174 C 157.652,140.174 157.868,140.387 157.868,140.812 L 157.868,142.552 L 157.869,142.552 z "
   i:knockout="Off" />

		</g>
  </g>
</svg>
