<?xml version="1.0" encoding="UTF-8" standalone="no"?>
<!-- Created with Inkscape (http://www.inkscape.org/) -->

<svg
   xmlns:dc="http://purl.org/dc/elements/1.1/"
   xmlns:cc="http://creativecommons.org/ns#"
   xmlns:rdf="http://www.w3.org/1999/02/22-rdf-syntax-ns#"
   xmlns:svg="http://www.w3.org/2000/svg"
   xmlns="http://www.w3.org/2000/svg"
   xmlns:sodipodi="http://sodipodi.sourceforge.net/DTD/sodipodi-0.dtd"
   xmlns:inkscape="http://www.inkscape.org/namespaces/inkscape"
   width="48"
   height="48"
   id="svg2"
   version="1.1"
   inkscape:version="0.47 r22583"
   sodipodi:docname="gui_formerdests.svg">
  <defs
     id="defs4">
    <inkscape:perspective
       sodipodi:type="inkscape:persp3d"
       inkscape:vp_x="0 : 120.5 : 1"
       inkscape:vp_y="0 : 1000 : 0"
       inkscape:vp_z="241 : 120.5 : 1"
       inkscape:persp3d-origin="120.5 : 80.333333 : 1"
       id="perspective41" />
  </defs>
  <sodipodi:namedview
     id="base"
     pagecolor="#000000"
     pageopacity="0"
     bordercolor="#666666"
     borderopacity="1.0"
     inkscape:pageopacity="0.90980392"
     inkscape:pageshadow="2"
     inkscape:zoom="11.313709"
     inkscape:cx="22.319591"
     inkscape:cy="20.608921"
     inkscape:document-units="px"
     inkscape:current-layer="layer1"
     showgrid="false"
     fit-margin-top="10"
     fit-margin-left="10"
     fit-margin-right="10"
     fit-margin-bottom="0"
     inkscape:window-width="1280"
     inkscape:window-height="949"
     inkscape:window-x="0"
     inkscape:window-y="25"
     inkscape:window-maximized="1" />
  <metadata
     id="metadata7">
    <rdf:RDF>
      <cc:Work
         rdf:about="">
        <dc:format>image/svg+xml</dc:format>
        <dc:type
           rdf:resource="http://purl.org/dc/dcmitype/StillImage" />
        <dc:title></dc:title>
      </cc:Work>
    </rdf:RDF>
  </metadata>
  <g
     inkscape:label="Layer 1"
     inkscape:groupmode="layer"
     id="layer1"
     transform="translate(-390.90711,-270.03609)">
    <path
       style="fill:#ffffff;fill-opacity:1;stroke:#ffffff;stroke-width:0.21482432px;stroke-linecap:butt;stroke-linejoin:miter;stroke-opacity:1"
       d="m 397.29009,271.43345 0.36721,45.65233 2.63518,0.0731 -0.3507,-22.68549 30.33305,8.40318 -0.39894,-22.69947 z"
       id="path3990"
       inkscape:connector-curvature="0"
       sodipodi:nodetypes="ccccccc" />
    <path
       style="fill:#ffffff;fill-opacity:1;fill-rule:nonzero;stroke:none"
       d="m 424.93565,285.65819 -2.74412,-0.76275 -0.10862,-1.41229 c -0.0598,-0.77677 -0.10863,-1.86669 -0.10863,-2.42205 0,-1.19371 -0.3617,-1.17622 3.28619,-0.1589 l 2.45811,0.68551 0.10832,0.82446 c 0.15013,1.1426 0.13615,4.03934 -0.0194,4.02255 -0.0703,-0.008 -1.36259,-0.35702 -2.87185,-0.77653 z"
       id="path3929-6"
       inkscape:connector-curvature="0" />
    <path
       style="fill:#ffffff;fill-opacity:1;fill-rule:nonzero;stroke:none"
       d="m 412.50282,282.54205 -2.74412,-0.76275 -0.10862,-1.4123 c -0.0598,-0.77677 -0.10863,-1.86669 -0.10863,-2.42204 0,-1.19371 -0.3617,-1.17622 3.28619,-0.15891 l 2.45811,0.68552 0.10832,0.82445 c 0.15013,1.14261 0.13615,4.03934 -0.0194,4.02256 -0.0703,-0.008 -1.36259,-0.35702 -2.87185,-0.77653 z"
       id="path3929-5"
       inkscape:connector-curvature="0" />
    <path
       style="fill:none;stroke:#000000;stroke-width:1.50377023;stroke-linecap:butt;stroke-linejoin:miter;stroke-miterlimit:4;stroke-opacity:1;stroke-dasharray:none"
       d="m 399.03374,316.75387 -0.46829,-43.71146 29.89801,8.05177 0.5387,20.26826 -30.43671,-8.60705"
       id="path2996"
       inkscape:connector-curvature="0"
       sodipodi:nodetypes="ccccc" />
    <path
       style="fill:none;stroke:#000000;stroke-width:0.21482432px;stroke-linecap:butt;stroke-linejoin:miter;stroke-opacity:1"
       d="m 409.58985,275.54621 0.51094,20.59365"
       id="path3766"
       inkscape:connector-curvature="0" />
    <path
       style="fill:none;stroke:#000000;stroke-width:0.21482432px;stroke-linecap:butt;stroke-linejoin:miter;stroke-opacity:1"
       d="m 421.76721,279.54301 0.51094,20.59364"
       id="path3766-0"
       inkscape:connector-curvature="0" />
    <path
       style="fill:none;stroke:#000000;stroke-width:0.21482432px;stroke-linecap:butt;stroke-linejoin:miter;stroke-opacity:1"
       d="m 415.46564,277.03654 0.51094,20.59365"
       id="path3766-6"
       inkscape:connector-curvature="0" />
    <path
       style="fill:none;stroke:#000000;stroke-width:0.21482432px;stroke-linecap:butt;stroke-linejoin:miter;stroke-opacity:1"
       d="m 403.88437,274.32685 0.51094,20.59365"
       id="path3766-1"
       inkscape:connector-curvature="0" />
    <path
       style="fill:none;stroke:#000000;stroke-width:0.21482432px;stroke-linecap:butt;stroke-linejoin:miter;stroke-opacity:1"
       d="m 398.51952,283.26883 29.63442,8.12907"
       id="path3807"
       inkscape:connector-curvature="0" />
    <path
       style="fill:none;stroke:#000000;stroke-width:0.21482432px;stroke-linecap:butt;stroke-linejoin:miter;stroke-opacity:1"
       d="m 399.20077,288.41724 29.63442,8.12907"
       id="path3807-5"
       inkscape:connector-curvature="0" />
    <path
       style="fill:none;stroke:#000000;stroke-width:0.21482432px;stroke-linecap:butt;stroke-linejoin:miter;stroke-opacity:1"
       d="m 399.20077,278.93332 29.63442,8.12907"
       id="path3807-54"
       inkscape:connector-curvature="0" />
    <path
       style="fill:#000000;fill-opacity:1;fill-rule:nonzero;stroke:none"
       d="m 401.62043,284.03259 c -1.25849,-0.35057 -2.30876,-0.64449 -2.33394,-0.65316 -0.0252,-0.009 -0.0387,-0.98802 -0.0301,-2.17632 l 0.0157,-2.16056 2.31827,0.63483 2.31826,0.63482 0.0402,1.16664 c 0.0784,2.27679 0.0845,3.20264 0.021,3.19679 -0.0337,-0.003 -1.09087,-0.29248 -2.34935,-0.64304 z"
       id="path3840"
       inkscape:connector-curvature="0" />
    <path
       style="fill:#000000;fill-opacity:1;fill-rule:nonzero;stroke:none"
       d="m 406.92379,280.96649 c -1.45473,-0.39994 -2.67827,-0.74622 -2.71897,-0.76951 -0.0555,-0.0318 -0.09,-0.6815 -0.13788,-2.60272 -0.0351,-1.4082 -0.0566,-2.56618 -0.0476,-2.57328 0.0293,-0.0233 5.36728,1.42672 5.42902,1.47478 0.064,0.0498 0.21537,5.12216 0.15433,5.17085 -0.0186,0.0149 -1.22413,-0.30018 -2.67887,-0.70012 l 0,0 z"
       id="path3842"
       inkscape:connector-curvature="0" />
    <path
       style="fill:#000000;fill-opacity:1;fill-rule:nonzero;stroke:none"
       d="m 412.74502,287.08807 c -1.49863,-0.414 -2.73647,-0.76202 -2.75076,-0.77339 -0.0298,-0.0237 -0.15389,-4.32241 -0.12546,-4.34524 0.0103,-0.008 1.27471,0.32902 2.80984,0.74949 l 2.79116,0.7645 0.0383,0.25643 c 0.0211,0.14104 0.0565,1.12404 0.0786,2.18444 0.0329,1.57249 0.0258,1.92696 -0.0383,1.92226 -0.0433,-0.003 -1.3048,-0.34449 -2.80343,-0.75849 l 0,0 z"
       id="path3844"
       inkscape:connector-curvature="0" />
    <path
       style="fill:#000000;fill-opacity:1;fill-rule:nonzero;stroke:none"
       d="m 407.13321,290.50516 c -1.47203,-0.40513 -2.69548,-0.75281 -2.71878,-0.77262 -0.0349,-0.0297 -0.18683,-4.75975 -0.15376,-4.78668 0.006,-0.005 1.24301,0.32946 2.74955,0.74247 l 2.73919,0.75091 0.0376,1.34123 c 0.0534,1.90662 0.0738,3.42448 0.0462,3.44431 -0.013,0.009 -1.22797,-0.31449 -2.69999,-0.71962 l 0,0 z"
       id="path3846"
       inkscape:connector-curvature="0" />
    <path
       style="fill:#000000;fill-opacity:1;fill-rule:nonzero;stroke:none"
       d="m 401.77096,293.16804 c -1.27504,-0.36487 -2.33959,-0.67038 -2.36566,-0.67893 -0.0261,-0.009 -0.0643,-0.89365 -0.085,-1.9669 -0.0303,-1.57281 -0.0226,-1.95137 0.0398,-1.95137 0.0715,0 4.7572,1.27521 4.79249,1.30428 0.009,0.007 0.0357,0.90215 0.06,1.98891 0.0374,1.6736 0.0314,1.97526 -0.0396,1.97165 -0.0461,-0.002 -1.12699,-0.30278 -2.40204,-0.66764 z"
       id="path3848"
       inkscape:connector-curvature="0" />
    <path
       style="fill:#000000;fill-opacity:1;fill-rule:nonzero;stroke:none"
       d="m 413.03111,296.35266 c -1.50688,-0.4308 -2.76055,-0.78991 -2.78594,-0.79801 -0.0389,-0.0124 -0.18423,-4.01429 -0.1469,-4.04398 0.007,-0.006 1.27691,0.33612 2.82204,0.75929 l 2.80932,0.7694 0.0339,0.57992 c 0.0642,1.09828 0.10193,3.52583 0.0547,3.52125 -0.026,-0.003 -1.28023,-0.35706 -2.7871,-0.78787 z"
       id="path3850"
       inkscape:connector-curvature="0" />
    <path
       style="fill:#000000;fill-opacity:1;fill-rule:nonzero;stroke:none"
       d="m 425.345,299.83999 c -1.62278,-0.46152 -2.95915,-0.845 -2.96971,-0.85219 -0.0297,-0.0202 -0.13907,-4.10385 -0.11052,-4.12656 0.0189,-0.015 4.21054,1.1167 5.79988,1.56594 0.18863,0.0533 0.191,0.058 0.22448,0.44579 0.0626,0.72502 0.10934,3.81687 0.0576,3.81147 -0.0282,-0.003 -1.37895,-0.38294 -3.00174,-0.84445 z"
       id="path3852"
       inkscape:connector-curvature="0" />
    <path
       style="fill:#000000;fill-opacity:1;fill-rule:nonzero;stroke:none"
       d="m 418.93214,293.74469 -2.92041,-0.80517 -0.0369,-0.32818 c -0.0636,-0.56469 -0.12685,-4.47161 -0.0724,-4.47161 0.15992,0 5.9432,1.62584 5.98113,1.68146 0.0251,0.0368 0.0653,1.11775 0.0894,2.4021 0.0367,1.95759 0.0305,2.33448 -0.0383,2.33087 -0.0451,-0.002 -1.39626,-0.36663 -3.00249,-0.80947 z"
       id="path3854"
       inkscape:connector-curvature="0" />
    <path
       style="fill:#000000;fill-opacity:1;fill-rule:nonzero;stroke:none"
       d="m 425.09551,290.47528 -2.95915,-0.81649 -0.0352,-1.05891 c -0.10825,-3.25302 -0.10852,-3.28636 -0.0266,-3.28518 0.0435,6e-4 1.39327,0.36217 2.9995,0.80343 l 2.92041,0.80229 0.0377,0.57373 c 0.0681,1.03609 0.11941,3.80715 0.0704,3.80233 -0.0263,-0.003 -1.37954,-0.37214 -3.00707,-0.8212 l 0,0 z"
       id="path3856"
       inkscape:connector-curvature="0" />
    <path
       style="fill:#000000;fill-opacity:1;fill-rule:nonzero;stroke:none"
       d="m 418.7137,284.20203 -2.95821,-0.81543 -0.0367,-0.65317 c -0.0202,-0.35925 -0.0543,-1.54278 -0.0758,-2.63006 l -0.0391,-1.97688 2.97383,0.79741 c 1.63561,0.43857 3.00013,0.81667 3.03227,0.84021 0.0816,0.0598 0.20257,5.26362 0.1222,5.25775 -0.0331,-0.002 -1.39141,-0.37134 -3.01842,-0.81983 z"
       id="path3858"
       inkscape:connector-curvature="0" />
    <path
       style="fill:#ffffff;fill-opacity:1;fill-rule:nonzero;stroke:none"
       d="m 401.56161,279.5226 -2.04375,-0.58487 -0.0464,-2.45474 c -0.0255,-1.35011 0.0127,-2.45474 0.0849,-2.45474 0.0722,0 1.07029,0.24892 2.21791,0.55316 l 2.08658,0.55316 0.0294,2.39363 c 0.0207,1.68324 0.0625,2.13227 0.14092,1.51298 l 0.11152,-0.88065 0.0294,0.98226 c 0.0257,0.85702 -0.009,0.98114 -0.26865,0.97347 -0.16392,-0.005 -1.21773,-0.27198 -2.3418,-0.59366 z"
       id="path3913"
       inkscape:connector-curvature="0" />
    <path
       style="fill:#ffffff;fill-opacity:1;fill-rule:nonzero;stroke:none"
       d="m 406.84131,285.49171 -2.55469,-0.71585 -0.0852,-2.19015 c -0.0468,-1.20459 -0.0468,-2.19108 0,-2.19222 0.16597,-0.004 5.19622,1.40012 5.30102,1.47972 0.0586,0.0445 0.15745,1.04113 0.21976,2.21476 0.0903,1.70064 0.0687,2.13243 -0.10648,2.12674 -0.12087,-0.004 -1.36937,-0.32929 -2.77445,-0.723 z"
       id="path3915"
       inkscape:connector-curvature="0" />
    <path
       style="fill:#ffffff;fill-opacity:1;fill-rule:nonzero;stroke:none"
       d="m 401.81708,289.06756 -2.29922,-0.64361 -0.0465,-2.38815 c -0.0256,-1.31348 0.0154,-2.38815 0.0911,-2.38815 0.0757,0 1.09295,0.26765 2.26057,0.59478 l 2.12295,0.59479 0.13083,1.40361 c 0.072,0.77199 0.11027,1.86862 0.0852,2.43697 l -0.0457,1.03336 -2.29922,-0.6436 z"
       id="path3917"
       inkscape:connector-curvature="0" />
    <path
       style="fill:#ffffff;fill-opacity:1;fill-rule:nonzero;stroke:none"
       d="m 407.09678,294.5038 -2.63985,-0.76498 -0.0472,-1.92501 -0.0472,-1.92502 2.66518,0.74291 c 1.46584,0.40861 2.73251,0.77602 2.8148,0.81648 0.18145,0.0892 0.20295,3.85752 0.0219,3.83587 -0.0703,-0.008 -1.31567,-0.35952 -2.76758,-0.78025 z"
       id="path3919"
       inkscape:connector-curvature="0" />
    <path
       style="fill:#ffffff;fill-opacity:1;fill-rule:nonzero;stroke:none"
       d="m 412.95586,292.12914 c -1.41427,-0.39459 -2.65968,-0.76085 -2.76758,-0.8139 -0.13598,-0.0668 -0.19619,-0.82608 -0.19619,-2.47393 0,-2.2096 0.0211,-2.37087 0.29805,-2.28388 0.16393,0.0515 1.4285,0.40022 2.81016,0.77497 l 2.51211,0.68137 0.0315,0.76373 0.0315,0.76373 0.0625,-0.7113 c 0.0344,-0.39121 0.11807,-0.71129 0.18593,-0.71129 0.0678,0 0.0693,0.4725 0.003,1.05 -0.0661,0.57751 -0.12561,1.64445 -0.13228,2.37098 -0.007,0.72654 -0.0696,1.31782 -0.13985,1.31397 -0.0702,-0.004 -1.28486,-0.32986 -2.69913,-0.72445 l 0,0 z"
       id="path3921"
       inkscape:connector-curvature="0" />
    <path
       style="fill:#ffffff;fill-opacity:1;fill-rule:nonzero;stroke:none"
       d="m 419.95539,298.13973 c -1.03039,-0.29316 -2.3716,-0.68567 -2.98047,-0.87226 l -1.10704,-0.33926 0.0566,-1.86429 c 0.0311,-1.02535 0.078,-1.88136 0.10427,-1.90223 0.0417,-0.0332 4.96128,1.2733 5.75753,1.52898 0.26448,0.0849 0.29805,0.31534 0.29805,2.04573 0,1.07252 -0.0575,1.94695 -0.12773,1.94318 -0.0703,-0.004 -0.97079,-0.2467 -2.00118,-0.53985 z"
       id="path3927"
       inkscape:connector-curvature="0" />
    <path
       style="fill:#ffffff;fill-opacity:1;fill-rule:nonzero;stroke:none"
       d="m 425.04567,295.4574 -2.74412,-0.76275 -0.10862,-1.4123 c -0.0597,-0.77676 -0.10863,-1.86668 -0.10863,-2.42204 0,-1.19371 -0.36171,-1.17622 3.28619,-0.1589 l 2.45811,0.68551 0.10832,0.82445 c 0.15013,1.14261 0.13615,4.03934 -0.0194,4.02256 -0.0702,-0.008 -1.36258,-0.35702 -2.87184,-0.77653 z"
       id="path3929"
       inkscape:connector-curvature="0" />
    <path
       style="fill:#ffffff;fill-opacity:1;fill-rule:nonzero;stroke:none"
       d="m 418.80439,289.0453 -2.74411,-0.76274 -0.10863,-1.4123 c -0.0597,-0.77676 -0.10862,-1.86669 -0.10862,-2.42204 0,-1.19371 -0.36171,-1.17622 3.28618,-0.15891 l 2.45811,0.68552 0.10833,0.82445 c 0.15012,1.14261 0.13614,4.03934 -0.0194,4.02256 -0.0703,-0.008 -1.36259,-0.35702 -2.87185,-0.77654 z"
       id="path3929-7"
       inkscape:connector-curvature="0" />
    <g
       id="g3980"
       transform="matrix(0.20532931,0,0,0.20468508,319.18466,229.75822)">
      <path
         transform="translate(223.6217,162.34266)"
         d="m 338.70415,94.651726 c 0,29.289324 -23.74369,53.033004 -53.03301,53.033004 -29.28932,0 -53.03301,-23.74368 -53.03301,-53.033004 0,-29.289322 23.74369,-53.033009 53.03301,-53.033009 29.28932,0 53.03301,23.743687 53.03301,53.033009 z"
         sodipodi:ry="53.033009"
         sodipodi:rx="53.033009"
         sodipodi:cy="94.651726"
         sodipodi:cx="285.67114"
         id="path3931"
         style="fill:#ffffff;fill-rule:evenodd;stroke:#ffffff;stroke-width:1px;stroke-linecap:butt;stroke-linejoin:miter;stroke-opacity:1"
         sodipodi:type="arc" />
      <path
         transform="translate(13.435028,131.52186)"
         d="m 544.47222,125.34519 c 0,26.94618 -21.84419,48.79037 -48.79037,48.79037 -26.94617,0 -48.79036,-21.84419 -48.79036,-48.79037 0,-26.946174 21.84419,-48.790365 48.79036,-48.790365 26.94618,0 48.79037,21.844191 48.79037,48.790365 z"
         sodipodi:ry="48.790367"
         sodipodi:rx="48.790367"
         sodipodi:cy="125.34519"
         sodipodi:cx="495.68185"
         id="path3860"
         style="fill:#9e9e9e;fill-opacity:1;fill-rule:evenodd;stroke:#000000;stroke-width:5;stroke-linecap:butt;stroke-linejoin:miter;stroke-miterlimit:4;stroke-opacity:1;stroke-dasharray:none"
         sodipodi:type="arc" />
      <path
         sodipodi:nodetypes="cc"
         inkscape:connector-curvature="0"
         id="path3862"
         d="m 501.69225,263.23101 31.81981,-37.1231"
         style="fill:none;stroke:#000000;stroke-width:5;stroke-linecap:butt;stroke-linejoin:miter;stroke-miterlimit:4;stroke-opacity:1;stroke-dasharray:none" />
      <path
         sodipodi:nodetypes="cc"
         inkscape:connector-curvature="0"
         id="path3866"
         d="m 504.16712,259.34193 20.85965,10.25304"
         style="fill:none;stroke:#000000;stroke-width:9;stroke-linecap:butt;stroke-linejoin:miter;stroke-miterlimit:4;stroke-opacity:1;stroke-dasharray:none" />
    </g>
  </g>
</svg>
