<?xml version="1.0" encoding="UTF-8"?>
<svg viewBox="0 0 48 48" xmlns="http://www.w3.org/2000/svg" xmlns:cc="http://web.resource.org/cc/" xmlns:dc="http://purl.org/dc/elements/1.1/" xmlns:rdf="http://www.w3.org/1999/02/22-rdf-syntax-ns#" xmlns:xlink="http://www.w3.org/1999/xlink">
<defs>
<radialGradient id="w" cx="62.625" cy="4.625" r="10.625" gradientTransform="matrix(1 0 0 .34118 1.299e-14 3.0471)" gradientUnits="userSpaceOnUse">
<stop offset="0"/>
<stop stop-opacity="0" offset="1"/>
</radialGradient>
<radialGradient id="v" cx="62.2" cy="-8.7256" r="9.7553" gradientTransform="matrix(1.1224 -2.1851e-15 2.1851e-15 1.1224 -7.6105 1.0677)" gradientUnits="userSpaceOnUse">
<stop stop-color="#8fb1dc" offset="0"/>
<stop stop-color="#3465a4" offset="1"/>
</radialGradient>
<radialGradient id="a" cx="62.225" cy="-3.442" r="10.081" gradientTransform="matrix(1 0 0 .93023 1.6629e-14 -.24014)" gradientUnits="userSpaceOnUse" xlink:href="#b"/>
<linearGradient id="b">
<stop stop-color="#fff" offset="0"/>
<stop stop-color="#fff" stop-opacity="0" offset="1"/>
</linearGradient>
<radialGradient id="e" cx="62.225" cy="-3.442" r="10.081" gradientTransform="matrix(1 0 0 .93023 -1.6188e-13 -.24014)" gradientUnits="userSpaceOnUse" xlink:href="#b"/>
<radialGradient id="d" cx="62.225" cy="-3.442" r="10.081" gradientTransform="matrix(1 0 0 .93023 -6.7995e-14 -.24014)" gradientUnits="userSpaceOnUse" xlink:href="#b"/>
<radialGradient id="ae" cx="62.225" cy="-3.442" r="10.081" gradientTransform="matrix(1 0 0 .93023 -1.9068e-14 -.24014)" gradientUnits="userSpaceOnUse" xlink:href="#b"/>
<radialGradient id="u" cx="62.225" cy="-3.442" r="10.081" gradientTransform="matrix(1 0 0 .93023 -1.9605e-14 -.24014)" gradientUnits="userSpaceOnUse" xlink:href="#b"/>
<radialGradient id="ad" cx="62.225" cy="-3.442" r="10.081" gradientTransform="matrix(1 0 0 .93023 -1.9651e-14 -.24014)" gradientUnits="userSpaceOnUse" xlink:href="#b"/>
<radialGradient id="t" cx="62.225" cy="-3.442" r="10.081" gradientTransform="matrix(1 0 0 .93023 -2.6858e-14 -.24014)" gradientUnits="userSpaceOnUse" xlink:href="#b"/>
<radialGradient id="ac" cx="62.225" cy="-3.442" r="10.081" gradientTransform="matrix(1 0 0 .93023 -2.2572e-14 -.24014)" gradientUnits="userSpaceOnUse" xlink:href="#b"/>
<radialGradient id="s" cx="62.225" cy="-3.442" r="10.081" gradientTransform="matrix(1 0 0 .93023 -2.795e-14 .79739)" gradientUnits="userSpaceOnUse" xlink:href="#b"/>
<radialGradient id="ab" cx="62.225" cy="-3.442" r="10.081" gradientTransform="matrix(1 0 0 .93023 -8.0352e-14 -.24014)" gradientUnits="userSpaceOnUse" xlink:href="#b"/>
<radialGradient id="r" cx="62.225" cy="-3.442" r="10.081" gradientTransform="matrix(1 0 0 .93023 -4.6387e-14 -.24014)" gradientUnits="userSpaceOnUse" xlink:href="#b"/>
<radialGradient id="q" cx="24.653" cy="18.944" r="8.6174" fx="24.652" gradientTransform="matrix(.076574 2.7605 -1.9696 .054639 60.099 -55.472)" gradientUnits="userSpaceOnUse" xlink:href="#c"/>
<linearGradient id="c">
<stop stop-color="#cee14b" offset="0"/>
<stop stop-color="#9db029" offset="1"/>
</linearGradient>
<radialGradient id="aa" cx="62.225" cy="-3.442" r="10.081" gradientTransform="matrix(1 0 0 .93023 -4.2383e-14 -.24014)" gradientUnits="userSpaceOnUse" xlink:href="#b"/>
<radialGradient id="p" cx="24.653" cy="18.944" r="8.6174" fx="24.652" gradientTransform="matrix(.068229 2.4597 -1.7549 .048684 55.129 -46.822)" gradientUnits="userSpaceOnUse" xlink:href="#c"/>
<radialGradient id="o" cx="62.225" cy="-3.442" r="10.081" gradientTransform="matrix(.89102 0 0 .82885 1.5795 2.3905)" gradientUnits="userSpaceOnUse" xlink:href="#b"/>
<radialGradient id="n" cx="25.135" cy="14.542" r="4.1348" gradientTransform="matrix(.15959 5.7533 -.8072 .02237 32.873 -131.7)" gradientUnits="userSpaceOnUse" xlink:href="#c"/>
<radialGradient id="z" cx="62.225" cy="-3.442" r="10.081" gradientTransform="matrix(1 0 0 .93023 -5.0876e-14 -.24014)" gradientUnits="userSpaceOnUse" xlink:href="#b"/>
<radialGradient id="m" cx="25.135" cy="14.542" r="4.1348" gradientTransform="matrix(.15959 5.7533 -.8072 .02237 32.873 -130.87)" gradientUnits="userSpaceOnUse" xlink:href="#c"/>
<radialGradient id="l" cx="62.225" cy="-3.442" r="10.081" gradientTransform="matrix(1 0 0 .93023 -3.0933e-14 .58988)" gradientUnits="userSpaceOnUse" xlink:href="#b"/>
<radialGradient id="k" cx="24.479" cy="17.574" r="2.972" gradientTransform="matrix(.22203 8.0044 -.59716 .016561 29.545 -182.33)" gradientUnits="userSpaceOnUse" xlink:href="#c"/>
<radialGradient id="y" cx="62.225" cy="-3.442" r="10.081" gradientTransform="matrix(1 0 0 .93023 -1.2232e-13 -.24014)" gradientUnits="userSpaceOnUse" xlink:href="#b"/>
<radialGradient id="j" cx="24.479" cy="17.574" r="2.972" gradientTransform="matrix(.22203 8.0044 -.59716 .016561 29.857 -181.6)" gradientUnits="userSpaceOnUse" xlink:href="#c"/>
<radialGradient id="i" cx="62.225" cy="-3.442" r="10.081" gradientTransform="matrix(1 0 0 .93023 .31126 .48613)" gradientUnits="userSpaceOnUse" xlink:href="#b"/>
<radialGradient id="h" cx="25.969" cy="17.258" r="9.8222" gradientTransform="matrix(.067181 2.4219 -1.6294 .045179 52.369 -50.34)" gradientUnits="userSpaceOnUse" xlink:href="#c"/>
<radialGradient id="x" cx="62.225" cy="-3.442" r="10.081" gradientTransform="matrix(1 0 0 .93023 -3.1558e-14 -.24014)" gradientUnits="userSpaceOnUse" xlink:href="#b"/>
<radialGradient id="g" cx="25.969" cy="17.258" r="9.8222" gradientTransform="matrix(.061681 2.2236 -1.496 .04148 50.511 -44.508)" gradientUnits="userSpaceOnUse" xlink:href="#c"/>
<radialGradient id="f" cx="62.225" cy="-3.442" r="10.081" gradientTransform="matrix(.91813 0 0 .85408 2.4298 1.4901)" gradientUnits="userSpaceOnUse" xlink:href="#b"/>
<linearGradient id="af" x1="63.397" x2="68.911" y1="-9.3833" y2="16.839" gradientUnits="userSpaceOnUse">
<stop stop-color="#fff" offset="0"/>
<stop stop-color="#fff" stop-opacity="0" offset="1"/>
</linearGradient>
</defs>
<metadata>
<rdf:RDF>
<cc:Work rdf:about="">
<dc:format>image/svg+xml</dc:format>
<dc:type rdf:resource="http://purl.org/dc/dcmitype/StillImage"/>
<dc:creator>
<cc:Agent>
<dc:title>Jakub Steiner</dc:title>
</cc:Agent>
</dc:creator>
<dc:source>http://jimmac.musichall.cz</dc:source>
<cc:license rdf:resource="http://creativecommons.org/licenses/GPL/2.0/"/>
<dc:title>Web Browser</dc:title>
</cc:Work>
<cc:License rdf:about="http://creativecommons.org/licenses/GPL/2.0/">
<cc:permits rdf:resource="http://web.resource.org/cc/Reproduction"/>
<cc:permits rdf:resource="http://web.resource.org/cc/Distribution"/>
<cc:requires rdf:resource="http://web.resource.org/cc/Notice"/>
<cc:permits rdf:resource="http://web.resource.org/cc/DerivativeWorks"/>
<cc:requires rdf:resource="http://web.resource.org/cc/ShareAlike"/>
<cc:requires rdf:resource="http://web.resource.org/cc/SourceCode"/>
</cc:License>
</rdf:RDF>
</metadata>
<g transform="matrix(1.6734 0 0 1.6734 -3.1893 -2.6685)">
<g transform="matrix(1.2847 0 0 1.2847 -63.896 19.969)">
<path transform="matrix(1 0 0 1.1925 -.59082 -2.3787)" d="m73.25 4.625a10.625 3.625 0 1 1 -21.25 0 10.625 3.625 0 1 1 21.25 0z" color="#000000" fill="url(#w)" fill-rule="evenodd" opacity=".56044"/>
<path d="m71.456-3.5112c0 5.1118-4.144 9.2558-9.2552 9.2558-5.1116 0-9.2554-4.144-9.2554-9.2558 0-5.1116 4.1438-9.2552 9.2554-9.2552 5.1111 0 9.2552 4.1436 9.2552 9.2552z" fill="url(#v)" stroke="#204a87" stroke-width=".46514"/>
<path d="m70.946-3.5111c0 4.8303-3.9158 8.746-8.7454 8.746-4.83 0-8.7456-3.9158-8.7456-8.746 0-4.8301 3.9156-8.7454 8.7456-8.7454 4.8296 0 8.7454 3.9153 8.7454 8.7454z" fill="none" opacity=".52747" stroke="url(#af)" stroke-width=".46514"/>
<image x="61.522" y="-11.413" width="10.785" height="16.411" fill="#ffffff" opacity=".75" stroke="url(#a)" href="62169F0D.png"/>
<image x="61.991" y="-10.944" width="2.3445" height="2.3445" fill="#ffffff" opacity=".75" stroke="url(#a)" href="62169F0E.png"/>
<g transform="matrix(.46889 0 0 .46889 50.39 -14.574)" fill="#9db029" stroke="url(#e)">
<path d="m26.07 9.2363l-0.0732 0.4932 0.5098 0.3291 0.8711-0.5757-0.4355-0.4937-0.582 0.3296-0.29-0.0825" fill="#9db029" stroke="url(#d)"/>
</g>
<image x="58.709" y="-12.82" width="5.6267" height="4.6889" fill="#ffffff" opacity=".75" stroke="url(#a)" href="62169F0F.png"/>
<image x="62.929" y="-9.5376" width="2.3445" height="2.3445" fill="#ffffff" opacity=".75" stroke="url(#a)" href="62169F10.png"/>
<g transform="matrix(.46889 0 0 .46889 49.772 -14.574)" fill="#9db029" stroke="url(#ae)">
<path d="m28.833 12.775l-0.291-0.7412-0.5098 0.165 0.1465 0.9043 0.6543-0.3281" fill="#9db029" stroke="url(#u)"/>
</g>
<image x="63.398" y="-10.007" width="2.3445" height="3.2823" fill="#ffffff" opacity=".75" stroke="url(#a)" href="62169F11.png"/>
<g transform="matrix(.46889 0 0 .46889 49.948 -14.574)" fill="#9db029" stroke="url(#ad)">
<path d="m29.123 12.609l-0.1455 0.9883 0.7998-0.165 0.5811-0.5752-0.5088-0.4941c-0.1709-0.4551-0.3672-0.8799-0.5811-1.3164h-0.4355v0.4932l0.29 0.3291v0.7402" fill="#9db029" stroke="url(#t)"/>
</g>
<image x="52.144" y="-11.413" width="9.8468" height="17.349" fill="#ffffff" opacity=".75" stroke="url(#a)" href="62169F12.png"/>
<image x="57.771" y="-10.944" width="2.3445" height="2.3445" fill="#ffffff" opacity=".75" stroke="url(#a)" href="62169F13.png"/>
<g transform="matrix(.46889 0 0 .46889 50.39 -14.574)" fill="#9db029" stroke="url(#e)">
<path d="m16.766 9.5649l0.7266 0.4937h0.582v-0.5757l-0.7266-0.3291-0.582 0.4111" fill="#9db029" stroke="url(#d)"/>
</g>
<image x="56.364" y="-11.882" width="4.22" height="3.2823" fill="#ffffff" opacity=".75" stroke="url(#a)" href="62169F14.png"/>
<image x="57.302" y="-12.82" width="3.7511" height="2.8134" fill="#ffffff" opacity=".75" stroke="url(#a)" href="2D44FCEC.png"/>
<g transform="matrix(.46889 0 0 .46889 50.965 -14.529)" fill="#9db029" stroke="url(#ac)">
<path d="m17.492 7.8871l0.3638-0.3286 0.7271-0.1646c0.498-0.2422 0.998-0.4053 1.5264-0.5762l-0.29-0.4937-0.9385 0.1348-0.4434 0.4419-0.731 0.106-0.6499 0.3052-0.3159 0.1528-0.1929 0.2583 0.9443 0.1641" fill="#9db029" stroke="url(#s)"/>
</g>
<image x="58.24" y="-8.5999" width="2.3445" height="2.3445" fill="#ffffff" opacity=".75" stroke="url(#a)" href="2D44FCED.png"/>
<g transform="matrix(.46889 0 0 .46889 50.567 -14.309)" fill="#9db029" stroke="url(#ab)">
<path d="m18.728 14.666l0.4365-0.6582-0.6548-0.4932 0.2183 1.1514" fill="#9db029" stroke="url(#r)"/>
</g>
<image x="61.522" y="-11.413" width="10.785" height="16.411" fill="#ffffff" opacity=".1575" stroke="url(#a)" href="2D44FCEE.png"/>
<image x="61.991" y="-10.944" width="2.3445" height="2.3445" fill="#ffffff" opacity=".1575" stroke="url(#a)" href="2D44FCEF.png"/>
<image x="58.709" y="-12.82" width="5.6267" height="4.6889" fill="#ffffff" opacity=".1575" stroke="url(#a)" href="2D44FCF0.png"/>
<image x="62.929" y="-9.5376" width="2.3445" height="2.3445" fill="#ffffff" opacity=".1575" stroke="url(#a)" href="2D44FCF1.png"/>
<image x="63.398" y="-10.007" width="2.3445" height="3.2823" fill="#ffffff" opacity=".1575" stroke="url(#a)" href="2D44FCF2.png"/>
<image x="52.144" y="-11.413" width="9.8468" height="17.349" fill="#ffffff" opacity=".1575" stroke="url(#a)" href="2D44FCF3.png"/>
<image x="57.771" y="-10.944" width="2.3445" height="2.3445" fill="#ffffff" opacity=".1575" stroke="url(#a)" href="2D44FCF4.png"/>
<image x="56.364" y="-11.882" width="4.22" height="3.2823" fill="#ffffff" opacity=".1575" stroke="url(#a)" href="2D44FCF5.png"/>
<image x="57.302" y="-12.82" width="3.7511" height="2.8134" fill="#ffffff" opacity=".1575" stroke="url(#a)" href="2D44FD11.png"/>
<image x="58.24" y="-8.5999" width="2.3445" height="2.3445" fill="#ffffff" opacity=".1575" stroke="url(#a)" href="2D44FD12.png"/>
<g transform="matrix(.46889 0 0 .46889 50.744 -14.618)" fill="url(#q)" stroke="url(#aa)">
<path d="m17.943 27.769l-0.51857-1.0267-0.97148-0.21973-0.51813-1.3922-1.2952 0.14622-1.1008-0.80575-1.1664 1.0259v0.16181c-0.35284-0.10184-0.78659-0.11574-1.1008-0.30892l-0.25929-0.73268v-0.80664l-0.77706 0.073063c0.064866-0.5134 0.1292-1.0259 0.19451-1.5392h-0.4538l-0.4529 0.58647-0.4538 0.21928-0.64786-0.3655-0.064866-0.80664 0.12964-0.8797 0.97192-0.73268h0.77706l0.1292-0.44025 0.97148 0.21928 0.71264 0.88059 0.12964-1.4671 1.2308-1.0259 0.45335-1.0999 0.9067-0.3663 0.51813-0.73268 1.1655-0.22097 0.58344-0.87881h-1.749l1.1011-0.5134h0.77661l1.1016-0.36719 0.12964-0.43856-0.38893-0.36719-0.45335-0.14702 0.12964-0.43945-0.32371-0.65953-0.7775 0.29234 0.12964-0.58602-0.9067-0.5134-0.71219 1.2456 0.06442 0.44025-0.71219 0.29412-0.4538 0.95277-0.19406-0.8797-1.2308-0.5134-0.19451-0.65953 1.6193-0.95366 0.71264-0.65953 0.064866-0.80619-0.38848-0.22017-0.51813-0.073509-0.32371 0.80664s-0.54165 0.10612-0.68092 0.14051c-1.7786 1.6389-5.3722 5.1769-6.2071 11.856 0.033057 0.15486 0.60518 1.0528 0.60518 1.0528l1.36 0.80575 1.36 0.36719 0.58344 0.73349 0.90625 0.65953 0.51813-0.073063 0.38848 0.17491v0.11833l-0.51777 1.3927-0.38893 0.58647 0.12964 0.29412-0.32371 1.0981 1.166 2.1266 1.1655 1.0267 0.51857 0.73268-0.065223 1.5401 0.38893 0.87881-0.38893 1.6863s-0.030473-0.010425 0.019157 0.15833c0.050075 0.16885 2.0753 1.293 2.204 1.1974 0.12831-0.097478 0.23799-0.18275 0.23799-0.18275l-0.1292-0.3655 0.51777-0.5134 0.19451-0.5134 0.84228-0.29412 0.64741-1.6132-0.19406-0.43856 0.45246-0.65953 0.97192-0.22097 0.51857-1.1729-0.12964-1.4653 0.77706-1.0999 0.12964-1.0999c-1.0633-0.5273-2.118-1.0703-3.1734-1.6132" fill="url(#p)" stroke="url(#o)"/>
</g>
<g transform="matrix(.46889 0 0 .46889 50.523 -14.441)" fill="url(#n)" stroke="url(#z)">
<path d="m26.87 6.6933l-1.8906-0.7407-2.1797 0.2466-2.6904 0.7402-0.5088 0.4941 1.6719 1.1514v0.6582l-0.6543 0.6582 0.873 1.729 0.5801-0.3301 0.7285-1.1514c1.123-0.3472 2.1299-0.7407 3.1973-1.2344l0.873-2.2212" fill="url(#m)" stroke="url(#l)"/>
</g>
<g transform="matrix(.46889 0 0 .46889 50.832 -14.75)" fill="url(#k)" stroke="url(#y)">
<path d="m15.187 9.6335l-0.3638 0.9048h0.7271l0.3638-0.8228c0.3135-0.2217 0.6255-0.4448 0.9448-0.6582l0.7271 0.2471c0.4844 0.3291 0.9688 0.6582 1.4536 0.9868l0.7275-0.6577-0.8003-0.3291-0.3638-0.7407-1.3809-0.1646-0.0728-0.4116-0.6543 0.165-0.2904 0.5758-0.3638-0.7407-0.145 0.3291 0.0728 0.8228-0.5816 0.494" fill="url(#j)" stroke="url(#i)"/>
</g>
<g transform="matrix(.46889 0 0 .46889 50.125 -14.485)" fill="url(#h)" stroke="url(#x)">
<path d="m42.893 20.729v0l-0.50029 0.56667c-0.30666-0.36138-0.65096-0.66528-1.0006-0.98268l-0.76747 0.11293-0.70118-0.79262v0.98093l0.60074 0.45457 0.39985 0.45282 0.53435-0.60432c0.13451 0.25194 0.26718 0.50387 0.40076 0.75581v0.75498l-0.60165 0.6796-1.101 0.75581-0.83385 0.8321-0.53435-0.60615 0.26718-0.6796-0.53353-0.60432-0.90106-1.926-0.76747-0.86791-0.20089 0.22595 0.30124 1.0957 0.56667 0.64196c0.32364 0.93429 0.6438 1.8273 1.0688 2.7203 0.65904 0 1.2803-0.069962 1.9349-0.15241v0.52903l-0.8007 1.9641-0.73432 0.83027-0.60074 1.2858v2.1142l0.20089 0.8321-0.33356 0.37662-0.73524 0.45365-0.76747 0.64196 0.6348 0.71734-0.86791 0.75673 0.16673 0.48955-1.3019 1.4741h-0.86699l-0.73432 0.45365h-0.46806v-0.60432l-0.19905-1.2105c-0.25827-0.75856-0.52719-1.5117-0.8007-2.2649 0-0.55593 0.033145-1.1064 0.066381-1.6623l0.33448-0.75498-0.46806-0.90739 0.034063-1.2463-0.6348-0.71734 0.3174-1.0383-0.51645-0.58595h-0.90197l-0.30032-0.3398-0.90106 0.56713-0.3667-0.41647-0.83477 0.71771c-0.56667-0.64242-1.1343-1.2844-1.7018-1.9263l-0.66712-1.587 0.60074-0.90556-0.33356-0.37744 0.7334-1.7386c0.60257-0.74956 1.232-1.4686 1.8686-2.1904l1.1351-0.30216 1.2679-0.15067 0.86791 0.22687 1.2346 1.2454 0.434-0.49047 0.59982-0.075287 1.1351 0.37744h0.86791l0.60074-0.52903 0.26718-0.37744-0.60165-0.37744-1.0015-0.075287c-0.27792-0.38552-0.53619-0.79079-0.86617-1.1333l-0.33448 0.15066-0.13359 0.98268-0.60074-0.6796-0.13267-0.75673-0.66712-0.52719h-0.2681l0.66794 0.75498-0.26718 0.6796-0.53353 0.15067 0.33356-0.6796-0.60165-0.30124-0.53261-0.60432-1.0024 0.22595-0.13267 0.30124-0.60074 0.37836-0.33356 0.83119-0.83385 0.41509-0.36762-0.41509h-0.39985v-1.3601l0.86791-0.45365h0.66712l-0.13451-0.52811-0.53261-0.52903 0.90023-0.18923 0.50029-0.56575 0.39985-0.68052h0.73524l-0.20089-0.52811 0.46806-0.30216v0.60432l1.0006 0.22595 1.0006-0.83027 0.067207-0.37836 0.86699-0.60386c-0.31382 0.039021-0.62764 0.067666-0.93429 0.15112v-0.68043l0.33356-0.75544h-0.33356l-0.73304 0.6796-0.20089 0.3779 0.20089 0.52949-0.33448 0.90556-0.53353-0.30216-0.46623-0.52811-0.73524 0.52811-0.26718-1.2082 1.2679-0.83073v-0.45365l0.80153-0.52857 1.2679-0.30262 0.86791 0.30262 1.6013 0.30216-0.39985 0.45282h-0.86791l0.86791 0.90647 0.66712-0.75498 0.20263-0.33218s2.5589 2.2935 4.0213 4.8023c1.4624 2.5096 2.1492 5.4676 2.1492 6.0683z" fill="url(#g)" stroke="url(#f)"/>
</g>
</g>
</g>
</svg>
