<?xml version="1.0" encoding="UTF-8"?>
<svg version="1.1" xmlns="http://www.w3.org/2000/svg" width="60" height="60">
<path d="M0 0 C19.8 0 39.6 0 60 0 C60 19.8 60 39.6 60 60 C40.2 60 20.4 60 0 60 C0 40.2 0 20.4 0 0 Z " fill="#FFEFB5" transform="translate(0,0)"/>
<path d="M0 0 C2.50696229 0.95091673 3.94401245 1.93801378 5.75 3.9375 C7.65536944 8.60565513 7.67044961 13.02992793 7 18 C5.01031547 21.91075925 3.63466354 23.57689098 0 26 C-0.66 26 -1.32 26 -2 26 C-2.61875 26.474375 -3.2375 26.94875 -3.875 27.4375 C-8.53794089 30.86613301 -14.43748894 30.49056525 -20 30 C-26.81111111 28.18888889 -26.81111111 28.18888889 -29 26 C-29.29356154 22.37940768 -28.85064319 20.12296038 -27 17 C-27.33 16.67 -27.66 16.34 -28 16 C-28.04092937 13.66702567 -28.04241723 11.33294775 -28 9 C-27.34 8.67 -26.68 8.34 -26 8 C-25.34 9.32 -24.68 10.64 -24 12 C-22.453125 11.87625 -22.453125 11.87625 -20.875 11.75 C-16.40982801 12.03807561 -14.47673956 13.28644717 -11 16 C-11 12.04 -11 8.08 -11 4 C-10.67 4 -10.34 4 -10 4 C-9.67 5.65 -9.34 7.3 -9 9 C-8.01 9.33 -7.02 9.66 -6 10 C-5.875 14.75 -5.875 14.75 -7 17 C-6.01 17.33 -5.02 17.66 -4 18 C-1.86000323 13.72000646 -2.90678389 8.50951645 -4 4 C-0.125 5.75 -0.125 5.75 1 8 C1.16796875 10.0234375 1.16796875 10.0234375 1.1875 12.375 C1.20167969 13.14585938 1.21585938 13.91671875 1.23046875 14.7109375 C0.97801607 17.21834888 0.25193467 18.83261902 -1 21 C-0.67 21.33 -0.34 21.66 0 22 C2.66467584 17.44784545 3.56458217 14.2694336 3 9 C2.06295743 6.9697411 1.07074592 4.96303418 0 3 C0 2.01 0 1.02 0 0 Z " fill="#1062CD" transform="translate(36,17)"/>
<path d="M0 0 C0.33 0 0.66 0 1 0 C1.33 1.65 1.66 3.3 2 5 C2.99 5.33 3.98 5.66 5 6 C5.042721 7.66611905 5.04063832 9.33382885 5 11 C4.67 11.33 4.34 11.66 4 12 C3.76572222 14.01594582 3.58663876 16.038474 3.4375 18.0625 C3.35371094 19.16722656 3.26992188 20.27195312 3.18359375 21.41015625 C3.09271484 22.69212891 3.09271484 22.69212891 3 24 C2.01 24 1.02 24 0 24 C-0.4125 23.05125 -0.825 22.1025 -1.25 21.125 C-3.0040131 17.99283376 -3.70851757 17.13499394 -7 16 C-7.33 16.33 -7.66 16.66 -8 17 C-10.33297433 17.04092937 -12.66705225 17.04241723 -15 17 C-16.99785435 12.8794254 -17.17835515 9.54805635 -17 5 C-16.34 4.67 -15.68 4.34 -15 4 C-14.34 5.32 -13.68 6.64 -13 8 C-11.453125 7.87625 -11.453125 7.87625 -9.875 7.75 C-5.40982801 8.03807561 -3.47673956 9.28644717 0 12 C0 8.04 0 4.08 0 0 Z " fill="#8D8F8B" transform="translate(25,21)"/>
<path d="M0 0 C0.99 0 1.98 0 3 0 C3.31461385 7.09629025 3.44572039 12.68284595 0 19 C-4.875 17.125 -4.875 17.125 -6 16 C-8.67058851 15.85884839 -11.32432238 15.95752893 -14 16 C-14 15.34 -14 14.68 -14 14 C-14.66 13.67 -15.32 13.34 -16 13 C-15.67 11.02 -15.34 9.04 -15 7 C-12 7 -9 7 -6 7 C-2.54139971 3.85759834 -2.54139971 3.85759834 0 0 Z " fill="#90A2B2" transform="translate(25,14)"/>
<path d="M0 0 C4.21779303 1.50635465 5.7747674 4.24012422 8 8 C10.135693 14.40707899 10.20918312 22.41204097 7.25 28.5625 C5.52868713 31.44966662 3.64319642 33.88544286 1 36 C0.34 36 -0.32 36 -1 36 C-0.46604696 31.46139912 1.4197418 28.70912117 4 25 C5.68619242 19.94142274 5.94436448 15.28826778 3.8828125 10.29296875 C2.98730038 8.56518689 2.05926902 6.85372079 1.09375 5.1640625 C0 3 0 3 0 0 Z " fill="#1E57A5" transform="translate(41,12)"/>
<path d="M0 0 C2.50696229 0.95091673 3.94401245 1.93801378 5.75 3.9375 C7.65536944 8.60565513 7.67044961 13.02992793 7 18 C5.01031547 21.91075925 3.63466354 23.57689098 0 26 C0.75800712 20.44128114 0.75800712 20.44128114 2.0625 18.0625 C3.48885015 14.92452967 3.29364616 12.40629551 3 9 C2.06295743 6.9697411 1.07074592 4.96303418 0 3 C0 2.01 0 1.02 0 0 Z " fill="#1F5DB1" transform="translate(36,17)"/>
<path d="M0 0 C4.26434906 4.03990964 6.72415135 6.47961445 7.37109375 12.390625 C7.58675664 24.92444459 7.58675664 24.92444459 3.19140625 30.484375 C1.77589123 32.10953372 1.77589123 32.10953372 1 35 C0.34 35 -0.32 35 -1 35 C-0.46604696 30.46139912 1.4197418 27.70912117 4 24 C5.6927774 18.92166781 5.92797178 14.27774892 3.8828125 9.2578125 C2.98611861 7.51001932 2.05796013 5.77787923 1.09375 4.06640625 C0 2 0 2 0 0 Z " fill="#1F66C4" transform="translate(41,13)"/>
<path d="M0 0 C0.33 0 0.66 0 1 0 C1 4.62 1 9.24 1 14 C-1.64 13.67 -4.28 13.34 -7 13 C-7 12.34 -7 11.68 -7 11 C-7.66 10.67 -8.32 10.34 -9 10 C-8.43410156 9.61328125 -7.86820313 9.2265625 -7.28515625 8.828125 C-6.55167969 8.30734375 -5.81820313 7.7865625 -5.0625 7.25 C-3.96615234 6.48429687 -3.96615234 6.48429687 -2.84765625 5.703125 C-0.79194601 3.80822085 -0.37330824 2.72574271 0 0 Z " fill="#E2E3E1" transform="translate(26,15)"/>
<path d="M0 0 C0.33 0.66 0.66 1.32 1 2 C2.2065625 2.433125 2.2065625 2.433125 3.4375 2.875 C6 4 6 4 7.3125 6.125 C7.539375 6.74375 7.76625 7.3625 8 8 C3.58937864 9.0257259 1.07369424 9.03684712 -3 7 C-3 5.68 -3 4.36 -3 3 C-2.01 3 -1.02 3 0 3 C0 2.01 0 1.02 0 0 Z " fill="#1159B6" transform="translate(17,35)"/>
<path d="M0 0 C1.9451 2.91765 2.45276317 4.62537285 3 8 C3.99 8 4.98 8 6 8 C6.66 7.34 7.32 6.68 8 6 C8.93423645 9.01031744 9.04449911 9.86650268 8 13 C5.69 13 3.38 13 1 13 C-0.99544337 8.88439805 -1.26247139 5.54950416 -1 1 C-0.67 0.67 -0.34 0.34 0 0 Z " fill="#39474C" transform="translate(9,25)"/>
<path d="M0 0 C3.875 1.75 3.875 1.75 5 4 C5.53151198 8.5134952 5.86526046 11.89138503 3 15.5625 C2.34 16.036875 1.68 16.51125 1 17 C0.67 16.01 0.34 15.02 0 14 C0.33 13.34 0.66 12.68 1 12 C1.15725856 7.83264813 0.98317108 4.05558072 0 0 Z " fill="#1E61BB" transform="translate(32,21)"/>
<path d="M0 0 C0.99 0.33 1.98 0.66 3 1 C3.042721 2.66611905 3.04063832 4.33382885 3 6 C2.67 6.33 2.34 6.66 2 7 C1.76572222 9.01594582 1.58663876 11.038474 1.4375 13.0625 C1.35371094 14.16722656 1.26992188 15.27195312 1.18359375 16.41015625 C1.12300781 17.26480469 1.06242187 18.11945312 1 19 C0.01 19 -0.98 19 -2 19 C-2.99 16.69 -3.98 14.38 -5 12 C-4.34 12 -3.68 12 -3 12 C-0.60926555 8.17482487 -0.44033448 4.40334476 0 0 Z " fill="#4E585C" transform="translate(27,26)"/>
<path d="M0 0 C0.99 0.495 0.99 0.495 2 1 C1.67 1.66 1.34 2.32 1 3 C2.32 3 3.64 3 5 3 C5 4.32 5 5.64 5 7 C3.35 7.33 1.7 7.66 0 8 C0 5.36 0 2.72 0 0 Z " fill="#E6E4E4" transform="translate(11,22)"/>
<path d="M0 0 C0.66 0 1.32 0 2 0 C2 0.66 2 1.32 2 2 C4.97 2.495 4.97 2.495 8 3 C8 4.32 8 5.64 8 7 C4.59679258 5.98823563 3.24274669 5.35156418 1.1875 2.375 C0.795625 1.59125 0.40375 0.8075 0 0 Z " fill="#B0B3AD" transform="translate(17,26)"/>
<path d="M0 0 C1.98 0 3.96 0 6 0 C6 1.32 6 2.64 6 4 C4.68 4 3.36 4 2 4 C1.67 3.01 1.34 2.02 1 1 C1 2.98 1 4.96 1 7 C0.34 6.67 -0.32 6.34 -1 6 C-0.67 4.02 -0.34 2.04 0 0 Z " fill="#B8BBB7" transform="translate(10,21)"/>
<path d="M0 0 C1.32 0 2.64 0 4 0 C4 1.65 4 3.3 4 5 C2.35 5 0.7 5 -1 5 C-0.67 3.35 -0.34 1.7 0 0 Z " fill="#AFB0AE" transform="translate(12,29)"/>
<path d="M0 0 C0.99 0.33 1.98 0.66 3 1 C3.1875 3.375 3.1875 3.375 3 6 C2.01 6.66 1.02 7.32 0 8 C0 5.36 0 2.72 0 0 Z " fill="#5B6D7D" transform="translate(27,26)"/>
<path d="M0 0 C2.1519437 3.22791555 2.20086443 4.28400809 2 8 C1.01 8 0.02 8 -1 8 C-1.04241723 5.66705225 -1.04092937 3.33297433 -1 1 C-0.67 0.67 -0.34 0.34 0 0 Z " fill="#606A6F" transform="translate(9,25)"/>
<path d="M0 0 C0.33 0 0.66 0 1 0 C1.49230769 6.4 1.49230769 6.4 -1 9.4375 C-1.99 10.2109375 -1.99 10.2109375 -3 11 C-3.33 10.01 -3.66 9.02 -4 8 C-3.525625 7.608125 -3.05125 7.21625 -2.5625 6.8125 C-0.64820367 4.59191626 -0.38733012 2.86624291 0 0 Z " fill="#1D56A5" transform="translate(36,27)"/>
<path d="M0 0 C1.98 0.495 1.98 0.495 4 1 C4 1.99 4 2.98 4 4 C2.35 4 0.7 4 -1 4 C-0.67 2.68 -0.34 1.36 0 0 Z " fill="#707370" transform="translate(12,33)"/>
<path d="M0 0 C0.928125 0.2784375 0.928125 0.2784375 1.875 0.5625 C4.04160178 1.23686176 4.04160178 1.23686176 6 0 C5.67 1.65 5.34 3.3 5 5 C3.68 4.67 2.36 4.34 1 4 C0.67 2.68 0.34 1.36 0 0 Z " fill="#717A7C" transform="translate(17,33)"/>
</svg>
