<?xml version="1.0" encoding="UTF-8" standalone="no"?>
<svg
   xmlns:dc="http://purl.org/dc/elements/1.1/"
   xmlns:cc="http://creativecommons.org/ns#"
   xmlns:rdf="http://www.w3.org/1999/02/22-rdf-syntax-ns#"
   xmlns:svg="http://www.w3.org/2000/svg"
   xmlns="http://www.w3.org/2000/svg"
   xmlns:sodipodi="http://sodipodi.sourceforge.net/DTD/sodipodi-0.dtd"
   xmlns:inkscape="http://www.inkscape.org/namespaces/inkscape"
   version="1.0"
   height="64"
   width="64"
   id="svg2"
   sodipodi:version="0.32"
   inkscape:version="0.46"
   sodipodi:docname="gui_vehicle_pedestrian.svg"
   inkscape:output_extension="org.inkscape.output.svg.inkscape">
  <metadata
     id="metadata16">
    <rdf:RDF>
      <cc:Work
         rdf:about="">
        <dc:format>image/svg+xml</dc:format>
        <dc:type
           rdf:resource="http://purl.org/dc/dcmitype/StillImage" />
      </cc:Work>
    </rdf:RDF>
  </metadata>
  <defs
     id="defs14">
    <inkscape:perspective
       sodipodi:type="inkscape:persp3d"
       inkscape:vp_x="0 : 335.76001 : 1"
       inkscape:vp_y="0 : 1000 : 0"
       inkscape:vp_z="753.12 : 335.76001 : 1"
       inkscape:persp3d-origin="376.56 : 223.84001 : 1"
       id="perspective18" />
  </defs>
  <sodipodi:namedview
     inkscape:window-height="726"
     inkscape:window-width="1280"
     inkscape:pageshadow="2"
     inkscape:pageopacity="0.0"
     guidetolerance="10.0"
     gridtolerance="10.0"
     objecttolerance="10.0"
     borderopacity="1.0"
     bordercolor="#666666"
     pagecolor="#ffffff"
     id="base"
     showgrid="false"
     inkscape:zoom="8.2333334"
     inkscape:cx="31.163054"
     inkscape:cy="30.91053"
     inkscape:window-x="0"
     inkscape:window-y="24"
     inkscape:current-layer="svg2" />
  <g
     transform="matrix(8.5470085e-2,0,0,8.5470085e-2,14.979693,-2.188034)"
     id="PedestrianSymbol"
     style="fill:#808080;fill-opacity:1">
    <circle
       r="56"
       cx="188"
       cy="105"
       style="fill:#808080;stroke:none;fill-opacity:1"
       id="circle9"
       sodipodi:cx="188"
       sodipodi:cy="105"
       sodipodi:rx="56"
       sodipodi:ry="56" />
    <path
       style="fill:#808080;stroke:none;fill-opacity:1"
       d="M 22,427 C 173.66667,190.33333 159.33333,183.66667 216,182 C 249,183 250,192 306,236 C 375,286.66667 370,287.33333 369,343 C 368.66667,410 373.33333,405 320,430 L 320,317 L 273,275 L 273,434 L 161,433 L 160,307 C 68,449 74,441 22,427 z M 163,450 L 272,450 C 272,475 280,473 338,582 C 399,694.33333 400,686.66667 365,751 L 214,480 C 71,756.66667 89,748.33333 10,743 L 89,595 C 156.66667,472.66667 160.33333,472.33333 163,450 z"
       id="path11" />
  </g>
</svg>
