<?xml version="1.0" encoding="UTF-8" standalone="no"?>
<!-- Created with Inkscape (http://www.inkscape.org/) -->
<svg
   xmlns:ns="http://creativecommons.org/ns#"
   xmlns:dc="http://purl.org/dc/elements/1.1/"
   xmlns:cc="http://web.resource.org/cc/"
   xmlns:rdf="http://www.w3.org/1999/02/22-rdf-syntax-ns#"
   xmlns:svg="http://www.w3.org/2000/svg"
   xmlns="http://www.w3.org/2000/svg"
   xmlns:sodipodi="http://sodipodi.sourceforge.net/DTD/sodipodi-0.dtd"
   xmlns:inkscape="http://www.inkscape.org/namespaces/inkscape"
   width="64"
   height="64"
   id="svg2307"
   sodipodi:version="0.32"
   inkscape:version="0.45.1"
   version="1.0"
   sodipodi:docbase="/home/martin/map/sf/navit-test/navit/xpm"
   sodipodi:docname="gui_vehicle.svg"
   inkscape:output_extension="org.inkscape.output.svg.inkscape">
  <defs
     id="defs2309">
    <inkscape:perspective
       sodipodi:type="inkscape:persp3d"
       inkscape:vp_x="0 : 130 : 1"
       inkscape:vp_y="0 : 1000 : 0"
       inkscape:vp_z="310 : 130 : 1"
       inkscape:persp3d-origin="155 : 86.666667 : 1"
       id="perspective8" />
  </defs>
  <sodipodi:namedview
     id="base"
     pagecolor="#ffffff"
     bordercolor="#666666"
     borderopacity="1.0"
     gridtolerance="10000"
     guidetolerance="10"
     objecttolerance="10"
     inkscape:pageopacity="0.0"
     inkscape:pageshadow="2"
     inkscape:zoom="2"
     inkscape:cx="141.5"
     inkscape:cy="95.089384"
     inkscape:document-units="px"
     inkscape:current-layer="layer1"
     inkscape:window-width="1022"
     inkscape:window-height="748"
     inkscape:window-x="0"
     inkscape:window-y="197"
     width="64px"
     height="64px"
     showgrid="false" />
  <metadata
     id="metadata2312">
    <rdf:RDF>
      <ns:Work
         rdf:about="">
        <dc:format>image/svg+xml</dc:format>
        <dc:type
           rdf:resource="http://purl.org/dc/dcmitype/StillImage" />
      </ns:Work>
      <cc:Work
         rdf:about="">
        <dc:format>image/svg+xml</dc:format>
        <dc:type
           rdf:resource="http://purl.org/dc/dcmitype/StillImage" />
      </cc:Work>
    </rdf:RDF>
  </metadata>
  <g
     inkscape:label="Layer 1"
     inkscape:groupmode="layer"
     id="layer1"
     transform="translate(2.44179,-204.566)"
     style="fill:#000000;fill-opacity:1;stroke:none">
    <path
       id="path9347"
       style="fill:#808080;fill-opacity:1;fill-rule:evenodd;stroke:none;stroke-width:1.22297001;stroke-linecap:butt;stroke-linejoin:miter;stroke-miterlimit:4;stroke-opacity:1"
       d="M 17.053296,212.37271 C 14.449642,212.27985 12.205975,213.1292 10.82234,216.17967 L 5.8266373,228.79068 C 2.1867153,229.80242 0.6021477,232.46788 0.5181979,234.65481 L 0.5181979,251.16736 L 5.3184615,251.16736 L 5.3184615,256.72409 C 5.085839,262.01991 13.694493,262.22459 13.887004,256.66892 L 13.988644,251.21465 L 45.127788,251.21465 L 45.229416,256.66892 C 45.421927,262.22459 54.038398,262.01991 53.805775,256.72409 L 53.805775,251.16736 L 58.598222,251.16736 L 58.598222,234.65481 C 58.514272,232.46788 56.929717,229.8024 53.289795,228.79068 L 48.29408,216.17967 C 46.910445,213.12922 44.666778,212.27985 42.063124,212.37271 L 17.053296,212.37271 z M 17.624016,216.74716 C 17.841792,216.74596 18.071365,216.75339 18.304181,216.76292 L 40.890417,216.83386 C 42.957617,216.78524 43.834347,216.83393 44.713436,218.80433 L 48.309713,228.57787 L 10.845802,228.53059 L 14.402996,219.01714 C 14.957697,217.11276 16.099586,216.75556 17.624016,216.74716 z M 9.7590889,233.47253 C 11.998097,233.47253 13.816642,235.29805 13.816642,237.55534 C 13.816642,239.81264 11.998097,241.64604 9.7590889,241.64604 C 7.5200928,241.64604 5.7015475,239.81264 5.7015475,237.55534 C 5.7015475,235.29804 7.5200928,233.47253 9.7590889,233.47253 z M 49.584049,233.47253 C 51.823057,233.47253 53.633786,235.29805 53.633786,237.55534 C 53.633786,239.81264 51.823057,241.64604 49.584049,241.64604 C 47.345053,241.64604 45.526507,239.81264 45.526507,237.55534 C 45.526507,235.29805 47.345053,233.47253 49.584049,233.47253 z M 46.797141,228.0952 L 46.797141,228.0952 z M 46.797141,228.0952 C 46.777067,227.94358 46.749346,227.825 46.717498,227.69948 C 46.507878,226.87315 46.227376,226.37069 45.625316,225.75534 C 45.039991,225.15709 44.381763,224.79015 43.611598,224.62557 C 42.855493,224.46398 35.842926,224.46356 35.084595,224.62557 C 33.644997,224.9331 32.411039,226.14389 32.029889,227.61919 C 32.01382,227.68137 31.99757,227.8543 31.984381,228.07799 L 46.797141,228.0952 z M 39.390755,217.41101 C 38.236511,217.41302 37.083672,218.01823 36.489647,219.23472 C 36.251785,219.72182 36.233659,219.79953 36.233659,220.61684 C 36.233659,221.42457 36.250127,221.51927 36.47826,222.0047 C 36.890435,222.88173 37.475857,223.40311 38.418036,223.74239 C 38.712126,223.84827 38.985671,223.88147 39.521592,223.86282 C 40.160266,223.84057 40.291672,223.80419 40.818567,223.54166 C 41.497183,223.20352 41.995316,222.70101 42.331696,222.01043 C 42.531939,221.59932 42.54785,221.48904 42.54785,220.65698 C 42.54785,219.7918 42.537444,219.73189 42.291875,219.22899 C 41.698854,218.01454 40.544998,217.40901 39.390755,217.41101 z " />
  </g>
</svg>
