<?xml version="1.0" encoding="UTF-8" standalone="no"?>
<!-- Created with Inkscape (http://www.inkscape.org/) -->

<svg
   xmlns:dc="http://purl.org/dc/elements/1.1/"
   xmlns:cc="http://creativecommons.org/ns#"
   xmlns:rdf="http://www.w3.org/1999/02/22-rdf-syntax-ns#"
   xmlns:svg="http://www.w3.org/2000/svg"
   xmlns="http://www.w3.org/2000/svg"
   xmlns:sodipodi="http://sodipodi.sourceforge.net/DTD/sodipodi-0.dtd"
   xmlns:inkscape="http://www.inkscape.org/namespaces/inkscape"
   version="1.1"
   width="22"
   height="22"
   id="svg2"
   inkscape:version="0.91 r13725"
   sodipodi:docname="heliport.svg">
  <metadata
     id="metadata7">
    <rdf:RDF>
      <cc:Work
         rdf:about="">
        <dc:format>image/svg+xml</dc:format>
        <dc:type
           rdf:resource="http://purl.org/dc/dcmitype/StillImage" />
        <dc:title />
        <dc:description>jfitie@gmail.com</dc:description>
        <cc:license
           rdf:resource="http://creativecommons.org/publicdomain/zero/1.0/" />
      </cc:Work>
      <cc:License
         rdf:about="http://creativecommons.org/publicdomain/zero/1.0/">
        <cc:permits
           rdf:resource="http://creativecommons.org/ns#Reproduction" />
        <cc:permits
           rdf:resource="http://creativecommons.org/ns#Distribution" />
        <cc:permits
           rdf:resource="http://creativecommons.org/ns#DerivativeWorks" />
      </cc:License>
    </rdf:RDF>
  </metadata>
  <sodipodi:namedview
     pagecolor="#ffff8a"
     bordercolor="#666666"
     borderopacity="1"
     objecttolerance="10"
     gridtolerance="10"
     guidetolerance="10"
     inkscape:pageopacity="0"
     inkscape:pageshadow="2"
     inkscape:window-width="1291"
     inkscape:window-height="871"
     id="namedview5"
     showgrid="false"
     inkscape:zoom="5.2149125"
     inkscape:cx="65.025422"
     inkscape:cy="43.302771"
     inkscape:window-x="141"
     inkscape:window-y="0"
     inkscape:window-maximized="0"
     inkscape:current-layer="svg2" />
  <defs
     id="defs6" />
  <g
     id="g3517"
     transform="matrix(0.20416148,0,0,0.20416238,0.7253889,1.4235293)">
    <g
       transform="translate(115.82169,-51.391083)"
       id="g3502">
      <path
         d="m -104.58203,72.339844 c -12.26981,0.204726 -19.17915,17.435869 -10.19531,25.960937 7.87762,9.458789 25.762517,3.919209 26.585934,-8.49414 1.479958,-9.369267 -6.93606,-18.324647 -16.390624,-17.466797 z"
         id="circle3336-6"
         inkscape:connector-curvature="0"
         style="fill:#ffffff;stroke:#ffffff" />
      <path
         style="fill:#ffffff;stroke:#ffffff"
         d="m -104.06641,76.660156 c -10.04753,0.117184 -13.87032,15.745452 -4.87109,20.369141 8.14724,5.915033 20.509528,-4.536148 15.9375,-13.541016 -1.708904,-4.382542 -6.406237,-7.187374 -11.06641,-6.828125 z"
         id="circle3338-7"
         inkscape:connector-curvature="0" />
      <path
         d="m -104.02148,80.158203 c -8.13471,0.02954 -9.54123,13.52155 -1.49024,15.095703 7.920684,3.050845 13.830836,-9.89553 6.312501,-13.865234 -1.416461,-0.937974 -3.137221,-1.320513 -4.822261,-1.230469 z"
         id="circle3340-5"
         inkscape:connector-curvature="0"
         style="fill:#ffffff;stroke:#ffffff" />
      <path
         style="fill:#ffffff;stroke:#ffffff;stroke-width:0.20561387"
         d="m -36.146484,80.085938 c -15.18587,1.163541 -30.598889,-0.556602 -45.794922,0.591796 -5.554134,2.227064 -3.480238,9.487647 -0.554688,13.0625 4.460769,8.073136 5.915501,18.481506 12.808594,24.863286 6.951217,3.31061 14.79146,0.0206 22.103436,1.14754 11.087124,-0.36385 22.572212,1.1515 33.418048,-0.78231 5.671764,-4.26007 -0.06204,-11.02798 -1.794922,-15.63867 -4.444886,-7.027209 -4.884592,-17.259907 -12.208984,-22.091799 -2.504656,-1.078915 -5.283331,-1.265962 -7.976562,-1.152343 z"
         id="path3342-3"
         inkscape:connector-curvature="0" />
      <path
         style="fill:#ffffff;stroke:#ffffff;stroke-width:0.20561387"
         d="m -36.185547,84.699219 c -9.692025,1.091642 -19.701293,-1.002276 -29.259765,0.757812 -4.700298,2.736109 -1.395217,8.597689 0.599609,11.935547 1.351757,5.071922 6.405423,8.755702 11.650391,7.146482 9.711046,-0.48709 19.978838,1.37835 29.339843,-0.97461 4.622942,-4.211212 -1.020041,-9.416596 -2.472656,-13.509762 -1.14077,-4.372707 -5.830927,-5.777287 -9.857422,-5.355469 z"
         id="path3344-5"
         inkscape:connector-curvature="0" />
      <path
         d="m -68.099609,67.603516 c -9.798221,0.803351 -19.943673,-0.929454 -29.613282,0.652343 -6.150159,2.658763 -3.450489,13.538013 3.505134,12.13573 10.02674,-0.764705 20.71005,1.817263 30.350335,-1.264636 4.847928,-3.453472 1.621929,-11.948246 -4.242187,-11.523437 z"
         id="path3346-6"
         inkscape:connector-curvature="0"
         style="fill:#ffffff;stroke:#ffffff" />
      <path
         d="m -20.0625,67.703125 c -9.807281,0.809179 -19.964809,-0.931482 -29.642578,0.65625 -6.127329,2.659116 -3.470551,13.487431 3.470303,12.143595 9.997788,-0.675519 20.563348,1.591918 30.223056,-1.149454 5.019582,-3.36761 1.92097,-12.041213 -4.050781,-11.650391 z"
         id="path3348-2"
         inkscape:connector-curvature="0"
         style="fill:#ffffff;stroke:#ffffff" />
      <path
         d="m -71.392578,71.052734 c -0.929526,3.718373 0.908228,8.454183 5.414062,8.144532 4.730009,0.01087 9.480562,-1.252385 14.015625,0.474609 4.862602,1.14452 11.421345,-5.545086 6.671875,-9.476563 -6.300142,-2.920039 -13.869305,-0.199133 -20.568359,-1.142578 -1.851958,0.645413 -6.759309,-1.627682 -5.533203,2 z"
         id="rect3350-9"
         inkscape:connector-curvature="0"
         style="fill:#ffffff;stroke:#ffffff" />
      <path
         d="m -54.246094,70.371094 c -3.191536,-0.309008 -10.162755,-1.373939 -9.363281,4.007812 0.06811,9.911518 0.01008,19.836983 0.0293,29.753904 4.553033,2.33355 11.786436,1.01982 12.015625,-5.062498 0.192677,-9.798116 -0.344459,-19.643168 -0.109375,-29.466796 -0.857422,0.255859 -1.714844,0.511718 -2.572266,0.767578 z"
         id="rect3352-1"
         inkscape:connector-curvature="0"
         style="fill:#ffffff;stroke:#ffffff" />
      <path
         d="m -45.896484,83.277344 c -3.896546,-0.397378 -7.115721,3.249552 -5.460938,7.015625 0.05752,4.708855 -2.989848,13.415231 3.5625,15.230471 3.911193,1.55682 8.693817,-1.09075 8.101563,-5.669924 -0.343603,-4.304045 -0.6346,-8.357677 0.203125,-12.552735 -0.429083,-2.966176 -3.775921,-4.133289 -6.40625,-4.023437 z"
         id="rect3354-2"
         inkscape:connector-curvature="0"
         style="fill:#ffffff;stroke:#ffffff" />
      <path
         d="m -34.300781,82.746094 c -4.676,-0.01654 -6.511432,4.859779 -5.517578,8.828125 0.236759,4.708835 -2.13808,12.507851 3.214843,14.845701 4.646576,2.00115 9.238046,-2.22766 8.53711,-6.984373 -1.185198,-4.736808 2.018908,-9.944615 -0.921875,-14.208985 -1.238046,-1.62054 -3.280498,-2.553483 -5.3125,-2.480468 z"
         id="rect3356-7"
         inkscape:connector-curvature="0"
         style="fill:#ffffff;stroke:#ffffff" />
      <path
         style="fill:#ffffff;stroke:#ffffff;stroke-width:0.20561387"
         d="m -102.10547,80.228516 c -7.2033,0.586202 -9.04622,12.909643 -2.53125,15.564453 9.539611,4.511931 19.888308,7.089741 29.406251,11.763671 5.091679,1.45424 10.748325,6.08389 15.919922,3.66211 5.607501,-4.4815 3.052277,-12.741308 5.839844,-18.65625 1.680666,-4.445361 1.269823,-11.879406 -4.898438,-12.125 -14.579131,0.134463 -29.158509,-0.08746 -43.736329,-0.208984 z"
         id="path3358-0"
         inkscape:connector-curvature="0" />
      <path
         d="m -23.318359,119.93555 c -16.675873,1.0093 -33.567057,-0.37599 -50.242188,0.59961 -7.872507,1.88124 -7.518196,15.59888 0.946351,15.96044 17.04978,1.0318 34.162794,0.0318 51.217712,0.44971 7.194474,0.35891 11.7036092,-9.48357 6.039062,-14.25586 -2.12887,-1.95334 -5.097084,-2.88727 -7.960937,-2.7539 z"
         id="path3360-9"
         inkscape:connector-curvature="0"
         style="fill:#ffffff;stroke:#ffffff" />
    </g>
    <g
       transform="matrix(0.20561387,0,0,0.20561387,0.23544471,19.985833)"
       id="g3368">
      <circle
         cx="55.5"
         cy="78"
         r="55.5"
         id="circle3336" />
      <circle
         style="fill:#ffffff"
         cx="57"
         cy="77.5"
         r="34"
         id="circle3338" />
      <circle
         cx="56"
         cy="78.5"
         r="18"
         id="circle3340" />
      <path
         style="stroke:#ffffff"
         inkscape:connector-curvature="0"
         d="m 423.916,73.5 c -2.97,-6.627 -10.783,-12 -17.452,-12 l -236.476,0 c -6.668,0 -9.667,5.373 -6.698,12 l 57.795,129 c 2.969,6.627 10.782,12 17.452,12 l 236.475,0 c 6.668,0 9.668,-5.373 6.699,-12 l -57.795,-129 z"
         id="path3342" />
      <path
         style="fill:#ffffff;stroke:#000000"
         inkscape:connector-curvature="0"
         d="m 408.512,87.97 c -1.215,-2.468 -5.534,-4.47 -9.645,-4.47 l -145.781,0 c -4.11,0 -6.459,2.002 -5.244,4.47 l 23.647,48.06 c 1.215,2.468 5.533,4.47 9.645,4.47 l 145.78,0 c 4.111,0 6.458,-2.002 5.245,-4.47 L 408.512,87.97 Z"
         id="path3344" />
      <path
         inkscape:connector-curvature="0"
         d="M 240.5,11.5 C 240.5,17.851 235.351,23 229,23 L 97,23 C 90.649,23 85.5,17.851 85.5,11.5 l 0,0 C 85.5,5.149 90.649,0 97,0 l 132,0 c 6.351,0 11.5,5.149 11.5,11.5 l 0,0 z"
         id="path3346" />
      <path
         inkscape:connector-curvature="0"
         d="m 319,12 c 0,6.351 5.148,11.5 11.5,11.5 l 132,0 c 6.352,0 11.5,-5.149 11.5,-11.5 l 0,0 C 474,5.649 468.852,0.5 462.5,0.5 l -132,0 C 324.148,0.5 319,5.649 319,12 l 0,0 z"
         id="path3348" />
      <rect
         x="231"
         y="6.5"
         width="95"
         height="9"
         id="rect3350" />
      <rect
         x="269"
         y="12.5"
         width="19"
         height="128"
         id="rect3352" />
      <rect
         x="327"
         y="77.5"
         width="18"
         height="68"
         id="rect3354" />
      <rect
         x="384"
         y="75.5"
         width="18"
         height="73"
         id="rect3356" />
      <path
         style="stroke:#000000"
         inkscape:connector-curvature="0"
         d="m 265.596,166.786 c -1.57,8.089 -7.385,12.763 -12.986,10.446 -64.097,-26.422 -128.608,-51.793 -193.289,-76.75 -5.631,-2.169 -9.813,-5.898 -9.34,-8.332 2.11,-10.872 3.167,-16.307 5.277,-27.179 0.473,-2.434 5.745,-4.326 11.778,-4.231 69.32,1.053 138.638,1.655 207.965,1.129 6.063,-0.053 9.707,6.453 8.136,14.547 -5.848,30.124 -11.695,60.247 -17.541,90.37 z"
         id="path3358" />
      <path
         inkscape:connector-curvature="0"
         d="m 477,276.5 c 0,11.598 -9.402,21 -21,21 l -243,0 c -11.598,0 -21,-9.402 -21,-21 l 0,0 c 0,-11.598 9.402,-21 21,-21 l 243,0 c 11.598,0 21,9.402 21,21 l 0,0 z"
         id="path3360" />
    </g>
  </g>
</svg>
