/* XPM */
static char * highway_exit_xpm[] = {
"16 16 46 1",
" 	c None",
".	c #035E9F",
"+	c #77A8CB",
"@	c #D4E3EE",
"#	c #337CB1",
"$	c #CFE0EC",
"%	c #4688B8",
"&	c #8DB6D3",
"*	c #A5C5DC",
"=	c #488AB9",
"-	c #4588B8",
";	c #B0CDE1",
">	c #8EB7D4",
",	c #DEEAF2",
"'	c #5C97C1",
")	c #5592BE",
"!	c #7EACCE",
"~	c #E6EFF5",
"{	c #F5F8FB",
"]	c #2E79AF",
"^	c #FFFFFF",
"/	c #166AA6",
"(	c #EAF1F7",
"_	c #8CB5D3",
":	c #2674AC",
"<	c #83B0CF",
"[	c #76A7CB",
"}	c #5894BF",
"|	c #FEFEFE",
"1	c #1469A5",
"2	c #0A63A2",
"3	c #74A6CA",
"4	c #EFF4F8",
"5	c #3880B3",
"6	c #EEF4F8",
"7	c #72A5C9",
"8	c #CADDEB",
"9	c #ACCADF",
"0	c #2272AB",
"a	c #3C82B4",
"b	c #3B81B4",
"c	c #045F9F",
"d	c #196CA7",
"e	c #1B6DA8",
"f	c #367EB2",
"g	c #1C6EA8",
"................",
"................",
"................",
"................",
"................",
"................",
"+@@@#$%&*=@-@@@;",
">,').!~{])^/](_:",
">~<[.}|~1)^2.~3.",
">4;;56789)^2.~3.",
"0aaa:bcdaeac.fg.",
"................",
"................",
"................",
"................",
"................"};
