<?xml version="1.0" encoding="UTF-8" standalone="no"?>
<!-- Created with Inkscape (http://www.inkscape.org/) -->

<svg
   xmlns:dc="http://purl.org/dc/elements/1.1/"
   xmlns:cc="http://creativecommons.org/ns#"
   xmlns:rdf="http://www.w3.org/1999/02/22-rdf-syntax-ns#"
   xmlns:svg="http://www.w3.org/2000/svg"
   xmlns="http://www.w3.org/2000/svg"
   xmlns:sodipodi="http://sodipodi.sourceforge.net/DTD/sodipodi-0.dtd"
   xmlns:inkscape="http://www.inkscape.org/namespaces/inkscape"
   height="22"
   id="svg2"
   inkscape:output_extension="org.inkscape.output.svg.inkscape"
   inkscape:version="0.48.1 r9760"
   sodipodi:docname="hindu.svg"
   sodipodi:version="0.32"
   version="1.0"
   width="22">
  <metadata
     id="metadata2975">
    <rdf:RDF>
      <cc:Work
         rdf:about="">
        <dc:format>image/svg+xml</dc:format>
        <dc:type
           rdf:resource="http://purl.org/dc/dcmitype/StillImage" />
        <cc:license
           rdf:resource="http://web.resource.org/cc/PublicDomain" />
        <dc:language>en</dc:language>
      </cc:Work>
    </rdf:RDF>
  </metadata>
  <sodipodi:namedview
     bordercolor="#666666"
     borderopacity="1.0"
     gridtolerance="10.0"
     guidetolerance="10.0"
     id="base"
     inkscape:current-layer="svg2"
     inkscape:cx="12.265183"
     inkscape:cy="9.2991142"
     inkscape:pageopacity="0.0"
     inkscape:pageshadow="2"
     inkscape:window-height="725"
     inkscape:window-width="1024"
     inkscape:window-x="0"
     inkscape:window-y="20"
     inkscape:zoom="14.746834"
     objecttolerance="10.0"
     pagecolor="#ffffff"
     showgrid="false"
     inkscape:window-maximized="0" />
  <defs
     id="defs4">
    <inkscape:perspective
       id="perspective2441"
       inkscape:persp3d-origin="290 : 193.33333 : 1"
       inkscape:vp_x="0 : 290 : 1"
       inkscape:vp_y="0 : 1000 : 0"
       inkscape:vp_z="580 : 290 : 1"
       sodipodi:type="inkscape:persp3d" />
    <inkscape:perspective
       id="perspective2466"
       inkscape:persp3d-origin="372.04724 : 350.78739 : 1"
       inkscape:vp_x="0 : 526.18109 : 1"
       inkscape:vp_y="0 : 1000 : 0"
       inkscape:vp_z="744.09448 : 526.18109 : 1"
       sodipodi:type="inkscape:persp3d" />
    <inkscape:perspective
       id="perspective3333"
       inkscape:persp3d-origin="372.04724 : 350.78739 : 1"
       inkscape:vp_x="0 : 526.18109 : 1"
       inkscape:vp_y="0 : 1000 : 0"
       inkscape:vp_z="744.09448 : 526.18109 : 1"
       sodipodi:type="inkscape:persp3d" />
    <inkscape:perspective
       id="perspective3401"
       inkscape:persp3d-origin="372.04724 : 350.78739 : 1"
       inkscape:vp_x="0 : 526.18109 : 1"
       inkscape:vp_y="0 : 1000 : 0"
       inkscape:vp_z="744.09448 : 526.18109 : 1"
       sodipodi:type="inkscape:persp3d" />
    <inkscape:perspective
       id="perspective3464"
       inkscape:persp3d-origin="372.04724 : 350.78739 : 1"
       inkscape:vp_x="0 : 526.18109 : 1"
       inkscape:vp_y="0 : 1000 : 0"
       inkscape:vp_z="744.09448 : 526.18109 : 1"
       sodipodi:type="inkscape:persp3d" />
    <inkscape:perspective
       id="perspective3581"
       inkscape:persp3d-origin="225 : 150 : 1"
       inkscape:vp_x="0 : 225 : 1"
       inkscape:vp_y="0 : 1000 : 0"
       inkscape:vp_z="450 : 225 : 1"
       sodipodi:type="inkscape:persp3d" />
    <inkscape:perspective
       id="perspective4312"
       inkscape:persp3d-origin="225 : 150 : 1"
       inkscape:vp_x="0 : 225 : 1"
       inkscape:vp_y="0 : 1000 : 0"
       inkscape:vp_z="450 : 225 : 1"
       sodipodi:type="inkscape:persp3d" />
  </defs>
  <g
     id="g1327"
     transform="matrix(0.04126806,0,0,0.04126806,0,4.2610674e-4)">
    <path
       d="M 66.275,1.768 C 24.94,1.768 1.704,23.139 1.704,66.804 l 0,450.123 c 0,40.844 20.895,62.229 62.192,62.229 l 452.024,0 c 41.307,0 62.229,-20.315 62.229,-62.229 l 0,-450.123 c 0,-42.601 -20.922,-65.036 -63.521,-65.036 -0.004,0 -448.495,-0.143 -448.353,0 z"
       id="path1329"
       style="fill:#111111;fill-opacity:0;stroke:#eeeeee;stroke-width:3.40799999;stroke-opacity:0"
       inkscape:connector-curvature="0" />
  </g>
  <path
     d="M 9.1238337,23.441351 C 7.8477971,23.108366 6.7447067,22.44177 5.7074331,21.376823 4.055224,19.680536 3.1528084,17.865159 2.6184316,15.162715 2.3136445,13.62135 2.3131265,13.583834 2.593806,13.378595 c 0.5749754,-0.420433 0.8022344,-0.268921 0.9951127,0.663434 1.0051932,4.85899 4.1541207,8.017727 7.2174343,7.239921 0.91361,-0.231975 1.785205,-1.10905 2.047398,-2.060273 0.338075,-1.226516 -0.257504,-3.345992 -1.292776,-4.600585 l -0.367916,-0.445856 -0.621927,0.640851 c -0.6576981,0.677714 -1.4682345,1.23631 -1.7952884,1.237255 -0.1966514,5.7e-4 -1.0944909,-1.815434 -1.0944909,-2.213756 0,-0.116651 0.4270502,-0.407333 0.9490008,-0.645956 1.4647525,-0.669654 2.0878005,-1.42392 2.0878005,-2.527507 0,-0.7182032 -0.126612,-0.9686502 -0.61822,-1.2228705 C 9.4669298,9.1159133 8.4129364,9.1718963 7.1355273,9.6007087 6.5135832,9.80949 5.9691362,9.9803094 5.9256458,9.9803094 c -0.1119413,0 -0.977413,-1.9586073 -0.977413,-2.2119349 0,-0.4345862 0.938654,-0.7316052 2.5053606,-0.7927736 1.4369272,-0.056101 1.5630601,-0.0358 2.3507441,0.3783613 0.9899405,0.5205083 1.7259115,1.4217443 2.0487225,2.5087676 0.263286,0.8865792 0.301178,2.0407052 0.08562,2.6076782 -0.229582,0.603842 0.0624,0.608534 0.841902,0.01353 0.851707,-0.650121 1.427829,-0.904898 2.363539,-1.045216 0.674691,-0.101176 0.707982,-0.130614 0.892326,-0.789023 0.439997,-1.5715153 1.605418,-2.4991565 3.167583,-2.5213068 1.166152,-0.016536 1.821767,0.2232322 2.494652,0.9123291 0.888294,0.909695 1.206425,2.0078487 1.283915,4.4319097 0.09619,3.008898 -0.307912,4.635221 -1.484775,5.975596 -1.014424,1.155364 -2.610173,1.582386 -3.8552,1.031653 -1.050712,-0.464781 -1.327873,-1.185969 -1.448472,-3.768971 -0.07747,-1.659297 -0.14203,-2.05395 -0.378783,-2.315559 -0.366339,-0.404801 -0.591328,-0.395462 -1.581879,0.06566 l -0.812107,0.378057 0.32589,0.493541 c 2.117165,3.206296 1.678756,6.697651 -0.989215,7.877822 -0.840215,0.371666 -2.653365,0.486874 -3.6342183,0.230918 z M 20.097414,18.027585 c 1.094646,-0.667407 1.819494,-2.543381 1.660447,-4.297385 -0.103959,-1.146483 -0.771382,-2.497882 -1.45828,-2.95273 -0.929948,-0.615791 -2.207337,-0.413084 -3.044665,0.48315 l -0.371956,0.398125 0.291844,0.489382 c 0.242841,0.40721 0.299938,0.846321 0.340047,2.615143 0.05632,2.483582 0.07945,2.63016 0.499345,3.16397 0.400247,0.508832 1.339072,0.554053 2.083218,0.100345 z M 12.541052,7.7531193 C 12.165698,7.6217964 11.573924,7.3184939 11.225999,7.0791149 10.531288,6.6011419 9.1997533,5.1532325 9.1997533,4.8757795 c 0,-0.09622 0.1749106,-0.28955 0.3886895,-0.4296237 0.3804842,-0.2493032 0.4016736,-0.24295 1.0037292,0.3009713 0.797823,0.7207843 1.533102,1.0211386 2.505068,1.0233003 0.87086,0.00193 1.919632,-0.5027978 2.452581,-1.1803319 0.164273,-0.208839 0.349806,-0.3797062 0.412297,-0.3797062 0.120868,0 1.736317,1.3291795 1.933574,1.5909321 0.190164,0.2523369 -1.384944,1.567404 -2.277178,1.9012334 -0.964932,0.3610266 -2.13514,0.3802538 -3.077462,0.050565 z m 0.05339,-3.3958434 C 12.188825,3.9301607 11.837907,3.5285866 11.814628,3.464888 11.791348,3.4011899 12.12215,3.0218281 12.549747,2.6218632 l 0.777445,-0.7272089 0.808665,0.7986209 c 0.444766,0.4392411 0.772051,0.874872 0.727299,0.9680667 -0.04475,0.093196 -0.407581,0.462635 -0.806288,0.8209775 L 13.331944,5.1338477 12.594448,4.3572759 z"
     id="path1873"
     sodipodi:nodetypes="csssssscccsssssssssssssssssssssscccsccsscccssccsssssssssccscccsccc"
     style="opacity:0.25;fill:#ffffff;fill-opacity:0"
     inkscape:connector-curvature="0" />
  <path
     d="M 7.4731111,21.790628 C 6.1970745,21.457643 5.0939842,20.791047 4.0567105,19.726101 2.4045013,18.029813 1.5020859,16.214437 0.96770904,13.511993 0.66292197,11.970627 0.66240398,11.933112 0.94308343,11.727873 1.5180589,11.30744 1.7453179,11.458952 1.9381961,12.391307 c 1.0051931,4.858989 4.1541207,8.017727 7.2174342,7.239921 0.9136107,-0.231976 1.7852047,-1.109051 2.0473987,-2.060273 0.338074,-1.226517 -0.257504,-3.345992 -1.2927771,-4.600586 L 9.5423369,12.524513 8.9204098,13.165365 C 8.2627116,13.843078 7.452175,14.401675 7.125121,14.40262 6.9284697,14.403189 6.0306301,12.587185 6.0306301,12.188864 c 0,-0.116651 0.4270501,-0.407333 0.9490009,-0.645956 1.4647533,-0.669655 2.0878,-1.42392 2.0878,-2.527508 0,-0.718203 -0.1266121,-0.9686498 -0.61822,-1.2228702 -0.6330038,-0.327339 -1.6869972,-0.271356 -2.9644064,0.1574563 -0.6219439,0.2087813 -1.166391,0.379601 -1.2098813,0.379601 -0.1119413,0 -0.977413,-1.9586075 -0.977413,-2.2119352 0,-0.4345862 0.938654,-0.7316052 2.5053605,-0.7927736 1.4369272,-0.056101 1.5630602,-0.0358 2.3507441,0.3783613 0.9899408,0.5205083 1.7259115,1.4217442 2.0487231,2.5087678 0.263286,0.8865783 0.301178,2.0407046 0.08562,2.6076786 -0.229581,0.603842 0.0624,0.608534 0.841903,0.01353 0.851706,-0.650121 1.427828,-0.9048971 2.363538,-1.0452157 0.674692,-0.1011756 0.707983,-0.1306134 0.892326,-0.789023 0.439998,-1.5715151 1.605419,-2.4991565 3.167583,-2.5213066 1.166153,-0.016536 1.821767,0.2232321 2.494653,0.9123291 0.888294,0.9096946 1.206425,2.0078489 1.283914,4.4319102 0.09619,3.008898 -0.307912,4.635221 -1.484774,5.975595 -1.014424,1.155364 -2.610174,1.582387 -3.8552,1.031652 -1.050713,-0.46478 -1.327874,-1.185967 -1.448473,-3.76897 -0.07748,-1.659297 -0.142029,-2.05395 -0.378783,-2.315559 -0.366338,-0.4048 -0.591328,-0.395462 -1.581878,0.06566 l -0.812108,0.378058 0.325891,0.49354 C 14.21371,16.888184 13.7753,20.37954 11.10733,21.55971 10.267114,21.931376 8.4539643,22.046584 7.4731111,21.790628 z M 18.446691,16.376863 c 1.094646,-0.667407 1.819495,-2.543382 1.660447,-4.297385 C 20.003179,10.932995 19.335757,9.5815958 18.648858,9.126747 17.718911,8.5109565 16.441521,8.7136636 15.604193,9.6098974 l -0.371956,0.3981246 0.291845,0.489382 c 0.24284,0.40721 0.299938,0.846321 0.340047,2.615144 0.05631,2.483582 0.07945,2.63016 0.499344,3.163969 0.400247,0.508832 1.339072,0.554053 2.083218,0.100346 z M 10.890329,6.1023967 C 10.514976,5.9710739 9.9232005,5.6677714 9.575277,5.4283922 8.8805654,4.9504194 7.5490308,3.5025099 7.5490308,3.2250571 c 0,-0.09622 0.1749106,-0.2895503 0.3886894,-0.429624 0.3804845,-0.249303 0.401674,-0.24295 1.0037293,0.3009715 0.7978222,0.7207843 1.5331015,1.0211386 2.5050675,1.0233002 0.87086,0.00193 1.919633,-0.5027977 2.452581,-1.1803317 0.164274,-0.2088394 0.349807,-0.3797064 0.412297,-0.3797064 0.120869,0 1.736317,1.3291796 1.933575,1.5909322 0.190163,0.2523369 -1.384944,1.567404 -2.277178,1.9012333 -0.964933,0.3610266 -2.13514,0.3802539 -3.077463,0.050565 z m 0.05339,-3.3958434 C 10.538099,2.2794381 10.18718,1.877864 10.163901,1.8141655 10.140622,1.7504669 10.471424,1.3711055 10.89902,0.9711406 L 11.676465,0.24393174 12.48513,1.0425525 c 0.444766,0.4392413 0.772052,0.8748722 0.7273,0.9680669 -0.04475,0.093196 -0.407581,0.4626349 -0.806288,0.8209777 l -0.724924,0.651528 -0.737496,-0.7765718 z"
     id="path3603"
     sodipodi:nodetypes="csssssscccsssssssssssssssssssssscccsccsscccssccsssssssssccscccsccc"
     style="fill:#5e8019"
     inkscape:connector-curvature="0" />
</svg>
