<?xml version="1.0" encoding="UTF-8" standalone="no"?>
<!-- Created with Inkscape (http://www.inkscape.org/) -->

<svg
   xmlns:dc="http://purl.org/dc/elements/1.1/"
   xmlns:cc="http://creativecommons.org/ns#"
   xmlns:rdf="http://www.w3.org/1999/02/22-rdf-syntax-ns#"
   xmlns:svg="http://www.w3.org/2000/svg"
   xmlns="http://www.w3.org/2000/svg"
   xmlns:sodipodi="http://sodipodi.sourceforge.net/DTD/sodipodi-0.dtd"
   xmlns:inkscape="http://www.inkscape.org/namespaces/inkscape"
   height="200"
   id="svg2"
   inkscape:output_extension="org.inkscape.output.svg.inkscape"
   inkscape:version="0.92.2 (5c3e80d, 2017-08-06)"
   sodipodi:docname="hotspring.svg"
   sodipodi:version="0.32"
   version="1.0"
   width="200"
   inkscape:export-filename="C:\Users\jeremy\Pictures\svg\hotspring.png"
   inkscape:export-xdpi="96"
   inkscape:export-ydpi="96">
  <defs
     id="defs22">
    <inkscape:perspective
       id="perspective24"
       inkscape:persp3d-origin="290 : 193.33333 : 1"
       inkscape:vp_x="0 : 290 : 1"
       inkscape:vp_y="0 : 1000 : 0"
       inkscape:vp_z="580 : 290 : 1"
       sodipodi:type="inkscape:persp3d" />
  </defs>
  <metadata
     id="metadata10">
    <rdf:RDF>
      <cc:Work
         rdf:about="">
        <dc:format>image/svg+xml</dc:format>
        <dc:type
           rdf:resource="http://purl.org/dc/dcmitype/StillImage" />
        <cc:license
           rdf:resource="http://web.resource.org/cc/PublicDomain" />
        <dc:language>en</dc:language>
        <dc:title></dc:title>
      </cc:Work>
    </rdf:RDF>
  </metadata>
  <sodipodi:namedview
     bordercolor="#666666"
     borderopacity="1.0"
     gridtolerance="10.0"
     guidetolerance="10.0"
     id="base"
     inkscape:current-layer="svg2"
     inkscape:cx="125"
     inkscape:cy="106"
     inkscape:pageopacity="0.0"
     inkscape:pageshadow="2"
     inkscape:window-height="705"
     inkscape:window-width="1366"
     inkscape:window-x="-8"
     inkscape:window-y="-8"
     inkscape:zoom="1.5284091"
     objecttolerance="10.0"
     pagecolor="#ffffff"
     showgrid="false"
     inkscape:window-maximized="1"
     inkscape:measure-start="0,0"
     inkscape:measure-end="0,0"
     inkscape:lockguides="true" />
  <g
     id="g1327"
     transform="matrix(0.04083073,0,0,0.04083073,-0.1767767,176.93977)">
    <path
       d="M 66.275,1.768 C 24.94,1.768 1.704,23.139 1.704,66.804 v 450.123 c 0,40.844 20.894,62.229 62.192,62.229 H 515.92 c 41.307,0 62.229,-20.316 62.229,-62.229 V 66.804 c 0,-42.601 -20.922,-65.036 -63.522,-65.036 -0.003,0 -448.494,-0.143 -448.352,0 z"
       id="path1329"
       style="fill:#111111;fill-opacity:0;stroke:#eeeeee;stroke-width:3.40799999;stroke-opacity:0"
       inkscape:connector-curvature="0" />
  </g>
  <g
     id="g2319"
     transform="matrix(0.04083073,0,0,0.04083073,35.725326,178.44255)">
    <path
       d=""
       id="path2323"
       style="fill:#0089cd;stroke:none"
       inkscape:connector-curvature="0" />
  </g>
  <g
     id="g2325"
     transform="matrix(0.04083073,0,0,0.04083073,35.725326,178.44255)">
    <path
       d=""
       id="path2329"
       style="fill:#0089cd;stroke:none"
       inkscape:connector-curvature="0" />
  </g>
  <path
     style="fill:#0089cd;fill-opacity:1;stroke:none;stroke-width:10.5320406px;stroke-linecap:butt;stroke-linejoin:miter;stroke-opacity:1"
     d="M 104.33151,5.29824 C 58.180085,5.8971924 24.093259,38.55955 24.016049,85.91343 c -0.0703,43.10485 80.315461,109.38481 80.315461,109.38481 0,0 75.99996,-64.4356 76.11988,-109.38481 C 180.56331,43.953469 150.48292,5.29824 104.33151,5.29824 Z"
     id="path1492"
     inkscape:connector-curvature="0"
     sodipodi:nodetypes="cscsc" />
  <path
     style="fill:#0089cd;fill-opacity:1;stroke:#ffffff;stroke-width:2.71428585;stroke-linecap:butt;stroke-linejoin:miter;stroke-miterlimit:4;stroke-dasharray:none;stroke-opacity:1"
     d="M 104.17497,12.181578 C 61.467538,12.736197 29.924393,42.960764 29.852945,86.780916 29.787893,126.66924 104.17497,188.00314 104.17497,188.00314 c 0,0 70.32858,-59.62724 70.43954,-101.222224 0.1036,-38.828762 -27.73211,-74.599338 -70.43954,-74.599338 z"
     id="path1492-2"
     inkscape:connector-curvature="0"
     sodipodi:nodetypes="cscsc"
     inkscape:transform-center-x="-11.911717"
     inkscape:transform-center-y="28.11166" />
  <circle
     style="fill:#ffffff;fill-opacity:1;stroke:none;stroke-width:11.37379169;stroke-miterlimit:4;stroke-dasharray:none;stroke-opacity:1"
     id="path1494"
     cx="102.23385"
     cy="82.203079"
     r="63.333332" />
  <path
     style="fill:#0089cd;fill-opacity:1;stroke:none;stroke-width:5.45300007;stroke-linejoin:round;stroke-miterlimit:4;stroke-dasharray:none;stroke-opacity:1"
     d="m 69.534827,73.355798 a 46.7957,20.415771 0 0 0 -14.939453,14.931641 46.7957,20.415771 0 0 0 46.794926,20.416011 46.7957,20.415771 0 0 0 46.79687,-20.416011 46.7957,20.415771 0 0 0 -14.83008,-14.875 40,17.450981 0 0 1 8.03321,10.460937 40,17.450981 0 0 1 -40,17.451174 40,17.450981 0 0 1 -40.000004,-17.451174 40,17.450981 0 0 1 8.144531,-10.517578 z"
     id="path839"
     inkscape:connector-curvature="0" />
  <path
     style="fill:none;fill-opacity:1;stroke:#0089cd;stroke-width:2;stroke-linecap:round;stroke-linejoin:miter;stroke-miterlimit:4;stroke-dasharray:none;stroke-opacity:1"
     d="m 83.743657,52.13411 c -5.17762,5.006183 -6.903493,6.508038 -6.903493,10.346114 0,3.838069 8.629365,4.839305 8.382812,7.843015 -0.246553,3.00371 -8.382812,10.846732 -8.136259,12.014839"
     id="path858"
     inkscape:connector-curvature="0"
     sodipodi:nodetypes="cssc" />
  <path
     style="fill:none;fill-opacity:1;stroke:#0089cd;stroke-width:2;stroke-linecap:round;stroke-linejoin:miter;stroke-miterlimit:4;stroke-dasharray:none;stroke-opacity:1"
     d="m 97.716749,44.509591 c -5.17762,5.006183 -6.903493,6.508038 -6.903493,10.346114 0,3.838069 8.629365,4.839305 8.382812,7.843015 -0.246553,3.00371 -8.382812,10.846732 -8.136259,12.014839"
     id="path858-9"
     inkscape:connector-curvature="0"
     sodipodi:nodetypes="cssc" />
  <path
     style="fill:none;fill-opacity:1;stroke:#0089cd;stroke-width:2;stroke-linecap:round;stroke-linejoin:miter;stroke-miterlimit:4;stroke-dasharray:none;stroke-opacity:1"
     d="m 111.68984,51.391311 c -5.17762,5.006183 -6.90349,6.508038 -6.90349,10.346114 0,3.838069 8.62936,4.839305 8.38281,7.843015 -0.24655,3.00371 -8.38281,10.846732 -8.13626,12.014839"
     id="path858-9-4"
     inkscape:connector-curvature="0"
     sodipodi:nodetypes="cssc"
     inkscape:transform-center-x="8.2580417"
     inkscape:transform-center-y="-6.8830492" />
  <path
     style="fill:none;fill-opacity:1;stroke:#0089cd;stroke-width:2;stroke-linecap:round;stroke-linejoin:miter;stroke-miterlimit:4;stroke-dasharray:none;stroke-opacity:1"
     d="m 125.66293,45.427153 c -5.17762,5.006183 -6.90349,6.508038 -6.90349,10.346114 0,3.838069 8.62936,4.839305 8.38281,7.843015 -0.24655,3.00371 -8.38281,10.846732 -8.13626,12.014839"
     id="path858-9-4-0"
     inkscape:connector-curvature="0"
     sodipodi:nodetypes="cssc"
     inkscape:transform-center-x="8.2580417"
     inkscape:transform-center-y="-6.8830492" />
</svg>
