<?xml version="1.0" encoding="UTF-8" standalone="no"?>
<!-- Created with Inkscape (http://www.inkscape.org/) -->

<svg
   xmlns:dc="http://purl.org/dc/elements/1.1/"
   xmlns:cc="http://creativecommons.org/ns#"
   xmlns:rdf="http://www.w3.org/1999/02/22-rdf-syntax-ns#"
   xmlns:svg="http://www.w3.org/2000/svg"
   xmlns="http://www.w3.org/2000/svg"
   xmlns:sodipodi="http://sodipodi.sourceforge.net/DTD/sodipodi-0.dtd"
   xmlns:inkscape="http://www.inkscape.org/namespaces/inkscape"
   height="200"
   id="svg2"
   inkscape:output_extension="org.inkscape.output.svg.inkscape"
   inkscape:version="0.92.2 (5c3e80d, 2017-08-06)"
   sodipodi:docname="hotspring.svg"
   sodipodi:version="0.32"
   version="1.0"
   width="200"
   inkscape:export-filename="C:\Users\jeremy\Pictures\svg\hotspring.png"
   inkscape:export-xdpi="96"
   inkscape:export-ydpi="96">
  <defs
     id="defs22">
    <inkscape:perspective
       id="perspective24"
       inkscape:persp3d-origin="290 : 193.33333 : 1"
       inkscape:vp_x="0 : 290 : 1"
       inkscape:vp_y="0 : 1000 : 0"
       inkscape:vp_z="580 : 290 : 1"
       sodipodi:type="inkscape:persp3d" />
  </defs>
  <metadata
     id="metadata10">
    <rdf:RDF>
      <cc:Work
         rdf:about="">
        <dc:format>image/svg+xml</dc:format>
        <dc:type
           rdf:resource="http://purl.org/dc/dcmitype/StillImage" />
        <cc:license
           rdf:resource="http://web.resource.org/cc/PublicDomain" />
        <dc:language>en</dc:language>
        <dc:title />
      </cc:Work>
    </rdf:RDF>
  </metadata>
  <sodipodi:namedview
     bordercolor="#666666"
     borderopacity="1.0"
     gridtolerance="10.0"
     guidetolerance="10.0"
     id="base"
     inkscape:current-layer="svg2"
     inkscape:cx="111.45288"
     inkscape:cy="153.74159"
     inkscape:pageopacity="0.0"
     inkscape:pageshadow="2"
     inkscape:window-height="705"
     inkscape:window-width="1366"
     inkscape:window-x="-8"
     inkscape:window-y="-8"
     inkscape:zoom="1.4142136"
     objecttolerance="10.0"
     pagecolor="#ffffff"
     showgrid="false"
     inkscape:window-maximized="1"
     inkscape:measure-start="0,0"
     inkscape:measure-end="0,0"
     inkscape:lockguides="true" />
  <g
     id="g1327"
     transform="matrix(0.04083073,0,0,0.04083073,-0.1767767,176.93977)">
    <path
       d="M 66.275,1.768 C 24.94,1.768 1.704,23.139 1.704,66.804 v 450.123 c 0,40.844 20.894,62.229 62.192,62.229 H 515.92 c 41.307,0 62.229,-20.316 62.229,-62.229 V 66.804 c 0,-42.601 -20.922,-65.036 -63.522,-65.036 -0.003,0 -448.494,-0.143 -448.352,0 z"
       id="path1329"
       style="fill:#111111;fill-opacity:0;stroke:#eeeeee;stroke-width:3.40799999;stroke-opacity:0"
       inkscape:connector-curvature="0" />
  </g>
  <g
     id="g2319"
     transform="matrix(0.04083073,0,0,0.04083073,35.725326,178.44255)">
    <path
       d=""
       id="path2323"
       style="fill:#0089cd;stroke:none"
       inkscape:connector-curvature="0" />
  </g>
  <g
     id="g2325"
     transform="matrix(0.04083073,0,0,0.04083073,35.725326,178.44255)">
    <path
       d=""
       id="path2329"
       style="fill:#0089cd;stroke:none"
       inkscape:connector-curvature="0" />
  </g>
  <path
     style="fill:#0089cd;fill-opacity:1;stroke:none;stroke-width:11.36141205;stroke-linejoin:round;stroke-miterlimit:4;stroke-dasharray:none;stroke-opacity:1"
     d="m 34.810274,85.967742 a 97.499586,42.536584 0 0 0 -31.1265883,31.110308 97.499586,42.536584 0 0 0 97.4979743,42.53709 97.499586,42.536584 0 0 0 97.50202,-42.53709 97.499586,42.536584 0 0 0 -30.89871,-30.992296 83.340637,36.359397 0 0 1 16.73732,21.795526 83.340637,36.359397 0 0 1 -83.34063,36.3598 83.340637,36.359397 0 0 1 -83.340646,-36.3598 83.340637,36.359397 0 0 1 16.96926,-21.913538 z"
     id="path839"
     inkscape:connector-curvature="0" />
  <path
     style="fill:none;fill-opacity:1;stroke:#0089cd;stroke-width:4.16703176;stroke-linecap:round;stroke-linejoin:miter;stroke-miterlimit:4;stroke-dasharray:none;stroke-opacity:1"
     d="m 64.414602,41.752013 c -10.78766,10.430467 -14.38354,13.559606 -14.38354,21.556298 0,7.996677 17.97942,10.082769 17.46572,16.341046 -0.5137,6.258278 -17.46572,22.599343 -16.95203,25.033113"
     id="path858"
     inkscape:connector-curvature="0"
     sodipodi:nodetypes="cssc" />
  <path
     style="fill:none;fill-opacity:1;stroke:#0089cd;stroke-width:4.16703176;stroke-linecap:round;stroke-linejoin:miter;stroke-miterlimit:4;stroke-dasharray:none;stroke-opacity:1"
     d="m 93.527762,25.866212 c -10.78766,10.430463 -14.38354,13.559599 -14.38354,21.556297 0,7.996673 17.97942,10.082764 17.46572,16.341041 -0.5137,6.258278 -17.46572,22.59934 -16.95202,25.033109"
     id="path858-9"
     inkscape:connector-curvature="0"
     sodipodi:nodetypes="cssc" />
  <path
     style="fill:none;fill-opacity:1;stroke:#0089cd;stroke-width:4.16703176;stroke-linecap:round;stroke-linejoin:miter;stroke-miterlimit:4;stroke-dasharray:none;stroke-opacity:1"
     d="m 122.64091,40.204384 c -10.78765,10.430462 -14.38353,13.559601 -14.38353,21.556293 0,7.996678 17.97941,10.082769 17.46572,16.341046 -0.51369,6.258278 -17.46572,22.599337 -16.95203,25.033107"
     id="path858-9-4"
     inkscape:connector-curvature="0"
     sodipodi:nodetypes="cssc"
     inkscape:transform-center-x="17.205763"
     inkscape:transform-center-y="-14.340942" />
  <path
     style="fill:none;fill-opacity:1;stroke:#0089cd;stroke-width:4.16703176;stroke-linecap:round;stroke-linejoin:miter;stroke-miterlimit:4;stroke-dasharray:none;stroke-opacity:1"
     d="m 151.75406,27.777961 c -10.78765,10.430463 -14.38353,13.559609 -14.38353,21.556298 0,7.996678 17.97941,10.08277 17.46572,16.341046 -0.51369,6.258278 -17.46572,22.59934 -16.95202,25.033109"
     id="path858-9-4-0"
     inkscape:connector-curvature="0"
     sodipodi:nodetypes="cssc"
     inkscape:transform-center-x="17.205768"
     inkscape:transform-center-y="-14.340945" />
</svg>
