<?xml version="1.0" encoding="UTF-8" standalone="no"?>
<!-- Created with Inkscape (http://www.inkscape.org/) -->

<svg
   xmlns:dc="http://purl.org/dc/elements/1.1/"
   xmlns:cc="http://creativecommons.org/ns#"
   xmlns:rdf="http://www.w3.org/1999/02/22-rdf-syntax-ns#"
   xmlns:svg="http://www.w3.org/2000/svg"
   xmlns="http://www.w3.org/2000/svg"
   xmlns:xlink="http://www.w3.org/1999/xlink"
   xmlns:sodipodi="http://sodipodi.sourceforge.net/DTD/sodipodi-0.dtd"
   xmlns:inkscape="http://www.inkscape.org/namespaces/inkscape"
   width="22"
   height="22"
   id="svg2"
   sodipodi:version="0.32"
   inkscape:version="0.92.3 (2405546, 2018-03-11)"
   version="1.0"
   sodipodi:docname="ic_notify.svg"
   inkscape:output_extension="org.inkscape.output.svg.inkscape"
   inkscape:export-filename="/home/michael/src/navit/navit/android/res/drawable-hdpi/ic_notify.png"
   inkscape:export-xdpi="147.27"
   inkscape:export-ydpi="147.27">
  <defs
     id="defs4">
    <linearGradient
       id="linearGradient3365">
      <stop
         style="stop-color:#ffffff;stop-opacity:0.61904764;"
         offset="0"
         id="stop3367" />
      <stop
         style="stop-color:#ffffff;stop-opacity:0;"
         offset="1"
         id="stop3369" />
    </linearGradient>
    <linearGradient
       id="linearGradient3320">
      <stop
         style="stop-color:#116cbf;stop-opacity:1;"
         offset="0"
         id="stop3322" />
      <stop
         id="stop3354"
         offset="0.08"
         style="stop-color:#116cbf;stop-opacity:1;" />
      <stop
         id="stop3352"
         offset="0.4893617"
         style="stop-color:#1a6cb6;stop-opacity:1;" />
      <stop
         style="stop-color:#329eff;stop-opacity:1;"
         offset="1"
         id="stop3324" />
    </linearGradient>
    <linearGradient
       id="linearGradient3308">
      <stop
         style="stop-color:#062643;stop-opacity:1;"
         offset="0"
         id="stop3310" />
      <stop
         style="stop-color:#0d5799;stop-opacity:1;"
         offset="1"
         id="stop3312" />
    </linearGradient>
    <linearGradient
       id="linearGradient3235">
      <stop
         style="stop-color:#c17d11;stop-opacity:1;"
         offset="0"
         id="stop3237" />
      <stop
         style="stop-color:#e9cb14;stop-opacity:1;"
         offset="1"
         id="stop3239" />
    </linearGradient>
    <linearGradient
       id="linearGradient3227">
      <stop
         style="stop-color:#76650c;stop-opacity:1;"
         offset="0"
         id="stop3229" />
      <stop
         style="stop-color:#76650c;stop-opacity:0;"
         offset="1"
         id="stop3231" />
    </linearGradient>
    <inkscape:perspective
       sodipodi:type="inkscape:persp3d"
       inkscape:vp_x="15.556349 : 133.02972 : 1"
       inkscape:vp_y="0 : 1000 : 0"
       inkscape:vp_z="744.09448 : 526.18109 : 1"
       inkscape:persp3d-origin="372.04724 : 350.78739 : 1"
       id="perspective10" />
    <linearGradient
       inkscape:collect="always"
       xlink:href="#linearGradient3308"
       id="linearGradient3314"
       x1="-7.7781754"
       y1="4.2563133"
       x2="43.133514"
       y2="4.2563133"
       gradientUnits="userSpaceOnUse" />
  </defs>
  <sodipodi:namedview
     id="base"
     pagecolor="#ffffff"
     bordercolor="#666666"
     borderopacity="1.0"
     inkscape:pageopacity="0.0"
     inkscape:pageshadow="2"
     inkscape:zoom="33.636364"
     inkscape:cx="6.2225423"
     inkscape:cy="11"
     inkscape:document-units="px"
     inkscape:current-layer="layer2"
     showgrid="true"
     inkscape:window-width="1920"
     inkscape:window-height="996"
     inkscape:window-x="0"
     inkscape:window-y="28"
     showborder="true"
     inkscape:window-maximized="1"
     inkscape:object-paths="true"
     inkscape:snap-bbox="true"
     inkscape:snap-bbox-edge-midpoints="false"
     inkscape:object-nodes="true"
     showguides="false"
     inkscape:snap-nodes="false"
     inkscape:snap-others="false"
     inkscape:bbox-paths="true"
     inkscape:bbox-nodes="true">
    <inkscape:grid
       type="xygrid"
       id="grid846" />
  </sodipodi:namedview>
  <metadata
     id="metadata7">
    <rdf:RDF>
      <cc:Work
         rdf:about="">
        <dc:format>image/svg+xml</dc:format>
        <dc:type
           rdf:resource="http://purl.org/dc/dcmitype/StillImage" />
      </cc:Work>
    </rdf:RDF>
  </metadata>
  <g
     inkscape:label="Calque 1"
     inkscape:groupmode="layer"
     id="layer1"
     style="display:inline" />
  <g
     inkscape:groupmode="layer"
     id="layer2"
     inkscape:label="lignes"
     style="display:inline">
    <g
       transform="matrix(0.96875288,0,0,0.96875288,0.32671617,-997.85164)"
       id="g827">
      <path
         inkscape:connector-curvature="0"
         id="circle870"
         transform="translate(0,1030.3622)"
         d="M 11,6 A 4.9999995,4.9999995 0 0 0 9.5097656,6.2324219 l 2.4765624,4.7148441 0.9375,2.111328 h 0.05859 c -0.04891,-0.5084 -0.107331,-1.075372 -0.175781,-1.701172 -0.05877,-0.6257 -0.08789,-1.221963 -0.08789,-1.7890626 V 6.3105469 A 4.9999995,4.9999995 0 0 0 11,6 Z M 9.5097656,6.2324219 A 4.9999995,4.9999995 0 0 0 9.0410156,6.40625 4.9999995,4.9999993 0 0 1 9.5097656,6.2324219 Z M 9.0410156,6.40625 A 4.9999995,4.9999995 0 0 0 8.5957031,6.6230469 4.9999995,4.9999993 0 0 1 9.0410156,6.40625 Z M 12.736328,6.318359 A 4.9999995,4.9999993 0 0 1 13.185547,6.5097652 4.9999995,4.9999995 0 0 0 12.736328,6.318359 Z m 0.466797,0.1992187 A 4.9999995,4.9999993 0 0 1 13.621094,6.75 4.9999995,4.9999995 0 0 0 13.203125,6.5175777 Z M 8.5839844,6.6308594 A 4.9999995,4.9999995 0 0 0 8.1796875,6.8789062 4.9999995,4.9999993 0 0 1 8.5839844,6.6308594 Z M 13.642578,6.7617188 A 4.9999995,4.9999993 0 0 1 14.027344,7.0292969 4.9999995,4.9999995 0 0 0 13.642578,6.7617188 Z M 8.1367188,6.9101562 A 4.9999995,4.9999995 0 0 0 7.7890625,7.1738281 4.9999995,4.9999993 0 0 1 8.1367188,6.9101562 Z m 5.9218752,0.1425782 a 4.9999995,4.9999993 0 0 1 0.349609,0.296875 4.9999995,4.9999995 0 0 0 -0.349609,-0.296875 z M 7.7324219,7.2246094 A 4.9999995,4.9999995 0 0 0 7.421875,7.515625 4.9999995,4.9999993 0 0 1 7.7324219,7.2246094 Z M 14.4375,7.3789062 A 4.9999995,4.9999993 0 0 1 14.742188,7.6953125 4.9999995,4.9999995 0 0 0 14.4375,7.3789062 Z M 7.2773438,7.6699219 A 4.9999995,4.9999995 0 0 0 7.2558594,7.6933594 4.9999995,4.9999995 0 0 0 6.9746094,8.0449219 4.9999995,4.9999995 0 0 0 6.9589844,8.0625 4.9999995,4.9999993 0 0 0 6.9492188,8.078125 4.9999995,4.9999995 0 0 0 6.7089844,8.4453125 4.9999995,4.9999995 0 0 0 6,11 a 4.9999995,4.9999995 0 0 0 0.4003906,1.947266 4.9999995,4.9999993 0 0 0 0.00195,0.0059 4.9999995,4.9999993 0 0 0 0.140625,0.287109 4.9999995,4.9999993 0 0 0 0.1210937,0.230469 4.9999995,4.9999993 0 0 0 0.09375,0.150391 4.9999995,4.9999993 0 0 0 0.1777344,0.273437 4.9999995,4.9999993 0 0 0 0.1074219,0.138672 4.9999995,4.9999993 0 0 0 0.2050781,0.255859 4.9999995,4.9999993 0 0 0 0.029297,0.03125 z m 0,6.6503901 v 0.0039 A 4.9999995,4.9999993 0 0 1 7.2480469,14.289062 4.9999995,4.9999993 0 0 1 7.0429688,14.033203 4.9999995,4.9999993 0 0 1 6.9355469,13.894531 4.9999995,4.9999993 0 0 1 6.8808594,13.822266 4.9999995,4.9999995 0 0 0 11,16 4.9999995,4.9999995 0 0 0 12.550781,15.746094 L 10.064453,10.992188 9.125,8.9082031 H 9.066406 c 0.048869,0.528 0.1034514,1.0949719 0.1621094,1.7011719 0.068296,0.6062 0.1015625,1.192566 0.1015625,1.759766 v 3.330078 a 4.9999995,4.9999993 0 0 0 0.1425781,0.04687 4.9999995,4.9999993 0 0 0 0.3027344,0.09375 4.9999995,4.9999993 0 0 1 -0.3027344,-0.09375 4.9999995,4.9999993 0 0 1 -0.1425781,-0.04297 v -0.0039 A 4.9999995,4.9999993 0 0 1 7.2773438,14.320312 Z m 5.2734372,1.425782 a 4.9999995,4.9999995 0 0 0 0.466797,-0.177735 4.9999995,4.9999993 0 0 1 -0.466797,0.177735 z m 0.466797,-0.177735 a 4.9999995,4.9999995 0 0 0 0.441406,-0.220703 4.9999995,4.9999993 0 0 1 -0.441406,0.220703 z M 6.8808594,13.822266 A 4.9999995,4.9999993 0 0 1 6.7578125,13.621094 4.9999995,4.9999993 0 0 1 6.6894531,13.517578 4.9999995,4.9999995 0 0 0 6.8808594,13.822266 Z M 6.6894531,13.517578 a 4.9999995,4.9999993 0 0 1 -0.025391,-0.04687 4.9999995,4.9999993 0 0 1 -0.044922,-0.07422 4.9999995,4.9999995 0 0 0 0.070312,0.121094 z M 6.6191406,13.396484 A 4.9999995,4.9999993 0 0 1 6.5429688,13.240234 4.9999995,4.9999993 0 0 1 6.46875,13.097656 4.9999995,4.9999995 0 0 0 6.6191406,13.396484 Z M 14.771484,7.7265625 V 14.275391 A 4.9999995,4.9999995 0 0 0 16,11 4.9999995,4.9999995 0 0 0 15.566406,8.9804688 4.9999995,4.9999995 0 0 0 15.392578,8.6230469 a 4.9999995,4.9999995 0 0 0 -0.05859,-0.1035157 4.9999995,4.9999995 0 0 0 -0.1875,-0.3046874 4.9999995,4.9999995 0 0 0 -0.07031,-0.097656 4.9999995,4.9999995 0 0 0 -0.248047,-0.3242187 4.9999995,4.9999995 0 0 0 -0.05664,-0.066406 z m -0.164062,6.7265625 a 4.9999995,4.9999993 0 0 1 -0.302734,0.291016 4.9999995,4.9999995 0 0 0 0.302734,-0.291016 z m -0.351563,0.332031 a 4.9999995,4.9999993 0 0 1 -0.339843,0.267578 4.9999995,4.9999995 0 0 0 0.339843,-0.267578 z m -0.394531,0.306641 a 4.9999995,4.9999993 0 0 1 -0.388672,0.246094 4.9999995,4.9999995 0 0 0 0.388672,-0.246094 z"
         style="display:inline;fill:#ffffff;fill-opacity:1;stroke:none;stroke-width:0.5;stroke-miterlimit:4;stroke-dasharray:none;stroke-opacity:1" />
      <ellipse
         inkscape:export-ydpi="96"
         inkscape:export-xdpi="96"
         ry="5.9374995"
         rx="7.4999995"
         cy="1038.3445"
         cx="10.892857"
         id="ellipse876"
         style="display:inline;fill:#000000;fill-opacity:0;stroke-width:0.26458332" />
      <path
         inkscape:export-ydpi="96"
         inkscape:export-xdpi="96"
         sodipodi:nodetypes="cccccccscccccscccccccccccsccccccccccccccsccccccccccccscccccccccccccccccsccccccccscccccccccsccccccccccczccscccz"
         inkscape:connector-curvature="0"
         id="path878"
         d="m 11.178137,1049.3514 -9.11e-4,-2.3589 0.266653,-0.019 c 1.330608,-0.098 2.575221,-0.668 3.523588,-1.6137 0.923021,-0.9203 1.480539,-2.0846 1.617879,-3.3787 0.01323,-0.1232 0.02381,-0.2695 0.02381,-0.3254 l 1.82e-4,-0.1017 h 2.328483 c 1.280663,0 2.32543,0 2.321704,0.01 -0.0037,0 -0.687428,0.3009 -1.51934,0.6606 -0.831912,0.3594 -1.51883,0.6597 -1.526483,0.6668 -0.0076,0.01 -0.04906,0.1508 -0.09203,0.3193 -0.132699,0.5206 -0.290381,0.9509 -0.51764,1.4127 -0.167962,0.3413 -0.275452,0.5269 -0.499196,0.8618 -1.000766,1.4979 -2.485149,2.5475 -4.266583,3.0168 l -0.07101,0.019 -0.794147,1.5968 -0.794145,1.5969 -9.1e-4,-2.3589 z m -0.8873,0.9172 c -0.3220311,-0.7436 -0.5882788,-1.3593 -0.5916641,-1.3683 -0.00389,-0.011 0.016063,-0.011 0.053889,0 0.1712806,0.03 0.5560631,0.075 0.8264621,0.093 l 0.304952,0.019 v 1.3064 c 0,0.7185 -0.0018,1.3064 -0.0041,1.3063 -0.0022,0 -0.267546,-0.6085 -0.589575,-1.3521 z m 0.398472,-1.5541 c -0.412971,-0.015 -0.9841191,-0.1 -1.4231123,-0.2078 -1.1829774,-0.2918 -2.2498931,-0.8648 -3.1847031,-1.7108 -0.621165,-0.5622 -1.201987,-1.3307 -1.586723,-2.0996 -0.474176,-0.9476 -0.708031,-1.8427 -0.775433,-2.968 l -0.01047,-0.175 h 0.869187 0.869186 l 0.01032,0.2037 c 0.01228,0.2423 0.06146,0.5948 0.119055,0.8535 0.45746,2.0555 2.022054,3.6731 4.0670236,4.2048 0.3287962,0.085 0.9018328,0.1705 1.1509248,0.1705 h 0.08991 v 0.8701 0.8701 h -0.03659 c -0.02015,0 -0.09149,0 -0.158574,-0.01 z m -8.5472184,-6.4443 -1.430827,-0.7144 h 1.359646 1.359647 l 0.01111,0.2238 c 0.01769,0.356 0.102762,1.0251 0.149961,1.1791 0.0048,0.015 0.0026,0.03 -0.005,0.03 -0.0075,0 -0.657583,-0.3213 -1.444538,-0.7144 z m 0.165996,-1.8139 1.613088,-0.8022 0.01833,-0.071 c 0.415566,-1.6096 1.376778,-3.043 2.708171,-4.0382 0.550846,-0.4119 1.1942329,-0.7625 1.8459792,-1.0062 0.1497071,-0.056 0.5689742,-0.1875 0.7133975,-0.2238 l 0.070964,-0.019 0.8025797,-1.6132 0.802579,-1.6131 6.5e-4,2.3762 6.51e-4,2.376 -0.215501,0.011 c -0.9806358,0.048 -2.0201619,0.4153 -2.8581799,1.0096 -0.3839395,0.2721 -0.8509885,0.7103 -1.1284755,1.0585 -0.521453,0.6543 -0.87868,1.376 -1.074831,2.1716 -0.08549,0.3465 -0.155229,0.8332 -0.155229,1.0829 v 0.104 h -2.378629 -2.37863 z m 14.3013654,0.7062 c 0,-0.054 -0.01134,-0.2056 -0.02494,-0.3367 -0.16706,-1.5909 -1.005741,-3.0256 -2.319293,-3.9678 -0.567371,-0.4069 -1.216406,-0.7053 -1.90317,-0.8749 -0.366618,-0.091 -0.811717,-0.1549 -1.072569,-0.1549 h -0.112135 v -0.8719 -0.872 l 0.199234,0.011 c 0.958324,0.054 1.802105,0.2539 2.641376,0.6272 1.079455,0.4801 2.048175,1.2372 2.782665,2.1749 0.171667,0.2192 0.47381,0.6715 0.605549,0.9066 0.467663,0.8347 0.773113,1.7663 0.885256,2.6999 0.01928,0.1614 0.0579,0.6527 0.05836,0.7441 0,0.01 -0.391499,0.011 -0.870074,0.011 h -0.870142 z m 2.004053,-0.2082 c -0.02079,-0.3284 -0.06478,-0.688 -0.117052,-0.9613 -0.01776,-0.093 -0.03061,-0.1709 -0.02873,-0.1724 0.0021,0 0.655234,0.3213 1.451362,0.7175 l 1.44751,0.7201 h -1.366829 -1.366824 l -0.01965,-0.3061 z m -6.213519,-7.0211 c -0.297192,-0.06 -0.853607,-0.1213 -1.104839,-0.1217 l -0.117913,-2e-4 v -1.3688 c 0,-0.753 0.0026,-1.3659 0.0058,-1.3622 0.0316,0.038 1.434361,2.8932 1.42013,2.8918 -0.01051,-10e-4 -0.101949,-0.019 -0.203202,-0.039 z"
         style="display:inline;fill:#ffffff;fill-opacity:1;stroke-width:0.00430322" />
    </g>
  </g>
  <g
     inkscape:groupmode="layer"
     id="layer4"
     inkscape:label="bulle"
     style="display:none">
    <path
       sodipodi:type="arc"
       style="fill:url(#linearGradient3314);fill-opacity:1;stroke:#1f3157;stroke-width:5.30526352;stroke-miterlimit:4;stroke-opacity:1;stroke-dasharray:none;stroke-dashoffset:0"
       id="path3305"
       sodipodi:cx="17.67767"
       sodipodi:cy="4.2563133"
       sodipodi:rx="25.455845"
       sodipodi:ry="25.455845"
       d="m 43.133514,4.2563133 a 25.455845,25.455845 0 1 1 -50.9116894,0 25.455845,25.455845 0 1 1 50.9116894,0 z"
       transform="matrix(1.3194444,0,0,1.3194444,18.394598,29.399489)" />
  </g>
  <g
     inkscape:groupmode="layer"
     id="layer3"
     inkscape:label="rose des vents"
     style="display:none">
    <g
       id="g3256"
       transform="matrix(0.7071068,0.7071068,-0.7071068,0.7071068,36.903806,-19.093669)"
       style="opacity:0.5">
      <path
         transform="translate(67.5,7)"
         d="m -25.999999,61.185085 -5.673657,-27.511429 -27.511429,-5.673655 27.511429,-5.673657 5.673655,-27.5114293 5.673657,27.5114293 27.5114293,5.673655 -27.5114293,5.673657 z"
         inkscape:randomized="0"
         inkscape:rounded="0"
         inkscape:flatsided="false"
         sodipodi:arg2="2.3561945"
         sodipodi:arg1="1.5707963"
         sodipodi:r2="8.0237608"
         sodipodi:r1="33.185085"
         sodipodi:cy="28"
         sodipodi:cx="-26"
         sodipodi:sides="4"
         id="path3258"
         style="fill:#167bd9;fill-opacity:1;stroke:none"
         sodipodi:type="star" />
      <path
         transform="translate(67.5,7)"
         d="m -25.999999,61.185085 6.826343,-33.011429 -40.011429,-0.173655 33.011429,6.826343 0.173655,-40.0114293 -6.826343,33.0114293 40.0114293,0.173655 -33.0114293,-6.826343 z"
         inkscape:randomized="0"
         inkscape:rounded="0"
         inkscape:flatsided="false"
         sodipodi:arg2="0.025433549"
         sodipodi:arg1="1.5707963"
         sodipodi:r2="6.8285527"
         sodipodi:r1="33.185085"
         sodipodi:cy="28"
         sodipodi:cx="-26"
         sodipodi:sides="4"
         id="path3260"
         style="fill:#c3dff9;fill-opacity:1;stroke:none"
         sodipodi:type="star" />
    </g>
    <g
       id="g3252">
      <path
         transform="translate(67.5,7)"
         d="m -25.999999,61.185085 -5.673657,-27.511429 -27.511429,-5.673655 27.511429,-5.673657 5.673655,-27.5114293 5.673657,27.5114293 27.5114293,5.673655 -27.5114293,5.673657 z"
         inkscape:randomized="0"
         inkscape:rounded="0"
         inkscape:flatsided="false"
         sodipodi:arg2="2.3561945"
         sodipodi:arg1="1.5707963"
         sodipodi:r2="8.0237608"
         sodipodi:r1="33.185085"
         sodipodi:cy="28"
         sodipodi:cx="-26"
         sodipodi:sides="4"
         id="path3248"
         style="fill:#167bd9;fill-opacity:1;stroke:none"
         sodipodi:type="star" />
      <path
         transform="translate(67.5,7)"
         d="m -25.999999,61.185085 6.826343,-33.011429 -40.011429,-0.173655 33.011429,6.826343 0.173655,-40.0114293 -6.826343,33.0114293 40.0114293,0.173655 -33.0114293,-6.826343 z"
         inkscape:randomized="0"
         inkscape:rounded="0"
         inkscape:flatsided="false"
         sodipodi:arg2="0.025433549"
         sodipodi:arg1="1.5707963"
         sodipodi:r2="6.8285527"
         sodipodi:r1="33.185085"
         sodipodi:cy="28"
         sodipodi:cx="-26"
         sodipodi:sides="4"
         id="path3250"
         style="fill:#c3dff9;fill-opacity:1;stroke:none"
         sodipodi:type="star" />
    </g>
  </g>
  <g
     inkscape:groupmode="layer"
     id="layer6"
     inkscape:label="ondes"
     style="display:inline" />
  <g
     inkscape:groupmode="layer"
     id="layer5"
     inkscape:label="flèche"
     style="display:inline" />
</svg>
