<?xml version="1.0" encoding="UTF-8" standalone="no"?>
<!-- Created with Inkscape (http://www.inkscape.org/) -->

<svg
   xmlns:dc="http://purl.org/dc/elements/1.1/"
   xmlns:cc="http://creativecommons.org/ns#"
   xmlns:rdf="http://www.w3.org/1999/02/22-rdf-syntax-ns#"
   xmlns:svg="http://www.w3.org/2000/svg"
   xmlns="http://www.w3.org/2000/svg"
   xmlns:sodipodi="http://sodipodi.sourceforge.net/DTD/sodipodi-0.dtd"
   xmlns:inkscape="http://www.inkscape.org/namespaces/inkscape"
   height="22"
   id="svg2"
   inkscape:output_extension="org.inkscape.output.svg.inkscape"
   inkscape:version="0.48.1 r9760"
   sodipodi:docname="islamic.svg"
   sodipodi:version="0.32"
   version="1.0"
   width="22">
  <metadata
     id="metadata2975">
    <rdf:RDF>
      <cc:Work
         rdf:about="">
        <dc:format>image/svg+xml</dc:format>
        <dc:type
           rdf:resource="http://purl.org/dc/dcmitype/StillImage" />
        <cc:license
           rdf:resource="http://web.resource.org/cc/PublicDomain" />
        <dc:language>en</dc:language>
      </cc:Work>
    </rdf:RDF>
  </metadata>
  <sodipodi:namedview
     bordercolor="#666666"
     borderopacity="1.0"
     gridtolerance="10.0"
     guidetolerance="10.0"
     id="base"
     inkscape:current-layer="svg2"
     inkscape:cx="6.119709"
     inkscape:cy="0.36360327"
     inkscape:pageopacity="0.0"
     inkscape:pageshadow="2"
     inkscape:window-height="725"
     inkscape:window-width="1024"
     inkscape:window-x="0"
     inkscape:window-y="20"
     inkscape:zoom="10.427586"
     objecttolerance="10.0"
     pagecolor="#ffffff"
     showgrid="false"
     inkscape:window-maximized="0" />
  <defs
     id="defs4">
    <inkscape:perspective
       id="perspective2441"
       inkscape:persp3d-origin="290 : 193.33333 : 1"
       inkscape:vp_x="0 : 290 : 1"
       inkscape:vp_y="0 : 1000 : 0"
       inkscape:vp_z="580 : 290 : 1"
       sodipodi:type="inkscape:persp3d" />
    <inkscape:perspective
       id="perspective2466"
       inkscape:persp3d-origin="372.04724 : 350.78739 : 1"
       inkscape:vp_x="0 : 526.18109 : 1"
       inkscape:vp_y="0 : 1000 : 0"
       inkscape:vp_z="744.09448 : 526.18109 : 1"
       sodipodi:type="inkscape:persp3d" />
    <inkscape:perspective
       id="perspective3333"
       inkscape:persp3d-origin="372.04724 : 350.78739 : 1"
       inkscape:vp_x="0 : 526.18109 : 1"
       inkscape:vp_y="0 : 1000 : 0"
       inkscape:vp_z="744.09448 : 526.18109 : 1"
       sodipodi:type="inkscape:persp3d" />
    <inkscape:perspective
       id="perspective3401"
       inkscape:persp3d-origin="372.04724 : 350.78739 : 1"
       inkscape:vp_x="0 : 526.18109 : 1"
       inkscape:vp_y="0 : 1000 : 0"
       inkscape:vp_z="744.09448 : 526.18109 : 1"
       sodipodi:type="inkscape:persp3d" />
    <inkscape:perspective
       id="perspective3464"
       inkscape:persp3d-origin="372.04724 : 350.78739 : 1"
       inkscape:vp_x="0 : 526.18109 : 1"
       inkscape:vp_y="0 : 1000 : 0"
       inkscape:vp_z="744.09448 : 526.18109 : 1"
       sodipodi:type="inkscape:persp3d" />
    <inkscape:perspective
       id="perspective3581"
       inkscape:persp3d-origin="225 : 150 : 1"
       inkscape:vp_x="0 : 225 : 1"
       inkscape:vp_y="0 : 1000 : 0"
       inkscape:vp_z="450 : 225 : 1"
       sodipodi:type="inkscape:persp3d" />
    <inkscape:perspective
       id="perspective4312"
       inkscape:persp3d-origin="225 : 150 : 1"
       inkscape:vp_x="0 : 225 : 1"
       inkscape:vp_y="0 : 1000 : 0"
       inkscape:vp_z="450 : 225 : 1"
       sodipodi:type="inkscape:persp3d" />
  </defs>
  <g
     id="g1327"
     transform="matrix(0.0435895,0,0,0.0435895,-0.86309524,-0.76677069)">
    <path
       d="M 66.275,1.768 C 24.94,1.768 1.704,23.139 1.704,66.804 l 0,450.123 c 0,40.844 20.895,62.229 62.192,62.229 l 452.024,0 c 41.307,0 62.229,-20.315 62.229,-62.229 l 0,-450.123 c 0,-42.601 -20.922,-65.036 -63.521,-65.036 -0.004,0 -448.495,-0.143 -448.353,0 z"
       id="path1329"
       style="fill:#111111;fill-opacity:0;stroke:#eeeeee;stroke-width:3.40799999;stroke-opacity:0"
       inkscape:connector-curvature="0" />
  </g>
  <g
     id="g6027"
     style="opacity:0.25"
     transform="matrix(0.06939977,0,0,0.06939977,-15.155628,-13.023739)">
    <path
       d="m 374.94899,524.51727 c -5.6741,-1.12821 -16.70034,-4.29499 -24.50274,-7.03733 -39.98769,-14.05453 -78.60206,-53.63421 -93.01112,-95.33628 -5.02689,-14.5485 -8.26957,-30.39029 -8.07876,-51.72233 0.18629,-21.34713 3.05187,-35.04228 8.07876,-49.59078 13.73716,-39.75746 48.48413,-77.13033 86.79931,-93.35893 13.91946,-5.89565 44.84034,-11.62967 62.7134,-11.62967 26.63921,0 77.07899,16.84186 87.29092,29.14647 5.22069,6.29056 0.36439,6.50378 -25.36216,1.11354 -20.58854,-4.31371 -27.41825,-4.71154 -43.33738,-2.52436 -45.83657,6.29761 -87.07178,40.84116 -103.55151,86.74715 -7.77411,21.65556 -7.80387,60.59983 -0.0627,82.11702 16.02656,44.54744 56.62329,79.38394 101.46024,87.06419 13.9149,2.38351 20.29595,2.00054 43.13125,-2.5886 14.74016,-2.96227 27.75776,-4.46426 28.92797,-3.33775 2.72492,2.62316 -9.53268,11.34615 -27.50679,19.575 -26.53978,12.15029 -65.24223,16.87951 -92.98864,11.36266 z M 460.09505,422.0141 c -0.78052,-1.26291 1.45486,-10.7461 4.96752,-21.07373 3.51267,-10.32766 6.38668,-19.09515 6.38668,-19.48331 0,-0.38813 -7.525,-6.07543 -16.72221,-12.63843 -9.19722,-6.56301 -16.72221,-12.94199 -16.72221,-14.17552 0,-1.23351 9.55095,-2.579 21.22433,-2.98999 l 21.22435,-0.74719 6.68775,-19.16584 c 3.6783,-10.54124 7.90512,-19.57165 9.39302,-20.0676 1.48786,-0.49595 5.80904,8.41809 9.60255,19.809 l 6.8973,20.71076 21.87064,0 c 12.06356,0 21.48608,1.05059 21.01305,2.34293 -0.47165,1.28862 -8.09311,7.65353 -16.93659,14.14424 -8.84347,6.49074 -16.07904,12.78016 -16.07904,13.97652 0,1.19639 2.31538,8.90499 5.14529,17.13029 4.95515,14.40242 6.54304,24.44014 3.8662,24.44014 -0.70352,0 -8.35585,-5.20961 -17.00523,-11.57691 -8.64936,-6.36731 -16.80589,-11.57691 -18.1256,-11.57691 -1.31972,0 -8.42792,4.41656 -15.79603,9.8146 -17.81352,13.05055 -19.23502,13.80763 -20.89177,11.12695 z"
       id="path1873"
       sodipodi:nodetypes="csssssssssssssssccsssscccscccssssssssc"
       style="fill:#ffffff;fill-opacity:0"
       inkscape:connector-curvature="0" />
    <path
       d="m 496.11458,309.70606 c -5.4844,3.94887 -6.54022,11.68793 -9.4375,17.46875 -2.63624,7.22265 -5.08211,14.52938 -7.65625,21.78125 -13.8735,1.18214 -28.57294,-0.64006 -41.90625,3.6875 -3.36635,3.97288 3.49423,7.07989 5.75,9.65625 8.49761,6.97024 17.75342,12.89692 26.34375,19.78125 -3.65416,13.32797 -10.39352,26.22977 -11.15625,40.125 2.29297,6.16621 9.30037,1.11392 12.50869,-1.32066 8.76383,-5.78573 16.95888,-13.37013 26.39756,-17.67934 12.06843,6.45295 22.32418,16.2866 34.375,22.9375 5.3842,0.1545 3.82457,-7.43909 3.1875,-10.875 -1.98837,-11.0572 -7.51602,-21.82388 -9.3125,-32.59375 9.90221,-10.18885 23.05458,-16.58428 32.5,-27.21875 0.60599,-5.33705 -7.23109,-4.04746 -10.625,-4.875 -10.85994,-0.69671 -21.7511,-0.24672 -32.625,-0.375 -5.15103,-13.28221 -7.50252,-28.2007 -15.9375,-39.8125 -0.65906,-0.52935 -1.52611,-0.93797 -2.40625,-0.6875 z"
       id="path4510"
       style="fill:#ffffff;fill-opacity:0;stroke:none"
       inkscape:connector-curvature="0" />
  </g>
  <g
     id="g6577"
     transform="matrix(0.06939977,0,0,0.06939977,-16.899208,-14.767319)">
    <path
       d="m 374.94899,524.51727 c -5.6741,-1.12821 -16.70034,-4.29499 -24.50274,-7.03733 -39.98769,-14.05453 -78.60206,-53.63421 -93.01112,-95.33628 -5.02689,-14.5485 -8.26957,-30.39029 -8.07876,-51.72233 0.18629,-21.34713 3.05187,-35.04228 8.07876,-49.59078 13.73716,-39.75746 48.48413,-77.13033 86.79931,-93.35893 13.91946,-5.89565 44.84034,-11.62967 62.7134,-11.62967 26.63921,0 77.07899,16.84186 87.29092,29.14647 5.22069,6.29056 0.36439,6.50378 -25.36216,1.11354 -20.58854,-4.31371 -27.41825,-4.71154 -43.33738,-2.52436 -45.83657,6.29761 -87.07178,40.84116 -103.55151,86.74715 -7.77411,21.65556 -7.80387,60.59983 -0.0627,82.11702 16.02656,44.54744 56.62329,79.38394 101.46024,87.06419 13.9149,2.38351 20.29595,2.00054 43.13125,-2.5886 14.74016,-2.96227 27.75776,-4.46426 28.92797,-3.33775 2.72492,2.62316 -9.53268,11.34615 -27.50679,19.575 -26.53978,12.15029 -65.24223,16.87951 -92.98864,11.36266 z M 460.09505,422.0141 c -0.78052,-1.26291 1.45486,-10.7461 4.96752,-21.07373 3.51267,-10.32766 6.38668,-19.09515 6.38668,-19.48331 0,-0.38813 -7.525,-6.07543 -16.72221,-12.63843 -9.19722,-6.56301 -16.72221,-12.94199 -16.72221,-14.17552 0,-1.23351 9.55095,-2.579 21.22433,-2.98999 l 21.22435,-0.74719 6.68775,-19.16584 c 3.6783,-10.54124 7.90512,-19.57165 9.39302,-20.0676 1.48786,-0.49595 5.80904,8.41809 9.60255,19.809 l 6.8973,20.71076 21.87064,0 c 12.06356,0 21.48608,1.05059 21.01305,2.34293 -0.47165,1.28862 -8.09311,7.65353 -16.93659,14.14424 -8.84347,6.49074 -16.07904,12.78016 -16.07904,13.97652 0,1.19639 2.31538,8.90499 5.14529,17.13029 4.95515,14.40242 6.54304,24.44014 3.8662,24.44014 -0.70352,0 -8.35585,-5.20961 -17.00523,-11.57691 -8.64936,-6.36731 -16.80589,-11.57691 -18.1256,-11.57691 -1.31972,0 -8.42792,4.41656 -15.79603,9.8146 -17.81352,13.05055 -19.23502,13.80763 -20.89177,11.12695 z"
       id="path6579"
       sodipodi:nodetypes="csssssssssssssssccsssscccscccssssssssc"
       style="fill:#5e8019"
       inkscape:connector-curvature="0" />
    <path
       d="m 496.11458,309.70606 c -5.4844,3.94887 -6.54022,11.68793 -9.4375,17.46875 -2.63624,7.22265 -5.08211,14.52938 -7.65625,21.78125 -13.8735,1.18214 -28.57294,-0.64006 -41.90625,3.6875 -3.36635,3.97288 3.49423,7.07989 5.75,9.65625 8.49761,6.97024 17.75342,12.89692 26.34375,19.78125 -3.65416,13.32797 -10.39352,26.22977 -11.15625,40.125 2.29297,6.16621 9.30037,1.11392 12.50869,-1.32066 8.76383,-5.78573 16.95888,-13.37013 26.39756,-17.67934 12.06843,6.45295 22.32418,16.2866 34.375,22.9375 5.3842,0.1545 3.82457,-7.43909 3.1875,-10.875 -1.98837,-11.0572 -7.51602,-21.82388 -9.3125,-32.59375 9.90221,-10.18885 23.05458,-16.58428 32.5,-27.21875 0.60599,-5.33705 -7.23109,-4.04746 -10.625,-4.875 -10.85994,-0.69671 -21.7511,-0.24672 -32.625,-0.375 -5.15103,-13.28221 -7.50252,-28.2007 -15.9375,-39.8125 -0.65906,-0.52935 -1.52611,-0.93797 -2.40625,-0.6875 z"
       id="path6581"
       style="fill:#5e8019;stroke:none"
       inkscape:connector-curvature="0" />
  </g>
</svg>
