<?xml version="1.0" encoding="UTF-8" standalone="no"?>
<!-- Created with Inkscape (http://www.inkscape.org/) -->

<svg
   xmlns:dc="http://purl.org/dc/elements/1.1/"
   xmlns:cc="http://creativecommons.org/ns#"
   xmlns:rdf="http://www.w3.org/1999/02/22-rdf-syntax-ns#"
   xmlns:svg="http://www.w3.org/2000/svg"
   xmlns="http://www.w3.org/2000/svg"
   xmlns:sodipodi="http://sodipodi.sourceforge.net/DTD/sodipodi-0.dtd"
   xmlns:inkscape="http://www.inkscape.org/namespaces/inkscape"
   height="22"
   id="svg2"
   inkscape:output_extension="org.inkscape.output.svg.inkscape"
   inkscape:version="0.48.1 r9760"
   sodipodi:docname="jain.svg"
   sodipodi:version="0.32"
   version="1.0"
   width="22">
  <metadata
     id="metadata2975">
    <rdf:RDF>
      <cc:Work
         rdf:about="">
        <dc:format>image/svg+xml</dc:format>
        <dc:type
           rdf:resource="http://purl.org/dc/dcmitype/StillImage" />
        <cc:license
           rdf:resource="http://web.resource.org/cc/PublicDomain" />
        <dc:language>en</dc:language>
      </cc:Work>
    </rdf:RDF>
  </metadata>
  <sodipodi:namedview
     bordercolor="#666666"
     borderopacity="1.0"
     gridtolerance="10.0"
     guidetolerance="10.0"
     id="base"
     inkscape:current-layer="svg2"
     inkscape:cx="6.119709"
     inkscape:cy="3.6879751"
     inkscape:pageopacity="0.0"
     inkscape:pageshadow="2"
     inkscape:window-height="725"
     inkscape:window-width="1024"
     inkscape:window-x="0"
     inkscape:window-y="20"
     inkscape:zoom="10.427586"
     objecttolerance="10.0"
     pagecolor="#ffffff"
     showgrid="false"
     inkscape:window-maximized="0" />
  <defs
     id="defs4">
    <inkscape:perspective
       id="perspective2441"
       inkscape:persp3d-origin="290 : 193.33333 : 1"
       inkscape:vp_x="0 : 290 : 1"
       inkscape:vp_y="0 : 1000 : 0"
       inkscape:vp_z="580 : 290 : 1"
       sodipodi:type="inkscape:persp3d" />
    <inkscape:perspective
       id="perspective2466"
       inkscape:persp3d-origin="372.04724 : 350.78739 : 1"
       inkscape:vp_x="0 : 526.18109 : 1"
       inkscape:vp_y="0 : 1000 : 0"
       inkscape:vp_z="744.09448 : 526.18109 : 1"
       sodipodi:type="inkscape:persp3d" />
    <inkscape:perspective
       id="perspective3333"
       inkscape:persp3d-origin="372.04724 : 350.78739 : 1"
       inkscape:vp_x="0 : 526.18109 : 1"
       inkscape:vp_y="0 : 1000 : 0"
       inkscape:vp_z="744.09448 : 526.18109 : 1"
       sodipodi:type="inkscape:persp3d" />
    <inkscape:perspective
       id="perspective3401"
       inkscape:persp3d-origin="372.04724 : 350.78739 : 1"
       inkscape:vp_x="0 : 526.18109 : 1"
       inkscape:vp_y="0 : 1000 : 0"
       inkscape:vp_z="744.09448 : 526.18109 : 1"
       sodipodi:type="inkscape:persp3d" />
    <inkscape:perspective
       id="perspective3464"
       inkscape:persp3d-origin="372.04724 : 350.78739 : 1"
       inkscape:vp_x="0 : 526.18109 : 1"
       inkscape:vp_y="0 : 1000 : 0"
       inkscape:vp_z="744.09448 : 526.18109 : 1"
       sodipodi:type="inkscape:persp3d" />
    <inkscape:perspective
       id="perspective3581"
       inkscape:persp3d-origin="225 : 150 : 1"
       inkscape:vp_x="0 : 225 : 1"
       inkscape:vp_y="0 : 1000 : 0"
       inkscape:vp_z="450 : 225 : 1"
       sodipodi:type="inkscape:persp3d" />
    <inkscape:perspective
       id="perspective4312"
       inkscape:persp3d-origin="225 : 150 : 1"
       inkscape:vp_x="0 : 225 : 1"
       inkscape:vp_y="0 : 1000 : 0"
       inkscape:vp_z="450 : 225 : 1"
       sodipodi:type="inkscape:persp3d" />
  </defs>
  <g
     id="g1327"
     transform="matrix(0.04191988,0,0,0.04191988,0.19179894,-0.38317207)">
    <path
       d="M 66.275,1.768 C 24.94,1.768 1.704,23.139 1.704,66.804 l 0,450.123 c 0,40.844 20.895,62.229 62.192,62.229 l 452.024,0 c 41.307,0 62.229,-20.315 62.229,-62.229 l 0,-450.123 c 0,-42.601 -20.922,-65.036 -63.521,-65.036 -0.004,0 -448.495,-0.143 -448.353,0 z"
       id="path1329"
       style="fill:#111111;fill-opacity:0;stroke:#eeeeee;stroke-width:3.40799999;stroke-opacity:0"
       inkscape:connector-curvature="0" />
  </g>
  <g
     id="g6659"
     style="opacity:0.25"
     transform="matrix(0.06535803,0,0,0.06535803,1.9620635,-10.263627)">
    <path
       d="m 142.0916,514.24122 c -5.82038,-1.69854 -13.98039,-4.85253 -18.13336,-7.00884 -12.98305,-6.74111 -33.325809,-28.60928 -40.137069,-43.1468 0,0 -5.57613,-13.38813 -5.88328,-20.38415 -1.08045,-24.60852 -0.72801,-34.0588 -0.51718,-77.93671 0.22374,-46.56194 0.78221,-87.44425 1.73826,-90.84714 2.12106,-7.54951 15.87115,-14.68523 25.557959,-13.2635 l 6.80298,0.99845 0,-21.4103 c 0,-15.24491 1.01789,-22.86354 3.53479,-26.45694 4.06869,-5.80885 18.16088,-11.13466 24.84059,-9.38786 3.35037,0.87614 4.54798,-0.0208 4.54798,-3.40616 0,-2.5275 2.80016,-7.19055 6.22257,-10.36234 4.94621,-4.58399 8.7304,-5.76688 18.44889,-5.76688 15.88886,0 20.72878,4.99132 22.35315,23.05235 l 1.18461,13.17125 9.99332,0.24145 c 6.0943,0.14723 12.51704,2.12367 16.46168,5.06568 6.39459,4.76923 6.11608,5.17604 7.12822,34.7833 0.59241,17.07062 0.26945,27.53806 1.23533,31.29274 11.56812,-12.0194 46.90091,-4.46986 48.2034,4.48945 0.39245,2.69948 -1.97352,8.8677 -5.25767,13.70718 -10.14209,14.9452 -11.47008,23.30384 -12.90147,81.20461 0,0 0.41314,24.85246 -1.88493,42.65438 -2.2981,17.80192 -7.30741,28.55328 -7.30741,28.55328 -9.50914,19.30161 -26.28463,36.61749 -43.75588,45.16538 -15.63453,7.64925 -45.26737,10.01992 -62.47548,4.99812 z m 52.25759,-21.24063 c 18.60358,-8.4427 32.43239,-23.32387 40.65754,-43.75162 3.52689,-8.75931 4.5232,-20.50884 5.78294,-68.1984 1.25523,-47.51851 2.21917,-58.93487 5.50032,-65.14203 2.18811,-4.13939 3.97839,-8.49018 3.97839,-9.66849 0,-3.96164 -11.33547,-0.0203 -16.86267,5.86311 -4.73118,5.0361 -5.63585,8.92101 -6.65282,28.5693 l -1.17704,22.74059 -6.8435,0 -6.84349,0 0.54558,-59.52274 c 0.56751,-61.91062 -0.0484,-66.29155 -9.31943,-66.29155 -2.33607,0 -5.91037,1.66296 -7.94288,3.69549 -3.13482,3.13482 -3.69548,11.51911 -3.69548,55.26422 l 0,51.56873 -7.05501,0 -7.055,0 0,-70.26213 c 0,-75.19369 -0.43299,-77.96003 -11.64549,-74.40132 -4.71251,1.49568 -4.81619,3.04416 -4.81619,71.92019 l 0,70.39159 -8.23085,0 -8.23084,0 0,-59.8507 c 0,-53.05636 -0.43837,-60.09603 -3.86151,-62.01172 -2.12384,-1.18856 -5.69024,-1.68279 -7.92536,-1.0983 -3.5679,0.93305 -4.26908,6.02114 -5.7459,41.69601 -0.92512,22.3483 -1.49235,50.56904 -1.26045,62.71275 0.57092,29.89907 0.92886,28.38025 -6.48722,27.52692 l -6.46709,-0.74411 -0.6536,-35.17683 c -0.68626,-36.9359 -1.25069,-38.79438 -11.80345,-38.86474 l -5.402039,-0.036 0.6987,84.07217 c 0.6889,82.89123 0.7757,84.21649 6.180589,94.34675 18.31506,34.32745 59.44591,49.71397 92.63325,34.65287 z"
       id="path1873"
       sodipodi:nodetypes="cscssscccssssscccsscsscscsccssssscccccsscccccscccccssssccccccsc"
       style="fill:#ffffff;fill-opacity:0"
       inkscape:connector-curvature="0" />
    <path
       d="m 168.57903,363.87475 c -17.55614,-1.15609 -34.95277,6.26848 -46.1875,19.84375 -15.88788,17.59337 -19.02858,44.49441 -10.65625,66.21875 6.07801,13.65035 18.08449,24.23615 30.92982,31.40759 14.51904,7.11612 32.18989,5.36845 46.78893,-0.0326 15.68133,-7.03907 27.45236,-21.63346 33.68549,-37.28354 5.33529,-17.17517 6.70135,-37.70053 -3.43549,-53.49771 -11.54666,-16.33753 -30.94934,-27.17829 -51.125,-26.65625 z"
       id="path5122"
       style="fill:#ffffff;fill-opacity:0"
       inkscape:connector-curvature="0" />
  </g>
  <g
     id="g6700"
     transform="matrix(0.06535803,0,0,0.06535803,0.28526849,-11.940422)">
    <path
       d="m 142.0916,514.24122 c -5.82038,-1.69854 -13.98039,-4.85253 -18.13336,-7.00884 -12.98305,-6.74111 -33.325809,-28.60928 -40.137069,-43.1468 0,0 -5.57613,-13.38813 -5.88328,-20.38415 -1.08045,-24.60852 -0.72801,-34.0588 -0.51718,-77.93671 0.22374,-46.56194 0.78221,-87.44425 1.73826,-90.84714 2.12106,-7.54951 15.87115,-14.68523 25.557959,-13.2635 l 6.80298,0.99845 0,-21.4103 c 0,-15.24491 1.01789,-22.86354 3.53479,-26.45694 4.06869,-5.80885 18.16088,-11.13466 24.84059,-9.38786 3.35037,0.87614 4.54798,-0.0208 4.54798,-3.40616 0,-2.5275 2.80016,-7.19055 6.22257,-10.36234 4.94621,-4.58399 8.7304,-5.76688 18.44889,-5.76688 15.88886,0 20.72878,4.99132 22.35315,23.05235 l 1.18461,13.17125 9.99332,0.24145 c 6.0943,0.14723 12.51704,2.12367 16.46168,5.06568 6.39459,4.76923 6.11608,5.17604 7.12822,34.7833 0.59241,17.07062 0.26945,27.53806 1.23533,31.29274 11.56812,-12.0194 46.90091,-4.46986 48.2034,4.48945 0.39245,2.69948 -1.97352,8.8677 -5.25767,13.70718 -10.14209,14.9452 -11.47008,23.30384 -12.90147,81.20461 0,0 0.41314,24.85246 -1.88493,42.65438 -2.2981,17.80192 -7.30741,28.55328 -7.30741,28.55328 -9.50914,19.30161 -26.28463,36.61749 -43.75588,45.16538 -15.63453,7.64925 -45.26737,10.01992 -62.47548,4.99812 z m 52.25759,-21.24063 c 18.60358,-8.4427 32.43239,-23.32387 40.65754,-43.75162 3.52689,-8.75931 4.5232,-20.50884 5.78294,-68.1984 1.25523,-47.51851 2.21917,-58.93487 5.50032,-65.14203 2.18811,-4.13939 3.97839,-8.49018 3.97839,-9.66849 0,-3.96164 -11.33547,-0.0203 -16.86267,5.86311 -4.73118,5.0361 -5.63585,8.92101 -6.65282,28.5693 l -1.17704,22.74059 -6.8435,0 -6.84349,0 0.54558,-59.52274 c 0.56751,-61.91062 -0.0484,-66.29155 -9.31943,-66.29155 -2.33607,0 -5.91037,1.66296 -7.94288,3.69549 -3.13482,3.13482 -3.69548,11.51911 -3.69548,55.26422 l 0,51.56873 -7.05501,0 -7.055,0 0,-70.26213 c 0,-75.19369 -0.43299,-77.96003 -11.64549,-74.40132 -4.71251,1.49568 -4.81619,3.04416 -4.81619,71.92019 l 0,70.39159 -8.23085,0 -8.23084,0 0,-59.8507 c 0,-53.05636 -0.43837,-60.09603 -3.86151,-62.01172 -2.12384,-1.18856 -5.69024,-1.68279 -7.92536,-1.0983 -3.5679,0.93305 -4.26908,6.02114 -5.7459,41.69601 -0.92512,22.3483 -1.49235,50.56904 -1.26045,62.71275 0.57092,29.89907 0.92886,28.38025 -6.48722,27.52692 l -6.46709,-0.74411 -0.6536,-35.17683 c -0.68626,-36.9359 -1.25069,-38.79438 -11.80345,-38.86474 l -5.402039,-0.036 0.6987,84.07217 c 0.6889,82.89123 0.7757,84.21649 6.180589,94.34675 18.31506,34.32745 59.44591,49.71397 92.63325,34.65287 z"
       id="path6702"
       sodipodi:nodetypes="cscssscccssssscccsscsscscsccssssscccccsscccccscccccssssccccccsc"
       style="fill:#5e8019"
       inkscape:connector-curvature="0" />
    <path
       d="m 168.57903,363.87475 c -17.55614,-1.15609 -34.95277,6.26848 -46.1875,19.84375 -15.88788,17.59337 -19.02858,44.49441 -10.65625,66.21875 6.07801,13.65035 18.08449,24.23615 30.92982,31.40759 14.51904,7.11612 32.18989,5.36845 46.78893,-0.0326 15.68133,-7.03907 27.45236,-21.63346 33.68549,-37.28354 5.33529,-17.17517 6.70135,-37.70053 -3.43549,-53.49771 -11.54666,-16.33753 -30.94934,-27.17829 -51.125,-26.65625 z"
       id="path6704"
       style="fill:#5e8019"
       inkscape:connector-curvature="0" />
  </g>
</svg>
