<?xml version="1.0" encoding="UTF-8" standalone="no"?>
<!-- Created with Inkscape (http://www.inkscape.org/) -->

<svg
   xmlns:dc="http://purl.org/dc/elements/1.1/"
   xmlns:cc="http://creativecommons.org/ns#"
   xmlns:rdf="http://www.w3.org/1999/02/22-rdf-syntax-ns#"
   xmlns:svg="http://www.w3.org/2000/svg"
   xmlns="http://www.w3.org/2000/svg"
   xmlns:sodipodi="http://sodipodi.sourceforge.net/DTD/sodipodi-0.dtd"
   xmlns:inkscape="http://www.inkscape.org/namespaces/inkscape"
   height="22"
   id="svg2"
   inkscape:output_extension="org.inkscape.output.svg.inkscape"
   inkscape:version="0.48.1 r9760"
   sodipodi:docname="jewish.svg"
   sodipodi:version="0.32"
   version="1.0"
   width="22">
  <metadata
     id="metadata2975">
    <rdf:RDF>
      <cc:Work
         rdf:about="">
        <dc:format>image/svg+xml</dc:format>
        <dc:type
           rdf:resource="http://purl.org/dc/dcmitype/StillImage" />
        <cc:license
           rdf:resource="http://web.resource.org/cc/PublicDomain" />
        <dc:language>en</dc:language>
      </cc:Work>
    </rdf:RDF>
  </metadata>
  <sodipodi:namedview
     bordercolor="#666666"
     borderopacity="1.0"
     gridtolerance="10.0"
     guidetolerance="10.0"
     id="base"
     inkscape:current-layer="svg2"
     inkscape:cx="6.119709"
     inkscape:cy="2.8630422"
     inkscape:pageopacity="0.0"
     inkscape:pageshadow="2"
     inkscape:window-height="725"
     inkscape:window-width="1024"
     inkscape:window-x="0"
     inkscape:window-y="20"
     inkscape:zoom="10.427586"
     objecttolerance="10.0"
     pagecolor="#ffffff"
     showgrid="false"
     inkscape:window-maximized="0" />
  <defs
     id="defs4">
    <inkscape:perspective
       id="perspective2441"
       inkscape:persp3d-origin="290 : 193.33333 : 1"
       inkscape:vp_x="0 : 290 : 1"
       inkscape:vp_y="0 : 1000 : 0"
       inkscape:vp_z="580 : 290 : 1"
       sodipodi:type="inkscape:persp3d" />
    <inkscape:perspective
       id="perspective2466"
       inkscape:persp3d-origin="372.04724 : 350.78739 : 1"
       inkscape:vp_x="0 : 526.18109 : 1"
       inkscape:vp_y="0 : 1000 : 0"
       inkscape:vp_z="744.09448 : 526.18109 : 1"
       sodipodi:type="inkscape:persp3d" />
    <inkscape:perspective
       id="perspective3333"
       inkscape:persp3d-origin="372.04724 : 350.78739 : 1"
       inkscape:vp_x="0 : 526.18109 : 1"
       inkscape:vp_y="0 : 1000 : 0"
       inkscape:vp_z="744.09448 : 526.18109 : 1"
       sodipodi:type="inkscape:persp3d" />
    <inkscape:perspective
       id="perspective3401"
       inkscape:persp3d-origin="372.04724 : 350.78739 : 1"
       inkscape:vp_x="0 : 526.18109 : 1"
       inkscape:vp_y="0 : 1000 : 0"
       inkscape:vp_z="744.09448 : 526.18109 : 1"
       sodipodi:type="inkscape:persp3d" />
    <inkscape:perspective
       id="perspective3464"
       inkscape:persp3d-origin="372.04724 : 350.78739 : 1"
       inkscape:vp_x="0 : 526.18109 : 1"
       inkscape:vp_y="0 : 1000 : 0"
       inkscape:vp_z="744.09448 : 526.18109 : 1"
       sodipodi:type="inkscape:persp3d" />
    <inkscape:perspective
       id="perspective3581"
       inkscape:persp3d-origin="225 : 150 : 1"
       inkscape:vp_x="0 : 225 : 1"
       inkscape:vp_y="0 : 1000 : 0"
       inkscape:vp_z="450 : 225 : 1"
       sodipodi:type="inkscape:persp3d" />
    <inkscape:perspective
       id="perspective4312"
       inkscape:persp3d-origin="225 : 150 : 1"
       inkscape:vp_x="0 : 225 : 1"
       inkscape:vp_y="0 : 1000 : 0"
       inkscape:vp_z="450 : 225 : 1"
       sodipodi:type="inkscape:persp3d" />
  </defs>
  <g
     id="g1327"
     transform="matrix(0.04192159,0,0,0.04192159,-0.47949735,-0.38317207)">
    <path
       d="M 66.275,1.768 C 24.94,1.768 1.704,23.139 1.704,66.804 l 0,450.123 c 0,40.844 20.895,62.229 62.192,62.229 l 452.024,0 c 41.307,0 62.229,-20.315 62.229,-62.229 l 0,-450.123 c 0,-42.601 -20.922,-65.036 -63.521,-65.036 -0.004,0 -448.495,-0.143 -448.353,0 z"
       id="path1329"
       style="fill:#111111;fill-opacity:0;stroke:#eeeeee;stroke-width:3.40799999;stroke-opacity:0"
       inkscape:connector-curvature="0" />
  </g>
  <path
     d="m 10.804825,20.824735 -1.5297931,-2.65425 -3.0098203,-0.0014 C 4.389481,18.168248 3.2170422,18.105682 3.1536169,18.003057 3.0976411,17.912485 3.7173467,16.681351 4.5307409,15.267199 5.5393502,13.513649 5.9753453,12.605874 5.9018014,12.412548 5.8424894,12.256641 5.1822768,11.071856 4.434657,9.7796957 3.6870401,8.4875325 3.0753528,7.3462275 3.0753528,7.2434638 c 0,-0.1352957 0.8552281,-0.1869069 3.0998398,-0.1870652 L 9.2750319,7.0561818 10.800575,4.3993939 c 0.83905,-1.4612334 1.576868,-2.6567881 1.639599,-2.6567881 0.172045,0 0.60162,0.6662268 1.99874,3.0998398 l 1.271142,2.2141704 3.102939,0 c 2.378755,0 3.101295,0.046975 3.095896,0.201289 -0.0038,0.110708 -0.680222,1.3584668 -1.502995,2.772798 l -1.49595,2.571508 1.502993,2.603818 c 0.826647,1.432098 1.502995,2.68434 1.502995,2.782757 0,0.125046 -0.934608,0.178944 -3.102939,0.178944 l -3.102939,0 -1.271142,2.214171 c -1.390263,2.421669 -1.827268,3.10056 -1.994492,3.098464 -0.06039,-7.29e-4 -0.798213,-1.195794 -1.639597,-2.65563 z m 2.242607,-1.589651 c 0.272201,-0.475757 0.494912,-0.91054 0.494912,-0.966185 0,-0.05565 -0.471014,-0.101169 -1.046699,-0.101169 -0.575685,0 -1.0467,0.04552 -1.0467,0.101169 0,0.130951 0.971849,1.831199 1.0467,1.831199 0.03128,0 0.279588,-0.389257 0.551787,-0.865014 z M 7.7112957,15.43212 c -0.2913142,-0.530351 -0.565894,-0.964274 -0.6101779,-0.964274 -0.044285,0 -0.3188624,0.433923 -0.6101772,0.964274 l -0.5296617,0.964272 1.1398389,0 1.139839,0 -0.5296611,-0.964272 z m 7.5758293,-0.122684 c 0.347475,-0.597827 0.836385,-1.455835 1.086467,-1.906685 l 0.454692,-0.819728 -1.043162,-1.837277 -1.043161,-1.8372774 -2.239148,0 -2.239147,0 -1.0176662,1.7524504 c -0.5597172,0.963847 -1.0176676,1.828801 -1.0176676,1.922114 0,0.166858 1.6695815,3.218813 1.9759958,3.612071 0.111519,0.143124 0.777257,0.201288 2.30393,0.201288 l 2.147095,0 0.631772,-1.086956 z m 3.213222,0.122684 c -0.291316,-0.530351 -0.565893,-0.964274 -0.610178,-0.964274 -0.04428,0 -0.318863,0.433923 -0.610178,0.964274 l -0.529659,0.964272 1.139837,0 1.139839,0 -0.529661,-0.964272 z M 7.7006898,9.7914578 8.2197464,8.8279533 l -1.1292331,0 -1.1292344,0 0.5296617,0.9642733 c 0.2913148,0.5303514 0.5658934,0.9639264 0.6101772,0.9635024 0.044285,-4.23e-4 0.3140906,-0.434345 0.599572,-0.9642712 z m 10.7890502,0 0.519057,-0.9635045 -1.129232,0 -1.129233,0 0.529659,0.9642733 c 0.291315,0.5303514 0.565894,0.9639264 0.610178,0.9635024 0.04428,-4.23e-4 0.31409,-0.434345 0.599571,-0.9642712 z M 13.542344,6.9554455 c 0,-0.1309494 -0.971849,-1.8311963 -1.046699,-1.8311963 -0.07485,0 -1.0467,1.7002469 -1.0467,1.8311963 0,0.055644 0.471015,0.1011705 1.0467,0.1011705 0.575685,0 1.046699,-0.045524 1.046699,-0.1011705 z"
     id="path3648"
     sodipodi:nodetypes="cccssssscccscccscccscccsccssssccscccccccccccccssccccsccccccccccsccccccsccsssc"
     style="opacity:0.25;fill:#ffffff;fill-opacity:0"
     inkscape:connector-curvature="0" />
  <path
     d="m 9.1690679,19.188979 -1.5297912,-2.65425 -3.0098209,-0.0014 c -1.87573,-8.45e-4 -3.048169,-0.06341 -3.1115943,-0.166036 -0.055976,-0.09057 0.5637297,-1.321706 1.3771239,-2.735859 C 3.9035947,11.877894 4.3395897,10.970118 4.2660459,10.776793 4.2067344,10.620886 3.5465212,9.4361009 2.7989018,8.1439398 2.0512846,6.8517772 1.4395972,5.7104721 1.4395972,5.6077079 c 0,-0.1352956 0.8552282,-0.1869065 3.0998399,-0.1870646 L 7.6392767,5.4204262 9.164819,2.763638 c 0.839049,-1.4612331 1.576869,-2.65678768 1.639599,-2.65678768 0.172046,0 0.60162,0.6662268 1.998741,3.09983958 l 1.271142,2.2141705 3.102939,0 c 2.378754,0 3.101295,0.046977 3.095896,0.2012891 -0.0038,0.1107078 -0.680222,1.358467 -1.502996,2.7727971 l -1.495951,2.5715084 1.502994,2.603817 c 0.826649,1.432099 1.502995,2.684342 1.502995,2.782759 0,0.125045 -0.934607,0.178943 -3.102938,0.178943 l -3.102939,0 -1.271142,2.214171 c -1.390264,2.42167 -1.827269,3.100561 -1.994492,3.098465 -0.06039,-7.3e-4 -0.798215,-1.195794 -1.6395991,-2.655631 z m 2.2426091,-1.58965 c 0.272201,-0.475758 0.494911,-0.91054 0.494911,-0.966184 0,-0.05564 -0.471015,-0.101171 -1.046699,-0.101171 -0.575685,0 -1.0466983,0.04552 -1.0466983,0.101171 0,0.130949 0.9718473,1.831196 1.0466983,1.831196 0.03128,0 0.279588,-0.389256 0.551788,-0.865012 z M 6.0755408,13.796364 C 5.784226,13.266013 5.5096462,12.832091 5.465362,12.832091 c -0.044284,0 -0.3188624,0.433922 -0.6101768,0.964273 l -0.5296619,0.964273 1.1398387,0 1.1398396,0 -0.5296608,-0.964273 z M 13.651369,13.67368 c 0.347476,-0.597828 0.836385,-1.455834 1.086468,-1.906685 l 0.454691,-0.819728 -1.043162,-1.8372767 -1.043161,-1.837277 -2.239148,0 -2.2391462,0 -1.0176669,1.7524505 C 7.0505267,9.9890107 6.592577,10.853963 6.592577,10.947278 c 0,0.166857 1.669581,3.218812 1.9759958,3.612071 0.1115177,0.143124 0.7772561,0.201288 2.3039292,0.201288 l 2.147094,0 0.631773,-1.086957 z m 3.213222,0.122684 c -0.291314,-0.530351 -0.565894,-0.964273 -0.610177,-0.964273 -0.04428,0 -0.318864,0.433922 -0.610178,0.964273 l -0.52966,0.964273 1.139838,0 1.139838,0 -0.529661,-0.964273 z M 6.0649343,8.1557022 6.5839905,7.1921973 l -1.1292331,0 -1.1292341,0 0.5296619,0.9642744 C 5.1464996,8.6868214 5.4210785,9.1203974 5.465362,9.1199739 5.5096465,9.1195504 5.7794529,8.6856278 6.0649343,8.1557022 z m 10.7890507,0 0.519057,-0.9635049 -1.129234,0 -1.129232,0 0.52966,0.9642744 c 0.291314,0.5303497 0.565894,0.9639257 0.610178,0.9635022 0.04428,-4.235e-4 0.31409,-0.4343461 0.599571,-0.9642717 z m -4.947397,-2.836012 c 0,-0.1309497 -0.971849,-1.8311964 -1.046699,-1.8311964 -0.07485,0 -1.0466983,1.7002467 -1.0466983,1.8311964 0,0.055644 0.4710133,0.1011702 1.0466983,0.1011702 0.575684,0 1.046699,-0.045526 1.046699,-0.1011702 z"
     id="path6812"
     sodipodi:nodetypes="cccssssscccscccscccscccsccssssccscccccccccccccssccccsccccccccccsccccccsccsssc"
     style="fill:#5e8019;fill-opacity:1"
     inkscape:connector-curvature="0" />
</svg>
