<?xml version="1.0" encoding="UTF-8" standalone="no"?>
<!-- Created with Inkscape (http://www.inkscape.org/) -->

<svg
   version="1.1"
   id="svg2"
   width="307.20001"
   height="307.20001"
   viewBox="0 0 307.20001 307.20001"
   xmlns="http://www.w3.org/2000/svg"
   xmlns:svg="http://www.w3.org/2000/svg">
  <defs
     id="defs6" />
  <g
     id="g8">
    <path
       style="fill:#000000;stroke-width:0.16"
       d="m 54.688365,254.01775 c -1.658978,-0.68281 -2.78845,-1.96022 -3.238674,-3.66286 -0.242547,-0.91727 -0.259429,-6.53763 -0.216381,-72.03488 L 51.28,107.28 l 0.423673,-0.90367 c 0.677471,-1.44501 2.02849,-2.5943 3.571772,-3.03845 0.266923,-0.0768 12.750411,-0.13979 27.794413,-0.14021 27.096052,-8e-4 27.316692,0.002 28.182102,0.32558 0.56306,0.21067 1.24722,0.66995 1.93014,1.29572 0.58185,0.53316 1.0579,0.92279 1.0579,0.86585 0,-0.0569 -0.21133,-0.94532 -0.46963,-1.97418 -0.87674,-3.49225 -1.19168,-6.12197 -1.19168,-9.950637 0,-2.778166 0.0695,-3.886352 0.36103,-5.76 1.43918,-9.24846 5.21859,-16.743573 11.71226,-23.2271 6.3258,-6.315917 14.04842,-10.191026 23.10802,-11.595295 2.71967,-0.421557 8.96034,-0.421557 11.68001,0 9.05528,1.403599 16.83896,5.310933 23.12849,11.610269 6.48544,6.495548 10.25509,13.979567 11.69179,23.212126 0.29157,1.873648 0.36103,2.981834 0.36103,5.76 0,2.778167 -0.0695,3.886352 -0.36103,5.76 -1.4276,9.174047 -5.22857,16.744477 -11.61219,23.128097 -6.29904,6.29904 -13.64526,10.05253 -22.73781,11.61771 -1.78608,0.30746 -2.65234,0.35638 -6.31029,0.35638 -4.57259,0 -6.36113,-0.20006 -9.9725,-1.11549 -0.87089,-0.22076 -1.64981,-0.37926 -1.73094,-0.35221 -0.0811,0.027 3.04095,3.21816 6.93796,7.09136 3.89702,3.87321 24.11349,23.95556 44.92549,44.62747 55.52371,55.14992 61.24225,60.86954 61.60371,61.61522 1.3391,2.76252 0.27155,5.95486 -2.47642,7.40534 l -0.80729,0.42613 -98.24,0.0365 L 55.6,254.39301 Z M 222.31068,246.27858 C 216.17802,240.19948 144.94893,169.43636 117.76,142.41186 103.02,127.76101 89.194137,114.02481 87.035856,111.88697 L 83.111708,108 H 69.721484 c -13.074769,0 -13.394125,0.007 -13.555853,0.30949 -0.231991,0.43348 -0.231991,140.54756 0,140.98103 0.163433,0.30538 1.288579,0.30949 84.830679,0.30949 h 84.66506 z M 65.097834,241.2083 c -1.165426,-0.79192 -1.097832,0.45833 -1.097832,-20.30637 v -18.61159 l 0.363987,-0.68832 c 0.901508,-1.70477 3.299007,-1.70409 4.155765,0.002 0.261178,0.51986 0.279768,1.70671 0.28,17.87682 l 2.48e-4,17.31957 6.44,0.004 c 5.934311,0.003 6.491498,0.0269 7.095829,0.30134 0.768047,0.34882 1.272506,0.99042 1.42725,1.81528 0.145738,0.77685 -0.388173,1.90567 -1.113317,2.35383 -0.512873,0.31697 -0.756059,0.32603 -8.751506,0.32603 h -8.223973 z m 39.685826,0.0315 c -0.29901,-0.19812 -0.71018,-0.69566 -0.9137,-1.10561 -0.32344,-0.65152 -0.34813,-0.82674 -0.19609,-1.39138 0.21658,-0.80433 0.95356,-1.55979 1.73275,-1.77619 0.35211,-0.0978 2.70775,-0.16374 5.79338,-0.16219 4.72612,0.002 5.25977,0.0298 5.85583,0.30046 0.76805,0.34882 1.27251,0.99042 1.42725,1.81528 0.14574,0.77685 -0.38817,1.90567 -1.11331,2.35383 -0.5052,0.31222 -0.77128,0.32603 -6.28499,0.32603 -5.70414,0 -5.76249,-0.003 -6.30112,-0.36023 z m 146.25635,8.04023 c 0.11153,-0.20842 0.11811,-0.4193 0.0189,-0.60474 -0.0838,-0.15661 -1.65233,-1.75329 -3.48561,-3.54821 -1.8333,-1.79491 -14.74525,-14.61435 -28.69325,-28.48766 -13.948,-13.8733 -44.25164,-43.99261 -67.3414,-66.93179 L 109.55722,108 l -9.778607,4.8e-4 -9.77861,4.8e-4 8,7.968 C 102.4,120.35135 117.016,134.87353 130.48,148.24046 c 13.464,13.36694 30.06001,29.86203 36.88001,36.65578 6.82,6.79374 24.244,24.12733 38.72,38.51909 l 26.32,26.16683 9.23437,0.009 c 9.07528,0.009 9.23732,0.003 9.40563,-0.31106 z m -91.6,-119.81821 c 7.79683,-1.36674 14.39147,-4.7639 19.8564,-10.22884 4.52643,-4.52643 7.89713,-10.42939 9.4292,-16.51296 0.81416,-3.232848 1.07387,-5.394267 1.07665,-8.959997 0.003,-3.564843 -0.25208,-5.685815 -1.07665,-8.96 -3.18808,-12.659298 -13.46146,-22.897345 -26.1656,-26.075639 -3.41289,-0.853828 -5.02956,-1.041802 -8.96001,-1.041802 -3.93044,0 -5.54711,0.187974 -8.96,1.041802 -12.71376,3.180702 -22.97054,13.402371 -26.1652,26.075639 -0.81711,3.241496 -1.07526,5.392603 -1.07526,8.96 0,3.567397 0.25815,5.718504 1.07526,8.959997 3.18852,12.64892 13.47897,22.90353 26.1652,26.07409 1.57269,0.39305 2.60613,0.57564 5.84,1.03185 1.25099,0.17648 7.27184,-0.0682 8.96001,-0.36414 z m 84.64,71.22955 c -0.264,-0.0235 -4.764,-0.22451 -10,-0.4467 -11.78415,-0.50005 -13.00611,-0.58852 -13.96051,-1.01069 -2.34029,-1.03522 -3.63058,-3.7716 -2.9242,-6.20147 0.33252,-1.14378 0.52717,-1.43202 2.46439,-3.64932 1.10854,-1.26878 1.47742,-1.79542 1.36889,-1.95428 -0.0817,-0.1196 -3.35777,-3.01004 -7.28011,-6.42317 -26.86126,-23.37409 -34.15645,-29.75664 -34.72917,-30.3845 -1.60233,-1.75665 -2.28589,-4.59447 -1.66688,-6.92019 0.34413,-1.29294 0.95453,-2.37879 2.03552,-3.62103 5.46191,-6.27665 6.17264,-6.96182 7.9396,-7.65407 1.06223,-0.41616 2.60914,-0.58209 3.82344,-0.41012 2.07421,0.29374 2.81983,0.80195 8.68903,5.92241 2.948,2.57192 11.19089,9.75797 18.31757,15.969 7.12665,6.21103 14.17608,12.35479 15.66537,13.65279 1.48931,1.298 2.75443,2.36 2.81141,2.36 0.057,0 0.67554,-0.66386 1.37461,-1.47522 1.81993,-2.11229 2.44069,-2.68282 3.40041,-3.12526 2.81106,-1.29592 6.19116,0.14246 7.15864,3.0463 0.45442,1.36395 4.8894,26.23539 4.88429,27.3913 -0.009,2.07566 -1.35539,3.98444 -3.33166,4.72387 -0.77147,0.28864 -1.18955,0.32656 -3.22354,0.29235 -1.28541,-0.0216 -2.5531,-0.0585 -2.8171,-0.082 z m 4.51445,-4.96341 c 0.1091,-0.28433 -4.37658,-25.35925 -4.62397,-25.84793 -0.078,-0.154 -0.23619,-0.28 -0.35163,-0.28 -0.11544,0 -1.31807,1.26702 -2.6725,2.8156 -1.35443,1.54859 -2.67944,2.92822 -2.94448,3.06584 -0.54867,0.28492 -1.57101,0.31774 -2.16187,0.0694 -0.22,-0.0925 -4.252,-3.53027 -8.96,-7.63957 -27.10916,-23.66175 -35.26432,-30.73129 -35.64983,-30.90405 -0.72269,-0.32387 -1.95632,-0.25128 -2.61056,0.1536 -0.6363,0.3938 -5.97368,6.39594 -6.41291,7.21164 -0.1503,0.27915 -0.2763,0.77609 -0.28,1.10431 -0.0141,1.25486 0.32635,1.69647 3.316,4.3014 1.55398,1.35401 4.56008,3.97384 6.68019,5.82184 2.12013,1.848 6.5868,5.74108 9.92594,8.65131 3.33913,2.91022 8.69917,7.58288 11.91117,10.38365 3.212,2.80078 7.41493,6.46225 9.33982,8.13659 3.56962,3.10497 3.94018,3.53675 3.94018,4.59125 0,0.78676 -0.39191,1.36496 -2.70303,3.98784 -2.58032,2.9284 -2.6023,2.9572 -2.48694,3.2578 0.10632,0.27709 1.18962,0.35015 12.46997,0.84101 3.168,0.13786 6.912,0.30743 8.32,0.37682 4.67077,0.23019 5.83576,0.21094 5.95445,-0.0983 z M 88.800003,96.054962 c -0.230349,-0.09278 -5.481631,-3.588335 -14.320001,-9.53222 -2.601745,-1.749698 -4.294849,-2.994747 -4.52,-3.32385 -0.441601,-0.645489 -0.487641,-1.893437 -0.09441,-2.559121 0.56152,-0.950578 2.097538,-1.398751 3.062357,-0.893524 0.23763,0.124436 3.875384,2.536436 8.083896,5.360001 4.208514,2.823566 7.706692,5.133755 7.773728,5.133755 0.06704,0 0.721721,-0.99 1.454852,-2.2 1.858893,-3.068019 2.187176,-3.524683 2.738885,-3.809983 0.579417,-0.299628 1.574512,-0.337675 2.18779,-0.08365 0.441949,0.183061 6.49604,6.450103 6.86723,7.108791 0.57144,1.014006 0.0243,2.631009 -1.07752,3.18459 -1.323809,0.665106 -2.084419,0.290426 -4.525518,-2.229294 l -1.88871,-1.949543 -0.27129,0.442301 c -0.149208,0.243264 -0.847288,1.383051 -1.551288,2.532861 -0.783294,1.279317 -1.481128,2.228763 -1.798306,2.446706 -0.516137,0.354654 -1.664892,0.556163 -2.121694,0.372176 z M 105.04,76.982313 c -0.73618,-0.454733 -0.91749,-0.725571 -2.18357,-3.26169 l -1.17785,-2.359379 -2.271926,1.99123 C 96.920402,75.53155 96.349342,75.829487 95.234386,75.52926 94.901296,75.439569 94.40595,75.130794 94.133617,74.843094 93.418832,74.087977 80.53379,58.159466 80.330566,57.779739 c -0.09381,-0.175284 -0.170295,-0.665433 -0.169965,-1.089219 0.0011,-1.434088 0.882016,-2.290518 2.355971,-2.290518 0.544116,0 0.922402,0.106419 1.279687,0.36 0.278974,0.198 2.893125,3.312 5.809222,6.92 2.9161,3.608 5.601816,6.90129 5.968261,7.318423 l 0.666261,0.758422 2.24,-2.016496 c 1.232,-1.109072 2.455997,-2.152093 2.719997,-2.317824 0.63616,-0.399358 1.76859,-0.393648 2.43434,0.01227 0.67882,0.413898 0.95497,0.877376 3.06044,5.136461 1.96997,3.984986 2.11233,4.536043 1.45821,5.64469 -0.59129,1.002169 -2.12141,1.378854 -3.11299,0.76636 z"
       id="path293" />
    <path
       style="fill:#000000;stroke:#000000;stroke-width:2.87226"
       d="m 57.118056,249.22177 -0.788096,-0.15175 0.08832,-70.39013 0.08832,-70.39014 13.245198,-0.0917 13.245199,-0.0917 51.833613,51.51752 c 28.50849,28.33464 60.49331,60.13906 71.07736,70.67649 l 19.24374,19.15897 -83.62278,-0.0429 c -45.992533,-0.0236 -83.977429,-0.11118 -84.410882,-0.19463 z m 26.129446,-8.37236 c 1.323201,-1.68218 0.767162,-3.38771 -1.290796,-3.95925 -0.719375,-0.19978 -3.945222,-0.36412 -7.168548,-0.36519 l -5.860593,-0.002 v -17.38429 c 0,-17.3673 -7.34e-4,-17.38507 -0.760762,-18.19408 -1.425742,-1.51763 -3.795417,-0.72067 -4.342877,1.46059 -0.122668,0.48875 -0.164702,9.24615 -0.09341,19.46089 l 0.129624,18.57226 0.823043,0.66646 c 0.7589,0.61452 1.486116,0.66646 9.331097,0.66646 h 8.508054 z m 34.650488,0.15615 c 0.89901,-0.96497 0.91685,-2.52966 0.0389,-3.40767 -0.92855,-0.92855 -3.16294,-1.19343 -8.45521,-1.00232 -3.71694,0.13421 -4.63262,0.2746 -5.21222,0.79913 -0.93458,0.84578 -0.9072,2.53979 0.0576,3.56681 0.73832,0.7859 0.93924,0.8098 6.80915,0.8098 5.77153,0 6.08105,-0.0351 6.76179,-0.76575 z"
       id="path364" />
    <path
       style="fill:#000000;stroke:#000000;stroke-width:2.87226"
       d="M 223.22734,240.11128 C 213.417,230.39756 172.13492,189.34232 120.48325,137.93176 l -29.967785,-29.8279 9.527015,0.093 9.52701,0.0929 70.72518,70.29202 c 38.89885,38.6606 70.64244,70.42589 70.54131,70.58952 -0.10113,0.16363 -4.22889,0.29669 -9.17279,0.2957 l -8.98892,-0.002 -9.44693,-9.35389 z"
       id="path989" />
    <path
       style="fill:#000000;stroke:#000000;stroke-width:2.87226"
       d="m 234.94853,195.37543 c -5.6769,-0.26587 -10.89686,-0.6027 -11.59991,-0.74854 l -1.27827,-0.26515 2.59034,-3.07136 c 2.55518,-3.02965 2.92379,-3.87414 2.24482,-5.14281 -0.19003,-0.35508 -9.44014,-8.56686 -20.5558,-18.24839 -23.51866,-20.48432 -24.23399,-21.13879 -24.23399,-22.17238 0,-0.95212 1.29118,-2.74172 4.35402,-6.03477 3.40895,-3.66516 3.33815,-3.67995 10.05238,2.09932 2.9623,2.54979 11.91476,10.32736 19.89436,17.28348 19.16705,16.70866 19.42117,16.91789 20.5471,16.91789 0.72432,0 1.58091,-0.68627 3.78006,-3.02842 1.56393,-1.66563 2.93084,-2.88586 3.03756,-2.71162 0.33691,0.55006 4.18557,22.28541 4.238,23.93412 l 0.0501,1.57448 -1.39955,0.0488 c -0.76975,0.0268 -6.04428,-0.16876 -11.72118,-0.43462 z"
       id="path991" />
    <path
       style="fill:#000000;stroke:#000000;stroke-width:2.87226"
       d="m 147.83554,129.2766 c -12.16937,-2.31818 -21.88215,-9.7354 -26.96944,-20.59538 -2.40277,-5.12927 -2.95448,-7.91381 -2.95448,-14.91174 0,-7.266306 0.56742,-9.937783 3.30703,-15.569932 2.03198,-4.177405 4.25364,-7.185679 7.75187,-10.496584 4.54168,-4.298475 9.73211,-7.172562 15.88233,-8.794508 3.03551,-0.800526 4.1939,-0.922724 8.74716,-0.922724 4.55325,0 5.71165,0.122198 8.74715,0.922724 6.31324,1.664937 11.38869,4.516152 16.15141,9.073317 4.80107,4.593853 8.25099,10.364739 9.97793,16.690668 0.70504,2.582623 0.81189,3.779873 0.81189,9.097039 0,4.915158 -0.1308,6.60615 -0.66306,8.57221 -1.65999,6.13159 -4.55015,11.32573 -8.84768,15.90086 -4.7864,5.09556 -10.78192,8.66282 -17.36737,10.33336 -4.23963,1.07547 -10.92109,1.39669 -14.57474,0.70069 z"
       id="path993" />
  </g>
</svg>
