/* XPM */
static char *dummy[]={
"16 16 27 1",
". c None",
"a c #cb0000",
"# c #cc0000",
"w c #cf1818",
"b c #d01a1a",
"y c #d85151",
"d c #db5656",
"x c #df7676",
"c c #e07b7b",
"s c #e19090",
"e c #e49898",
"v c #ecb8b8",
"j c #ecbcbc",
"p c #f0f0f0",
"r c #f4f4f4",
"o c #f5f5f5",
"q c #f6f6f6",
"l c #f7f7f7",
"h c #f8f8f8",
"k c #f9f9f9",
"t c #faefef",
"u c #fbfbfb",
"f c #fcf3f3",
"g c #fcfcfc",
"m c #fdfdfd",
"n c #fefefe",
"i c #ffffff",
"....#......#....",
"...a#.....###...",
"...a##...###....",
"....#bc..d##....",
"....efg.hij.....",
".....kilmno.....",
"......niig......",
"......gin.......",
"......gin.......",
".....pniih......",
".....kiqgir.....",
"....stu.hnv.....",
"....#wx..ya#....",
"...###...###....",
"...##.....a##...",
"....a......#...."};
