<?xml version="1.0" encoding="utf-8"?>
<!-- Generator: Adobe Illustrator 16.0.4, SVG Export Plug-In . SVG Version: 6.00 Build 0)  -->
<!DOCTYPE svg PUBLIC "-//W3C//DTD SVG 1.1//EN" "http://www.w3.org/Graphics/SVG/1.1/DTD/svg11.dtd">
<svg version="1.1" id="Group_1_copy_1_" xmlns="http://www.w3.org/2000/svg" xmlns:xlink="http://www.w3.org/1999/xlink" x="0px"
	 y="0px" width="16px" height="16px" viewBox="0 0 16 16" style="enable-background:new 0 0 16 16;" xml:space="preserve">
<g style="fill:#bfbfbf;">
	<path d="M10,4c0-0.553-0.447-1-1-1H6C5.448,3,5,3.447,5,4L3,5v1h1h1h1h1h1h1h1h1h1V5L10,4z M8.5,5h-2C6.224,5,6,4.776,6,4.5
		S6.224,4,6.5,4h2C8.776,4,9,4.224,9,4.5S8.776,5,8.5,5z"/>
	<path d="M10,6.5V12H9V6.5H8V12H7V6.5H6V12H5V6.5H4V12c0,0.553,0.448,1,1,1h5c0.553,0,1-0.447,1-1V6.5H10z"/>
</g>
</svg>
