<?xml version="1.0" encoding="utf-8"?>
<!-- Generator: Adobe Illustrator 16.0.4, SVG Export Plug-In . SVG Version: 6.00 Build 0)  -->
<!DOCTYPE svg PUBLIC "-//W3C//DTD SVG 1.1//EN" "http://www.w3.org/Graphics/SVG/1.1/DTD/svg11.dtd">
<svg version="1.1" id="Layer_5" xmlns="http://www.w3.org/2000/svg" xmlns:xlink="http://www.w3.org/1999/xlink" x="0px" y="0px"
	 width="16px" height="16px" viewBox="0 0 16 16" style="enable-background:new 0 0 16 16;" xml:space="preserve">
<path style="fill:#bfbfbf;" d="M2,6v4h3l3,3V3L5,6H2z M10.121,5.878L9.414,6.585C9.776,6.948,10,7.448,10,8
	c0,0.553-0.224,1.053-0.586,1.414l0.707,0.707C10.664,9.579,11,8.829,11,8C11,7.171,10.664,6.421,10.121,5.878z M11.536,4.464
	l-0.707,0.708C11.553,5.895,12,6.896,12,8c0,1.105-0.447,2.105-1.171,2.829l0.707,0.707C12.44,10.632,13,9.382,13,8
	C13,6.619,12.44,5.369,11.536,4.464z"/>
</svg>
