/* XPM */
static char *dummy[]={
"16 16 32 1",
". c None",
"m c #625112",
"f c #646464",
"a c #707070",
"l c #736118",
"i c #957d1d",
"# c #999999",
"b c #9c9b95",
"e c #9f9c92",
"h c #a08723",
"o c #a5a08b",
"r c #aaa386",
"A c #aba384",
"z c #aca383",
"g c #afa580",
"D c #b0a67e",
"s c #b1a77e",
"u c #b2a77d",
"w c #b2a77e",
"k c #b3a87c",
"j c #b4a97b",
"t c #b5a97a",
"B c #b7aa77",
"n c #b8ab76",
"y c #baac74",
"x c #c4b269",
"C c #c5b368",
"v c #c6b368",
"q c #d9b830",
"p c #dab934",
"c c #ddc04e",
"d c #e2c349",
".......##.......",
".....######.....",
"....#######a....",
"....##bcde#f....",
"....##ghij#f....",
"....##klmn#f....",
"....##opqr#f....",
"....###st##f....",
"....#######f....",
"....#uvwxyzf....",
"....#######f....",
"....#ABCDvtf....",
"....#######f....",
"....#######f....",
"....#######f....",
"....#######f...."};
