<?xml version="1.0" encoding="UTF-8" standalone="no"?>
<!-- Created with Inkscape (http://www.inkscape.org/) -->

<svg
   xmlns:dc="http://purl.org/dc/elements/1.1/"
   xmlns:cc="http://creativecommons.org/ns#"
   xmlns:rdf="http://www.w3.org/1999/02/22-rdf-syntax-ns#"
   xmlns:svg="http://www.w3.org/2000/svg"
   xmlns="http://www.w3.org/2000/svg"
   xmlns:sodipodi="http://sodipodi.sourceforge.net/DTD/sodipodi-0.dtd"
   xmlns:inkscape="http://www.inkscape.org/namespaces/inkscape"
   height="22"
   id="svg2"
   inkscape:output_extension="org.inkscape.output.svg.inkscape"
   inkscape:version="0.91 r13725"
   sodipodi:docname="memorial.svg"
   sodipodi:version="0.32"
   version="1.0"
   width="22">
  <metadata
     id="metadata2975">
    <rdf:RDF>
      <cc:Work
         rdf:about="">
        <dc:format>image/svg+xml</dc:format>
        <dc:type
           rdf:resource="http://purl.org/dc/dcmitype/StillImage" />
        <cc:license
           rdf:resource="http://creativecommons.org/publicdomain/zero/1.0/" />
        <dc:language>en</dc:language>
        <dc:title />
        <dc:description>jfitie@gmail.com</dc:description>
      </cc:Work>
      <cc:License
         rdf:about="http://creativecommons.org/publicdomain/zero/1.0/">
        <cc:permits
           rdf:resource="http://creativecommons.org/ns#Reproduction" />
        <cc:permits
           rdf:resource="http://creativecommons.org/ns#Distribution" />
        <cc:permits
           rdf:resource="http://creativecommons.org/ns#DerivativeWorks" />
      </cc:License>
    </rdf:RDF>
  </metadata>
  <sodipodi:namedview
     bordercolor="#666666"
     borderopacity="1.0"
     gridtolerance="10.0"
     guidetolerance="10.0"
     id="base"
     inkscape:current-layer="svg2"
     inkscape:cx="52.0852"
     inkscape:cy="72.678004"
     inkscape:pageopacity="0"
     inkscape:pageshadow="2"
     inkscape:window-height="725"
     inkscape:window-maximized="0"
     inkscape:window-width="1024"
     inkscape:window-x="119"
     inkscape:window-y="146"
     inkscape:zoom="3.6867085"
     objecttolerance="10.0"
     pagecolor="#ff00ff"
     showgrid="false" />
  <defs
     id="defs4">
    <inkscape:perspective
       id="perspective2441"
       inkscape:persp3d-origin="290 : 193.33333 : 1"
       inkscape:vp_x="0 : 290 : 1"
       inkscape:vp_y="0 : 1000 : 0"
       inkscape:vp_z="580 : 290 : 1"
       sodipodi:type="inkscape:persp3d" />
    <inkscape:perspective
       id="perspective3452"
       inkscape:persp3d-origin="30 : 20 : 1"
       inkscape:vp_x="0 : 30 : 1"
       inkscape:vp_y="0 : 1000 : 0"
       inkscape:vp_z="60 : 30 : 1"
       sodipodi:type="inkscape:persp3d" />
    <symbol
       id="symbol-university"
       viewBox="244.5 110 489 219.9">
      <path
         d="m 79,43 57,119 c 0,0 21,-96 104,-96 83,0 124,106 124,106 L 407,39 489,22 0,17 79,43 Z"
         id="path4460"
         inkscape:connector-curvature="0" />
      <path
         d="M 94,176 73,215"
         id="path4462"
         inkscape:connector-curvature="0"
         style="fill:none;stroke:#000000;stroke-width:20" />
      <path
         d="M 300,19 C 300,29.5 277.4,38 249.5,38 221.6,38 199,29.5 199,19 199,8.5 221.6,0 249.5,0 277.4,0 300,8.5 300,19 Z"
         id="path4464"
         inkscape:connector-curvature="0" />
      <path
         d="M 112,216 96,178 64,88 C 64,88 55,80 60,53 65,26 76,29 76,29"
         id="path4466"
         ill="none"
         inkscape:connector-curvature="0"
         style="stroke:#000000;stroke-width:20" />
    </symbol>
    <inkscape:perspective
       id="perspective4471"
       inkscape:persp3d-origin="372.04724 : 350.78739 : 1"
       inkscape:vp_x="0 : 526.18109 : 1"
       inkscape:vp_y="0 : 1000 : 0"
       inkscape:vp_z="744.09448 : 526.18109 : 1"
       sodipodi:type="inkscape:persp3d" />
    <inkscape:perspective
       id="perspective4668"
       inkscape:persp3d-origin="6 : 4 : 1"
       inkscape:vp_x="0 : 6 : 1"
       inkscape:vp_y="0 : 1000 : 0"
       inkscape:vp_z="12 : 6 : 1"
       sodipodi:type="inkscape:persp3d" />
    <inkscape:perspective
       id="perspective4904"
       inkscape:persp3d-origin="16 : 10.666667 : 1"
       inkscape:vp_x="0 : 16 : 1"
       inkscape:vp_y="0 : 1000 : 0"
       inkscape:vp_z="32 : 16 : 1"
       sodipodi:type="inkscape:persp3d" />
    <marker
       id="Arrow2Lend"
       inkscape:stockid="Arrow2Lend"
       orient="auto"
       refX="0"
       refY="0"
       style="overflow:visible">
      <path
         d="M 8.7185878,4.0337352 -2.2072895,0.01601326 8.7185884,-4.0017078 c -1.7454984,2.3720609 -1.7354408,5.6174519 -6e-7,8.035443 z"
         id="path4137"
         style="font-size:12px;fill-rule:evenodd;stroke-width:0.625;stroke-linejoin:round"
         transform="matrix(-1.1,0,0,-1.1,-1.1,0)"
         inkscape:connector-curvature="0" />
    </marker>
    <marker
       id="Arrow1Mend"
       inkscape:stockid="Arrow1Mend"
       orient="auto"
       refX="0"
       refY="0"
       style="overflow:visible">
      <path
         d="M 0,0 5,-5 -12.5,0 5,5 0,0 Z"
         id="path4125"
         style="fill-rule:evenodd;stroke:#000000;stroke-width:1pt;marker-start:none"
         transform="matrix(-0.4,0,0,-0.4,-4,0)"
         inkscape:connector-curvature="0" />
    </marker>
    <marker
       id="TriangleOutL"
       inkscape:stockid="TriangleOutL"
       orient="auto"
       refX="0"
       refY="0"
       style="overflow:visible">
      <path
         d="m 5.77,0 -8.65,5 0,-10 8.65,5 z"
         id="path4214"
         style="fill-rule:evenodd;stroke:#000000;stroke-width:1pt;marker-start:none"
         transform="scale(0.8,0.8)"
         inkscape:connector-curvature="0" />
    </marker>
    <marker
       id="Arrow1Lend"
       inkscape:stockid="Arrow1Lend"
       orient="auto"
       refX="0"
       refY="0"
       style="overflow:visible">
      <path
         d="M 0,0 5,-5 -12.5,0 5,5 0,0 Z"
         id="path4119"
         style="fill-rule:evenodd;stroke:#000000;stroke-width:1pt;marker-start:none"
         transform="matrix(-0.8,0,0,-0.8,-10,0)"
         inkscape:connector-curvature="0" />
    </marker>
    <marker
       id="Tail"
       inkscape:stockid="Tail"
       orient="auto"
       refX="0"
       refY="0"
       style="overflow:visible">
      <g
         id="g4152"
         transform="scale(-1.2,-1.2)">
        <path
           d="M -3.8048674,-3.9585227 0.54352094,0"
           id="path4154"
           style="fill:none;fill-rule:evenodd;stroke:#000000;stroke-width:0.80000001;stroke-linecap:round;marker-start:none;marker-end:none"
           inkscape:connector-curvature="0" />
        <path
           d="M -1.2866832,-3.9585227 3.0617053,0"
           id="path4156"
           style="fill:none;fill-rule:evenodd;stroke:#000000;stroke-width:0.80000001;stroke-linecap:round;marker-start:none;marker-end:none"
           inkscape:connector-curvature="0" />
        <path
           d="M 1.3053582,-3.9585227 5.6537466,0"
           id="path4158"
           style="fill:none;fill-rule:evenodd;stroke:#000000;stroke-width:0.80000001;stroke-linecap:round;marker-start:none;marker-end:none"
           inkscape:connector-curvature="0" />
        <path
           d="M -3.8048674,4.1775838 0.54352094,0.21974226"
           id="path4160"
           style="fill:none;fill-rule:evenodd;stroke:#000000;stroke-width:0.80000001;stroke-linecap:round;marker-start:none;marker-end:none"
           inkscape:connector-curvature="0" />
        <path
           d="M -1.2866832,4.1775838 3.0617053,0.21974226"
           id="path4162"
           style="fill:none;fill-rule:evenodd;stroke:#000000;stroke-width:0.80000001;stroke-linecap:round;marker-start:none;marker-end:none"
           inkscape:connector-curvature="0" />
        <path
           d="M 1.3053582,4.1775838 5.6537466,0.21974226"
           id="path4164"
           style="fill:none;fill-rule:evenodd;stroke:#000000;stroke-width:0.80000001;stroke-linecap:round;marker-start:none;marker-end:none"
           inkscape:connector-curvature="0" />
      </g>
    </marker>
    <marker
       id="Arrow1Sstart"
       inkscape:stockid="Arrow1Sstart"
       orient="auto"
       refX="0"
       refY="0"
       style="overflow:visible">
      <path
         d="M 0,0 5,-5 -12.5,0 5,5 0,0 Z"
         id="path4128"
         style="fill-rule:evenodd;stroke:#000000;stroke-width:1pt;marker-start:none"
         transform="matrix(0.2,0,0,0.2,1.2,0)"
         inkscape:connector-curvature="0" />
    </marker>
    <marker
       id="Arrow1Send"
       inkscape:stockid="Arrow1Send"
       orient="auto"
       refX="0"
       refY="0"
       style="overflow:visible">
      <path
         d="M 0,0 5,-5 -12.5,0 5,5 0,0 Z"
         id="path4131"
         style="fill-rule:evenodd;stroke:#000000;stroke-width:1pt;marker-start:none"
         transform="matrix(-0.2,0,0,-0.2,-1.2,0)"
         inkscape:connector-curvature="0" />
    </marker>
    <marker
       id="SemiCircleOut"
       inkscape:stockid="SemiCircleOut"
       orient="auto"
       refX="0"
       refY="0"
       style="overflow:visible">
      <path
         d="m -2.5,-0.80913858 c 0,2.75999998 -2.24,4.99999998 -5,4.99999998 l 0,-10 c 2.76,0 5,2.24 5,5.00000002 z"
         id="path4235"
         style="fill-rule:evenodd;stroke:#000000;stroke-width:1pt;marker-start:none;marker-end:none"
         transform="matrix(0.6,0,0,0.6,4.2752958,0.4580676)"
         inkscape:connector-curvature="0" />
    </marker>
    <marker
       id="Arrow2Send"
       inkscape:stockid="Arrow2Send"
       orient="auto"
       refX="0"
       refY="0"
       style="overflow:visible">
      <path
         d="M 8.7185878,4.0337352 -2.2072895,0.01601326 8.7185884,-4.0017078 c -1.7454984,2.3720609 -1.7354408,5.6174519 -6e-7,8.035443 z"
         id="path4149"
         style="font-size:12px;fill-rule:evenodd;stroke-width:0.625;stroke-linejoin:round"
         transform="matrix(-0.3,0,0,-0.3,0.69,0)"
         inkscape:connector-curvature="0" />
    </marker>
    <marker
       id="TriangleOutS"
       inkscape:stockid="TriangleOutS"
       orient="auto"
       refX="0"
       refY="0"
       style="overflow:visible">
      <path
         d="m 5.77,0 -8.65,5 0,-10 8.65,5 z"
         id="path4220"
         style="fill-rule:evenodd;stroke:#000000;stroke-width:1pt;marker-start:none"
         transform="scale(0.2,0.2)"
         inkscape:connector-curvature="0" />
    </marker>
    <marker
       id="CurveIn"
       inkscape:stockid="CurveIn"
       orient="auto"
       refX="0"
       refY="0"
       style="overflow:visible">
      <path
         d="m 4.625493,-5.0456926 c -2.76,0 -5.00000002,2.24 -5.00000002,5.00000002 0,2.75999998 2.24000002,4.99999998 5.00000002,4.99999998"
         id="path4238"
         style="fill:none;fill-rule:evenodd;stroke:#000000;stroke-width:1pt;marker-start:none;marker-end:none"
         transform="scale(0.6,0.6)"
         inkscape:connector-curvature="0" />
    </marker>
    <marker
       id="InfiniteLineStart"
       inkscape:stockid="InfiniteLineStart"
       orient="auto"
       refX="0"
       refY="0"
       style="overflow:visible">
      <g
         id="g4298"
         transform="translate(-13,0)">
        <circle
           cx="3"
           cy="0"
           id="circle4300"
           r="0.80000001" />
        <circle
           cx="6.5"
           cy="0"
           id="circle4302"
           r="0.80000001" />
        <circle
           cx="10"
           cy="0"
           id="circle4304"
           r="0.80000001" />
      </g>
    </marker>
    <marker
       id="StopS"
       inkscape:stockid="StopS"
       orient="auto"
       refX="0"
       refY="0"
       style="overflow:visible">
      <path
         d="M 0,5.65 0,-5.65"
         id="path4229"
         style="fill:none;fill-opacity:0.75;fill-rule:evenodd;stroke:#000000;stroke-width:1pt"
         transform="scale(0.2,0.2)"
         inkscape:connector-curvature="0" />
    </marker>
    <marker
       id="Arrow2Sstart"
       inkscape:stockid="Arrow2Sstart"
       orient="auto"
       refX="0"
       refY="0"
       style="overflow:visible">
      <path
         d="M 8.7185878,4.0337352 -2.2072895,0.01601326 8.7185884,-4.0017078 c -1.7454984,2.3720609 -1.7354408,5.6174519 -6e-7,8.035443 z"
         id="path4146"
         style="font-size:12px;fill-rule:evenodd;stroke-width:0.625;stroke-linejoin:round"
         transform="matrix(0.3,0,0,0.3,-0.69,0)"
         inkscape:connector-curvature="0" />
    </marker>
    <marker
       id="DiamondS"
       inkscape:stockid="DiamondS"
       orient="auto"
       refX="0"
       refY="0"
       style="overflow:visible">
      <path
         d="M 0,-7.0710768 -7.0710894,0 0,7.0710589 7.0710462,0 0,-7.0710768 Z"
         id="path4202"
         style="fill-rule:evenodd;stroke:#000000;stroke-width:1pt;marker-start:none"
         transform="scale(0.2,0.2)"
         inkscape:connector-curvature="0" />
    </marker>
    <marker
       id="RazorWire"
       inkscape:stockid="RazorWire"
       orient="auto"
       refX="0"
       refY="0">
       style=&quot;overflow:visible&quot;&gt;
      <path
   d="m 0.02272727,-0.74009011 0,1.4375 -7.78124997,2.31250001 18.4374997,0 -7.1874997,-2.31250001 0,-1.4375 7.2499997,-2.15624999 -18.4687497,0 7.74999997,2.15624999 z"
   id="path4286"
   style="fill:#808080;fill-opacity:1;fill-rule:evenodd;stroke:#000000;stroke-width:0.1pt"
   transform="scale(0.8,0.8)"
   inkscape:connector-curvature="0" />
</marker>
    <inkscape:perspective
       id="perspective5233"
       inkscape:persp3d-origin="16 : 10.666667 : 1"
       inkscape:vp_x="0 : 16 : 1"
       inkscape:vp_y="0 : 1000 : 0"
       inkscape:vp_z="32 : 16 : 1"
       sodipodi:type="inkscape:persp3d" />
    <inkscape:perspective
       id="perspective5412"
       inkscape:persp3d-origin="250 : 166.66667 : 1"
       inkscape:vp_x="0 : 250 : 1"
       inkscape:vp_y="0 : 1000 : 0"
       inkscape:vp_z="500 : 250 : 1"
       sodipodi:type="inkscape:persp3d" />
    <inkscape:perspective
       id="perspective5571"
       inkscape:persp3d-origin="202.85715 : 136.19048 : 1"
       inkscape:vp_x="0 : 204.28572 : 1"
       inkscape:vp_y="0 : 1000 : 0"
       inkscape:vp_z="405.71429 : 204.28572 : 1"
       sodipodi:type="inkscape:persp3d" />
    <inkscape:perspective
       id="perspective6552"
       inkscape:persp3d-origin="64 : 42.666667 : 1"
       inkscape:vp_x="0 : 64 : 1"
       inkscape:vp_y="0 : 1000 : 0"
       inkscape:vp_z="128 : 64 : 1"
       sodipodi:type="inkscape:persp3d" />
  </defs>
  <g
     id="g4445"
     style="stroke:none"
     transform="matrix(0.22,0,0,0.22,0.58000002,-1.0305571e-7)">
    <g
       id="g4442"
       style="stroke:none">
      <path
         style="color:#000000;font-style:normal;font-variant:normal;font-weight:normal;font-stretch:normal;font-size:medium;line-height:normal;font-family:'Bitstream Vera Sans';-inkscape-font-specification:'Bitstream Vera Sans';text-indent:0;text-align:start;text-decoration:none;text-decoration-line:none;letter-spacing:normal;word-spacing:normal;text-transform:none;direction:ltr;block-progression:tb;writing-mode:lr-tb;text-anchor:start;display:inline;overflow:visible;visibility:visible;opacity:1;fill:#ffffff;fill-opacity:1;stroke:none;stroke-width:25;stroke-miterlimit:4;stroke-dasharray:none;marker:none;enable-background:accumulate"
         d="M 68.956109,0.02849391 C 53.245645,1.207999 37.211889,-1.2571768 21.675974,1.1770927 13.091179,5.4156279 15.269088,16.442169 15.378102,24.162597 c -0.250529,16.952922 0.370917,34.350049 -0.284336,51.031438 -4.905411,5.619262 -4.751633,14.237066 -2.906304,20.984165 3.946361,6.55084 11.984632,2.523485 18.516812,3.283368 l 56.014517,0 C 88.871357,96.003023 88.923864,92.035 88.831953,88.300199 88.893949,80.664267 88.622519,79.53015 86.135059,78.07262 80.901849,71.043543 84.612399,64.166304 83.106484,56.023813 82.693034,39.38013 84.568244,22.406674 81.903955,5.9667882 79.554761,1.2564334 73.821241,-0.23187199 68.956109,0.02849391 Z"
         id="path3585"
         inkscape:connector-curvature="0"
         sodipodi:nodetypes="cccccccccccc" />
    </g>
  </g>
  <path
     d="m 6.2531038,0.8643129 c -0.601011,0 -1.111362,0.511576 -1.111362,1.112587 l 0,14.5861621 c 0.0023,0.05665 12.8471352,0.03081 12.8449942,0 l 0,-14.5861621 c 0,-0.601011 -0.511578,-1.112587 -1.112588,-1.112587 l -10.6210442,0 z m 2.190866,1.04397 c 0.04507,1e-6 0.08383,0.0167 0.115179,0.05024 0.03135,0.03354 0.04656,0.07826 0.04656,0.134784 0,0.05653 -0.01521,0.100701 -0.04656,0.13356 -0.03135,0.03286 -0.07011,0.05024 -0.115179,0.05024 -0.0451,2e-6 -0.08263,-0.01738 -0.113955,-0.05024 -0.03132,-0.03286 -0.04779,-0.07702 -0.04779,-0.13356 0,-0.05653 0.01646,-0.101241 0.04779,-0.134784 0.03133,-0.03354 0.06885,-0.05024 0.113955,-0.05024 z m 2.5682632,0.0025 c 0.04507,10e-7 0.08261,0.0167 0.113955,0.05024 0.03135,0.03354 0.04779,0.07825 0.04779,0.134784 0,0.05653 -0.01644,0.101927 -0.04779,0.134785 -0.03135,0.03286 -0.06888,0.04902 -0.113955,0.04902 -0.0451,2e-6 -0.08385,-0.01615 -0.115179,-0.04902 -0.02185,-0.02292 -0.03505,-0.05256 -0.04166,-0.087 -0.0031,0.01155 -0.0069,0.02314 -0.01226,0.03676 -0.0132,0.03352 -0.03058,0.06742 -0.05146,0.102927 -0.01758,-0.01184 -0.03989,-0.02428 -0.06739,-0.03676 -0.0275,-0.01248 -0.05768,-0.01838 -0.09068,-0.01838 -0.02859,1e-6 -0.05251,0.0093 -0.07229,0.02696 -0.01979,0.01774 -0.03063,0.04517 -0.03063,0.08332 l 0,0.04779 0.245062,0 0,0.294076 -0.245062,0 0,0.657994 -0.32716,0 0,-0.942268 c 0,-0.01709 -5.51e-4,-0.04084 0,-0.07107 5.51e-4,-0.03023 0.0027,-0.05511 0.0049,-0.07352 0.0143,-0.10648 0.05171,-0.186722 0.112729,-0.242612 0.06103,-0.05589 0.145997,-0.08455 0.254866,-0.08455 0.02201,10e-7 0.0451,0.0016 0.06985,0.0049 0.02473,0.0032 0.04921,0.0081 0.07229,0.0147 0.0396,0.01184 0.07311,0.03024 0.101701,0.05391 0.01655,0.0137 0.02734,0.03096 0.03431,0.05146 0.0065,-0.03525 0.02071,-0.06448 0.04289,-0.08822 0.03133,-0.03354 0.07007,-0.05024 0.115179,-0.05024 z m -0.158066,0.13846 c -0.0027,0.01456 -0.0036,0.03004 -0.0036,0.04656 0,0.0171 0.0021,0.03286 0.0049,0.04779 0.0046,-0.01686 0.0074,-0.03242 0.0074,-0.04411 0,-0.01882 -0.0035,-0.03532 -0.0086,-0.05024 z M 9.1338228,1.9193289 c 0.02202,10e-7 0.04633,0.0016 0.07107,0.0049 0.02473,0.0033 0.04798,0.0081 0.07107,0.0147 0.0396,0.01184 0.07433,0.02902 0.102927,0.05269 0.02859,0.02367 0.04288,0.05823 0.04288,0.102926 -10e-7,0.0197 -0.0064,0.04613 -0.01961,0.07965 -0.0132,0.03352 -0.03059,0.06864 -0.05146,0.104153 -0.01758,-0.01184 -0.03989,-0.02428 -0.06739,-0.03676 -0.0275,-0.01248 -0.05769,-0.01837 -0.09067,-0.01838 -0.02859,1e-6 -0.05374,0.008 -0.07352,0.02573 -0.01979,0.01774 -0.0294,0.04639 -0.0294,0.08455 l 0,0.04656 0.243837,0 0,0.294076 -0.243837,0 0,0.65922 -0.328386,0 0,-0.943493 c 0,-0.01709 6.89e-4,-0.03962 0.0012,-0.06985 5.51e-4,-0.03023 0.0014,-0.05511 0.0036,-0.07352 0.0143,-0.10648 0.0517,-0.187947 0.11273,-0.243838 0.06103,-0.05589 0.145996,-0.08331 0.254865,-0.08332 z m 0.417833,0.01348 c 0.02641,1e-6 0.05246,0.0027 0.0772,0.0086 0.02473,0.0059 0.04625,0.01674 0.06494,0.03185 0.01869,0.01513 0.03379,0.03553 0.04533,0.06249 0.01155,0.02697 0.01715,0.06211 0.01715,0.104152 l 0,1.182429 c -0.04508,0.01709 -0.08488,0.02574 -0.120081,0.02574 -0.05057,0 -0.08959,-0.0076 -0.11763,-0.02206 -0.02804,-0.01446 -0.04875,-0.03269 -0.06249,-0.05637 -0.01374,-0.02367 -0.02176,-0.0512 -0.02451,-0.08209 -0.0027,-0.03089 -0.0049,-0.06384 -0.0049,-0.09803 l 0,-1.14322 c 0.01319,-0.0013 0.02737,-0.0035 0.04166,-0.0061 0.01208,-0.0027 0.02558,-0.0048 0.04043,-0.0061 0.01485,-0.0013 0.02859,-0.0012 0.04288,-0.0012 z m -2.151656,0.02574 c 0.02641,10e-7 0.05124,0.0027 0.07597,0.0086 0.02474,0.0059 0.04625,0.01674 0.06494,0.03185 0.01869,0.01513 0.03502,0.03553 0.04656,0.0625 0.01155,0.02696 0.01716,0.0621 0.01716,0.104152 l 0,0.634713 c 0.0055,-0.02889 0.01363,-0.0575 0.02574,-0.08577 0.0121,-0.02826 0.02787,-0.05568 0.04656,-0.08332 l 0.08945,-0.136009 c 0.02088,-0.03154 0.04331,-0.05909 0.06862,-0.08209 0.0253,-0.02301 0.06019,-0.03431 0.104153,-0.03431 0.0253,0 0.05055,0.0037 0.07474,0.01226 0.02419,0.0085 0.04503,0.01767 0.06372,0.02818 0.02087,0.01184 0.04012,0.02595 0.05882,0.04044 l -0.225459,0.378598 0.267119,0.486451 c -0.07259,0.03546 -0.139253,0.05392 -0.199726,0.05392 -0.05168,0 -0.09161,-0.01196 -0.121307,-0.03431 -0.0297,-0.02235 -0.05644,-0.05031 -0.07842,-0.08577 l -0.105384,-0.176452 c -0.01869,-0.03021 -0.0331,-0.05825 -0.04411,-0.08455 -0.01101,-0.0263 -0.019,-0.05536 -0.02451,-0.08822 l 0,0.44724 -0.330835,0 0,-1.384607 c 0.01319,-0.0013 0.02737,-0.0035 0.04166,-0.0061 0.01208,-0.0027 0.02558,-0.0035 0.04043,-0.0049 0.01485,-0.0013 0.02982,-0.0025 0.04411,-0.0025 z m -0.491352,0.01715 c 0.02641,10e-7 0.05124,0.0039 0.07597,0.0098 0.02474,0.0059 0.04748,0.01551 0.06617,0.03063 0.01869,0.01513 0.03379,0.03676 0.04534,0.06372 0.01154,0.02696 0.01716,0.06088 0.01716,0.102926 l 0,1.183655 c -0.04507,0.01709 -0.0861,0.02573 -0.121307,0.02573 -0.05057,0 -0.08959,-0.0075 -0.11763,-0.02206 -0.02804,-0.01446 -0.04875,-0.03269 -0.06249,-0.05637 -0.01374,-0.02367 -0.02176,-0.0512 -0.02451,-0.08209 -0.0028,-0.03089 -0.0037,-0.06384 -0.0037,-0.09802 l 0,-1.14322 c 0.01319,-0.0013 0.02614,-0.0035 0.04044,-0.0061 0.01208,-0.0027 0.02558,-0.0048 0.04044,-0.0061 0.01485,-0.0013 0.02981,-0.0025 0.04411,-0.0025 z m 6.3655192,0.0025 c 0.02202,10e-7 0.04511,0.0016 0.06985,0.0049 0.02473,0.0033 0.04921,0.0081 0.07229,0.0147 0.0396,0.01184 0.07311,0.03024 0.101702,0.05391 0.02145,0.01775 0.03507,0.04026 0.04044,0.06985 l 0,-0.111504 c 0.01319,-0.0013 0.02737,-0.0035 0.04166,-0.0061 0.01208,-0.0027 0.02558,-0.0048 0.04044,-0.0061 0.01485,-0.0013 0.02982,-0.0025 0.04411,-0.0025 0.02641,2e-6 0.05123,0.0027 0.07597,0.0086 0.02473,0.0059 0.04625,0.01673 0.06494,0.03185 0.01869,0.01513 0.03379,0.03676 0.04533,0.06372 0.01155,0.02696 0.01715,0.06088 0.01715,0.102927 l 0,1.183655 c -0.04508,0.01709 -0.08488,0.02573 -0.120082,0.02573 -0.05057,0 -0.08959,-0.0075 -0.117631,-0.02206 -0.02803,-0.01446 -0.04875,-0.03392 -0.06249,-0.05759 -0.01375,-0.02367 -0.02175,-0.04998 -0.02451,-0.08087 -0.0028,-0.03089 -0.0049,-0.06384 -0.0049,-0.09802 l 0,-0.977802 c -0.0029,0.01628 -0.0083,0.03507 -0.01715,0.05759 -0.0132,0.03352 -0.03058,0.06864 -0.05146,0.104151 -0.01758,-0.01184 -0.03989,-0.02428 -0.06739,-0.03676 -0.0275,-0.01248 -0.05768,-0.01838 -0.09068,-0.01838 -0.02859,1e-6 -0.05251,0.0093 -0.07229,0.02696 -0.01979,0.01774 -0.02941,0.04517 -0.02941,0.08333 l 0,0.04779 0.243838,0 0,0.292851 -0.243838,0 0,0.65922 -0.328386,0 0,-0.942268 c 0,-0.01709 -5.51e-4,-0.04084 0,-0.07107 5.51e-4,-0.03023 0.0027,-0.0551 0.0049,-0.07352 0.0143,-0.106481 0.0517,-0.187948 0.112729,-0.243838 0.06103,-0.05589 0.145997,-0.08331 0.254866,-0.08332 z m 0.284274,0.197276 c 0.0014,-0.0079 0.0025,-0.01559 0.0025,-0.02206 0,-0.01118 -6.66e-4,-0.02201 -0.0025,-0.03185 l 0,0.05391 z m 1.819595,-0.196051 c 0.02201,2e-6 0.0451,0.0016 0.06985,0.0049 0.02473,0.0033 0.04921,0.0081 0.07229,0.0147 0.03961,0.01183 0.07311,0.03024 0.101701,0.05391 0.02859,0.02367 0.04288,0.05823 0.04288,0.102926 -10e-7,0.0197 -0.0064,0.04613 -0.0196,0.07965 -0.0132,0.03352 -0.03059,0.06742 -0.05146,0.102927 -0.01758,-0.01184 -0.03989,-0.02305 -0.06739,-0.03554 -0.0275,-0.01248 -0.05768,-0.0196 -0.09067,-0.0196 -0.02859,0 -0.05251,0.0093 -0.07229,0.02696 -0.01979,0.01774 -0.02941,0.04517 -0.02941,0.08332 l 0,0.04779 0.243837,0 0,0.294076 -0.243837,0 0,0.657994 -0.328385,0 0,-0.942267 c 0,-0.01709 -5.51e-4,-0.04084 0,-0.07107 5.51e-4,-0.03023 0.0027,-0.05388 0.0049,-0.07229 0.0143,-0.106481 0.0517,-0.187948 0.112728,-0.243838 0.06103,-0.05589 0.145997,-0.08455 0.254866,-0.08455 z m -2.791271,0.0025 c 0.02638,2e-6 0.05244,0.0027 0.0772,0.0086 0.02475,0.0059 0.04625,0.01673 0.06494,0.03185 0.01869,0.01513 0.03379,0.03553 0.04533,0.0625 0.01155,0.02696 0.01715,0.0621 0.01715,0.104153 l 0,1.191006 -0.247514,0 c -0.01652,0 -0.03093,-0.0055 -0.04411,-0.0147 -0.01319,-0.0093 -0.01961,-0.02861 -0.01961,-0.05881 -0.01541,0.02363 -0.03998,0.04587 -0.07352,0.06494 -0.03354,0.01908 -0.07563,0.02818 -0.126207,0.02818 -0.03738,0 -0.07399,-0.0075 -0.110279,-0.02206 -0.03629,-0.01446 -0.06889,-0.03982 -0.09802,-0.07596 -0.02912,-0.03615 -0.05291,-0.08582 -0.07107,-0.148264 -0.01815,-0.06245 -0.02696,-0.140574 -0.02696,-0.23526 0,-0.09465 0.0074,-0.174423 0.02451,-0.240162 0.01705,-0.06574 0.04003,-0.119773 0.06862,-0.160517 0.02859,-0.04074 0.06187,-0.06981 0.09925,-0.08822 0.03738,-0.01841 0.07692,-0.02818 0.11763,-0.02818 0.02637,10e-7 0.05017,0.0045 0.07107,0.01103 0.02089,0.0066 0.03784,0.01351 0.05268,0.02206 0.01485,0.0085 0.02742,0.01718 0.03676,0.02574 0.0094,0.0085 0.01509,0.01445 0.01839,0.01838 l 0,-0.482774 c 0.01323,-0.0013 0.0274,-0.0035 0.04166,-0.0061 0.01211,-0.0027 0.02491,-0.0048 0.0392,-0.0061 0.0143,-0.0013 0.02859,-0.0012 0.04288,-0.0012 z m 1.557378,0.01348 c 0.02641,2e-6 0.05246,0.0027 0.0772,0.0086 0.02473,0.0059 0.04625,0.01673 0.06494,0.03185 0.01869,0.01513 0.03379,0.03676 0.04533,0.06372 0.01154,0.02697 0.01715,0.06088 0.01715,0.102926 l 0,0.634714 c 0.0055,-0.02889 0.01486,-0.0575 0.02696,-0.08577 0.0121,-0.02826 0.02787,-0.05568 0.04656,-0.08332 l 0.08822,-0.13601 c 0.02088,-0.03153 0.04454,-0.05909 0.06985,-0.08209 0.0253,-0.023 0.06019,-0.03431 0.104153,-0.03431 0.02531,0 0.04932,0.005 0.07352,0.01348 0.02419,0.0085 0.04625,0.01767 0.06494,0.02818 0.02088,0.01184 0.04012,0.02472 0.05881,0.03921 l -0.225458,0.378623 0.267118,0.487676 c -0.07259,0.03547 -0.139252,0.05269 -0.199726,0.05269 -0.05168,0 -0.09283,-0.01074 -0.122532,-0.03308 -0.0297,-0.02235 -0.05521,-0.05153 -0.0772,-0.087 l -0.105377,-0.175289 c -0.01869,-0.03021 -0.0331,-0.05947 -0.04411,-0.08577 -0.01101,-0.0263 -0.02023,-0.05536 -0.02574,-0.08822 l 0,0.44724 -0.32961,0 0,-1.383382 c 0.01319,-0.0013 0.02737,-0.0035 0.04166,-0.0061 0.01208,-0.0027 0.02558,-0.0048 0.04043,-0.0061 0.01485,-0.0013 0.02859,-0.0025 0.04288,-0.0025 z m 2.109994,0 c 0.02637,2e-6 0.05244,0.0027 0.0772,0.0086 0.02475,0.0059 0.04625,0.01673 0.06494,0.03185 0.01869,0.01513 0.03379,0.03676 0.04533,0.06372 0.01154,0.02697 0.01715,0.06088 0.01715,0.102926 l 0,1.191008 -0.247514,0 c -0.01652,0 -0.03093,-0.0043 -0.04411,-0.01348 -0.01319,-0.0092 -0.01961,-0.0286 -0.01961,-0.05881 -0.01541,0.02363 -0.03998,0.04464 -0.07352,0.06372 -0.03354,0.01907 -0.07563,0.02818 -0.126208,0.02818 -0.03738,0 -0.07398,-0.0064 -0.110278,-0.02083 -0.03629,-0.01446 -0.06889,-0.03983 -0.09803,-0.07596 -0.02913,-0.03615 -0.05291,-0.08582 -0.07107,-0.148264 -0.01816,-0.06245 -0.02696,-0.140575 -0.02696,-0.235261 0,-0.09465 0.0074,-0.175648 0.02451,-0.241387 0.01705,-0.06574 0.04003,-0.118547 0.06862,-0.159291 0.02859,-0.04074 0.06187,-0.06981 0.09925,-0.08822 0.03738,-0.01841 0.07692,-0.02818 0.11763,-0.02818 0.02637,0 0.05017,0.0032 0.07107,0.0098 0.02088,0.0066 0.03784,0.01474 0.05269,0.02328 0.01485,0.0085 0.02741,0.01718 0.03676,0.02573 0.0094,0.0085 0.01509,0.01445 0.01838,0.01838 l 0,-0.482775 c 0.01322,-0.0013 0.0274,-0.0035 0.04166,-0.0061 0.01211,-0.0027 0.02491,-0.0048 0.0392,-0.0061 0.01429,-0.0013 0.02859,-0.0025 0.04288,-0.0025 z m -4.658653,0.384747 c 0.09018,1e-6 0.1694,0.01615 0.236486,0.04901 0.02967,0.01448 0.05427,0.03231 0.07352,0.05269 0.01925,0.02038 0.02818,0.04469 0.02819,0.07229 0,0.02363 -0.0057,0.05167 -0.01838,0.08455 -0.01263,0.03288 -0.0291,0.0641 -0.04779,0.09435 -0.03303,-0.03025 -0.06665,-0.05446 -0.102926,-0.07352 -0.03627,-0.01905 -0.07412,-0.02818 -0.111503,-0.02818 -0.04728,2e-6 -0.07107,0.01615 -0.07107,0.04901 0,0.02102 0.0094,0.03662 0.02696,0.04779 0.01758,0.01118 0.03978,0.0203 0.06617,0.02818 0.02639,0.0079 0.05498,0.01709 0.08577,0.02696 0.03078,0.0099 0.05937,0.02439 0.08577,0.04411 0.02639,0.01972 0.04856,0.04669 0.06617,0.08087 0.0176,0.03418 0.02574,0.07958 0.02574,0.134786 -1e-6,0.105197 -0.03099,0.188741 -0.09313,0.251189 -0.06213,0.06245 -0.152027,0.09435 -0.270795,0.09435 -0.0682,0 -0.121352,-0.0072 -0.159291,-0.01961 -0.03795,-0.0125 -0.06869,-0.02483 -0.09068,-0.03798 -0.02859,-0.01709 -0.04782,-0.03599 -0.05881,-0.05637 -0.01099,-0.02038 -0.01593,-0.04137 -0.01593,-0.06372 0,-0.03418 0.0058,-0.06761 0.01961,-0.100476 0.01374,-0.03286 0.0302,-0.06526 0.04778,-0.0968 0.01319,0.01444 0.02829,0.02794 0.04533,0.04044 0.01705,0.01249 0.03534,0.0238 0.05514,0.03431 0.0198,0.01051 0.04037,0.01859 0.06127,0.0245 0.02088,0.0059 0.04023,0.0086 0.06004,0.0086 0.02859,10e-7 0.04917,-0.0048 0.06126,-0.01593 0.0121,-0.01118 0.01838,-0.02579 0.01838,-0.04289 0,-0.01974 -0.0088,-0.03595 -0.02696,-0.04779 -0.01816,-0.01184 -0.041,-0.02144 -0.06739,-0.03063 -0.02639,-0.0092 -0.05512,-0.02002 -0.087,-0.03185 -0.03188,-0.01184 -0.06061,-0.02863 -0.087,-0.04901 -0.02639,-0.02038 -0.04926,-0.04735 -0.06739,-0.08087 -0.01814,-0.03352 -0.02696,-0.07719 -0.02696,-0.131108 0,-0.05256 0.0095,-0.0978 0.02819,-0.137235 0.01869,-0.03944 0.04341,-0.07239 0.07474,-0.09803 0.03133,-0.02564 0.06714,-0.04509 0.107828,-0.05759 0.04069,-0.01249 0.08355,-0.01838 0.128658,-0.01838 z m -3.1809212,0.0012 c 0.02641,10e-7 0.05246,0.0027 0.07719,0.0086 0.02474,0.0059 0.04625,0.01675 0.06494,0.03185 0.01869,0.01511 0.03379,0.03553 0.04534,0.0625 0.01154,0.02696 0.01716,0.06211 0.01716,0.104152 l 0,0.69843 c 0,0.02892 -0.0014,0.06387 -0.0036,0.106603 -0.0022,0.04273 -0.007,0.081 -0.01471,0.115179 -0.01212,0.0526 -0.03108,0.09685 -0.05636,0.132334 -0.02529,0.03549 -0.0532,0.06407 -0.08455,0.08577 -0.03134,0.02171 -0.06246,0.03737 -0.09435,0.04656 -0.03188,0.0092 -0.06023,0.01348 -0.08332,0.01348 -0.04728,-1e-6 -0.08093,-0.01018 -0.102926,-0.03185 -0.022,-0.02169 -0.03765,-0.05348 -0.04534,-0.09557 -0.0033,-0.01709 -0.0057,-0.03486 -0.0074,-0.05392 -0.0017,-0.01905 -0.0039,-0.04556 -0.0061,-0.07842 0.03521,-0.0039 0.06377,-0.01144 0.08577,-0.02328 0.022,-0.01184 0.03937,-0.02692 0.05146,-0.04533 0.0121,-0.01841 0.02011,-0.04063 0.02451,-0.06494 0.0044,-0.02431 0.0074,-0.05072 0.0074,-0.07965 l 0,-0.918988 c 0.01319,-0.0013 0.02614,-0.0035 0.04043,-0.0061 0.01208,-0.0027 0.02558,-0.0048 0.04043,-0.0061 0.01485,-0.0013 0.02982,-0.0012 0.04411,-0.0012 z m 2.5682632,0.0025 c 0.02641,10e-7 0.05123,0.0027 0.07597,0.0086 0.02473,0.0059 0.04625,0.01675 0.06494,0.03186 0.01869,0.0151 0.03379,0.03676 0.04533,0.06372 0.01155,0.02696 0.01838,0.06088 0.01838,0.102926 l 0,0.69843 c -10e-7,0.02892 -0.0014,0.0651 -0.0036,0.107828 -0.0022,0.04273 -0.007,0.081 -0.01471,0.11518 -0.01211,0.0526 -0.03108,0.09685 -0.05637,0.132334 -0.02529,0.03549 -0.05321,0.06407 -0.08455,0.08577 -0.03135,0.02171 -0.0637,0.03615 -0.09558,0.04533 -0.03188,0.0092 -0.05901,0.0147 -0.08209,0.0147 -0.04728,0 -0.08215,-0.0114 -0.104152,-0.03308 -0.02199,-0.02169 -0.03643,-0.05349 -0.04411,-0.09558 -0.0033,-0.01709 -0.0057,-0.03486 -0.0074,-0.05391 -0.0016,-0.01905 -0.0039,-0.04556 -0.0061,-0.07842 0.0352,-0.0039 0.06377,-0.01145 0.08577,-0.02328 0.02199,-0.01184 0.03937,-0.02692 0.05146,-0.04533 0.0121,-0.01841 0.02011,-0.0394 0.02451,-0.06372 0.0044,-0.02431 0.0061,-0.05195 0.0061,-0.08087 l 0,-0.918988 c 0.01319,-0.0013 0.02737,-0.0023 0.04166,-0.0049 0.01208,-0.0027 0.02558,-0.0048 0.04044,-0.0061 0.01485,-0.0013 0.02982,-0.0025 0.04411,-0.0025 z m 1.425043,0.307555 c -0.03738,1e-6 -0.06346,0.01938 -0.0772,0.05881 -0.01375,0.03944 -0.02084,0.09338 -0.02084,0.161742 0,0.03154 0.0016,0.06126 0.0049,0.08822 0.0033,0.02697 0.0089,0.05069 0.01715,0.07107 0.0082,0.02038 0.01989,0.03595 0.03308,0.04779 0.01319,0.01184 0.02921,0.01838 0.04901,0.01838 0.01319,0 0.02416,-0.0017 0.03185,-0.0036 0.0077,-0.002 0.01261,-0.0035 0.01593,-0.0049 l 0,-0.42396 c -0.0066,-0.0053 -0.01527,-0.0091 -0.02573,-0.01103 -0.01046,-0.002 -0.0194,-0.0025 -0.02819,-0.0025 z m 3.653894,0.0147 c -0.03013,0.0043 -0.05169,0.0243 -0.06372,0.05881 -0.01375,0.03944 -0.02083,0.09338 -0.02083,0.161742 0,0.03154 0.0016,0.06003 0.0049,0.087 0.0033,0.02696 0.0089,0.05069 0.01715,0.07107 0.0082,0.02038 0.01989,0.03718 0.03309,0.04901 0.01319,0.01184 0.02921,0.01715 0.04901,0.01715 0.01319,0 0.02416,-4.6e-4 0.03185,-0.0025 0.0077,-0.002 0.01261,-0.0035 0.01593,-0.0049 l 0,-0.423959 c -0.0066,-0.0053 -0.01527,-0.0091 -0.02574,-0.01103 -0.01046,-0.002 -0.01939,-0.0025 -0.02818,-0.0025 -0.0047,0 -0.0092,-6.2e-4 -0.01348,0 z m -6.8924052,1.192237 c 0.02641,2e-6 0.05124,0.0039 0.07597,0.0098 0.02474,0.0059 0.04748,0.01551 0.06617,0.03063 0.01869,0.01513 0.03379,0.03676 0.04534,0.06372 0.01154,0.02696 0.01716,0.06088 0.01716,0.102927 l 0,1.183655 c -0.04507,0.01709 -0.0861,0.02573 -0.121307,0.02573 -0.05057,0 -0.08959,-0.0076 -0.11763,-0.02206 -0.02804,-0.01446 -0.04875,-0.03269 -0.06249,-0.05637 -0.01374,-0.02367 -0.02176,-0.0512 -0.02451,-0.08209 -0.0027,-0.03089 -0.0049,-0.06384 -0.0049,-0.09803 l 0,-1.14322 c 0.01319,-0.0013 0.02737,-0.0035 0.04166,-0.0061 0.01208,-0.0027 0.02558,-0.0048 0.04043,-0.0061 0.01485,-0.0013 0.02982,-0.0025 0.04411,-0.0025 z m 0.460718,0 c 0.02641,2e-6 0.05246,0.0039 0.0772,0.0098 0.02473,0.0059 0.04625,0.01551 0.06494,0.03063 0.01869,0.01513 0.03379,0.03676 0.04533,0.06372 0.01155,0.02696 0.01715,0.06088 0.01715,0.102927 l 0,0.634714 c 0.0055,-0.02889 0.01485,-0.05628 0.02696,-0.08455 0.01209,-0.02826 0.02786,-0.0569 0.04656,-0.08455 l 0.08822,-0.136011 c 0.02088,-0.03153 0.04454,-0.05909 0.06985,-0.08209 0.02531,-0.023 0.06019,-0.03431 0.104152,-0.03431 0.02531,1e-6 0.04932,0.005 0.07352,0.01348 0.02419,0.0085 0.04625,0.01767 0.06494,0.02818 0.02088,0.01184 0.04012,0.02472 0.05882,0.03921 l -0.225458,0.378623 0.267119,0.487675 c -0.07259,0.03547 -0.139252,0.05269 -0.199727,0.05269 -0.05168,0 -0.09283,-0.01074 -0.122531,-0.03309 -0.0297,-0.02235 -0.05521,-0.05153 -0.0772,-0.087 L 9.9045458,5.0231569 c -0.01869,-0.03021 -0.0331,-0.05947 -0.04411,-0.08577 -0.01101,-0.0263 -0.02023,-0.05536 -0.02574,-0.08822 l 0,0.447242 -0.329609,0 0,-1.383383 c 0.01319,-0.0013 0.02737,-0.0035 0.04166,-0.0061 0.01208,-0.0027 0.02558,-0.0048 0.04043,-0.0061 0.01485,-0.0013 0.02859,-0.0025 0.04288,-0.0025 z m -0.938592,0.0098 c 0.02638,2e-6 0.05121,0.0027 0.07597,0.0086 0.02475,0.0059 0.04625,0.01674 0.06494,0.03186 0.01869,0.01513 0.03379,0.03676 0.04534,0.06372 0.01154,0.02696 0.01838,0.06088 0.01838,0.102927 l 0,1.191007 -0.247513,0 c -0.01651,0 -0.03215,-0.0043 -0.04534,-0.01348 -0.01319,-0.0092 -0.01961,-0.0286 -0.01961,-0.05881 -0.01541,0.02363 -0.03998,0.04464 -0.07352,0.06372 -0.03354,0.01907 -0.07563,0.02818 -0.126207,0.02818 -0.03738,0 -0.07398,-0.0064 -0.110279,-0.02083 -0.03629,-0.01447 -0.06889,-0.03982 -0.09802,-0.07597 -0.02913,-0.03615 -0.05292,-0.08582 -0.07107,-0.148263 -0.01815,-0.06245 -0.02696,-0.140575 -0.02696,-0.235261 0,-0.09465 0.0087,-0.175648 0.02574,-0.241387 0.01704,-0.06574 0.04003,-0.118548 0.06862,-0.159291 0.02859,-0.04074 0.06064,-0.06981 0.09803,-0.08822 0.03738,-0.01841 0.07692,-0.02818 0.11763,-0.02818 0.02637,1e-6 0.05017,0.0032 0.07107,0.0098 0.02089,0.0066 0.03906,0.01474 0.05391,0.02328 0.01485,0.0085 0.02619,0.01596 0.03553,0.0245 0.0093,0.0085 0.01631,0.01567 0.01961,0.01961 l 0,-0.484 c 0.01322,-0.0013 0.02617,-0.0023 0.04043,-0.0049 0.01212,-0.0027 0.02614,-0.0048 0.04043,-0.0061 0.0143,-0.0013 0.02859,-0.0025 0.04289,-0.0025 z m -0.90551,0.0012 c 0.02202,2e-6 0.04511,0.0016 0.06984,0.0049 0.02474,0.0033 0.0492,0.0081 0.07229,0.0147 0.0396,0.01184 0.07311,0.03024 0.101702,0.05391 0.02859,0.02367 0.04288,0.05701 0.04288,0.101702 0,0.0197 -0.0064,0.04613 -0.01961,0.07965 -0.0132,0.03352 -0.03059,0.06864 -0.05146,0.104152 -0.01758,-0.01184 -0.03989,-0.02428 -0.06739,-0.03676 -0.0275,-0.01248 -0.05769,-0.01837 -0.09067,-0.01838 -0.02859,1e-6 -0.05251,0.0093 -0.07229,0.02696 -0.01979,0.01774 -0.0294,0.04517 -0.0294,0.08333 l 0,0.04779 0.243838,0 0,0.29285 -0.243838,0 0,0.65922 -0.328385,0 0,-0.942267 c 0,-0.01709 6.89e-4,-0.04084 0.0012,-0.07107 5.51e-4,-0.03023 0.0014,-0.0551 0.0036,-0.07352 0.0143,-0.106479 0.0517,-0.187947 0.112729,-0.243838 0.06103,-0.05589 0.145998,-0.08331 0.254866,-0.08332 z m 7.9069682,0.0245 c 0.04508,10e-7 0.08383,0.0167 0.11518,0.05024 0.03135,0.03354 0.04656,0.07948 0.04656,0.13601 0,0.05653 -0.01522,0.100701 -0.04656,0.13356 -0.03135,0.03286 -0.07011,0.04902 -0.11518,0.04901 -0.0451,1e-6 -0.08263,-0.01615 -0.113955,-0.04901 -0.03133,-0.03286 -0.04656,-0.07702 -0.04656,-0.13356 0,-0.05653 0.01523,-0.102467 0.04656,-0.13601 0.03133,-0.03354 0.06885,-0.05024 0.113955,-0.05024 z m -4.273904,0.0012 c 0.02641,2e-6 0.05246,0.0027 0.0772,0.0086 0.02473,0.0059 0.04625,0.01673 0.06494,0.03185 0.01869,0.01513 0.03379,0.03553 0.04533,0.0625 0.01155,0.02696 0.01715,0.06211 0.01715,0.104153 l 0,0.634713 c 0.0055,-0.02889 0.01363,-0.0575 0.02574,-0.08577 0.01209,-0.02827 0.02786,-0.05568 0.04656,-0.08333 l 0.08944,-0.136014 c 0.02088,-0.03153 0.04331,-0.05909 0.06861,-0.08209 0.02531,-0.02301 0.06019,-0.03431 0.104152,-0.03431 0.02531,10e-7 0.05054,0.0037 0.07474,0.01226 0.02419,0.0085 0.04503,0.0189 0.06372,0.02941 0.02088,0.01184 0.04135,0.02472 0.06004,0.03921 l -0.226684,0.378623 0.267119,0.486451 c -0.07259,0.03546 -0.138026,0.05391 -0.198501,0.05391 -0.05168,0 -0.09283,-0.01196 -0.122531,-0.03431 -0.0297,-0.02235 -0.05521,-0.05031 -0.0772,-0.08577 l -0.106596,-0.176615 c -0.01869,-0.03021 -0.0331,-0.05825 -0.04411,-0.08455 -0.01101,-0.0263 -0.01901,-0.05537 -0.02451,-0.08822 l 0,0.447241 -0.329612,0 0,-1.384608 c 0.01319,-0.0013 0.02615,-0.0035 0.04044,-0.0061 0.01208,-0.0027 0.02558,-0.0035 0.04044,-0.0049 0.01485,-0.0013 0.02982,-0.0025 0.04411,-0.0025 z m 1.19836,0.0049 c 0.02201,10e-7 0.0451,0.0016 0.06985,0.0049 0.02473,0.0033 0.04921,0.0081 0.07229,0.0147 0.0396,0.01184 0.07311,0.02902 0.101701,0.05269 0.02859,0.02367 0.04289,0.05823 0.04289,0.102927 -10e-7,0.0197 -0.0064,0.04612 -0.01961,0.07965 -0.0132,0.03352 -0.02936,0.06864 -0.05024,0.104152 -0.01758,-0.01183 -0.04111,-0.02428 -0.06862,-0.03676 -0.0275,-0.01248 -0.05768,-0.01838 -0.09067,-0.01838 -0.02859,10e-7 -0.05251,0.008 -0.07229,0.02574 -0.01979,0.01774 -0.02941,0.04639 -0.02941,0.08455 l 0,0.04656 0.243836,0 0,0.294077 -0.243836,0 0,0.659219 -0.328386,0 0,-0.943493 c 0,-0.01709 6.89e-4,-0.04084 0.0012,-0.07107 5.51e-4,-0.03023 0.0014,-0.05388 0.0036,-0.07229 0.0143,-0.10648 0.0517,-0.187948 0.112728,-0.243838 0.06103,-0.05589 0.145998,-0.08332 0.254866,-0.08332 z m 1.599037,0.02818 c 0.02639,2e-6 0.05244,0.0027 0.0772,0.0086 0.02475,0.0059 0.04625,0.01673 0.06494,0.03185 0.01869,0.01513 0.03379,0.03553 0.04533,0.0625 0.01155,0.02696 0.01715,0.0621 0.01715,0.104152 l 0,1.191007 -0.247514,0 c -0.01651,0 -0.03093,-0.0055 -0.04411,-0.0147 -0.01319,-0.0093 -0.01961,-0.02861 -0.01961,-0.05881 -0.01541,0.02363 -0.03997,0.04464 -0.07352,0.06372 -0.03354,0.01908 -0.07563,0.02941 -0.126208,0.02941 -0.03738,0 -0.07398,-0.0075 -0.110278,-0.02206 -0.03629,-0.01446 -0.0689,-0.03982 -0.09803,-0.07596 -0.02913,-0.03615 -0.05291,-0.08582 -0.07107,-0.148264 -0.01816,-0.06245 -0.02696,-0.140574 -0.02696,-0.23526 0,-0.09465 0.0074,-0.174422 0.02451,-0.240162 0.01705,-0.06574 0.04002,-0.119773 0.06862,-0.160517 0.02859,-0.04074 0.06187,-0.06981 0.09925,-0.08822 0.03738,-0.01841 0.07692,-0.02818 0.11763,-0.02818 0.02637,1e-6 0.05017,0.0045 0.07107,0.01103 0.02089,0.0066 0.03784,0.01351 0.05269,0.02205 0.01485,0.0086 0.02742,0.01719 0.03676,0.02573 0.0094,0.0085 0.01509,0.01445 0.01838,0.01838 l 0,-0.482774 c 0.01322,-0.0013 0.0274,-0.0035 0.04166,-0.0061 0.01211,-0.0027 0.02492,-0.0048 0.0392,-0.0061 0.0143,-0.0013 0.02859,-0.0012 0.04288,-0.0012 z m 0.461946,0 c 0.02641,2e-6 0.05123,0.0027 0.07596,0.0086 0.02473,0.0059 0.04625,0.01673 0.06494,0.03185 0.01869,0.01513 0.03379,0.03553 0.04533,0.0625 0.01155,0.02696 0.01839,0.0621 0.01839,0.104152 l 0,0.634713 c 0.0055,-0.02889 0.01363,-0.0575 0.02574,-0.08577 0.01209,-0.02826 0.02787,-0.0569 0.04656,-0.08455 l 0.08944,-0.136005 c 0.02088,-0.03153 0.04331,-0.05786 0.06861,-0.08087 0.02531,-0.02301 0.06019,-0.03553 0.104152,-0.03553 0.0253,0 0.04932,0.005 0.07352,0.01348 0.02419,0.0085 0.04625,0.01767 0.06494,0.02818 0.02088,0.01184 0.04012,0.02472 0.05882,0.03921 l -0.225458,0.378622 0.267119,0.487676 c -0.0726,0.03546 -0.139252,0.05269 -0.199726,0.05269 -0.05168,0 -0.09161,-0.01074 -0.121307,-0.03309 -0.0297,-0.02235 -0.05644,-0.05153 -0.07842,-0.087 l -0.105377,-0.175225 c -0.01869,-0.03021 -0.03311,-0.05825 -0.04411,-0.08455 -0.01101,-0.0263 -0.01901,-0.05659 -0.02451,-0.08944 l 0,0.448466 -0.330835,0 0,-1.384608 c 0.01319,-0.0013 0.02737,-0.0035 0.04166,-0.0061 0.01208,-0.0027 0.02558,-0.0048 0.04043,-0.0061 0.01485,-0.0013 0.02982,-0.0012 0.04411,-0.0012 z m -3.841368,0.36639 c 0.128668,1e-6 0.220153,0.03019 0.275696,0.09068 0.05554,0.06048 0.08333,0.156473 0.08333,0.287949 l 0,0.384749 c 0,0.03286 0.003,0.06903 0.0074,0.107828 0.0044,0.03879 0.01069,0.07278 0.01838,0.101702 -0.0154,0.0053 -0.02957,0.009 -0.04166,0.01226 -0.01208,0.0033 -0.02397,0.0066 -0.03553,0.0086 -0.01156,0.002 -0.02412,0.0031 -0.03676,0.0036 -0.01263,6.66e-4 -0.02626,0.0012 -0.04166,0.0012 -0.08907,0 -0.141318,-0.03017 -0.155615,-0.09068 -0.01869,0.02235 -0.0458,0.04285 -0.08209,0.06126 -0.03629,0.01841 -0.08226,0.02696 -0.137236,0.02696 -0.0341,0 -0.06668,-0.0054 -0.09802,-0.01593 -0.03135,-0.01051 -0.05913,-0.02722 -0.08333,-0.05024 -0.0242,-0.023 -0.04329,-0.0532 -0.05759,-0.09068 -0.0143,-0.03748 -0.02083,-0.08331 -0.02083,-0.137236 0,-0.07623 0.0167,-0.137215 0.05024,-0.182571 0.03354,-0.04535 0.07346,-0.07926 0.121306,-0.102927 0.04784,-0.02367 0.09836,-0.03878 0.149489,-0.04533 0.05113,-0.0066 0.0948,-0.0098 0.131109,-0.0098 l 0,-0.02818 c -10e-7,-0.01841 -0.0031,-0.03293 -0.0086,-0.04411 -0.0055,-0.01118 -0.0127,-0.01982 -0.02206,-0.02574 -0.0094,-0.0059 -0.02044,-0.0091 -0.03308,-0.01103 -0.01266,-0.002 -0.02615,-0.0036 -0.04043,-0.0036 -0.03846,2e-6 -0.07655,0.0059 -0.113954,0.01839 -0.0374,0.01248 -0.0788,0.03249 -0.124982,0.05881 -0.0209,-0.03025 -0.03735,-0.06052 -0.04779,-0.08944 -0.01043,-0.02892 -0.01593,-0.0505 -0.01593,-0.06494 0,-0.01974 0.0062,-0.03863 0.01715,-0.05637 0.01099,-0.01773 0.0333,-0.03539 0.06739,-0.05514 0.0297,-0.01841 0.0695,-0.0336 0.120082,-0.04411 0.05057,-0.01051 0.102824,-0.01593 0.155615,-0.01593 z m 2.356284,0.05147 c 0.09018,1e-6 0.168173,0.01615 0.235261,0.04901 0.02967,0.01448 0.05427,0.0323 0.07352,0.05269 0.01924,0.02038 0.0294,0.04347 0.0294,0.07107 0,0.02363 -0.007,0.05167 -0.01961,0.08455 -0.01263,0.03288 -0.02787,0.06532 -0.04656,0.09557 -0.03303,-0.03025 -0.06788,-0.05569 -0.104153,-0.07474 -0.03627,-0.01905 -0.07289,-0.02818 -0.110279,-0.02818 -0.04728,10e-7 -0.07107,0.01615 -0.07107,0.04902 0,0.02102 0.0081,0.03784 0.02574,0.04901 0.01758,0.01118 0.03978,0.02029 0.06617,0.02818 0.02639,0.0079 0.05498,0.01709 0.08577,0.02696 0.03078,0.0099 0.05938,0.02439 0.08577,0.04411 0.02639,0.01972 0.04856,0.04669 0.06617,0.08087 0.0176,0.03418 0.02696,0.07835 0.02696,0.13356 0,0.105198 -0.03099,0.189967 -0.09312,0.252414 -0.06213,0.06245 -0.153253,0.09313 -0.272021,0.09313 -0.06819,0 -0.121352,-0.0059 -0.159291,-0.01838 -0.03795,-0.0125 -0.06747,-0.02605 -0.08944,-0.03921 -0.02859,-0.01709 -0.04905,-0.03599 -0.06004,-0.05637 -0.01099,-0.02038 -0.01593,-0.04137 -0.01593,-0.06372 0,-0.03418 0.0071,-0.06761 0.02084,-0.100475 0.01374,-0.03286 0.02898,-0.06526 0.04656,-0.0968 0.01319,0.01444 0.02829,0.02794 0.04533,0.04044 0.01705,0.01249 0.03534,0.0238 0.05514,0.03431 0.0198,0.01051 0.04037,0.01859 0.06126,0.0245 0.02088,0.0059 0.04147,0.0098 0.06126,0.0098 0.02859,1e-6 0.04917,-0.006 0.06126,-0.01715 0.0121,-0.01118 0.01838,-0.02579 0.01838,-0.04289 0,-0.01974 -0.01002,-0.03473 -0.02819,-0.04656 -0.01815,-0.01184 -0.03978,-0.02267 -0.06617,-0.03185 -0.02639,-0.0092 -0.05635,-0.02002 -0.08822,-0.03185 -0.03188,-0.01184 -0.06061,-0.02741 -0.087,-0.04779 -0.02639,-0.02038 -0.04803,-0.04735 -0.06617,-0.08087 -0.01814,-0.03352 -0.02819,-0.07719 -0.02819,-0.131109 -10e-7,-0.05256 0.0095,-0.09902 0.02819,-0.138461 0.01869,-0.03943 0.04341,-0.07116 0.07474,-0.0968 0.03133,-0.02564 0.06837,-0.04509 0.109053,-0.05759 0.04068,-0.0125 0.08355,-0.01838 0.128658,-0.01838 z m 2.470238,0.02206 c 0.02641,1e-6 0.05246,0.0027 0.0772,0.0086 0.02473,0.0059 0.04625,0.01675 0.06494,0.03185 0.01869,0.01511 0.03379,0.03553 0.04533,0.06249 0.01154,0.02696 0.01715,0.06211 0.01715,0.104153 l 0,0.697204 c 0,0.02892 -0.0014,0.0651 -0.0036,0.107828 -0.0022,0.04273 -0.007,0.081 -0.01471,0.11518 -0.01211,0.0526 -0.02985,0.09685 -0.05514,0.132333 -0.02529,0.03549 -0.05443,0.06407 -0.08577,0.08577 -0.03135,0.02171 -0.06247,0.03737 -0.09435,0.04656 -0.03188,0.0092 -0.05901,0.01348 -0.08209,0.01348 -0.04728,0 -0.08215,-0.0114 -0.104151,-0.03309 -0.02199,-0.02169 -0.03765,-0.05348 -0.04533,-0.09557 -0.0033,-0.01709 -0.0057,-0.03486 -0.0074,-0.05391 -0.0016,-0.01905 -0.0027,-0.04434 -0.0049,-0.0772 0.0352,-0.0039 0.06377,-0.01267 0.08577,-0.0245 0.02199,-0.01184 0.03815,-0.02692 0.05024,-0.04533 0.01209,-0.01841 0.02134,-0.03941 0.02573,-0.06372 0.0044,-0.02431 0.0061,-0.05072 0.0061,-0.07965 l 0,-0.918987 c 0.01319,-0.0013 0.02737,-0.0035 0.04166,-0.0061 0.01208,-0.0027 0.02558,-0.0049 0.04043,-0.0061 0.01485,-0.0013 0.02859,-0.0012 0.04289,-0.0012 z m -7.1656512,0.21075 c -0.03013,0.0043 -0.05169,0.0243 -0.06372,0.05881 -0.01374,0.03944 -0.01961,0.09338 -0.01961,0.161742 -1e-6,0.03154 0.0016,0.06003 0.0049,0.087 0.0033,0.02696 0.0089,0.05069 0.01716,0.07107 0.0083,0.02038 0.01867,0.03718 0.03186,0.04901 0.01319,0.01184 0.02921,0.01715 0.04901,0.01715 0.01319,0 0.02416,-4.59e-4 0.03186,-0.0025 0.0077,-0.002 0.01261,-0.0035 0.01593,-0.0049 l 0,-0.42396 c -0.0066,-0.0053 -0.01405,-0.0091 -0.02451,-0.01103 -0.01045,-0.002 -0.02061,-0.0025 -0.0294,-0.0025 -0.0047,0 -0.0092,-6.2e-4 -0.01348,0 z m 5.5396562,0.05881 c -0.03738,1e-6 -0.06346,0.01938 -0.0772,0.05881 -0.01375,0.03944 -0.02083,0.09338 -0.02083,0.161742 -1e-6,0.03154 0.0016,0.06126 0.0049,0.08822 0.0033,0.02696 0.0089,0.05069 0.01715,0.07107 0.0082,0.02038 0.0199,0.03595 0.03308,0.04779 0.01319,0.01184 0.02921,0.01838 0.04901,0.01838 0.01319,0 0.02416,-0.0017 0.03185,-0.0036 0.0077,-0.002 0.0126,-0.0035 0.01593,-0.0049 l 0,-0.423959 c -0.0066,-0.0053 -0.01527,-0.0091 -0.02574,-0.01103 -0.01046,-0.002 -0.01939,-0.0025 -0.02818,-0.0025 z m -3.149064,0.193599 c -0.02088,0.0027 -0.04133,0.007 -0.06004,0.01226 -0.01871,0.0053 -0.03527,0.01221 -0.04901,0.02206 -0.01375,0.0099 -0.02363,0.02343 -0.03185,0.03921 -0.0082,0.01579 -0.01348,0.03631 -0.01348,0.06127 0,0.03025 0.0071,0.05342 0.02083,0.06985 0.01375,0.01643 0.03339,0.0245 0.05759,0.0245 0.0198,0 0.0373,-0.0054 0.05269,-0.01593 0.01539,-0.01051 0.02328,-0.02673 0.02328,-0.04779 l 0,-0.165418 z m 2.233753,3.006927 c 0.04507,1e-6 0.08383,0.0167 0.115179,0.05024 0.03135,0.03354 0.04656,0.07826 0.04656,0.134785 0,0.05653 -0.01521,0.101926 -0.04656,0.134784 -0.03135,0.03286 -0.07011,0.04901 -0.115179,0.04901 -0.0451,10e-7 -0.08263,-0.01615 -0.113955,-0.04901 -0.03133,-0.03286 -0.04779,-0.07825 -0.04779,-0.134784 0,-0.05653 0.01647,-0.101243 0.04779,-0.134785 0.03133,-0.03354 0.06885,-0.05024 0.113955,-0.05024 z m -3.4970542,0.01838 c 0.02202,0 0.04634,0.0016 0.07107,0.0049 0.02473,0.0033 0.04798,0.0081 0.07107,0.01471 0.0396,0.01184 0.07433,0.02902 0.102928,0.05268 0.02859,0.02367 0.04288,0.05823 0.04288,0.102926 -10e-7,0.01969 -0.0076,0.04613 -0.02083,0.07965 -0.0132,0.03352 -0.02936,0.06742 -0.05024,0.102926 -0.01758,-0.01184 -0.03989,-0.02305 -0.06739,-0.03553 -0.0275,-0.01248 -0.05891,-0.0196 -0.0919,-0.01961 -0.02859,2e-6 -0.05251,0.0093 -0.07229,0.02696 -0.01979,0.01774 -0.02941,0.04639 -0.02941,0.08455 l 0,0.04656 0.243838,0 0,0.294076 -0.243838,0 0,0.659221 -0.328385,0 0,-0.943494 c 0,-0.01709 6.89e-4,-0.04084 0.0012,-0.07107 5.51e-4,-0.03023 0.0014,-0.05388 0.0036,-0.07229 0.01429,-0.106481 0.0517,-0.187949 0.112729,-0.243839 0.06103,-0.05589 0.145997,-0.08332 0.254865,-0.08332 z m 4.1758792,0 c 0.02201,0 0.0451,0.0016 0.06985,0.0049 0.02473,0.0033 0.04921,0.0081 0.07229,0.01471 0.03959,0.01184 0.07311,0.02902 0.101701,0.05268 0.02859,0.02367 0.04289,0.05823 0.04289,0.102926 -2e-6,0.01969 -0.0064,0.04613 -0.01961,0.07965 -0.0132,0.03352 -0.03059,0.06742 -0.05146,0.102926 -0.01758,-0.01184 -0.03989,-0.02305 -0.06739,-0.03553 -0.0275,-0.01248 -0.05769,-0.0196 -0.09068,-0.01961 -0.02859,2e-6 -0.05251,0.0093 -0.07229,0.02696 -0.01979,0.01774 -0.02941,0.04639 -0.0294,0.08455 l 0,0.04656 0.243838,0 0,0.294076 -0.243838,0 0,0.659221 -0.328385,0 0,-0.943494 c 0,-0.01709 -5.51e-4,-0.04084 0,-0.07107 5.51e-4,-0.03023 0.0027,-0.05388 0.0049,-0.07229 0.0143,-0.106481 0.0517,-0.187949 0.112729,-0.243839 0.06103,-0.05589 0.145997,-0.08332 0.254865,-0.08332 z m -3.017955,0.0147 c 0.02641,2e-6 0.05123,0.0038 0.07597,0.0098 0.02473,0.0059 0.04748,0.01551 0.06617,0.03063 0.01869,0.01512 0.03379,0.03676 0.04533,0.06372 0.01155,0.02696 0.01715,0.06088 0.01715,0.102926 l 0,1.183655 c -0.04508,0.0171 -0.0861,0.02573 -0.121308,0.02573 -0.05057,0 -0.08959,-0.0076 -0.11763,-0.02206 -0.02804,-0.01446 -0.04875,-0.0327 -0.0625,-0.05637 -0.01374,-0.02367 -0.02175,-0.0512 -0.0245,-0.08209 -0.0028,-0.03089 -0.0036,-0.06384 -0.0036,-0.09803 l 0,-1.14322 c 0.01319,-0.0013 0.02614,-0.0035 0.04044,-0.0061 0.01208,-0.0026 0.02558,-0.0049 0.04043,-0.0061 0.01485,-0.0013 0.02982,-0.0025 0.04411,-0.0025 z m 0.460719,0 c 0.02641,2e-6 0.05123,0.0038 0.07597,0.0098 0.02473,0.0059 0.04748,0.01551 0.06617,0.03063 0.01869,0.01512 0.03379,0.03676 0.04533,0.06372 0.01155,0.02696 0.01715,0.06088 0.01715,0.102926 l 0,0.63594 c 0.0055,-0.02889 0.01363,-0.0575 0.02574,-0.08577 0.0121,-0.02827 0.02786,-0.0569 0.04656,-0.08455 l 0.08944,-0.136011 c 0.02088,-0.03153 0.04331,-0.05909 0.06861,-0.08209 0.0253,-0.02301 0.06019,-0.03431 0.104152,-0.03431 0.02531,10e-7 0.05055,0.005 0.07474,0.01348 0.02419,0.0086 0.04503,0.01767 0.06372,0.02818 0.02088,0.01184 0.04135,0.02473 0.06004,0.0392 l -0.226684,0.378622 0.267119,0.487676 c -0.07259,0.03547 -0.139253,0.05268 -0.199727,0.05268 -0.05168,0 -0.09161,-0.01073 -0.121306,-0.03308 -0.0297,-0.02235 -0.05644,-0.05153 -0.07842,-0.087 l -0.105368,-0.175214 c -0.01869,-0.03021 -0.0331,-0.05825 -0.04411,-0.08455 -0.01101,-0.0263 -0.01901,-0.05659 -0.02451,-0.08944 l 0,0.448467 -0.330835,0 0,-1.384608 c 0.01319,-0.0013 0.02737,-0.0035 0.04166,-0.0061 0.01208,-0.0026 0.02558,-0.0048 0.04044,-0.0061 0.01485,-0.0013 0.02982,-0.0025 0.04411,-0.0025 z m -1.02559,0.420283 c 0.09018,1e-6 0.169399,0.01615 0.236487,0.04901 0.02967,0.01448 0.05427,0.03231 0.07352,0.05268 0.01925,0.02039 0.02819,0.04469 0.02819,0.07229 0,0.02363 -0.0057,0.05167 -0.01839,0.08455 -0.01263,0.03289 -0.0291,0.0641 -0.04779,0.09435 -0.03303,-0.03025 -0.06788,-0.05446 -0.104151,-0.07352 -0.03627,-0.01905 -0.07289,-0.02818 -0.110279,-0.02818 -0.04728,1e-6 -0.07107,0.01615 -0.07107,0.04901 -1e-6,0.02103 0.0094,0.03662 0.02696,0.04779 0.01758,0.01118 0.03978,0.02153 0.06617,0.0294 0.02639,0.0079 0.05498,0.01586 0.08577,0.02573 0.03078,0.0099 0.05938,0.02562 0.08577,0.04533 0.02639,0.01972 0.04856,0.04669 0.06617,0.08087 0.0176,0.03418 0.02573,0.07835 0.02573,0.133559 0,0.105198 -0.03099,0.188742 -0.09312,0.25119 -0.06213,0.06245 -0.152027,0.09435 -0.270795,0.09435 -0.06819,0 -0.121352,-0.0071 -0.159292,-0.01961 -0.03794,-0.0125 -0.06869,-0.02483 -0.09067,-0.03798 -0.02859,-0.0171 -0.04782,-0.03599 -0.05881,-0.05637 -0.01099,-0.02038 -0.01715,-0.04137 -0.01715,-0.06372 0,-0.03418 0.0071,-0.06761 0.02083,-0.100476 0.01375,-0.03286 0.0302,-0.06526 0.04779,-0.0968 0.01319,0.01444 0.02829,0.02794 0.04533,0.04044 0.01705,0.0125 0.03534,0.0238 0.05514,0.03431 0.0198,0.01051 0.04038,0.01858 0.06126,0.02451 0.02089,0.0059 0.04024,0.0086 0.06004,0.0086 0.02859,0 0.04917,-0.0048 0.06127,-0.01593 0.01209,-0.01118 0.01838,-0.02579 0.01838,-0.04289 0,-0.01974 -0.0088,-0.03595 -0.02696,-0.04779 -0.01816,-0.01184 -0.041,-0.02145 -0.06739,-0.03063 -0.02639,-0.0092 -0.05512,-0.02002 -0.087,-0.03185 -0.03188,-0.01184 -0.06061,-0.02741 -0.087,-0.04779 -0.02639,-0.02038 -0.04926,-0.04735 -0.06739,-0.08087 -0.01814,-0.03352 -0.02696,-0.07719 -0.02696,-0.131109 0,-0.05256 0.0095,-0.09902 0.02818,-0.13846 0.01869,-0.03943 0.04341,-0.07239 0.07474,-0.09803 0.03133,-0.02564 0.06713,-0.04387 0.107829,-0.05637 0.04068,-0.0125 0.08355,-0.01961 0.128657,-0.01961 z m 2.258259,0 c 0.128667,1e-6 0.221379,0.03019 0.27692,0.09068 0.05554,0.06048 0.08333,0.156473 0.08333,0.287949 l 0,0.38475 c 0,0.03286 0.0017,0.06903 0.0061,0.107827 0.0044,0.03879 0.01069,0.07278 0.01838,0.101702 -0.01541,0.0053 -0.02957,0.009 -0.04166,0.01226 -0.01208,0.0033 -0.02397,0.0066 -0.03553,0.0086 -0.01156,0.002 -0.0229,0.0031 -0.03553,0.0036 -0.01263,6.66e-4 -0.02748,0.0012 -0.04289,0.0012 -0.08907,0 -0.140095,-0.03016 -0.154391,-0.09068 -0.01869,0.02235 -0.0458,0.04163 -0.08209,0.06004 -0.03629,0.01841 -0.08226,0.02818 -0.137235,0.02818 -0.0341,0 -0.06668,-0.0054 -0.09803,-0.01593 -0.03135,-0.01051 -0.05913,-0.02723 -0.08332,-0.05024 -0.0242,-0.023 -0.0433,-0.0532 -0.05759,-0.09068 -0.0143,-0.03748 -0.02206,-0.08331 -0.02206,-0.137236 0,-0.07623 0.0167,-0.137214 0.05024,-0.182571 0.03354,-0.04535 0.07469,-0.07926 0.122531,-0.102927 0.04784,-0.02367 0.09714,-0.03878 0.148263,-0.04533 0.05113,-0.0066 0.0948,-0.0098 0.13111,-0.0098 l 0,-0.02819 c 0,-0.01841 -0.0031,-0.03293 -0.0086,-0.04411 -0.0055,-0.01117 -0.0127,-0.01982 -0.02206,-0.02573 -0.0094,-0.0059 -0.02044,-0.01029 -0.03309,-0.01226 -0.01266,-0.002 -0.02614,-0.0025 -0.04044,-0.0025 -0.03846,10e-7 -0.07656,0.0059 -0.113955,0.01838 -0.0374,0.01249 -0.0788,0.03249 -0.124983,0.05881 -0.02091,-0.03025 -0.03612,-0.06052 -0.04656,-0.08944 -0.01043,-0.02892 -0.01593,-0.0505 -0.01593,-0.06494 0,-0.01974 0.005,-0.03863 0.01593,-0.05637 0.01099,-0.01774 0.03329,-0.0354 0.06739,-0.05514 0.0297,-0.01841 0.07073,-0.0336 0.121306,-0.04411 0.05057,-0.01051 0.1016,-0.01593 0.15439,-0.01593 z m 0.616334,0.01961 c 0.02641,2e-6 0.05246,0.0039 0.0772,0.0098 0.02473,0.0059 0.04625,0.01553 0.06494,0.03063 0.01869,0.0151 0.03379,0.03676 0.04533,0.06372 0.01155,0.02696 0.01715,0.06088 0.01715,0.102927 l 0,0.698431 c 0,0.02893 -0.0014,0.0651 -0.0036,0.107827 -0.0022,0.04273 -0.0071,0.081 -0.0147,0.11518 -0.01211,0.0526 -0.03108,0.09685 -0.05637,0.132334 -0.02529,0.03548 -0.05321,0.06407 -0.08455,0.08577 -0.03135,0.02171 -0.06247,0.03738 -0.09435,0.04656 -0.03188,0.0092 -0.06023,0.01348 -0.08332,0.01348 -0.04728,0 -0.08093,-0.0114 -0.102927,-0.03308 -0.02199,-0.02169 -0.03765,-0.05348 -0.04533,-0.09557 -0.0033,-0.0171 -0.0057,-0.03486 -0.0074,-0.05392 -0.0016,-0.01905 -0.0039,-0.04556 -0.0061,-0.07842 0.0352,-0.0039 0.06377,-0.01145 0.08577,-0.02328 0.02199,-0.01184 0.03937,-0.02692 0.05146,-0.04533 0.0121,-0.01841 0.02011,-0.0394 0.02451,-0.06372 0.0044,-0.02431 0.0074,-0.05072 0.0074,-0.07965 l 0,-0.918986 c 0.01319,-0.0013 0.02615,-0.0035 0.04044,-0.0061 0.01208,-0.0026 0.02558,-0.0049 0.04044,-0.0061 0.01485,-0.0013 0.02982,-0.0025 0.04411,-0.0025 z m -0.564871,0.517084 c -0.02088,0.0026 -0.0401,0.007 -0.05881,0.01226 -0.01871,0.0053 -0.03527,0.01221 -0.04901,0.02206 -0.01375,0.0099 -0.02485,0.02343 -0.03309,0.0392 -0.0082,0.01579 -0.01226,0.03508 -0.01226,0.06004 0,0.03025 0.0071,0.05464 0.02083,0.07107 0.01375,0.01643 0.03217,0.02451 0.05637,0.02451 0.0198,0 0.0373,-0.0054 0.05268,-0.01593 0.01539,-0.01051 0.02328,-0.02673 0.02328,-0.04778 l 0,-0.165418 z m -2.6013472,0.98148 c 0.04508,2e-6 0.08383,0.01792 0.1151802,0.05146 0.03135,0.03354 0.04656,0.07826 0.04656,0.1347851 0,0.05653 -0.01522,0.100701 -0.04656,0.133559 -0.03135,0.03286 -0.07011,0.04901 -0.1151802,0.04901 -0.0451,1e-6 -0.08385,-0.01615 -0.115181,-0.04901 -0.03133,-0.03286 -0.04656,-0.07703 -0.04656,-0.133559 0,-0.05653 0.01523,-0.1012421 0.04656,-0.1347851 0.03133,-0.03354 0.07008,-0.05146 0.115181,-0.05146 z m 3.6024302,0 c 0.04507,2e-6 0.08261,0.01792 0.113955,0.05146 0.03135,0.03354 0.04656,0.07826 0.04656,0.1347851 0,0.05653 -0.01521,0.100701 -0.04656,0.133559 -0.03135,0.03286 -0.06888,0.04901 -0.113955,0.04901 -0.0451,1e-6 -0.08385,-0.01615 -0.11518,-0.04901 -0.02515,-0.02639 -0.03916,-0.06006 -0.04411,-0.101701 -0.0031,0.01582 -0.0087,0.03364 -0.01715,0.05514 -0.0132,0.03352 -0.02936,0.06864 -0.05024,0.104152 -0.01758,-0.01184 -0.04111,-0.02428 -0.06862,-0.03676 -0.0275,-0.01248 -0.05768,-0.01838 -0.09067,-0.01838 -0.02859,2e-6 -0.05251,0.0093 -0.07229,0.02696 -0.01979,0.01773 -0.02941,0.04517 -0.02941,0.08332 l 0,0.04779 0.243838,0 0,0.292851 -0.243838,0 0,0.65922 -0.328385,0 0,-0.942267 c 0,-0.01709 6.89e-4,-0.04084 0.0012,-0.07107 5.51e-4,-0.03023 0.0014,-0.05511 0.0036,-0.07352 0.0143,-0.106479 0.0517,-0.187946 0.112729,-0.2438361 0.06103,-0.05589 0.145997,-0.08331 0.254866,-0.08333 0.02202,2e-6 0.0451,0.0016 0.06985,0.0049 0.02473,0.0033 0.04921,0.0081 0.07229,0.0147 0.0396,0.01184 0.07311,0.03024 0.101701,0.05391 0.02076,0.01718 0.03352,0.03913 0.0392,0.06739 0.0043,-0.04392 0.01923,-0.07987 0.04533,-0.1078271 0.03133,-0.03354 0.07008,-0.05146 0.11518,-0.05146 z m -0.160516,0.1592921 c -8.96e-4,0.0088 -0.0012,0.01755 -0.0012,0.02696 0,0.01115 0.0012,0.02163 0.0025,0.03185 0.0017,-0.0089 0.0025,-0.01745 0.0025,-0.0245 -1e-6,-0.01225 -0.0015,-0.02365 -0.0036,-0.03431 z m 1.583109,-0.1409121 c 0.02202,10e-7 0.0451,0.0016 0.06985,0.0049 0.02473,0.0033 0.04798,0.0081 0.07107,0.01471 0.0396,0.01184 0.07433,0.03024 0.102927,0.05391 0.02859,0.02367 0.04288,0.05701 0.04288,0.1017021 -10e-7,0.01969 -0.0064,0.04612 -0.01961,0.07965 -0.0132,0.03353 -0.03058,0.06864 -0.05146,0.104151 -0.01758,-0.01184 -0.03989,-0.02428 -0.06739,-0.03676 -0.0275,-0.01248 -0.05768,-0.01839 -0.09068,-0.01839 -0.02859,2e-6 -0.05251,0.0093 -0.07229,0.02696 -0.01979,0.01774 -0.03063,0.04517 -0.03063,0.08333 l 0,0.04779 0.245064,0 0,0.29285 -0.245064,0 0,0.659221 -0.328386,0 0,-0.942268 c 0,-0.01709 6.89e-4,-0.04084 0.0012,-0.07107 5.51e-4,-0.03023 0.0014,-0.05511 0.0036,-0.07352 0.0143,-0.106477 0.05293,-0.187946 0.113954,-0.2438351 0.06103,-0.05589 0.145997,-0.08332 0.254866,-0.08332 z m -6.2601422,0.01593 c 0.02638,2e-6 0.05245,0.0027 0.07719,0.0086 0.02475,0.0059 0.04625,0.01673 0.06494,0.03185 0.01869,0.01513 0.03379,0.03553 0.04534,0.06249 0.01154,0.02696 0.01716,0.06211 0.01716,0.1041531 l 0,1.191007 -0.247514,0 c -0.01651,0 -0.03093,-0.0043 -0.04411,-0.01348 -0.01319,-0.0092 -0.01961,-0.02983 -0.01961,-0.06004 -0.01541,0.02363 -0.03998,0.04587 -0.07352,0.06494 -0.03354,0.01908 -0.07563,0.02818 -0.126208,0.02818 -0.03738,0 -0.07521,-0.0076 -0.111504,-0.02206 -0.0363,-0.01446 -0.0689,-0.03982 -0.09802,-0.07596 -0.02913,-0.03615 -0.05291,-0.0846 -0.07107,-0.147039 -0.01816,-0.06245 -0.02696,-0.1418 -0.02696,-0.236486 0,-0.09465 0.0087,-0.174423 0.02574,-0.240162 0.01704,-0.06574 0.04003,-0.118548 0.06862,-0.159291 0.02859,-0.04074 0.06187,-0.07103 0.09925,-0.08944 0.03738,-0.01841 0.0757,-0.02696 0.116405,-0.02696 0.02638,10e-7 0.05018,0.0032 0.07107,0.0098 0.02089,0.0066 0.03906,0.01351 0.05391,0.02206 0.01485,0.0086 0.02741,0.01718 0.03676,0.02574 0.0093,0.0086 0.01509,0.01445 0.01838,0.01838 l 0,-0.4827751 c 0.01322,-0.0013 0.02739,-0.0035 0.04166,-0.0061 0.01212,-0.0026 0.02492,-0.0048 0.03921,-0.0061 0.01429,-0.0013 0.02859,-0.0012 0.04289,-0.0012 z m 0.64084,0.4202841 c 0.09018,1e-6 0.169399,0.01616 0.236486,0.04901 0.02967,0.01449 0.05428,0.03231 0.07352,0.05268 0.01925,0.02039 0.02818,0.04347 0.02818,0.07107 0,0.02363 -0.0057,0.05167 -0.01838,0.08455 -0.01263,0.03289 -0.02909,0.06532 -0.04779,0.09557 -0.03303,-0.03025 -0.06788,-0.05568 -0.104152,-0.07474 -0.03628,-0.01905 -0.07289,-0.02818 -0.110279,-0.02818 -0.04728,10e-7 -0.07107,0.01615 -0.07107,0.04901 -10e-7,0.02103 0.0094,0.03784 0.02695,0.04901 0.01758,0.01118 0.03977,0.02029 0.06617,0.02818 0.0264,0.0079 0.05498,0.01709 0.08577,0.02696 0.03079,0.0099 0.05938,0.02439 0.08577,0.04411 0.02639,0.01972 0.04857,0.04669 0.06617,0.08087 0.0176,0.03418 0.02573,0.07835 0.02573,0.133559 0,0.105198 -0.03099,0.189967 -0.09313,0.252415 -0.06213,0.06245 -0.152027,0.09313 -0.270795,0.09313 -0.06819,0 -0.121351,-0.0058 -0.159291,-0.01838 -0.03794,-0.0125 -0.0687,-0.02605 -0.09067,-0.0392 -0.02859,-0.01709 -0.04783,-0.03476 -0.05881,-0.05514 -0.01099,-0.02039 -0.01716,-0.04259 -0.01716,-0.06494 0,-0.03418 0.0071,-0.06761 0.02083,-0.100477 0.01374,-0.03286 0.0302,-0.06526 0.04779,-0.0968 0.01319,0.01444 0.02829,0.02794 0.04534,0.04044 0.01705,0.0125 0.03534,0.0238 0.05514,0.03431 0.0198,0.01051 0.04038,0.01982 0.06127,0.02574 0.02089,0.0059 0.04024,0.0086 0.06004,0.0086 0.02859,0 0.04917,-0.006 0.06127,-0.01715 0.0121,-0.01117 0.01838,-0.02457 0.01838,-0.04166 0,-0.01974 -0.0088,-0.03595 -0.02696,-0.04779 -0.01816,-0.01184 -0.041,-0.02267 -0.06739,-0.03185 -0.0264,-0.0092 -0.05512,-0.02002 -0.087,-0.03186 -0.03188,-0.01184 -0.0606,-0.02741 -0.087,-0.04779 -0.0264,-0.02038 -0.04925,-0.04735 -0.06739,-0.08087 -0.01814,-0.03352 -0.02696,-0.07719 -0.02696,-0.131108 0,-0.05256 0.0095,-0.09902 0.02819,-0.138462 0.01869,-0.03943 0.04341,-0.07116 0.07474,-0.0968 0.03133,-0.02564 0.06714,-0.04509 0.107829,-0.05759 0.04069,-0.0125 0.08355,-0.01838 0.128658,-0.01838 z m 1.2804562,0 c 0.06709,1e-6 0.124258,0.01187 0.171543,0.03553 0.04728,0.02367 0.08604,0.05492 0.115181,0.09435 0.02915,0.03944 0.05053,0.08588 0.06372,0.138462 0.01319,0.05258 0.01961,0.107563 0.01961,0.165417 l 0,0.02574 c -1e-6,0.01118 -6.66e-4,0.02369 -0.0012,0.03553 -5.51e-4,0.01184 -6.89e-4,0.02258 -0.0012,0.03309 -5.51e-4,0.01051 -0.0013,0.01802 -0.0025,0.02328 l -0.441114,0 c 0.0055,0.04994 0.02128,0.09258 0.04656,0.127432 0.02529,0.03484 0.06645,0.05269 0.122531,0.05269 0.044,0 0.08059,-0.0088 0.110278,-0.02451 0.02969,-0.01577 0.05975,-0.03617 0.08944,-0.0625 0.01429,0.02632 0.02859,0.05649 0.04289,0.09067 0.01429,0.03418 0.02083,0.0644 0.02083,0.09068 -10e-7,0.02235 -0.0048,0.044 -0.0147,0.06372 -0.0099,0.01972 -0.02743,0.03794 -0.05269,0.05637 -0.0242,0.01709 -0.05678,0.03227 -0.09802,0.04411 -0.04125,0.01184 -0.0928,0.01715 -0.15439,0.01715 -0.04508,0 -0.09289,-0.0065 -0.144586,-0.01961 -0.0517,-0.01315 -0.100608,-0.03908 -0.144588,-0.0772 -0.04398,-0.03812 -0.07991,-0.09149 -0.109053,-0.160516 -0.02915,-0.06903 -0.04411,-0.159058 -0.04411,-0.270795 0,-0.08285 0.01189,-0.155192 0.03553,-0.215656 0.02364,-0.06046 0.05518,-0.110049 0.09312,-0.149488 0.03794,-0.03943 0.08094,-0.06859 0.129885,-0.087 0.04895,-0.01841 0.09757,-0.02696 0.147038,-0.02696 z m 0.871199,0 c 0.07588,1e-6 0.139586,0.01291 0.192375,0.0392 0.05279,0.0263 0.09567,0.0619 0.128659,0.106602 0.03299,0.04469 0.05745,0.09702 0.07229,0.156841 0.01485,0.05982 0.02206,0.122882 0.02206,0.189924 -10e-7,0.06704 -0.0079,0.132378 -0.02328,0.194825 -0.01541,0.06245 -0.04,0.11687 -0.07352,0.164192 -0.03352,0.04733 -0.07654,0.08444 -0.129884,0.112729 -0.05334,0.02828 -0.119064,0.04289 -0.19605,0.04289 -0.07588,0 -0.139602,-0.01404 -0.192375,-0.04166 -0.05277,-0.02763 -0.09634,-0.06484 -0.129883,-0.111504 -0.03354,-0.04667 -0.05811,-0.100597 -0.07352,-0.161741 -0.01541,-0.06114 -0.02328,-0.125234 -0.02328,-0.1936 0,-0.06837 0.0094,-0.133701 0.02696,-0.194825 0.0176,-0.06112 0.0439,-0.113371 0.07964,-0.158067 0.03574,-0.04469 0.08078,-0.0803 0.13356,-0.106602 0.05277,-0.0263 0.114764,-0.0392 0.186247,-0.0392 z m 1.018239,0 c 0.01651,1e-6 0.03308,9.64e-4 0.04901,0.0049 0.01594,0.0039 0.0297,0.01105 0.04288,0.01961 0.01319,0.0086 0.02483,0.01985 0.03309,0.03431 0.0082,0.01446 0.01226,0.03166 0.01226,0.05268 0,0.02103 -0.003,0.04487 -0.0074,0.06985 -0.0044,0.02498 -0.01,0.04968 -0.01715,0.07596 -0.0072,0.0263 -0.01447,0.05223 -0.02328,0.0772 -0.0088,0.02498 -0.01816,0.04765 -0.02696,0.06739 -0.02309,-0.02235 -0.04472,-0.03906 -0.06617,-0.05024 -0.02145,-0.01118 -0.0458,-0.01715 -0.07107,-0.01715 -0.02859,1e-6 -0.04953,0.0087 -0.06494,0.02574 -0.01541,0.0171 -0.02328,0.03979 -0.02328,0.06739 l 0,0.550167 -0.33206,0 0,-0.942268 c 0.0099,-0.0026 0.02113,-0.006 0.03431,-0.0086 0.01208,-0.0026 0.02626,-0.0048 0.04166,-0.0061 0.0154,-0.0013 0.03289,-0.0012 0.05269,-0.0012 0.09897,10e-7 0.160826,0.03231 0.185023,0.09802 0.0054,-0.01184 0.01417,-0.02419 0.02573,-0.03798 0.01156,-0.0138 0.02505,-0.02738 0.04044,-0.0392 0.01539,-0.01184 0.03289,-0.02153 0.05269,-0.02941 0.0198,-0.0079 0.04051,-0.01103 0.0625,-0.01103 z m 1.637023,0 c 0.09018,1e-6 0.169399,0.01616 0.236487,0.04901 0.02967,0.01449 0.05305,0.03231 0.07229,0.05268 0.01925,0.02039 0.0294,0.04347 0.0294,0.07107 -10e-7,0.02363 -0.0057,0.05167 -0.01838,0.08455 -0.01263,0.03289 -0.02909,0.06532 -0.04779,0.09557 -0.03303,-0.03025 -0.06788,-0.05568 -0.104151,-0.07474 -0.03628,-0.01905 -0.07289,-0.02818 -0.110279,-0.02818 -0.04728,10e-7 -0.07107,0.01615 -0.07107,0.04901 0,0.02103 0.0094,0.03784 0.02696,0.04901 0.01758,0.01118 0.03978,0.02029 0.06617,0.02818 0.02639,0.0079 0.05498,0.01709 0.08577,0.02696 0.03078,0.0099 0.05938,0.02439 0.08577,0.04411 0.02639,0.01972 0.04856,0.04669 0.06617,0.08087 0.0176,0.03418 0.02572,0.07835 0.02572,0.133559 -10e-7,0.105198 -0.03098,0.189967 -0.09313,0.252415 -0.06213,0.06245 -0.152027,0.09313 -0.270794,0.09313 -0.06819,0 -0.121352,-0.0058 -0.159291,-0.01838 -0.03795,-0.0125 -0.06869,-0.02605 -0.09068,-0.0392 -0.02859,-0.01709 -0.04782,-0.03476 -0.05881,-0.05514 -0.01099,-0.02039 -0.01715,-0.04259 -0.01715,-0.06494 0,-0.03418 0.0071,-0.06761 0.02083,-0.100477 0.01375,-0.03286 0.0302,-0.06526 0.04779,-0.0968 0.01319,0.01444 0.02829,0.02794 0.04533,0.04044 0.01705,0.0125 0.03534,0.0238 0.05514,0.03431 0.0198,0.01051 0.03915,0.01982 0.06004,0.02574 0.02089,0.0059 0.04147,0.0086 0.06126,0.0086 0.02859,0 0.04916,-0.006 0.06127,-0.01715 0.01209,-0.01117 0.01838,-0.02457 0.01838,-0.04166 -10e-7,-0.01974 -0.0088,-0.03595 -0.02696,-0.04779 -0.01816,-0.01184 -0.041,-0.02267 -0.06739,-0.03185 -0.02639,-0.0092 -0.05512,-0.02002 -0.087,-0.03186 -0.03188,-0.01184 -0.06183,-0.02741 -0.08822,-0.04779 -0.02639,-0.02038 -0.04802,-0.04735 -0.06617,-0.08087 -0.01814,-0.03352 -0.02696,-0.07719 -0.02696,-0.131108 0,-0.05256 0.0095,-0.09902 0.02819,-0.138462 0.01869,-0.03943 0.04341,-0.07116 0.07474,-0.0968 0.03133,-0.02564 0.06713,-0.04509 0.107828,-0.05759 0.04068,-0.0125 0.08355,-0.01838 0.128659,-0.01838 z m -4.2420472,0.01961 c 0.02641,1e-6 0.05123,0.0027 0.07597,0.0086 0.02473,0.0059 0.04748,0.01675 0.06617,0.03185 0.01869,0.0151 0.03379,0.03553 0.04533,0.0625 0.01155,0.02696 0.01715,0.0621 0.01715,0.104151 l 0,0.697206 c 0,0.02893 -0.0014,0.0651 -0.0036,0.107828 -0.0022,0.04273 -0.007,0.081 -0.01471,0.115179 -0.01211,0.0526 -0.03108,0.09685 -0.05637,0.132334 -0.02529,0.03549 -0.05321,0.06407 -0.08455,0.08577 -0.03135,0.02171 -0.06369,0.03737 -0.09558,0.04656 -0.03188,0.0092 -0.05901,0.01348 -0.08209,0.01348 -0.04728,-1e-6 -0.08215,-0.01018 -0.104151,-0.03186 -0.02199,-0.02169 -0.03643,-0.05348 -0.04411,-0.09557 -0.0033,-0.0171 -0.0057,-0.03608 -0.0074,-0.05514 -0.0016,-0.01905 -0.0039,-0.04434 -0.0061,-0.0772 0.0352,-0.0039 0.06377,-0.01144 0.08577,-0.02328 0.022,-0.01184 0.03937,-0.02814 0.05146,-0.04656 0.0121,-0.01841 0.02011,-0.03941 0.0245,-0.06372 0.0044,-0.02431 0.0061,-0.05072 0.0061,-0.07965 l 0,-0.918987 c 0.01319,-0.0013 0.02737,-0.0035 0.04166,-0.0061 0.01208,-0.0026 0.02558,-0.0048 0.04044,-0.0061 0.01485,-0.0013 0.02982,-0.0012 0.04411,-0.0012 z m 3.6012062,0 c 0.02641,1e-6 0.05246,0.0027 0.0772,0.0086 0.02473,0.0059 0.04625,0.01675 0.06494,0.03185 0.01869,0.0151 0.03379,0.03553 0.04533,0.0625 0.01155,0.02696 0.01715,0.0621 0.01715,0.104151 l 0,0.697206 c 0,0.02893 -2.28e-4,0.0651 -0.0025,0.107828 -0.0022,0.04273 -0.0082,0.081 -0.01593,0.115179 -0.01211,0.0526 -0.02985,0.09685 -0.05514,0.132334 -0.02529,0.03549 -0.05443,0.06407 -0.08577,0.08577 -0.03135,0.02171 -0.06247,0.03737 -0.09435,0.04656 -0.03188,0.0092 -0.05901,0.01348 -0.08209,0.01348 -0.04728,-1e-6 -0.08215,-0.01018 -0.104153,-0.03186 -0.02199,-0.02169 -0.03765,-0.05348 -0.04533,-0.09557 -0.0033,-0.0171 -0.0057,-0.03608 -0.0074,-0.05514 -0.0016,-0.01905 -0.0027,-0.04434 -0.0049,-0.0772 0.0352,-0.0039 0.06378,-0.01144 0.08577,-0.02328 0.02199,-0.01184 0.03815,-0.02814 0.05024,-0.04656 0.0121,-0.01841 0.02134,-0.03941 0.02574,-0.06372 0.0044,-0.02431 0.0061,-0.05072 0.0061,-0.07965 l 0,-0.918987 c 0.01319,-0.0013 0.02737,-0.0035 0.04166,-0.0061 0.01208,-0.0026 0.02558,-0.0048 0.04044,-0.0061 0.01485,-0.0013 0.02859,-0.0012 0.04289,-0.0012 z m -2.88807,0.226584 c -0.05172,10e-7 -0.07842,0.04749 -0.07842,0.142136 l 0.159291,0 c -10e-7,-0.05388 -0.007,-0.09112 -0.01961,-0.111503 -0.01263,-0.02038 -0.03268,-0.03063 -0.06126,-0.03063 z m -2.0989682,0.04288 c -0.03738,2e-6 -0.06223,0.02061 -0.07597,0.06004 -0.01374,0.03944 -0.02083,0.09216 -0.02083,0.160518 l 0,0.0012 c -10e-7,0.03154 0.0016,0.06003 0.0049,0.087 0.0033,0.02696 0.0089,0.05069 0.01716,0.07107 0.0083,0.02038 0.01867,0.03718 0.03186,0.04901 0.01319,0.01184 0.03044,0.01715 0.05024,0.01715 0.01319,0 0.02293,-4.82e-4 0.03064,-0.0025 0.0077,-0.002 0.01383,-0.0036 0.01716,-0.0049 l 0,-0.425185 c -0.0066,-0.0053 -0.01528,-0.0078 -0.02574,-0.0098 -0.01046,-0.002 -0.02061,-0.0036 -0.0294,-0.0036 z m 2.9689422,0.0025 c -0.01869,0 -0.03447,0.0053 -0.04656,0.01715 -0.01209,0.01184 -0.02171,0.02806 -0.02941,0.04779 -0.0077,0.01972 -0.01317,0.04241 -0.01593,0.06739 -0.0028,0.02498 -0.0036,0.04969 -0.0036,0.07597 0,0.02893 8.96e-4,0.05703 0.0036,0.08333 0.0028,0.0263 0.0082,0.04946 0.01593,0.06985 0.0077,0.02039 0.01787,0.0372 0.02941,0.04901 0.01154,0.01182 0.02664,0.01715 0.04533,0.01715 0.01869,10e-7 0.03324,-0.0059 0.04533,-0.01838 0.0121,-0.01248 0.02159,-0.02864 0.02819,-0.04901 0.0066,-0.02038 0.01195,-0.04477 0.01471,-0.07107 0.0028,-0.0263 0.0036,-0.05317 0.0036,-0.08209 -1e-6,-0.05781 -0.0064,-0.106937 -0.01961,-0.147039 -0.01319,-0.0401 -0.03697,-0.06004 -0.07107,-0.06004 z m -2.7410332,1.226541 c 0.04507,1e-6 0.08384,0.0167 0.11518,0.05024 0.03134,0.03354 0.04656,0.07825 0.04656,0.134784 0,0.05653 -0.01522,0.101927 -0.04656,0.134785 -0.03135,0.03286 -0.07011,0.04901 -0.11518,0.04901 -0.04511,1e-6 -0.08263,-0.01615 -0.113954,-0.04901 -0.03133,-0.03286 -0.04779,-0.07826 -0.04779,-0.134785 0,-0.05653 0.01646,-0.101243 0.04779,-0.134784 0.03133,-0.03354 0.06885,-0.05024 0.113954,-0.05024 z m -1.428719,0.01715 c 0.02202,10e-7 0.04511,0.0016 0.06984,0.0049 0.02474,0.0033 0.0492,0.0081 0.07229,0.0147 0.0396,0.01183 0.07311,0.03024 0.101701,0.05391 0.02859,0.02367 0.04288,0.05823 0.04288,0.102927 0,0.01969 -0.0064,0.04612 -0.01961,0.07965 -0.0132,0.03353 -0.02936,0.06742 -0.05024,0.102927 -0.01758,-0.01184 -0.04112,-0.02305 -0.06862,-0.03553 -0.0275,-0.01248 -0.05769,-0.01961 -0.09067,-0.01961 -0.02859,10e-7 -0.05251,0.0093 -0.07229,0.02696 -0.01979,0.01774 -0.02941,0.04517 -0.02941,0.08333 l 0,0.04779 0.243838,0 0,0.294075 -0.243838,0 0,0.657994 -0.328385,0 0,-0.942268 c 0,-0.01709 6.89e-4,-0.04084 0.0012,-0.07107 5.51e-4,-0.03023 0.0014,-0.05388 0.0036,-0.07229 0.0143,-0.106481 0.0517,-0.187949 0.112729,-0.243838 0.06103,-0.05589 0.145998,-0.08455 0.254866,-0.08455 z m 3.4921522,0 c 0.02201,10e-7 0.04634,0.0016 0.07107,0.0049 0.02473,0.0033 0.04798,0.0081 0.07107,0.0147 0.0396,0.01183 0.07433,0.03024 0.102926,0.05391 0.02859,0.02367 0.04288,0.05823 0.04288,0.102927 -10e-7,0.01969 -0.0076,0.04612 -0.02083,0.07965 -0.0132,0.03353 -0.02936,0.06742 -0.05024,0.102927 -0.01758,-0.01184 -0.03989,-0.02305 -0.06739,-0.03553 -0.0275,-0.01248 -0.05892,-0.01961 -0.0919,-0.01961 -0.02859,10e-7 -0.05251,0.0093 -0.07229,0.02696 -0.01979,0.01774 -0.02941,0.04517 -0.02941,0.08333 l 0,0.04779 0.243838,0 0,0.294075 -0.243838,0 0,0.657994 -0.328385,0 0,-0.942268 c 0,-0.01709 6.88e-4,-0.04084 0.0012,-0.07107 5.51e-4,-0.03023 0.0014,-0.05388 0.0036,-0.07229 0.0143,-0.106481 0.0517,-0.187949 0.112729,-0.243838 0.06103,-0.05589 0.145997,-0.08455 0.254865,-0.08455 z m -3.0792212,0.01593 c 0.02641,2e-6 0.05246,0.0027 0.0772,0.0086 0.02474,0.0059 0.04625,0.01673 0.06494,0.03186 0.01869,0.01512 0.03379,0.03676 0.04534,0.06372 0.01154,0.02696 0.01716,0.06088 0.01716,0.102927 l 0,0.634714 c 0.0055,-0.02889 0.01486,-0.0575 0.02696,-0.08577 0.01209,-0.02827 0.02664,-0.05568 0.04533,-0.08333 l 0.08945,-0.136008 c 0.02088,-0.03153 0.04454,-0.05909 0.06984,-0.08209 0.0253,-0.023 0.05896,-0.03431 0.102927,-0.03431 0.0253,1e-6 0.05055,0.005 0.07474,0.01348 0.02419,0.0086 0.04625,0.01767 0.06494,0.02819 0.02088,0.01184 0.04012,0.02473 0.05881,0.0392 l -0.225458,0.378624 0.267119,0.487676 c -0.07259,0.03547 -0.139252,0.05269 -0.199726,0.05269 -0.05168,0 -0.09283,-0.01074 -0.122532,-0.03309 -0.0297,-0.02235 -0.05522,-0.05153 -0.07719,-0.087 l -0.105373,-0.175221 c -0.01869,-0.03021 -0.03433,-0.05947 -0.04533,-0.08577 -0.01101,-0.0263 -0.019,-0.05536 -0.02451,-0.08822 l 0,0.44724 -0.329611,0 0,-1.383381 c 0.01319,-0.0013 0.02737,-0.0035 0.04166,-0.0061 0.01208,-0.0026 0.02558,-0.0048 0.04043,-0.0061 0.01485,-0.0013 0.02859,-0.0025 0.04288,-0.0025 z m 1.447099,0 c 0.02641,2e-6 0.05124,0.0027 0.07597,0.0086 0.02474,0.0059 0.04748,0.01673 0.06617,0.03186 0.01869,0.01512 0.03379,0.03676 0.04534,0.06372 0.01154,0.02696 0.01716,0.06088 0.01716,0.102927 l 0,1.183655 c -0.04507,0.0171 -0.0861,0.02573 -0.121306,0.02573 -0.05057,0 -0.08959,-0.0076 -0.117631,-0.02206 -0.02804,-0.01446 -0.04875,-0.03392 -0.06249,-0.05759 -0.01374,-0.02367 -0.02176,-0.04997 -0.0245,-0.08087 -0.0027,-0.03089 -0.0036,-0.06384 -0.0036,-0.09802 l 0,-1.14322 c 0.01319,-0.0013 0.02614,-0.0035 0.04043,-0.0061 0.01208,-0.0026 0.02558,-0.0048 0.04043,-0.0061 0.01485,-0.0013 0.02982,-0.0025 0.04411,-0.0025 z m 0.9238892,0 c 0.02638,2e-6 0.05245,0.0027 0.0772,0.0086 0.02475,0.0059 0.04625,0.01673 0.06494,0.03186 0.01869,0.01512 0.03379,0.03676 0.04533,0.06372 0.01155,0.02696 0.01715,0.06088 0.01715,0.102927 l 0,1.191006 -0.247514,0 c -0.01651,0 -0.03093,-0.0043 -0.04411,-0.01348 -0.01319,-0.0092 -0.01961,-0.02861 -0.01961,-0.05882 -0.01541,0.02363 -0.03998,0.04465 -0.07352,0.06372 -0.03354,0.01908 -0.07563,0.02819 -0.126208,0.02819 -0.03738,0 -0.07398,-0.0063 -0.110278,-0.02083 -0.03629,-0.01446 -0.07012,-0.03983 -0.09925,-0.07597 -0.02912,-0.03615 -0.05169,-0.08582 -0.06984,-0.148263 -0.01816,-0.06245 -0.02818,-0.140576 -0.02818,-0.23526 0,-0.09465 0.0087,-0.175649 0.02573,-0.241388 0.01704,-0.06573 0.04003,-0.118548 0.06862,-0.159291 0.02859,-0.04074 0.06187,-0.06981 0.09925,-0.08822 0.03738,-0.01841 0.0757,-0.02818 0.116406,-0.02819 0.02637,0 0.05017,0.0032 0.07107,0.0098 0.02089,0.0066 0.03906,0.01473 0.05391,0.02328 0.01485,0.0086 0.02741,0.01718 0.03676,0.02573 0.0094,0.0086 0.01509,0.01445 0.01838,0.01839 l 0,-0.482775 c 0.01322,-0.0013 0.0274,-0.0035 0.04166,-0.0061 0.01211,-0.0026 0.02491,-0.0048 0.0392,-0.0061 0.0143,-0.0013 0.02859,-0.0025 0.04288,-0.0025 z m 4.294734,0.07474 c 0.07695,2e-6 0.142288,0.0151 0.197277,0.04533 0.05498,0.03023 0.0996,0.07507 0.134784,0.133559 0.03519,0.0585 0.06124,0.129715 0.0772,0.213206 0.01596,0.0835 0.0245,0.177793 0.02451,0.284272 -1e-6,0.216935 -0.03567,0.384142 -0.106601,0.501155 -0.07093,0.117013 -0.182604,0.17522 -0.333286,0.17522 -0.151759,0 -0.262493,-0.05601 -0.334513,-0.169093 -0.07202,-0.113081 -0.109053,-0.282483 -0.109053,-0.507282 0,-0.103871 0.0094,-0.197125 0.02696,-0.280596 0.01758,-0.08347 0.04458,-0.154708 0.08087,-0.213205 0.03629,-0.0585 0.08306,-0.103229 0.139686,-0.134785 0.05663,-0.03155 0.124083,-0.04779 0.202177,-0.04779 z m 0.956973,0 c 0.07148,2e-6 0.135489,0.01406 0.189925,0.04166 0.05444,0.02761 0.09973,0.06758 0.136009,0.118856 0.03627,0.05128 0.06272,0.113853 0.08087,0.187473 0.01816,0.07363 0.02818,0.155477 0.02819,0.247514 -2e-6,0.135409 -0.01656,0.252021 -0.04901,0.34799 -0.03246,0.09597 -0.0752,0.173573 -0.127434,0.234035 -0.05223,0.06046 -0.111692,0.105275 -0.17767,0.133559 -0.06598,0.02828 -0.131416,0.04166 -0.198502,0.04166 -0.03846,0 -0.06948,-0.0032 -0.09313,-0.0098 -0.02364,-0.0066 -0.04329,-0.01625 -0.05759,-0.02941 -0.0143,-0.01315 -0.02446,-0.02873 -0.02941,-0.04779 -0.005,-0.01905 -0.0074,-0.04234 -0.0074,-0.06861 0,-0.01974 0.0022,-0.04291 0.0049,-0.06985 0.0028,-0.02694 0.0052,-0.05011 0.0074,-0.06985 0.02198,0.0053 0.03962,0.0085 0.05391,0.0098 0.0143,0.0013 0.03155,0.0025 0.05024,0.0025 0.0253,0 0.05013,-0.0038 0.07597,-0.0098 0.02584,-0.0059 0.05043,-0.01495 0.07352,-0.0294 0.02309,-0.01446 0.04514,-0.0345 0.06494,-0.05881 0.0198,-0.02431 0.03582,-0.05507 0.04901,-0.0919 -0.0242,0.01841 -0.052,0.03199 -0.08332,0.0392 -0.03133,0.0073 -0.05924,0.0098 -0.08455,0.0098 -0.05279,0 -0.09888,-0.01188 -0.138461,-0.03553 -0.03959,-0.02365 -0.07285,-0.05432 -0.09925,-0.09313 -0.02639,-0.03879 -0.04684,-0.08353 -0.06004,-0.134786 -0.0132,-0.05126 -0.01961,-0.105269 -0.01961,-0.160516 0,-0.08545 0.01095,-0.158691 0.03185,-0.221782 0.02091,-0.06309 0.04961,-0.115978 0.087,-0.158066 0.03738,-0.04209 0.08162,-0.07399 0.131108,-0.09435 0.04949,-0.02036 0.102224,-0.03063 0.160518,-0.03063 z m -0.960649,0.302653 c -0.0198,10e-7 -0.03706,0.0058 -0.05024,0.01838 -0.01319,0.0125 -0.0236,0.03292 -0.03186,0.0625 -0.0082,0.02957 -0.01387,0.06842 -0.01715,0.116405 -0.0033,0.04799 -0.0049,0.106756 -0.0049,0.176446 0,0.138057 0.0079,0.235756 0.02328,0.291625 0.01539,0.05587 0.04237,0.08333 0.08087,0.08333 0.01869,0 0.03391,-0.0058 0.04656,-0.01839 0.01266,-0.0125 0.02362,-0.03414 0.03185,-0.06372 0.0082,-0.02957 0.01452,-0.06841 0.01838,-0.116404 0.0038,-0.04799 0.0049,-0.106756 0.0049,-0.176446 0,-0.06969 -0.0011,-0.12846 -0.0049,-0.176446 -0.0038,-0.04799 -0.01014,-0.08684 -0.01838,-0.116405 -0.0082,-0.02957 -0.01921,-0.04999 -0.03185,-0.0625 -0.01266,-0.01249 -0.02787,-0.01838 -0.04656,-0.01838 z m 0.9631,0.0012 c -0.02198,1e-6 -0.04029,0.01624 -0.05514,0.04779 -0.01485,0.03156 -0.02206,0.07903 -0.02206,0.142138 0,0.06439 0.0081,0.111322 0.02574,0.140911 0.0176,0.02959 0.04286,0.04411 0.07474,0.04411 0.02531,0 0.04759,-0.0032 0.06739,-0.0098 0.0022,-0.01969 0.0038,-0.03965 0.0049,-0.06004 0.0011,-0.02038 0.0012,-0.04137 0.0012,-0.06372 -10e-7,-0.03158 -8.95e-4,-0.06175 -0.0036,-0.09067 -0.0028,-0.02893 -0.0082,-0.05485 -0.01593,-0.0772 -0.0077,-0.02235 -0.01731,-0.04077 -0.0294,-0.05391 -0.0121,-0.01313 -0.02799,-0.01961 -0.04779,-0.01961 z m -3.624487,0.04166 c 0.09018,2e-6 0.1694,0.01615 0.236486,0.04901 0.02967,0.01448 0.05427,0.03231 0.07352,0.05269 0.01925,0.02038 0.02818,0.04468 0.02819,0.07229 -2e-6,0.02363 -0.0057,0.05167 -0.01838,0.08455 -0.01263,0.03288 -0.02786,0.0641 -0.04656,0.09435 -0.03303,-0.03025 -0.06788,-0.05446 -0.104151,-0.07352 -0.03628,-0.01905 -0.07289,-0.0294 -0.110278,-0.0294 -0.04728,1e-6 -0.07107,0.01737 -0.07107,0.05024 0,0.02103 0.0081,0.03661 0.02574,0.04779 0.01758,0.01117 0.03978,0.02029 0.06617,0.02819 0.02639,0.0079 0.05498,0.01709 0.08577,0.02696 0.03079,0.0099 0.05937,0.02439 0.08577,0.04411 0.02639,0.01972 0.04857,0.04669 0.06617,0.08087 0.0176,0.03418 0.02574,0.07958 0.02574,0.134785 0,0.105197 -0.03099,0.188742 -0.09313,0.25119 -0.06213,0.06245 -0.152028,0.09312 -0.270795,0.09312 -0.06819,0 -0.121351,-0.0058 -0.159291,-0.01838 -0.03794,-0.0125 -0.06747,-0.02483 -0.08944,-0.03798 -0.02859,-0.01709 -0.04906,-0.03599 -0.06004,-0.05637 -0.01099,-0.02038 -0.01593,-0.04137 -0.01593,-0.06372 0,-0.03418 0.0071,-0.06761 0.02083,-0.100475 0.01375,-0.03287 0.02898,-0.06526 0.04656,-0.0968 0.01319,0.01444 0.02829,0.02794 0.04533,0.04044 0.01705,0.01249 0.03534,0.0238 0.05514,0.03431 0.0198,0.01051 0.04038,0.01859 0.06126,0.02451 0.02089,0.0059 0.04147,0.0086 0.06126,0.0086 0.02859,0 0.04795,-0.0048 0.06004,-0.01593 0.0121,-0.01117 0.01839,-0.02579 0.01839,-0.04288 -1e-6,-0.01974 -0.0088,-0.03595 -0.02696,-0.04779 -0.01816,-0.01184 -0.041,-0.02145 -0.06739,-0.03063 -0.02639,-0.0092 -0.05512,-0.02002 -0.087,-0.03185 -0.03188,-0.01184 -0.06061,-0.02864 -0.087,-0.04901 -0.02639,-0.02038 -0.04926,-0.04735 -0.06739,-0.08087 -0.01814,-0.03352 -0.02696,-0.07719 -0.02696,-0.131109 0,-0.05256 0.0095,-0.0978 0.02818,-0.137235 0.01869,-0.03943 0.04341,-0.07238 0.07474,-0.09803 0.03133,-0.02564 0.06714,-0.04509 0.107829,-0.05759 0.04069,-0.0125 0.08355,-0.01839 0.128658,-0.01839 z m 0.812385,0 c 0.128668,2e-6 0.220155,0.03019 0.275696,0.09068 0.05554,0.06048 0.08332,0.156473 0.08333,0.287949 l 0,0.384749 c -10e-7,0.03286 0.003,0.06903 0.0074,0.107828 0.0044,0.03879 0.01069,0.07278 0.01838,0.101701 -0.01541,0.0053 -0.02958,0.009 -0.04166,0.01226 -0.01208,0.0033 -0.02397,0.0053 -0.03553,0.0074 -0.01156,0.002 -0.02412,0.0043 -0.03676,0.0049 -0.01263,6.66e-4 -0.02626,0 -0.04166,0 -0.08907,0 -0.140094,-0.03016 -0.15439,-0.09068 -0.01869,0.02235 -0.04703,0.04285 -0.08332,0.06127 -0.03629,0.01841 -0.08227,0.02819 -0.137235,0.02819 -0.0341,0 -0.06669,-0.0054 -0.09803,-0.01593 -0.03135,-0.01051 -0.05913,-0.02723 -0.08332,-0.05024 -0.0242,-0.023 -0.04329,-0.05321 -0.05759,-0.09067 -0.0143,-0.03748 -0.02083,-0.08331 -0.02083,-0.137235 -10e-7,-0.07623 0.0167,-0.137215 0.05024,-0.182571 0.03354,-0.04536 0.07346,-0.07926 0.121307,-0.102927 0.04784,-0.02367 0.09836,-0.03878 0.149489,-0.04533 0.05113,-0.0066 0.0948,-0.0098 0.131109,-0.0098 l 0,-0.02819 c -10e-7,-0.01841 -0.0031,-0.03293 -0.0086,-0.04411 -0.0055,-0.01118 -0.0127,-0.01982 -0.02206,-0.02573 -0.0094,-0.0059 -0.02044,-0.01028 -0.03309,-0.01226 -0.01266,-0.002 -0.02615,-0.0025 -0.04043,-0.0025 -0.03846,2e-6 -0.07656,0.0059 -0.113956,0.01839 -0.0374,0.01249 -0.0788,0.03249 -0.124982,0.05881 -0.0209,-0.03025 -0.03735,-0.06052 -0.04779,-0.08944 -0.01043,-0.02893 -0.01593,-0.0505 -0.01593,-0.06494 0,-0.01974 0.0062,-0.03863 0.01715,-0.05637 0.011,-0.01774 0.0333,-0.03663 0.06739,-0.05637 0.0297,-0.01841 0.0695,-0.03237 0.12008,-0.04288 0.05057,-0.01051 0.102825,-0.01593 0.155616,-0.01593 z m 1.017013,0 c 0.0341,2e-6 0.06842,0.0081 0.104151,0.02328 0.03573,0.01513 0.06888,0.03982 0.09802,0.07596 0.02914,0.03615 0.05293,0.08469 0.07107,0.145813 0.01814,0.06112 0.02696,0.137195 0.02696,0.227908 -10e-7,0.106522 -0.0095,0.193872 -0.02819,0.262218 -0.01869,0.06835 -0.04395,0.122866 -0.07474,0.162967 -0.03079,0.0401 -0.06499,0.0682 -0.102927,0.08333 -0.03794,0.01513 -0.07546,0.02206 -0.113954,0.02206 -0.02967,0 -0.05576,-0.0038 -0.0772,-0.01103 -0.02145,-0.0073 -0.03906,-0.01586 -0.05391,-0.02573 -0.01485,-0.0099 -0.0273,-0.0184 -0.03553,-0.02696 -0.0082,-0.0086 -0.01237,-0.01445 -0.01348,-0.01838 l 0,0.48645 -0.32716,0 0,-1.372355 c 0.0099,-0.0026 0.02235,-0.0048 0.03553,-0.0073 0.01208,-0.0026 0.02503,-0.0048 0.04044,-0.0061 0.01541,-0.0013 0.03289,-0.0025 0.05268,-0.0025 0.100075,2e-6 0.161933,0.03124 0.185023,0.09435 0.01869,-0.03025 0.04487,-0.05663 0.07842,-0.07965 0.03354,-0.02301 0.0787,-0.03431 0.134785,-0.03431 z m -4.8436772,0.01961 c 0.02641,2e-6 0.05124,0.0027 0.07597,0.0086 0.02474,0.0059 0.04748,0.01675 0.06617,0.03185 0.01869,0.0151 0.03379,0.03676 0.04534,0.06372 0.01154,0.02696 0.01716,0.06088 0.01716,0.102927 l 0,0.69843 c 0,0.02893 -0.0014,0.0651 -0.0036,0.107828 -0.0022,0.04273 -0.007,0.081 -0.01471,0.115179 -0.01212,0.0526 -0.03108,0.09685 -0.05636,0.132335 -0.02529,0.03548 -0.0532,0.06407 -0.08455,0.08577 -0.03134,0.02171 -0.06369,0.03615 -0.09557,0.04533 -0.03188,0.0092 -0.05901,0.0147 -0.0821,0.0147 -0.04728,0 -0.08215,-0.0114 -0.104152,-0.03308 -0.022,-0.02169 -0.03643,-0.05349 -0.04411,-0.09557 -0.0033,-0.01709 -0.0057,-0.03486 -0.0074,-0.05391 -0.0017,-0.01905 -0.0039,-0.04556 -0.0061,-0.07842 0.0352,-0.0039 0.06377,-0.01145 0.08577,-0.02328 0.022,-0.01184 0.03937,-0.02692 0.05146,-0.04533 0.0121,-0.01841 0.02011,-0.0394 0.02451,-0.06372 0.0044,-0.02431 0.0073,-0.05195 0.0073,-0.08087 l 0,-0.918987 c 0.01319,-0.0013 0.02614,-0.0023 0.04043,-0.0049 0.01208,-0.0026 0.02558,-0.0048 0.04043,-0.0061 0.01485,-0.0013 0.02982,-0.0025 0.04411,-0.0025 z m 4.6954142,0.262218 c -0.01322,10e-7 -0.02417,0.0017 -0.03186,0.0036 -0.0076,0.002 -0.0126,0.0036 -0.01593,0.0049 l 0,0.398228 c 0.0066,0.0053 0.01405,0.0091 0.02451,0.01103 0.01045,0.002 0.02061,0.0025 0.02941,0.0025 0.03738,0 0.06345,-0.02101 0.0772,-0.06372 0.01374,-0.04271 0.01961,-0.09828 0.01961,-0.166642 0,-0.05918 -0.0073,-0.106164 -0.02206,-0.139687 -0.01485,-0.03352 -0.04131,-0.05024 -0.08087,-0.05024 z m -3.5044052,0.0086 c -0.03013,0.0043 -0.05047,0.02431 -0.0625,0.05881 -0.01375,0.03944 -0.02083,0.09338 -0.02083,0.161742 0,0.03154 0.0016,0.06126 0.0049,0.08822 0.0033,0.02696 0.0089,0.04946 0.01715,0.06985 0.0082,0.02038 0.01867,0.03718 0.03186,0.04901 0.01319,0.01184 0.03044,0.01715 0.05024,0.01715 0.01319,0 0.02293,-4.59e-4 0.03063,-0.0025 0.0077,-0.002 0.01383,-0.0036 0.01715,-0.0049 l 0,-0.42396 c -0.0066,-0.0053 -0.01527,-0.0091 -0.02574,-0.01103 -0.01045,-0.002 -0.02061,-0.0025 -0.0294,-0.0025 -0.0047,0 -0.0092,-6.2e-4 -0.01348,0 z m 2.6871182,0.24629 c -0.02088,0.0026 -0.04133,0.007 -0.06004,0.01226 -0.01871,0.0053 -0.03527,0.01221 -0.04901,0.02206 -0.01374,0.0099 -0.02362,0.02219 -0.03185,0.03798 -0.0082,0.01579 -0.01348,0.03631 -0.01348,0.06126 0,0.03025 0.0071,0.05341 0.02083,0.06985 0.01375,0.01643 0.03339,0.02574 0.05759,0.02574 0.0198,0 0.0373,-0.0054 0.05269,-0.01593 0.01539,-0.01051 0.02328,-0.02673 0.02328,-0.04779 l 0,-0.165418 z m 3.50073,0.104151 c 0.04617,0 0.08358,0.01671 0.112729,0.05024 0.02914,0.03353 0.04411,0.07723 0.04411,0.131109 -1e-6,0.05392 -0.01418,0.09871 -0.04166,0.133559 -0.02748,0.03484 -0.06568,0.05146 -0.11518,0.05146 -0.0484,0 -0.08714,-0.01662 -0.11518,-0.05146 -0.02804,-0.03484 -0.04166,-0.07964 -0.04166,-0.133559 0,-0.05389 0.01564,-0.09759 0.04533,-0.131109 0.0297,-0.03352 0.06643,-0.05024 0.111503,-0.05024 z m -5.594795,0.877327 c 0.04507,1e-6 0.08261,0.0167 0.113954,0.05024 0.03135,0.03354 0.04779,0.07948 0.04779,0.13601 0,0.05653 -0.01644,0.100701 -0.04779,0.133559 -0.03135,0.03286 -0.06888,0.04901 -0.113954,0.04901 -0.0451,1e-6 -0.08385,-0.01615 -0.115181,-0.04901 -0.03132,-0.03286 -0.04656,-0.07703 -0.04656,-0.133559 0,-0.05653 0.01523,-0.102467 0.04656,-0.13601 0.03133,-0.03354 0.07007,-0.05024 0.115181,-0.05024 z m -1.2939352,0.01839 c 0.02202,1e-6 0.04633,0.0016 0.07107,0.0049 0.02474,0.0033 0.04798,0.0081 0.07107,0.01471 0.0396,0.01184 0.07433,0.02902 0.102927,0.05268 0.02859,0.02367 0.04288,0.05823 0.04288,0.102926 0,0.0197 -0.0076,0.04612 -0.02083,0.07965 -0.0132,0.03352 -0.02936,0.06864 -0.05024,0.104152 -0.01758,-0.01184 -0.04112,-0.02429 -0.06862,-0.03676 -0.0275,-0.01248 -0.05769,-0.01838 -0.09067,-0.01838 -0.02859,10e-7 -0.05251,0.008 -0.07229,0.02573 -0.01978,0.01773 -0.02941,0.04639 -0.02941,0.08455 l 0,0.04656 0.243838,0 0,0.294076 -0.243838,0 0,0.65922 -0.328385,0 0,-0.943494 c 0,-0.01709 6.89e-4,-0.03961 0.0012,-0.06985 5.51e-4,-0.03023 0.0014,-0.05511 0.0036,-0.07352 0.0143,-0.10648 0.0517,-0.187949 0.112729,-0.243839 0.06103,-0.05589 0.145997,-0.08332 0.254866,-0.08332 z m 1.9715342,0 c 0.02202,1e-6 0.04633,0.0016 0.07107,0.0049 0.02473,0.0033 0.04798,0.0081 0.07107,0.01471 0.0396,0.01184 0.07433,0.02902 0.102927,0.05268 0.02859,0.02367 0.04288,0.05823 0.04288,0.102926 0,0.0197 -0.0064,0.04612 -0.01961,0.07965 -0.0132,0.03352 -0.03058,0.06864 -0.05146,0.104152 -0.01758,-0.01184 -0.03989,-0.02429 -0.06739,-0.03676 -0.0275,-0.01248 -0.05768,-0.01838 -0.09068,-0.01838 -0.02859,10e-7 -0.05373,0.008 -0.07352,0.02573 -0.01979,0.01773 -0.02941,0.04639 -0.02941,0.08455 l 0,0.04656 0.243838,0 0,0.294076 -0.243838,0 0,0.65922 -0.328384,0 0,-0.943494 c 0,-0.01709 6.89e-4,-0.03961 0.0012,-0.06985 5.51e-4,-0.03023 0.0014,-0.05511 0.0036,-0.07352 0.0143,-0.10648 0.0517,-0.187949 0.112731,-0.243839 0.06103,-0.05589 0.145996,-0.08332 0.254865,-0.08332 z m 2.021773,0.01593 c 0.02641,2e-6 0.05123,0.0027 0.07597,0.0086 0.02473,0.0059 0.04625,0.01673 0.06494,0.03185 0.01869,0.01513 0.03379,0.03553 0.04533,0.06249 0.01155,0.02696 0.01715,0.06211 0.01715,0.104153 l 0,0.634713 c 0.0055,-0.02889 0.01485,-0.0575 0.02696,-0.08577 0.0121,-0.02827 0.02786,-0.0569 0.04656,-0.08455 l 0.08822,-0.13601 c 0.02088,-0.03153 0.04454,-0.05786 0.06985,-0.08087 0.02531,-0.023 0.06019,-0.03553 0.104152,-0.03553 0.02531,0 0.04932,0.005 0.07352,0.01348 0.02419,0.0086 0.04625,0.01767 0.06494,0.02819 0.02087,0.01184 0.04012,0.02473 0.05881,0.0392 l -0.225459,0.378622 0.267119,0.487676 c -0.07259,0.03547 -0.139252,0.05269 -0.199726,0.05269 -0.05168,0 -0.09283,-0.01073 -0.122532,-0.03308 -0.0297,-0.02235 -0.05521,-0.05153 -0.0772,-0.087 l -0.105376,-0.17522 c -0.01869,-0.03021 -0.0331,-0.05825 -0.04411,-0.08455 -0.01101,-0.0263 -0.02023,-0.0566 -0.02574,-0.08944 l 0,0.448467 -0.32961,0 0,-1.384607 c 0.01319,-0.0013 0.02737,-0.0035 0.04166,-0.0061 0.01208,-0.0026 0.02558,-0.0048 0.04043,-0.0061 0.01485,-0.0013 0.02982,-0.0012 0.04411,-0.0012 z m 0.985154,0 c 0.02641,2e-6 0.05246,0.0027 0.0772,0.0086 0.02473,0.0059 0.04625,0.01673 0.06494,0.03185 0.01869,0.01513 0.03379,0.03553 0.04533,0.06249 0.01155,0.02696 0.01715,0.06211 0.01715,0.104153 l 0,1.182429 c -0.04508,0.0171 -0.08488,0.02574 -0.120082,0.02574 -0.05057,0 -0.08959,-0.0063 -0.11763,-0.02083 -0.02804,-0.01446 -0.04997,-0.03393 -0.06372,-0.05759 -0.01375,-0.02367 -0.02175,-0.0512 -0.02451,-0.08209 -0.0028,-0.03089 -0.0036,-0.06384 -0.0036,-0.09803 l 0,-1.143221 c 0.01319,-0.0013 0.02614,-0.0035 0.04044,-0.0061 0.01208,-0.0026 0.02558,-0.0048 0.04044,-0.0061 0.01485,-0.0013 0.02982,-0.0012 0.04411,-0.0012 z m -4.3094382,0.419058 c 0.06709,10e-7 0.124258,0.01187 0.1715442,0.03553 0.04728,0.02366 0.08604,0.05614 0.11518,0.09557 0.02915,0.03944 0.0493,0.08466 0.0625,0.137236 0.01319,0.05258 0.02083,0.108789 0.02083,0.166643 -1e-6,0.0066 -1e-6,0.01456 0,0.02574 -1e-6,0.01117 -6.66e-4,0.02247 -0.0012,0.03431 -5.74e-4,0.01184 -6.89e-4,0.0238 -0.0012,0.03431 -5.51e-4,0.01051 -0.0013,0.01802 -0.0025,0.02328 l -0.4411142,0 c 0.0055,0.04994 0.02128,0.09258 0.04657,0.127434 0.02529,0.03484 0.06523,0.05268 0.121305,0.05268 0.044,0 0.08182,-0.0088 0.1115042,-0.02451 0.02969,-0.01577 0.05852,-0.03617 0.08822,-0.06249 0.0143,0.02632 0.02859,0.05649 0.04289,0.09067 0.01429,0.03418 0.02205,0.0644 0.02206,0.09068 -2e-6,0.02235 -0.0048,0.04277 -0.01471,0.0625 -0.0099,0.01972 -0.02742,0.03918 -0.05268,0.05759 -0.0242,0.01709 -0.05678,0.03105 -0.09802,0.04289 -0.04125,0.01184 -0.0928,0.01838 -0.1543902,0.01838 -0.04508,0 -0.09411,-0.0065 -0.145813,-0.01961 -0.0517,-0.01316 -0.09938,-0.03908 -0.143363,-0.0772 -0.04398,-0.03812 -0.07991,-0.09149 -0.109053,-0.160516 -0.02915,-0.06902 -0.04411,-0.159057 -0.04411,-0.270795 0,-0.08285 0.01189,-0.155193 0.03553,-0.215656 0.02364,-0.06046 0.05396,-0.110049 0.0919,-0.149488 0.03794,-0.03943 0.08216,-0.06859 0.131109,-0.087 0.04894,-0.01841 0.09757,-0.02818 0.147037,-0.02818 z m 1.9629572,0 c 0.128668,10e-7 0.22138,0.03141 0.276921,0.0919 0.05554,0.06048 0.08333,0.155247 0.08333,0.286724 l 0,0.384748 c 0,0.03286 0.0017,0.06903 0.0061,0.107828 0.0044,0.03879 0.01069,0.07278 0.01838,0.101702 -0.01541,0.0053 -0.02958,0.009 -0.04166,0.01226 -0.01208,0.0033 -0.02275,0.0066 -0.03431,0.0086 -0.01156,0.002 -0.02412,0.0031 -0.03676,0.0036 -0.01263,6.66e-4 -0.02626,0.0012 -0.04166,0.0012 -0.08907,0 -0.141318,-0.03016 -0.155615,-0.09067 -0.01869,0.02235 -0.0458,0.04285 -0.08209,0.06126 -0.03629,0.01841 -0.08226,0.02696 -0.137236,0.02696 -0.0341,0 -0.06669,-0.0054 -0.09802,-0.01593 -0.03135,-0.01051 -0.05913,-0.02723 -0.08332,-0.05024 -0.0242,-0.023 -0.04329,-0.0532 -0.05759,-0.09068 -0.0143,-0.03748 -0.02206,-0.08331 -0.02206,-0.137234 0,-0.07623 0.0167,-0.13599 0.05024,-0.181347 0.03354,-0.04535 0.0747,-0.08048 0.122532,-0.104153 0.04784,-0.02367 0.09713,-0.03877 0.148263,-0.04533 0.05113,-0.0066 0.0948,-0.0098 0.131109,-0.0098 l 0,-0.02819 c 0,-0.01841 -0.0031,-0.03293 -0.0086,-0.04411 -0.0055,-0.01118 -0.0127,-0.01982 -0.02206,-0.02572 -0.0094,-0.0059 -0.02044,-0.0091 -0.03308,-0.01103 -0.01265,-0.002 -0.02615,-0.0036 -0.04044,-0.0036 -0.03846,1e-6 -0.07655,0.0072 -0.113954,0.01961 -0.0374,0.01249 -0.07881,0.03127 -0.124982,0.05759 -0.02091,-0.03025 -0.03612,-0.0593 -0.04656,-0.08822 -0.01043,-0.02893 -0.01593,-0.05173 -0.01593,-0.06617 0,-0.01974 0.005,-0.0374 0.01593,-0.05514 0.011,-0.01773 0.03452,-0.03663 0.06861,-0.05637 0.0297,-0.01841 0.0695,-0.0336 0.120081,-0.04411 0.05057,-0.01051 0.101599,-0.01592 0.15439,-0.01593 z m 0.796455,0 c 0.09018,10e-7 0.168174,0.01737 0.235261,0.05024 0.02967,0.01449 0.05427,0.03108 0.07352,0.05146 0.01924,0.02038 0.0294,0.04468 0.02941,0.07229 0,0.02363 -0.007,0.05167 -0.01961,0.08455 -0.01263,0.03289 -0.02786,0.06532 -0.04656,0.09558 -0.03303,-0.03025 -0.06787,-0.05568 -0.10415,-0.07474 -0.03628,-0.01905 -0.07289,-0.02818 -0.11028,-0.02818 -0.04728,1e-6 -0.07107,0.01615 -0.07107,0.04901 0,0.02103 0.0094,0.03784 0.02696,0.04901 0.01758,0.01118 0.03978,0.02029 0.06617,0.02819 0.02639,0.0079 0.05498,0.01709 0.08577,0.02696 0.03078,0.0099 0.05938,0.02439 0.08577,0.04411 0.02639,0.01972 0.04734,0.04669 0.06494,0.08087 0.0176,0.03418 0.02696,0.07835 0.02696,0.133559 0,0.105199 -0.03098,0.188743 -0.09313,0.25119 -0.06213,0.06245 -0.153252,0.09435 -0.27202,0.09435 -0.06819,0 -0.121352,-0.0058 -0.159291,-0.01838 -0.03794,-0.0125 -0.06747,-0.02605 -0.08944,-0.0392 -0.02859,-0.0171 -0.04782,-0.03599 -0.05881,-0.05637 -0.01099,-0.02038 -0.01715,-0.04137 -0.01715,-0.06372 0,-0.03418 0.0071,-0.06761 0.02083,-0.100477 0.01375,-0.03286 0.02898,-0.06526 0.04656,-0.0968 0.01319,0.01444 0.02828,0.02794 0.04533,0.04044 0.01705,0.01249 0.03656,0.0238 0.05637,0.03431 0.0198,0.01051 0.03916,0.01858 0.06004,0.02451 0.02088,0.0059 0.04147,0.0098 0.06126,0.0098 0.02859,0 0.04917,-0.006 0.06126,-0.01715 0.0121,-0.01118 0.01838,-0.02579 0.01838,-0.04289 -10e-7,-0.01974 -0.0088,-0.03473 -0.02696,-0.04656 -0.01815,-0.01184 -0.041,-0.02267 -0.06739,-0.03186 -0.02639,-0.0092 -0.05512,-0.02002 -0.087,-0.03185 -0.03188,-0.01184 -0.06183,-0.02741 -0.08822,-0.04779 -0.02639,-0.02038 -0.04802,-0.04735 -0.06617,-0.08087 -0.01814,-0.03353 -0.02696,-0.07719 -0.02696,-0.131109 0,-0.05256 0.0083,-0.09902 0.02696,-0.13846 0.01869,-0.03943 0.04464,-0.07239 0.07597,-0.09803 0.03133,-0.02564 0.06714,-0.04387 0.107829,-0.05637 0.04068,-0.0125 0.08355,-0.01961 0.128658,-0.01961 z m -2.163909,0.02083 c 0.02641,2e-6 0.05123,0.0027 0.07597,0.0086 0.02473,0.0059 0.04625,0.01675 0.06494,0.03185 0.01869,0.0151 0.03379,0.03553 0.04533,0.06249 0.01154,0.02696 0.01715,0.06211 0.01715,0.104152 l 0,0.697205 c -1e-6,0.02893 -2.27e-4,0.0651 -0.0025,0.107828 -0.0022,0.04273 -0.007,0.081 -0.01471,0.115179 -0.01211,0.0526 -0.03108,0.09685 -0.05637,0.132335 -0.02529,0.03548 -0.05321,0.06407 -0.08455,0.08577 -0.03135,0.02171 -0.06369,0.03738 -0.09557,0.04656 -0.03188,0.0092 -0.05901,0.01348 -0.08209,0.01348 -0.04728,-10e-7 -0.08215,-0.01017 -0.104151,-0.03185 -0.02199,-0.02169 -0.03643,-0.05472 -0.04411,-0.0968 -0.0033,-0.0171 -0.0057,-0.03486 -0.0074,-0.05391 -0.0016,-0.01905 -0.0039,-0.04434 -0.0061,-0.0772 0.03521,-0.0039 0.06377,-0.01268 0.08577,-0.02451 0.02199,-0.01184 0.03937,-0.02692 0.05146,-0.04533 0.0121,-0.01841 0.02011,-0.03941 0.0245,-0.06372 0.0044,-0.02431 0.0061,-0.05072 0.0061,-0.07965 l 0,-0.918986 c 0.01319,-0.0013 0.02737,-0.0035 0.04166,-0.0061 0.01208,-0.0026 0.02558,-0.0048 0.04044,-0.0061 0.01485,-0.0013 0.02982,-0.0012 0.04411,-0.0012 z m -0.5991792,0.226675 c -0.05172,2e-6 -0.0772,0.04749 -0.0772,0.142138 l 0.158066,0 c -10e-7,-0.05389 -0.0057,-0.09112 -0.01838,-0.111505 -0.01263,-0.02038 -0.0339,-0.03063 -0.0625,-0.03063 z m 2.0180962,0.289175 c -0.02088,0.0026 -0.0401,0.007 -0.05881,0.01226 -0.01871,0.0053 -0.03527,0.01221 -0.04901,0.02206 -0.01375,0.0099 -0.02485,0.02343 -0.03309,0.0392 -0.0082,0.01579 -0.01226,0.03631 -0.01226,0.06127 -1e-6,0.03025 0.0071,0.05341 0.02083,0.06985 0.01375,0.01643 0.03217,0.0245 0.05637,0.0245 0.0198,0 0.0373,-0.0054 0.05269,-0.01593 0.01539,-0.01051 0.02328,-0.02673 0.02328,-0.04779 l 0,-0.165418 z"
     id="rect3812"
     style="color:#000000;font-style:normal;font-variant:normal;font-weight:normal;font-stretch:normal;font-size:medium;line-height:normal;font-family:'Bitstream Vera Sans';-inkscape-font-specification:'Bitstream Vera Sans';text-indent:0;text-align:start;text-decoration:none;text-decoration-line:none;letter-spacing:normal;word-spacing:normal;text-transform:none;direction:ltr;block-progression:tb;writing-mode:lr-tb;text-anchor:start;display:inline;overflow:visible;visibility:visible;opacity:0.75;fill:#b26609;fill-opacity:1;stroke:none;stroke-width:35;marker:none;enable-background:accumulate"
     inkscape:connector-curvature="0" />
  <path
     d="m 5.0936108,17.253631 12.8311602,0 0.715901,0.991248 -14.2543372,0 0.707276,-0.991248 z"
     id="path4453"
     sodipodi:nodetypes="ccccc"
     style="opacity:0.75;fill:#b26609;fill-opacity:1;stroke:#b26609;stroke-width:0.50756156;stroke-linecap:round;stroke-linejoin:round;stroke-miterlimit:4;stroke-dasharray:none;stroke-opacity:1"
     inkscape:connector-curvature="0" />
  <path
     d="m 4.2208678,20.920967 14.5766442,0 10e-7,-1.707149 -14.5680182,0 -0.0086,1.707149 z"
     id="path4457"
     sodipodi:nodetypes="ccccc"
     style="opacity:0.75;fill:#b26609;fill-opacity:1;stroke:#b26609;stroke-width:0.50756156;stroke-linecap:round;stroke-linejoin:round;stroke-miterlimit:4;stroke-dasharray:none;stroke-opacity:1"
     inkscape:connector-curvature="0" />
</svg>
