/* XPM */
static char *noname[] = {
/* width height ncolors chars_per_pixel */
"32 32 2 1",
/* colors */
"  c #ffffff",
". c None",
/* pixels */
"............... ................",
"...............   ..............",
"...............      ...........",
"................        ........",
"..........                ......",
".......                      ...",
".....                          .",
"....                         ...",
"...                       ......",
"..            .        .........",
".        ......     ............",
".      ........  ...............",
".     ..........................",
"      ..........................",
"      ..........................",
"      ..........................",
"     ...........................",
"     ...........................",
"     ...........................",
"     ...........................",
"     ...........................",
"     ...........................",
"     ...........................",
"     ...........................",
"     ...........................",
"     ...........................",
"     ...........................",
"     ...........................",
"     ...........................",
"     ...........................",
"     ...........................",
"     ..........................."
};
