<?xml version="1.0" encoding="UTF-8" standalone="no"?>
<!-- Created with Inkscape (http://www.inkscape.org/) -->
<svg
   xmlns:svg="http://www.w3.org/2000/svg"
   xmlns="http://www.w3.org/2000/svg"
   version="1.0"
   width="64"
   height="64"
   id="svg2">
  <defs
     id="defs11">
    <marker
       refX="0"
       refY="0"
       orient="auto"
       style="overflow:visible"
       id="DistanceIn">
      <g
         id="g2300">
        <path
           d="M 0,0 L 2,0"
           style="fill:none;stroke:#ffffff;stroke-width:1.14999998;stroke-linecap:square"
           id="path2306" />
        <path
           d="M 0,0 L 13,4 L 9,0 L 13,-4 L 0,0 z "
           style="fill:#000000;fill-rule:evenodd;stroke:none"
           id="path2302" />
        <path
           d="M 0,-4 L 0,40"
           style="fill:none;stroke:#000000;stroke-width:1;stroke-linecap:square"
           id="path2304" />
      </g>
    </marker>
    <marker
       refX="0"
       refY="0"
       orient="auto"
       style="overflow:visible"
       id="SemiCircleOut">
      <path
         d="M -2.5,-0.80913858 C -2.5,1.9508614 -4.74,4.1908614 -7.5,4.1908614 L -7.5,-5.8091386 C -4.74,-5.8091386 -2.5,-3.5691386 -2.5,-0.80913858 z "
         transform="matrix(0.6,0,0,0.6,4.2752958,0.4580676)"
         style="fill-rule:evenodd;stroke:#000000;stroke-width:1pt;marker-start:none;marker-end:none"
         id="path8204" />
    </marker>
  </defs>
  <g
     transform="matrix(1,0.1763263,0,1,6,1.0386167)"
     id="g6126">
    <g
       transform="translate(3,0)"
       id="g4172">
      <rect
         width="7"
         height="7"
         x="2"
         y="3"
         style="stroke-width:1;stroke-miterlimit:4;stroke-dasharray:none"
         id="rect4126" />
      <rect
         width="7"
         height="7"
         x="9"
         y="10"
         style="stroke-width:1;stroke-miterlimit:4;stroke-dasharray:none"
         id="rect4150" />
      <rect
         width="7"
         height="7"
         x="16"
         y="17"
         style="stroke-width:1;stroke-miterlimit:4;stroke-dasharray:none"
         id="rect4152" />
      <rect
         width="7"
         height="7"
         x="23"
         y="24"
         style="stroke-width:1;stroke-miterlimit:4;stroke-dasharray:none"
         id="rect4154" />
      <rect
         width="7"
         height="7"
         x="30"
         y="17"
         style="stroke-width:1;stroke-miterlimit:4;stroke-dasharray:none"
         id="rect4156" />
      <rect
         width="7"
         height="7"
         x="37"
         y="10"
         style="stroke-width:1;stroke-miterlimit:4;stroke-dasharray:none"
         id="rect4158" />
      <rect
         width="7"
         height="7"
         x="30"
         y="3"
         style="stroke-width:1;stroke-miterlimit:4;stroke-dasharray:none"
         id="rect4160" />
      <rect
         width="7"
         height="7"
         x="23"
         y="10"
         style="stroke-width:1;stroke-miterlimit:4;stroke-dasharray:none"
         id="rect4162" />
      <rect
         width="7"
         height="7"
         x="16"
         y="3"
         style="stroke-width:1;stroke-miterlimit:4;stroke-dasharray:none"
         id="rect4164" />
      <rect
         width="7"
         height="7"
         x="37"
         y="24"
         style="stroke-width:1;stroke-miterlimit:4;stroke-dasharray:none"
         id="rect4166" />
      <rect
         width="7"
         height="7"
         x="9"
         y="24"
         style="stroke-width:1;stroke-miterlimit:4;stroke-dasharray:none"
         id="rect4168" />
      <rect
         width="7"
         height="7"
         x="2"
         y="17"
         style="stroke-width:1;stroke-miterlimit:4;stroke-dasharray:none"
         id="rect4170" />
    </g>
    <path
       d="M 4,2.2560781 L 48,2.0081033 L 48,32 L 4,32 L 4,2.2560781 z "
       style="fill:none;fill-rule:evenodd;stroke:#000000;stroke-width:3;stroke-linecap:butt;stroke-linejoin:miter;stroke-miterlimit:4;stroke-dasharray:none;stroke-opacity:1"
       id="path4186" />
  </g>
  <path
     d="M 10,33.743922 L 10,62"
     style="fill:none;fill-rule:evenodd;stroke:#000000;stroke-width:3;stroke-linecap:round;stroke-linejoin:miter;marker-end:none;stroke-miterlimit:4;stroke-dasharray:none;stroke-opacity:1"
     id="path6142" />
</svg>
