/* XPM */
static char * turn_rightv2_sv_xpm[] = {
"64 64 2 1",
" 	c None",
".	c #000000",
"                             .                                  ",
"                              ..                                ",
"                              .....                             ",
"                               ......                           ",
"                               .........                        ",
"                               ............                     ",
"                                .............                   ",
"                                ................                ",
"                          ........................              ",
"                    .................................           ",
"                .......................................         ",
"             .............................................      ",
"           ..................................................   ",
"          ...................................................   ",
"        ..................................................      ",
"       ................................................         ",
"      ..............................................            ",
"     ............................................               ",
"     .......................   ...............                  ",
"    ..................         ............                     ",
"   ...............             .........                        ",
"   .............              ........                          ",
"  .............               .....                             ",
"  ...........                ...                                ",
"  ...........                                                   ",
" ...........                                                    ",
" ...........                                                    ",
" ..........                                                     ",
" ..........                                                     ",
" ..........                                                     ",
"...........                                                     ",
"...........                                                     ",
"...........                                                     ",
"..........                                                      ",
"..........                                                      ",
"..........                                                      ",
"..........                                                      ",
"..........                                                      ",
"..........                                                      ",
"..........                                                      ",
"..........                                                      ",
"..........                                                      ",
"..........                                                      ",
"..........                                                      ",
"..........                                                      ",
"..........                                                      ",
"..........                                                      ",
"..........                                                      ",
"..........                                                      ",
"..........                                                      ",
"..........                                                      ",
"..........                                                      ",
"..........                                                      ",
"..........                                                      ",
"..........                                                      ",
"..........                                                      ",
"..........                                                      ",
"..........                                                      ",
"..........                                                      ",
"..........                                                      ",
"..........                                                      ",
"..........                                                      ",
"..........                                                      ",
"..........                                                      "};
