<?xml version="1.0" encoding="UTF-8" standalone="no"?>
<!-- Created with Inkscape (http://www.inkscape.org/) -->

<svg
   xmlns:dc="http://purl.org/dc/elements/1.1/"
   xmlns:cc="http://creativecommons.org/ns#"
   xmlns:rdf="http://www.w3.org/1999/02/22-rdf-syntax-ns#"
   xmlns:svg="http://www.w3.org/2000/svg"
   xmlns="http://www.w3.org/2000/svg"
   xmlns:sodipodi="http://sodipodi.sourceforge.net/DTD/sodipodi-0.dtd"
   xmlns:inkscape="http://www.inkscape.org/namespaces/inkscape"
   width="22"
   height="22"
   viewBox="0 0 22 22"
   id="svg4305"
   version="1.1"
   inkscape:version="0.91 r13725"
   sodipodi:docname="navit_plain_background_black.svg">
  <defs
     id="defs4307" />
  <sodipodi:namedview
     id="base"
     pagecolor="#ffffff"
     bordercolor="#666666"
     borderopacity="1.0"
     inkscape:pageopacity="0.0"
     inkscape:pageshadow="2"
     inkscape:zoom="22.4"
     inkscape:cx="7.9398986"
     inkscape:cy="11.526786"
     inkscape:document-units="px"
     inkscape:current-layer="layer1"
     showgrid="false"
     units="px"
     inkscape:window-width="1920"
     inkscape:window-height="1028"
     inkscape:window-x="-8"
     inkscape:window-y="-8"
     inkscape:window-maximized="1" />
  <metadata
     id="metadata4310">
    <rdf:RDF>
      <cc:Work
         rdf:about="">
        <dc:format>image/svg+xml</dc:format>
        <dc:type
           rdf:resource="http://purl.org/dc/dcmitype/StillImage" />
        <dc:title></dc:title>
      </cc:Work>
    </rdf:RDF>
  </metadata>
  <g
     inkscape:label="Calque 1"
     inkscape:groupmode="layer"
     id="layer1"
     transform="translate(0,-1030.3622)">
    <g
       id="g4867"
       transform="translate(0.01785654,0.07143042)">
      <rect
         inkscape:export-ydpi="96"
         inkscape:export-xdpi="96"
         ry="3.9341094"
         y="1030.2908"
         x="-0.017856542"
         height="21.999998"
         width="21.999998"
         id="rect886"
         style="display:inline;fill:#000000;fill-opacity:1;stroke:none;stroke-width:0.53104264;stroke-miterlimit:4;stroke-dasharray:none;stroke-opacity:1" />
      <circle
         inkscape:export-ydpi="96"
         inkscape:export-xdpi="96"
         r="4.9999995"
         cy="1041.2909"
         cx="10.982141"
         id="circle870"
         style="display:inline;fill:#ffffff;fill-opacity:1;stroke:none;stroke-width:0.5;stroke-miterlimit:4;stroke-dasharray:none;stroke-opacity:1" />
      <ellipse
         inkscape:export-ydpi="96"
         inkscape:export-xdpi="96"
         ry="5.9374995"
         rx="7.4999995"
         cy="1038.2731"
         cx="10.875"
         id="ellipse876"
         style="display:inline;fill:#000000;fill-opacity:0;stroke-width:0.26458332" />
      <path
         inkscape:export-ydpi="96"
         inkscape:export-xdpi="96"
         sodipodi:nodetypes="cccccccscccccscccccccccccsccccccccccccccsccccccccccccscccccccccccccccccsccccccccscccccccccsccccccccccczccscccz"
         inkscape:connector-curvature="0"
         id="path878"
         d="m 11.16028,1049.28 -9.11e-4,-2.3589 0.266653,-0.019 c 1.330608,-0.098 2.575221,-0.668 3.523588,-1.6137 0.923021,-0.9203 1.480539,-2.0846 1.617879,-3.3787 0.01323,-0.1232 0.02381,-0.2695 0.02381,-0.3254 l 1.82e-4,-0.1017 2.328483,0 c 1.280663,0 2.32543,0 2.321704,0.01 -0.0037,0 -0.687428,0.3009 -1.51934,0.6606 -0.831912,0.3594 -1.51883,0.6597 -1.526483,0.6668 -0.0076,0.01 -0.04906,0.1508 -0.09203,0.3193 -0.132699,0.5206 -0.290381,0.9509 -0.51764,1.4127 -0.167962,0.3413 -0.275452,0.5269 -0.499196,0.8618 -1.000766,1.4979 -2.485149,2.5475 -4.266583,3.0168 l -0.07101,0.019 -0.794147,1.5968 -0.794145,1.5969 -9.1e-4,-2.3589 z m -0.8873,0.9172 c -0.3220306,-0.7436 -0.5882783,-1.3593 -0.5916636,-1.3683 -0.00389,-0.011 0.016063,-0.011 0.053889,0 0.1712806,0.03 0.5560626,0.075 0.8264616,0.093 l 0.304952,0.019 0,1.3064 c 0,0.7185 -0.0018,1.3064 -0.0041,1.3063 -0.0022,0 -0.267546,-0.6085 -0.589575,-1.3521 z m 0.398472,-1.5541 c -0.412971,-0.015 -0.9841186,-0.1 -1.4231118,-0.2078 -1.1829774,-0.2918 -2.2498931,-0.8648 -3.1847031,-1.7108 -0.621165,-0.5622 -1.201987,-1.3307 -1.586723,-2.0996 -0.474176,-0.9476 -0.708031,-1.8427 -0.775433,-2.968 l -0.01047,-0.175 0.869187,0 0.869186,0 0.01032,0.2037 c 0.01228,0.2423 0.06146,0.5948 0.119055,0.8535 0.45746,2.0555 2.022054,3.6731 4.0670236,4.2048 0.3287962,0.085 0.9018323,0.1705 1.1509243,0.1705 l 0.08991,0 0,0.8701 0,0.8701 -0.03659,0 c -0.02015,0 -0.09149,0 -0.158574,-0.01 z m -8.5472179,-6.4443 -1.43082704,-0.7144 1.35964604,0 1.359647,0 0.01111,0.2238 c 0.01769,0.356 0.102762,1.0251 0.149961,1.1791 0.0048,0.015 0.0026,0.03 -0.005,0.03 -0.0075,0 -0.657583,-0.3213 -1.444538,-0.7144 z m 0.165996,-1.8139 1.613088,-0.8022 0.01833,-0.071 c 0.415566,-1.6096 1.376778,-3.043 2.708171,-4.0382 0.550846,-0.4119 1.1942329,-0.7625 1.8459792,-1.0062 0.1497071,-0.056 0.5689742,-0.1875 0.7133975,-0.2238 l 0.070964,-0.019 0.8025792,-1.6132 0.802579,-1.6131 6.5e-4,2.3762 6.51e-4,2.376 -0.215501,0.011 c -0.9806353,0.048 -2.0201614,0.4153 -2.8581794,1.0096 -0.3839395,0.2721 -0.8509885,0.7103 -1.1284755,1.0585 -0.521453,0.6543 -0.87868,1.376 -1.074831,2.1716 -0.08549,0.3465 -0.155229,0.8332 -0.155229,1.0829 l 0,0.104 -2.378629,0 -2.37863004,0 z m 14.3013649,0.7062 c 0,-0.054 -0.01134,-0.2056 -0.02494,-0.3367 -0.16706,-1.5909 -1.005741,-3.0256 -2.319293,-3.9678 -0.567371,-0.4069 -1.216406,-0.7053 -1.90317,-0.8749 -0.366618,-0.091 -0.811717,-0.1549 -1.072569,-0.1549 l -0.112135,0 0,-0.8719 0,-0.872 0.199234,0.011 c 0.958324,0.054 1.802105,0.2539 2.641376,0.6272 1.079455,0.4801 2.048175,1.2372 2.782665,2.1749 0.171667,0.2192 0.47381,0.6715 0.605549,0.9066 0.467663,0.8347 0.773113,1.7663 0.885256,2.6999 0.01928,0.1614 0.0579,0.6527 0.05836,0.7441 0,0.01 -0.391499,0.011 -0.870074,0.011 l -0.870142,0 z m 2.004053,-0.2082 c -0.02079,-0.3284 -0.06478,-0.688 -0.117052,-0.9613 -0.01776,-0.093 -0.03061,-0.1709 -0.02873,-0.1724 0.0021,0 0.655234,0.3213 1.451362,0.7175 l 1.44751,0.7201 -1.366829,0 -1.366824,0 -0.01965,-0.3061 z m -6.213519,-7.0211 c -0.297192,-0.06 -0.853607,-0.1213 -1.104839,-0.1217 l -0.117913,-2e-4 0,-1.3688 c 0,-0.753 0.0026,-1.3659 0.0058,-1.3622 0.0316,0.038 1.434361,2.8932 1.42013,2.8918 -0.01051,-10e-4 -0.101949,-0.019 -0.203202,-0.039 z"
         style="display:inline;fill:#ffffff;fill-opacity:1;stroke-width:0.00430322" />
      <path
         inkscape:connector-curvature="0"
         id="circle1355-6-5-2-1"
         d="m 10.982164,1036.2918 a 4.9999995,4.9999993 0 0 1 0.349606,0.019 4.9999995,4.9999993 0 0 0 -0.349606,-0.019 z m 0,0 a 4.9999995,4.9999993 0 0 0 -0.439453,0.023 4.9999995,4.9999993 0 0 1 0.439453,-0.023 z m -0.439453,0.023 a 4.9999995,4.9999993 0 0 0 -0.181644,0.023 4.9999995,4.9999993 0 0 1 0.181644,-0.023 z m -0.181644,0.023 a 4.9999995,4.9999993 0 0 0 -0.332032,0.051 4.9999995,4.9999993 0 0 1 0.332032,-0.051 z m -0.332032,0.051 a 4.9999995,4.9999993 0 0 0 -0.1230612,0.026 4.9999995,4.9999993 0 0 1 0.1230612,-0.026 z m -0.1230612,0.026 a 4.9999995,4.9999993 0 0 0 -0.3808589,0.098 4.9999995,4.9999993 0 0 1 0.3808589,-0.098 z m -0.3808589,0.098 a 4.9999995,4.9999993 0 0 0 -0.03326,0.011 l 0,0 a 4.9999995,4.9999993 0 0 1 0.03326,-0.011 z m -0.03326,0.011 a 4.9999995,4.9999993 0 0 0 -2.2324188,1.4355 l 0,6.6562 a 4.9999995,4.9999993 0 0 1 -0.876957,-1.3788 4.9999995,4.9999993 0 0 0 3.3750012,2.8945 4.9999995,4.9999993 0 0 1 -0.4453115,-0.1369 l 0,-3.3339 c 0,-0.5672 -0.03326,-1.1536 -0.1015559,-1.7598 -0.058658,-0.6062 -0.1132346,-1.1732 -0.1621039,-1.7012 l 0.058583,0 0.93945,2.084 2.486329,4.7539 a 4.9999995,4.9999993 0 0 0 2.220702,-1.4707 l 0,-6.5508 a 4.9999995,4.9999993 0 0 0 -2.052733,-1.414 l 0,3.2578 c 0,0.5671 0.0291,1.1633 0.08787,1.789 0.06845,0.6258 0.126879,1.1928 0.175786,1.7012 l -0.05858,0 -0.9375,-2.1113 -2.4765615,-4.7149 z m 5.2617181,8.0429 a 4.9999995,4.9999993 0 0 0 0.308598,-0.3925 4.9999995,4.9999993 0 0 1 -0.308598,0.3925 z m 0.308598,-0.3925 a 4.9999995,4.9999993 0 0 0 0.253909,-0.3985 4.9999995,4.9999993 0 0 1 -0.253909,0.3985 z m -5.3046871,1.957 a 4.9999995,4.9999993 0 0 0 0.062513,0.015 4.9999995,4.9999993 0 0 1 -0.062513,-0.015 z m 0.062513,0.015 a 4.9999995,4.9999993 0 0 0 0.4121081,0.08 4.9999995,4.9999993 0 0 1 -0.4121081,-0.08 z m 0.4121081,0.08 a 4.9999995,4.9999993 0 0 0 0.08398,0.015 4.9999995,4.9999993 0 0 1 -0.08398,-0.015 z m 0.08398,0.015 a 4.9999995,4.9999993 0 0 0 0.351572,0.034 4.9999995,4.9999993 0 0 1 -0.351572,-0.034 z m 0.351572,0.034 a 4.9999995,4.9999993 0 0 0 0.314456,0.015 4.9999995,4.9999993 0 0 1 -0.314456,-0.015 z m 0.314456,0.015 a 4.9999995,4.9999993 0 0 0 0.441408,-0.023 4.9999995,4.9999993 0 0 1 -0.441407,0.023 z m 0.441408,-0.023 a 4.9999995,4.9999993 0 0 0 0.189468,-0.023 4.9999995,4.9999993 0 0 1 -0.189468,0.023 z m 0.189468,-0.023 a 4.9999995,4.9999993 0 0 0 0.318349,-0.051 4.9999995,4.9999993 0 0 1 -0.318349,0.051 z m 0.318349,-0.051 a 4.9999995,4.9999993 0 0 0 0.123062,-0.026 4.9999995,4.9999993 0 0 1 -0.123062,0.026 z m 0.123062,-0.026 a 4.9999995,4.9999993 0 0 0 0.404296,-0.1054 4.9999995,4.9999993 0 0 1 -0.404296,0.1054 z m -5.6718749,-2.9297 a 4.9999995,4.9999993 0 0 1 -0.144529,-0.3887 4.9999995,4.9999993 0 0 0 0.144529,0.3887 z m -0.144529,-0.3887 a 4.9999995,4.9999993 0 0 1 -0.04101,-0.1251 4.9999995,4.9999993 0 0 0 0.04101,0.1251 z m -0.04101,-0.1251 a 4.9999995,4.9999993 0 0 1 -0.08595,-0.3379 4.9999995,4.9999993 0 0 0 0.08595,0.3379 z m -0.08595,-0.3379 a 4.9999995,4.9999993 0 0 1 -0.03137,-0.1466 4.9999995,4.9999993 0 0 0 0.03137,0.1466 z m -0.03137,-0.1466 a 4.9999995,4.9999993 0 0 1 -0.0508,-0.3183 4.9999995,4.9999993 0 0 0 0.0508,0.3183 z m -0.0508,-0.3183 a 4.9999995,4.9999993 0 0 1 -0.02343,-0.1935 4.9999995,4.9999993 0 0 0 0.02343,0.1935 z m -0.02343,-0.1935 a 4.9999995,4.9999993 0 0 1 -0.02343,-0.4375 4.9999995,4.9999993 0 0 0 0.02343,0.4375 z m -0.02343,-0.4375 a 4.9999995,4.9999993 0 0 1 0.01361,-0.2755 4.9999995,4.9999993 0 0 0 -0.01361,0.2755 z m 0.01361,-0.2755 a 4.9999995,4.9999993 0 0 1 0.02532,-0.3065 4.9999995,4.9999993 0 0 0 -0.02532,0.3065 z m 0.02532,-0.3065 a 4.9999995,4.9999993 0 0 1 0.02948,-0.1992 4.9999995,4.9999993 0 0 0 -0.02948,0.1992 z m 0.02948,-0.1992 a 4.9999995,4.9999993 0 0 1 0.05469,-0.3009 4.9999995,4.9999993 0 0 0 -0.05469,0.3009 z m 0.05469,-0.3009 a 4.9999995,4.9999993 0 0 1 0.04687,-0.1836 4.9999995,4.9999993 0 0 0 -0.04687,0.1836 z m 0.04687,-0.1836 a 4.9999995,4.9999993 0 0 1 0.08787,-0.3047 4.9999995,4.9999993 0 0 0 -0.08787,0.3047 z m 0.08787,-0.3047 a 4.9999995,4.9999993 0 0 1 0.04687,-0.1289 4.9999995,4.9999993 0 0 0 -0.04687,0.1289 z m 0.04687,-0.1289 a 4.9999995,4.9999993 0 0 1 0.142564,-0.3552 4.9999995,4.9999993 0 0 0 -0.142564,0.3552 z m 0.142564,-0.3552 a 4.9999995,4.9999993 0 0 1 0.04101,-0.084 4.9999995,4.9999993 0 0 0 -0.04101,0.084 z m 0.04101,-0.084 a 4.9999995,4.9999993 0 0 1 0.19336,-0.3693 4.9999995,4.9999993 0 0 0 -0.19336,0.3693 z m 4.8613259,-2.8438 a 4.9999995,4.9999993 0 0 1 0.33789,0.034 4.9999995,4.9999993 0 0 0 -0.33789,-0.034 z m 0.33789,0.034 a 4.9999995,4.9999993 0 0 1 0.117203,0.019 4.9999995,4.9999993 0 0 0 -0.117203,-0.019 z m 0.117203,0.019 a 4.9999995,4.9999993 0 0 1 0.408204,0.086 4.9999995,4.9999993 0 0 0 -0.408204,-0.086 z m 0.408204,0.086 a 4.9999995,4.9999993 0 0 1 0.05666,0.015 4.9999995,4.9999993 0 0 0 -0.05666,-0.015 z m 0.05666,0.015 a 4.9999995,4.9999993 0 0 1 0.425778,0.1308 4.9999995,4.9999993 0 0 0 -0.425783,-0.1308 z m -4.9980519,1.5039 a 4.9999995,4.9999993 0 0 0 -0.296881,0.3693 4.9999995,4.9999993 0 0 1 0.296881,-0.3693 z m 7.5468809,0.1055 a 4.9999995,4.9999993 0 0 1 0.292951,0.3828 4.9999995,4.9999993 0 0 0 -0.292951,-0.3828 z m -7.8593789,0.2831 a 4.9999995,4.9999993 0 0 0 -0.250016,0.3828 4.9999995,4.9999993 0 0 1 0.250016,-0.3828 z m 8.1699229,0.1232 a 4.9999995,4.9999993 0 0 1 0.240227,0.3926 4.9999995,4.9999993 0 0 0 -0.240227,-0.3926 z m 0.259767,0.4278 a 4.9999995,4.9999993 0 0 1 0.197254,0.4062 4.9999995,4.9999993 0 0 0 -0.197254,-0.4062 z m 0.218759,0.457 a 4.9999995,4.9999993 0 0 1 0.12892,0.3477 4.9999995,4.9999993 0 0 0 -0.12892,-0.3477 z m 0.12892,0.3477 a 4.9999995,4.9999993 0 0 1 0.0508,0.1523 4.9999995,4.9999993 0 0 0 -0.0508,-0.1523 z m 0.0508,0.1523 a 4.9999995,4.9999993 0 0 1 0.08787,0.3398 4.9999995,4.9999993 0 0 0 -0.08787,-0.3398 z m 0.08787,0.3398 a 4.9999995,4.9999993 0 0 1 0.02948,0.1345 4.9999995,4.9999993 0 0 0 -0.02948,-0.1345 z m 0.02948,0.1345 a 4.9999995,4.9999993 0 0 1 0.05076,0.3323 4.9999995,4.9999993 0 0 0 -0.05076,-0.3323 z m 0.05076,0.3323 a 4.9999995,4.9999993 0 0 1 0.02154,0.1799 4.9999995,4.9999993 0 0 0 -0.02154,-0.1799 z m 0.02154,0.1799 a 4.9999995,4.9999993 0 0 1 0.02343,0.4413 4.9999995,4.9999993 0 0 0 -0.02343,-0.4413 z m 0.02343,0.4413 a 4.9999995,4.9999993 0 0 1 -0.01172,0.2597 4.9999995,4.9999993 0 0 0 0.01172,-0.2597 z m -0.01172,0.2597 a 4.9999995,4.9999993 0 0 1 -0.01965,0.2929 4.9999995,4.9999993 0 0 0 0.01965,-0.2929 z m -0.01965,0.2929 a 4.9999995,4.9999993 0 0 1 -0.02721,0.1818 4.9999995,4.9999993 0 0 0 0.02721,-0.1818 z m -0.02721,0.1818 a 4.9999995,4.9999993 0 0 1 -0.0508,0.2971 4.9999995,4.9999993 0 0 0 0.0508,-0.2971 z m -0.0508,0.2971 a 4.9999995,4.9999993 0 0 1 -0.04687,0.1893 4.9999995,4.9999993 0 0 0 0.04687,-0.1893 z m -0.04687,0.1893 a 4.9999995,4.9999993 0 0 1 -0.08787,0.3183 4.9999995,4.9999993 0 0 0 0.08787,-0.3183 z m -0.121096,0.4083 a 4.9999995,4.9999993 0 0 1 -0.138671,0.3632 4.9999995,4.9999993 0 0 0 0.138671,-0.3632 z m -0.138671,0.3632 a 4.9999995,4.9999993 0 0 1 -0.06251,0.1307 4.9999995,4.9999993 0 0 0 0.06251,-0.1307 z m -0.06251,0.1307 a 4.9999995,4.9999993 0 0 1 -0.169928,0.3341 4.9999995,4.9999993 0 0 0 0.169928,-0.3341 z"
         style="display:inline;fill:#000000;fill-opacity:1;stroke:none;stroke-width:0.5;stroke-miterlimit:4;stroke-dasharray:none;stroke-opacity:1" />
    </g>
  </g>
</svg>
