<?xml version="1.0" encoding="UTF-8" standalone="no"?>
<!-- Created with Inkscape (http://www.inkscape.org/) -->

<svg
   xmlns:dc="http://purl.org/dc/elements/1.1/"
   xmlns:cc="http://creativecommons.org/ns#"
   xmlns:rdf="http://www.w3.org/1999/02/22-rdf-syntax-ns#"
   xmlns:svg="http://www.w3.org/2000/svg"
   xmlns="http://www.w3.org/2000/svg"
   xmlns:sodipodi="http://sodipodi.sourceforge.net/DTD/sodipodi-0.dtd"
   xmlns:inkscape="http://www.inkscape.org/namespaces/inkscape"
   version="1.0"
   width="22"
   height="22"
   id="svg2"
   sodipodi:version="0.32"
   inkscape:version="0.91 r13725"
   sodipodi:docname="pharmacy.svg">
  <metadata
     id="metadata9">
    <rdf:RDF>
      <cc:Work
         rdf:about="">
        <dc:format>image/svg+xml</dc:format>
        <dc:type
           rdf:resource="http://purl.org/dc/dcmitype/StillImage" />
        <dc:title />
        <dc:description>jfitie@gmail.com</dc:description>
        <cc:license
           rdf:resource="http://creativecommons.org/publicdomain/zero/1.0/" />
      </cc:Work>
      <cc:License
         rdf:about="http://creativecommons.org/publicdomain/zero/1.0/">
        <cc:permits
           rdf:resource="http://creativecommons.org/ns#Reproduction" />
        <cc:permits
           rdf:resource="http://creativecommons.org/ns#Distribution" />
        <cc:permits
           rdf:resource="http://creativecommons.org/ns#DerivativeWorks" />
      </cc:License>
    </rdf:RDF>
  </metadata>
  <sodipodi:namedview
     inkscape:window-height="871"
     inkscape:window-width="1432"
     inkscape:pageshadow="2"
     inkscape:pageopacity="0"
     borderopacity="1.0"
     bordercolor="#666666"
     pagecolor="#ff23ff"
     id="base"
     inkscape:zoom="2.8157956"
     inkscape:cx="132.57816"
     inkscape:cy="68.514694"
     inkscape:window-x="0"
     inkscape:window-y="0"
     inkscape:current-layer="svg2"
     showgrid="false"
     inkscape:window-maximized="0" />
  <defs
     id="defs4" />
  <g
     id="g3387"
     transform="matrix(0.20583838,0,0,0.20583838,6.0902428,0.30331343)">
    <g
       transform="translate(-53.981191,44.747566)"
       id="g3383">
      <path
         style="fill:#ffffff;fill-opacity:1;fill-rule:evenodd;stroke:#ffffff;stroke-width:0.25483263px;stroke-linecap:butt;stroke-linejoin:miter;stroke-opacity:1"
         d="m 77.880859,-46.085938 c -7.229936,0.02323 -11.786691,8.234864 -9.246926,14.657051 0.363352,13.633556 -0.42643,27.390256 1.947139,40.8728573 0.905212,15.7932507 0.01974,31.9620127 1.737287,47.6556387 2.72289,6.199203 12.977707,3.338138 12.556641,-3.318359 0.835719,-9.358556 -0.857381,-18.758694 0.398579,-28.120113 0.941812,-18.7192776 -0.701899,-37.553976 0.748407,-56.206421 0.966672,-5.129576 2.369303,-13.779325 -4.51808,-15.230107 -1.18235,-0.303958 -2.40882,-0.33823 -3.623047,-0.310547 z"
         id="path1360-7"
         inkscape:connector-curvature="0" />
      <path
         style="fill:#ffffff;fill-opacity:1;fill-rule:evenodd;stroke:#ffffff;stroke-width:0.25483263px;stroke-linecap:butt;stroke-linejoin:miter;stroke-opacity:1"
         d="m 94.34375,-35.625 c -14.228332,2.50379 -31.746926,0.790326 -42.138672,12.917969 -7.670289,8.243981 -1.423616,23.10015844 9.689453,23.9550779 8.498945,1.9763923 17.502731,-3.26177 25.595703,-0.1796875 0.425361,4.3707297 -5.365654,1.9759588 -7.912109,2.4707031 -10.756855,0.038835 -23.893583,6.2118103 -24.847656,18.1699215 -0.0054,9.8036 11.248816,14.912765 19.824219,13.044922 3.39961,-0.334762 7.793431,-2.163732 10.623046,-0.607422 -4.399906,3.800118 -11.465797,2.674861 -15.427734,7.451172 -4.218645,2.600826 -9.951707,7.40369 -6.919922,12.951172 5.57538,4.350422 10.85041,-1.932554 15.738281,-3.984375 C 87.894618,48.65452 99.561353,42.40397 98.851562,31.419922 96.727382,21.96283 85.132403,20.408866 77.041016,21.503906 c -2.375177,0.04894 -6.029006,1.101381 -7.642578,-0.857422 7.697112,-5.335869 18.388067,-0.459741 26.162109,-6.148437 8.422993,-4.27757 9.907233,-17.6955189 1.457031,-22.7929689 -8.947102,-6.9603501 -20.960901,-4.5753941 -31.173828,-3.2968751 -4.331071,-2.496265 2.737418,-5.3726 4.861328,-5.900391 6.295653,-1.395177 13.050406,-0.968154 19.335938,-0.710937 5.41156,2.871427 11.663634,0.332596 15.771484,-3.486328 3.57272,-3.525259 0.61219,-8.67653 -3.19336,-10.556641 -2.35754,-1.832856 -5.184196,-3.544027 -8.27539,-3.378906 z"
         id="path1364-5"
         inkscape:connector-curvature="0" />
    </g>
    <g
       transform="matrix(0.12741631,0,0,0.12741631,-0.62387565,2.0848855)"
       id="layer1">
      <g
         id="g4895"
         transform="matrix(2,0,0,2,-483.316,-485.5179)">
        <path
           inkscape:connector-curvature="0"
           id="path1360"
           style="fill:#000000;fill-opacity:1;fill-rule:evenodd;stroke:#000000;stroke-width:1px;stroke-linecap:butt;stroke-linejoin:miter;stroke-opacity:1"
           d="m 331.42857,623.07647 c 5.84728,12.68982 12.96741,10.10541 20.71429,0 0,0 1.60714,-19.82143 1.42857,-33.57143 -0.17857,-13.75 -2.32143,-1.25 -2.14286,-21.42857 0.17857,-20.17857 2.85714,-59.28572 2.85714,-59.28572 l 0,-66.42857 c 0,0 0.89286,-35.71428 0.71429,-65.71428 -0.17857,-30 -1.78571,-32.67857 -1.42857,-54.28572 0.35714,-21.60714 1.25,-14.46429 2.85714,-32.14286 C 358.03571,272.54075 360,251.6479 360,251.6479 c -3.62641,-11.91857 -38.2823,-11.4817 -42.14286,11.42857 0,0 2.14286,13.57143 2.85715,43.57143 0.71429,30 -1.78571,41.25 0,76.42857 1.78571,35.17857 5.17857,31.42857 7.14285,64.28571 1.96429,32.85714 0.71429,67.14286 0.71429,67.14286 l 2.85714,66.42857 0,42.14286 z" />
        <path
           inkscape:connector-curvature="0"
           id="path1364"
           style="fill:#000000;fill-opacity:1;fill-rule:evenodd;stroke:#000000;stroke-width:1px;stroke-linecap:butt;stroke-linejoin:miter;stroke-opacity:1"
           d="m 379.28571,288.79075 c -24.64286,1.96429 -60.71428,7.14286 -60.71428,7.14286 -116.47508,21.61333 -87.82638,123.939 2.14286,100.71429 l 35,-2.14286 c 47.75794,-11.63754 55.83811,52.44721 0,44.28571 L 325,440.93361 c -84.08686,20.79606 -75.33628,99.20758 2.14286,88.57143 l 27.14285,-4.28572 c 59.56652,-1.30424 26.5713,40.447 -2.14285,43.57143 0,0 -8.21428,-0.53571 -21.42857,7.14286 -13.21429,7.67857 -31.42858,23.57143 -31.42858,23.57143 -13.72384,18.19281 -2.40579,14.91799 10,10.71429 0,0 9.64286,-8.92858 20.71429,-14.28572 11.07143,-5.35714 23.57143,-7.14286 23.57143,-7.14286 67.64618,-23.43602 75.57082,-78.75298 2.14286,-80.71428 l -29.28572,1.42857 c -22.81243,8.45052 -69.46577,-27.10559 0,-45 l 30.71429,-0.71429 C 443.82508,460.82712 445.62298,377.62637 355,373.07647 l -36.42857,2.85714 c -40.4999,18.54392 -83.06085,-31.86959 0.71428,-54.28571 0,0 20.89286,0.35714 37.14286,0 16.25,-0.35715 13.21428,-2.50001 27.85714,-1.42858 14.64286,1.07143 20.69724,10.89905 30.71429,5.71429 23.62552,-12.2284 43.00437,-12.96553 2.14286,-37.85714 -10.90464,-6.64278 -13.21429,-1.25001 -37.85715,0.71428 z" />
      </g>
    </g>
  </g>
</svg>
