/* XPM */
static char * public_office_xpm[] = {
"16 16 13 1",
" 	c None",
".	c #888888",
"+	c #FFFFFF",
"@	c #D5D5D5",
"#	c #5A5A5A",
"$	c #E4E4E4",
"%	c #676767",
"&	c #000000",
"*	c #737373",
"=	c #C4C4C4",
"-	c #555555",
";	c #C9C9C9",
">	c #C1C1C1",
"         .      ",
"        .+.     ",
"       .+++.    ",
"      .+@#$+.   ",
"      .+%&*+.   ",
"      .+=-;+....",
". . . .++++++++.",
"..+.. .+>>>+>>+.",
".+++. .+>>>+>>+.",
".+>+. .++++++++.",
".+>+...+>>>+>>+.",
".++++++++++++++.",
".+>>>>+>>>>+>>+.",
".+>>>>+>>>>+>>+.",
".+++++++++++>>+.",
"................"};
