<?xml version="1.0" encoding="UTF-8" standalone="no"?>
<!-- Created with Inkscape (http://www.inkscape.org/) -->

<svg
   xmlns:dc="http://purl.org/dc/elements/1.1/"
   xmlns:cc="http://creativecommons.org/ns#"
   xmlns:rdf="http://www.w3.org/1999/02/22-rdf-syntax-ns#"
   xmlns:svg="http://www.w3.org/2000/svg"
   xmlns="http://www.w3.org/2000/svg"
   xmlns:sodipodi="http://sodipodi.sourceforge.net/DTD/sodipodi-0.dtd"
   xmlns:inkscape="http://www.inkscape.org/namespaces/inkscape"
   width="22"
   height="22"
   id="svg2"
   sodipodi:version="0.32"
   inkscape:version="0.91 r13725"
   version="1.0"
   sodipodi:docname="public_office.svg"
   inkscape:output_extension="org.inkscape.output.svg.inkscape"
   inkscape:export-filename="/home/jeff/navit/icons/png/post.png"
   inkscape:export-xdpi="90"
   inkscape:export-ydpi="90">
  <defs
     id="defs4">
    <inkscape:perspective
       sodipodi:type="inkscape:persp3d"
       inkscape:vp_x="0 : 526.18109 : 1"
       inkscape:vp_y="0 : 1000 : 0"
       inkscape:vp_z="744.09448 : 526.18109 : 1"
       inkscape:persp3d-origin="372.04724 : 350.78739 : 1"
       id="perspective10" />
  </defs>
  <sodipodi:namedview
     id="base"
     pagecolor="#f4ca00"
     bordercolor="#666666"
     borderopacity="1.0"
     inkscape:pageopacity="0"
     inkscape:pageshadow="2"
     inkscape:zoom="5.6568542"
     inkscape:cx="39.367456"
     inkscape:cy="32.327118"
     inkscape:document-units="px"
     inkscape:current-layer="layer1"
     showgrid="true"
     inkscape:window-width="943"
     inkscape:window-height="682"
     inkscape:window-x="114"
     inkscape:window-y="134"
     inkscape:window-maximized="0">
    <inkscape:grid
       type="xygrid"
       id="grid2380"
       visible="true"
       enabled="true" />
  </sodipodi:namedview>
  <metadata
     id="metadata7">
    <rdf:RDF>
      <cc:Work
         rdf:about="">
        <dc:format>image/svg+xml</dc:format>
        <dc:type
           rdf:resource="http://purl.org/dc/dcmitype/StillImage" />
        <dc:title></dc:title>
        <dc:description>jfitie@gmail.com</dc:description>
        <cc:license
           rdf:resource="http://creativecommons.org/publicdomain/zero/1.0/" />
      </cc:Work>
      <cc:License
         rdf:about="http://creativecommons.org/publicdomain/zero/1.0/">
        <cc:permits
           rdf:resource="http://creativecommons.org/ns#Reproduction" />
        <cc:permits
           rdf:resource="http://creativecommons.org/ns#Distribution" />
        <cc:permits
           rdf:resource="http://creativecommons.org/ns#DerivativeWorks" />
      </cc:License>
    </rdf:RDF>
  </metadata>
  <g
     inkscape:label="Calque 1"
     inkscape:groupmode="layer"
     id="layer1">
    <path
       style="fill:#ffffff;stroke:#ffffff;stroke-width:0.21014558"
       d="M 7.34798,0.10997493 C 5.897925,0.25780607 6.111269,2.0399561 6.145798,3.0659688 6.105259,3.4532062 6.443387,4.3820832 5.701702,4.0945326 4.39782,4.3091313 4.398726,5.9220174 4.309077,6.8305294 2.79033,7.3821048 2.448873,9.1906832 2.66364,10.608624 2.64235,14.37069 2.66074,18.132829 2.65454,21.894929 l 17.442083,0 0,-12.3690385 c 0.0034,-0.28596 -0.656571,-1.3859661 -1.754633,-1.698811 -0.221945,-0.021225 -1.981955,-0.3471553 -2.671558,0.5073024 -0.381692,0.3615956 -0.283692,1.1038632 -0.969048,0.88573 -1.299236,0.112119 -1.289504,1.7280501 -1.029798,2.6354401 -0.462762,0.259609 -1.729742,0.339101 -1.476355,-0.517975 0.123476,-1.5257265 0.226716,-3.8543796 -1.5843,-4.4216761 C 10.098121,6.4593872 10.774641,5.529537 10.287956,4.9654873 9.984372,4.3720048 9.292135,4.0566099 8.684777,3.9956172 8.619981,2.8128233 9.195513,1.0373558 7.972251,0.21669115 7.777578,0.13081103 7.560036,0.0903517 7.347972,0.10997493 Z M 7.036866,6.4566173 C 7.290892,6.680227 8.351606,6.3802543 7.643907,6.7915369 7.436315,6.7994169 6.511557,6.6969339 7.036866,6.4566173 Z M 5.23339,11.447163 c 0.497986,0.0896 -0.136096,0.643037 -0.02504,0.225743 0.156746,0.343113 -0.0677,-0.388397 0.02504,-0.225743 z m 4.42455,0.4285 c -0.589332,-0.223793 0.302635,-0.769318 0,0 z M 7.446074,11.47138 c 0.482833,0.199609 -0.167963,0.509856 -0.215891,0.163765 0.07819,-0.03853 0.152521,-0.143557 0.215891,-0.163765 z M 5.23339,14.073983 c 0.540682,0.161747 -0.284823,0.719747 -0.03612,0.08086 l 0,-0.123955 z M 9.663276,14.50864 C 9.376309,14.322892 9.381885,14.239145 9.66244,14.046483 c 2.1e-4,0.154052 6.38e-4,0.308105 8.36e-4,0.462157 z M 7.446074,14.0982 c 0.482805,0.199536 -0.167995,0.509893 -0.215891,0.163765 0.07819,-0.03853 0.152521,-0.143557 0.215891,-0.163765 z m 2.222125,3.043417 C 9.37599,16.949968 9.382765,16.865586 9.667363,16.667146 c 2.11e-4,0.158158 6.38e-4,0.316313 8.36e-4,0.474471 z M 5.23339,16.700803 c 0.560442,0.195502 -0.362547,0.752037 -0.0238,-0.02832 z m 2.212684,0.02422 c 0.482805,0.199535 -0.167995,0.509893 -0.215891,0.163764 0.07819,-0.03853 0.152521,-0.143556 0.215891,-0.163764 z m 2.226642,2.62682 c -0.145306,0.06956 0.07209,-0.171101 0,0 z M 5.23339,19.327623 c 0.05495,0.104692 -0.112558,-0.09669 0,0 z m 2.211864,0.02299 c -0.03746,0.02593 -0.0115,-0.02985 0,0 z"
       id="path3347-3"
       inkscape:connector-curvature="0"
       sodipodi:nodetypes="ccccccccccccccccccccccccccccccccccccccccccccccccccccccc" />
    <path
       style="fill:#000000"
       d="m 3.499966,15.145553 c 0,-6.5627895 -0.01072,-6.2578451 0.234825,-6.6769237 C 3.992415,8.0289417 4.519279,7.6749883 5.006575,7.6142325 L 5.24434,7.5845885 5.26487,6.5549612 5.2854,5.5253345 5.397603,5.364801 C 5.459313,5.276508 5.577933,5.1580933 5.661195,5.1016577 5.802301,5.0060157 5.852522,4.9981449 6.400655,4.9857586 l 0.588071,-0.01329 0,-1.7631847 c 0,-1.8922177 0.007,-1.961823 0.210018,-2.1040587 0.122577,-0.085857 0.360357,-0.085857 0.482935,0 0.20307,0.1422357 0.210018,0.211841 0.210018,2.1040587 l 0,1.7631847 0.588071,0.01329 c 0.548135,0.012386 0.598354,0.020258 0.73946,0.1158991 0.08326,0.056436 0.201879,0.1748502 0.263592,0.2631433 l 0.112205,0.1605335 0.02053,1.0296267 0.02053,1.0296273 0.237763,0.029644 c 0.684648,0.085362 1.303063,0.6560446 1.46308,1.3501533 0.02465,0.1069199 0.04193,0.9350322 0.04253,2.0378532 l 0.0011,1.857744 1.528891,-0.01076 1.528893,-0.01076 0.01084,-1.303148 0.01084,-1.303149 0.861349,0 0.861349,0 0,-0.6567047 0,-0.656705 1.312367,0 1.312368,0 0.01131,0.6464437 0.01131,0.646443 0.215481,0.0124 0.215481,0.0124 0,5.456716 0,5.456713 -7.880459,0 -7.88046,0 0,-6.00433 z m 7.008988,-0.453078 -0.01097,-5.5954852 -0.123765,-0.2001741 c -0.0901,-0.1457277 -0.183478,-0.2313683 -0.3433,-0.3148592 l -0.219535,-0.1146868 -2.371182,0 -2.371181,0 -0.219533,0.1146868 C 4.689664,8.6654495 4.59629,8.751088 4.506188,8.8968177 L 4.38242,9.0969939 4.37158,14.692477 l -0.01084,5.595481 3.079595,0 3.079593,0 -0.01097,-5.595483 z M 5.896147,18.896171 C 5.740076,18.801001 5.675303,18.629195 5.675303,18.3104 c 0,-0.497072 0.159187,-0.649261 0.679117,-0.649261 0.528518,0 0.634293,0.113941 0.634293,0.683263 0,0.344504 -0.0026,0.353648 -0.139552,0.490597 -0.136454,0.136454 -0.14715,0.139545 -0.482267,0.139396 -0.264407,-1.24e-4 -0.371972,-0.01799 -0.470747,-0.07822 z m 2.193613,0.0081 c -0.157147,-0.09749 -0.198079,-0.218673 -0.198079,-0.586432 0,-0.540465 0.112274,-0.656705 0.634293,-0.656705 0.52222,0 0.679117,0.151719 0.679117,0.656705 0,0.311843 -0.08034,0.509336 -0.240993,0.592413 -0.173803,0.08988 -0.725912,0.0861 -0.874338,-0.006 z M 5.896147,16.269346 c -0.156071,-0.09517 -0.220844,-0.266975 -0.220844,-0.58577 0,-0.497072 0.159187,-0.649262 0.679117,-0.649262 0.528518,0 0.634293,0.113941 0.634293,0.683263 0,0.344505 -0.0026,0.353648 -0.139552,0.490598 -0.136454,0.136454 -0.14715,0.139545 -0.482267,0.139396 -0.264407,-1.24e-4 -0.371972,-0.01799 -0.470747,-0.07822 z m 2.193613,0.0081 c -0.157147,-0.09749 -0.198079,-0.218673 -0.198079,-0.586432 0,-0.540465 0.112274,-0.656705 0.634293,-0.656705 0.52222,0 0.679117,0.151718 0.679117,0.656705 0,0.311843 -0.08034,0.509336 -0.240993,0.592413 -0.173803,0.08988 -0.725912,0.0861 -0.874338,-0.006 z M 5.896147,13.642521 c -0.156071,-0.09517 -0.220844,-0.266975 -0.220844,-0.58577 0,-0.497073 0.159187,-0.649262 0.679117,-0.649262 0.528518,0 0.634293,0.113941 0.634293,0.683263 0,0.344504 -0.0026,0.353648 -0.139552,0.490597 -0.136454,0.136454 -0.14715,0.139546 -0.482267,0.139396 -0.264407,-1.24e-4 -0.371972,-0.01799 -0.470747,-0.07822 z m 2.193613,0.0081 c -0.157147,-0.09749 -0.198079,-0.218673 -0.198079,-0.586432 0,-0.540465 0.112274,-0.656705 0.634293,-0.656705 0.52222,0 0.679117,0.151719 0.679117,0.656705 0,0.311843 -0.08034,0.509336 -0.240993,0.592413 -0.173803,0.08988 -0.725912,0.0861 -0.874338,-0.006 z M 5.896147,11.01573 C 5.740076,10.92056 5.675303,10.748755 5.675303,10.42996 c 0,-0.4970723 0.159187,-0.6492619 0.679117,-0.6492619 0.528518,0 0.634293,0.1139411 0.634293,0.6832629 0,0.344505 -0.0026,0.353648 -0.139552,0.490598 -0.136454,0.136454 -0.14715,0.139545 -0.482267,0.139396 -0.264407,-1.24e-4 -0.371972,-0.01799 -0.470747,-0.07822 z m 2.193613,0.0081 C 7.932613,10.92634 7.891681,10.805157 7.891681,10.437398 c 0,-0.5404649 0.112274,-0.6567047 0.634293,-0.6567047 0.52222,0 0.679117,0.1517188 0.679117,0.6567047 0,0.311844 -0.08034,0.509336 -0.240993,0.592413 -0.173803,0.08988 -0.725912,0.0861 -0.874338,-0.006 z m 6.36897,5.980618 0,-3.283525 -1.539152,0 -1.539153,0 0,3.283525 0,3.283524 1.539153,0 1.539152,0 0,-3.283524 z m -1.995534,1.891737 c -0.156071,-0.09517 -0.220844,-0.266975 -0.220844,-0.58577 0,-0.497073 0.159188,-0.649262 0.679117,-0.649262 0.528518,0 0.634293,0.113941 0.634293,0.683263 0,0.344504 -0.0026,0.353648 -0.139551,0.490598 -0.136454,0.136453 -0.147151,0.139545 -0.482268,0.139395 -0.264407,-1.24e-4 -0.371972,-0.01799 -0.470747,-0.07822 z m 0,-2.62682 c -0.156071,-0.09517 -0.220844,-0.266975 -0.220844,-0.58577 0,-0.497072 0.159188,-0.649262 0.679117,-0.649262 0.528518,0 0.634293,0.113941 0.634293,0.683263 0,0.344505 -0.0026,0.353648 -0.139551,0.490598 -0.136454,0.136454 -0.147151,0.139545 -0.482268,0.139396 -0.264407,-1.24e-4 -0.371972,-0.01799 -0.470747,-0.07822 z m 5.935764,-0.578327 0,-4.596934 -1.539153,0 -1.539152,0 0,4.596934 0,4.596935 1.539152,0 1.539153,0 0,-4.596935 z m -1.995534,3.205147 c -0.156071,-0.09517 -0.220844,-0.266975 -0.220844,-0.58577 0,-0.497073 0.159187,-0.649262 0.679117,-0.649262 0.528518,0 0.634293,0.113941 0.634293,0.683263 0,0.344504 -0.0026,0.353648 -0.139552,0.490598 -0.136454,0.136453 -0.14715,0.139545 -0.482267,0.139395 -0.264407,-1.24e-4 -0.371973,-0.01799 -0.470747,-0.07822 z m 0,-2.62682 c -0.156071,-0.09517 -0.220844,-0.266975 -0.220844,-0.58577 0,-0.497072 0.159187,-0.649262 0.679117,-0.649262 0.528518,0 0.634293,0.113941 0.634293,0.683263 0,0.344505 -0.0026,0.353648 -0.139552,0.490598 -0.136454,0.136454 -0.14715,0.139545 -0.482267,0.139396 -0.264407,-1.24e-4 -0.371973,-0.01799 -0.470747,-0.07822 z m 0,-2.62682 c -0.156071,-0.09517 -0.220844,-0.266975 -0.220844,-0.58577 0,-0.497072 0.159187,-0.649262 0.679117,-0.649262 0.528518,0 0.634293,0.113941 0.634293,0.683264 0,0.344504 -0.0026,0.353647 -0.139552,0.490597 -0.136454,0.136454 -0.14715,0.139545 -0.482267,0.139396 -0.264407,-1.24e-4 -0.371973,-0.01799 -0.470747,-0.07822 z m -7.64982,-6.7801086 0,-0.7428972 -0.13955,-0.1395499 -0.139549,-0.1395499 -1.034311,0 -1.03431,0 -0.139549,0.1395499 -0.139551,0.1395499 0,0.7428972 0,0.7428975 1.31341,0 1.31341,0 0,-0.7428975 z"
       id="path3347"
       inkscape:connector-curvature="0" />
  </g>
</svg>
