<?xml version="1.0" encoding="UTF-8" standalone="no"?>
<!-- Created with Inkscape (http://www.inkscape.org/) -->

<svg
   xmlns:dc="http://purl.org/dc/elements/1.1/"
   xmlns:cc="http://creativecommons.org/ns#"
   xmlns:rdf="http://www.w3.org/1999/02/22-rdf-syntax-ns#"
   xmlns:svg="http://www.w3.org/2000/svg"
   xmlns="http://www.w3.org/2000/svg"
   xmlns:sodipodi="http://sodipodi.sourceforge.net/DTD/sodipodi-0.dtd"
   xmlns:inkscape="http://www.inkscape.org/namespaces/inkscape"
   height="22"
   id="svg2"
   inkscape:output_extension="org.inkscape.output.svg.inkscape"
   inkscape:version="0.48.1 r9760"
   sodipodi:docname="shinto.svg"
   sodipodi:version="0.32"
   version="1.0"
   width="22">
  <metadata
     id="metadata2975">
    <rdf:RDF>
      <cc:Work
         rdf:about="">
        <dc:format>image/svg+xml</dc:format>
        <dc:type
           rdf:resource="http://purl.org/dc/dcmitype/StillImage" />
        <cc:license
           rdf:resource="http://web.resource.org/cc/PublicDomain" />
        <dc:language>en</dc:language>
      </cc:Work>
    </rdf:RDF>
  </metadata>
  <sodipodi:namedview
     bordercolor="#666666"
     borderopacity="1.0"
     gridtolerance="10.0"
     guidetolerance="10.0"
     id="base"
     inkscape:current-layer="svg2"
     inkscape:cx="-9.5708212"
     inkscape:cy="17.078967"
     inkscape:pageopacity="0.0"
     inkscape:pageshadow="2"
     inkscape:window-height="725"
     inkscape:window-width="1024"
     inkscape:window-x="0"
     inkscape:window-y="20"
     inkscape:zoom="7.3734169"
     objecttolerance="10.0"
     pagecolor="#ffffff"
     showgrid="false"
     inkscape:window-maximized="0" />
  <defs
     id="defs4">
    <inkscape:perspective
       id="perspective2441"
       inkscape:persp3d-origin="290 : 193.33333 : 1"
       inkscape:vp_x="0 : 290 : 1"
       inkscape:vp_y="0 : 1000 : 0"
       inkscape:vp_z="580 : 290 : 1"
       sodipodi:type="inkscape:persp3d" />
    <inkscape:perspective
       id="perspective2466"
       inkscape:persp3d-origin="372.04724 : 350.78739 : 1"
       inkscape:vp_x="0 : 526.18109 : 1"
       inkscape:vp_y="0 : 1000 : 0"
       inkscape:vp_z="744.09448 : 526.18109 : 1"
       sodipodi:type="inkscape:persp3d" />
    <inkscape:perspective
       id="perspective3333"
       inkscape:persp3d-origin="372.04724 : 350.78739 : 1"
       inkscape:vp_x="0 : 526.18109 : 1"
       inkscape:vp_y="0 : 1000 : 0"
       inkscape:vp_z="744.09448 : 526.18109 : 1"
       sodipodi:type="inkscape:persp3d" />
    <inkscape:perspective
       id="perspective3401"
       inkscape:persp3d-origin="372.04724 : 350.78739 : 1"
       inkscape:vp_x="0 : 526.18109 : 1"
       inkscape:vp_y="0 : 1000 : 0"
       inkscape:vp_z="744.09448 : 526.18109 : 1"
       sodipodi:type="inkscape:persp3d" />
    <inkscape:perspective
       id="perspective3464"
       inkscape:persp3d-origin="372.04724 : 350.78739 : 1"
       inkscape:vp_x="0 : 526.18109 : 1"
       inkscape:vp_y="0 : 1000 : 0"
       inkscape:vp_z="744.09448 : 526.18109 : 1"
       sodipodi:type="inkscape:persp3d" />
    <inkscape:perspective
       id="perspective3581"
       inkscape:persp3d-origin="225 : 150 : 1"
       inkscape:vp_x="0 : 225 : 1"
       inkscape:vp_y="0 : 1000 : 0"
       inkscape:vp_z="450 : 225 : 1"
       sodipodi:type="inkscape:persp3d" />
    <inkscape:perspective
       id="perspective4312"
       inkscape:persp3d-origin="225 : 150 : 1"
       inkscape:vp_x="0 : 225 : 1"
       inkscape:vp_y="0 : 1000 : 0"
       inkscape:vp_z="450 : 225 : 1"
       sodipodi:type="inkscape:persp3d" />
  </defs>
  <g
     id="g1327"
     transform="matrix(0.04245132,0,0,0.0324535,-0.51966729,2.0219977)">
    <path
       d="M 66.275,1.768 C 24.94,1.768 1.704,23.139 1.704,66.804 l 0,450.123 c 0,40.844 20.895,62.229 62.192,62.229 l 452.024,0 c 41.307,0 62.229,-20.315 62.229,-62.229 l 0,-450.123 c 0,-42.601 -20.922,-65.036 -63.521,-65.036 -0.004,0 -448.495,-0.143 -448.353,0 z"
       id="path1329"
       style="fill:#111111;fill-opacity:0;stroke:#eeeeee;stroke-width:3.40799999;stroke-opacity:0"
       inkscape:connector-curvature="0" />
  </g>
  <path
     d="M 7.5394045,19.570539 C 7.430461,19.414918 7.3823982,18.301678 7.3991799,16.322626 7.4209809,13.751517 7.3886371,13.258157 7.1778333,12.946516 6.8537478,12.467403 6.8558771,12.461078 7.3890319,12.318992 7.8192225,12.204343 7.8471101,12.159765 7.8471101,11.586695 l 0,-0.610218 -1.4887545,-0.02688 C 5.5395404,10.934812 4.821999,10.886244 4.7638185,10.841661 4.624263,10.734721 4.5610582,9.6109678 4.6859108,9.4565265 c 0.059714,-0.073862 0.5384533,-0.098857 1.236999,-0.064586 0.95672,0.046942 1.197117,0.020748 1.4981211,-0.1632033 C 8.0304813,8.8562862 7.8034682,8.6323284 6.7315879,8.5485725 4.6714377,8.3875922 4.6800392,8.3899736 4.5722449,7.9507098 4.5182264,7.7305826 4.4069595,7.5504785 4.3249837,7.5504785 4.2430065,7.5504785 3.900989,7.4113798 3.5649449,7.2413707 3.0889279,7.000548 2.9168113,6.8194925 2.7858129,6.4217732 2.6933344,6.1410032 2.4176723,5.7002157 2.1732309,5.4422454 1.9287894,5.1842753 1.7695892,4.9227436 1.8194527,4.8610637 c 0.1380206,-0.1707261 0.795889,-0.1340382 1.3213359,0.073688 0.584053,0.2308943 1.8013133,0.5112673 2.4565298,0.5658152 0.2716034,0.022612 1.2840098,0.1311083 2.2497917,0.2411036 1.4484267,0.1649651 2.4913889,0.1899947 5.9550189,0.1429068 2.309478,-0.031396 4.508254,-0.1135789 4.886168,-0.1826257 0.377914,-0.069048 1.124745,-0.1783782 1.659624,-0.2429574 0.534878,-0.06458 1.404052,-0.2718008 1.931494,-0.4604917 1.281236,-0.4583589 1.672035,-0.1984136 0.989093,0.6579085 -0.167647,0.2102091 -0.304813,0.5055627 -0.304813,0.6563403 0,0.2694709 -1.188411,1.2377294 -1.51915,1.2377294 -0.08346,0 -0.209035,0.1690367 -0.279063,0.3756379 -0.140253,0.413779 -0.452172,0.5271541 -1.503768,0.5465799 -0.934456,0.017263 -1.584188,0.1393642 -1.584188,0.29771 0,0.077085 0.157968,0.25361 0.35104,0.3922746 0.322761,0.2318055 0.436549,0.2440224 1.412409,0.1516459 0.652312,-0.061749 1.131625,-0.057682 1.243667,0.01056 0.183743,0.1119026 0.113415,1.2277203 -0.08833,1.4013633 -0.05264,0.0453 -0.768554,0.09107 -1.59093,0.101694 l -1.495227,0.01932 0.04551,0.598698 c 0.04265,0.560911 0.07684,0.606436 0.541876,0.721351 0.801751,0.198119 0.869565,0.322907 0.404894,0.745079 l -0.413833,0.375986 0.0881,2.998199 c 0.0546,1.857986 0.03162,3.075365 -0.06043,3.201105 -0.18311,0.25014 -1.531305,0.287273 -1.789657,0.04929 -0.105156,-0.09686 -0.204346,-1.293546 -0.2685,-3.239307 -0.05596,-1.697131 -0.167471,-3.183259 -0.247811,-3.302505 -0.09702,-0.144011 -0.09005,-0.259642 0.02077,-0.34436 0.09176,-0.07015 0.1669,-0.497877 0.166977,-0.950504 l 1.4e-4,-0.822959 -3.472804,0.03807 c -1.910041,0.02094 -3.4965515,0.05623 -3.5255747,0.07842 -0.029025,0.02219 -0.090118,1.922375 -0.1357627,4.222638 -0.045645,2.300261 -0.1450541,4.274218 -0.22091,4.386573 -0.2059437,0.305037 -1.2837427,0.281745 -1.503729,-0.03249 z m 4.4304105,-10.5025462 0,-0.4669264 -1.137609,0 c -0.8996473,0 -1.1671803,0.040396 -1.2789833,0.1931285 -0.1061445,0.1449994 -0.04144,0.2604411 0.259624,0.4632374 0.3178893,0.2141272 0.5829733,0.2708751 1.2789843,0.2737996 l 0.877984,0.00369 0,-0.4669273 z m 3.968267,0.1491555 c 0.168923,-0.1105706 0.30713,-0.294424 0.30713,-0.408561 0,-0.180428 -0.149516,-0.2075209 -1.145196,-0.2075209 l -1.145195,0 0,0.4085615 0,0.4085604 0.838065,0 c 0.572327,0 0.93545,-0.063746 1.145196,-0.20104 z"
     id="path1873"
     sodipodi:nodetypes="cssscccsssssssssssssssssssssssssssscccscccssssscccsssccccssccccscccccc"
     style="opacity:0.25;fill:#ffffff;fill-opacity:0"
     inkscape:connector-curvature="0" />
  <path
     d="M 5.8413521,18.272399 C 5.7324086,18.116778 5.6843456,17.003538 5.7011275,15.024486 5.7229285,12.453377 5.6905846,11.960016 5.4797807,11.648375 5.1556953,11.169263 5.1578246,11.162937 5.6909795,11.020852 6.12117,10.906203 6.1490576,10.861625 6.1490576,10.288554 l 0,-0.610217 -1.4887544,-0.02688 C 3.8414874,9.6366763 3.1239463,9.5881057 3.065766,9.5435234 2.9262107,9.4365828 2.8630059,8.3128293 2.9878584,8.1583887 3.0475721,8.0845271 3.5263118,8.0595315 4.2248568,8.0938025 5.1815772,8.1407448 5.4219743,8.1145506 5.7229784,7.9305998 6.3324288,7.5581483 6.1054158,7.3341905 5.0335354,7.2504342 2.973385,7.0894539 2.9819866,7.0918355 2.8741926,6.6525714 2.8201742,6.4324444 2.7089068,6.2523401 2.6269308,6.2523401 2.5449542,6.2523401 2.2029369,6.1132415 1.8668923,5.9432325 1.3908755,5.7024078 1.2187588,5.5213522 1.0877604,5.1236329 0.99528177,4.8428628 0.71961977,4.4020755 0.47517827,4.144105 0.23073693,3.8861349 0.07153669,3.6246033 0.1214002,3.5629234 0.2594208,3.3921973 0.91728917,3.4288851 1.4427361,3.6366115 2.026789,3.8675057 3.2440495,4.1478789 3.8992659,4.2024266 4.1708692,4.2250376 5.1832757,4.333535 6.1490576,4.4435302 7.5974843,4.6084955 8.6404469,4.6335251 12.104076,4.5864371 14.413554,4.5550411 16.612331,4.4728581 16.990244,4.4038114 17.368159,4.3347634 18.114991,4.2254333 18.649869,4.160854 19.184747,4.096274 20.05392,3.8890532 20.581363,3.7003623 21.8626,3.2420034 22.253398,3.5019486 21.570457,4.3582706 21.40281,4.56848 21.265642,4.8638333 21.265642,5.014611 c 0,0.269471 -1.188411,1.2377291 -1.519149,1.2377291 -0.08346,0 -0.209036,0.1690368 -0.279064,0.3756381 -0.140252,0.413779 -0.452171,0.527154 -1.503768,0.5465803 -0.934456,0.017263 -1.584187,0.1393639 -1.584187,0.29771 0,0.077085 0.157968,0.2536096 0.351041,0.3922739 0.322759,0.2318055 0.436548,0.2440224 1.412407,0.1516465 0.652313,-0.061749 1.131627,-0.057681 1.243668,0.01056 0.183743,0.1119013 0.113415,1.2277196 -0.08833,1.4013629 -0.05264,0.045303 -0.768554,0.091067 -1.590929,0.1016941 l -1.495229,0.019322 0.04551,0.5986971 c 0.04264,0.560911 0.07684,0.606436 0.541876,0.721351 0.801753,0.198119 0.869566,0.322907 0.404894,0.74508 l -0.413833,0.375985 0.0881,2.9982 c 0.0546,1.857986 0.03162,3.075364 -0.06043,3.201104 -0.183112,0.25014 -1.531306,0.287273 -1.789658,0.04929 -0.105156,-0.09686 -0.204347,-1.293545 -0.268501,-3.239307 -0.05596,-1.69713 -0.16747,-3.183258 -0.247811,-3.302506 -0.09702,-0.14401 -0.09005,-0.25964 0.02077,-0.344358 0.09176,-0.07015 0.1669,-0.497878 0.166976,-0.950505 l 1.42e-4,-0.8229587 -3.472805,0.03807 c -1.9100406,0.02094 -3.4965507,0.056226 -3.5255742,0.078416 -0.029025,0.022185 -0.090119,1.9223747 -0.1357627,4.2226377 -0.045645,2.300261 -0.1450542,4.274219 -0.2209101,4.386574 -0.2059437,0.305037 -1.2837426,0.281744 -1.503729,-0.03249 z m 4.4304109,-10.5025464 0,-0.4669268 -1.1376093,0 c -0.8996479,0 -1.1671806,0.040398 -1.2789839,0.1931284 -0.106145,0.1449999 -0.041444,0.2604417 0.2596249,0.463238 0.3178876,0.214127 0.5829723,0.2708746 1.2789834,0.2737994 l 0.8779849,0.00369 0,-0.4669275 z m 3.968266,0.1491555 c 0.168923,-0.1105705 0.307131,-0.2944244 0.307131,-0.4085608 0,-0.1804283 -0.149516,-0.2075215 -1.145195,-0.2075215 l -1.145195,0 0,0.408562 0,0.4085604 0.838064,0 c 0.572328,0 0.935451,-0.063747 1.145195,-0.2010401 z"
     id="path6923"
     sodipodi:nodetypes="cssscccsssssssssssssssssssssssssssscccscccssssscccsssccccssccccscccccc"
     style="fill:#5e8019"
     inkscape:connector-curvature="0" />
</svg>
