<?xml version="1.0" encoding="UTF-8" standalone="no"?>
<!-- Created with Inkscape (http://www.inkscape.org/) -->

<svg
   xmlns:dc="http://purl.org/dc/elements/1.1/"
   xmlns:cc="http://creativecommons.org/ns#"
   xmlns:rdf="http://www.w3.org/1999/02/22-rdf-syntax-ns#"
   xmlns:svg="http://www.w3.org/2000/svg"
   xmlns="http://www.w3.org/2000/svg"
   xmlns:xlink="http://www.w3.org/1999/xlink"
   xmlns:sodipodi="http://sodipodi.sourceforge.net/DTD/sodipodi-0.dtd"
   xmlns:inkscape="http://www.inkscape.org/namespaces/inkscape"
   height="22"
   id="svg2"
   inkscape:output_extension="org.inkscape.output.svg.inkscape"
   inkscape:version="0.48.1 r9760"
   sodipodi:docname="shop_department.svg"
   sodipodi:version="0.32"
   version="1.0"
   width="22">
  <metadata
     id="metadata2975">
    <rdf:RDF>
      <cc:Work
         rdf:about="">
        <dc:format>image/svg+xml</dc:format>
        <dc:type
           rdf:resource="http://purl.org/dc/dcmitype/StillImage" />
        <cc:license
           rdf:resource="http://web.resource.org/cc/PublicDomain" />
        <dc:language>en</dc:language>
        <dc:title />
      </cc:Work>
    </rdf:RDF>
  </metadata>
  <sodipodi:namedview
     bordercolor="#666666"
     borderopacity="1.0"
     gridtolerance="10.0"
     guidetolerance="10.0"
     id="base"
     inkscape:current-layer="svg2"
     inkscape:cx="31.570822"
     inkscape:cy="-5.8544315"
     inkscape:guide-bbox="true"
     inkscape:pageopacity="0.0"
     inkscape:pageshadow="2"
     inkscape:window-height="725"
     inkscape:window-maximized="0"
     inkscape:window-width="1024"
     inkscape:window-x="0"
     inkscape:window-y="24"
     inkscape:zoom="7.3734168"
     objecttolerance="10.0"
     pagecolor="#ffffff"
     showgrid="false"
     showguides="true" />
  <defs
     id="defs4">
    <inkscape:perspective
       id="perspective2441"
       inkscape:persp3d-origin="290 : 193.33333 : 1"
       inkscape:vp_x="0 : 290 : 1"
       inkscape:vp_y="6.1230318e-14 : 1000 : 0"
       inkscape:vp_z="580 : 290 : 1"
       sodipodi:type="inkscape:persp3d" />
    <inkscape:perspective
       id="perspective3452"
       inkscape:persp3d-origin="30 : 20 : 1"
       inkscape:vp_x="0 : 30 : 1"
       inkscape:vp_y="0 : 1000 : 0"
       inkscape:vp_z="60 : 30 : 1"
       sodipodi:type="inkscape:persp3d" />
    <symbol
       id="symbol-university"
       viewBox="244.5 110 489 219.9">
      <path
         d="M79,43l57,119c0,0,21-96,104-96s124,106,124,106l43-133l82-17L0,17L79,43z"
         id="path4460" />
      <path
         d="M94,176l-21,39"
         fill="none"
         id="path4462"
         stroke="#000000"
         stroke-width="20" />
      <path
         d="M300,19c0,10.5-22.6,19-50.5,19S199,29.5,199,19s22.6-19,50.5-19S300,8.5,300,19z"
         id="path4464" />
      <path
         d="M112,216l-16-38L64,88c0,0-9-8-4-35s16-24,16-24"
         id="path4466"
         ill="none"
         stroke="#000000"
         stroke-width="20" />
    </symbol>
    <inkscape:perspective
       id="perspective4471"
       inkscape:persp3d-origin="372.04724 : 350.78739 : 1"
       inkscape:vp_x="0 : 526.18109 : 1"
       inkscape:vp_y="0 : 1000 : 0"
       inkscape:vp_z="744.09448 : 526.18109 : 1"
       sodipodi:type="inkscape:persp3d" />
    <inkscape:perspective
       id="perspective4668"
       inkscape:persp3d-origin="6 : 4 : 1"
       inkscape:vp_x="0 : 6 : 1"
       inkscape:vp_y="0 : 1000 : 0"
       inkscape:vp_z="12 : 6 : 1"
       sodipodi:type="inkscape:persp3d" />
    <inkscape:perspective
       id="perspective3826"
       inkscape:persp3d-origin="0.5 : 0.33333333 : 1"
       inkscape:vp_x="0 : 0.5 : 1"
       inkscape:vp_y="0 : 1000 : 0"
       inkscape:vp_z="1 : 0.5 : 1"
       sodipodi:type="inkscape:persp3d" />
    <inkscape:perspective
       id="perspective3855"
       inkscape:persp3d-origin="0.5 : 0.33333333 : 1"
       inkscape:vp_x="0 : 0.5 : 1"
       inkscape:vp_y="0 : 1000 : 0"
       inkscape:vp_z="1 : 0.5 : 1"
       sodipodi:type="inkscape:persp3d" />
    <inkscape:perspective
       id="perspective3909"
       inkscape:persp3d-origin="0.5 : 0.33333333 : 1"
       inkscape:vp_x="0 : 0.5 : 1"
       inkscape:vp_y="0 : 1000 : 0"
       inkscape:vp_z="1 : 0.5 : 1"
       sodipodi:type="inkscape:persp3d" />
    <inkscape:perspective
       id="perspective3950"
       inkscape:persp3d-origin="0.5 : 0.33333333 : 1"
       inkscape:vp_x="0 : 0.5 : 1"
       inkscape:vp_y="0 : 1000 : 0"
       inkscape:vp_z="1 : 0.5 : 1"
       sodipodi:type="inkscape:persp3d" />
    <inkscape:perspective
       id="perspective3972"
       inkscape:persp3d-origin="0.5 : 0.33333333 : 1"
       inkscape:vp_x="0 : 0.5 : 1"
       inkscape:vp_y="0 : 1000 : 0"
       inkscape:vp_z="1 : 0.5 : 1"
       sodipodi:type="inkscape:persp3d" />
    <inkscape:perspective
       id="perspective3994"
       inkscape:persp3d-origin="0.5 : 0.33333333 : 1"
       inkscape:vp_x="0 : 0.5 : 1"
       inkscape:vp_y="0 : 1000 : 0"
       inkscape:vp_z="1 : 0.5 : 1"
       sodipodi:type="inkscape:persp3d" />
    <inkscape:perspective
       id="perspective4016"
       inkscape:persp3d-origin="0.5 : 0.33333333 : 1"
       inkscape:vp_x="0 : 0.5 : 1"
       inkscape:vp_y="0 : 1000 : 0"
       inkscape:vp_z="1 : 0.5 : 1"
       sodipodi:type="inkscape:persp3d" />
    <inkscape:perspective
       id="perspective4837"
       inkscape:persp3d-origin="0.5 : 0.33333333 : 1"
       inkscape:vp_x="0 : 0.5 : 1"
       inkscape:vp_y="0 : 1000 : 0"
       inkscape:vp_z="1 : 0.5 : 1"
       sodipodi:type="inkscape:persp3d" />
    <inkscape:perspective
       id="perspective4971"
       inkscape:persp3d-origin="0.5 : 0.33333333 : 1"
       inkscape:vp_x="0 : 0.5 : 1"
       inkscape:vp_y="0 : 1000 : 0"
       inkscape:vp_z="1 : 0.5 : 1"
       sodipodi:type="inkscape:persp3d" />
    <inkscape:perspective
       id="perspective6216"
       inkscape:persp3d-origin="0.5 : 0.33333333 : 1"
       inkscape:vp_x="0 : 0.5 : 1"
       inkscape:vp_y="0 : 1000 : 0"
       inkscape:vp_z="1 : 0.5 : 1"
       sodipodi:type="inkscape:persp3d" />
    <inkscape:perspective
       id="perspective6764"
       inkscape:persp3d-origin="0.5 : 0.33333333 : 1"
       inkscape:vp_x="0 : 0.5 : 1"
       inkscape:vp_y="0 : 1000 : 0"
       inkscape:vp_z="1 : 0.5 : 1"
       sodipodi:type="inkscape:persp3d" />
    <inkscape:perspective
       id="perspective6817"
       inkscape:persp3d-origin="0.5 : 0.33333333 : 1"
       inkscape:vp_x="0 : 0.5 : 1"
       inkscape:vp_y="0 : 1000 : 0"
       inkscape:vp_z="1 : 0.5 : 1"
       sodipodi:type="inkscape:persp3d" />
    <radialGradient
       cx="180.2453"
       cy="198.41902"
       fx="180.2453"
       fy="198.41902"
       gradientTransform="scale(0.79354273,1.2601716)"
       gradientUnits="userSpaceOnUse"
       id="radialGradient874"
       r="101.58017"
       xlink:href="#linearGradient829" />
    <linearGradient
       id="linearGradient829">
      <stop
         id="stop830"
         offset="0.0000000"
         style="stop-color: rgb(255, 255, 255); stop-opacity: 0.341667;" />
      <stop
         id="stop831"
         offset="1.0000000"
         style="stop-color: rgb(255, 255, 255); stop-opacity: 0;" />
    </linearGradient>
    <radialGradient
       cx="360.85146"
       cy="167.47372"
       fx="360.85146"
       fy="167.47372"
       gradientTransform="scale(1.007004,0.99304475)"
       gradientUnits="userSpaceOnUse"
       id="radialGradient832"
       r="46.394721"
       xlink:href="#linearGradient829" />
    <linearGradient
       id="linearGradient6826">
      <stop
         id="stop6828"
         offset="0.0000000"
         style="stop-color: rgb(255, 255, 255); stop-opacity: 0.341667;" />
      <stop
         id="stop6830"
         offset="1.0000000"
         style="stop-color: rgb(255, 255, 255); stop-opacity: 0;" />
    </linearGradient>
    <linearGradient
       gradientTransform="scale(0.74491357,1.3424376)"
       gradientUnits="userSpaceOnUse"
       id="linearGradient850"
       spreadMethod="pad"
       x1="465.29425"
       x2="463.27056"
       xlink:href="#linearGradient855"
       y1="248.24467"
       y2="405.7687" />
    <linearGradient
       id="linearGradient855">
      <stop
         id="stop856"
         offset="0.0000000"
         style="stop-color: rgb(255, 255, 255); stop-opacity: 0;" />
      <stop
         id="stop857"
         offset="1.0000000"
         style="stop-color: rgb(255, 166, 23); stop-opacity: 0.733333;" />
    </linearGradient>
    <linearGradient
       gradientTransform="scale(1.4586159,0.68558144)"
       gradientUnits="userSpaceOnUse"
       id="linearGradient854"
       x1="157.80581"
       x2="155.40575"
       xlink:href="#linearGradient855"
       y1="120.96176"
       y2="231.63491" />
    <linearGradient
       id="linearGradient6837">
      <stop
         id="stop6839"
         offset="0.0000000"
         style="stop-color: rgb(255, 255, 255); stop-opacity: 0;" />
      <stop
         id="stop6841"
         offset="1.0000000"
         style="stop-color: rgb(255, 166, 23); stop-opacity: 0.733333;" />
    </linearGradient>
    <inkscape:perspective
       id="perspective6928"
       inkscape:persp3d-origin="0.5 : 0.33333333 : 1"
       inkscape:vp_x="0 : 0.5 : 1"
       inkscape:vp_y="0 : 1000 : 0"
       inkscape:vp_z="1 : 0.5 : 1"
       sodipodi:type="inkscape:persp3d" />
    <inkscape:perspective
       id="perspective10781"
       inkscape:persp3d-origin="0.5 : 0.33333333 : 1"
       inkscape:vp_x="0 : 0.5 : 1"
       inkscape:vp_y="0 : 1000 : 0"
       inkscape:vp_z="1 : 0.5 : 1"
       sodipodi:type="inkscape:persp3d" />
    <inkscape:perspective
       id="perspective10806"
       inkscape:persp3d-origin="0.5 : 0.33333333 : 1"
       inkscape:vp_x="0 : 0.5 : 1"
       inkscape:vp_y="0 : 1000 : 0"
       inkscape:vp_z="1 : 0.5 : 1"
       sodipodi:type="inkscape:persp3d" />
    <inkscape:perspective
       id="perspective10878"
       inkscape:persp3d-origin="0.5 : 0.33333333 : 1"
       inkscape:vp_x="0 : 0.5 : 1"
       inkscape:vp_y="0 : 1000 : 0"
       inkscape:vp_z="1 : 0.5 : 1"
       sodipodi:type="inkscape:persp3d" />
    <inkscape:perspective
       id="perspective10919"
       inkscape:persp3d-origin="0.5 : 0.33333333 : 1"
       inkscape:vp_x="0 : 0.5 : 1"
       inkscape:vp_y="0 : 1000 : 0"
       inkscape:vp_z="1 : 0.5 : 1"
       sodipodi:type="inkscape:persp3d" />
    <clipPath
       clipPathUnits="userSpaceOnUse"
       id="clipoutline2">
      <path
         d="m 55.8,12 0.76,0.16 c 8.84,-2.94 28.68,8.64 24.26,18.96 -1.12,1.62 -0.93,4.5 0.42,6.31 L 56.43,62.25 c -1.39,-1.39 -4.48,-1.36 -5.9,0 L 9.5,101.63 c -3.74,3.59 -0.8,6.64 0.78,8.25 l 7.36,7.36 c 1.61,1.6 5.86,3.76 8.88,0.56 L 65.24,76.99 c 1.35,-1.42 1.36,-4.47 0,-5.87 0,0 0.01,-0.02 0,-0.02 L 90.15,46.2 c 2.63,2.37 5.113827,2.574854 7.47,1.93 4.55057,-1.245432 7.08725,3.206643 9.81,6.46 l -1.23,1.21 c -1.82,1.84 -1.65,4.94 0.39,6.98 2.04,2.04 5.15,2.21 6.97,0.39 l 8.14,-8.13 c 1.82,-1.84 1.65,-4.94 -0.4,-6.97 -1.84,-1.85 -4.51,-2.09 -6.37,-0.77 -5.58,-6.26 -2.65,-7.2 -10.01,-15.35 L 91.13,17.86 C 81.2,8.12 68.3,8.13 55.8,12 z"
         id="outline2"
         inkscape:connector-curvature="0" />
    </clipPath>
  </defs>
  <g
     id="g1327"
     transform="matrix(0.04034262,0,0,0.04034262,-0.81373403,-0.67768516)">
    <path
       d="M 66.275,1.768 C 24.94,1.768 1.704,23.139 1.704,66.804 l 0,450.123 c 0,40.844 20.895,62.229 62.192,62.229 l 452.024,0 c 41.307,0 62.229,-20.315 62.229,-62.229 l 0,-450.123 c 0,-42.601 -20.922,-65.036 -63.521,-65.036 -0.004,0 -448.495,-0.143 -448.353,0 z"
       id="path1329"
       style="fill:#111111;fill-opacity:0;stroke:#eeeeee;stroke-width:3.40799999;stroke-opacity:0"
       inkscape:connector-curvature="0" />
  </g>
  <g
     id="layer3"
     inkscape:label="Layout"
     style="display:none;stroke:#757575;stroke-opacity:1"
     transform="matrix(48.14969,0,0,48.14969,-536.27327,-33.306752)">
    <rect
       height="10"
       id="rect4134"
       style="fill:none;stroke:#757575;stroke-width:0.10000000000000001;stroke-miterlimit:4;stroke-dasharray:none;stroke-opacity:1;display:inline"
       width="10"
       x="1"
       y="1" />
    <rect
       height="8"
       id="rect4136"
       style="fill:none;stroke:#757575;stroke-width:0.10000000000000001;stroke-miterlimit:4;stroke-dasharray:none;stroke-opacity:1;display:inline"
       width="8"
       x="2"
       y="2" />
  </g>
  <g
     id="g3338"
     transform="matrix(0.05637187,-0.00983492,0.00983492,0.05637187,-8.2801049,-2.944267)" />
  <g
     id="g4238"
     transform="matrix(0.07887181,0,0,0.07887181,4.4321426,-6.4602646)">
    <path
       d="m 209.74503,225.79765 c 0,0 -10.56174,35.79543 -41.59499,25.12539 -0.005,0.0224 3.7446,-31.18541 41.59499,-25.12539 z"
       id="path6571"
       inkscape:connector-curvature="0"
       style="fill:#ad30c0" />
    <path
       d="m 157.72652,270.07711 c 5.36274,-5.30508 12.68607,-8.50543 20.81666,-8.50543 16.40541,0 29.75463,13.29154 29.75463,29.72577 0,0.60547 0,1.12444 -0.0288,1.75875 h -0.0576 c -0.51898,6.42953 -2.56606,14.41598 -7.40985,24.33419 0,0 -8.33244,15.94407 -15.02146,23.2674 l -0.60547,0.57664 c -3.22916,3.25801 -7.78462,5.30508 -12.71487,5.30508 -6.05474,0 -11.41748,-2.94086 -14.67549,-7.49631 h -0.0865 c -3.25802,4.55545 -8.62076,7.49631 -14.67547,7.49631 -4.98794,0 -9.48572,-2.01824 -12.74374,-5.30508 l -0.60546,-0.57664 c -6.63136,-7.32333 -15.02146,-23.2674 -15.02146,-23.2674 -4.84377,-9.91821 -6.89084,-17.96232 -7.35216,-24.33419 h -0.14415 c -0.0865,-0.60547 -0.0865,-1.12445 -0.0865,-1.75875 0,-16.43423 13.34921,-29.72577 29.81226,-29.72577 8.10178,0 15.42511,3.20035 20.84552,8.50543"
       id="path6573"
       inkscape:connector-curvature="0"
       style="fill:#ad30c0" />
    <path
       d="m 113.68291,214.69051 c 0,0 6.27532,31.27326 33.50285,24.54444 0.003,0.0195 -0.82177,-26.83164 -33.50285,-24.54444 z"
       id="path10957"
       inkscape:connector-curvature="0"
       style="fill:#ad30c0" />
    <path
       d="m 156.85947,263.78173 c 0,0 -0.30241,-32.11059 -3.62889,-40.48726 -3.32648,-8.37667 11.18908,0 11.18908,0 l -7.56019,40.48726 z"
       id="path10959"
       inkscape:connector-curvature="0"
       style="fill:#ad30c0;fill-opacity:1;stroke:#ad30c0;stroke-width:1.3514632;stroke-linecap:butt;stroke-linejoin:miter;stroke-miterlimit:4;stroke-opacity:1;stroke-dasharray:none" />
  </g>
  <g
     id="g4015"
     transform="matrix(0.04034262,0,0,0.04034262,-0.73304873,-0.83905564)">
    <path
       d="M 56.491347,345.3433 171.48706,496.40865 296.26258,436.03365 184.37297,286.25628 56.491347,345.3433 z"
       id="path3470"
       inkscape:connector-curvature="0"
       style="fill:#ad30c0;fill-opacity:1;fill-rule:evenodd;stroke:#ad30c0;stroke-width:5.49104214;stroke-linecap:round;stroke-linejoin:round;stroke-miterlimit:4;stroke-opacity:1;stroke-dasharray:none" />
    <path
       d="M 42.478704,360.31161 155.50474,509.10418 152.24539,562.17255 38.177673,413.03907 42.478704,360.31161 z"
       id="path3474"
       inkscape:connector-curvature="0"
       style="fill:#ad30c0;fill-opacity:1;fill-rule:evenodd;stroke:#ad30c0;stroke-width:5.49104214;stroke-linecap:round;stroke-linejoin:round;stroke-miterlimit:4;stroke-opacity:1;stroke-dasharray:none" />
    <path
       d="m 293.27333,464.43786 -117.69458,58.1195 -0.20367,1.73897 117.59638,-58.07887 0.30188,-1.7796 z"
       id="path3476"
       inkscape:connector-curvature="0"
       sodipodi:nodetypes="ccccc"
       style="opacity:0.75;fill:#ad30c0;fill-opacity:1;fill-rule:evenodd;stroke:#ad30c0;stroke-width:9.04777431;stroke-linecap:round;stroke-linejoin:round;stroke-miterlimit:4;stroke-opacity:1;stroke-dasharray:none" />
    <path
       d="m 290.98944,496.39729 -117.69457,58.1195 -0.20368,1.73898 117.59639,-58.07887 0.30187,-1.77961 z"
       id="path3505"
       inkscape:connector-curvature="0"
       sodipodi:nodetypes="ccccc"
       style="opacity:0.75;fill:#ad30c0;fill-opacity:1;fill-rule:evenodd;stroke:#ad30c0;stroke-width:9.04777431;stroke-linecap:round;stroke-linejoin:round;stroke-miterlimit:4;stroke-opacity:1;stroke-dasharray:none" />
  </g>
  <g
     id="g3753"
     transform="matrix(0.01866733,0,0,0.01866733,11.609469,0.09540403)">
    <g
       id="g3709"
       style="fill:none;stroke:#ffffff;stroke-width:1.00000334;stroke-linecap:butt;stroke-linejoin:round;stroke-miterlimit:4;stroke-opacity:1;stroke-dasharray:none"
       transform="matrix(31.921892,0,0,31.921892,35.399153,14.948442)">
      <path
         d="M 8,15 0.5,6 15.5,6 z"
         id="path3700"
         inkscape:connector-curvature="0"
         style="stroke:#ad30c0;stroke-width:1.00000334;stroke-linejoin:round;stroke-miterlimit:4;stroke-opacity:1;stroke-dasharray:none" />
      <path
         d="M 0.5,6 3,3 13,3 15.5,6 z"
         id="path3702"
         inkscape:connector-curvature="0"
         style="stroke:#ad30c0;stroke-width:1.00000334;stroke-linejoin:round;stroke-miterlimit:4;stroke-opacity:1;stroke-dasharray:none" />
      <path
         d="M 4.5,3 8,15 11.5,3"
         id="path3706"
         inkscape:connector-curvature="0"
         style="stroke:#ad30c0;stroke-width:1.00000334;stroke-linejoin:round;stroke-miterlimit:4;stroke-opacity:1;stroke-dasharray:none" />
    </g>
    <path
       d="M 290.77429,493.77682 51.360099,206.4798 l 478.828381,0 z"
       id="path3700-3"
       inkscape:connector-curvature="0"
       style="opacity:0.1;fill:#ffffff;fill-opacity:1;stroke:#ffffff;stroke-width:31.92199898;stroke-linecap:butt;stroke-linejoin:round;stroke-miterlimit:4;stroke-opacity:1;stroke-dasharray:none" />
    <path
       d="m 51.360099,206.4798 79.804731,-95.76568 319.21892,0 79.80473,95.76568 z"
       id="path3702-2"
       inkscape:connector-curvature="0"
       style="opacity:0.1;fill:#ffffff;fill-opacity:1;stroke:#ffffff;stroke-width:31.92199898;stroke-linecap:butt;stroke-linejoin:round;stroke-miterlimit:4;stroke-opacity:1;stroke-dasharray:none" />
  </g>
  <g
     id="g3219"
     style="fill:#ffffff;fill-opacity:1;stroke:#ffffff;stroke-opacity:1"
     transform="matrix(0.07079204,0,0,0.07079204,-4.3588762,-38.132907)">
    <path
       d="m 67.613793,570.41735 c 24.468075,-13.10042 45.356037,-11.77452 66.041377,-23.06206 11.09637,2.43104 19.357,1.4592 26.99311,-0.26207 23.42862,10.78637 44.02825,12.51579 66.04138,23.5862 -1.82964,11.55946 -5.85886,21.54778 -12.57932,29.6138 -8.15361,-4.36994 -15.86829,-6.10632 -23.32413,-6.28966 l -0.52414,78.62069 c -32.1215,5.98273 -59.34716,3.39775 -85.95862,-0.26207 l -0.26207,-78.09655 c -9.370679,-0.2722 -16.500436,3.19047 -23.848277,6.28966 -7.067215,-9.63539 -10.36885,-19.80873 -12.57931,-30.13794 z"
       id="path2427"
       inkscape:connector-curvature="0"
       sodipodi:nodetypes="ccccccccccc"
       style="fill:#ad30c0;fill-opacity:1;fill-rule:evenodd;stroke:#ad30c0;stroke-width:2;stroke-linecap:butt;stroke-linejoin:miter;stroke-miterlimit:4;stroke-opacity:1;stroke-dasharray:none" />
    <path
       d="m 71.282759,569.10701 c 2.214678,10.74851 6.083496,20.78686 13.627586,29.35172"
       id="path3199"
       inkscape:connector-curvature="0"
       sodipodi:nodetypes="cc"
       style="fill:#ad30c0;fill-opacity:1;fill-rule:evenodd;stroke:#ad30c0;stroke-width:1px;stroke-linecap:butt;stroke-linejoin:miter;stroke-opacity:1" />
    <path
       d="m 105.35172,668.16908 c 28.12874,4.60443 56.25747,5.59295 84.38621,-0.26207"
       id="path3203"
       inkscape:connector-curvature="0"
       sodipodi:nodetypes="cc"
       style="fill:#ad30c0;fill-opacity:1;fill-rule:evenodd;stroke:#ad30c0;stroke-width:1px;stroke-linecap:butt;stroke-linejoin:miter;stroke-opacity:1" />
    <path
       d="m 133.3931,547.61736 c -0.22816,2.3247 1.69237,12.73282 13.88965,13.36551 11.93593,0.61914 14.27527,-11.53603 13.88966,-13.10345"
       id="path3205"
       inkscape:connector-curvature="0"
       sodipodi:nodetypes="czc"
       style="fill:#ad30c0;fill-opacity:1;fill-rule:evenodd;stroke:#ad30c0;stroke-width:1px;stroke-linecap:butt;stroke-linejoin:miter;stroke-opacity:1" />
    <path
       d="m 128.21194,550.41871 c -0.22816,2.3247 4.57424,15.11165 18.34482,15.46206 14.03248,0.35707 19.77872,-14.68086 19.39311,-16.24828"
       id="path3207"
       inkscape:connector-curvature="0"
       sodipodi:nodetypes="czc"
       style="fill:#ad30c0;fill-opacity:1;fill-rule:evenodd;stroke:#ad30c0;stroke-width:1px;stroke-linecap:butt;stroke-linejoin:miter;stroke-opacity:1" />
    <path
       d="m 134.52279,552.33459 c 8.53814,2.23324 16.08174,1.75419 25.31809,-0.20185"
       id="path3209"
       inkscape:connector-curvature="0"
       sodipodi:nodetypes="cc"
       style="fill:#ad30c0;fill-opacity:1;fill-rule:evenodd;stroke:#ad30c0;stroke-width:1px;stroke-linecap:butt;stroke-linejoin:miter;stroke-opacity:1" />
    <path
       d="m 104.16182,558.28077 c 2.57594,9.88539 6.83803,21.48891 -0.26207,35.37931"
       id="path3213"
       inkscape:connector-curvature="0"
       sodipodi:nodetypes="cc"
       style="fill:#ad30c0;fill-opacity:1;fill-rule:evenodd;stroke:#ad30c0;stroke-width:1px;stroke-linecap:butt;stroke-linejoin:miter;stroke-opacity:1" />
    <path
       d="m 190.37521,558.48262 c -2.57594,9.88539 -6.83803,21.48891 0.26207,35.37931"
       id="path3215"
       inkscape:connector-curvature="0"
       sodipodi:nodetypes="cc"
       style="fill:#ad30c0;fill-opacity:1;fill-rule:evenodd;stroke:#ad30c0;stroke-width:1px;stroke-linecap:butt;stroke-linejoin:miter;stroke-opacity:1" />
    <path
       d="m 223.28276,568.84494 c -2.21468,10.74851 -6.0835,20.78686 -13.62759,29.35172"
       id="path3217"
       inkscape:connector-curvature="0"
       sodipodi:nodetypes="cc"
       style="fill:#ad30c0;fill-opacity:1;fill-rule:evenodd;stroke:#ad30c0;stroke-width:1px;stroke-linecap:butt;stroke-linejoin:miter;stroke-opacity:1" />
  </g>
</svg>
