<?xml version="1.0" encoding="UTF-8" standalone="no"?>
<!-- Created with Inkscape (http://www.inkscape.org/) -->

<svg
   xmlns:dc="http://purl.org/dc/elements/1.1/"
   xmlns:cc="http://creativecommons.org/ns#"
   xmlns:rdf="http://www.w3.org/1999/02/22-rdf-syntax-ns#"
   xmlns:svg="http://www.w3.org/2000/svg"
   xmlns="http://www.w3.org/2000/svg"
   xmlns:sodipodi="http://sodipodi.sourceforge.net/DTD/sodipodi-0.dtd"
   xmlns:inkscape="http://www.inkscape.org/namespaces/inkscape"
   width="48"
   height="48"
   id="svg2"
   version="1.1"
   inkscape:version="0.48.3.1 r9886"
   sodipodi:docname="gui_sound_off.svg"
   inkscape:export-filename="/home/michael/src/navit-artwork/gui_sound_off.png"
   inkscape:export-xdpi="134.99994"
   inkscape:export-ydpi="134.99994">
  <defs
     id="defs4">
    <clipPath
       clipPathUnits="userSpaceOnUse"
       id="clipPath428">
      <path
         inkscape:connector-curvature="0"
         d="M 0,96 96,96 96,0 0,0 0,96 z"
         id="path430" />
    </clipPath>
  </defs>
  <sodipodi:namedview
     id="base"
     pagecolor="#ffffff"
     bordercolor="#666666"
     borderopacity="1.0"
     inkscape:pageopacity="0.0"
     inkscape:pageshadow="2"
     inkscape:zoom="15.8125"
     inkscape:cx="24.221344"
     inkscape:cy="24"
     inkscape:document-units="px"
     inkscape:current-layer="layer1"
     showgrid="true"
     showguides="true"
     inkscape:guide-bbox="true"
     inkscape:window-width="1280"
     inkscape:window-height="955"
     inkscape:window-x="0"
     inkscape:window-y="24"
     inkscape:window-maximized="1">
    <sodipodi:guide
       orientation="0,1"
       position="0,40"
       id="guide2985" />
    <sodipodi:guide
       orientation="0,1"
       position="0,8"
       id="guide2987" />
    <sodipodi:guide
       orientation="1,0"
       position="8,0"
       id="guide2989" />
    <sodipodi:guide
       orientation="1,0"
       position="40,0"
       id="guide2991" />
    <inkscape:grid
       type="xygrid"
       id="grid3763"
       empspacing="5"
       visible="true"
       enabled="true"
       snapvisiblegridlinesonly="true" />
  </sodipodi:namedview>
  <metadata
     id="metadata7">
    <rdf:RDF>
      <cc:Work
         rdf:about="">
        <dc:format>image/svg+xml</dc:format>
        <dc:type
           rdf:resource="http://purl.org/dc/dcmitype/StillImage" />
        <dc:title></dc:title>
      </cc:Work>
    </rdf:RDF>
  </metadata>
  <g
     inkscape:label="Layer 1"
     inkscape:groupmode="layer"
     id="layer1"
     transform="translate(0,-1004.3622)">
    <rect
       style="fill:#000000;fill-opacity:0.62745098;stroke:none"
       id="rect2993"
       width="48"
       height="48.000019"
       x="3.5527137e-15"
       y="1004.3622"
       rx="4" />
    <g
       id="g424"
       transform="matrix(0.45714286,0,0,-0.45714286,2.0572799,1050.3049)"
       style="fill:#ffffff;fill-opacity:1">
      <g
         id="g426"
         clip-path="url(#clipPath428)"
         style="fill:#ffffff;fill-opacity:1">
        <g
           id="g432"
           transform="translate(58.0527,46.4707)"
           style="fill:#ffffff;fill-opacity:1">
          <path
             d="m 0,0 c -0.104,-15.984 -1.828,-28.715 -3.955,-28.715 -1.749,0 -4.147,8.621 -5.042,20.559 l -11.614,-10.487 c 4.938,-7.257 10.408,-14.828 11.783,-14.828 l 5.769,0 c 3.811,0 6.675,15.751 6.675,35.077 L 3.603,3.252 0,0 z m -32.653,-11.591 0.454,0 24.226,21.882 c -0.324,0.313 -0.673,0.584 -1.037,0.804 0.896,12.018 3.293,20.676 5.055,20.676 1.453,0 2.711,-5.925 3.41,-14.766 l 3.241,2.931 c -1.102,9.969 -3.124,16.593 -5.6,16.593 l -5.924,0 c -1.867,0 -10.254,-13.159 -15.619,-21.883 l -8.206,0 c -2.087,0 -3.786,-5.82 -3.786,-13.118 0,-7.298 1.699,-13.119 3.786,-13.119 m 51.889,42.026 -61.91,-55.96 3.33,-3.994 61.912,55.964 -3.332,3.99 z"
             style="fill:#ffffff;fill-opacity:1;fill-rule:evenodd;stroke:none"
             id="path434"
             inkscape:connector-curvature="0" />
        </g>
      </g>
    </g>
  </g>
</svg>
