/* XPM */
static char *dummy[]={
"16 16 56 1",
". c None",
"v c #000000",
"V c #0c0c0c",
"o c #121212",
"Y c #131313",
"C c #141414",
"u c #191919",
"F c #1e1e1e",
"D c #232323",
"c c #292929",
"T c #2b2b2b",
"1 c #2d2d2d",
"g c #2e2e2e",
"b c #2f2f2f",
"K c #303030",
"y c #343434",
"d c #363636",
"a c #393939",
"B c #3b3b3b",
"L c #3d3d3d",
"k c #404040",
"m c #414141",
"f c #444444",
"p c #454545",
"U c #474747",
"t c #494949",
"n c #4d4d4d",
"J c #4e4e4e",
"j c #525252",
"e c #575757",
"# c #5a5a5a",
"E c #5b5b5b",
"w c #5d5d5d",
"l c #676767",
"x c #6d6d6d",
"z c #6f6f6f",
"r c #757575",
"O c #787878",
"Q c #7f7f7f",
"G c #808080",
"N c #878787",
"R c #888888",
"Z c #8a8a8a",
"X c #8c8c8c",
"W c #a7a7a7",
"H c #adadad",
"0 c #b3b3b3",
"h c #b6b6b6",
"I c #c5c5c5",
"P c #c8c8c8",
"S c #d6d6d6",
"M c #dadada",
"A c #dfdfdf",
"i c #e8e8e8",
"s c #fcfcfc",
"q c #fefefe",
"................",
"................",
"................",
".....#abcde.....",
"....fghijklm....",
"...nopqqrsqlt...",
"...uvwxyvzABC...",
"...DEqqFvvGxv...",
"...HGqIJKLqMB...",
"...NkBOqqOPQR...",
"...BvvySspvTU...",
"...#uVWhXvvY....",
"....#LZ0hc1.....",
"................",
"................",
"................"};
