<?xml version="1.0" encoding="UTF-8" standalone="no"?>
<svg
   xmlns:dc="http://purl.org/dc/elements/1.1/"
   xmlns:cc="http://creativecommons.org/ns#"
   xmlns:rdf="http://www.w3.org/1999/02/22-rdf-syntax-ns#"
   xmlns:svg="http://www.w3.org/2000/svg"
   xmlns="http://www.w3.org/2000/svg"
   xmlns:sodipodi="http://sodipodi.sourceforge.net/DTD/sodipodi-0.dtd"
   xmlns:inkscape="http://www.inkscape.org/namespaces/inkscape"
   fill="#000000"
   height="48"
   viewBox="0 0 24 24"
   width="48"
   id="svg2"
   version="1.1"
   inkscape:version="0.91 r13725"
   sodipodi:docname="status_position_wait_bk.svg">
  <metadata
     id="metadata12">
    <rdf:RDF>
      <cc:Work
         rdf:about="">
        <dc:format>image/svg+xml</dc:format>
        <dc:type
           rdf:resource="http://purl.org/dc/dcmitype/StillImage" />
        <dc:title></dc:title>
      </cc:Work>
    </rdf:RDF>
  </metadata>
  <defs
     id="defs10" />
  <sodipodi:namedview
     pagecolor="#ffffff"
     bordercolor="#666666"
     borderopacity="1"
     objecttolerance="10"
     gridtolerance="10"
     guidetolerance="10"
     inkscape:pageopacity="0"
     inkscape:pageshadow="2"
     inkscape:window-width="1280"
     inkscape:window-height="948"
     id="namedview8"
     showgrid="true"
     inkscape:object-paths="true"
     inkscape:snap-intersection-paths="true"
     inkscape:object-nodes="true"
     inkscape:zoom="12.765499"
     inkscape:cx="24"
     inkscape:cy="23.015625"
     inkscape:window-x="0"
     inkscape:window-y="24"
     inkscape:window-maximized="1"
     inkscape:current-layer="svg2">
    <inkscape:grid
       type="xygrid"
       id="grid4140" />
  </sodipodi:namedview>
  <path
     d="M 24 0 C 14.712 0 7.1992187 7.5127812 7.1992188 16.800781 C 7.1992188 29.400781 24 48 24 48 C 24 48 40.800781 29.400781 40.800781 16.800781 C 40.800781 7.5127812 33.288 2.3684758e-15 24 0 z M 24 4 C 31.131238 4 36.800781 9.6695427 36.800781 16.800781 C 36.800781 21.323004 33.110977 28.921035 29.085938 34.886719 C 26.543988 38.654253 25.528858 39.652618 24 41.476562 C 22.471142 39.652618 21.456012 38.654253 18.914062 34.886719 C 14.889022 28.921035 11.199219 21.323004 11.199219 16.800781 C 11.199219 9.6695427 16.868761 4 24 4 z "
     transform="scale(0.5,0.5)"
     id="path4" />
  <path
     d="M0 0h24v24H0z"
     fill="none"
     id="path6" />
</svg>
