<?xml version="1.0" encoding="UTF-8" standalone="no"?>
<svg
   xmlns:dc="http://purl.org/dc/elements/1.1/"
   xmlns:cc="http://creativecommons.org/ns#"
   xmlns:rdf="http://www.w3.org/1999/02/22-rdf-syntax-ns#"
   xmlns:svg="http://www.w3.org/2000/svg"
   xmlns="http://www.w3.org/2000/svg"
   xmlns:sodipodi="http://sodipodi.sourceforge.net/DTD/sodipodi-0.dtd"
   xmlns:inkscape="http://www.inkscape.org/namespaces/inkscape"
   fill="#000000"
   height="48"
   viewBox="0 0 24 24"
   width="48"
   id="svg2"
   version="1.1"
   inkscape:version="0.91 r13725"
   sodipodi:docname="status_position_wait_bk.svg">
  <metadata
     id="metadata12">
    <rdf:RDF>
      <cc:Work
         rdf:about="">
        <dc:format>image/svg+xml</dc:format>
        <dc:type
           rdf:resource="http://purl.org/dc/dcmitype/StillImage" />
        <dc:title></dc:title>
      </cc:Work>
    </rdf:RDF>
  </metadata>
  <defs
     id="defs10" />
  <sodipodi:namedview
     pagecolor="#ffffff"
     bordercolor="#666666"
     borderopacity="1"
     objecttolerance="10"
     gridtolerance="10"
     guidetolerance="10"
     inkscape:pageopacity="0"
     inkscape:pageshadow="2"
     inkscape:window-width="1280"
     inkscape:window-height="948"
     id="namedview8"
     showgrid="true"
     inkscape:object-paths="true"
     inkscape:snap-intersection-paths="true"
     inkscape:object-nodes="true"
     inkscape:zoom="12.765499"
     inkscape:cx="24"
     inkscape:cy="23.015625"
     inkscape:window-x="0"
     inkscape:window-y="24"
     inkscape:window-maximized="1"
     inkscape:current-layer="svg2">
    <inkscape:grid
       type="xygrid"
       id="grid4140" />
  </sodipodi:namedview>
  <path
     d="M 24,0 C 14.712,0 7.1992188,7.5127812 7.1992188,16.800781 c 0,6.3 4.2001952,9.099414 8.4003902,15.324219 C 19.799805,38.349805 24,48 24,48 c 0,0 4.200195,-9.650195 8.40039,-15.875 4.200196,-6.224804 8.400391,-9.024219 8.400391,-15.324219 C 40.800781,7.5127812 33.288,0 24,0 Z m 0,4 C 31.131238,4 36.800781,9.6695427 36.800781,16.800781 36.736982,22 35.172,22.774 31.086,27.887 27,33 26,37.000219 24,40.476781 22,37.000219 20.828,32.774 16.914,27.887 13,23 11.199219,22 11.199219,16.800781 11.199219,9.6695427 16.868761,4 24,4 Z"
     transform="scale(0.5,0.5)"
     id="path4"
     style="fill:#000000;fill-opacity:1"
     inkscape:connector-curvature="0"
     sodipodi:nodetypes="ssscssssczczcs" />
  <path
     d="M0 0h24v24H0z"
     fill="none"
     id="path6" />
  <path
     style="fill:none;fill-rule:evenodd;stroke:#000000;stroke-width:2;stroke-linecap:butt;stroke-linejoin:miter;stroke-miterlimit:4;stroke-dasharray:none;stroke-opacity:1"
     d="M 9.2741765,7 C 9.2741765,7 10,5 12,5 c 2,0 3,1.2462169 3,3 0,1.7537831 -2.293761,2 -3,3 0,1.23884 0,2.5 0,2.5"
     id="path4137"
     inkscape:connector-curvature="0"
     sodipodi:nodetypes="czzcc" />
  <path
     style="fill:none;fill-rule:evenodd;stroke:#000000;stroke-width:2;stroke-linecap:butt;stroke-linejoin:miter;stroke-miterlimit:4;stroke-dasharray:none;stroke-opacity:1"
     d="M 12,14.716639 12,16"
     id="path4139"
     inkscape:connector-curvature="0"
     sodipodi:nodetypes="cc" />
</svg>
