<?xml version="1.0" encoding="UTF-8" standalone="no"?>
<!-- Created with Inkscape (http://www.inkscape.org/) -->

<svg
   xmlns:dc="http://purl.org/dc/elements/1.1/"
   xmlns:cc="http://creativecommons.org/ns#"
   xmlns:rdf="http://www.w3.org/1999/02/22-rdf-syntax-ns#"
   xmlns:svg="http://www.w3.org/2000/svg"
   xmlns="http://www.w3.org/2000/svg"
   xmlns:sodipodi="http://sodipodi.sourceforge.net/DTD/sodipodi-0.dtd"
   xmlns:inkscape="http://www.inkscape.org/namespaces/inkscape"
   version="1.0"
   width="64"
   height="64"
   id="svg2"
   inkscape:version="0.91 r13725"
   sodipodi:docname="status_no_destination_bk.svg">
  <metadata
     id="metadata29">
    <rdf:RDF>
      <cc:Work
         rdf:about="">
        <dc:format>image/svg+xml</dc:format>
        <dc:type
           rdf:resource="http://purl.org/dc/dcmitype/StillImage" />
        <dc:title></dc:title>
      </cc:Work>
    </rdf:RDF>
  </metadata>
  <sodipodi:namedview
     pagecolor="#ffffff"
     bordercolor="#666666"
     borderopacity="1"
     objecttolerance="10"
     gridtolerance="10"
     guidetolerance="10"
     inkscape:pageopacity="0"
     inkscape:pageshadow="2"
     inkscape:window-width="1280"
     inkscape:window-height="948"
     id="namedview27"
     showgrid="true"
     inkscape:zoom="11.5625"
     inkscape:cx="32"
     inkscape:cy="32"
     inkscape:window-x="0"
     inkscape:window-y="24"
     inkscape:window-maximized="1"
     inkscape:current-layer="svg2"
     inkscape:snap-intersection-paths="true"
     inkscape:object-nodes="true">
    <inkscape:grid
       type="xygrid"
       id="grid4178" />
  </sodipodi:namedview>
  <defs
     id="defs11">
    <marker
       refX="0"
       refY="0"
       orient="auto"
       style="overflow:visible"
       id="DistanceIn">
      <g
         id="g2300">
        <path
           d="M 0,0 L 2,0"
           style="fill:none;stroke:#ffffff;stroke-width:1.14999998;stroke-linecap:square"
           id="path2306" />
        <path
           d="M 0,0 L 13,4 L 9,0 L 13,-4 L 0,0 z "
           style="fill:#000000;fill-rule:evenodd;stroke:none"
           id="path2302" />
        <path
           d="M 0,-4 L 0,40"
           style="fill:none;stroke:#000000;stroke-width:1;stroke-linecap:square"
           id="path2304" />
      </g>
    </marker>
    <marker
       refX="0"
       refY="0"
       orient="auto"
       style="overflow:visible"
       id="SemiCircleOut">
      <path
         d="M -2.5,-0.80913858 C -2.5,1.9508614 -4.74,4.1908614 -7.5,4.1908614 L -7.5,-5.8091386 C -4.74,-5.8091386 -2.5,-3.5691386 -2.5,-0.80913858 z "
         transform="matrix(0.6,0,0,0.6,4.2752958,0.4580676)"
         style="fill-rule:evenodd;stroke:#000000;stroke-width:1pt;marker-start:none;marker-end:none"
         id="path8204" />
    </marker>
  </defs>
  <path
     style="stroke-width:1;stroke-miterlimit:4;stroke-dasharray:none"
     d="M 13.181641 3.0214844 L 18 7.8398438 L 18 6.8867188 L 25 8.0820312 L 25 14.388672 L 32 15.623047 L 32 9.2773438 L 39 10.470703 L 39 16.857422 L 46 18.091797 L 46 11.666016 L 52.5 12.775391 L 52.5 19.238281 L 46 18.091797 L 46 25.091797 L 52.5 26.238281 L 52.5 33.238281 L 46 32.091797 L 46 35.839844 L 53.009766 42.849609 L 55.5 43.289062 L 55.5 10.244141 L 13.181641 3.0214844 z M 46 32.091797 L 46 25.091797 L 39 23.857422 L 39 28.839844 L 41.449219 31.289062 L 46 32.091797 z M 39 23.857422 L 39 16.857422 L 32 15.623047 L 32 21.839844 L 32.951172 22.791016 L 39 23.857422 z M 25 14.388672 L 24.453125 14.292969 L 25 14.839844 L 25 14.388672 z M 7.3867188 4 L 4 7.3867188 L 8.5 11.886719 L 8.5 33.744141 L 8.5 35.001953 L 8.5 62 A 1.50015 1.50015 0 1 0 11.5 62 L 11.5 35.53125 L 36.564453 39.951172 L 56.613281 60 L 60 56.613281 L 44.787109 41.400391 L 41.089844 37.703125 L 39 35.613281 L 33.226562 29.839844 L 32 28.613281 L 25 21.613281 L 24.726562 21.339844 L 18 14.613281 L 16.228516 12.841797 L 8.5 5.1132812 L 7.3867188 4 z M 11.5 14.886719 L 16.503906 19.890625 L 11.5 19.007812 L 11.5 14.886719 z M 18 21.386719 L 25 28.386719 L 25 28.388672 L 25.001953 28.388672 L 32 35.386719 L 32 36.099609 L 25 34.865234 L 25 28.388672 L 18 27.154297 L 18 33.630859 L 11.5 32.484375 L 11.5 26.007812 L 18 27.154297 L 18 21.386719 z "
     id="rect4126" />
</svg>
