<?xml version="1.0" encoding="UTF-8" standalone="no"?>
<svg
   xmlns:dc="http://purl.org/dc/elements/1.1/"
   xmlns:cc="http://creativecommons.org/ns#"
   xmlns:rdf="http://www.w3.org/1999/02/22-rdf-syntax-ns#"
   xmlns:svg="http://www.w3.org/2000/svg"
   xmlns="http://www.w3.org/2000/svg"
   xmlns:sodipodi="http://sodipodi.sourceforge.net/DTD/sodipodi-0.dtd"
   xmlns:inkscape="http://www.inkscape.org/namespaces/inkscape"
   fill="#000000"
   height="48"
   viewBox="0 0 24 24"
   width="48"
   id="svg2"
   version="1.1"
   inkscape:version="0.91 r13725"
   sodipodi:docname="status_calculating_bk.svg">
  <metadata
     id="metadata12">
    <rdf:RDF>
      <cc:Work
         rdf:about="">
        <dc:format>image/svg+xml</dc:format>
        <dc:type
           rdf:resource="http://purl.org/dc/dcmitype/StillImage" />
        <dc:title></dc:title>
      </cc:Work>
    </rdf:RDF>
  </metadata>
  <defs
     id="defs10">
    <inkscape:path-effect
       effect="skeletal"
       id="path-effect4838"
       is_visible="true"
       pattern="M 0,5 C 0,2.24 2.24,0 5,0 7.76,0 10,2.24 10,5 10,7.76 7.76,10 5,10 2.24,10 0,7.76 0,5 Z"
       copytype="single_stretched"
       prop_scale="1"
       scale_y_rel="false"
       spacing="0"
       normal_offset="0"
       tang_offset="0"
       prop_units="false"
       vertical_pattern="false"
       fuse_tolerance="0" />
  </defs>
  <sodipodi:namedview
     pagecolor="#ffffff"
     bordercolor="#666666"
     borderopacity="1"
     objecttolerance="10"
     gridtolerance="10"
     guidetolerance="10"
     inkscape:pageopacity="0"
     inkscape:pageshadow="2"
     inkscape:window-width="1280"
     inkscape:window-height="948"
     id="namedview8"
     showgrid="true"
     inkscape:object-paths="true"
     inkscape:snap-intersection-paths="true"
     inkscape:object-nodes="true"
     inkscape:zoom="15.416667"
     inkscape:cx="24"
     inkscape:cy="24"
     inkscape:window-x="0"
     inkscape:window-y="24"
     inkscape:window-maximized="1"
     inkscape:current-layer="svg2"
     inkscape:snap-grids="true"
     inkscape:snap-others="true"
     inkscape:snap-bbox="true">
    <inkscape:grid
       type="xygrid"
       id="grid4140" />
  </sodipodi:namedview>
  <path
     d="M0 0h24v24H0V0z"
     fill="none"
     id="path6" />
  <path
     style="fill:#000000;stroke:none;stroke-width:8;stroke-miterlimit:4;stroke-dasharray:none;stroke-dashoffset:0;stroke-opacity:1"
     d="M 5.5 0 C 4.669 0 4 0.669 4 1.5 C 4 2.331 4.669 3 5.5 3 L 8 3 L 8 10 C 8 12.385139 9.3458567 14.173982 10.585938 15.414062 L 17.085938 21.914062 C 17.84156 22.669687 18 22.968366 18 24 C 18 24.940922 17.809128 25.362748 17.085938 26.085938 L 14.585938 28.585938 L 10.585938 32.585938 C 9.3458567 33.826017 8 35.61486 8 38 L 8 45 L 5.5 45 C 4.669 45 4 45.669 4 46.5 C 4 47.331 4.669 48 5.5 48 L 42.5 48 C 43.331 48 44 47.331 44 46.5 C 44 45.669 43.331 45 42.5 45 L 40 45 L 40 38 C 40 35.61486 38.654145 33.826017 37.414062 32.585938 L 33.414062 28.585938 L 30.914062 26.085938 C 30.190872 25.362748 30 24.940922 30 24 C 30 22.968366 30.15844 22.669687 30.914062 21.914062 L 37.414062 15.414062 C 38.654145 14.173982 40 12.385139 40 10 L 40 3 L 42.5 3 C 43.331 3 44 2.331 44 1.5 C 44 0.669 43.331 0 42.5 0 L 5.5 0 z M 12 3 L 36 3 L 36 10 C 36 10.460018 35.606946 11.292533 35.080078 12 L 12.919922 12 C 12.393054 11.292534 12 10.460018 12 10 L 12 3 z M 22 24 L 22 38 C 22 40 20 42 18 42 L 12 42 L 12 38 C 12 37.403716 12.654143 36.173983 13.414062 35.414062 L 17.414062 31.414062 L 19.914062 28.914062 C 21.190872 27.637252 22 25.884674 22 24 z M 26 24 C 26 25.884674 26.809128 27.637252 28.085938 28.914062 L 30.585938 31.414062 L 34.585938 35.414062 C 35.345855 36.173983 36 37.403716 36 38 L 36 42 L 30 42 C 28 42 26 40 26 38 L 26 24 z "
     transform="scale(0.5,0.5)"
     id="rect4780" />
</svg>
