<?xml version="1.0" encoding="UTF-8" standalone="no"?>
<svg
   xmlns:dc="http://purl.org/dc/elements/1.1/"
   xmlns:cc="http://creativecommons.org/ns#"
   xmlns:rdf="http://www.w3.org/1999/02/22-rdf-syntax-ns#"
   xmlns:svg="http://www.w3.org/2000/svg"
   xmlns="http://www.w3.org/2000/svg"
   viewBox="0 0 600.99414 600.99414"
   height="600.99414"
   width="600.99414"
   xml:space="preserve"
   version="1.1"
   id="svg5196"><metadata
     id="metadata5202"><rdf:RDF><cc:Work
         rdf:about=""><dc:format>image/svg+xml</dc:format><dc:type
           rdf:resource="http://purl.org/dc/dcmitype/StillImage" /><dc:title></dc:title></cc:Work></rdf:RDF></metadata><defs
     id="defs5200" /><g
     transform="matrix(1.25,0,0,-1.25,0,600.99415)"
     id="g5204"><g
       id="g5206"><path
         id="path5208"
         style="fill:#ffffff;fill-opacity:1;fill-rule:nonzero;stroke:none"
         d="m 32.195,480.401 c -17.535,0 -31.793,-14.27 -31.793,-31.793 l 0,-416.414 C 0.402,14.659 14.66,0.401 32.195,0.401 l 416.414,0 c 17.524,0 31.793,14.258 31.793,31.793 l 0,416.414 c 0,17.523 -14.269,31.793 -31.793,31.793 l -416.414,0 z" /><path
         id="path5210"
         style="fill:#000000;fill-opacity:1;fill-rule:nonzero;stroke:none"
         d="M 32.203,480.795 C 14.449,480.795 0,466.354 0,448.616 L 0,32.202 C 0,14.452 14.449,-0.002 32.203,-0.002 l 416.414,0 c 17.738,0 32.18,14.454 32.18,32.204 l 0,416.414 c 0,17.738 -14.442,32.179 -32.18,32.179 l -416.414,0 z m -0.008,-0.394 416.414,0 c 17.52,0 31.793,-14.274 31.793,-31.793 l 0,-416.414 c 0,-17.535 -14.273,-31.793 -31.793,-31.793 l -416.414,0 C 14.66,0.401 0.402,14.659 0.402,32.194 l 0,416.414 c 0,17.519 14.258,31.793 31.793,31.793 z" /><path
         id="path5212"
         style="fill:#000000;fill-opacity:1;fill-rule:nonzero;stroke:none"
         d="m 32.195,472.623 c -13.273,0 -24.027,-10.753 -24.027,-24.015 l 0,-416.414 C 8.168,18.92 18.922,8.166 32.195,8.166 l 416.414,0 c 13.274,0 24.016,10.754 24.016,24.028 l 0,416.414 c 0,13.262 -10.742,24.015 -24.016,24.015 l -416.414,0 z m 0,-12.015 416.414,0 c 6.629,0 12.012,-5.367 12.012,-12 l 0,-416.414 c 0,-6.645 -5.383,-12.016 -12.012,-12.016 l -416.414,0 c -6.632,0 -12.015,5.371 -12.015,12.016 l 0,416.414 c 0,6.633 5.383,12 12.015,12 z" /><path
         id="path5214"
         style="fill:#000000;fill-opacity:1;fill-rule:nonzero;stroke:none"
         d="m 80.238,62.03 0,12.011 5.371,2.235 c 11.454,4.773 24.34,4.773 35.793,0 l 10.731,-4.481 c 11.453,-4.761 24.336,-4.761 35.789,0 l 10.742,4.481 c 11.453,4.773 24.34,4.773 35.793,0 l 10.731,-4.481 c 11.453,-4.761 24.335,-4.761 35.789,0 l 10.742,4.481 c 11.453,4.773 24.336,4.773 35.789,0 l 10.734,-4.481 c 11.453,-4.761 24.336,-4.761 35.789,0 l 10.742,4.481 c 11.442,4.773 24.336,4.773 35.79,0 l 0,-12.016 c -11.454,4.778 -24.348,4.778 -35.79,0 l -10.742,-4.465 c -11.453,-4.777 -24.336,-4.777 -35.789,0 l -10.734,4.465 c -11.453,4.778 -24.336,4.778 -35.789,0 l -10.742,-4.465 c -11.454,-4.777 -24.336,-4.777 -35.789,0 l -10.731,4.465 c -11.453,4.778 -24.34,4.778 -35.793,0 l -10.742,-4.465 c -11.453,-4.777 -24.336,-4.777 -35.789,0 l -10.731,4.465 c -11.453,4.778 -24.339,4.778 -35.793,0" /><path
         id="path5216"
         style="fill:#000000;fill-opacity:1;fill-rule:nonzero;stroke:none"
         d="m 80.238,86.045 0,12.012 5.371,2.246 c 11.454,4.766 24.34,4.766 35.793,0 l 10.731,-4.476 c 11.453,-4.778 24.336,-4.778 35.789,0 l 10.742,4.476 c 11.453,4.766 24.34,4.766 35.793,0 l 10.731,-4.476 c 11.453,-4.778 24.335,-4.778 35.789,0 l 10.742,4.476 c 11.453,4.766 24.336,4.766 35.789,0 l 10.734,-4.476 c 11.453,-4.778 24.336,-4.778 35.789,0 l 10.742,4.476 c 11.442,4.766 24.336,4.766 35.79,0 l 0,-12.015 c -11.454,4.765 -24.348,4.765 -35.79,0 l -10.742,-4.477 c -11.453,-4.777 -24.336,-4.777 -35.789,0 l -10.734,4.477 c -11.453,4.765 -24.336,4.765 -35.789,0 l -10.742,-4.477 c -11.454,-4.777 -24.336,-4.777 -35.789,0 l -10.731,4.477 c -11.453,4.765 -24.34,4.765 -35.793,0 l -10.742,-4.477 c -11.453,-4.777 -24.336,-4.777 -35.789,0 l -10.731,4.477 c -11.453,4.765 -24.339,4.765 -35.793,0" /><path
         id="path5218"
         style="fill:#000000;fill-opacity:1;fill-rule:nonzero;stroke:none"
         d="m 168.039,292.366 c -5.969,0 -11.375,-3.551 -13.758,-9.024 L 130.539,228.78 c -1.684,-3.848 -3.801,-7.5 -6.32,-10.856 l -3.61,-4.808 c -2.336,-3.118 -3.593,-6.907 -3.593,-10.801 l 0,-39.02 c 0,-8.293 6.711,-15.015 15,-15.015 l 222.129,0 c 8.293,0 15.015,6.722 15.015,15.015 l 0,39.02 c 0,3.894 -1.269,7.683 -3.605,10.801 l -3.598,4.808 c -2.519,3.356 -4.652,7.008 -6.324,10.856 l -23.742,54.562 c -2.379,5.473 -7.786,9.024 -13.766,9.024 l -150.086,0 z m 3.629,-15.012 142.828,0 c 2.395,0 4.559,-1.41 5.508,-3.609 l 20.637,-47.415 -195.11,0 20.625,47.415 c 0.965,2.199 3.129,3.609 5.512,3.609 z" /><path
         id="path5220"
         style="fill:#000000;fill-opacity:1;fill-rule:nonzero;stroke:none"
         d="m 132.016,142.28 36.019,0 0,-33.02 c 0,-4.972 -4.031,-9.004 -9,-9.004 l -18.015,0 c -4.969,0 -9.004,4.032 -9.004,9.004" /><path
         id="path5222"
         style="fill:#000000;fill-opacity:1;fill-rule:nonzero;stroke:none"
         d="m 318.125,142.28 36.02,0 0,-33.02 c 0,-4.972 -4.032,-9.004 -9,-9.004 l -18.016,0 c -4.973,0 -9.004,4.032 -9.004,9.004" /><path
         id="path5224"
         style="fill:#000000;fill-opacity:1;fill-rule:nonzero;stroke:none"
         d="m 278.043,433.342 -6.414,0 0,6.414 6.414,0 0,-6.414 z m 0,-38.437 -6.414,0 0,32.035 6.414,0 0,-32.035 z m -35.242,19.218 13.617,0 c 0,3.754 -3.047,6.813 -6.801,6.813 -3.769,0 -6.816,-3.059 -6.816,-6.813 z m 20.019,-5.601 -20.019,0 0,-0.801 c 0,-2.785 1.695,-5.293 4.285,-6.324 3.559,-1.418 7.625,-0.422 10.121,2.488 l 4.867,-4.172 c -4.281,-4.992 -11.269,-6.699 -17.371,-4.258 -5.015,2.004 -8.305,6.86 -8.305,12.266 l 0,6.402 c 0,7.293 5.911,13.215 13.219,13.215 7.293,0 13.203,-5.922 13.203,-13.215 l 0,-5.601 z m -53.656,-1.203 c 0,-3.539 2.875,-6.414 6.414,-6.414 3.539,0 6.402,2.875 6.402,6.414 l 0,7.203 c 0,3.539 -2.863,6.414 -6.402,6.414 -3.539,0 -6.414,-2.875 -6.414,-6.414 l 0,-7.203 z m -6.402,-12.414 0,44.847 6.402,0 0,-16.433 c 3.758,4.648 10.559,5.371 15.211,1.613 2.539,-2.047 4.02,-5.141 4.02,-8.406 l 0,-11.211 c 0,-5.965 -4.848,-10.813 -10.813,-10.813 -3.266,0 -6.355,1.481 -8.418,4.02 l 0,-3.617" /><path
         id="path5226"
         style="fill:#000000;fill-opacity:1;fill-rule:nonzero;stroke:none"
         d="m 328.492,343.655 18.711,0 c 0,5.164 -4.191,9.367 -9.355,9.367 -5.164,0 -9.356,-4.203 -9.356,-9.367 z m 27.52,-7.711 -27.52,0 0,-1.098 c 0,-3.824 2.324,-7.273 5.875,-8.691 4.903,-1.961 10.5,-0.586 13.938,3.422 l 6.675,-5.739 c -5.886,-6.859 -15.484,-9.218 -23.878,-5.863 -6.895,2.762 -11.418,9.449 -11.418,16.871 l 0,8.809 c 0,10.031 8.132,18.175 18.164,18.175 10.031,0 18.164,-8.144 18.164,-18.175 l 0,-7.711 z m -83.684,-11.656 6.219,6.242 c 5.129,-5.11 12.781,-6.758 19.558,-4.215 2.282,0.859 3.426,3.398 2.579,5.68 -0.618,1.613 -2.118,2.738 -3.848,2.839 l -9.359,0.586 c -7.282,0.457 -12.825,6.735 -12.368,14.016 0.368,5.785 4.465,10.664 10.102,12.027 8.211,1.969 16.859,0.043 23.457,-5.222 l -5.488,-6.883 c -4.477,3.562 -10.34,4.867 -15.907,3.539 -2.371,-0.574 -3.828,-2.945 -3.253,-5.317 0.445,-1.878 2.074,-3.238 4.007,-3.367 l 9.348,-0.582 c 7.281,-0.461 12.824,-6.734 12.367,-14.008 -0.32,-5.199 -3.676,-9.722 -8.543,-11.554 -10.011,-3.746 -21.293,-1.328 -28.871,6.219 z m -45.137,0 6.207,6.242 c 5.129,-5.11 12.782,-6.758 19.563,-4.215 2.277,0.859 3.422,3.398 2.574,5.68 -0.605,1.613 -2.117,2.738 -3.847,2.839 l -9.356,0.586 c -7.285,0.457 -12.816,6.735 -12.371,14.016 0.367,5.785 4.469,10.664 10.102,12.027 8.21,1.969 16.859,0.043 23.457,-5.222 l -5.489,-6.883 c -4.476,3.562 -10.34,4.867 -15.906,3.539 -2.371,-0.574 -3.824,-2.945 -3.254,-5.317 0.449,-1.878 2.074,-3.238 4.012,-3.367 l 9.355,-0.582 c 7.285,-0.461 12.817,-6.734 12.356,-14.008 -0.321,-5.199 -3.676,-9.722 -8.543,-11.554 -10.008,-3.746 -21.289,-1.328 -28.86,6.219 z m -14.316,45.796 -8.809,0 0,8.809 8.809,0 0,-8.809 z m -17.613,0 -8.821,0 0,8.809 8.821,0 0,-8.809 z m 13.203,-33.589 -12.656,0 c -3.047,0 -5.508,-2.461 -5.508,-5.497 0,-3.046 2.461,-5.507 5.508,-5.507 l 7.16,0 c 3.035,0 5.496,2.461 5.496,5.507 l 0,5.497 z m 8.808,-19.262 -8.808,0 0,4.547 c -1.547,-2.809 -4.5,-4.547 -7.707,-4.547 l -5.496,0 c -7.309,0 -13.219,5.91 -13.219,13.203 0,7.309 5.91,13.219 13.219,13.219 l 13.203,0 0,4.406 c 0,2.406 -1.731,4.469 -4.102,4.879 -3.113,0.551 -6.297,0.551 -9.414,0 -1.554,-0.274 -2.883,-1.258 -3.582,-2.68 l -6.965,5.512 c 2.098,3.09 5.348,5.199 9.036,5.851 4.113,0.723 8.328,0.723 12.449,0 6.586,-1.156 11.386,-6.871 11.386,-13.562 l 0,-30.828 z m -92.492,0 0,61.66 8.817,0 28.07,-44.047 0,44.047 9.359,0 0,-61.66 -8.808,0 -28.071,44.035 0,-44.035" /></g></g></svg>