<?xml version="1.0" encoding="UTF-8" standalone="no"?>
<svg
   xmlns:dc="http://purl.org/dc/elements/1.1/"
   xmlns:cc="http://creativecommons.org/ns#"
   xmlns:rdf="http://www.w3.org/1999/02/22-rdf-syntax-ns#"
   xmlns:svg="http://www.w3.org/2000/svg"
   xmlns="http://www.w3.org/2000/svg"
   viewBox="0 0 600 330"
   height="330"
   width="600"
   xml:space="preserve"
   id="svg5695"
   version="1.1"><metadata
     id="metadata5701"><rdf:RDF><cc:Work
         rdf:about=""><dc:format>image/svg+xml</dc:format><dc:type
           rdf:resource="http://purl.org/dc/dcmitype/StillImage" /><dc:title></dc:title></cc:Work></rdf:RDF></metadata><defs
     id="defs5699"><clipPath
       id="clipPath5715"
       clipPathUnits="userSpaceOnUse"><path
         id="path5713"
         d="M 0,0 H 450 V 248 H 0 Z" /></clipPath></defs><g
     transform="matrix(1.3333333,0,0,-1.3333333,0,330)"
     id="g5703"><g
       id="g5705"><g
         transform="translate(0,-0.5)"
         id="g5707"><g
           id="g5709"><g
             clip-path="url(#clipPath5715)"
             id="g5711"><g
               id="g5717"><path
                 id="path5719"
                 style="fill:#ffffff;fill-opacity:1;fill-rule:nonzero;stroke:none"
                 d="M 29.996,247.773 C 13.578,247.773 0.227,234.41 0.227,217.992 V 30.496 C 0.227,14.078 13.578,0.727 29.996,0.727 h 390.008 c 16.418,0 29.769,13.351 29.769,29.769 v 187.496 c 0,16.418 -13.351,29.781 -29.769,29.781" /><path
                 id="path5721"
                 style="fill:#000000;fill-opacity:1;fill-rule:nonzero;stroke:none"
                 d="M 29.996,0.953 C 13.699,0.953 0.453,14.199 0.453,30.496 v 187.496 c 0,16.297 13.246,29.555 29.543,29.555 h 390.008 c 16.297,0 29.543,-13.258 29.543,-29.555 V 30.496 c 0,-16.297 -13.246,-29.543 -29.543,-29.543 z M 420.004,248 H 29.996 C 13.426,248 0,234.566 0,217.992 V 30.496 C 0,13.934 13.426,0.5 29.996,0.5 H 420.004 C 436.566,0.5 450,13.934 450,30.496 V 217.992 C 450,234.566 436.566,248 420.004,248" /></g></g></g></g><path
         id="path5723"
         style="fill:#000000;fill-opacity:1;fill-rule:nonzero;stroke:none"
         d="m 29.996,18.746 h 390.008 c 6.215,0 11.25,5.035 11.25,11.25 v 187.496 c 0,6.215 -5.035,11.25 -11.25,11.25 H 29.996 c -6.215,0 -11.25,-5.035 -11.25,-11.25 V 29.996 c 0,-6.215 5.035,-11.25 11.25,-11.25 z m 0,-11.25 c -12.43,0 -22.5,10.07 -22.5,22.5 v 187.496 c 0,12.43 10.07,22.5 22.5,22.5 h 390.008 c 12.43,0 22.5,-10.07 22.5,-22.5 V 29.996 c 0,-12.43 -10.07,-22.5 -22.5,-22.5" /><path
         id="path5725"
         style="fill:#000000;fill-opacity:1;fill-rule:nonzero;stroke:none"
         d="M 36.441,55.277 H 413.242 V 44.742 H 36.441 Z" /><path
         id="path5727"
         style="fill:#000000;fill-opacity:1;fill-rule:nonzero;stroke:none"
         d="M 80.887,70.633 C 81.469,62.086 75.098,54.695 66.656,54.121 58.219,53.547 50.906,60.012 50.324,68.555 49.742,77.102 56.113,84.496 64.555,85.07 72.992,85.645 80.309,79.18 80.887,70.633 Z" /><path
         id="path5729"
         style="fill:#000000;fill-opacity:1;fill-rule:evenodd;stroke:none"
         d="m 110.34,132.004 c 0.75,1.012 1.621,1.894 3.34,1.902 l 73.925,5.028 38.75,-27.043 c 0.465,-0.84 0.715,-1.493 0.856,-2.047 l -5.188,-5.887 c 0.559,-6.641 1.243,-13.258 3.524,-19.555 l 3.586,-0.726 c -0.582,-1.547 -1.297,-2.883 -2.723,-3.113 l -8.527,-0.579 c -1.738,25.59 -39.11,23.106 -37.363,-2.543 l -96,-6.523 C 82.785,96.41 45.129,93.949 46.867,68.355 L 36.465,67.648 c -0.914,0.36 -1.684,-0.082 -3.063,2.856 L 32.008,89.32 c 0.488,1.754 1.199,2.457 1.906,3.172 l 53.422,12.766 z" /><path
         id="path5731"
         style="fill:#000000;fill-opacity:1;fill-rule:nonzero;stroke:none"
         d="m 214.328,79.711 c 0.578,-8.547 -5.789,-15.938 -14.23,-16.512 -8.442,-0.574 -15.754,5.887 -16.332,14.434 -0.582,8.547 5.789,15.941 14.226,16.515 8.442,0.575 15.754,-5.89 16.336,-14.437 z" /><path
         id="path5733"
         style="fill:#ffffff;fill-opacity:1;fill-rule:evenodd;stroke:none"
         d="m 198.266,114.82 -16.875,15.02 c -0.438,0.328 -0.801,0.801 -1.512,0.64 l -27.551,-1.871 1.535,-22.539 46.946,3.192 c 2.191,0.601 -0.938,3.437 -2.543,5.558 z" /><path
         id="path5735"
         style="fill:#ffffff;fill-opacity:1;fill-rule:evenodd;stroke:none"
         d="m 94.926,105.48 17.164,19.653 c 0.39,0.387 0.683,0.898 1.41,0.84 l 32.746,2.226 1.531,-22.539 -51.218,-3.48 c -2.004,0.644 -2.348,1.808 -1.633,3.3 z" /><path
         id="path5737"
         style="fill:#000000;fill-opacity:1;fill-rule:nonzero;stroke:none"
         d="m 274.809,79.379 c -0.586,-8.367 -7.579,-14.668 -15.614,-14.07 -8.031,0.597 -14.066,7.871 -13.476,16.238 0.586,8.371 7.578,14.672 15.613,14.074 8.031,-0.601 14.066,-7.871 13.477,-16.242 z" /><path
         id="path5739"
         style="fill:#000000;fill-opacity:1;fill-rule:evenodd;stroke:none"
         d="m 310.746,134.883 c 0.84,0.875 1.777,1.613 3.402,1.387 l 70.372,-5.243 32.937,-31.539 c 0.324,-0.879 0.477,-1.547 0.535,-2.101 L 416.32,71.738 c -0.754,-1.422 -1.609,-2.617 -2.98,-2.648 l -8.117,0.605 c 1.761,25.067 -33.801,27.77 -35.571,2.653 l -91.382,6.808 c 1.757,24.969 -34.075,27.735 -35.836,2.672 l -9.903,0.738 c -0.816,0.473 -1.601,0.149 -2.511,3.188 l -2.957,6.609 -1.383,9.465 c 4.156,1.633 5.359,11.699 3.273,12.297 l 10.457,-0.211 8.559,5.793 4.683,-3.047 5.969,2.992 26.875,-7.57 z" /><path
         id="path5741"
         style="fill:#000000;fill-opacity:1;fill-rule:nonzero;stroke:none"
         d="m 401.832,69.918 c -0.59,-8.367 -7.578,-14.668 -15.613,-14.07 -8.035,0.597 -14.071,7.871 -13.481,16.242 0.59,8.367 7.582,14.668 15.614,14.07 8.035,-0.601 14.07,-7.871 13.48,-16.242 z" /><path
         id="path5743"
         style="fill:#ffffff;fill-opacity:1;fill-rule:evenodd;stroke:none"
         d="m 391.359,106.176 -13.91,16.879 c -0.371,0.383 -0.648,0.886 -1.344,0.832 l -26.222,1.953 -1.555,-22.07 44.692,-3.332 c 2.144,0.281 -0.43,3.46 -1.661,5.738 z" /><path
         id="path5745"
         style="fill:#ffffff;fill-opacity:1;fill-rule:evenodd;stroke:none"
         d="m 292.684,111.262 18.796,16.715 c 0.418,0.32 0.762,0.777 1.442,0.621 l 31.172,-2.325 -1.555,-22.07 -48.758,3.633 c -1.801,0.902 -1.972,2.078 -1.097,3.426 z" /><path
         id="path5747"
         style="fill:#000000;fill-opacity:1;fill-rule:nonzero;stroke:none"
         d="m 246.313,125.777 36.871,23.7 v 6.687 z" /><path
         id="path5749"
         style="fill:#000000;fill-opacity:1;fill-rule:nonzero;stroke:none"
         d="m 292.707,150.895 13.977,1.418 -5.266,5.066 z" /><path
         id="path5751"
         style="fill:#000000;fill-opacity:1;fill-rule:nonzero;stroke:none"
         d="m 254.621,157.984 14.988,17.02 -4.859,2.226 z" /><path
         id="path5753"
         style="fill:#000000;fill-opacity:1;fill-rule:nonzero;stroke:none"
         d="m 246.922,137.727 16.207,16.003 -4.863,2.637 z" /><path
         id="path5755"
         style="fill:#000000;fill-opacity:1;fill-rule:nonzero;stroke:none"
         d="m 238.82,134.891 7.696,42.543 -7.696,3.242 z" /><path
         id="path5757"
         style="fill:#000000;fill-opacity:1;fill-rule:nonzero;stroke:none"
         d="m 231.121,140.969 -2.836,26.336 -8.308,-2.633 z" /><path
         id="path5759"
         style="fill:#000000;fill-opacity:1;fill-rule:nonzero;stroke:none"
         d="m 211.672,177.23 -0.406,25.528 -10.129,-1.215 z" /><path
         id="path5761"
         style="fill:#000000;fill-opacity:1;fill-rule:nonzero;stroke:none"
         d="m 229.094,135.5 -27.957,47.203 -7.492,-4.258 z" /><path
         id="path5763"
         style="fill:#000000;fill-opacity:1;fill-rule:nonzero;stroke:none"
         d="m 223.219,135.906 -20.461,17.219 -1.215,-5.27 z" /><path
         id="path5765"
         style="fill:#000000;fill-opacity:1;fill-rule:nonzero;stroke:none"
         d="m 200.328,141.578 -20.664,17.828 0.609,-6.281 z" /><path
         id="path5767"
         style="fill:#000000;fill-opacity:1;fill-rule:nonzero;stroke:none"
         d="m 182.094,171.355 -8.91,13.981 -8.106,-0.406 z" /></g></g></svg>