<?xml version="1.0" encoding="UTF-8" standalone="no"?>
<svg
   xmlns:dc="http://purl.org/dc/elements/1.1/"
   xmlns:cc="http://creativecommons.org/ns#"
   xmlns:rdf="http://www.w3.org/1999/02/22-rdf-syntax-ns#"
   xmlns:svg="http://www.w3.org/2000/svg"
   xmlns="http://www.w3.org/2000/svg"
   viewBox="0 0 600 450.005"
   height="450.005"
   width="600"
   xml:space="preserve"
   version="1.1"
   id="svg6918"><metadata
     id="metadata6924"><rdf:RDF><cc:Work
         rdf:about=""><dc:format>image/svg+xml</dc:format><dc:type
           rdf:resource="http://purl.org/dc/dcmitype/StillImage" /><dc:title></dc:title></cc:Work></rdf:RDF></metadata><defs
     id="defs6922" /><g
     transform="matrix(1.25,0,0,-1.25,0,450.005)"
     id="g6926"><g
       id="g6928"><path
         id="path6930"
         style="fill:#ffffff;fill-opacity:1;fill-rule:nonzero;stroke:none"
         d="m 31.996,359.774 c -17.504,0 -31.754,-14.25 -31.754,-31.766 L 0.242,32 c 0,-17.508 14.25,-31.758 31.754,-31.758 l 416.008,0 c 17.516,0 31.766,14.25 31.766,31.758 l 0,296.008 c 0,17.516 -14.25,31.766 -31.766,31.766" /><path
         id="path6932"
         style="fill:#000000;fill-opacity:1;fill-rule:nonzero;stroke:none"
         d="M 31.996,0.469 C 14.613,0.469 0.477,14.613 0.477,32 l 0,296.008 c 0,17.383 14.136,31.523 31.519,31.523 l 416.008,0 c 17.383,0 31.519,-14.14 31.519,-31.523 l 0,-296.008 c 0,-17.387 -14.136,-31.531 -31.519,-31.531 l -416.008,0 z m 416.008,359.535 -416.008,0 C 14.328,360.004 0,345.676 0,328.008 L 0,32 C 0,14.328 14.328,0 31.996,0 L 448.004,0 C 465.672,0 480,14.328 480,32 l 0,296.008 c 0,17.668 -14.328,31.996 -31.996,31.996" /><path
         id="path6934"
         style="fill:#000000;fill-opacity:1;fill-rule:nonzero;stroke:none"
         d="m 31.996,352.012 c -13.25,0 -23.992,-10.746 -23.992,-24.004 L 8.004,32 C 8.004,18.75 18.746,7.996 31.996,7.996 l 416.008,0 c 13.25,0 24.004,10.754 24.004,24.004 l 0,296.008 c 0,13.258 -10.754,24.004 -24.004,24.004 l -416.008,0 z m 0,-12.008 416.008,0 c 6.629,0 12.004,-5.367 12.004,-11.996 l 0,-296.008 c 0,-6.633 -5.375,-11.996 -12.004,-11.996 l -416.008,0 C 25.379,20.004 20,25.367 20,32 l 0,296.008 c 0,6.629 5.379,11.996 11.996,11.996 z" /><path
         id="path6936"
         style="fill:#000000;fill-opacity:1;fill-rule:nonzero;stroke:none"
         d="m 163.055,310.004 c -10.246,0 -18.571,-8.313 -18.571,-18.57 l 0,-156.539 191.032,0 0,156.539 c 0,10.257 -8.313,18.57 -18.571,18.57 l -153.89,0 z m 7.961,-21.234 137.957,0 0,-132.653 -137.957,0 0,132.653 z m -37.141,-159.184 0,-10.602 212.25,0 0,10.602 -212.25,0 z m 15.922,-15.91 c -2.926,0 -5.313,-2.375 -5.313,-5.313 l 0,-53.054 c 0,-2.938 2.387,-5.313 5.313,-5.313 l 15.922,0 c 2.922,0 5.297,2.375 5.297,5.313 l 0,53.054 c 0,2.938 -2.375,5.313 -5.297,5.313 l -15.922,0 z m 31.844,0 c -2.938,0 -5.313,-2.375 -5.313,-5.313 l 0,-53.054 c 0,-2.938 2.375,-5.313 5.313,-5.313 l 15.91,0 c 2.933,0 5.308,2.375 5.308,5.313 l 0,14.593 c 0,2.922 2.375,5.297 5.301,5.297 l 10.086,0 c 2.727,0 5.344,-1.043 7.324,-2.922 l 3.45,-3.3 c 6.148,-5.848 15.812,-5.848 21.96,0 l 3.465,3.3 c 1.965,1.879 4.582,2.922 7.309,2.922 l 10.086,0 c 2.933,0 5.308,-2.375 5.308,-5.297 l 0,-14.593 c 0,-2.938 2.368,-5.313 5.301,-5.313 l 15.922,0 c 2.926,0 5.313,2.375 5.313,5.313 l 0,53.054 c 0,2.938 -2.387,5.313 -5.313,5.313 l -15.922,0 c -2.933,0 -5.301,-2.375 -5.301,-5.313 l 0,-14.578 c 0,-2.937 -2.375,-5.312 -5.308,-5.312 l -10.086,0 c -2.727,0 -5.344,1.043 -7.309,2.926 l -3.465,3.285 c -6.148,5.863 -15.812,5.863 -21.96,0 l -3.45,-3.285 c -1.98,-1.883 -4.597,-2.926 -7.324,-2.926 l -10.086,0 c -2.926,0 -5.301,2.375 -5.301,5.312 l 0,14.578 c 0,2.938 -2.375,5.313 -5.308,5.313 l -15.91,0 z m 132.64,0 c -2.922,0 -5.297,-2.375 -5.297,-5.313 l 0,-53.054 c 0,-2.938 2.375,-5.313 5.297,-5.313 l 15.922,0 c 2.938,0 5.313,2.375 5.313,5.313 l 0,53.054 c 0,2.938 -2.375,5.313 -5.313,5.313 l -15.922,0 z" /><path
         id="path6938"
         style="fill:#ec7c25;fill-opacity:1;fill-rule:nonzero;stroke:none"
         d="m 171.02,288.774 137.953,0 0,-132.656 -137.953,0 0,132.656 z" /></g></g></svg>