<?xml version="1.0" encoding="UTF-8" standalone="no"?>
<svg
   xmlns:dc="http://purl.org/dc/elements/1.1/"
   xmlns:cc="http://creativecommons.org/ns#"
   xmlns:rdf="http://www.w3.org/1999/02/22-rdf-syntax-ns#"
   xmlns:svg="http://www.w3.org/2000/svg"
   xmlns="http://www.w3.org/2000/svg"
   xmlns:sodipodi="http://sodipodi.sourceforge.net/DTD/sodipodi-0.dtd"
   xmlns:inkscape="http://www.inkscape.org/namespaces/inkscape"
   viewBox="0 0 600.99628 428.99625"
   height="428.99625"
   width="600.99628"
   xml:space="preserve"
   version="1.1"
   id="svg5196"
   sodipodi:docname="stvo_1053_35.svg"
   inkscape:version="1.0.2 (e86c8708, 2021-01-15)"><sodipodi:namedview
     pagecolor="#ffffff"
     bordercolor="#666666"
     borderopacity="1"
     objecttolerance="10"
     gridtolerance="10"
     guidetolerance="10"
     inkscape:pageopacity="0"
     inkscape:pageshadow="2"
     inkscape:window-width="1374"
     inkscape:window-height="1170"
     id="namedview25"
     showgrid="false"
     inkscape:zoom="1.677221"
     inkscape:cx="300.49707"
     inkscape:cy="210.0328"
     inkscape:window-x="271"
     inkscape:window-y="213"
     inkscape:window-maximized="0"
     inkscape:current-layer="svg5196" /><metadata
     id="metadata5202"><rdf:RDF><cc:Work
         rdf:about=""><dc:format>image/svg+xml</dc:format><dc:type
           rdf:resource="http://purl.org/dc/dcmitype/StillImage" /><dc:title /></cc:Work></rdf:RDF></metadata><defs
     id="defs5200" /><path
     id="path5208"
     style="fill:#ffffff;fill-opacity:1;fill-rule:nonzero;stroke:none;stroke-width:1.25"
     d="M 40.24375,0.4925 C 18.325,0.4925 0.5025,18.33 0.5025,40.23375 v 348.5175 c 0,21.91875 17.8225,39.74125 39.74125,39.74125 h 520.5175 c 21.905,0 39.74125,-17.8225 39.74125,-39.74125 V 40.23375 C 600.5025,18.33 582.66625,0.4925 560.76125,0.4925 Z"
     sodipodi:nodetypes="sssssssss" /><path
     id="path5210"
     style="fill:#000000;fill-opacity:1;fill-rule:nonzero;stroke:none;stroke-width:1.25"
     d="M 40.25375,0 C 18.06125,0 0,18.05125 0,40.22375 v 348.5175 c 0,22.1875 18.06125,40.255 40.25375,40.255 h 520.5175 c 22.1725,0 40.225,-18.0675 40.225,-40.255 V 40.22375 C 600.99625,18.05125 582.94375,0 560.77125,0 Z m -0.01,0.4925 h 520.5175 c 21.9,0 39.74125,17.8425 39.74125,39.74125 v 348.5175 c 0,21.91875 -17.84125,39.74125 -39.74125,39.74125 H 40.24375 C 18.325,428.4925 0.5025,410.67 0.5025,388.75125 V 40.23375 C 0.5025,18.335 18.325,0.4925 40.24375,0.4925 Z"
     sodipodi:nodetypes="ssssssssssssssssss" /><path
     id="path5212"
     style="fill:#000000;fill-opacity:1;fill-rule:nonzero;stroke:none;stroke-width:1.25"
     d="M 40.24375,10.215 C 23.6525,10.215 10.21,23.65625 10.21,40.23375 v 346.5175 c 0,16.5925 13.4425,30.035 30.03375,30.035 h 520.5175 c 16.5925,0 30.02,-13.4425 30.02,-30.035 V 40.23375 c 0,-16.5775 -13.4275,-30.01875 -30.02,-30.01875 z m 0,15.01875 h 520.5175 c 8.28625,0 15.015,6.70875 15.015,15 v 346.5175 c 0,8.30625 -6.72875,15.02 -15.015,15.02 H 40.24375 c -8.29,0 -15.01875,-6.71375 -15.01875,-15.02 V 40.23375 c 0,-8.29125 6.72875,-15 15.01875,-15 z"
     sodipodi:nodetypes="ssssssssssssssssss" /><path
     id="path5214"
     style="fill:#000000;fill-opacity:1;fill-rule:nonzero;stroke:none;stroke-width:1.25"
     d="M 100.2975,353.45625 V 338.4425 l 6.71375,-2.79375 c 14.3175,-5.96625 30.425,-5.96625 44.74125,0 l 13.41375,5.60125 c 14.31625,5.95125 30.42,5.95125 44.73625,0 l 13.4275,-5.60125 c 14.31625,-5.96625 30.425,-5.96625 44.74125,0 L 281.485,341.25 c 14.31625,5.95125 30.41875,5.95125 44.73625,0 l 13.4275,-5.60125 c 14.31625,-5.96625 30.42,-5.96625 44.73625,0 l 13.4175,5.60125 c 14.31625,5.95125 30.42,5.95125 44.73625,0 l 13.4275,-5.60125 c 14.3025,-5.96625 30.42,-5.96625 44.7375,0 v 15.02 c -14.3175,-5.9725 -30.435,-5.9725 -44.7375,0 l -13.4275,5.58125 c -14.31625,5.97125 -30.42,5.97125 -44.73625,0 l -13.4175,-5.58125 c -14.31625,-5.9725 -30.42,-5.9725 -44.73625,0 l -13.4275,5.58125 c -14.3175,5.97125 -30.42,5.97125 -44.73625,0 l -13.41375,-5.58125 c -14.31625,-5.9725 -30.425,-5.9725 -44.74125,0 L 209.9025,356.25 c -14.31625,5.97125 -30.42,5.97125 -44.73625,0 l -13.41375,-5.58125 c -14.31625,-5.9725 -30.42375,-5.9725 -44.74125,0" /><path
     id="path5216"
     style="fill:#000000;fill-opacity:1;fill-rule:nonzero;stroke:none;stroke-width:1.25"
     d="m 100.2975,323.4375 v -15.015 l 6.71375,-2.8075 c 14.3175,-5.9575 30.425,-5.9575 44.74125,0 l 13.41375,5.595 c 14.31625,5.9725 30.42,5.9725 44.73625,0 l 13.4275,-5.595 c 14.31625,-5.9575 30.425,-5.9575 44.74125,0 l 13.41375,5.595 c 14.31625,5.9725 30.41875,5.9725 44.73625,0 l 13.4275,-5.595 c 14.31625,-5.9575 30.42,-5.9575 44.73625,0 l 13.4175,5.595 c 14.31625,5.9725 30.42,5.9725 44.73625,0 l 13.4275,-5.595 c 14.3025,-5.9575 30.42,-5.9575 44.7375,0 v 15.01875 c -14.3175,-5.95625 -30.435,-5.95625 -44.7375,0 l -13.4275,5.59625 c -14.31625,5.97125 -30.42,5.97125 -44.73625,0 l -13.4175,-5.59625 c -14.31625,-5.95625 -30.42,-5.95625 -44.73625,0 l -13.4275,5.59625 c -14.3175,5.97125 -30.42,5.97125 -44.73625,0 l -13.41375,-5.59625 c -14.31625,-5.95625 -30.425,-5.95625 -44.74125,0 L 209.9025,326.23 c -14.31625,5.97125 -30.42,5.97125 -44.73625,0 l -13.41375,-5.59625 c -14.31625,-5.95625 -30.42375,-5.95625 -44.74125,0" /><path
     id="path5218"
     style="fill:#000000;fill-opacity:1;fill-rule:nonzero;stroke:none;stroke-width:1.25"
     d="m 210.04875,65.53625 c -7.46125,0 -14.21875,4.43875 -17.1975,11.28 l -29.6775,68.2025 c -2.105,4.81 -4.75125,9.375 -7.9,13.57 l -4.5125,6.01 c -2.92,3.8975 -4.49125,8.63375 -4.49125,13.50125 v 48.775 c 0,10.36625 8.38875,18.76875 18.75,18.76875 h 277.66125 c 10.36625,0 18.76875,-8.4025 18.76875,-18.76875 V 178.1 c 0,-4.8675 -1.58625,-9.60375 -4.50625,-13.50125 l -4.4975,-6.01 c -3.14875,-4.195 -5.815,-8.76 -7.905,-13.57 l -29.6775,-68.2025 c -2.97375,-6.84125 -9.7325,-11.28 -17.2075,-11.28 z m 4.53625,18.765 H 393.12 c 2.99375,0 5.69875,1.7625 6.885,4.51125 l 25.79625,59.26875 H 181.91375 L 207.695,88.8125 c 1.20625,-2.74875 3.91125,-4.51125 6.89,-4.51125 z" /><path
     id="path5220"
     style="fill:#000000;fill-opacity:1;fill-rule:nonzero;stroke:none;stroke-width:1.25"
     d="m 165.02,253.14375 h 45.02375 v 41.275 c 0,6.215 -5.03875,11.255 -11.25,11.255 H 176.275 c -6.21125,0 -11.255,-5.04 -11.255,-11.255" /><path
     id="path5222"
     style="fill:#000000;fill-opacity:1;fill-rule:nonzero;stroke:none;stroke-width:1.25"
     d="m 397.65625,253.14375 h 45.025 v 41.275 c 0,6.215 -5.04,11.255 -11.25,11.255 h -22.52 c -6.21625,0 -11.255,-5.04 -11.255,-11.255" /></svg>
