<?xml version="1.0" encoding="UTF-8" standalone="no"?>
<svg
   xmlns:dc="http://purl.org/dc/elements/1.1/"
   xmlns:cc="http://creativecommons.org/ns#"
   xmlns:rdf="http://www.w3.org/1999/02/22-rdf-syntax-ns#"
   xmlns:svg="http://www.w3.org/2000/svg"
   xmlns="http://www.w3.org/2000/svg"
   xmlns:sodipodi="http://sodipodi.sourceforge.net/DTD/sodipodi-0.dtd"
   xmlns:inkscape="http://www.inkscape.org/namespaces/inkscape"
   viewBox="0 0 120 66.091262"
   height="66.091263"
   width="120"
   xml:space="preserve"
   version="1.1"
   id="svg14208"
   sodipodi:docname="Zusatzzeichen_1040-30.svg"
   inkscape:version="1.0.2 (e86c8708, 2021-01-15)"><sodipodi:namedview
     pagecolor="#ffffff"
     bordercolor="#666666"
     borderopacity="1"
     objecttolerance="10"
     gridtolerance="10"
     guidetolerance="10"
     inkscape:pageopacity="0"
     inkscape:pageshadow="2"
     inkscape:window-width="2517"
     inkscape:window-height="1387"
     id="namedview51"
     showgrid="false"
     inkscape:zoom="1.74543"
     inkscape:cx="-86.954291"
     inkscape:cy="33.046736"
     inkscape:window-x="43"
     inkscape:window-y="25"
     inkscape:window-maximized="1"
     inkscape:current-layer="svg14208" /><metadata
     id="metadata14214"><rdf:RDF><cc:Work
         rdf:about=""><dc:format>image/svg+xml</dc:format><dc:type
           rdf:resource="http://purl.org/dc/dcmitype/StillImage" /><dc:title /></cc:Work></rdf:RDF></metadata><defs
     id="defs14212"><clipPath
       id="clipPath14232"
       clipPathUnits="userSpaceOnUse"><path
         id="path14234"
         d="m 71,86 h 339 v 93 H 71 Z" /></clipPath></defs><g
     id="g80"
     inkscape:export-filename="/Volumes/Data/Users/olf/Desktop/1040-30_120_66.png"
     inkscape:export-xdpi="19.168173"
     inkscape:export-ydpi="19.168173"
     transform="matrix(0.19966847,0,0,0.19966847,0,-5.9900541e-5)"><path
       id="path14220"
       style="fill:#ffffff;fill-opacity:1;fill-rule:nonzero;stroke:none;stroke-width:1.25"
       d="m 40.5025,330.5028 c -22.09,0 -40,-17.97375 -40,-40.13625 V 40.65405 c 0,-22.1625 17.91,-40.15125 40,-40.15125 h 520.005 c 22.09,0 39.995,17.98875 39.995,40.15125 v 249.7125 c 0,22.1625 -17.905,40.13625 -39.995,40.13625 z" /><path
       id="path14222"
       style="fill:#000000;fill-opacity:1;fill-rule:nonzero;stroke:none;stroke-width:1.25"
       d="m 40.5025,320.46405 c -16.57625,0 -30,-13.4675 -30,-30.1025 V 40.65405 c 0,-16.635 13.42375,-30.1025 30,-30.1025 h 520.005 c 16.5575,0 30,13.4675 30,30.1025 v 249.7075 c 0,16.635 -13.4425,30.1025 -30,30.1025 z" /><path
       id="path14224"
       style="fill:#ffffff;fill-opacity:1;fill-rule:nonzero;stroke:none;stroke-width:1.25"
       d="m 40.5025,305.4153 c -8.29,0 -15.00875,-6.74375 -15.00875,-15.06375 V 40.64405 c 0,-8.3 6.71875,-15.04375 15.00875,-15.04375 h 520.005 c 8.29125,0 14.99,6.74375 14.99,15.04375 v 249.7075 c 0,8.32 -6.69875,15.06375 -14.99,15.06375 z" /><path
       id="path14242"
       style="fill:#000000;fill-opacity:1;fill-rule:nonzero;stroke:none;stroke-width:1.25"
       d="M 40.4975,3e-4 C 18.145,3e-4 0,18.2078 0,40.64405 v 249.7225 c 0,22.43625 18.145,40.63875 40.4975,40.63875 h 520 c 22.35875,0 40.49875,-18.2025 40.49875,-40.63875 V 40.64405 C 600.99625,18.2078 582.85625,3e-4 560.4975,3e-4 Z m 0,0.5025 h 520.01 c 22.09,0 40,17.98875 40,40.15125 v 249.7125 c 0,22.1625 -17.91,40.13125 -40,40.13125 h -520.01 c -22.085,0 -39.99,-17.96875 -39.99,-40.13125 V 40.65405 c 0,-22.1625 17.905,-40.15125 39.99,-40.15125 z" /></g></svg>
