<?xml version="1.0" encoding="UTF-8" standalone="no"?>
<!-- Created with Inkscape (http://www.inkscape.org/) -->

<svg
   xmlns:dc="http://purl.org/dc/elements/1.1/"
   xmlns:cc="http://creativecommons.org/ns#"
   xmlns:rdf="http://www.w3.org/1999/02/22-rdf-syntax-ns#"
   xmlns:svg="http://www.w3.org/2000/svg"
   xmlns="http://www.w3.org/2000/svg"
   xmlns:sodipodi="http://sodipodi.sourceforge.net/DTD/sodipodi-0.dtd"
   xmlns:inkscape="http://www.inkscape.org/namespaces/inkscape"
   width="22"
   height="22"
   id="svg2"
   version="1.1"
   inkscape:version="0.91 r13725"
   sodipodi:docname="taxi.svg">
  <defs
     id="defs4" />
  <sodipodi:namedview
     id="base"
     pagecolor="#ff00ff"
     bordercolor="#666666"
     borderopacity="1.0"
     inkscape:pageopacity="0"
     inkscape:pageshadow="2"
     inkscape:zoom="5.6568542"
     inkscape:cx="62.077596"
     inkscape:cy="-4.9533923"
     inkscape:document-units="px"
     inkscape:current-layer="layer1"
     showgrid="false"
     fit-margin-top="3"
     fit-margin-left="3"
     fit-margin-right="3"
     fit-margin-bottom="3"
     inkscape:window-width="1056"
     inkscape:window-height="697"
     inkscape:window-x="0"
     inkscape:window-y="0"
     inkscape:window-maximized="0" />
  <metadata
     id="metadata7">
    <rdf:RDF>
      <cc:Work
         rdf:about="">
        <dc:format>image/svg+xml</dc:format>
        <dc:type
           rdf:resource="http://purl.org/dc/dcmitype/StillImage" />
        <dc:title />
        <dc:description>jfitie@gmail.com</dc:description>
        <cc:license
           rdf:resource="http://creativecommons.org/publicdomain/zero/1.0/" />
      </cc:Work>
      <cc:License
         rdf:about="http://creativecommons.org/publicdomain/zero/1.0/">
        <cc:permits
           rdf:resource="http://creativecommons.org/ns#Reproduction" />
        <cc:permits
           rdf:resource="http://creativecommons.org/ns#Distribution" />
        <cc:permits
           rdf:resource="http://creativecommons.org/ns#DerivativeWorks" />
      </cc:License>
    </rdf:RDF>
  </metadata>
  <g
     inkscape:label="Layer 1"
     inkscape:groupmode="layer"
     id="layer1"
     transform="translate(-23.765375,54.287223)">
    <g
       id="g8405"
       transform="matrix(0.20485588,0,0,0.20485588,19.908904,-42.569818)">
      <g
         transform="translate(189.22177,45.254834)"
         id="g8026">
        <path
           style="fill:#ffffff;fill-opacity:1;fill-rule:nonzero;stroke:#ffffff"
           d="m -169.89648,-99.953125 c 0,34.797526 0,69.595052 0,104.3925781 35.20442,0 70.40885,0 105.613277,0 0,-35.4641931 0,-70.9283851 0,-106.3925731 -35.204427,0 -70.408857,-1e-5 -105.613277,0 l 0,1 0,0.999995 z"
           id="rect3005-2"
           inkscape:connector-curvature="0" />
        <path
           style="fill:#ffffff;fill-opacity:1;fill-rule:nonzero;stroke:#ffffff"
           d="m -164.9043,-93.896484 c 0,30.620442 0,61.240885 0,91.8613278 31.87631,0 63.75261,-1e-7 95.628909,0 0,-31.2871098 0,-62.5742188 0,-93.8613278 -31.876299,0 -63.752599,0 -95.628909,0 l 0,1 0,1 z"
           id="rect3003-0"
           inkscape:connector-curvature="0" />
        <path
           style="font-style:normal;font-variant:normal;font-weight:bold;font-stretch:normal;font-size:113.22457123px;line-height:125%;font-family:FreeSans;-inkscape-font-specification:'Sans Bold';letter-spacing:0px;word-spacing:0px;fill:#ffffff;fill-opacity:1;stroke:#ffffff"
           d="m -95.851562,-91.023438 c -4.590438,0.399807 -12.611478,-2.379191 -13.978938,4.345684 -4.78912,12.085213 -9.57648,24.171126 -14.36677,36.255879 5.89322,-1.657006 14.26497,2.633359 18.25977,-3.582031 0.0775,-6.01085 11.953594,-4.35369 10.081467,1.698667 0.659341,2.218938 5.624343,1.069591 8.175798,1.774353 3.548144,0.957918 9.720167,-1.172827 7.393126,-5.744505 -5.320124,-11.343647 -9.16396,-23.436644 -13.921875,-35.066406 l -0.981731,0.190276 -0.660847,0.128083 z m -28.591798,-0.302734 c -8.29645,1.043471 -16.52773,-0.07534 -24.81445,0.207031 -6.87863,1.180686 -6.08226,13.469253 1.20117,13.5 2.55671,0.806904 7.23408,-1.464487 5.69141,3.109375 0,7.91211 0,15.824219 0,23.736328 5.13132,-0.328397 13.64554,2.413739 16.09765,-3.990234 -0.17203,-7.480546 -0.66879,-15.119534 -0.40039,-22.716797 4.84001,0.993571 12.15082,-1.064583 11.1543,-7.298828 0.1701,-5.127266 -4.53658,-6.937193 -8.92969,-6.546875 z"
           id="text3057-6"
           inkscape:connector-curvature="0" />
        <path
           style="font-style:normal;font-variant:normal;font-weight:bold;font-stretch:normal;font-size:47.17690277px;line-height:125%;font-family:FreeSans;-inkscape-font-specification:'Sans Bold';letter-spacing:0px;word-spacing:0px;fill:#ffffff;fill-opacity:1;stroke:#ffffff"
           d="m -113.24023,-51.708984 c -5.47536,0.792128 -13.92461,-2.890501 -16.8711,3.923828 -0.6265,4.652906 -2.99778,2.676262 -4.07812,-0.611328 -0.95335,-5.180827 -6.63859,-2.315935 -10.4668,-3.527344 -3.02742,-0.799301 -9.16706,0.446936 -7.04883,4.753906 3.51968,5.15361 7.05809,10.305598 10.57813,15.462891 -4.94925,7.080707 -9.89778,14.161921 -14.84766,21.242187 6.49118,-3.382244 14.81068,2.2215413 20.51953,-2.90625 1.66599,-1.120668 1.57274,-6.060947 3.63086,-5.318359 2.28224,3.042208 3.37743,7.503748 8.00195,7.25 3.90923,0.10997 10.6458,1.8813595 12.43555,-2.828125 -1.73029,-5.912496 -7.36535,-10.34139 -10.27216,-15.794409 -2.34868,-4.979749 5.99189,-9.953758 7.90991,-14.931215 1.49105,-3.576756 10.03963,-10.118329 0.50874,-6.715782 z"
           id="text3061-6"
           inkscape:connector-curvature="0" />
        <path
           style="font-style:normal;font-variant:normal;font-weight:bold;font-stretch:normal;font-size:47.17690277px;line-height:125%;font-family:FreeSans;-inkscape-font-specification:'Sans Bold';letter-spacing:0px;word-spacing:0px;fill:#ffffff;fill-opacity:1;stroke:#ffffff"
           d="m -91.310547,-51.695312 c -4.045322,0.753173 -12.122193,-2.665989 -13.244143,3.515624 0.009,12.238234 10e-4,24.476571 0.004,36.714844 5.131502,-0.321951 13.629534,2.4146777 16.095702,-3.976562 -0.547388,-12.13627 -0.407715,-24.560809 -0.398438,-36.830078 -0.81901,0.192057 -1.63802,0.384114 -2.457031,0.576172 z"
           id="text3065-3"
           inkscape:connector-curvature="0" />
      </g>
      <rect
         y="-52.659229"
         x="23.842041"
         height="98.392708"
         width="97.612862"
         id="rect3005"
         style="fill:#000000;fill-opacity:1;fill-rule:nonzero;stroke:none" />
      <rect
         y="-46.603138"
         x="28.833611"
         height="85.861809"
         width="87.629738"
         id="rect3003"
         style="fill:#ffff00;fill-opacity:1;fill-rule:nonzero;stroke:none" />
      <text
         sodipodi:linespacing="125%"
         id="text3045"
         y="-38.790665"
         x="33.774303"
         style="font-style:normal;font-variant:normal;font-weight:bold;font-stretch:normal;font-size:53.6074028px;line-height:125%;font-family:FreeSans;-inkscape-font-specification:'Sans Bold';letter-spacing:0px;word-spacing:0px;fill:#000000;fill-opacity:1;stroke:none"
         xml:space="preserve"><tspan
           y="-38.790665"
           x="33.774303"
           id="tspan3047"
           sodipodi:role="line" /></text>
      <text
         sodipodi:linespacing="125%"
         id="text3049"
         y="-62.020538"
         x="32.43412"
         style="font-style:normal;font-variant:normal;font-weight:bold;font-stretch:normal;font-size:107.2148056px;line-height:125%;font-family:FreeSans;-inkscape-font-specification:'Sans Bold';letter-spacing:0px;word-spacing:0px;fill:#000000;fill-opacity:1;stroke:none"
         xml:space="preserve"><tspan
           y="-62.020538"
           x="32.43412"
           id="tspan3051"
           sodipodi:role="line" /></text>
      <text
         sodipodi:linespacing="125%"
         id="text3053"
         y="-32.983196"
         x="35.561218"
         style="font-style:normal;font-variant:normal;font-weight:bold;font-stretch:normal;font-size:107.2148056px;line-height:125%;font-family:FreeSans;-inkscape-font-specification:'Sans Bold';letter-spacing:0px;word-spacing:0px;fill:#000000;fill-opacity:1;stroke:none"
         xml:space="preserve"><tspan
           y="-32.983196"
           x="35.561218"
           id="tspan3055"
           sodipodi:role="line" /></text>
      <text
         transform="scale(1.0560535,0.94692174)"
         sodipodi:linespacing="125%"
         id="text3057"
         y="-9.8282604"
         x="36.911568"
         style="font-style:normal;font-variant:normal;font-weight:bold;font-stretch:normal;font-size:113.22457123px;line-height:125%;font-family:FreeSans;-inkscape-font-specification:'Sans Bold';letter-spacing:0px;word-spacing:0px;fill:#000000;fill-opacity:1;stroke:none"
         xml:space="preserve"><tspan
           style="font-size:47.17690277px"
           y="-9.8282604"
           x="36.911568"
           id="tspan3059"
           sodipodi:role="line">TA</tspan></text>
      <text
         transform="scale(1.0560535,0.94692174)"
         sodipodi:linespacing="125%"
         id="text3061"
         y="31.687429"
         x="38.798649"
         style="font-style:normal;font-variant:normal;font-weight:bold;font-stretch:normal;font-size:47.17690277px;line-height:125%;font-family:FreeSans;-inkscape-font-specification:'Sans Bold';letter-spacing:0px;word-spacing:0px;fill:#000000;fill-opacity:1;stroke:none"
         xml:space="preserve"><tspan
           y="31.687429"
           x="38.798649"
           id="tspan3063"
           sodipodi:role="line">X</tspan></text>
      <text
         transform="scale(1.0560535,0.94692174)"
         sodipodi:linespacing="125%"
         id="text3065"
         y="31.687429"
         x="80.786095"
         style="font-style:normal;font-variant:normal;font-weight:bold;font-stretch:normal;font-size:47.17690277px;line-height:125%;font-family:FreeSans;-inkscape-font-specification:'Sans Bold';letter-spacing:0px;word-spacing:0px;fill:#000000;fill-opacity:1;stroke:none"
         xml:space="preserve"><tspan
           y="31.687429"
           x="80.786095"
           id="tspan3067"
           sodipodi:role="line">I</tspan></text>
    </g>
  </g>
</svg>
