/* XPM */
static char * theater_xpm[] = {
"16 15 54 1",
" 	c None",
".	c #FFFFFF",
"+	c #CFCFCF",
"@	c #808080",
"#	c #D8D8D8",
"$	c #F7F7F7",
"%	c #F5F5F5",
"&	c #DEDEDE",
"*	c #A2A2A2",
"=	c #393939",
"-	c #606060",
";	c #9D9D9D",
">	c #929292",
",	c #E5E5E5",
"'	c #4F4F4F",
")	c #5A5A5A",
"!	c #474747",
"~	c #3F3F3F",
"{	c #8B8B8B",
"]	c #979797",
"^	c #767676",
"/	c #E9E9E9",
"(	c #000000",
"_	c #575757",
":	c #494949",
"<	c #232323",
"[	c #050505",
"}	c #2E2E2E",
"|	c #333333",
"1	c #EBEBEB",
"2	c #7D7D7D",
"3	c #BABABA",
"4	c #BEBEBE",
"5	c #666666",
"6	c #1D1D1D",
"7	c #AAAAAA",
"8	c #2B2B2B",
"9	c #505050",
"0	c #B7B7B7",
"a	c #272727",
"b	c #121212",
"c	c #161616",
"d	c #D6D6D6",
"e	c #9A9A9A",
"f	c #C3C3C3",
"g	c #6D6D6D",
"h	c #0A0A0A",
"i	c #343434",
"j	c #454545",
"k	c #6B6B6B",
"l	c #EEEEEE",
"m	c #787878",
"n	c #0C0C0C",
"o	c #CACACA",
"      ...  ..++.",
" ..  .+@#$%&*=-.",
".;>. .,'')'!!)~%",
".{]^$./!(_(=@==%",
".{.*---:<][}}_|1",
".23*4.,567!83#94",
"&2/>&/0)a^:@bc'3",
"def3@#g='(}](h9/",
".g..),.$'}c]@ij%",
".k70_l*1<:@>7mk.",
".@7}fmk9{:2n8~+.",
".#g8(|_o.m:9=@. ",
" .-7k_7. .*>d$  ",
" .+9^)$   ...   ",
"  .%/%          "};
