<?xml version="1.0" encoding="UTF-8" standalone="no"?>
<!-- Created with Inkscape (http://www.inkscape.org/) -->

<svg
   xmlns:dc="http://purl.org/dc/elements/1.1/"
   xmlns:cc="http://creativecommons.org/ns#"
   xmlns:rdf="http://www.w3.org/1999/02/22-rdf-syntax-ns#"
   xmlns:svg="http://www.w3.org/2000/svg"
   xmlns="http://www.w3.org/2000/svg"
   xmlns:sodipodi="http://sodipodi.sourceforge.net/DTD/sodipodi-0.dtd"
   xmlns:inkscape="http://www.inkscape.org/namespaces/inkscape"
   width="22"
   height="22"
   inkscape:export-xdpi="90"
   inkscape:export-ydpi="90"
   id="svg2"
   sodipodi:version="0.32"
   inkscape:version="0.47 r22583"
   sodipodi:docname="toilets.svg"
   inkscape:output_extension="org.inkscape.output.svg.inkscape"
   version="1.0">
  <defs
     id="defs4">
    <inkscape:perspective
       sodipodi:type="inkscape:persp3d"
       inkscape:vp_x="0 : 526.18109 : 1"
       inkscape:vp_y="0 : 1000 : 0"
       inkscape:vp_z="744.09448 : 526.18109 : 1"
       inkscape:persp3d-origin="372.04724 : 350.78739 : 1"
       id="perspective14" />
  </defs>
  <sodipodi:namedview
     id="base"
     pagecolor="#ffffff"
     bordercolor="#666666"
     borderopacity="1.0"
     gridtolerance="10000"
     guidetolerance="10"
     objecttolerance="10"
     inkscape:pageopacity="0.0"
     inkscape:pageshadow="2"
     inkscape:zoom="30.318182"
     inkscape:cx="11"
     inkscape:cy="11"
     inkscape:document-units="px"
     inkscape:current-layer="layer1"
     showgrid="false"
     showguides="true"
     inkscape:guide-bbox="true"
     inkscape:window-width="1440"
     inkscape:window-height="925"
     inkscape:window-x="0"
     inkscape:window-y="67"
     inkscape:window-maximized="0"
     inkscape:snap-grids="false"
     inkscape:snap-to-guides="false">
    <inkscape:grid
       type="xygrid"
       id="grid2396"
       visible="true"
       enabled="true"
       empspacing="5"
       snapvisiblegridlinesonly="true" />
  </sodipodi:namedview>
  <metadata
     id="metadata7">
    <rdf:RDF>
      <cc:Work
         rdf:about="">
        <dc:format>image/svg+xml</dc:format>
        <dc:type
           rdf:resource="http://purl.org/dc/dcmitype/StillImage" />
        <dc:title />
        <dc:date>26.06.2008</dc:date>
        <dc:creator>
          <cc:Agent>
            <dc:title>Jakub Klawiter</dc:title>
          </cc:Agent>
        </dc:creator>
        <dc:subject>
          <rdf:Bag>
            <rdf:li>toilet</rdf:li>
            <rdf:li>sign</rdf:li>
            <rdf:li>man</rdf:li>
            <rdf:li>woman</rdf:li>
          </rdf:Bag>
        </dc:subject>
        <dc:description />
        <cc:license
           rdf:resource="http://creativecommons.org/licenses/publicdomain/" />
      </cc:Work>
      <cc:License
         rdf:about="http://creativecommons.org/licenses/publicdomain/">
        <cc:permits
           rdf:resource="http://creativecommons.org/ns#Reproduction" />
        <cc:permits
           rdf:resource="http://creativecommons.org/ns#Distribution" />
        <cc:permits
           rdf:resource="http://creativecommons.org/ns#DerivativeWorks" />
      </cc:License>
    </rdf:RDF>
  </metadata>
  <g
     inkscape:label="Layer 1"
     inkscape:groupmode="layer"
     id="layer1"
     transform="translate(-235,-17.36218)">
    <path
       style="fill:#0000ff;fill-opacity:1;fill-rule:nonzero;stroke:none"
       d="m 237.17388,20.397888 7.31707,0 c 0.91464,0 1.21952,0.304878 1.21952,1.219512 l 0,13.414634 c 0,0.914634 -0.30488,1.219512 -1.21952,1.219512 l -7.31707,0 c -0.91463,0 -1.21951,-0.304878 -1.21951,-1.219512 l 0,-13.414634 c 0,-0.914634 0.30488,-1.219512 1.21951,-1.219512 z"
       id="rect3188"
       sodipodi:nodetypes="ccccccccc" />
    <path
       sodipodi:nodetypes="cssscccccccccccccccccccc"
       style="fill:#ffffff;fill-opacity:1;fill-rule:nonzero;stroke:none"
       d="m 240.77144,21.313303 c -0.63951,0 -1.15854,0.519025 -1.15854,1.158537 0,0.639512 0.51903,1.158537 1.15854,1.158537 0.63951,0 1.15854,-0.519025 1.15854,-1.158537 0,-0.639512 -0.51903,-1.158537 -1.15854,-1.158537 z m -1.82927,2.439025 c -0.60975,0 -0.91463,0.304878 -0.91463,0.914634 l 0,4.268293 c 0,0.304878 0.91463,0.304878 0.91463,0 l 0,-3.048781 c 0,-0.121951 0.30488,-0.121951 0.30488,0 l 0,9.146342 c 0,0.609756 1.52439,0.609756 1.52439,0 l 0,-5.792683 c 0,-0.121952 0.30488,-0.121952 0.30488,0 l 0,5.792683 c 0,0.609756 1.52439,0.609756 1.52439,0 l 0,-9.146342 c 0,-0.121951 0.30488,-0.121951 0.30488,0 l 0,3.048781 c 0,0.304878 0.91463,0.304878 0.91463,0 l 0,-4.268293 c 0,-0.609756 -0.60975,-0.914634 -1.21951,-0.914634 l -3.65854,0 z"
       id="path2400" />
    <path
       style="fill:#0000ff;fill-opacity:1;fill-rule:nonzero;stroke:none"
       d="m 247.53973,20.397888 7.19513,0 c 0.91463,0 1.21951,0.304878 1.21951,1.219512 l 0,13.414634 c 0,0.914634 -0.30488,1.219512 -1.21951,1.219512 l -7.19513,0 c -0.91463,0 -1.21951,-0.304878 -1.21951,-1.219512 l 0,-13.414634 c 0,-0.914634 0.30488,-1.219512 1.21951,-1.219512 z"
       id="rect3190"
       sodipodi:nodetypes="ccccccccc" />
    <path
       sodipodi:nodetypes="cssscccccccccccccccccccccccc"
       style="fill:#ffffff;fill-opacity:1;fill-rule:nonzero;stroke:none"
       d="m 251.19816,21.303983 c -0.63951,0 -1.15854,0.519025 -1.15854,1.158537 0,0.639512 0.51903,1.158537 1.15854,1.158537 0.63951,0 1.15854,-0.519025 1.15854,-1.158537 0,-0.639512 -0.51903,-1.158537 -1.15854,-1.158537 z m -1.52439,2.378049 c -0.42683,0 -0.91463,0.304878 -0.91463,0.609756 l -1.21952,3.963415 c -0.2439,0.609756 0.97561,0.914634 1.21952,0.365854 l 0.91463,-3.414635 c 0.2439,0 0.30488,0.121952 0.30488,0.304879 l -1.52439,5.182926 1.21951,0 0,4.268293 c 0,0.609756 1.34146,0.609756 1.34146,0 l 0,-4.268293 c 0,-0.182926 0.36586,-0.182926 0.36586,0 l 0,4.268293 c 0,0.609756 1.34146,0.609756 1.34146,0 l 0,-4.268293 1.21951,0 -1.52439,-5.182926 c 0,-0.182927 0.061,-0.304879 0.30488,-0.304879 l 0.91464,3.353659 c 0.2439,0.609756 1.46341,0.304878 1.21951,-0.304878 l -1.21951,-3.963415 c 0,-0.304878 -0.48781,-0.609756 -0.91464,-0.609756 l -3.04878,0 z"
       id="path2408" />
  </g>
</svg>
