/* XPM */
static char * trailerpark_xpm[] = {
"16 16 91 1",
" 	c #325692",
".	c #335692",
"+	c #335592",
"@	c #325592",
"#	c #325591",
"$	c #335690",
"%	c #335593",
"&	c #8195B7",
"*	c #BCC7D9",
"=	c #C4CEDE",
"-	c #CCD5E3",
";	c #D3DAE3",
">	c #D8DEE8",
",	c #DDE3EB",
"'	c #DFE5EC",
")	c #D9E1E9",
"!	c #D5DCE6",
"~	c #D2D8E2",
"{	c #CAD3E0",
"]	c #C1CCDB",
"^	c #8D9FBD",
"/	c #345590",
"(	c #F3F5F8",
"_	c #FEFEFD",
":	c #FDFEFD",
"<	c #FDFFFD",
"[	c #FFFFFF",
"}	c #FEFFFE",
"|	c #FCFFFC",
"1	c #FDFEFE",
"2	c #DFE5EB",
"3	c #F6F9FA",
"4	c #C0C9DA",
"5	c #3B5B94",
"6	c #3A5B93",
"7	c #B3C0D5",
"8	c #FCFDFE",
"9	c #3D5C92",
"0	c #C9D1DE",
"a	c #335591",
"b	c #BCC8DA",
"c	c #B1BED4",
"d	c #FBFDFE",
"e	c #355791",
"f	c #C8D0DD",
"g	c #DFE4EB",
"h	c #CED6E1",
"i	c #6A83AC",
"j	c #6B83AC",
"k	c #C4CFDF",
"l	c #FFFFFE",
"m	c #FCFDFD",
"n	c #6C84AC",
"o	c #6A83AD",
"p	c #D6DCE4",
"q	c #FFFEFE",
"r	c #E0E6ED",
"s	c #99AAC5",
"t	c #D1DAE4",
"u	c #FEFEFE",
"v	c #355793",
"w	c #37588E",
"x	c #F6F8FA",
"y	c #F4F7F8",
"z	c #869AB9",
"A	c #E3EBF0",
"B	c #95A7C1",
"C	c #E0E5ED",
"D	c #DEE4EB",
"E	c #788FB7",
"F	c #A9BAD2",
"G	c #ADBBD1",
"H	c #91A4C2",
"I	c #C7D1DE",
"J	c #3D5F94",
"K	c #D0D7E2",
"L	c #7C92B6",
"M	c #8FA1C1",
"N	c #5C79A6",
"O	c #92A2C2",
"P	c #A6B5CB",
"Q	c #B7C2D4",
"R	c #C3CCDB",
"S	c #325693",
"T	c #3E5E98",
"U	c #546FA1",
"V	c #395994",
"W	c #7087B1",
"X	c #3F5F99",
"Y	c #345593",
"Z	c #345592",
"   .  ++@#$%+++ ",
" .&*=-;>,')!~{]^",
" /(_:<:[}|<__:12",
" $34567[89666502",
" a3b+.c[de+.++fg",
" a3hijklmniiiopg",
" a3[[[}[[[[[[lqg",
" a3[[[[l[l[[[[lg",
" a3[[[[rstu[[[lg",
"vwxuuuyzABCuuuuD",
"EFGGGGHIJKLGGGGM",
"NO     PQR%    S",
"TU     VWX     S",
" Y     Z %     S",
"               S",
" ++++++++++++++."};
