<?xml version="1.0" encoding="UTF-8" standalone="no"?>
<!-- Created with Inkscape (http://www.inkscape.org/) -->

<svg
   xmlns:dc="http://purl.org/dc/elements/1.1/"
   xmlns:cc="http://creativecommons.org/ns#"
   xmlns:rdf="http://www.w3.org/1999/02/22-rdf-syntax-ns#"
   xmlns:svg="http://www.w3.org/2000/svg"
   xmlns="http://www.w3.org/2000/svg"
   xmlns:sodipodi="http://sodipodi.sourceforge.net/DTD/sodipodi-0.dtd"
   xmlns:inkscape="http://www.inkscape.org/namespaces/inkscape"
   version="1.2"
   width="22"
   height="22"
   id="svg3094"
   inkscape:version="0.91 r13725"
   sodipodi:docname="unknown.svg">
  <sodipodi:namedview
     pagecolor="#ff2aff"
     bordercolor="#666666"
     borderopacity="1"
     objecttolerance="10"
     gridtolerance="10"
     guidetolerance="10"
     inkscape:pageopacity="0"
     inkscape:pageshadow="2"
     inkscape:window-width="1440"
     inkscape:window-height="874"
     id="namedview10"
     showgrid="false"
     inkscape:zoom="4.3385901"
     inkscape:cx="36.296208"
     inkscape:cy="56.425428"
     inkscape:window-x="0"
     inkscape:window-y="0"
     inkscape:window-maximized="1"
     inkscape:current-layer="svg3094" />
  <defs
     id="defs3096" />
  <metadata
     id="metadata3099">
    <rdf:RDF>
      <cc:Work
         rdf:about="">
        <dc:format>image/svg+xml</dc:format>
        <dc:type
           rdf:resource="http://purl.org/dc/dcmitype/StillImage" />
        <dc:title />
        <dc:description>jfitie@gmail.com</dc:description>
        <cc:license
           rdf:resource="http://creativecommons.org/publicdomain/zero/1.0/" />
      </cc:Work>
      <cc:License
         rdf:about="http://creativecommons.org/publicdomain/zero/1.0/">
        <cc:permits
           rdf:resource="http://creativecommons.org/ns#Reproduction" />
        <cc:permits
           rdf:resource="http://creativecommons.org/ns#Distribution" />
        <cc:permits
           rdf:resource="http://creativecommons.org/ns#DerivativeWorks" />
      </cc:License>
    </rdf:RDF>
  </metadata>
  <path
     style="fill:#ffffff;fill-opacity:1;fill-rule:nonzero;stroke:#ffffff;stroke-width:0.16560781"
     d="M 12.305956,2.091083 C 9.975143,2.232789 7.37186,1.707702 5.323905,3.155242 3.084158,4.534757 1.816143,7.226655 2.13496,9.833894 c -0.07859,2.561541 -0.2989926,5.498092 1.534138,7.562241 1.614653,2.03148 4.357647,2.726984 6.849757,2.469879 2.420783,0.109541 5.16359,0.0769 7.030917,-1.712914 1.950905,-1.672056 2.526415,-4.390223 2.284878,-6.84908 C 19.948192,8.921877 19.87419,6.235782 18.120019,4.402153 16.68805,2.764682 14.446961,1.993193 12.305956,2.091083 Z"
     id="rect3874-3"
     inkscape:connector-curvature="0" />
  <rect
     style="opacity:0.72699998;fill:#0000ff;fill-opacity:1;fill-rule:nonzero;stroke:none"
     id="rect3874"
     y="2.6689682"
     x="2.7735891"
     height="16.409807"
     width="16.382191"
     ry="6.1455121" />
  <path
     inkscape:connector-curvature="0"
     style="font-style:normal;font-variant:normal;font-weight:bold;font-stretch:normal;font-size:310px;line-height:125%;font-family:FreeSans;-inkscape-font-specification:'FreeSans Bold';text-align:start;letter-spacing:0px;word-spacing:0px;writing-mode:lr-tb;text-anchor:start;fill:#ffff00;fill-opacity:1;stroke:none"
     id="path3986"
     d="M 6.518286,8.665502 C 6.530626,7.878231 6.635548,7.187848 6.833046,6.59435 7.042883,6.000873 7.295925,5.540617 7.592173,5.213582 7.900758,4.874458 8.264892,4.601938 8.684574,4.396022 9.10425,4.19013 9.493071,4.056899 9.851038,3.996326 c 0.3703,-0.07266 0.759121,-0.108995 1.166463,-0.109008 1.357781,1.3e-5 2.462525,0.387597 3.314237,1.162752 0.864037,0.775179 1.29606,1.780474 1.296071,3.015887 -1.1e-5,0.763065 -0.154305,1.392888 -0.462883,1.889472 -0.308598,0.4966 -0.894915,1.041639 -1.758952,1.63512 -0.555466,0.38759 -0.901085,0.696446 -1.036856,0.926568 -0.135786,0.230133 -0.203676,0.64194 -0.203668,1.235425 l -2.295897,0 0,-0.254352 c -5e-6,-0.605596 0.104915,-1.132468 0.31476,-1.580616 0.222178,-0.46025 0.487564,-0.829666 0.796157,-1.108248 0.308582,-0.27857 0.61717,-0.538977 0.925765,-0.781224 C 12.214816,9.785869 12.474029,9.507294 12.683878,9.192374 12.906053,8.87747 13.017145,8.520167 13.017153,8.120461 13.017145,7.526984 12.831992,7.030392 12.461694,6.630686 12.091381,6.231001 11.628499,6.031152 11.073047,6.031142 10.492896,6.031152 10.005327,6.261281 9.610339,6.721526 9.227685,7.181792 9.036361,7.763167 9.036365,8.465653 l 0,0.163513 0,0.03633 -2.518079,0" />
  <path
     inkscape:connector-curvature="0"
     style="font-style:normal;font-variant:normal;font-weight:bold;font-stretch:normal;font-size:310px;line-height:125%;font-family:FreeSans;-inkscape-font-specification:'FreeSans Bold';text-align:start;letter-spacing:0px;word-spacing:0px;writing-mode:lr-tb;text-anchor:start;fill:#ffff00;fill-opacity:1;stroke:none"
     id="path3981"
     d="m 12.461694,14.751782 0,2.652528 -2.777294,0 0,-2.652528 2.777294,0" />
</svg>
