<?xml version="1.0" encoding="UTF-8" standalone="no"?>
<!-- Created with Inkscape (http://www.inkscape.org/) -->

<svg
   xmlns:dc="http://purl.org/dc/elements/1.1/"
   xmlns:cc="http://creativecommons.org/ns#"
   xmlns:rdf="http://www.w3.org/1999/02/22-rdf-syntax-ns#"
   xmlns:svg="http://www.w3.org/2000/svg"
   xmlns="http://www.w3.org/2000/svg"
   xmlns:sodipodi="http://sodipodi.sourceforge.net/DTD/sodipodi-0.dtd"
   xmlns:inkscape="http://www.inkscape.org/namespaces/inkscape"
   version="1.2"
   width="22"
   height="22"
   id="svg3094"
   inkscape:version="0.48.1 r9760"
   sodipodi:docname="unknown.svg">
  <sodipodi:namedview
     pagecolor="#ffffff"
     bordercolor="#666666"
     borderopacity="1"
     objecttolerance="10"
     gridtolerance="10"
     guidetolerance="10"
     inkscape:pageopacity="0"
     inkscape:pageshadow="2"
     inkscape:window-width="1024"
     inkscape:window-height="725"
     id="namedview10"
     showgrid="false"
     inkscape:zoom="12.271386"
     inkscape:cx="10.188702"
     inkscape:cy="10.351683"
     inkscape:window-x="-3"
     inkscape:window-y="-3"
     inkscape:window-maximized="1"
     inkscape:current-layer="svg3094" />
  <defs
     id="defs3096" />
  <metadata
     id="metadata3099">
    <rdf:RDF>
      <cc:Work
         rdf:about="">
        <dc:format>image/svg+xml</dc:format>
        <dc:type
           rdf:resource="http://purl.org/dc/dcmitype/StillImage" />
        <dc:title />
      </cc:Work>
    </rdf:RDF>
  </metadata>
  <g
     transform="matrix(0.06611418,0,0,0.06487408,-17.37859,-23.684485)"
     id="layer1">
    <rect
       width="332.4278"
       height="339.07635"
       x="262.85715"
       y="363.79074"
       id="rect3104"
       style="fill:#ffff00;fill-opacity:1;fill-rule:nonzero;stroke:none" />
    <rect
       width="274.28571"
       height="280"
       x="291.42856"
       y="395.21933"
       id="rect3874"
       style="fill:#0000ff;fill-opacity:1;fill-rule:nonzero;stroke:none" />
    <path
       d="m 354.12571,497.53789 c 0.20664,-13.43317 1.96331,-25.21316 5.27,-35.34 3.5133,-10.12647 7.74996,-17.9798 12.71,-23.56 5.16662,-5.78645 11.26328,-10.43645 18.29,-13.95 7.0266,-3.51311 13.53659,-5.78644 19.53,-6.82 6.19991,-1.23977 12.70991,-1.85977 19.53,-1.86 22.73321,2.3e-4 41.22986,6.61356 55.49,19.84 14.4665,13.22686 21.69982,30.38018 21.7,51.46 -1.8e-4,13.02014 -2.58351,23.7668 -7.75,32.24 -5.16683,8.47345 -14.98349,17.77344 -29.45,27.9 -9.30013,6.61342 -15.08679,11.88342 -17.36,15.81 -2.27345,3.92674 -3.41012,10.9534 -3.41,21.08 l -38.44,0 0,-4.34 c -8e-5,-10.33326 1.75658,-19.32325 5.27,-26.97 3.71991,-7.85323 8.16324,-14.15656 13.33,-18.91 5.16656,-4.75322 10.33322,-9.19655 15.5,-13.33 5.16655,-4.13321 9.50654,-8.88653 13.02,-14.26 3.71987,-5.37319 5.57987,-11.46985 5.58,-18.29 -1.3e-4,-10.1265 -3.10013,-18.59982 -9.3,-25.42 -6.20012,-6.81981 -13.95011,-10.22981 -23.25,-10.23 -9.71342,1.9e-4 -17.87675,3.92685 -24.49,11.78 -6.40674,7.85351 -9.61007,17.7735 -9.61,29.76 l 0,2.79 0,0.62 -42.16,0"
       id="path3986"
       style="font-size:310px;font-style:normal;font-variant:normal;font-weight:bold;font-stretch:normal;text-align:start;line-height:125%;letter-spacing:0px;word-spacing:0px;writing-mode:lr-tb;text-anchor:start;fill:#ffff00;fill-opacity:1;stroke:none;font-family:FreeSans;-inkscape-font-specification:FreeSans Bold"
       inkscape:connector-curvature="0" />
    <path
       d="m 453.63571,601.38789 0,45.26 -46.5,0 0,-45.26 46.5,0"
       id="path3981"
       style="font-size:310px;font-style:normal;font-variant:normal;font-weight:bold;font-stretch:normal;text-align:start;line-height:125%;letter-spacing:0px;word-spacing:0px;writing-mode:lr-tb;text-anchor:start;fill:#ffff00;fill-opacity:1;stroke:none;font-family:FreeSans;-inkscape-font-specification:FreeSans Bold"
       inkscape:connector-curvature="0" />
  </g>
</svg>
