<?xml version="1.0" encoding="UTF-8" standalone="no"?>
<!-- Created with Inkscape (http://www.inkscape.org/) -->

<svg
   xmlns:dc="http://purl.org/dc/elements/1.1/"
   xmlns:cc="http://creativecommons.org/ns#"
   xmlns:rdf="http://www.w3.org/1999/02/22-rdf-syntax-ns#"
   xmlns:svg="http://www.w3.org/2000/svg"
   xmlns="http://www.w3.org/2000/svg"
   xmlns:sodipodi="http://sodipodi.sourceforge.net/DTD/sodipodi-0.dtd"
   xmlns:inkscape="http://www.inkscape.org/namespaces/inkscape"
   version="1.1"
   width="22"
   height="22"
   id="svg2"
   inkscape:version="0.91 r13725"
   sodipodi:docname="viewpoint.svg">
  <metadata
     id="metadata7">
    <rdf:RDF>
      <cc:Work
         rdf:about="">
        <dc:format>image/svg+xml</dc:format>
        <dc:type
           rdf:resource="http://purl.org/dc/dcmitype/StillImage" />
        <dc:title />
        <dc:description>jfitie@gmail.com</dc:description>
        <cc:license
           rdf:resource="http://creativecommons.org/publicdomain/zero/1.0/" />
      </cc:Work>
      <cc:License
         rdf:about="http://creativecommons.org/publicdomain/zero/1.0/">
        <cc:permits
           rdf:resource="http://creativecommons.org/ns#Reproduction" />
        <cc:permits
           rdf:resource="http://creativecommons.org/ns#Distribution" />
        <cc:permits
           rdf:resource="http://creativecommons.org/ns#DerivativeWorks" />
      </cc:License>
    </rdf:RDF>
  </metadata>
  <sodipodi:namedview
     pagecolor="#ff00ff"
     bordercolor="#666666"
     borderopacity="1"
     objecttolerance="10"
     gridtolerance="10"
     guidetolerance="10"
     inkscape:pageopacity="0"
     inkscape:pageshadow="2"
     inkscape:window-width="863"
     inkscape:window-height="754"
     id="namedview5"
     showgrid="false"
     inkscape:zoom="3.6875"
     inkscape:cx="23.319342"
     inkscape:cy="37.716858"
     inkscape:window-x="0"
     inkscape:window-y="0"
     inkscape:window-maximized="0"
     inkscape:current-layer="svg2" />
  <defs
     id="defs6" />
  <path
     style="fill:#ffffff;stroke:#ffffff;stroke-width:0.22201096"
     d="M 10.500616,0.14643299 C 9.1447596,0.05429299 7.4333155,1.166495 8.0038133,2.695183 8.3721231,3.978462 8.9079679,5.532207 8.9578135,6.711918 7.8223681,4.657272 6.8700076,2.124987 4.6450777,1.006307 2.9515933,0.68562699 1.2108155,2.112457 0.77983244,3.702574 0.87032344,5.79764 3.126023,6.700495 4.5190489,7.869942 5.6906812,8.694241 7.3103973,9.988296 8.7644212,9.149312 9.530196,8.756584 9.1636367,7.191581 9.1421,7.144239 c 0.6682241,1.324371 2.749182,1.147927 3.510114,0.346032 -0.219322,1.078089 0.832486,2.011117 1.764814,1.826853 -1.134738,1.040504 -0.41601,2.866981 0.811728,3.490666 -0.92893,-0.525391 -2.445383,-0.238102 -2.471607,1.02335 0.0044,1.84717 1.371835,3.349112 2.2045,4.906444 0.855644,1.266628 2.274245,2.950689 3.976683,2.119115 1.320857,-0.635901 2.924534,-2.207068 1.986825,-3.756909 -1.098879,-1.558451 -2.996367,-2.563047 -4.378645,-3.630725 1.343781,0.334311 2.834536,0.881887 4.204331,0.483055 1.476992,-0.895775 1.157835,-2.940369 0.981269,-4.392167 -0.16076,-1.315645 -1.634481,-2.037013 -2.80939,-1.447867 -1.105871,0.2866 -2.179713,0.7557 -3.334066,0.808707 C 17.307372,7.820732 19.328771,6.996677 20.619892,5.361616 21.81867,3.670304 20.233691,1.49756 18.581033,0.84846799 16.957783,0.52513699 15.799916,2.211115 14.977326,3.363605 c -0.636398,0.764052 -1.403934,2.157104 -1.844232,2.625897 0.0087,-1.66023 1.724508,-3.542498 0.471773,-5.10374201 -0.803525,-0.810246 -2.061184,-0.703069 -3.104251,-0.739327 z M 2.1431184,7.985902 c -1.79111992,-0.03765 -2.16636069,2.121693 -1.99376235,3.503673 -0.1933571,1.479407 1.22837385,3.075459 2.76126115,2.444334 1.8109505,-0.472775 3.918339,-0.84759 5.2289646,-2.267849 C 8.7832043,10.297816 7.1101751,9.274959 5.9914525,9.014889 4.7511467,8.542877 3.4838491,8.050675 2.1431184,7.985902 Z M 8.0415848,12.73841 C 5.5104534,13.1902 3.3387279,14.827029 1.457573,16.484913 0.50117408,17.64353 1.0077515,19.274323 2.0165028,20.2093 c 0.8369965,1.124113 2.6954608,1.461141 3.5500068,0.155671 1.6211763,-1.765602 3.3049372,-3.730474 3.9025363,-6.09804 0.066714,-0.811859 -0.5800284,-1.594397 -1.4274611,-1.528521 z m 2.8228342,0.991695 c -1.8507922,0.623047 -1.9243481,2.943697 -2.5956198,4.469784 -0.5575965,1.268504 -0.3881604,3.326161 1.3216585,3.507145 1.4259113,0.295491 3.5821283,0.418631 4.2832503,-1.156039 0.518855,-1.872214 -0.736761,-3.647017 -1.213255,-5.397305 -0.276156,-0.749087 -0.918303,-1.530511 -1.796034,-1.423585 z"
     id="path3335-6"
     inkscape:connector-curvature="0" />
  <path
     style="fill:#0000ff"
     d="m 2.5366678,19.241383 c -1.2170452,-1.466475 -0.9166297,-2.19009 1.5915292,-3.833528 5.0647285,-3.318597 5.939102,-2.197851 2.1391128,2.741854 -1.9083258,2.480679 -2.4470585,2.638325 -3.730642,1.091674 z m 6.7100008,-1.188579 c 0.9762774,-3.176134 1.5878954,-4.072821 2.2655144,-3.321445 0.257418,0.285437 0.855671,1.780087 1.329452,3.321445 0.707003,2.300102 0.384788,2.80247 -1.797483,2.80247 -2.1822704,0 -2.5044861,-0.502368 -1.7974834,-2.80247 z M 15.560986,17.80702 c -3.318538,-5.06482 -2.197812,-5.93921 2.741802,-2.139152 2.480636,1.908361 2.638278,2.447105 1.091656,3.730711 -1.46645,1.217066 -2.19005,0.916644 -3.833458,-1.591559 z M 1.0799997,10.89094 c 0,-2.182311 0.5023588,-2.504531 2.8024177,-1.797515 3.1760761,0.976293 4.0727477,1.587924 3.3213844,2.265555 -0.285432,0.257422 -1.7800546,0.855686 -3.3213844,1.329476 -2.3000589,0.707015 -2.8024177,0.384795 -2.8024177,-1.797516 z m 15.8803663,1.6325 C 14.713701,11.936313 13.88904,9.645399 15.924361,9.645399 c 0.629007,0 2.030215,-0.340214 3.113797,-0.756031 1.412355,-0.541981 1.970145,-0.01303 1.970145,1.868313 0,2.671716 -0.21776,2.766707 -4.047937,1.765759 z M 3.785516,6.114011 C 1.3048806,4.205652 1.1472366,3.666909 2.6938585,2.383302 4.1603089,1.166234 4.8839094,1.466655 6.5273181,3.97486 9.8458551,9.039681 8.7251298,9.914069 3.785516,6.114011 Z m 9.777369,1.35169 c 0.01523,-0.513786 1.031381,-2.238874 2.258109,-3.83353 1.908325,-2.48068 2.447058,-2.63832501 3.730641,-1.091675 1.217045,1.466476 0.91663,2.19009 -1.591529,3.833529 -3.41599,2.238283 -4.438743,2.492196 -4.397221,1.091676 z M 9.7986325,6.010644 c 0,-0.62902 -0.3402071,-2.030254 -0.756016,-3.113854 -0.5490958,-1.430947 -0.00125,-1.97018201 2.0015355,-1.97018201 2.002814,0 2.550631,0.53923501 2.001535,1.97018201 -0.415809,1.0836 -0.756016,2.484834 -0.756016,3.113854 0,0.629019 -0.560484,1.143671 -1.245519,1.143671 -0.685036,0 -1.2455195,-0.514652 -1.2455195,-1.143671 z"
     id="path3335"
     inkscape:connector-curvature="0" />
</svg>
