<?xml version="1.0" encoding="UTF-8" standalone="no"?>
<!-- Created with Inkscape (http://www.inkscape.org/) -->

<svg
   xmlns:dc="http://purl.org/dc/elements/1.1/"
   xmlns:cc="http://creativecommons.org/ns#"
   xmlns:rdf="http://www.w3.org/1999/02/22-rdf-syntax-ns#"
   xmlns:svg="http://www.w3.org/2000/svg"
   xmlns="http://www.w3.org/2000/svg"
   xmlns:sodipodi="http://sodipodi.sourceforge.net/DTD/sodipodi-0.dtd"
   xmlns:inkscape="http://www.inkscape.org/namespaces/inkscape"
   height="22"
   id="svg2"
   inkscape:output_extension="org.inkscape.output.svg.inkscape"
   inkscape:version="0.91 r13725"
   sodipodi:docname="worship.svg"
   sodipodi:version="0.32"
   version="1.0"
   width="22">
  <metadata
     id="metadata2975">
    <rdf:RDF>
      <cc:Work
         rdf:about="">
        <dc:format>image/svg+xml</dc:format>
        <dc:type
           rdf:resource="http://purl.org/dc/dcmitype/StillImage" />
        <cc:license
           rdf:resource="http://creativecommons.org/publicdomain/zero/1.0/" />
        <dc:language>en</dc:language>
        <dc:title />
        <dc:description>jfitie@gmail.com</dc:description>
      </cc:Work>
      <cc:License
         rdf:about="http://creativecommons.org/publicdomain/zero/1.0/">
        <cc:permits
           rdf:resource="http://creativecommons.org/ns#Reproduction" />
        <cc:permits
           rdf:resource="http://creativecommons.org/ns#Distribution" />
        <cc:permits
           rdf:resource="http://creativecommons.org/ns#DerivativeWorks" />
      </cc:License>
    </rdf:RDF>
  </metadata>
  <sodipodi:namedview
     bordercolor="#666666"
     borderopacity="1.0"
     gridtolerance="10.0"
     guidetolerance="10.0"
     id="base"
     inkscape:current-layer="svg2"
     inkscape:cx="82.710284"
     inkscape:cy="31.193279"
     inkscape:pageopacity="0"
     inkscape:pageshadow="2"
     inkscape:window-height="700"
     inkscape:window-maximized="0"
     inkscape:window-width="915"
     inkscape:window-x="50"
     inkscape:window-y="50"
     inkscape:zoom="3.6203868"
     objecttolerance="10.0"
     pagecolor="#ff00ff"
     showgrid="false" />
  <defs
     id="defs4">
    <inkscape:perspective
       id="perspective2441"
       inkscape:persp3d-origin="290 : 193.33333 : 1"
       inkscape:vp_x="0 : 290 : 1"
       inkscape:vp_y="0 : 1000 : 0"
       inkscape:vp_z="580 : 290 : 1"
       sodipodi:type="inkscape:persp3d" />
    <inkscape:perspective
       id="perspective3452"
       inkscape:persp3d-origin="30 : 20 : 1"
       inkscape:vp_x="0 : 30 : 1"
       inkscape:vp_y="0 : 1000 : 0"
       inkscape:vp_z="60 : 30 : 1"
       sodipodi:type="inkscape:persp3d" />
    <symbol
       id="symbol-university"
       viewBox="244.5 110 489 219.9">
      <path
         d="m 79,43 57,119 c 0,0 21,-96 104,-96 83,0 124,106 124,106 L 407,39 489,22 0,17 79,43 Z"
         id="path4460"
         inkscape:connector-curvature="0" />
      <path
         d="M 94,176 73,215"
         id="path4462"
         inkscape:connector-curvature="0"
         style="fill:none;stroke:#000000;stroke-width:20" />
      <path
         d="M 300,19 C 300,29.5 277.4,38 249.5,38 221.6,38 199,29.5 199,19 199,8.5 221.6,0 249.5,0 277.4,0 300,8.5 300,19 Z"
         id="path4464"
         inkscape:connector-curvature="0" />
      <path
         d="M 112,216 96,178 64,88 C 64,88 55,80 60,53 65,26 76,29 76,29"
         id="path4466"
         ill="none"
         inkscape:connector-curvature="0"
         style="stroke:#000000;stroke-width:20" />
    </symbol>
    <inkscape:perspective
       id="perspective4471"
       inkscape:persp3d-origin="372.04724 : 350.78739 : 1"
       inkscape:vp_x="0 : 526.18109 : 1"
       inkscape:vp_y="0 : 1000 : 0"
       inkscape:vp_z="744.09448 : 526.18109 : 1"
       sodipodi:type="inkscape:persp3d" />
    <inkscape:perspective
       id="perspective4668"
       inkscape:persp3d-origin="6 : 4 : 1"
       inkscape:vp_x="0 : 6 : 1"
       inkscape:vp_y="0 : 1000 : 0"
       inkscape:vp_z="12 : 6 : 1"
       sodipodi:type="inkscape:persp3d" />
    <inkscape:perspective
       id="perspective2893"
       inkscape:persp3d-origin="0.5 : 0.33333333 : 1"
       inkscape:vp_x="0 : 0.5 : 1"
       inkscape:vp_y="0 : 1000 : 0"
       inkscape:vp_z="1 : 0.5 : 1"
       sodipodi:type="inkscape:persp3d" />
    <inkscape:perspective
       id="perspective3898"
       inkscape:persp3d-origin="0.5 : 0.33333333 : 1"
       inkscape:vp_x="0 : 0.5 : 1"
       inkscape:vp_y="0 : 1000 : 0"
       inkscape:vp_z="1 : 0.5 : 1"
       sodipodi:type="inkscape:persp3d" />
    <inkscape:perspective
       id="perspective4011"
       inkscape:persp3d-origin="0.5 : 0.33333333 : 1"
       inkscape:vp_x="0 : 0.5 : 1"
       inkscape:vp_y="0 : 1000 : 0"
       inkscape:vp_z="1 : 0.5 : 1"
       sodipodi:type="inkscape:persp3d" />
  </defs>
  <g
     id="layer3"
     inkscape:label="Layout"
     style="display:none;stroke:#757575;stroke-opacity:1"
     transform="matrix(48.14969,0,0,48.14969,-536.27327,44.693248)">
    <rect
       height="10"
       id="rect4134"
       style="display:inline;fill:none;stroke:#757575;stroke-width:0.1;stroke-miterlimit:4;stroke-dasharray:none;stroke-opacity:1"
       width="10"
       x="1"
       y="1" />
    <rect
       height="8"
       id="rect4136"
       style="display:inline;fill:none;stroke:#757575;stroke-width:0.1;stroke-miterlimit:4;stroke-dasharray:none;stroke-opacity:1"
       width="8"
       x="2"
       y="2" />
  </g>
  <g
     id="g3519"
     transform="matrix(0.26019156,0,0,0.26019255,-0.07368931,-3.8475348)">
    <g
       id="g3500"
       transform="translate(-69.605823,-5.8004852)">
      <path
         style="fill:#ffffff;fill-opacity:1;stroke:#ffffff;stroke-width:19.9469471;stroke-linecap:round;stroke-linejoin:round;stroke-miterlimit:4;stroke-dasharray:none;stroke-opacity:1"
         d="m 121.9043,50.982422 c -4.61886,-0.08318 -5.49473,4.64403 -3.33628,8.215919 2.29921,5.123997 1.28481,13.090517 5.82329,16.388981 5.3074,0.270773 6.55004,-6.159768 4.29424,-9.95451 -2.91464,-4.302675 -1.06872,-10.807486 -5.02149,-14.291015 -0.54189,-0.273254 -1.15595,-0.383086 -1.75976,-0.359375 z"
         id="path4817-7"
         inkscape:connector-curvature="0" />
      <path
         style="fill:#ffffff;stroke:#ffffff;stroke-width:8.76375294;stroke-linecap:round;stroke-linejoin:round;stroke-miterlimit:4;stroke-dasharray:none;stroke-opacity:1"
         d="m 86.841797,35.783203 c -3.975909,6.473842 4.289665,11.031173 7.580078,15.53125 3.400621,7.474876 12.881725,4.73149 19.013675,3.230469 3.85739,0.555106 11.29168,-0.631017 9.17773,-6.1875 -3.46644,-6.175946 -11.92234,-4.324289 -17.27791,-7.8452 -5.954858,-1.846195 -12.195118,-5.502641 -18.493573,-4.729019 z"
         id="path5329-5"
         inkscape:connector-curvature="0" />
      <path
         style="fill:#ffffff;stroke:#ffffff;stroke-width:11.10254669;stroke-linecap:round;stroke-linejoin:round;stroke-miterlimit:4;stroke-dasharray:none;stroke-opacity:1"
         d="m 107.22656,91.083984 c -4.95262,2.204229 -0.704,9.827636 4.17188,8.302735 7.66891,-1.862648 15.92784,1.348571 23.27929,-1.660157 4.07342,-3.255342 -1.38236,-9.079548 -5.65601,-6.878567 -7.26505,0.07866 -14.53011,0.157326 -21.79516,0.235989 z"
         id="path5331-3"
         inkscape:connector-curvature="0" />
      <path
         style="fill:#ffffff;stroke:#ffffff;stroke-width:12.12408829;stroke-linecap:round;stroke-linejoin:round;stroke-miterlimit:4;stroke-dasharray:none;stroke-opacity:1"
         d="m 128.08984,72.546875 c -7.77903,6.33219 -16.9604,11.435941 -23.85937,18.539063 0.40577,4.868767 6.78378,6.048421 9.63476,2.365234 5.15283,-5.688259 12.37982,-8.625659 17.92188,-13.751953 2.3993,-2.616928 0.0131,-8.442334 -3.69727,-7.152344 z"
         id="path5333-5"
         inkscape:connector-curvature="0" />
      <path
         style="fill:#ffffff;fill-opacity:1;stroke:#ffffff;stroke-width:12.12408829;stroke-linecap:round;stroke-linejoin:round;stroke-miterlimit:4;stroke-dasharray:none;stroke-opacity:1"
         d="m 112.52734,26.666016 c -8.10023,0.191362 -7.79152,14.134623 0.41407,13.738281 8.28085,1.030917 9.655,-13.029691 1.35742,-13.664063 -0.58494,-0.102927 -1.18062,-0.08853 -1.77149,-0.07422 z"
         id="path5339-6"
         inkscape:connector-curvature="0" />
      <path
         style="fill:#ffffff;stroke:#ffffff;stroke-width:12.12408829;stroke-linecap:round;stroke-linejoin:round;stroke-miterlimit:4;stroke-dasharray:none;stroke-opacity:1"
         d="m 124.83008,71.753906 c -6.70927,6.698937 -15.00018,12.260264 -20.75391,19.646485 1.06987,4.910111 7.69398,4.936069 10.17774,1.078125 4.53017,-6.433312 12.68839,-9.554457 16.47851,-16.449219 0.97681,-3.225296 -3.2835,-5.623388 -5.90234,-4.275391 z"
         id="path4057-2"
         inkscape:connector-curvature="0" />
      <path
         style="fill:#ffffff;stroke:#ffffff;stroke-width:8.76375294;stroke-linecap:round;stroke-linejoin:round;stroke-miterlimit:4;stroke-dasharray:none;stroke-opacity:1"
         d="m 86.992188,35.683594 c -4.229798,6.216826 3.79253,11.044245 7.199218,15.283203 3.591945,8.127618 13.345304,5.110514 20.105474,4.583984 3.87788,1.359961 10.81862,-0.998065 8.11523,-6.091797 -3.78664,-5.766061 -11.90751,-4.532742 -17.20899,-8.261718 -5.831294,-2.10866 -11.925589,-6.000453 -18.210932,-5.513672 z"
         id="path4059-9"
         inkscape:connector-curvature="0" />
    </g>
    <path
       inkscape:connector-curvature="0"
       style="fill:#d53b3b;fill-opacity:1;stroke:#5e8019;stroke-width:19.9469471;stroke-linecap:round;stroke-linejoin:round;stroke-miterlimit:4;stroke-dasharray:none;stroke-opacity:1"
       sodipodi:nodetypes="cc"
       id="path4817"
       d="M 51.066955,47.20516 56.10861,66.965367" />
    <path
       inkscape:connector-curvature="0"
       style="fill:none;stroke:#5e8019;stroke-width:8.76375294;stroke-linecap:round;stroke-linejoin:round;stroke-miterlimit:4;stroke-dasharray:none;stroke-opacity:1"
       sodipodi:nodetypes="ccc"
       id="path5329"
       d="M 49.692325,43.659168 30.31754,46.422817 18.964087,32.9044" />
    <path
       inkscape:connector-curvature="0"
       style="fill:none;stroke:#5e8019;stroke-width:11.10254669;stroke-linecap:round;stroke-linejoin:round;stroke-miterlimit:4;stroke-dasharray:none;stroke-opacity:1"
       sodipodi:nodetypes="cc"
       id="path5331"
       d="M 63.924514,88.634343 37.129507,88.924181" />
    <path
       inkscape:connector-curvature="0"
       style="fill:none;stroke:#5e8019;stroke-width:12.12408829;stroke-linecap:round;stroke-linejoin:round;stroke-miterlimit:4;stroke-dasharray:none;stroke-opacity:1"
       sodipodi:nodetypes="cc"
       id="path5333"
       d="M 60.332625,69.600951 37.274877,86.69232" />
    <path
       inkscape:connector-curvature="0"
       style="fill:#5e8019;fill-opacity:1;stroke:#5e8019;stroke-width:12.12408829;stroke-linecap:round;stroke-linejoin:round;stroke-miterlimit:4;stroke-dasharray:none;stroke-opacity:1"
       id="path5339"
       d="m 42.806257,24.508469 c -2.535483,0.115025 -3.53372,3.771841 -1.436545,5.166513 1.910137,1.5755 5.072084,-0.333963 4.553262,-2.772273 -0.228992,-1.461448 -1.640483,-2.559233 -3.116717,-2.39424 z" />
    <path
       inkscape:connector-curvature="0"
       style="fill:none;stroke:#5e8019;stroke-width:12.12408829;stroke-linecap:round;stroke-linejoin:round;stroke-miterlimit:4;stroke-dasharray:none;stroke-opacity:1"
       sodipodi:nodetypes="cc"
       id="path4057"
       d="M 58.111543,67.892431 37.274877,86.69232" />
    <path
       inkscape:connector-curvature="0"
       style="fill:none;stroke:#5e8019;stroke-width:8.76375294;stroke-linecap:round;stroke-linejoin:round;stroke-miterlimit:4;stroke-dasharray:none;stroke-opacity:1"
       sodipodi:nodetypes="ccc"
       id="path4059"
       d="M 49.692325,45.205546 30.31754,46.422817 18.964087,32.9044" />
  </g>
</svg>
