<?xml version="1.0" encoding="UTF-8" standalone="no"?>
<!-- Created with Inkscape (http://www.inkscape.org/) -->

<svg
   xmlns:dc="http://purl.org/dc/elements/1.1/"
   xmlns:cc="http://creativecommons.org/ns#"
   xmlns:rdf="http://www.w3.org/1999/02/22-rdf-syntax-ns#"
   xmlns:svg="http://www.w3.org/2000/svg"
   xmlns="http://www.w3.org/2000/svg"
   xmlns:sodipodi="http://sodipodi.sourceforge.net/DTD/sodipodi-0.dtd"
   xmlns:inkscape="http://www.inkscape.org/namespaces/inkscape"
   version="1.1"
   width="22"
   height="22"
   id="svg2"
   inkscape:version="0.91 r13725"
   sodipodi:docname="zoo.svg">
  <metadata
     id="metadata7">
    <rdf:RDF>
      <cc:Work
         rdf:about="">
        <dc:format>image/svg+xml</dc:format>
        <dc:type
           rdf:resource="http://purl.org/dc/dcmitype/StillImage" />
        <dc:title />
        <dc:description>jfitie@gmail.com</dc:description>
        <cc:license
           rdf:resource="http://creativecommons.org/publicdomain/zero/1.0/" />
      </cc:Work>
      <cc:License
         rdf:about="http://creativecommons.org/publicdomain/zero/1.0/">
        <cc:permits
           rdf:resource="http://creativecommons.org/ns#Reproduction" />
        <cc:permits
           rdf:resource="http://creativecommons.org/ns#Distribution" />
        <cc:permits
           rdf:resource="http://creativecommons.org/ns#DerivativeWorks" />
      </cc:License>
    </rdf:RDF>
  </metadata>
  <sodipodi:namedview
     pagecolor="#ff3dff"
     bordercolor="#666666"
     borderopacity="1"
     objecttolerance="10"
     gridtolerance="10"
     guidetolerance="10"
     inkscape:pageopacity="0"
     inkscape:pageshadow="2"
     inkscape:window-width="1440"
     inkscape:window-height="874"
     id="namedview5"
     showgrid="false"
     inkscape:zoom="10.429825"
     inkscape:cx="35.146017"
     inkscape:cy="27.691799"
     inkscape:window-x="0"
     inkscape:window-y="0"
     inkscape:window-maximized="1"
     inkscape:current-layer="svg2" />
  <defs
     id="defs6" />
  <path
     style="fill:#ffffff;stroke:#ffffff;stroke-width:0.07777303;stroke-linecap:butt;stroke-linejoin:miter;stroke-miterlimit:4;stroke-dasharray:none;stroke-opacity:1"
     d="M 9.3862449,2.9712792 C 7.6031713,3.114594 5.9487991,4.0126234 4.1665566,4.0721966 2.5037719,4.9223061 2.000941,6.9689898 1.6127257,8.6437203 1.3080715,10.335867 1.5628967,12.211022 1.9370338,13.773488 0.66748619,13.258437 -0.55293699,15.02055 0.35081056,16.049375 1.4306249,18.062501 4.8669449,17.280569 5.1497338,15.08707 5.3212764,13.884255 4.1561121,12.338849 5.3358124,11.442155 c 0.4048383,0.09045 1.0474319,-0.741101 0.9676076,-0.06722 0.028708,1.725505 -0.4552027,3.463657 -0.9611519,5.068625 -1.1175965,0.642583 -0.5375071,2.769823 0.8327957,2.44754 0.8461826,0.133004 2.1167568,-0.07892 2.161927,-1.153326 0.2813373,-0.902838 0.6322978,-2.111172 0.9919116,-2.784002 0.2302211,0.826067 0.5320327,1.678184 0.165192,2.489311 -0.1408565,0.94119 0.7940306,1.701048 1.6906546,1.450294 0.823908,0.163901 2.117978,-0.26663 1.838379,-1.326114 -0.230424,-1.459842 -0.238315,-2.976497 -0.02848,-4.461012 0.283291,0.198825 1.091365,-0.02609 0.803554,0.541912 -0.190606,1.222392 0.03507,2.513357 -0.584437,3.602383 -0.255469,0.938939 0.612347,1.890171 1.577488,1.650427 0.903915,0.178125 2.074825,-0.316359 1.95981,-1.392916 0.0831,-0.613262 0.195658,-1.84985 0.47288,-0.604989 -0.524028,0.971447 0.387506,2.333041 1.516729,2.009676 0.875214,0.154845 2.172369,-0.414378 1.793188,-1.489789 -0.181755,-1.118573 -0.556728,-2.4997 -0.486462,-3.469846 0.92395,0.781872 2.400336,-0.482185 1.756732,-1.531562 C 20.98629,10.345903 21.700646,7.8200123 20.299933,5.9147763 19.190443,3.7199798 16.54063,2.7945998 14.212059,3.2386184 12.73957,3.4575407 11.229367,3.3664209 9.7925803,2.9773504 9.6571261,2.9729503 9.521859,2.9649001 9.3862459,2.9712502 Z M 4.3864328,7.7672393 c -0.7735164,0.4573878 -0.8742661,0.3054369 0,0 z"
     id="path3793-6"
     inkscape:connector-curvature="0" />
  <path
     style="fill:#000000;stroke:none;stroke-width:0.40000001;stroke-linecap:butt;stroke-linejoin:miter;stroke-miterlimit:4;stroke-dasharray:none;stroke-opacity:1"
     d="m 9.3798352,3.8728347 c -0.075634,0.002 -0.1534341,0.009 -0.2362804,0.015 C 8.8638026,3.9082054 8.6699218,3.938196 7.7483739,4.19538 7.6049493,4.2354008 7.3932143,4.3122442 7.245809,4.3679043 6.1121174,4.7959876 5.2155439,4.8319903 4.7067303,4.8517247 4.4127175,4.8631249 4.0989251,5.0483575 3.9228789,5.2455314 3.7233704,5.4689827 3.5392732,5.7757436 3.3978112,6.0406468 3.2900741,6.2423967 3.1208611,6.4575199 3.0452656,6.6519856 2.7555522,7.3972591 2.6772918,7.5188774 2.478942,8.320978 2.428707,8.5241219 2.320984,9.5004009 2.2726654,9.6936766 c -0.062865,0.2514619 -0.00475,0.8818154 -0.0075,1.1476664 -0.00983,0.948606 0.1402839,1.666577 0.3187912,2.355345 0.071326,0.281236 0.1228654,0.55238 0.2137777,0.82512 0.038737,0.116213 0.1566598,0.304963 0.1950252,0.420061 0.063818,0.191451 0.100991,0.510339 -0.052507,0.66384 -0.057146,0.05715 -0.2132273,0.225032 -0.3112898,0.225032 -0.1086627,0 -0.2007404,-0.0089 -0.3000391,-0.03375 -0.081625,-0.02041 -0.3796952,-0.210122 -0.4950653,-0.468819 -0.078424,-0.17585 -0.2061411,-0.18791 -0.3750484,-0.213774 -0.1831734,-0.02805 -0.52260226,0.229569 -0.56632343,0.307545 -0.17923914,0.319664 -0.0527679,0.604153 0.16127103,0.88137 0.3570951,0.462499 0.5486543,0.648131 1.0501359,0.750109 0.085513,0.01738 0.6012493,0.04255 0.6863389,0 0.1607184,-0.08035 0.4911865,-0.152169 0.641333,-0.247535 0.3573682,-0.226979 0.6179355,-0.370518 0.8138552,-0.761354 0.079222,-0.158042 0.094015,-0.395579 0.1200157,-0.577586 0.038606,-0.270254 -0.088361,-0.538469 -0.1200157,-0.795114 -0.048839,-0.395973 -0.1522952,-0.65742 -0.1800234,-0.982644 -0.013653,-0.160139 -0.047602,-0.637868 -0.045006,-0.806372 0.00358,-0.232207 0.078391,-0.485091 0.1200155,-0.600084 0.2361289,-0.566306 0.5015109,-0.823432 0.9826271,-0.993894 0.1086504,-0.0385 0.2439281,-0.0038 0.3225418,-0.05626 0.056045,-0.03736 0.2957287,-0.123209 0.3337935,-0.161273 0.038045,-0.03805 0.06964,-0.06723 0.1050133,-0.09376 0.055075,-0.04131 0.2143136,-0.184425 0.3000388,-0.258787 0.039375,-0.03415 0.4030875,-0.2879008 0.4838127,-0.247536 0.3434372,0.072391 0.2583196,0.239586 0.2887872,0.461316 0.065546,0.420339 0.1088219,0.971365 0.1162652,1.200175 0.00605,0.18585 0.026172,0.401633 -0.018753,0.581335 -0.053982,1.168587 -0.3128731,2.2709 -0.6225808,3.352988 -0.1178496,0.411757 -0.2558253,0.97262 -0.3037892,1.263927 -0.07687,0.466867 -0.4313325,0.23629 -0.5438207,0.600088 -0.081462,0.263462 -0.1252911,0.690461 0.1312672,0.761363 0.2030748,0.05612 1.0235097,0.06717 1.3726776,0.01874 0.1124147,-0.01559 0.2490244,0.02567 0.3300429,-0.105014 0.050813,-0.08196 0.4563308,-1.385674 0.5025647,-1.541468 0.3241146,-1.092158 0.4416364,-1.239204 0.6863391,-1.909032 0.2807323,-0.680391 0.7602769,-1.573621 0.8138552,-2.816656 0.056379,0.310518 0.1603929,1.081276 0.2775359,1.432709 0.1566959,0.470098 0.1858602,0.794961 0.3000388,1.320192 0.2143177,0.985872 0.6991727,2.578118 0.5250687,2.636627 -0.362539,0.121843 -0.238142,0.608849 -0.213778,0.802616 0.02481,0.19737 0.289751,0.191284 0.720093,0.191284 0.118448,0 0.916992,0.01896 1.08014,-0.04126 0.235713,-0.08698 0.135386,-0.303404 0.131267,-0.386299 -0.02034,-0.409382 4.84e-4,-0.165889 -0.08626,-0.697604 -0.04858,-0.297762 -0.12128,-1.335697 -0.108764,-1.980285 0.01584,-0.816025 0.06376,-1.239036 0.213777,-2.134068 0,-0.128586 0.0434,-0.449523 -0.138768,-0.888875 1.007273,0.396481 1.478227,0.556692 2.614088,0.663843 -0.08482,0.694205 -0.218029,1.474788 -0.277536,2.134067 -0.02544,0.281849 -0.07416,0.818459 -0.07126,1.357696 0.0035,0.653075 -0.06646,0.941416 -0.138768,0.952639 -0.338802,0.05257 -0.316356,0.440141 -0.228779,0.870126 0.03823,0.187709 0.671969,0.155531 0.866362,0.161267 0.226084,0.0067 0.734788,0.03145 0.922619,-0.09376 0.08722,-0.05815 0.118965,-0.310223 0.127517,-0.397557 0.20759,-1.477344 0.49941,-2.966315 0.922619,-4.189366 0.02265,0.102411 0.235884,0.964846 0.300039,1.136422 0.20729,0.55436 0.247833,0.891621 0.491314,1.380199 0.123365,0.247549 0.103612,0.180953 0.195025,0.375056 0.131989,0.280252 0.134331,0.387462 0.191275,0.472569 0.171481,0.256249 -0.116507,0.363819 -0.15002,0.58883 -0.07501,0.503651 0.08573,0.644563 0.22503,0.708857 0.191526,0.08839 0.705659,0.01845 1.031383,0 0.325726,-0.01845 0.334612,0.02771 0.457559,-0.03376 0.06579,-0.0329 0.08715,-0.11643 0.161271,-0.150023 -0.0056,-0.627365 -0.02062,-0.729382 -0.09376,-0.97514 -0.322419,-1.083313 -0.701574,-3.24509 -0.225029,-5.464541 0.03356,-0.156301 0.252012,-1.012475 0.266284,-1.984036 0.294953,1.263381 0.05925,2.374151 0.750097,3.825551 0.112863,0.263953 0.71975,-0.04366 0.716342,-0.24378 -0.0021,-0.122442 -0.18367,-0.475761 -0.255032,-0.686355 C 20.56416,11.452507 20.562274,10.54786 20.522527,9.3186254 20.506434,8.8208267 20.39361,8.1538148 20.106222,7.4133494 19.758491,6.517399 19.18903,5.7906219 18.61728,5.1705239 18.305734,4.8326313 17.808716,4.5229853 16.922061,4.2403889 16.1153,4.0183085 15.413051,4.0633814 14.285469,4.1128704 c -0.420014,0.01843 -1.222875,0.1752324 -1.939,0.1687753 -0.215971,-0.0019 -0.474539,-0.02079 -0.697591,-0.026251 -0.772838,-0.01894 -1.13453,-0.413011 -2.2690428,-0.3825564 z"
     id="path3793"
     inkscape:connector-curvature="0"
     sodipodi:nodetypes="ccssssssssscsscscssssccsssssscsscssccccssssccsccssccscssscccssccccccssscscsscsscccsssscscsc" />
</svg>
