<?xml version="1.0" encoding="UTF-8" standalone="no"?>
<!-- Created with Inkscape (http://www.inkscape.org/) -->

<svg
   xmlns:dc="http://purl.org/dc/elements/1.1/"
   xmlns:cc="http://creativecommons.org/ns#"
   xmlns:rdf="http://www.w3.org/1999/02/22-rdf-syntax-ns#"
   xmlns:svg="http://www.w3.org/2000/svg"
   xmlns="http://www.w3.org/2000/svg"
   xmlns:sodipodi="http://sodipodi.sourceforge.net/DTD/sodipodi-0.dtd"
   xmlns:inkscape="http://www.inkscape.org/namespaces/inkscape"
   width="48"
   height="48"
   id="svg2"
   version="1.1"
   inkscape:version="0.48.3.1 r9886"
   sodipodi:docname="set_center_cursor.svg"
   inkscape:export-filename="/home/michael/src/navit-artwork/set_center_cursor.png"
   inkscape:export-xdpi="134.99994"
   inkscape:export-ydpi="134.99994">
  <defs
     id="defs4">
    <clipPath
       clipPathUnits="userSpaceOnUse"
       id="clipPath428">
      <path
         inkscape:connector-curvature="0"
         d="M 0,96 96,96 96,0 0,0 0,96 z"
         id="path430" />
    </clipPath>
    <clipPath
       clipPathUnits="userSpaceOnUse"
       id="clipPath416">
      <path
         inkscape:connector-curvature="0"
         d="M 0,96 96,96 96,0 0,0 0,96 z"
         id="path418" />
    </clipPath>
    <clipPath
       clipPathUnits="userSpaceOnUse"
       id="clipPath544">
      <path
         inkscape:connector-curvature="0"
         d="M 0,96 96,96 96,0 0,0 0,96 z"
         id="path546" />
    </clipPath>
  </defs>
  <sodipodi:namedview
     id="base"
     pagecolor="#ffffff"
     bordercolor="#666666"
     borderopacity="1.0"
     inkscape:pageopacity="0.0"
     inkscape:pageshadow="2"
     inkscape:zoom="15.8125"
     inkscape:cx="21.280633"
     inkscape:cy="24"
     inkscape:document-units="px"
     inkscape:current-layer="layer1"
     showgrid="true"
     showguides="true"
     inkscape:guide-bbox="true"
     inkscape:window-width="1280"
     inkscape:window-height="955"
     inkscape:window-x="0"
     inkscape:window-y="24"
     inkscape:window-maximized="1">
    <sodipodi:guide
       orientation="0,1"
       position="0,40"
       id="guide2985" />
    <sodipodi:guide
       orientation="0,1"
       position="0,8"
       id="guide2987" />
    <sodipodi:guide
       orientation="1,0"
       position="8,0"
       id="guide2989" />
    <sodipodi:guide
       orientation="1,0"
       position="40,0"
       id="guide2991" />
    <inkscape:grid
       type="xygrid"
       id="grid3763"
       empspacing="5"
       visible="true"
       enabled="true"
       snapvisiblegridlinesonly="true" />
  </sodipodi:namedview>
  <metadata
     id="metadata7">
    <rdf:RDF>
      <cc:Work
         rdf:about="">
        <dc:format>image/svg+xml</dc:format>
        <dc:type
           rdf:resource="http://purl.org/dc/dcmitype/StillImage" />
        <dc:title></dc:title>
      </cc:Work>
    </rdf:RDF>
  </metadata>
  <g
     inkscape:label="Layer 1"
     inkscape:groupmode="layer"
     id="layer1"
     transform="translate(0,-1004.3622)">
    <rect
       style="fill:#000000;fill-opacity:0.62745098;stroke:none"
       id="rect2993"
       width="48"
       height="48.000019"
       x="3.5527137e-15"
       y="1004.3622"
       rx="4" />
    <g
       transform="matrix(0.49591559,0,0,-0.49591559,0.00568833,1051.552)"
       id="g4057"
       style="fill:#ffffff;fill-opacity:1">
      <g
         transform="translate(40.916449,57.878561)"
         id="g1386"
         style="fill:#ffffff;fill-opacity:1">
        <path
           inkscape:connector-curvature="0"
           id="path1388"
           style="fill:#ffffff;fill-opacity:1;fill-rule:nonzero;stroke:none"
           d="m 0,0 0,13.301 -4.16,0 0,-13.301 -13.103,0 0,-4.162 13.103,0 0,-13.296 4.16,0 0,13.296 13.105,0 0,4.162 L 0,0 z" />
      </g>
      <path
         d="m 26.293557,43.115008 c -7.104,7.11 -7.104,18.632 0,25.736 7.109,7.109 18.622,7.103 25.735,0 7.103,-7.104 7.103,-18.622 0,-25.736 -7.113,-7.104 -18.631,-7.104 -25.735,0 m 53.584,-18.533 -12.164,12.168 c -1.07,1.068 -3.007,0.967 -4.95,-0.045 l -5.307,5.305 c 6.914,9.033 6.261,22.002 -2.003,30.268 -8.999,8.995 -23.587,8.995 -32.587,0 -8.995,-9 -8.995,-23.588 0,-32.588 8.268,-8.264 21.237,-8.917 30.269,-2.001 l 5.307,-5.303 c -1.012,-1.947 -1.115,-3.882 -0.047,-4.953 l 12.166,-12.168 c 1.537,-1.535 4.874,-0.691 7.441,1.883 2.571,2.568 3.415,5.899 1.875,7.434"
         style="fill:#ffffff;fill-opacity:1;fill-rule:nonzero;stroke:none"
         id="path1540"
         inkscape:connector-curvature="0" />
    </g>
  </g>
</svg>
