<?xml version="1.0" encoding="UTF-8" standalone="no"?>
<!-- Created with Inkscape (http://www.inkscape.org/) -->

<svg
   xmlns:dc="http://purl.org/dc/elements/1.1/"
   xmlns:cc="http://creativecommons.org/ns#"
   xmlns:rdf="http://www.w3.org/1999/02/22-rdf-syntax-ns#"
   xmlns:svg="http://www.w3.org/2000/svg"
   xmlns="http://www.w3.org/2000/svg"
   xmlns:sodipodi="http://sodipodi.sourceforge.net/DTD/sodipodi-0.dtd"
   xmlns:inkscape="http://www.inkscape.org/namespaces/inkscape"
   width="48"
   height="48"
   id="svg2"
   version="1.1"
   inkscape:version="0.92.3 (2405546, 2018-03-11)"
   sodipodi:docname="zoom_in.svg"
   inkscape:export-filename="/home/michael/src/navit-artwork/set_center_cursor.png"
   inkscape:export-xdpi="134.99994"
   inkscape:export-ydpi="134.99994">
  <defs
     id="defs4">
    <clipPath
       clipPathUnits="userSpaceOnUse"
       id="clipPath428">
      <path
         inkscape:connector-curvature="0"
         d="M 0,96 96,96 96,0 0,0 0,96 z"
         id="path430" />
    </clipPath>
    <clipPath
       clipPathUnits="userSpaceOnUse"
       id="clipPath416">
      <path
         inkscape:connector-curvature="0"
         d="M 0,96 96,96 96,0 0,0 0,96 z"
         id="path418" />
    </clipPath>
    <clipPath
       clipPathUnits="userSpaceOnUse"
       id="clipPath544">
      <path
         inkscape:connector-curvature="0"
         d="M 0,96 96,96 96,0 0,0 0,96 z"
         id="path546" />
    </clipPath>
  </defs>
  <sodipodi:namedview
     id="base"
     pagecolor="#ffffff"
     bordercolor="#666666"
     borderopacity="1.0"
     inkscape:pageopacity="0.0"
     inkscape:pageshadow="2"
     inkscape:zoom="15.8125"
     inkscape:cx="9.2964433"
     inkscape:cy="24"
     inkscape:document-units="px"
     inkscape:current-layer="layer1"
     showgrid="true"
     showguides="true"
     inkscape:guide-bbox="true"
     inkscape:window-width="1920"
     inkscape:window-height="1000"
     inkscape:window-x="0"
     inkscape:window-y="24"
     inkscape:window-maximized="1"
     inkscape:object-nodes="false"
     inkscape:snap-bbox="true"
     inkscape:bbox-nodes="true">
    <sodipodi:guide
       orientation="0,1"
       position="0,40"
       id="guide2985"
       inkscape:locked="false" />
    <sodipodi:guide
       orientation="0,1"
       position="0,8"
       id="guide2987"
       inkscape:locked="false" />
    <sodipodi:guide
       orientation="1,0"
       position="8,0"
       id="guide2989"
       inkscape:locked="false" />
    <sodipodi:guide
       orientation="1,0"
       position="40,0"
       id="guide2991"
       inkscape:locked="false" />
    <inkscape:grid
       type="xygrid"
       id="grid3763"
       empspacing="5"
       visible="true"
       enabled="true"
       snapvisiblegridlinesonly="true" />
  </sodipodi:namedview>
  <metadata
     id="metadata7">
    <rdf:RDF>
      <cc:Work
         rdf:about="">
        <dc:format>image/svg+xml</dc:format>
        <dc:type
           rdf:resource="http://purl.org/dc/dcmitype/StillImage" />
        <dc:title />
      </cc:Work>
    </rdf:RDF>
  </metadata>
  <g
     inkscape:label="Layer 1"
     inkscape:groupmode="layer"
     id="layer1"
     transform="translate(0,-1004.3622)">
    <rect
       style="fill:#000000;fill-opacity:0.62745098;stroke:none"
       id="rect2993"
       width="48"
       height="48.000019"
       x="3.5527137e-15"
       y="1004.3622"
       rx="4" />
    <path
       inkscape:connector-curvature="0"
       d="m 30.870212,1032.488 h -1.445398 l -0.512293,-0.494 c 1.793025,-2.0858 2.872499,-4.7936 2.872499,-7.7393 0,-6.5683 -5.324185,-11.8925 -11.89251,-11.8925 -6.568325,0 -11.89251,5.3242 -11.89251,11.8925 0,6.5683 5.324185,11.8925 11.89251,11.8925 2.945683,0 5.653516,-1.0795 7.73928,-2.8725 l 0.493996,0.5123 v 1.4454 l 9.148085,9.1298 L 40,1041.6361 Z m -10.977702,0 c -4.555746,0 -8.233276,-3.6775 -8.233276,-8.2333 0,-4.5557 3.67753,-8.2333 8.233276,-8.2333 4.555746,0 8.233276,3.6776 8.233276,8.2333 0,4.5558 -3.67753,8.2333 -8.233276,8.2333 z m 4.574042,-7.3185 h -3.659234 v 3.6593 h -1.829616 v -3.6593 h -3.659234 v -1.8296 h 3.659234 v -3.6592 h 1.829616 v 3.6592 h 3.659234 z"
       id="path2"
       style="stroke-width:1.8296169;fill:#ffffff" />
  </g>
</svg>
