/* XPM */
static char *dummy[]={
"16 16 44 1",
". c None",
"m c #000000",
"b c #010101",
"z c #020202",
"e c #030303",
"c c #040404",
"h c #050505",
"d c #060606",
"w c #090909",
"t c #0a0a0a",
"q c #0b0b0b",
"x c #0c0c0c",
"v c #0d0d0d",
"J c #111111",
"n c #151515",
"K c #181818",
"a c #191919",
"I c #333333",
"C c #363636",
"i c #545454",
"g c #5d5d5d",
"r c #606060",
"H c #666666",
"D c #6a6a6a",
"l c #6c6c6c",
"j c #707070",
"E c #737373",
"y c #747474",
"B c #797979",
"p c #7c7c7c",
"u c #858585",
"M c #878787",
"G c #888888",
"P c #8a8a8a",
"s c #8b8b8b",
"O c #909090",
"L c #949494",
"# c #a0a0a0",
"F c #a2a2a2",
"f c #a3a3a3",
"A c #a4a4a4",
"o c #a5a5a5",
"k c #a7a7a7",
"N c #a8a8a8",
".......##.......",
".......aa.......",
".......bb.......",
".......cd.......",
".......ee.......",
".......ce.......",
".....fghhij.....",
"...klhmmmmcno...",
"..pmmmmmmmmmqr..",
"stmmmmcmeccmmmnu",
"vmwxyf.zz.ABahmC",
"DEF....dm....GyH",
".......cc.......",
".....oIbbJA.....",
".....Kmeemm.....",
".....LMkNOP....."};
