/* XPM */
static char * attraction_xpm[] = {
"16 16 122 2",
"  	c None",
". 	c #CC1400",
"+ 	c #AE1100",
"@ 	c #FB1800",
"# 	c #BA1200",
"$ 	c #FF1900",
"% 	c #F61800",
"& 	c #DA1500",
"* 	c #DE1500",
"= 	c #E51600",
"- 	c #C31300",
"; 	c #810C00",
"> 	c #F01700",
", 	c #FE1800",
"' 	c #8B0D00",
") 	c #8D0D00",
"! 	c #D21400",
"~ 	c #BB1200",
"{ 	c #9D0F00",
"] 	c #B21100",
"^ 	c #AF1100",
"/ 	c #AC1000",
"( 	c #D61500",
"_ 	c #8C0D00",
": 	c #C11200",
"< 	c #D71500",
"[ 	c #9F0F00",
"} 	c #D31400",
"| 	c #C71300",
"1 	c #920E00",
"2 	c #F81800",
"3 	c #CD1400",
"4 	c #EE1700",
"5 	c #DC1500",
"6 	c #F71800",
"7 	c #840D00",
"8 	c #B31100",
"9 	c #E61600",
"0 	c #A41000",
"a 	c #970E00",
"b 	c #8A0D00",
"c 	c #B61100",
"d 	c #D11400",
"e 	c #990F00",
"f 	c #8E0D00",
"g 	c #C81300",
"h 	c #EB1700",
"i 	c #E41600",
"j 	c #E71600",
"k 	c #B91200",
"l 	c #B81200",
"m 	c #EC1700",
"n 	c #C61300",
"o 	c #950E00",
"p 	c #E01600",
"q 	c #DB1500",
"r 	c #9C0F00",
"s 	c #AA1000",
"t 	c #C01200",
"u 	c #FA1800",
"v 	c #E31600",
"w 	c #DF1500",
"x 	c #F91800",
"y 	c #940E00",
"z 	c #F31700",
"A 	c #EF1700",
"B 	c #D51400",
"C 	c #B11100",
"D 	c #890D00",
"E 	c #A10F00",
"F 	c #840C00",
"G 	c #F11700",
"H 	c #930E00",
"I 	c #BE1200",
"J 	c #FC1800",
"K 	c #850D00",
"L 	c #F51800",
"M 	c #860D00",
"N 	c #DD1500",
"O 	c #A91000",
"P 	c #EA1700",
"Q 	c #E81600",
"R 	c #FD1800",
"S 	c #A61000",
"T 	c #F41700",
"U 	c #E11600",
"V 	c #B41100",
"W 	c #A00F00",
"X 	c #D91500",
"Y 	c #F21700",
"Z 	c #C91300",
"` 	c #960E00",
" .	c #CF1400",
"..	c #980E00",
"+.	c #D41400",
"@.	c #820C00",
"#.	c #A20F00",
"$.	c #D61400",
"%.	c #BF1200",
"&.	c #830C00",
"*.	c #9A0F00",
"=.	c #D01400",
"-.	c #A71000",
";.	c #CA1300",
">.	c #B51100",
",.	c #EA1600",
"'.	c #E21600",
").	c #E91600",
"!.	c #A81000",
"~.	c #B01100",
"{.	c #F41800",
"].	c #8E0E00",
"^.	c #CB1300",
"/.	c #ED1700",
"(.	c #D81500",
"_.	c #C51300",
":.	c #AD1100",
"<.	c #BD1200",
"[.	c #CE1400",
"}.	c #C21300",
"|.	c #910E00",
"1.	c #C41300",
"                                ",
"              $ {               ",
"              $ $               ",
"              $ $               ",
"              $ $               ",
"            $ $ $ $             ",
"$ $ $ $ $ $ $ $ $ $ $ $ $ $ $   ",
"    $ $ $ $ $ $ $ $ $ $ $ $     ",
"      $ $ $ $ $ $ $ $ $ $       ",
"        $ $ $ $ $ $ $ $         ",
"          $ $ $ $ $ $           ",
"        $ $ $ $ $ $ $ $         ",
"        $ $ $   $ $ $ $         ",
"        $ $         $ $         ",
"      $ $             $         ",
"      $                 $       "};
