/* XPM */
static char * bench_xpm[] = {
"10 14 3 1",
" 	c None",
".	c #FFFFFF",
"+	c #000000",
".........+",
".........+",
"........++",
"........++",
"........+.",
".......++.",
"+++++++++.",
"++++++++..",
"++.....+..",
"++.....+..",
"++.....+..",
"++.....+..",
"++.....+..",
"++.....+.."};
