<?xml version="1.0" encoding="UTF-8" standalone="no"?>
<!-- Created with Inkscape (http://www.inkscape.org/) -->

<svg
   xmlns:dc="http://purl.org/dc/elements/1.1/"
   xmlns:cc="http://creativecommons.org/ns#"
   xmlns:rdf="http://www.w3.org/1999/02/22-rdf-syntax-ns#"
   xmlns:svg="http://www.w3.org/2000/svg"
   xmlns="http://www.w3.org/2000/svg"
   xmlns:sodipodi="http://sodipodi.sourceforge.net/DTD/sodipodi-0.dtd"
   xmlns:inkscape="http://www.inkscape.org/namespaces/inkscape"
   height="100"
   id="svg2"
   inkscape:output_extension="org.inkscape.output.svg.inkscape"
   inkscape:version="0.91 r13725"
   sodipodi:docname="bicycle_shop.svg"
   sodipodi:version="0.32"
   version="1.0"
   width="100">
  <metadata
     id="metadata10">
    <rdf:RDF>
      <cc:Work
         rdf:about="">
        <dc:format>image/svg+xml</dc:format>
        <dc:type
           rdf:resource="http://purl.org/dc/dcmitype/StillImage" />
        <cc:license
           rdf:resource="http://creativecommons.org/publicdomain/zero/1.0/" />
        <dc:language>en</dc:language>
        <dc:title />
        <dc:description>jfitie@gmail.com</dc:description>
      </cc:Work>
      <cc:License
         rdf:about="http://creativecommons.org/publicdomain/zero/1.0/">
        <cc:permits
           rdf:resource="http://creativecommons.org/ns#Reproduction" />
        <cc:permits
           rdf:resource="http://creativecommons.org/ns#Distribution" />
        <cc:permits
           rdf:resource="http://creativecommons.org/ns#DerivativeWorks" />
      </cc:License>
    </rdf:RDF>
  </metadata>
  <sodipodi:namedview
     bordercolor="#666666"
     borderopacity="1.0"
     gridtolerance="10.0"
     guidetolerance="10.0"
     id="base"
     inkscape:current-layer="svg2"
     inkscape:cx="22.744221"
     inkscape:cy="49.511077"
     inkscape:pageopacity="0"
     inkscape:pageshadow="2"
     inkscape:window-height="874"
     inkscape:window-width="1440"
     inkscape:window-x="0"
     inkscape:window-y="0"
     inkscape:zoom="2.8284271"
     objecttolerance="10.0"
     pagecolor="#ff00ff"
     showgrid="false"
     inkscape:window-maximized="1" />
  <defs
     id="defs4">
    <inkscape:perspective
       id="perspective12"
       inkscape:persp3d-origin="290 : 193.33333 : 1"
       inkscape:vp_x="0 : 290 : 1"
       inkscape:vp_y="0 : 1000 : 0"
       inkscape:vp_z="580 : 290 : 1"
       sodipodi:type="inkscape:persp3d" />
    <style
       id="style6"
       type="text/css">
    .fil0 {fill:#EF7900}
  </style>
    <inkscape:perspective
       id="perspective6807"
       inkscape:persp3d-origin="29.116032 : 19.410688 : 1"
       inkscape:vp_x="0 : 29.116032 : 1"
       inkscape:vp_y="0 : 1000 : 0"
       inkscape:vp_z="58.232063 : 29.116032 : 1"
       sodipodi:type="inkscape:persp3d" />
    <inkscape:perspective
       id="perspective6954"
       inkscape:persp3d-origin="290 : 193.33333 : 1"
       inkscape:vp_x="0 : 290 : 1"
       inkscape:vp_y="0 : 1000 : 0"
       inkscape:vp_z="580 : 290 : 1"
       sodipodi:type="inkscape:persp3d" />
    <marker
       id="ArrowStart"
       markerHeight="3"
       markerUnits="strokeWidth"
       markerWidth="4"
       orient="auto"
       refX="10"
       refY="5"
       viewBox="0 0 10 10">
      <path
         d="M 10,0 0,5 10,10 Z"
         id="path2295"
         inkscape:connector-curvature="0" />
    </marker>
    <marker
       id="ArrowEnd"
       markerHeight="3"
       markerUnits="strokeWidth"
       markerWidth="4"
       orient="auto"
       refX="0"
       refY="5"
       viewBox="0 0 10 10">
      <path
         d="M 0,0 10,5 0,10 Z"
         id="path2292"
         inkscape:connector-curvature="0" />
    </marker>
    <inkscape:perspective
       id="perspective7597"
       inkscape:persp3d-origin="178.5405 : 158.483 : 1"
       inkscape:vp_x="0 : 237.7245 : 1"
       inkscape:vp_y="0 : 1000 : 0"
       inkscape:vp_z="357.08099 : 237.7245 : 1"
       sodipodi:type="inkscape:persp3d" />
  </defs>
  <ellipse
     id="FrontWheel-1"
     style="fill:none;stroke:#ffffff;stroke-width:10;stroke-miterlimit:4;stroke-dasharray:none;stroke-opacity:1"
     cx="-78.211494"
     cy="62.709953"
     rx="15.798439"
     ry="18.299984"
     transform="scale(-1,1)" />
  <ellipse
     id="RearWheel-8"
     style="fill:none;stroke:#ffffff;stroke-width:10;stroke-miterlimit:4;stroke-dasharray:none;stroke-opacity:1"
     cx="-21.788502"
     cy="62.368954"
     rx="15.798439"
     ry="18.299984"
     transform="scale(-1,1)" />
  <path
     style="fill:#ffffff;fill-opacity:1;fill-rule:evenodd;stroke:#ffffff;stroke-width:0.10561037;stroke-opacity:1"
     d="m 59.234375,15.931641 c -2.908782,-0.401014 -5.499985,-0.04147 -4.480469,3.732421 -0.333614,4.072245 3.880133,5.274858 6.69336,6.892579 -5.706388,1.57438 -12.472992,2.818519 -18.083985,0.115234 4.155789,-2.977535 0.231237,-7.865231 -3.787109,-6.904297 -4.51632,1.028568 -9.774223,-0.77222 -13.847656,0.960938 -2.775036,3.245053 -0.305694,9.544977 4.476562,8.195312 -1.755884,8.174018 -6.092215,15.465865 -8.476562,23.433594 -1.646345,4.544525 -6.577804,11.065067 -2.492188,15.435547 6.329037,2.367025 13.343275,-0.590941 19.955078,0.777343 6.226079,0.972951 12.842057,-0.929925 15.837891,-6.875 4.7652,-6.061397 9.00409,-12.522621 13.962891,-18.435546 3.413973,7.466366 2.179498,17.217698 8.255859,23.224609 5.241555,0.787198 5.971625,-6.243256 3.587891,-9.542969 C 76.797276,44.09887 75.550811,29.916316 68.898438,18.148438 66.240512,15.891455 62.522783,15.919916 59.234375,15.931641 Z M 46.490234,36.345703 c 5.958985,0.0129 11.917972,0.0246 17.876954,0.03906 -5.917986,7.469903 -11.83578,14.939959 -17.75586,22.408203 1.659679,-7.25543 -5.170827,-12.921856 -4.230469,-19.892578 0.550734,-1.744634 2.375112,-2.610855 4.109375,-2.554688 z m -10.625,10.607422 c -0.02376,4.097856 7.62594,13.634185 1.1875,13.185547 -3.482847,0.398333 -7.272806,0.780972 -10.822265,-0.320313 4.352378,-5.379492 5.342006,-12.342802 7.738281,-18.626953 0.632161,1.920573 1.264323,3.841146 1.896484,5.761719 z"
     id="Frame-7"
     inkscape:connector-curvature="0" />
  <path
     inkscape:connector-curvature="0"
     style="fill:#ad30c0;stroke:none;marker-mid:"
     id="path2323"
     d="" />
  <path
     inkscape:connector-curvature="0"
     style="fill:#ad30c0;stroke:none;marker-mid:"
     id="path2329"
     d="" />
  <g
     id="g4349"
     transform="matrix(0.99834409,0,0,0.99834366,0.0990243,0.562193)">
    <ellipse
       ry="18.330345"
       rx="15.824643"
       transform="scale(-1,1)"
       cy="62.095139"
       cx="-78.181404"
       style="fill:none;stroke:#ad30c0;stroke-width:4.2314229px;stroke-opacity:1"
       id="FrontWheel" />
    <ellipse
       ry="18.330345"
       rx="15.824643"
       transform="scale(-1,1)"
       cy="61.753578"
       cx="-21.664818"
       style="fill:none;stroke:#ad30c0;stroke-width:4.2314229px;stroke-opacity:1"
       id="RearWheel" />
    <path
       inkscape:connector-curvature="0"
       style="fill:#ad30c0;fill-opacity:1;fill-rule:evenodd;stroke:#000000;stroke-width:0.10578556;stroke-opacity:1"
       id="Frame"
       d="m 57.099795,17.290206 c 13.029919,0.147107 10.820167,-1.559325 17.830416,24.537324 5.710879,20.851203 5.088826,18.577303 5.118694,20.039902 0.02093,1.136279 -0.770919,2.037186 -1.765965,2.114301 C 76.213587,63.739366 77.084004,64.240974 69.909585,38.43428 43.694525,70.467485 53.52976,65.272999 39.421774,65.923535 20.880171,65.717587 19.373136,67.041543 19.153008,63.893469 c 0.0254,-1.068974 0.45719,-1.706434 13.182316,-34.511127 l -1.219172,-3.883606 -4.190911,-0.08826 0.152397,-4.060132 15.620664,0 c 1.380038,2.18698 -0.558788,2.177172 -7.543638,3.97187 l 1.219174,3.971867 31.165132,0.08827 C 65.439282,20.889407 66.624589,21.418988 57.175992,21.438603 l -0.0762,-4.148397 z M 68.4395,33.735488 37.943802,33.672855 46.757274,61.105666 68.4395,33.735488 Z m -34.172483,1.628431 8.651261,26.305436 -18.924635,0.06263 10.273374,-26.368067 z" />
  </g>
  <path
     inkscape:connector-curvature="0"
     style="fill:#ad30c0;stroke:none;marker-mid:"
     id="path2323-6"
     d="" />
  <path
     inkscape:connector-curvature="0"
     style="fill:#ad30c0;stroke:none;marker-mid:"
     id="path2329-5"
     d="" />
  <path
     inkscape:connector-curvature="0"
     style="fill:#ad30c0;stroke:none;marker-end:"
     id="path2323-9"
     d="" />
  <path
     inkscape:connector-curvature="0"
     style="fill:#ad30c0;stroke:none;marker-end:"
     id="path2329-2"
     d="" />
  <path
     inkscape:connector-curvature="0"
     style="fill:#ad30c0;stroke:none;marker-end:"
     id="path2323-6-6"
     d="" />
  <path
     inkscape:connector-curvature="0"
     style="fill:#ad30c0;stroke:none;marker-end:"
     id="path2329-5-6"
     d="" />
</svg>
