<?xml version="1.0" encoding="UTF-8" standalone="no"?>
<!-- Created with Inkscape (http://www.inkscape.org/) -->

<svg
   xmlns:dc="http://purl.org/dc/elements/1.1/"
   xmlns:cc="http://creativecommons.org/ns#"
   xmlns:rdf="http://www.w3.org/1999/02/22-rdf-syntax-ns#"
   xmlns:svg="http://www.w3.org/2000/svg"
   xmlns="http://www.w3.org/2000/svg"
   xmlns:sodipodi="http://sodipodi.sourceforge.net/DTD/sodipodi-0.dtd"
   xmlns:inkscape="http://www.inkscape.org/namespaces/inkscape"
   height="100"
   id="svg2"
   inkscape:output_extension="org.inkscape.output.svg.inkscape"
   inkscape:version="0.91 r13725"
   sodipodi:docname="bicycle_shop.svg"
   sodipodi:version="0.32"
   version="1.0"
   width="100">
  <metadata
     id="metadata10">
    <rdf:RDF>
      <cc:Work
         rdf:about="">
        <dc:format>image/svg+xml</dc:format>
        <dc:type
           rdf:resource="http://purl.org/dc/dcmitype/StillImage" />
        <cc:license
           rdf:resource="http://creativecommons.org/publicdomain/zero/1.0/" />
        <dc:language>en</dc:language>
        <dc:title />
        <dc:description>jfitie@gmail.com</dc:description>
      </cc:Work>
      <cc:License
         rdf:about="http://creativecommons.org/publicdomain/zero/1.0/">
        <cc:permits
           rdf:resource="http://creativecommons.org/ns#Reproduction" />
        <cc:permits
           rdf:resource="http://creativecommons.org/ns#Distribution" />
        <cc:permits
           rdf:resource="http://creativecommons.org/ns#DerivativeWorks" />
      </cc:License>
    </rdf:RDF>
  </metadata>
  <sodipodi:namedview
     bordercolor="#666666"
     borderopacity="1.0"
     gridtolerance="10.0"
     guidetolerance="10.0"
     id="base"
     inkscape:current-layer="svg2"
     inkscape:cx="21.649725"
     inkscape:cy="55.863235"
     inkscape:pageopacity="0"
     inkscape:pageshadow="2"
     inkscape:window-height="1054"
     inkscape:window-width="1920"
     inkscape:window-x="0"
     inkscape:window-y="0"
     inkscape:zoom="4"
     objecttolerance="10.0"
     pagecolor="#ff00ff"
     showgrid="false"
     inkscape:window-maximized="1" />
  <defs
     id="defs4">
    <inkscape:perspective
       id="perspective12"
       inkscape:persp3d-origin="290 : 193.33333 : 1"
       inkscape:vp_x="0 : 290 : 1"
       inkscape:vp_y="0 : 1000 : 0"
       inkscape:vp_z="580 : 290 : 1"
       sodipodi:type="inkscape:persp3d" />
    <style
       id="style6"
       type="text/css">
    .fil0 {fill:#EF7900}
  </style>
    <inkscape:perspective
       id="perspective6807"
       inkscape:persp3d-origin="29.116032 : 19.410688 : 1"
       inkscape:vp_x="0 : 29.116032 : 1"
       inkscape:vp_y="0 : 1000 : 0"
       inkscape:vp_z="58.232063 : 29.116032 : 1"
       sodipodi:type="inkscape:persp3d" />
    <inkscape:perspective
       id="perspective6954"
       inkscape:persp3d-origin="290 : 193.33333 : 1"
       inkscape:vp_x="0 : 290 : 1"
       inkscape:vp_y="0 : 1000 : 0"
       inkscape:vp_z="580 : 290 : 1"
       sodipodi:type="inkscape:persp3d" />
    <marker
       id="ArrowStart"
       markerHeight="3"
       markerUnits="strokeWidth"
       markerWidth="4"
       orient="auto"
       refX="10"
       refY="5"
       viewBox="0 0 10 10">
      <path
         d="M 10,0 0,5 10,10 Z"
         id="path2295"
         inkscape:connector-curvature="0" />
    </marker>
    <marker
       id="ArrowEnd"
       markerHeight="3"
       markerUnits="strokeWidth"
       markerWidth="4"
       orient="auto"
       refX="0"
       refY="5"
       viewBox="0 0 10 10">
      <path
         d="M 0,0 10,5 0,10 Z"
         id="path2292"
         inkscape:connector-curvature="0" />
    </marker>
    <inkscape:perspective
       id="perspective7597"
       inkscape:persp3d-origin="178.5405 : 158.483 : 1"
       inkscape:vp_x="0 : 237.7245 : 1"
       inkscape:vp_y="0 : 1000 : 0"
       inkscape:vp_z="357.08099 : 237.7245 : 1"
       sodipodi:type="inkscape:persp3d" />
  </defs>
  <g
     id="g4354"
     transform="translate(119,-84.250001)">
    <ellipse
       transform="scale(-1,1)"
       ry="18.330345"
       rx="15.824643"
       cy="146.50087"
       cx="40.68462"
       style="fill:none;stroke:#ffffff;stroke-width:8;stroke-miterlimit:4;stroke-dasharray:none;stroke-opacity:1"
       id="FrontWheel-1" />
    <ellipse
       transform="scale(-1,1)"
       ry="18.330345"
       rx="15.824643"
       cy="146.1593"
       cx="97.201202"
       style="fill:none;stroke:#ffffff;stroke-width:8;stroke-miterlimit:4;stroke-dasharray:none;stroke-opacity:1"
       id="RearWheel-8" />
    <path
       inkscape:connector-curvature="0"
       id="Frame-7"
       d="m -63.765625,101.73242 c -1.63508,6.20741 2.261783,6.59529 7.228516,6.14453 2.520867,-0.68948 3.88364,5.48681 0.677742,3.89674 -8.289224,-0.41028 -17.712502,0.70961 -25.322274,-0.61744 2.896212,-0.47395 9.125852,-1.70757 6.970703,-6.00391 -3.626667,-3.37263 -10.951126,-0.39311 -15.957031,-1.39648 -5.318993,-2.36571 -5.93911,10.96039 0.185095,8.10309 2.760596,4.28251 -3.487574,11.40731 -4.468335,16.76927 -1.956662,6.93278 -6.609651,13.41669 -7.158171,20.61787 1.749964,5.48978 9.399555,2.26448 13.455083,3.08985 6.318583,-0.8079 13.312395,1.41397 19.263672,-1.18555 7.185519,-7.23853 12.231779,-16.40791 19.039063,-24.03711 2.617196,7.31003 3.041642,15.63722 6.859374,22.41602 3.355841,2.81913 7.489474,-1.68299 5.994141,-5.20899 -3.851719,-13.21033 -6.490121,-26.83417 -11.123047,-39.78906 -2.498347,-6.21065 -10.455581,-4.649032 -15.68164,-4.847656 0.01237,0.682946 0.02474,1.365886 0.03711,2.048826 z m 9.208984,18.40039 c -5.598307,7.06641 -11.196614,14.13281 -16.794921,21.19922 -2.275391,-7.08268 -4.550782,-14.16536 -6.826172,-21.24805 7.873698,0.0163 15.747395,0.0326 23.621093,0.0488 z m -24.152343,23.95117 c -4.437417,-1.1058 -17.010028,3.36924 -11.419358,-4.61597 2.19827,-3.0349 4.731583,-18.53924 6.618349,-9.98076 1.600336,4.86558 3.200673,9.73115 4.801009,14.59673 z"
       style="fill:#ffffff;fill-opacity:1;fill-rule:evenodd;stroke:#ffffff;stroke-width:0.10578556;stroke-opacity:1" />
  </g>
  <path
     inkscape:connector-curvature="0"
     style="fill:#ad30c0;stroke:none"
     id="path2323"
     d="" />
  <path
     inkscape:connector-curvature="0"
     style="fill:#ad30c0;stroke:none"
     id="path2329"
     d="" />
  <g
     id="g4349">
    <ellipse
       ry="18.330345"
       rx="15.824643"
       transform="scale(-1,1)"
       cy="62.095139"
       cx="-78.181404"
       style="fill:none;stroke:#ad30c0;stroke-width:4.2314229px;stroke-opacity:1"
       id="FrontWheel" />
    <ellipse
       ry="18.330345"
       rx="15.824643"
       transform="scale(-1,1)"
       cy="61.753578"
       cx="-21.664818"
       style="fill:none;stroke:#ad30c0;stroke-width:4.2314229px;stroke-opacity:1"
       id="RearWheel" />
    <path
       inkscape:connector-curvature="0"
       style="fill:#ad30c0;fill-opacity:1;fill-rule:evenodd;stroke:#000000;stroke-width:0.10578556;stroke-opacity:1"
       id="Frame"
       d="m 57.099795,17.290206 c 13.029919,0.147107 10.820167,-1.559325 17.830416,24.537324 5.710879,20.851203 5.088826,18.577303 5.118694,20.039902 0.02093,1.136279 -0.770919,2.037186 -1.765965,2.114301 C 76.213587,63.739366 77.084004,64.240974 69.909585,38.43428 43.694525,70.467485 53.52976,65.272999 39.421774,65.923535 20.880171,65.717587 19.373136,67.041543 19.153008,63.893469 c 0.0254,-1.068974 0.45719,-1.706434 13.182316,-34.511127 l -1.219172,-3.883606 -4.190911,-0.08826 0.152397,-4.060132 15.620664,0 c 1.380038,2.18698 -0.558788,2.177172 -7.543638,3.97187 l 1.219174,3.971867 31.165132,0.08827 C 65.439282,20.889407 66.624589,21.418988 57.175992,21.438603 l -0.0762,-4.148397 z M 68.4395,33.735488 37.943802,33.672855 46.757274,61.105666 68.4395,33.735488 Z m -34.172483,1.628431 8.651261,26.305436 -18.924635,0.06263 10.273374,-26.368067 z" />
  </g>
  <path
     inkscape:connector-curvature="0"
     style="fill:#ad30c0;stroke:none"
     id="path2323-6"
     d="" />
  <path
     inkscape:connector-curvature="0"
     style="fill:#ad30c0;stroke:none"
     id="path2329-5"
     d="" />
  <path
     inkscape:connector-curvature="0"
     style="fill:#ad30c0;stroke:none"
     id="path2323-9"
     d="" />
  <path
     inkscape:connector-curvature="0"
     style="fill:#ad30c0;stroke:none"
     id="path2329-2"
     d="" />
  <path
     inkscape:connector-curvature="0"
     style="fill:#ad30c0;stroke:none"
     id="path2323-6-6"
     d="" />
  <path
     inkscape:connector-curvature="0"
     style="fill:#ad30c0;stroke:none"
     id="path2329-5-6"
     d="" />
</svg>
