<?xml version="1.0" encoding="UTF-8" standalone="no"?>
<!-- Created with Inkscape (http://www.inkscape.org/) -->

<svg
   xmlns:dc="http://purl.org/dc/elements/1.1/"
   xmlns:cc="http://creativecommons.org/ns#"
   xmlns:rdf="http://www.w3.org/1999/02/22-rdf-syntax-ns#"
   xmlns:svg="http://www.w3.org/2000/svg"
   xmlns="http://www.w3.org/2000/svg"
   xmlns:sodipodi="http://sodipodi.sourceforge.net/DTD/sodipodi-0.dtd"
   xmlns:inkscape="http://www.inkscape.org/namespaces/inkscape"
   height="22"
   id="svg2"
   inkscape:output_extension="org.inkscape.output.svg.inkscape"
   inkscape:version="0.48.3.1 r9886"
   sodipodi:docname="car_dealer.svg"
   sodipodi:version="0.32"
   version="1.0"
   width="22">
  <metadata
     id="metadata10">
    <rdf:RDF>
      <cc:Work
         rdf:about="">
        <dc:format>image/svg+xml</dc:format>
        <dc:type
           rdf:resource="http://purl.org/dc/dcmitype/StillImage" />
        <cc:license
           rdf:resource="http://web.resource.org/cc/PublicDomain" />
        <dc:language>en</dc:language>
        <dc:title></dc:title>
      </cc:Work>
    </rdf:RDF>
  </metadata>
  <sodipodi:namedview
     bordercolor="#666666"
     borderopacity="1.0"
     gridtolerance="10.0"
     guidetolerance="10.0"
     id="base"
     inkscape:current-layer="svg2"
     inkscape:cx="12.998345"
     inkscape:cy="8.2449461"
     inkscape:pageopacity="0.0"
     inkscape:pageshadow="2"
     inkscape:window-height="692"
     inkscape:window-width="1360"
     inkscape:window-x="0"
     inkscape:window-y="24"
     inkscape:zoom="16"
     objecttolerance="10.0"
     pagecolor="#ffffff"
     showgrid="false"
     inkscape:window-maximized="1" />
  <defs
     id="defs4">
    <inkscape:perspective
       id="perspective12"
       inkscape:persp3d-origin="290 : 193.33333 : 1"
       inkscape:vp_x="0 : 290 : 1"
       inkscape:vp_y="0 : 1000 : 0"
       inkscape:vp_z="580 : 290 : 1"
       sodipodi:type="inkscape:persp3d" />
    <style
       id="style6"
       type="text/css">
    .fil0 {fill:#EF7900}
  </style>
    <inkscape:perspective
       id="perspective6807"
       inkscape:persp3d-origin="29.116032 : 19.410688 : 1"
       inkscape:vp_x="0 : 29.116032 : 1"
       inkscape:vp_y="0 : 1000 : 0"
       inkscape:vp_z="58.232063 : 29.116032 : 1"
       sodipodi:type="inkscape:persp3d" />
    <inkscape:perspective
       id="perspective6954"
       inkscape:persp3d-origin="290 : 193.33333 : 1"
       inkscape:vp_x="0 : 290 : 1"
       inkscape:vp_y="0 : 1000 : 0"
       inkscape:vp_z="580 : 290 : 1"
       sodipodi:type="inkscape:persp3d" />
    <marker
       id="ArrowStart"
       markerHeight="3"
       markerUnits="strokeWidth"
       markerWidth="4"
       orient="auto"
       refX="10"
       refY="5"
       viewBox="0 0 10 10">
      <path
         d="M 10 0 L 0 5 L 10 10 z"
         id="path2295" />
    </marker>
    <marker
       id="ArrowEnd"
       markerHeight="3"
       markerUnits="strokeWidth"
       markerWidth="4"
       orient="auto"
       refX="0"
       refY="5"
       viewBox="0 0 10 10">
      <path
         d="M 0 0 L 10 5 L 0 10 z"
         id="path2292" />
    </marker>
    <inkscape:perspective
       id="perspective7597"
       inkscape:persp3d-origin="178.5405 : 158.483 : 1"
       inkscape:vp_x="0 : 237.7245 : 1"
       inkscape:vp_y="0 : 1000 : 0"
       inkscape:vp_z="357.08099 : 237.7245 : 1"
       sodipodi:type="inkscape:persp3d" />
  </defs>
  <g
     id="g1327"
     transform="matrix(0.04255774,0,0,0.04255774,-1.4142136,-1.7673414)">
    <path
       d="M 66.275,1.768 C 24.94,1.768 1.704,23.139 1.704,66.804 l 0,450.123 c 0,40.844 20.894,62.229 62.192,62.229 l 452.024,0 c 41.307,0 62.229,-20.316 62.229,-62.229 l 0,-450.123 c 0,-42.601 -20.922,-65.036 -63.522,-65.036 -0.003,0 -448.494,-0.143 -448.352,0 z"
       id="path1329"
       style="fill:#111111;fill-opacity:0;stroke:#eeeeee;stroke-width:3.40799999;stroke-opacity:0"
       inkscape:connector-curvature="0" />
  </g>
  <g
     id="g2319"
     transform="matrix(0.04255774,0,0,0.04255774,36.006437,-0.20099864)">
    <path
       d=""
       id="path2323"
       style="fill:#ad30c0;stroke:none"
       inkscape:connector-curvature="0" />
  </g>
  <g
     id="g2325"
     transform="matrix(0.04255774,0,0,0.04255774,36.006437,-0.20099864)">
    <path
       d=""
       id="path2329"
       style="fill:#ad30c0;stroke:none"
       inkscape:connector-curvature="0" />
  </g>
  <g
     id="g3787"
     transform="matrix(1.0781825,0,0,1.0471574,265.35317,-299.49867)">
    <g
       inkscape:export-ydpi="4.2362185"
       inkscape:export-xdpi="4.2362185"
       transform="matrix(-0.03470696,0,0,0.04139347,-219.73719,282.04237)"
       id="g3138">
      <circle
         sodipodi:ry="161"
         sodipodi:rx="161"
         sodipodi:cy="409"
         sodipodi:cx="215"
         id="FrontWheel"
         style="fill:none;stroke:#ad30c0;stroke-width:40px;stroke-opacity:1"
         cx="215"
         cy="409"
         r="161"
         transform="matrix(0.612193,0,0,0.612193,156.40859,178.29391)"
         d="m 376,409 c 0,88.91784 -72.08216,161 -161,161 -88.91784,0 -161,-72.08216 -161,-161 0,-88.91784 72.08216,-161 161,-161 88.91784,0 161,72.08216 161,161 z" />
      <circle
         sodipodi:ry="161"
         sodipodi:rx="161"
         sodipodi:cy="406"
         sodipodi:cx="790"
         id="RearWheel"
         style="fill:none;stroke:#ad30c0;stroke-width:40px;stroke-opacity:1"
         cx="790"
         cy="406"
         r="161"
         transform="matrix(0.612193,0,0,0.612193,156.40859,178.29391)"
         d="m 951,406 c 0,88.91784 -72.08216,161 -161,161 -88.91784,0 -161,-72.08216 -161,-161 0,-88.91784 72.08216,-161 161,-161 88.91784,0 161,72.08216 161,161 z" />
      <path
         d="m 419.33591,187.76277 c -81.15626,0.791 -67.39292,-8.38456 -111.05594,131.93826 -35.56995,112.11783 -31.69552,99.89097 -31.88155,107.75543 -0.13037,6.10982 4.80163,10.95404 10.99923,11.36869 12.88887,-1.30322 7.46752,1.39395 52.15306,-137.36977 163.27931,172.24394 102.021,144.31296 189.89195,147.81092 115.48553,-1.10739 124.87203,6.01158 126.24309,-10.91575 -0.1582,-5.74792 -2.84759,-9.17557 -82.10546,-185.56784 l 7.59356,-20.88232 26.1029,-0.4746 -0.9492,-21.83151 -97.2926,0 c -8.5955,11.75949 3.48039,11.70675 46.98521,21.35692 l -7.59357,21.3569 -194.11061,0.47461 c 13.07781,-45.66688 5.69518,-42.8193 64.54534,-42.71383 l 0.47459,-22.30611 z m -70.62884,88.427 189.94107,-0.33678 -54.89431,147.50742 -135.04676,-147.17064 z m 212.84176,8.75614 -53.88399,141.44548 117.87123,0.33677 -63.98724,-141.78225 z"
         id="Frame"
         style="fill:#ad30c0;fill-opacity:1;fill-rule:evenodd;stroke:#000000;stroke-width:0.61219299;stroke-opacity:1"
         inkscape:connector-curvature="0" />
    </g>
  </g>
</svg>
