/* XPM */
static char * biergarten_xpm[] = {
"16 16 93 2",
"  	c None",
". 	c #FFFFFF",
"+ 	c #95948F",
"@ 	c #C0BEBA",
"# 	c #CFCDCA",
"$ 	c #CDCBC7",
"% 	c #CECCC9",
"& 	c #C5C4C0",
"* 	c #BABAB6",
"= 	c #A6A49B",
"- 	c #E1DCD4",
"; 	c #E9E4DB",
"> 	c #E8E2D8",
", 	c #EDE7DF",
"' 	c #ECE7DF",
") 	c #C2C1B8",
"! 	c #A3915F",
"~ 	c #C5A660",
"{ 	c #D0B067",
"] 	c #D6B86C",
"^ 	c #DEC077",
"/ 	c #DEC37A",
"( 	c #C1B382",
"_ 	c #9C9B93",
": 	c #A5A5A1",
"< 	c #967327",
"[ 	c #AF7404",
"} 	c #BA7E05",
"| 	c #C68A08",
"1 	c #D39E22",
"2 	c #D4A72F",
"3 	c #C1AA60",
"4 	c #A8A6A0",
"5 	c #999790",
"6 	c #916825",
"7 	c #A66400",
"8 	c #B46F00",
"9 	c #C07B00",
"0 	c #C98C08",
"a 	c #C9930D",
"b 	c #BFA457",
"c 	c #92928D",
"d 	c #885F2A",
"e 	c #9A5700",
"f 	c #A66200",
"g 	c #B26F00",
"h 	c #BF8205",
"i 	c #C18C0F",
"j 	c #BAA059",
"k 	c #868884",
"l 	c #846031",
"m 	c #925101",
"n 	c #9E5C00",
"o 	c #A96D00",
"p 	c #B57D07",
"q 	c #BB8916",
"r 	c #B7A062",
"s 	c #A2A3A0",
"t 	c #806238",
"u 	c #884E02",
"v 	c #935600",
"w 	c #9F6701",
"x 	c #AA7604",
"y 	c #B08515",
"z 	c #AB975C",
"A 	c #B3B3AC",
"B 	c #BFC0BE",
"C 	c #7D653C",
"D 	c #804D02",
"E 	c #8A5400",
"F 	c #956300",
"G 	c #9F7406",
"H 	c #A47F15",
"I 	c #9F8D52",
"J 	c #776741",
"K 	c #785309",
"L 	c #815401",
"M 	c #8A5F01",
"N 	c #947207",
"O 	c #957B18",
"P 	c #A19663",
"Q 	c #7F795F",
"R 	c #745F2B",
"S 	c #775713",
"T 	c #805F10",
"U 	c #876D1C",
"V 	c #897A3C",
"W 	c #9F9B7E",
"X 	c #9F9A8A",
"Y 	c #998A6D",
"Z 	c #9D8D69",
"` 	c #9B8D6B",
" .	c #8F876B",
". . . . . . . . . . . . . . . . ",
". . . . . . . . . . . . . . . . ",
". . . . + @ # $ % & * . . . . . ",
". . . . = - ; > , ' ) . . . . . ",
". . . . ! ~ { ] ^ / ( _ : . . . ",
". . . . < [ } | 1 2 3 . 4 5 . . ",
". . . . 6 7 8 9 0 a b . . c . . ",
". . . . d e f g h i j . . k . . ",
". . . . l m n o p q r . . s . . ",
". . . . t u v w x y z A B . . . ",
". . . . C D E F G H I . . . . . ",
". . . . J K L M N O P . . . . . ",
". . . . Q R S T U V W . . . . . ",
". . . . . X Y Z `  .. . . . . . ",
". . . . . . . . . . . . . . . . ",
". . . . . . . . . . . . . . . . "};
