/* XPM */
static char * boat_ramp_xpm[] = {
"16 16 9 1",
" 	c None",
".	c #FFFFFF",
"+	c #000000",
"@	c #4F4F4F",
"#	c #0000FF",
"$	c #FEFEFE",
"%	c #37FFFF",
"&	c #9B9B9B",
"*	c #5C5CFF",
"         .      ",
"        .+.     ",
"....   .+@.     ",
"####$$$+@.      ",
".#######....    ",
".#%%%%######$...",
" .####%%%%######",
"  .#######%%%%##",
"  .....########.",
" .++++.....####.",
"......&++&..... ",
"++++...++.++++. ",
"++++++++...$$.  ",
"++++++++++++....",
"****************",
"****************"};
