/* XPM */
static char *dummy[]={
"4 8 4 1",
". c None",
"b c #797979",
"a c #7e7e7e",
"# c #999999",
".##.",
"###a",
"###b",
"###b",
"###b",
"###b",
"###b",
"###b"};
