/* XPM */
static char *dummy[]={
"15 32 3 1",
". c #000000",
"# c #999999",
"a c #9a9a9a",
"......###......",
".....#####a....",
"...#########...",
"..###########..",
".#############.",
"###############",
"###############",
"###############",
"###############",
"###############",
"###############",
"###############",
"###############",
"###############",
"###############",
"###############",
"###############",
"###############",
"###############",
"###############",
"###############",
"###############",
"###############",
"###############",
"###############",
"###############",
"###############",
"###############",
"###############",
"###############",
"###############",
"###############"};
