<?xml version="1.0" encoding="UTF-8" standalone="no"?>
<!-- Created with Inkscape (http://www.inkscape.org/) -->

<svg
   xmlns:dc="http://purl.org/dc/elements/1.1/"
   xmlns:cc="http://creativecommons.org/ns#"
   xmlns:rdf="http://www.w3.org/1999/02/22-rdf-syntax-ns#"
   xmlns:svg="http://www.w3.org/2000/svg"
   xmlns="http://www.w3.org/2000/svg"
   xmlns:sodipodi="http://sodipodi.sourceforge.net/DTD/sodipodi-0.dtd"
   xmlns:inkscape="http://www.inkscape.org/namespaces/inkscape"
   height="22"
   id="svg2"
   inkscape:output_extension="org.inkscape.output.svg.inkscape"
   inkscape:version="0.48.1 r9760"
   sodipodi:docname="buddhist.svg"
   sodipodi:version="0.32"
   version="1.0"
   width="22">
  <metadata
     id="metadata2975">
    <rdf:RDF>
      <cc:Work
         rdf:about="">
        <dc:format>image/svg+xml</dc:format>
        <dc:type
           rdf:resource="http://purl.org/dc/dcmitype/StillImage" />
        <cc:license
           rdf:resource="http://web.resource.org/cc/PublicDomain" />
        <dc:language>en</dc:language>
      </cc:Work>
    </rdf:RDF>
  </metadata>
  <sodipodi:namedview
     bordercolor="#666666"
     borderopacity="1.0"
     gridtolerance="10.0"
     guidetolerance="10.0"
     id="base"
     inkscape:current-layer="svg2"
     inkscape:cx="26.515814"
     inkscape:cy="2.1294787"
     inkscape:pageopacity="0.0"
     inkscape:pageshadow="2"
     inkscape:window-height="725"
     inkscape:window-width="1024"
     inkscape:window-x="0"
     inkscape:window-y="20"
     inkscape:zoom="7.3734169"
     objecttolerance="10.0"
     pagecolor="#ffffff"
     showgrid="false"
     inkscape:window-maximized="0" />
  <defs
     id="defs4">
    <inkscape:perspective
       id="perspective2441"
       inkscape:persp3d-origin="290 : 193.33333 : 1"
       inkscape:vp_x="0 : 290 : 1"
       inkscape:vp_y="0 : 1000 : 0"
       inkscape:vp_z="580 : 290 : 1"
       sodipodi:type="inkscape:persp3d" />
    <inkscape:perspective
       id="perspective2466"
       inkscape:persp3d-origin="372.04724 : 350.78739 : 1"
       inkscape:vp_x="0 : 526.18109 : 1"
       inkscape:vp_y="0 : 1000 : 0"
       inkscape:vp_z="744.09448 : 526.18109 : 1"
       sodipodi:type="inkscape:persp3d" />
    <inkscape:perspective
       id="perspective3333"
       inkscape:persp3d-origin="372.04724 : 350.78739 : 1"
       inkscape:vp_x="0 : 526.18109 : 1"
       inkscape:vp_y="0 : 1000 : 0"
       inkscape:vp_z="744.09448 : 526.18109 : 1"
       sodipodi:type="inkscape:persp3d" />
    <inkscape:perspective
       id="perspective3401"
       inkscape:persp3d-origin="372.04724 : 350.78739 : 1"
       inkscape:vp_x="0 : 526.18109 : 1"
       inkscape:vp_y="0 : 1000 : 0"
       inkscape:vp_z="744.09448 : 526.18109 : 1"
       sodipodi:type="inkscape:persp3d" />
    <inkscape:perspective
       id="perspective3464"
       inkscape:persp3d-origin="372.04724 : 350.78739 : 1"
       inkscape:vp_x="0 : 526.18109 : 1"
       inkscape:vp_y="0 : 1000 : 0"
       inkscape:vp_z="744.09448 : 526.18109 : 1"
       sodipodi:type="inkscape:persp3d" />
    <inkscape:perspective
       id="perspective3581"
       inkscape:persp3d-origin="225 : 150 : 1"
       inkscape:vp_x="0 : 225 : 1"
       inkscape:vp_y="0 : 1000 : 0"
       inkscape:vp_z="450 : 225 : 1"
       sodipodi:type="inkscape:persp3d" />
    <inkscape:perspective
       id="perspective4312"
       inkscape:persp3d-origin="225 : 150 : 1"
       inkscape:vp_x="0 : 225 : 1"
       inkscape:vp_y="0 : 1000 : 0"
       inkscape:vp_z="450 : 225 : 1"
       sodipodi:type="inkscape:persp3d" />
  </defs>
  <g
     id="g1327">
    <path
       d="M 66.275,1.768 C 24.94,1.768 1.704,23.139 1.704,66.804 L 1.704,516.927 C 1.704,557.771 22.599,579.156 63.896,579.156 L 515.92,579.156 C 557.227,579.156 578.149,558.841 578.149,516.927 L 578.149,66.804 C 578.149,24.203 557.227,1.768 514.628,1.768 C 514.624,1.768 66.133,1.625 66.275,1.768 z "
       id="path1329"
       style="fill:#111;fill-opacity:0;stroke:#eee;stroke-opacity:0;stroke-width:3.40799999" />
  </g>
  <path
     d="M 280.20349,557.10339 C 275.4337,552.33363 272.92649,544.97509 272.92649,535.74583 L 272.92649,521.66522 L 251.81633,517.51206 C 169.90036,501.39607 97.450677,416.48466 79.870405,328.50075 C 74.50844,328.08683 71.543681,327.87821 65.877415,327.87821 C 48.155947,327.87821 36.424315,316.05296 36.424315,298.19005 C 36.424315,281.9532 46.404667,272.45513 64.618644,271.35819 L 78.267012,270.53622 L 84.708567,245.53938 C 95.45536,203.83597 111.41279,176.40024 143.7188,144.08261 C 176.82962,110.9599 204.54359,94.326009 244.55244,84.413765 C 256.70863,81.402045 257.64208,83.725098 271.32566,80.67256 C 273.13348,61.664076 271.48655,40.464466 300.54856,41.460973 C 323.51919,42.262319 325.71207,56.2882 325.80681,79.561024 C 333.68452,80.332975 336.24173,80.565766 349.87852,83.369852 C 431.8724,100.22995 505.50299,174.202 519.87045,256.92755 C 522.14441,270.02049 523.36498,271.36746 532.02907,270.34525 C 543.46567,268.99596 562.20002,277.9001 565.38442,286.19851 C 573.27185,306.75288 561.70867,324.41429 538.3069,327.55624 C 522.98627,329.61323 522.25963,330.27907 519.83815,344.48051 C 516.04575,366.72197 501.16452,400.78164 484.54908,425.24892 C 455.26472,468.37208 409.61307,500.46055 356.61187,515.17582 L 329.32317,522.75229 L 328.14487,537.19896 C 327.49678,545.14465 324.37773,554.51096 321.21357,558.01301 C 313.11632,566.97501 289.55242,566.45232 280.20349,557.10339 z M 272.92649,417.02134 C 272.92649,392.00669 271.66237,371.54015 270.11728,371.54015 C 268.57222,371.54015 253.47426,385.4462 236.56628,402.44247 C 219.54969,419.54791 209.94072,430.05151 206.36897,435.20723 C 210.77167,438.43078 218.50021,447.11973 237.841,455.07072 C 254.04663,461.73283 267.40333,463.64123 273.51621,464.56308 C 272.5054,456.96179 272.92649,445.56067 272.92649,417.02134 z M 382.19507,446.52535 L 398.03258,436.76152 L 365.57298,404.15084 C 347.7202,386.21497 331.85127,371.54015 330.30865,371.54015 C 328.76604,371.54015 327.50391,392.21135 327.50391,417.47614 L 327.50391,463.41215 L 346.93075,459.85065 C 353.43456,458.55199 369.30349,452.55561 382.19507,446.52535 z M 200.12988,359.71504 L 233.84414,327.87821 L 185.66824,327.87821 L 137.49232,327.87821 L 139.95901,341.02682 C 142.78058,356.06709 160.50561,393.93661 164.05366,392.50494 C 165.35272,391.98073 181.58701,377.22529 200.12988,359.71504 z M 454.23342,368.22999 C 459.92766,355.72266 462.40275,345.38773 463.64563,339.88451 L 465.90535,327.87821 L 417.70184,327.87821 L 369.49834,327.87821 L 402.09307,360.62465 C 420.02017,378.6352 436.03596,393.37113 437.68369,393.37113 C 439.33142,393.37113 448.53921,380.73732 454.23342,368.22999 z M 313.85504,332.2564 C 320.11269,329.02047 330.38397,318.23547 333.41415,310.98326 C 338.24385,299.42416 335.28797,287.19044 326.21651,277.24406 C 311.75004,261.38234 292.95735,261.28732 276.90551,276.41206 C 261.24167,291.17118 265.07665,311.66649 273.97037,322.07426 C 284.17075,334.01111 300.67643,339.07134 313.85504,332.2564 z M 229.26455,269.58642 C 229.26455,268.5441 214.75489,253.2489 197.02085,235.59703 L 164.77718,203.50274 L 157.01607,216.06041 C 148.29704,230.1681 142.70319,245.40888 137.90208,271.57301 C 140.30263,271.91091 144.23475,271.48154 183.78336,271.48154 C 208.79801,271.48154 229.26455,270.62875 229.26455,269.58642 z M 462.92924,261.68287 C 462.34101,256.89671 459.52475,242.24164 453.64119,229.122 C 447.69654,215.86612 438.679,204.16937 437.10172,204.16937 C 434.47098,204.16937 371.16608,266.97558 371.16527,269.58642 C 371.16494,270.62875 392.04081,271.1409 417.55609,270.72455 C 463.51111,269.97469 463.9379,269.88965 462.92924,261.68287 z M 272.92649,182.26908 L 272.92649,134.89934 L 262.92062,137.15907 C 244.68613,137.95699 206.54775,159.03901 207.43358,162.97316 C 207.98968,165.44286 269.49142,229.63884 271.941,229.63884 C 272.48303,229.63884 272.92649,208.32246 272.92649,182.26908 z M 372.62201,147.12845 C 359.03355,140.74987 343.42234,138.62007 338.41939,137.99454 L 329.32317,136.85722 L 328.31247,184.15765 L 327.30173,231.45809 L 362.11499,196.89238 L 396.92823,162.32668 L 372.62201,147.12845 z"
     id="path1873"
     sodipodi:nodetypes="cccccsscccsscscssssssscccsccsscscccccscccccccccscccccccsccssssccccccsccssssccccssccccccccc"
     style="opacity:0.25;fill:#ffffff;fill-opacity:0" />
  <path
     d="M 10.163994,21.300665 C 9.97074,21.107413 9.8691572,20.809272 9.8691572,20.435337 l 0,-0.570493 -0.8553044,-0.168271 c -3.3189284,-0.65296 -6.2543185,-4.093252 -6.9666052,-7.65803 -0.2172468,-0.01677 -0.3373675,-0.02522 -0.5669432,-0.02522 -0.71800753,0 -1.19332933,-0.479114 -1.19332933,-1.202853 0,-0.657856 0.40436646,-1.0426827 1.14232863,-1.0871262 L 1.9822848,9.6900418 2.243272,8.6772631 C 2.6786919,6.9875976 3.3252271,5.8760046 4.6341458,4.5666154 5.9756721,3.2246072 7.0985379,2.550664 8.7195473,2.1490574 9.2120705,2.0270333 9.24989,2.1211582 9.8042976,1.9974772 9.8775453,1.2273253 9.8108,0.36839642 10.9883,0.40877097 c 0.930684,0.0324661 1.019531,0.60074373 1.02337,1.54367143 0.319175,0.031273 0.422784,0.040705 0.975295,0.1543195 3.322085,0.6831078 6.305321,3.6801782 6.887437,7.0319077 0.09213,0.5304766 0.141584,0.5850508 0.492621,0.5436344 0.463368,-0.054666 1.222414,0.3060947 1.351434,0.642315 0.319569,0.832786 -0.148928,1.548361 -1.09708,1.67566 -0.620734,0.08334 -0.650175,0.110319 -0.748284,0.685709 -0.153654,0.90114 -0.756586,2.28111 -1.429781,3.272433 -1.186493,1.747189 -3.036127,3.047293 -5.183537,3.643501 l -1.105635,0.30697 -0.04774,0.585325 c -0.02625,0.321929 -0.152631,0.701417 -0.28083,0.843307 -0.328071,0.363107 -1.282792,0.341929 -1.661576,-0.03686 z m -0.2948368,-5.6756 c 0,-1.013499 -0.051216,-1.842727 -0.1138188,-1.842727 -0.062599,0 -0.6743127,0.563421 -1.3593605,1.252046 -0.6894487,0.693049 -1.078768,1.118615 -1.2234816,1.327506 0.1783807,0.130606 0.4915118,0.48265 1.2751283,0.804794 0.6565917,0.269924 1.1977551,0.347245 1.4454254,0.384595 -0.040957,-0.307976 -0.023891,-0.769907 -0.023891,-1.926214 z m 4.4271528,1.195392 0.641677,-0.395594 -1.315141,-1.321262 c -0.723328,-0.726695 -1.366277,-1.321263 -1.428778,-1.321263 -0.0625,0 -0.113638,0.837519 -0.113638,1.861154 l 0,1.861155 0.787103,-0.144299 c 0.26351,-0.05261 0.906459,-0.295567 1.428777,-0.539891 z m -7.3765988,-3.517229 1.3659753,-1.289908 -1.9519066,0 -1.9519082,0 0.099941,0.532732 c 0.1143198,0.609375 0.8324717,2.143706 0.9762252,2.085701 0.052631,-0.02124 0.7103858,-0.619074 1.4616731,-1.328525 z m 10.2953238,0.344995 c 0.230709,-0.506751 0.330991,-0.925483 0.381347,-1.148453 l 0.09156,-0.48645 -1.953026,0 -1.953025,0 1.320616,1.326762 c 0.726339,0.729721 1.375239,1.326766 1.441999,1.326766 0.06676,0 0.439825,-0.511876 0.670533,-1.018625 z M 11.527428,12.190707 C 11.780965,12.0596 12.197119,11.622632 12.31989,11.3288 12.515572,10.860468 12.395808,10.364804 12.028269,9.9618139 11.442142,9.3191564 10.680732,9.3153062 10.030372,9.9281008 9.3957319,10.526085 9.551111,11.356479 9.9114511,11.778162 10.324732,12.261799 10.993481,12.46682 11.527428,12.190704 z M 8.1001386,9.6515545 c 0,-0.042227 -0.5878766,-0.6619352 -1.3063934,-1.3771227 L 5.4873525,6.9740917 5.172901,7.4828816 C 4.8196386,8.0544724 4.592997,8.6719717 4.3984743,9.7320443 c 0.097261,0.013693 0.2565755,-0.00367 1.8589376,-0.00367 1.0134993,0 1.8427267,-0.034555 1.8427267,-0.076783 z M 17.567357,9.3313327 C 17.543527,9.1374151 17.429419,8.5436464 17.19104,8.0120882 16.950185,7.4750091 16.584828,7.0011012 16.520922,7.0011012 c -0.106587,0 -2.671465,2.5446723 -2.671497,2.6504533 -1.4e-5,0.042235 0.845799,0.062982 1.879582,0.046114 1.861925,-0.030385 1.879217,-0.033828 1.83835,-0.3663345 z m -7.6981998,-3.2175491 0,-1.9192447 -0.4054002,0.091556 c -0.7387936,0.032328 -2.2840178,0.8864929 -2.2481269,1.0458897 0.022529,0.1000635 2.5143512,2.7010435 2.6135985,2.7010435 0.021963,0 0.039925,-0.8636594 0.039925,-1.9192446 z M 13.908446,4.6900165 C 13.357892,4.4315805 12.725385,4.345289 12.522684,4.319945 L 12.15414,4.2738621 12.11319,6.1902977 12.07224,8.1067349 13.482742,6.7062617 14.893245,5.3057892 13.908448,4.6900134 z"
     id="path5316"
     sodipodi:nodetypes="cccccsscccsscscssssssscccsccsscscccccscccccccccscccccccsccssssccccccsccssssccccssccccccccc"
     style="fill:#5e8019"
     inkscape:connector-curvature="0" />
</svg>
