/* XPM */
static char *dummy[]={
"16 16 62 1",
". c None",
"S c #070707",
"6 c #121212",
"T c #151515",
"Z c #161616",
"U c #171717",
"Y c #181818",
"5 c #191919",
"2 c #212121",
"R c #242424",
"W c #262626",
"1 c #282828",
"I c #292929",
"V c #2c2c2c",
"0 c #2d2d2d",
"4 c #2e2e2e",
"P c #303030",
"X c #313131",
"K c #333333",
"N c #343434",
"D c #3b3b3b",
"E c #3c3c3c",
"G c #3d3d3d",
"L c #3e3e3e",
"M c #444444",
"J c #474747",
"Q c #484848",
"F c #494949",
"H c #4f4f4f",
"C c #555555",
"3 c #585858",
"7 c #595959",
"u c #5b5b5b",
"O c #5c5c5c",
"B c #737373",
"x c #747474",
"w c #767676",
"i c #787878",
"m c #7a7a7a",
"k c #7b7b7b",
"# c #7c7c7c",
"n c #7f7f7f",
"s c #808080",
"d c #838383",
"b c #848484",
"h c #888888",
"f c #8a8a8a",
"A c #8d8d8d",
"v c #909090",
"p c #969696",
"g c #9d9d9d",
"a c #a2a2a2",
"c c #a3a3a3",
"e c #a4a4a4",
"q c #a8a8a8",
"z c #aaaaaa",
"y c #b7b7b7",
"r c #bbbbbb",
"o c #c0c0c0",
"j c #c2c2c2",
"l c #c3c3c3",
"t c #c4c4c4",
"................",
"................",
"................",
"................",
"................",
".#abcdebefgghe..",
".ijklmlnopqrstu.",
".vtwtxldyzAlBtCD",
"DEFGHIJKLMNOPQRS",
"TUVWXTYZUY012YTD",
".3.4G33333.5633.",
"...........7....",
"................",
"................",
"................",
"................"};
