/* XPM */
static char *camping[]={
"16 16 5 1",
". c None",
"b c #000000",
"a c #0000ff",
"c c #c6c6c6",
"# c #ffffff",
".##############.",
"#aaaaaaaaaaaaaa#",
"#aaaaaaaaaaaaaa#",
"#aa####bb####aa#",
"#aa###cbbc###aa#",
"#aa###b##b###aa#",
"#aa##cb##bc##aa#",
"#aa##bc##cb##aa#",
"#aa#cb#bb#bc#aa#",
"#aa#bccbbccb#aa#",
"#aacb#bbbb#bcaa#",
"#aabbbbbbbbbbaa#",
"#aa##########aa#",
"#aaaaaaaaaaaaaa#",
"#aaaaaaaaaaaaaa#",
".##############."};
