/* XPM */
static char *dummy[]={
"16 16 3 1",
". c None",
"a c #000000",
"# c #ffffff",
".##############.",
"################",
"#######aa#######",
"#######aa#######",
"#######aa#######",
"######aaaa######",
"######aaaa######",
"#####aaaaaa#####",
"#####aaaaaa#####",
"####aaaaaaaa####",
"####aaa##aaa####",
"###aaaa##aaaa###",
"###aaa####aaa###",
"##aaaaaaaaaaaa##",
"##aaaaaaaaaaaa##",
".##############."};
