<?xml version="1.0" encoding="UTF-8" standalone="no"?>
<!-- Created with Inkscape (http://www.inkscape.org/) -->

<svg
   xmlns:dc="http://purl.org/dc/elements/1.1/"
   xmlns:cc="http://creativecommons.org/ns#"
   xmlns:rdf="http://www.w3.org/1999/02/22-rdf-syntax-ns#"
   xmlns:svg="http://www.w3.org/2000/svg"
   xmlns="http://www.w3.org/2000/svg"
   xmlns:sodipodi="http://sodipodi.sourceforge.net/DTD/sodipodi-0.dtd"
   xmlns:inkscape="http://www.inkscape.org/namespaces/inkscape"
   height="22"
   id="svg2"
   inkscape:output_extension="org.inkscape.output.svg.inkscape"
   inkscape:version="0.48.3.1 r9886"
   sodipodi:docname="car_rent.svg"
   sodipodi:version="0.32"
   version="1.0"
   width="22">
  <defs
     id="defs22">
    <inkscape:perspective
       id="perspective24"
       inkscape:persp3d-origin="290 : 193.33333 : 1"
       inkscape:vp_x="0 : 290 : 1"
       inkscape:vp_y="0 : 1000 : 0"
       inkscape:vp_z="580 : 290 : 1"
       sodipodi:type="inkscape:persp3d" />
  </defs>
  <metadata
     id="metadata10">
    <rdf:RDF>
      <cc:Work
         rdf:about="">
        <dc:format>image/svg+xml</dc:format>
        <dc:type
           rdf:resource="http://purl.org/dc/dcmitype/StillImage" />
        <cc:license
           rdf:resource="http://web.resource.org/cc/PublicDomain" />
        <dc:language>en</dc:language>
        <dc:title></dc:title>
      </cc:Work>
    </rdf:RDF>
  </metadata>
  <sodipodi:namedview
     bordercolor="#666666"
     borderopacity="1.0"
     gridtolerance="10.0"
     guidetolerance="10.0"
     id="base"
     inkscape:current-layer="svg2"
     inkscape:cx="7.222334"
     inkscape:cy="9.314837"
     inkscape:pageopacity="0.0"
     inkscape:pageshadow="2"
     inkscape:window-height="691"
     inkscape:window-width="1024"
     inkscape:window-x="0"
     inkscape:window-y="24"
     inkscape:zoom="5.6568542"
     objecttolerance="10.0"
     pagecolor="#ffffff"
     showgrid="false"
     inkscape:window-maximized="0" />
  <g
     id="g1327"
     transform="matrix(0.04083073,0,0,0.04083073,-0.1767767,-1.0602338)">
    <path
       d="M 66.275,1.768 C 24.94,1.768 1.704,23.139 1.704,66.804 l 0,450.123 c 0,40.844 20.894,62.229 62.192,62.229 l 452.024,0 c 41.307,0 62.229,-20.316 62.229,-62.229 l 0,-450.123 c 0,-42.601 -20.922,-65.036 -63.522,-65.036 -0.003,0 -448.494,-0.143 -448.352,0 z"
       id="path1329"
       style="fill:#111111;fill-opacity:0;stroke:#eeeeee;stroke-width:3.40799999;stroke-opacity:0"
       inkscape:connector-curvature="0" />
  </g>
  <g
     id="g2319"
     transform="matrix(0.04083073,0,0,0.04083073,35.725326,0.442546)">
    <path
       d=""
       id="path2323"
       style="fill:#0089cd;stroke:none"
       inkscape:connector-curvature="0" />
  </g>
  <g
     id="g2325"
     transform="matrix(0.04083073,0,0,0.04083073,35.725326,0.442546)">
    <path
       d=""
       id="path2329"
       style="fill:#0089cd;stroke:none"
       inkscape:connector-curvature="0" />
  </g>
  <path
     d="m 8.6250917,8.7062005 c -0.9707376,0 -1.4856922,0.5299594 -1.7234264,1.150296 L 5.6397034,13.114997 C 5.1394385,13.179143 4.252621,13.766362 4.252621,14.878783 l 0,4.143757 1.228328,0 0,1.325194 c 0,1.630379 2.307318,1.611179 2.3073187,0 l 0,-1.325194 4.1504833,0 0.0013,0 4.150481,0 0,1.325194 c 0,1.611179 2.307307,1.630379 2.307321,0 l 0,-1.325194 1.228326,0 0,-4.143757 c 0,-1.11242 -0.886811,-1.699639 -1.387085,-1.763786 L 16.975831,9.8564965 C 16.738097,9.2361599 16.223146,8.7062005 15.252402,8.7062005 l -1.783964,0 -3.037862,0 -1.8054905,0 z m -0.0148,1.1866209 3.3257684,0 0.0027,0 0.0013,0 3.327111,0 c 0.41601,0.00392 0.594182,0.2640376 0.713049,0.6242546 l 0.951179,2.564285 -4.991339,0 -0.0013,0 -0.0027,0 -4.9899972,0 0.9511803,-2.564285 C 8.0161106,10.156859 8.1942372,9.8966951 8.6102916,9.8928214 z M 6.6716065,14.328524 c 0.5886503,0 1.0655371,0.491138 1.0655371,1.097826 -4e-7,0.606733 -0.4768868,1.099172 -1.0655371,1.099172 -0.5886073,0 -1.0655378,-0.492439 -1.0655378,-1.099172 0,-0.606687 0.4769305,-1.097826 1.0655378,-1.097826 z m 10.5356355,0 c 0.58865,0 1.06554,0.491139 1.065537,1.097826 0,0.606733 -0.476887,1.099172 -1.065537,1.099172 -0.588608,0 -1.066886,-0.492439 -1.066886,-1.099172 0,-0.606688 0.478278,-1.097826 1.066886,-1.097826 z"
     id="path2301"
     style="fill:#0089cd;stroke:none"
     inkscape:connector-curvature="0" />
  <g
     style="fill:#0089cd;fill-opacity:1"
     id="g3780"
     transform="matrix(0.02443884,0,0,0.02330052,1.3462656,1.136404)">
    <g
       style="fill:#0089cd;fill-opacity:1"
       id="g3782">
      <path
         style="fill:#0089cd;fill-opacity:1;stroke:none"
         id="path3784"
         d="m 300.803,131.26 c 22.551,0 40.835,-18.284 40.835,-40.8361 0,-22.551 -18.284,-40.834 -40.835,-40.834 -22.552,0 -40.834,18.283 -40.834,40.834 0,22.5521 18.282,40.8361 40.834,40.8361 z"
         inkscape:connector-curvature="0" />
      <path
         style="fill:#0089cd;fill-opacity:1;stroke:none"
         id="path3786"
         d=""
         inkscape:connector-curvature="0" />
    </g>
    <path
       sodipodi:nodetypes="csssccccccscscc"
       style="fill:#0089cd;fill-opacity:1;stroke:none"
       id="path3788"
       d="m 257.105,140.273 c -28.918,0 -52.173,23.584 -52.173,53 l 0,125.375 c 0,24.375 35.673,24.375 35.673,0 l 0,-114.642 8.444,0 0.94051,138.62872 c 33.80071,18.86054 99.27458,9.97064 100.62847,0 L 352.499,204.006 l 8.247,0 0,114.642 c 0,24.562 35.487,24.562 35.422,0 l 0,-124.625 c 0,-27.125 -21.064,-53.694 -52.814,-53.694 z"
       inkscape:connector-curvature="0" />
  </g>
  <g
     transform="matrix(0.02443884,0,0,0.02330052,7.8222172,1.1547099)"
     id="g3810"
     style="fill:#0089cd;fill-opacity:1">
    <g
       id="g3812"
       style="fill:#0089cd;fill-opacity:1">
      <path
         inkscape:connector-curvature="0"
         d="m 300.803,131.26 c 22.551,0 40.835,-18.284 40.835,-40.8361 0,-22.551 -18.284,-40.834 -40.835,-40.834 -22.552,0 -40.834,18.283 -40.834,40.834 0,22.5521 18.282,40.8361 40.834,40.8361 z"
         id="path3814"
         style="fill:#0089cd;fill-opacity:1;stroke:none" />
      <path
         inkscape:connector-curvature="0"
         d=""
         id="path3816"
         style="fill:#0089cd;fill-opacity:1;stroke:none" />
    </g>
    <path
       inkscape:connector-curvature="0"
       d="m 257.105,140.273 c -28.918,0 -52.173,23.584 -52.173,53 l 0,125.375 c 0,24.375 35.673,24.375 35.673,0 l 0,-114.642 8.444,0 0.94051,138.62872 c 33.80071,18.86054 99.27458,9.97064 100.62847,0 L 352.499,204.006 l 8.247,0 0,114.642 c 0,24.562 35.487,24.562 35.422,0 l 0,-124.625 c 0,-27.125 -21.064,-53.694 -52.814,-53.694 z"
       id="path3818"
       style="fill:#0089cd;fill-opacity:1;stroke:none"
       sodipodi:nodetypes="csssccccccscscc" />
  </g>
</svg>
