<?xml version="1.0" encoding="UTF-8" standalone="no"?>
<!-- Created with Inkscape (http://www.inkscape.org/) -->

<svg
   xmlns:dc="http://purl.org/dc/elements/1.1/"
   xmlns:cc="http://creativecommons.org/ns#"
   xmlns:rdf="http://www.w3.org/1999/02/22-rdf-syntax-ns#"
   xmlns:svg="http://www.w3.org/2000/svg"
   xmlns="http://www.w3.org/2000/svg"
   xmlns:sodipodi="http://sodipodi.sourceforge.net/DTD/sodipodi-0.dtd"
   xmlns:inkscape="http://www.inkscape.org/namespaces/inkscape"
   width="100"
   height="100"
   id="svg2"
   sodipodi:version="0.32"
   inkscape:version="0.91 r13725"
   version="1.0"
   sodipodi:docname="cemetery.svg"
   inkscape:output_extension="org.inkscape.output.svg.inkscape"
   inkscape:export-filename="/home/jeff/navit/icons/png/bus.png"
   inkscape:export-xdpi="90"
   inkscape:export-ydpi="90">
  <defs
     id="defs4">
    <linearGradient
       id="linearGradient3181">
      <stop
         id="stop3183"
         offset="0"
         style="stop-color:#ffffff;stop-opacity:0;" />
      <stop
         id="stop3185"
         offset="1"
         style="stop-color:#ffffff;stop-opacity:1;" />
    </linearGradient>
    <linearGradient
       id="linearGradient3169">
      <stop
         style="stop-color:#d2d2d2;stop-opacity:1;"
         offset="0"
         id="stop3171" />
      <stop
         style="stop-color:#656565;stop-opacity:1;"
         offset="1"
         id="stop3173" />
    </linearGradient>
    <inkscape:perspective
       sodipodi:type="inkscape:persp3d"
       inkscape:vp_x="0 : 526.18109 : 1"
       inkscape:vp_y="0 : 1000 : 0"
       inkscape:vp_z="744.09448 : 526.18109 : 1"
       inkscape:persp3d-origin="372.04724 : 350.78739 : 1"
       id="perspective10" />
  </defs>
  <sodipodi:namedview
     id="base"
     pagecolor="#0083f4"
     bordercolor="#666666"
     borderopacity="1.0"
     inkscape:pageopacity="0"
     inkscape:pageshadow="2"
     inkscape:zoom="2.8"
     inkscape:cx="8.1448821"
     inkscape:cy="38.829475"
     inkscape:document-units="px"
     inkscape:current-layer="layer1"
     showgrid="true"
     inkscape:window-width="1440"
     inkscape:window-height="874"
     inkscape:window-x="0"
     inkscape:window-y="0"
     inkscape:window-maximized="1">
    <inkscape:grid
       type="xygrid"
       id="grid2380"
       visible="true"
       enabled="true" />
  </sodipodi:namedview>
  <metadata
     id="metadata7">
    <rdf:RDF>
      <cc:Work
         rdf:about="">
        <dc:format>image/svg+xml</dc:format>
        <dc:type
           rdf:resource="http://purl.org/dc/dcmitype/StillImage" />
        <dc:title />
        <dc:description>jfitie@gmail.com</dc:description>
        <cc:license
           rdf:resource="http://creativecommons.org/publicdomain/zero/1.0/" />
      </cc:Work>
      <cc:License
         rdf:about="http://creativecommons.org/publicdomain/zero/1.0/">
        <cc:permits
           rdf:resource="http://creativecommons.org/ns#Reproduction" />
        <cc:permits
           rdf:resource="http://creativecommons.org/ns#Distribution" />
        <cc:permits
           rdf:resource="http://creativecommons.org/ns#DerivativeWorks" />
      </cc:License>
    </rdf:RDF>
  </metadata>
  <g
     inkscape:label="Calque 1"
     inkscape:groupmode="layer"
     id="layer1"
     transform="translate(0,78)">
    <path
       style="fill:#ffffff;stroke:#ffffff;stroke-width:0.7998367"
       d="m 46.130964,-70.258071 c -14.339171,-0.501926 -25.864213,12.248958 -28.255182,25.661939 -2.49326,10.550277 -4.213901,22.560939 0.966995,32.573026 6.817129,10.9162784 19.868748,15.2162238 30.737484,20.8285527 8.149595,3.7140693 18.483439,7.7657153 26.92107,2.7150693 8.572037,-6.3463353 8.498636,-18.3487502 8.962237,-27.948971 0.110794,-12.382767 1.246986,-25.80615 -4.581881,-37.187708 -6.45458,-9.91987 -18.671538,-14.042888 -29.702,-16.312696 -1.671195,-0.23264 -3.361155,-0.347794 -5.048723,-0.329212 z"
       id="path3372-3"
       inkscape:connector-curvature="0" />
    <path
       inkscape:connector-curvature="0"
       id="path3372"
       d="M 36.538765,-0.50664918 C 19.763076,-9.6011006 16.367697,-15.86097 18.211401,-34.295797 c 2.95088,-29.505335 20.545598,-40.815776 45.679301,-29.364105 16.252548,7.405154 18.896681,13.247936 18.896681,41.756307 0,37.222148 -9.203226,41.480025 -46.248618,21.39694582 z"
       style="fill:#8c8c8c" />
    <path
       inkscape:connector-curvature="0"
       id="path3370"
       d="m 38.801704,-18.080955 c -9.774594,-6.316824 -9.774594,-7.131372 0,-7.330942 9.774593,-0.199549 9.774593,-1.014119 0,-7.330942 -6.048031,-3.908536 -7.697495,-7.106426 -3.665474,-7.106426 4.03202,0 12.279336,3.19789 18.327367,7.106426 9.774593,6.316823 9.774593,7.131372 0,7.330942 -9.774594,0.199548 -9.774594,1.014118 0,7.330942 6.04803,3.908536 7.697493,7.106424 3.665472,7.106424 -4.032019,0 -12.279335,-3.197888 -18.327365,-7.106424 z"
       style="fill:#3f3f3f" />
  </g>
</svg>
