/* XPM */
static char * cinema_xpm[] = {
"12 16 97 2",
"  	c None",
". 	c #FFFFFF",
"+ 	c #F6F6F6",
"@ 	c #D1D1D1",
"# 	c #F8F8F8",
"$ 	c #CCE9F1",
"% 	c #AADBE7",
"& 	c #78C5D9",
"* 	c #67A1AF",
"= 	c #696969",
"- 	c #DDDDDD",
"; 	c #707070",
"> 	c #7B8E93",
", 	c #4299AF",
"' 	c #5F8F9B",
") 	c #466D76",
"! 	c #525252",
"~ 	c #0E0E0E",
"{ 	c #B3B3B3",
"] 	c #FDFDFD",
"^ 	c #7C7C7C",
"/ 	c #2F2F2F",
"( 	c #2D2D2D",
"_ 	c #111111",
": 	c #101010",
"< 	c #2B2B2B",
"[ 	c #303030",
"} 	c #989898",
"| 	c #212121",
"1 	c #6B7F83",
"2 	c #679CAA",
"3 	c #6AB3C5",
"4 	c #4BB1CA",
"5 	c #2CA5C3",
"6 	c #757575",
"7 	c #646464",
"8 	c #FCFCFC",
"9 	c #606060",
"0 	c #3E9FB7",
"a 	c #66797E",
"b 	c #DCDCDC",
"c 	c #0D0D0D",
"d 	c #72A3AF",
"e 	c #3CABC7",
"f 	c #69909A",
"g 	c #ECECEC",
"h 	c #F3F3F3",
"i 	c #666666",
"j 	c #739097",
"k 	c #60A8BA",
"l 	c #7C9EA6",
"m 	c #5A7278",
"n 	c #404648",
"o 	c #282828",
"p 	c #0A0A0A",
"q 	c #CCCCCC",
"r 	c #3B3B3B",
"s 	c #161616",
"t 	c #333333",
"u 	c #384B50",
"v 	c #5C5C5C",
"w 	c #AEAEAE",
"x 	c #464646",
"y 	c #6C9CA8",
"z 	c #69ACBD",
"A 	c #4BACC4",
"B 	c #34A8C5",
"C 	c #A6A6A6",
"D 	c #78C1D3",
"E 	c #576F75",
"F 	c #858585",
"G 	c #C5C5C5",
"H 	c #414141",
"I 	c #5FA8BA",
"J 	c #7D959B",
"K 	c #EAEAEA",
"L 	c #E4E4E4",
"M 	c #658B95",
"N 	c #70AAB9",
"O 	c #588894",
"P 	c #707A7C",
"Q 	c #4C4C4C",
"R 	c #1E1E1E",
"S 	c #4E4E4E",
"T 	c #191919",
"U 	c #345158",
"V 	c #3A6B77",
"W 	c #AAAAAA",
"X 	c #828282",
"Y 	c #585858",
"Z 	c #619BAA",
"` 	c #79BDCE",
" .	c #56B7CF",
"..	c #89CDDD",
"+.	c #BDBDBD",
"@.	c #DAEEF2",
"#.	c #EEF8FA",
"        . . . + @ #     ",
"  . . . $ % & * = - .   ",
"# ; > , , ' ) ! ~ { .   ",
"] ^ / ( _ : < ! [ } .   ",
". > | 1 2 3 4 5 6 7 .   ",
"8 { 9 0 5 5 5 5 a ( .   ",
"8 b c d 5 5 5 e f 7 g . ",
"  h i j k l m n o p q . ",
"  . r ~ p s t u m v w . ",
"  . 6 x y z A B 4 n = . ",
"  . C x D 5 5 5 5 E F # ",
"  . G H I 5 5 5 5 J < K ",
"  . L r M N O P Q R S @ ",
"  . + r T : _ / U V o W ",
"    . X Y Z `  ...% +.K ",
"    . W } @.#.. . . . . "};
