<?xml version="1.0" encoding="UTF-8" standalone="no"?>
<!-- Created with Inkscape (http://www.inkscape.org/) -->

<svg
   xmlns:dc="http://purl.org/dc/elements/1.1/"
   xmlns:cc="http://creativecommons.org/ns#"
   xmlns:rdf="http://www.w3.org/1999/02/22-rdf-syntax-ns#"
   xmlns:svg="http://www.w3.org/2000/svg"
   xmlns="http://www.w3.org/2000/svg"
   xmlns:xlink="http://www.w3.org/1999/xlink"
   xmlns:sodipodi="http://sodipodi.sourceforge.net/DTD/sodipodi-0.dtd"
   xmlns:inkscape="http://www.inkscape.org/namespaces/inkscape"
   height="100"
   id="svg2"
   inkscape:output_extension="org.inkscape.output.svg.inkscape"
   inkscape:version="0.91 r13725"
   sodipodi:docname="drinking_water.svg"
   sodipodi:version="0.32"
   version="1.0"
   width="100">
  <metadata
     id="metadata2975">
    <rdf:RDF>
      <cc:Work
         rdf:about="">
        <dc:format>image/svg+xml</dc:format>
        <dc:type
           rdf:resource="http://purl.org/dc/dcmitype/StillImage" />
        <cc:license
           rdf:resource="http://creativecommons.org/publicdomain/zero/1.0/" />
        <dc:language>en</dc:language>
        <dc:title />
        <dc:description>jfitie@gmail.com</dc:description>
      </cc:Work>
      <cc:License
         rdf:about="http://creativecommons.org/publicdomain/zero/1.0/">
        <cc:permits
           rdf:resource="http://creativecommons.org/ns#Reproduction" />
        <cc:permits
           rdf:resource="http://creativecommons.org/ns#Distribution" />
        <cc:permits
           rdf:resource="http://creativecommons.org/ns#DerivativeWorks" />
      </cc:License>
    </rdf:RDF>
  </metadata>
  <sodipodi:namedview
     bordercolor="#666666"
     borderopacity="1.0"
     gridtolerance="10.0"
     guidetolerance="10.0"
     id="base"
     inkscape:current-layer="svg2"
     inkscape:cx="50.806915"
     inkscape:cy="45.424044"
     inkscape:pageopacity="0"
     inkscape:pageshadow="2"
     inkscape:window-height="820"
     inkscape:window-width="1238"
     inkscape:window-x="299"
     inkscape:window-y="122"
     inkscape:zoom="3.6867084"
     objecttolerance="10.0"
     pagecolor="#ff00ff"
     showgrid="false"
     inkscape:window-maximized="0" />
  <defs
     id="defs4">
    <linearGradient
       inkscape:collect="always"
       id="linearGradient4196">
      <stop
         style="stop-color:#000080;stop-opacity:1;"
         offset="0"
         id="stop4198" />
      <stop
         style="stop-color:#000080;stop-opacity:0;"
         offset="1"
         id="stop4200" />
    </linearGradient>
    <inkscape:perspective
       id="perspective2441"
       inkscape:persp3d-origin="290 : 193.33333 : 1"
       inkscape:vp_x="0 : 290 : 1"
       inkscape:vp_y="0 : 1000 : 0"
       inkscape:vp_z="580 : 290 : 1"
       sodipodi:type="inkscape:persp3d" />
    <inkscape:perspective
       id="perspective3452"
       inkscape:persp3d-origin="30 : 20 : 1"
       inkscape:vp_x="0 : 30 : 1"
       inkscape:vp_y="0 : 1000 : 0"
       inkscape:vp_z="60 : 30 : 1"
       sodipodi:type="inkscape:persp3d" />
    <symbol
       id="symbol-university"
       viewBox="244.5 110 489 219.9">
      <path
         d="m 79,43 57,119 c 0,0 21,-96 104,-96 83,0 124,106 124,106 L 407,39 489,22 0,17 79,43 Z"
         id="path4460"
         inkscape:connector-curvature="0" />
      <path
         d="M 94,176 73,215"
         id="path4462"
         inkscape:connector-curvature="0"
         style="fill:none;stroke:#000000;stroke-width:20" />
      <path
         d="M 300,19 C 300,29.5 277.4,38 249.5,38 221.6,38 199,29.5 199,19 199,8.5 221.6,0 249.5,0 277.4,0 300,8.5 300,19 Z"
         id="path4464"
         inkscape:connector-curvature="0" />
      <path
         d="M 112,216 96,178 64,88 C 64,88 55,80 60,53 65,26 76,29 76,29"
         id="path4466"
         ill="none"
         inkscape:connector-curvature="0"
         style="stroke:#000000;stroke-width:20" />
    </symbol>
    <inkscape:perspective
       id="perspective4471"
       inkscape:persp3d-origin="372.04724 : 350.78739 : 1"
       inkscape:vp_x="0 : 526.18109 : 1"
       inkscape:vp_y="0 : 1000 : 0"
       inkscape:vp_z="744.09448 : 526.18109 : 1"
       sodipodi:type="inkscape:persp3d" />
    <inkscape:perspective
       id="perspective4668"
       inkscape:persp3d-origin="6 : 4 : 1"
       inkscape:vp_x="0 : 6 : 1"
       inkscape:vp_y="0 : 1000 : 0"
       inkscape:vp_z="12 : 6 : 1"
       sodipodi:type="inkscape:persp3d" />
    <inkscape:perspective
       id="perspective2562"
       inkscape:persp3d-origin="372.04724 : 350.78739 : 1"
       inkscape:vp_x="0 : 526.18109 : 1"
       inkscape:vp_y="0 : 1000 : 0"
       inkscape:vp_z="744.09448 : 526.18109 : 1"
       sodipodi:type="inkscape:persp3d" />
    <inkscape:perspective
       id="perspective12"
       inkscape:persp3d-origin="290 : 193.33333 : 1"
       inkscape:vp_x="0 : 290 : 1"
       inkscape:vp_y="0 : 1000 : 0"
       inkscape:vp_z="580 : 290 : 1"
       sodipodi:type="inkscape:persp3d" />
    <linearGradient
       inkscape:collect="always"
       xlink:href="#linearGradient4196"
       id="linearGradient4206"
       x1="29.023178"
       y1="70.434334"
       x2="44.755371"
       y2="101.62747"
       gradientUnits="userSpaceOnUse" />
  </defs>
  <g
     id="layer3"
     inkscape:label="Layout"
     style="display:none;stroke:#757575;stroke-opacity:1"
     transform="matrix(48.14969,0,0,48.14969,-536.27327,44.693248)">
    <rect
       height="10"
       id="rect4134"
       style="display:inline;fill:none;stroke:#757575;stroke-width:0.1;stroke-miterlimit:4;stroke-dasharray:none;stroke-opacity:1"
       width="10"
       x="1"
       y="1" />
    <rect
       height="8"
       id="rect4136"
       style="display:inline;fill:none;stroke:#757575;stroke-width:0.1;stroke-miterlimit:4;stroke-dasharray:none;stroke-opacity:1"
       width="8"
       x="2"
       y="2" />
  </g>
  <path
     style="opacity:0.98512196;fill:#ffffff;fill-opacity:1;stroke:#ffffff;stroke-width:2.65101337;stroke-linecap:round;stroke-linejoin:round;stroke-miterlimit:4;stroke-dashoffset:0;stroke-opacity:1"
     d="M 54.670048,2.6372123 C 46.644681,2.6040814 48.032373,16.308648 55.823947,14.855814 60.413407,14.975148 68.38893,9.8002119 63.149769,5.2529909 60.532053,4.0019844 57.622743,2.6857872 54.670048,2.6372123 Z"
     id="path3340-5"
     inkscape:connector-curvature="0" />
  <path
     style="opacity:0.98512196;fill:#ffffff;fill-opacity:1;stroke:#ffffff;stroke-width:2.65101337;stroke-linecap:round;stroke-linejoin:round;stroke-miterlimit:4;stroke-dashoffset:0;stroke-opacity:1"
     d="M 64.919629,2.6289995 C 60.497432,2.7399275 52.159935,6.4397926 56.624696,11.80681 60.90674,16.425441 72.458288,15.87048 71.186,7.5915869 70.677159,4.6979583 67.863438,2.4377842 64.919629,2.6289995 Z"
     id="path3345-3"
     inkscape:connector-curvature="0" />
  <path
     style="fill:#ffffff;stroke:#ffffff;stroke-width:5.30202675;stroke-linecap:round;stroke-linejoin:miter;stroke-miterlimit:4;stroke-dasharray:none;stroke-opacity:1"
     d="M 59.957042,2.6659572 C 54.443669,5.2188211 56.458458,12.873663 55.830107,17.839115 55.382398,23.414884 56.927998,29.057234 60.540151,33.400328 66.172136,25.074402 65.087421,14.133829 62.999886,5.080522 62.500184,3.8333347 61.464974,2.4690981 59.957042,2.6659572 Z"
     id="path3347-5"
     inkscape:connector-curvature="0" />
  <path
     style="opacity:0.98512196;fill:#ffffff;fill-opacity:1;stroke:#ffffff;stroke-width:5.30202675;stroke-linecap:round;stroke-linejoin:round;stroke-miterlimit:4;stroke-dasharray:none;stroke-dashoffset:0;stroke-opacity:1"
     d="m 59.6737,11.656926 c -10.461803,2.714251 -10.537469,20.720595 -0.829494,24.275 8.658796,0.772825 11.179145,-10.781925 8.775383,-17.304382 -0.921858,-3.652157 -3.840086,-7.226331 -7.945889,-6.970618 z"
     id="path3349-6"
     inkscape:connector-curvature="0" />
  <path
     style="fill:#ffffff;stroke:#ffffff;stroke-width:8.83671093;stroke-linecap:butt;stroke-linejoin:miter;stroke-miterlimit:4;stroke-dasharray:none;stroke-opacity:1"
     d="m 66.944086,20.405617 c -8.457806,0.942789 -17.220356,-1.013336 -25.51308,0.87877 -7.453464,2.727378 -10.676025,11.104528 -8.565512,18.556391 12.272402,-9.418254 41.409226,-7.160766 43.467518,-9.246533 6.520639,1.620066 6.909714,0.165054 7.395307,-5.549905 -0.444054,-6.227099 -7.968811,-4.889668 -16.784233,-4.638723 z"
     id="path3351-2"
     inkscape:connector-curvature="0"
     sodipodi:nodetypes="cccccc" />
  <path
     style="fill:#ffffff;stroke:#ffffff;stroke-width:1.05123913"
     d="m 32.918877,41.465748 c -6.957595,-0.03049 -13.914864,0.480279 -20.788664,1.562487 2.436488,18.590545 4.876438,37.180641 7.313503,55.771111 11.204405,1.363924 22.634358,1.889704 33.803904,-0.0698 4.27871,-8.31259 2.5469,-18.16008 4.8235,-27.025909 1.25708,-9.553402 2.50753,-19.107677 3.76504,-28.661022 -9.55043,-1.640984 -19.2579,-1.650577 -28.917283,-1.576859 z"
     id="path3582"
     inkscape:connector-curvature="0" />
  <path
     d="M 18.987801,48.773301 53.431076,49.052175 47.853219,93.156071 24.286768,93.434945 18.987801,48.77326 Z"
     id="path2381"
     sodipodi:nodetypes="ccccc"
     style="opacity:0.1;fill:#0000ff;fill-opacity:1;fill-rule:evenodd;stroke:none"
     inkscape:connector-curvature="0" />
  <g
     id="g3353"
     transform="matrix(0.17673421,0,0,0.17673421,-10.737373,2.0017657)">
    <path
       d="m 391.67731,24.490931 c -11.66352,4.361614 -27.64526,10.849786 -33.63434,10.849786 -5.98908,0 -10.84979,-4.860704 -10.84979,-10.849786 0,-5.989083 4.86071,-10.849787 10.84979,-10.849787 5.70837,0.219191 22.30594,6.964662 33.63434,10.849787 z"
       id="path3340"
       sodipodi:nodetypes="csscc"
       style="opacity:0.98512196;fill:#c02727;fill-opacity:1;stroke:#c02727;stroke-width:15;stroke-linecap:round;stroke-linejoin:round;stroke-miterlimit:4;stroke-dashoffset:0;stroke-opacity:1"
       transform="translate(15.189701,15.189701)"
       inkscape:connector-curvature="0" />
    <path
       d="m 396.38288,39.680632 c 11.66352,4.361614 27.64526,10.849786 33.63434,10.849786 5.98908,0 10.84979,-4.860704 10.84979,-10.849786 0,-5.989083 -4.86071,-10.849787 -10.84979,-10.849787 -5.70837,0.219191 -22.30594,6.964662 -33.63434,10.849787 z"
       id="path3345"
       sodipodi:nodetypes="csscc"
       style="opacity:0.98512196;fill:#c02727;fill-opacity:1;stroke:#c02727;stroke-width:15;stroke-linecap:round;stroke-linejoin:round;stroke-miterlimit:4;stroke-dashoffset:0;stroke-opacity:1"
       inkscape:connector-curvature="0" />
    <path
       d="m 401.4421,39.138141 0,66.183699 0.81374,25.76824"
       id="path3347"
       style="fill:none;stroke:#c02727;stroke-width:30;stroke-linecap:round;stroke-linejoin:miter;stroke-miterlimit:4;stroke-dasharray:none;stroke-opacity:1"
       inkscape:connector-curvature="0" />
    <ellipse
       id="path3349"
       style="opacity:0.98512196;fill:#c02727;fill-opacity:1;stroke:#c02727;stroke-width:30;stroke-linecap:round;stroke-linejoin:round;stroke-miterlimit:4;stroke-dasharray:none;stroke-dashoffset:0;stroke-opacity:1"
       cx="401.44211"
       cy="125.39394"
       rx="22.784552"
       ry="45.569103" />
    <path
       d="m 522.95971,130.81884 -177.93695,-1.00529 -14.10427,-0.0797 c -69.43863,-1.08498 -65.09872,64.01374 -65.09872,64.01374"
       id="path3351"
       sodipodi:nodetypes="cccc"
       style="fill:none;stroke:#c02727;stroke-width:50;stroke-linecap:butt;stroke-linejoin:miter;stroke-miterlimit:4;stroke-dasharray:none;stroke-opacity:1"
       inkscape:connector-curvature="0" />
  </g>
  <rect
     style="opacity:0.44029852;fill:url(#linearGradient4206);stroke:none;stroke-width:12;stroke-miterlimit:4;stroke-dasharray:none;fill-opacity:1"
     id="rect4179"
     width="27.39571"
     height="27.666956"
     x="22.784552"
     y="65.823174" />
  <path
     d="m 56.634303,46.656344 -0.02776,0 c 0.03191,-0.02735 0.0494,-0.05533 0.0494,-0.0833 0,-0.659459 -9.00462,-1.194065 -20.112586,-1.194065 -11.107853,0 -20.112588,0.534606 -20.112588,1.194065 0,0.02776 0.01758,0.05579 0.04953,0.0833 l -0.04953,0 6.277143,47.865895 0.02835,0 c -0.05554,0.02984 -0.08497,0.06047 -0.08497,0.09117 0,0.455631 6.219828,0.824741 13.892314,0.824741 7.672593,0 13.892314,-0.369097 13.892314,-0.824741 0,-0.03066 -0.02942,-0.0613 -0.08496,-0.09117 L 56.634431,46.656344 Z M 46.320546,91.022726 C 45.998984,91.320292 26.926547,91.180833 26.60498,90.883269 L 20.642161,49.554567 c 10.177343,0.03399 17.506539,0.539778 31.341268,-0.278874 l -5.662883,41.74705 z"
     id="path2209"
     sodipodi:nodetypes="ccsssccccsssccccccc"
     style="fill:#c02727"
     inkscape:connector-curvature="0" />
</svg>
