/* XPM */
static char *fastfood[] = {
/* columns rows colors chars-per-pixel */
"16 16 166 2",
"   c #000000",
".  c #181614",
"X  c #1B1A18",
"o  c #251606",
"O  c #2E2B27",
"+  c #3E3E3E",
"@  c #4F351B",
"#  c #5F380F",
"$  c #53371A",
"%  c #4D3E2E",
"&  c #443D35",
"*  c #5A3F23",
"=  c #49423A",
"-  c #4A4138",
";  c #514232",
":  c #5C4C3B",
">  c #5F503F",
",  c #714212",
"<  c #774917",
"1  c #7D4F1E",
"2  c #614528",
"3  c #6E4B24",
"4  c #604E3A",
"5  c #694E31",
"6  c #6D5134",
"7  c #4C4843",
"8  c #534D47",
"9  c #5C5042",
"0  c #5C5145",
"q  c #5F5244",
"w  c #5E5346",
"e  c #58534E",
"r  c #585858",
"t  c #595959",
"y  c #5A5A5A",
"u  c #5B5B5B",
"i  c #5D5A58",
"p  c #5E5E5E",
"a  c #605447",
"s  c #675A4C",
"d  c #605B55",
"f  c #625C57",
"g  c #675F56",
"h  c #745C43",
"j  c #715D48",
"k  c #676058",
"l  c #6E6051",
"z  c #6A655F",
"x  c #71675C",
"c  c #7E6851",
"v  c #626262",
"b  c #646464",
"n  c #676767",
"m  c #6E6862",
"M  c #686868",
"N  c #696968",
"B  c #6A6A6A",
"V  c #6C6C6C",
"C  c #6D6D6D",
"Z  c #6E6D6C",
"A  c #6F6E6D",
"S  c #746E67",
"D  c #706C69",
"F  c #706F6D",
"G  c #76716B",
"H  c #7B746D",
"J  c #727272",
"K  c #757575",
"L  c #777776",
"P  c #787877",
"I  c #7B7875",
"U  c #7A7A7A",
"Y  c #7C7C7C",
"T  c #8B5317",
"R  c #885219",
"E  c #965918",
"W  c #975A19",
"Q  c #815424",
"!  c #A5611A",
"~  c #A6621B",
"^  c #A7631B",
"/  c #A9651C",
"(  c #85725D",
")  c #87725C",
"_  c #8E7A65",
"`  c #807870",
"'  c #CF7B21",
"]  c #8E8274",
"[  c #9A856F",
"{  c #838383",
"}  c #858585",
"|  c #868686",
" . c #878787",
".. c #8B8681",
"X. c #8A8885",
"o. c #8B8B8B",
"O. c #8E8C89",
"+. c #8D8D8D",
"@. c #8F8F8E",
"#. c #8F8F8F",
"$. c #92908D",
"%. c #94908D",
"&. c #909090",
"*. c #919090",
"=. c #919191",
"-. c #939392",
";. c #949494",
":. c #989898",
">. c #999999",
",. c #9B9B9B",
"<. c #9C9C9C",
"1. c #9D9D9D",
"2. c #9F9F9F",
"3. c #A1A1A0",
"4. c #A4A4A4",
"5. c #A7A7A7",
"6. c #A8A8A7",
"7. c #AAA9A7",
"8. c #A9A9A9",
"9. c #AAAAAA",
"0. c #AEAEAE",
"q. c #AFAFAF",
"w. c #B1B0AF",
"e. c #B0B0B0",
"r. c #B1B1B1",
"t. c #B2B2B2",
"y. c #B5B5B5",
"u. c #B6B6B6",
"i. c #B8B8B8",
"p. c #BBBBBB",
"a. c #BDBDBD",
"s. c #BFBFBF",
"d. c #C3BEB9",
"f. c #C1C1C1",
"g. c #C3C3C3",
"h. c #C6C4C2",
"j. c #C4C4C4",
"k. c #C9C9C9",
"l. c #CBCBCB",
"z. c #CDCDCD",
"x. c #CECECE",
"c. c #D0D0D0",
"v. c #D1D1D1",
"b. c #D2D2D2",
"n. c #D3D3D3",
"m. c #D4D4D4",
"M. c #D5D5D5",
"N. c #D6D6D6",
"B. c #D7D7D7",
"V. c #D8D8D8",
"C. c #D9D9D9",
"Z. c #DDDDDD",
"A. c #DEDEDE",
"S. c #DFDFDF",
"D. c #E1DEDB",
"F. c #E2E2E2",
"G. c #E4E4E4",
"H. c #E5E5E5",
"J. c #E7E7E7",
"K. c #E8E8E8",
"L. c #EDEDED",
"P. c #F2F2F2",
"I. c #F4F4F4",
"U. c #F7F7F7",
"Y. c #FFFFFF",
"T. c None",
/* pixels */
"T.T.@ s 3 T.T.T.T.T.T.T.T.T.T.T.",
"T.^ 1 g 4 < T.T.T.T.T.T.T.T.T.T.",
"2 k l i = a = Q T.T.T.T.T.T.T.T.",
"& C 5. .r ;.n O T.T.T.T.T.T.T.T.",
"] r.>.o.&.2.f.0 T.T.T.T.T.T.T.T.",
"[ I.Y.Y.Y.Y.A.5 f C F 7 * T.T.T.",
"_ K.Y.Y.Y.P.M ` I 7.-.X.x > W T.",
"8 w.c.l.y.M r.y.8.8.B.c.l.7.c T.",
"% h.c.l.y.o.m.x.F.c.n.g.B.K.%.R ",
"$ D.Y.Y.x.;.p.U.A.m.F.H.t.L.$.h ",
", d.Y.Y.C C >.>.5.m.m.c.a.2.P z ",
"^ H m.H.p r L >.o. . .J #.&.e 6 ",
"' ..a.r.>.C r #.q.v + i P v i T ",
"T.9 G 3.&.M w.2. . .#.v Y 2.a E ",
"T.# o . X 0 O.@.r.f.f.i. .D : T.",
"T.T.T.T.T.^ j ( S L C m ( ; T.T."
};
