<?xml version="1.0" encoding="UTF-8" standalone="no"?>
<!-- Created with Inkscape (http://www.inkscape.org/) -->

<svg
   xmlns:dc="http://purl.org/dc/elements/1.1/"
   xmlns:cc="http://creativecommons.org/ns#"
   xmlns:rdf="http://www.w3.org/1999/02/22-rdf-syntax-ns#"
   xmlns:svg="http://www.w3.org/2000/svg"
   xmlns="http://www.w3.org/2000/svg"
   xmlns:xlink="http://www.w3.org/1999/xlink"
   xmlns:sodipodi="http://sodipodi.sourceforge.net/DTD/sodipodi-0.dtd"
   xmlns:inkscape="http://www.inkscape.org/namespaces/inkscape"
   width="100"
   height="100"
   inkscape:export-xdpi="90"
   inkscape:export-ydpi="90"
   id="svg2"
   sodipodi:version="0.32"
   inkscape:version="0.91 r13725"
   version="1.0"
   sodipodi:docname="fountain.svg"
   inkscape:output_extension="org.inkscape.output.svg.inkscape"
   style="display:inline">
  <defs
     id="defs4">
    <inkscape:perspective
       sodipodi:type="inkscape:persp3d"
       inkscape:vp_x="0 : 64 : 1"
       inkscape:vp_y="0 : 1000 : 0"
       inkscape:vp_z="128 : 64 : 1"
       inkscape:persp3d-origin="64 : 42.666667 : 1"
       id="perspective79" />
    <linearGradient
       id="linearGradient2338">
      <stop
         style="stop-color:#b1b1b1;stop-opacity:1;"
         offset="0"
         id="stop2340" />
      <stop
         style="stop-color:#e4e4e4;stop-opacity:1;"
         offset="1"
         id="stop2342" />
    </linearGradient>
    <linearGradient
       id="linearGradient2888">
      <stop
         id="stop2890"
         offset="0"
         style="stop-color:#007dff;stop-opacity:1;" />
      <stop
         id="stop2892"
         offset="1"
         style="stop-color:#58abff;stop-opacity:1;" />
    </linearGradient>
    <filter
       inkscape:collect="always"
       id="filter3197"
       x="-0.078178316"
       width="1.1563566"
       y="-0.10603384"
       height="1.2120677"
       style="color-interpolation-filters:sRGB">
      <feGaussianBlur
         inkscape:collect="always"
         stdDeviation="0.49535895"
         id="feGaussianBlur3199" />
    </filter>
    <linearGradient
       inkscape:collect="always"
       xlink:href="#linearGradient2338"
       id="linearGradient3115"
       gradientUnits="userSpaceOnUse"
       x1="95.135132"
       y1="57.574238"
       x2="101.53513"
       y2="69.595856"
       gradientTransform="matrix(1,0,0,0.81375293,0,20.05073)" />
    <linearGradient
       inkscape:collect="always"
       xlink:href="#linearGradient2338"
       id="linearGradient3118"
       gradientUnits="userSpaceOnUse"
       x1="40.302704"
       y1="59.286484"
       x2="44.194595"
       y2="65.599998"
       gradientTransform="matrix(1,0,0,0.81375293,0,20.05073)" />
    <linearGradient
       inkscape:collect="always"
       xlink:href="#linearGradient2338"
       id="linearGradient3127"
       gradientUnits="userSpaceOnUse"
       x1="63.74054"
       y1="90.37838"
       x2="96.086487"
       y2="113.03784"
       gradientTransform="matrix(1,0,0,0.81375293,0,20.05073)" />
    <linearGradient
       inkscape:collect="always"
       xlink:href="#linearGradient2338"
       id="linearGradient3134"
       gradientUnits="userSpaceOnUse"
       x1="56.653049"
       y1="98.429657"
       x2="58.692608"
       y2="123.99252"
       gradientTransform="matrix(1,0,0,0.81375293,0,20.05073)" />
    <linearGradient
       inkscape:collect="always"
       xlink:href="#linearGradient2338"
       id="linearGradient3423"
       gradientUnits="userSpaceOnUse"
       gradientTransform="matrix(1.771998,0,0,1.4419667,-68.41969,-113.90721)"
       x1="64.951347"
       y1="76.627029"
       x2="78.875679"
       y2="79.827026" />
    <linearGradient
       inkscape:collect="always"
       xlink:href="#linearGradient2338"
       id="linearGradient3425"
       gradientUnits="userSpaceOnUse"
       gradientTransform="matrix(1.771998,0,0,1.4419667,-68.41969,-113.90721)"
       x1="67.286484"
       y1="70.443245"
       x2="94.875679"
       y2="75.027023" />
    <linearGradient
       inkscape:collect="always"
       xlink:href="#linearGradient2338"
       id="linearGradient3427"
       gradientUnits="userSpaceOnUse"
       gradientTransform="matrix(1.771998,0,0,1.4419667,-68.41969,-113.90721)"
       x1="62.616215"
       y1="73.081078"
       x2="66.162163"
       y2="37.535133" />
    <linearGradient
       inkscape:collect="always"
       xlink:href="#linearGradient2888"
       id="linearGradient3429"
       gradientUnits="userSpaceOnUse"
       gradientTransform="matrix(1.771998,0,0,1.4419667,-68.41969,-113.90721)"
       x1="58.118919"
       y1="51.382431"
       x2="80.432434"
       y2="65.739189" />
    <linearGradient
       inkscape:collect="always"
       xlink:href="#linearGradient2338"
       id="linearGradient3431"
       gradientUnits="userSpaceOnUse"
       gradientTransform="matrix(1.771998,0,0,1.4419667,-68.41969,-113.90721)"
       x1="53.571938"
       y1="51.219669"
       x2="55.039661"
       y2="53.665878" />
    <linearGradient
       inkscape:collect="always"
       xlink:href="#linearGradient2338"
       id="linearGradient3433"
       gradientUnits="userSpaceOnUse"
       gradientTransform="matrix(1.771998,0,0,1.4419667,-68.41969,-113.90721)"
       x1="81.886787"
       y1="50.118877"
       x2="85.066856"
       y2="54.399742" />
    <linearGradient
       inkscape:collect="always"
       xlink:href="#linearGradient2338"
       id="linearGradient3435"
       gradientUnits="userSpaceOnUse"
       gradientTransform="matrix(1.771998,0,0,1.4419667,-68.41969,-113.90721)"
       x1="65.741821"
       y1="58.435982"
       x2="74.181236"
       y2="62.105293" />
    <linearGradient
       inkscape:collect="always"
       xlink:href="#linearGradient2338"
       id="linearGradient3437"
       gradientUnits="userSpaceOnUse"
       gradientTransform="matrix(1.771998,0,0,1.4419667,-68.41969,-113.90721)"
       x1="65.619507"
       y1="54.522049"
       x2="77.605927"
       y2="56.417858" />
    <linearGradient
       inkscape:collect="always"
       xlink:href="#linearGradient2338"
       id="linearGradient3439"
       gradientUnits="userSpaceOnUse"
       gradientTransform="matrix(1.771998,0,0,1.4419667,-68.41969,-113.90721)"
       x1="67.087234"
       y1="55.317066"
       x2="65.252579"
       y2="39.294411" />
    <linearGradient
       inkscape:collect="always"
       xlink:href="#linearGradient2888"
       id="linearGradient3441"
       gradientUnits="userSpaceOnUse"
       gradientTransform="matrix(1.771998,0,0,1.4419667,-68.41969,-113.90721)"
       x1="61.460957"
       y1="46.602451"
       x2="71.612717"
       y2="52.595661" />
    <linearGradient
       inkscape:collect="always"
       xlink:href="#linearGradient2338"
       id="linearGradient3443"
       gradientUnits="userSpaceOnUse"
       gradientTransform="matrix(1.771998,0,0,1.4419667,-68.41969,-113.90721)"
       x1="68.126869"
       y1="43.911625"
       x2="70.94001"
       y2="48.131332" />
    <linearGradient
       inkscape:collect="always"
       xlink:href="#linearGradient2338"
       id="linearGradient3445"
       gradientUnits="userSpaceOnUse"
       gradientTransform="matrix(1.771998,0,0,1.4419667,-68.41969,-113.90721)"
       x1="67.087227"
       y1="45.440506"
       x2="71.184631"
       y2="49.109818" />
    <linearGradient
       inkscape:collect="always"
       xlink:href="#linearGradient2338"
       id="linearGradient3447"
       gradientUnits="userSpaceOnUse"
       gradientTransform="matrix(1.771998,0,0,1.4419667,-68.41969,-113.90721)"
       x1="68.310341"
       y1="45.318195"
       x2="66.90377"
       y2="41.893505" />
    <linearGradient
       inkscape:collect="always"
       xlink:href="#linearGradient2888"
       id="linearGradient3449"
       gradientUnits="userSpaceOnUse"
       gradientTransform="matrix(1.771998,0,0,1.4419667,-68.41969,-113.90721)"
       x1="67.087234"
       y1="42.74968"
       x2="68.738426"
       y2="44.462025" />
    <linearGradient
       inkscape:collect="always"
       xlink:href="#linearGradient2888"
       id="linearGradient3451"
       gradientUnits="userSpaceOnUse"
       gradientTransform="matrix(1.771998,0,0,1.4419667,-68.41969,-113.90721)"
       x1="62.439438"
       y1="36.573006"
       x2="67.759941"
       y2="41.343109" />
    <linearGradient
       inkscape:collect="always"
       xlink:href="#linearGradient2888"
       id="linearGradient3453"
       gradientUnits="userSpaceOnUse"
       gradientTransform="matrix(1.771998,0,0,1.4419667,-68.41969,-113.90721)"
       x1="69.013618"
       y1="37.03167"
       x2="74.0895"
       y2="49.170971" />
    <linearGradient
       inkscape:collect="always"
       xlink:href="#linearGradient2338"
       id="linearGradient4444"
       gradientUnits="userSpaceOnUse"
       gradientTransform="matrix(1,0,0,0.81375293,0,20.05073)"
       x1="67.286484"
       y1="70.443245"
       x2="94.875679"
       y2="75.027023" />
    <linearGradient
       inkscape:collect="always"
       xlink:href="#linearGradient2338"
       id="linearGradient4446"
       gradientUnits="userSpaceOnUse"
       gradientTransform="matrix(1,0,0,0.81375293,0,20.05073)"
       x1="62.616215"
       y1="73.081078"
       x2="66.162163"
       y2="37.535133" />
    <linearGradient
       inkscape:collect="always"
       xlink:href="#linearGradient2338"
       id="linearGradient4448"
       gradientUnits="userSpaceOnUse"
       gradientTransform="matrix(1,0,0,0.81375293,0,20.05073)"
       x1="53.571938"
       y1="51.219669"
       x2="55.039661"
       y2="53.665878" />
    <linearGradient
       inkscape:collect="always"
       xlink:href="#linearGradient2338"
       id="linearGradient4450"
       gradientUnits="userSpaceOnUse"
       gradientTransform="matrix(1,0,0,0.81375293,0,20.05073)"
       x1="81.886787"
       y1="50.118877"
       x2="85.066856"
       y2="54.399742" />
    <linearGradient
       inkscape:collect="always"
       xlink:href="#linearGradient2338"
       id="linearGradient4454"
       gradientUnits="userSpaceOnUse"
       gradientTransform="matrix(1,0,0,0.81375293,0,20.05073)"
       x1="65.741821"
       y1="58.435982"
       x2="74.181236"
       y2="62.105293" />
    <linearGradient
       inkscape:collect="always"
       xlink:href="#linearGradient2338"
       id="linearGradient4456"
       gradientUnits="userSpaceOnUse"
       gradientTransform="matrix(1,0,0,0.81375293,0,20.05073)"
       x1="65.619507"
       y1="54.522049"
       x2="77.605927"
       y2="56.417858" />
    <linearGradient
       inkscape:collect="always"
       xlink:href="#linearGradient2338"
       id="linearGradient4458"
       gradientUnits="userSpaceOnUse"
       gradientTransform="matrix(1,0,0,0.81375293,0,20.05073)"
       x1="67.087234"
       y1="55.317066"
       x2="65.252579"
       y2="39.294411" />
    <linearGradient
       inkscape:collect="always"
       xlink:href="#linearGradient2888"
       id="linearGradient4460"
       gradientUnits="userSpaceOnUse"
       gradientTransform="matrix(1,0,0,0.81375293,0,20.05073)"
       x1="61.460957"
       y1="46.602451"
       x2="71.612717"
       y2="52.595661" />
    <linearGradient
       inkscape:collect="always"
       xlink:href="#linearGradient2338"
       id="linearGradient4462"
       gradientUnits="userSpaceOnUse"
       gradientTransform="matrix(1,0,0,0.81375293,0,20.05073)"
       x1="68.126869"
       y1="43.911625"
       x2="70.94001"
       y2="48.131332" />
    <linearGradient
       inkscape:collect="always"
       xlink:href="#linearGradient2338"
       id="linearGradient4464"
       gradientUnits="userSpaceOnUse"
       gradientTransform="matrix(1,0,0,0.81375293,0,20.05073)"
       x1="67.087227"
       y1="45.440506"
       x2="71.184631"
       y2="49.109818" />
    <linearGradient
       inkscape:collect="always"
       xlink:href="#linearGradient2338"
       id="linearGradient4466"
       gradientUnits="userSpaceOnUse"
       gradientTransform="matrix(1,0,0,0.81375293,0,20.05073)"
       x1="68.310341"
       y1="45.318195"
       x2="66.90377"
       y2="41.893505" />
    <linearGradient
       inkscape:collect="always"
       xlink:href="#linearGradient2888"
       id="linearGradient4468"
       gradientUnits="userSpaceOnUse"
       gradientTransform="matrix(1,0,0,0.81375293,0,20.05073)"
       x1="67.087234"
       y1="42.74968"
       x2="68.738426"
       y2="44.462025" />
    <linearGradient
       inkscape:collect="always"
       xlink:href="#linearGradient2888"
       id="linearGradient4470"
       gradientUnits="userSpaceOnUse"
       gradientTransform="matrix(1,0,0,0.81375293,0,20.05073)"
       x1="62.439438"
       y1="36.573006"
       x2="67.759941"
       y2="41.343109" />
    <linearGradient
       inkscape:collect="always"
       xlink:href="#linearGradient2888"
       id="linearGradient4472"
       gradientUnits="userSpaceOnUse"
       gradientTransform="matrix(1,0,0,0.81375293,0,20.05073)"
       x1="69.013618"
       y1="37.03167"
       x2="74.0895"
       y2="49.170971" />
  </defs>
  <sodipodi:namedview
     id="base"
     pagecolor="#ff00ff"
     bordercolor="#666666"
     borderopacity="1.0"
     gridtolerance="10000"
     guidetolerance="10"
     objecttolerance="10"
     inkscape:pageopacity="0"
     inkscape:pageshadow="2"
     inkscape:zoom="4.1600717"
     inkscape:cx="82.155332"
     inkscape:cy="41.143629"
     inkscape:document-units="px"
     inkscape:current-layer="g3176"
     showgrid="false"
     width="744.09px"
     inkscape:window-width="1440"
     inkscape:window-height="874"
     inkscape:window-x="0"
     inkscape:window-y="0"
     showguides="false"
     inkscape:guide-bbox="true"
     inkscape:window-maximized="1" />
  <metadata
     id="metadata7">
    <rdf:RDF>
      <cc:Work
         rdf:about="">
        <dc:format>image/svg+xml</dc:format>
        <dc:type
           rdf:resource="http://purl.org/dc/dcmitype/StillImage" />
        <dc:title />
        <dc:description>jfitie@gmail.com</dc:description>
        <cc:license
           rdf:resource="http://creativecommons.org/publicdomain/zero/1.0/" />
      </cc:Work>
      <cc:License
         rdf:about="http://creativecommons.org/publicdomain/zero/1.0/">
        <cc:permits
           rdf:resource="http://creativecommons.org/ns#Reproduction" />
        <cc:permits
           rdf:resource="http://creativecommons.org/ns#Distribution" />
        <cc:permits
           rdf:resource="http://creativecommons.org/ns#DerivativeWorks" />
      </cc:License>
    </rdf:RDF>
  </metadata>
  <g
     inkscape:label="color"
     inkscape:groupmode="layer"
     id="layer1"
     style="display:inline"
     transform="translate(0,78)" />
  <g
     id="g3176"
     inkscape:groupmode="layer"
     inkscape:label="outline"
     style="display:inline"
     transform="translate(0,78)">
    <path
       style="display:inline;fill:#ffffff;fill-opacity:1;fill-rule:evenodd;stroke:#ffffff;stroke-width:0.96407866"
       d="m 44.125396,-68.197452 c -7.51502,-0.206619 -10.25182,8.573079 -9.501457,14.634404 -3.939903,2.514806 -6.607723,7.139105 -11.817501,7.055469 -9.18538,2.644601 -17.2731949,9.880319 -19.56968,19.292859 -0.43031,9.041219 1.6961934,11.715019 7.959915,17.019012 5.245031,4.3793489 13.810567,7.4545994 17.716233,14.4622784 C 41.040112,15.110658 60.45086,13.171986 73.522283,4.8935971 77.154714,4.4340491 70.689846,-0.67633004 75.213188,-0.99631689 85.896262,-4.409076 98.485281,-11.64949 99.516644,-24.111594 c 0.149789,-13.106404 -12.465127,-21.859137 -24.23002,-23.97391 -3.178694,-1.287917 -5.551828,-4.155015 -8.02709,-6.311698 1.064567,-7.96039 -8.689046,-14.217913 -15.577789,-10.574731 -1.972991,-1.996348 -4.738177,-3.226488 -7.556349,-3.225519 z"
       id="path3113-1"
       inkscape:connector-curvature="0"
       sodipodi:nodetypes="ccccccccccccc" />
    <path
       inkscape:connector-curvature="0"
       style="display:inline;fill:url(#linearGradient3423);fill-rule:evenodd;stroke:none"
       d="m 32.421364,0.70185966 1.226031,-4.73900406 7.969201,2.1200795 9.961503,0.6235529 7.969201,-0.8729737 9.654995,-1.99537 1.072777,5.4872665 -5.670394,2.9930566 -9.808248,1.99537 -8.735472,0.2494208 -7.356185,-1.99537 -4.75087,-2.2447925 -1.532539,-1.62123604 z"
       id="path3028" />
    <path
       inkscape:connector-curvature="0"
       style="display:inline;fill:url(#linearGradient3425);fill-rule:evenodd;stroke:none"
       d="m 9.4332813,-30.101667 -1.532539,4.11545 0.3065078,3.491898 1.5325391,3.61661 3.9846018,4.614292 10.727771,6.8590839 9.654994,3.8660321 11.034281,1.6212361 9.195232,0.3741321 11.340788,-1.4965284 7.356185,-2.1200794 10.114756,-4.4895833 8.582217,-6.2355321 3.524841,-4.739002 0.919523,-3.491899 -1.379286,-5.362558 -1.072776,3.990741 -2.605318,4.988425 -3.065076,3.367187 -5.823648,3.741319 -9.195233,3.8660304 -11.49404,2.1200795 -8.275711,1.2471075 -4.904123,-0.1247131 -8.428964,-1.1223909 -8.122456,-1.8706586 -9.04198,-3.1177658 -5.976899,-3.741319 -3.524841,-3.367187 -2.605315,-4.364872 -1.0727769,-2.369502 -0.1532601,-3.866029 z"
       id="path3032" />
    <path
       inkscape:connector-curvature="0"
       style="display:inline;fill:url(#linearGradient3427);fill-rule:evenodd;stroke:none"
       d="m 32.574618,-45.939918 -8.888726,3.491898 -6.130155,2.369502 -3.678093,3.367187 -3.524839,4.115451 -1.2260315,4.739004 1.0727785,3.741319 3.218331,5.113136 4.904123,4.364872 12.413565,5.1131364 5.976902,1.6212379 9.348485,1.4965265 6.436664,0.3741339 7.815949,-0.8729755 9.348485,-1.7459473 8.582219,-2.7436359 4.597615,-2.3695 3.065078,-1.745949 2.911824,-2.244793 3.524839,-4.489581 1.992301,-6.110821 -1.992301,-5.861401 -4.597616,-5.113136 -9.654995,-4.489583 -8.275709,-1.99537 -37.240693,-0.124713 z"
       id="path3036" />
    <path
       inkscape:connector-curvature="0"
       style="display:inline;fill:url(#linearGradient3429);fill-rule:evenodd;stroke:none"
       d="m 31.961603,-41.076203 -7.815949,3.242477 -3.065078,2.12008 -3.831346,3.242477 -2.425768,5.274374 2.11926,5.076608 6.896425,5.113136 7.049678,2.743634 9.50174,1.870659 c 0,0 8.275711,0.249423 10.881026,0.872974 2.605316,0.623554 12.413564,-0.872974 12.413564,-0.872974 l 9.348487,-2.120079 8.888725,-3.990742 3.984601,-3.741317 3.371586,-5.61198 -2.605317,-4.240162 -1.9923,-2.618923 -5.363886,-3.367187 -6.74317,-2.618923 -40.612278,-0.374132 z"
       id="path3042"
       sodipodi:nodetypes="cccccccccscccccccccc" />
    <path
       inkscape:connector-curvature="0"
       style="display:inline;fill:url(#linearGradient3431);fill-rule:evenodd;stroke:none"
       d="m 14.04749,-28.894911 1.73387,-4.144636 2.492437,-3.439165 5.418343,-4.232821 7.694047,-2.645512 0,2.557328 -4.443042,1.322758 -4.443041,2.38096 -3.251005,2.733695 -2.492439,2.733696 -1.842236,4.409186 -0.866934,-1.675489 z"
       id="path3046" />
    <path
       inkscape:connector-curvature="0"
       style="display:inline;fill:url(#linearGradient3433);fill-rule:evenodd;stroke:none"
       d="m 72.132126,-43.621597 6.827111,2.82188 5.093243,3.350982 3.684473,3.96827 1.625504,4.761921 -3.034272,-3.791901 -3.14264,-3.350982 -4.984875,-2.645512 -5.851811,-2.116411 -0.216733,-2.998247 z"
       id="path3050" />
    <path
       inkscape:connector-curvature="0"
       style="display:inline;fill:#000000;fill-opacity:0.54901961;fill-rule:evenodd;stroke:none;filter:url(#filter3197)"
       d="m 60.75,60 -2.5,-3.5 c 0,0 -3.75,-0.75 -3.75,-2.75 0,-2 5.75,-5.75 9.5,-4.75 3.75,1 6.5,5.75 5.5,6.75 -1,1 -8,4.75 -8.75,4.25 z"
       id="path3115"
       sodipodi:nodetypes="ccsssc"
       transform="matrix(1.771998,0,0,1.4419667,-68.41969,-113.90721)" />
    <path
       inkscape:connector-curvature="0"
       style="display:inline;fill:url(#linearGradient3435);fill-rule:evenodd;stroke:none"
       d="m 38.755133,-27.131238 1.517137,-4.409186 3.467738,1.322756 6.176912,0.881838 4.768142,0 9.861383,-2.82188 0.758569,4.585553 -3.034273,2.380962 -8.452615,2.292778 -4.984875,-0.264552 c 0,0 -3.251005,-0.529102 -3.792839,-0.705471 -0.541835,-0.176366 -6.176912,-3.174613 -6.285279,-3.262798 z"
       id="path3054" />
    <path
       inkscape:connector-curvature="0"
       style="display:inline;fill:url(#linearGradient3437);fill-rule:evenodd;stroke:none"
       d="m 31.711287,-43.357045 -0.433466,1.499124 0.216733,1.675491 1.517137,3.615534 3.359371,3.174614 3.576106,1.763674 c 0,0 5.851811,1.499125 6.93548,1.85186 1.083669,0.352733 6.827111,0.529102 6.827111,0.529102 l 4.226308,-0.617285 7.694047,-2.733697 4.659775,-3.615534 1.842237,-3.439166 0.108357,-2.557328 -1.083668,-2.469145 -39.445537,1.322756 z"
       id="path3058" />
    <path
       inkscape:connector-curvature="0"
       id="path3109"
       d="m 31.711287,-43.357045 -0.433466,1.499124 0.216733,1.675491 1.517137,3.615534 3.359371,3.174614 3.576106,1.763674 c 0,0 5.851811,1.499125 6.93548,1.85186 1.083669,0.352733 6.827111,0.529102 6.827111,0.529102 l 4.226308,-0.617285 7.694047,-2.733697 4.659775,-3.615534 1.842237,-3.439166 0.108357,-2.557328 -1.083668,-2.469145 -39.445537,1.322756 z"
       style="display:inline;fill:#000000;fill-opacity:0.15686275;fill-rule:evenodd;stroke:none" />
    <path
       inkscape:connector-curvature="0"
       style="display:inline;fill:url(#linearGradient3439);fill-rule:evenodd;stroke:none"
       d="m 31.819655,-45.032536 0.108358,2.55733 1.408768,2.910063 2.492438,1.940042 3.359373,1.851857 7.260579,2.11641 4.117941,0.352735 4.551407,-0.264552 7.910782,-1.940041 5.52671,-2.82188 2.817538,-5.467392 -2.492439,-4.144635 -4.876508,-3.439166 -5.960177,-2.11641 -10.836686,-0.176366 -8.452615,2.204593 -4.876508,3.174615 -2.05897,3.703716 0,-0.440919 z"
       id="path3063" />
    <path
       inkscape:connector-curvature="0"
       style="display:inline;fill:url(#linearGradient3441);fill-rule:evenodd;stroke:none"
       d="m 36.045962,-44.062515 0.758568,3.350982 4.009574,2.469145 3.467738,1.058203 7.260581,0.705473 7.152211,-0.705473 5.309977,-2.292774 2.275704,-2.204595 0.541835,-1.410939 c -0.944307,-1.549568 -2.253482,-2.50531 -3.46774,-3.615534 l -5.851811,-1.675489 -13.004022,0.440917 c -2.420193,-0.103219 -4.840386,1.298833 -7.260579,2.55733 l -1.192036,1.322754 z"
       id="path3067"
       sodipodi:nodetypes="cccccccccccccc" />
    <path
       inkscape:connector-curvature="0"
       style="display:inline;fill:#ffffff;fill-opacity:0.1254902;fill-rule:evenodd;stroke:none"
       d="m 40.651554,-45.473455 -1.517137,0.13228 -0.541835,0.352735 -0.216733,0.661378 1.462953,1.807765 1.083669,0.176367 1.73387,0.176367 1.679685,-0.396828 0.650201,-0.396826 0.108358,-0.881837 -0.433466,-1.146388 -0.758569,-0.396827 -3.251005,-0.08819 z"
       id="path3097" />
    <path
       inkscape:connector-curvature="0"
       style="display:inline;fill:url(#linearGradient3443);fill-rule:evenodd;stroke:none"
       d="m 35.07066,-44.591617 2.492438,-3.615533 6.718744,-2.557328 12.895657,-0.352735 7.802414,2.733695 2.167338,2.998249 -0.433468,2.380961 c -0.687177,-1.349375 -1.411682,-2.577247 -2.384071,-2.998249 l -5.526709,-2.204593 -13.220757,-0.352735 -6.827113,1.851858 -2.925905,2.733697 -0.758568,-0.617287 z"
       id="path3071"
       sodipodi:nodetypes="ccccccccccccc" />
    <path
       inkscape:connector-curvature="0"
       style="display:inline;fill:#ffffff;fill-opacity:0.1254902;fill-rule:evenodd;stroke:none"
       d="m 58.748819,-42.78385 -0.650201,0.485011 -0.216734,0.529102 -0.487652,0.925928 0.379284,0.573194 0.866936,0.573197 1.571319,0.440918 1.679686,0 0.921118,-0.396828 0.975303,-0.70547 0.433468,-0.881837 -0.596019,-0.661378 -1.517135,-0.440919 -3.359373,-0.440918 z"
       id="path3099" />
    <path
       inkscape:connector-curvature="0"
       sodipodi:nodetypes="ccccccccccccc"
       id="path3075"
       d="m 35.07066,-44.591617 2.492438,-3.615533 6.718744,-2.557328 12.895657,-0.352735 7.802414,2.733695 2.167338,2.998249 -0.433468,2.380961 c -0.687177,-1.349375 -1.411682,-2.577247 -2.384071,-2.998249 l -5.526709,-2.204593 -13.220757,-0.352735 -6.827113,1.851858 -2.925905,2.733697 -0.758568,-0.617287 z"
       style="display:inline;fill:#000000;fill-opacity:0.15686275;fill-rule:evenodd;stroke:none" />
    <path
       inkscape:connector-curvature="0"
       style="display:inline;fill:url(#linearGradient3445);fill-rule:evenodd;stroke:none"
       d="m 45.798979,-44.062515 1.192036,-7.936535 c 0.116668,1.82325 1.48602,2.287345 2.384071,3.262798 2.803093,0.570259 4.852281,0.220283 6.502011,-0.617287 1.437243,-0.590381 0.984131,-1.796073 1.083669,-2.821878 l 0.758568,8.465637 -4.768142,1.587307 -5.418343,-0.881835 -1.73387,-1.058207 z"
       id="path3077"
       sodipodi:nodetypes="ccccccccc" />
    <path
       inkscape:connector-curvature="0"
       style="display:inline;fill:url(#linearGradient3447);fill-rule:evenodd;stroke:none"
       d="m 49.808553,-48.736252 -2.925905,-2.028226 -0.108358,-0.97002 2.492438,-1.410941 4.984875,-0.352736 3.034272,1.675491 -0.650201,1.499123 -2.492438,1.763676 -4.334674,-0.176367 z"
       id="path3081" />
    <path
       inkscape:connector-curvature="0"
       style="display:inline;fill:url(#linearGradient3449);fill-rule:evenodd;stroke:none"
       d="m 51.542423,-52.2636 -2.384071,0.440916 0.758568,1.587308 2.492437,0.440919 2.492438,-1.146389 -0.866934,-0.970021 -2.492438,-0.352733 z"
       id="path3085" />
    <path
       inkscape:connector-curvature="0"
       style="display:inline;fill:url(#linearGradient3451);fill-rule:evenodd;stroke:none"
       d="m 51.000589,-51.469948 0.650201,-1.058204 -0.325101,-1.763676 0.05419,-3.703716 -1.083669,-3.483258 -1.462952,-1.984134 -2.329887,-1.234572 -2.654988,-0.308643 -1.950605,0.705469 -1.571319,1.410941 -0.921118,2.777787 -0.379284,2.292777 0.162545,3.174615 1.029485,6.922422 0.433468,2.336871 0.216733,1.014111 0.541834,0.529102 0.975303,0.264552 1.029484,-0.13228 0.541835,-0.529102 -0.650201,-4.321004 -0.650201,-4.982381 -0.108358,-2.821878 0.758568,-2.689604 1.73387,-1.895951 1.73387,-0.529103 0.866934,1.146389 0.541834,1.675491 0.650201,2.292778 0.48765,2.733695 0.866936,1.807765 c 0.276184,0.557897 0.393146,0.611814 0.812752,0.352737 z"
       id="path3089"
       sodipodi:nodetypes="cccccccccccccccccccccccccccccccc" />
    <path
       inkscape:connector-curvature="0"
       style="display:inline;fill:url(#linearGradient3453);fill-opacity:1;fill-rule:evenodd;stroke:none"
       d="m 51.921707,-51.381765 -0.216735,-1.543213 -0.433466,-0.970023 0.270917,-3.130522 0.758568,-2.821879 0.812752,-1.455033 0.921118,-0.749562 1.300402,-0.617285 1.679686,-0.26455 1.73387,0.352734 1.517136,0.617287 1.354585,1.014111 0.541834,0.749561 0.75857,1.455034 0.596016,1.675489 0.325102,1.587308 0.108357,2.601421 -0.596018,5.158747 -0.812752,4.232819 -0.433466,1.6314 -0.270917,0.837745 -0.379284,0.264552 -0.800169,0.197306 -1.204618,-0.241399 -0.487652,-1.102296 1.246219,-6.084677 0.270918,-4.01236 -0.325102,-3.350982 -1.571319,-2.777788 -2.275703,-1.763674 -0.704385,0.70547 -0.541834,1.322754 -0.650201,2.425054 -0.325102,1.984134 -0.325099,1.763674 -0.325102,0.793654 -0.48765,0.176367 c 0,0 -1.083669,0.617287 -1.029485,-0.661378 z"
       id="path3093"
       sodipodi:nodetypes="cccccccccccccccccccccccccccccccccccccc" />
    <path
       inkscape:connector-curvature="0"
       id="path3103"
       d="m 32.421364,0.70185966 1.226031,-4.73900406 7.969201,2.1200795 9.961503,0.6235529 7.969201,-0.8729737 9.654995,-1.99537 1.072777,5.4872665 -5.670394,2.9930566 -9.808248,1.99537 -8.735472,0.2494208 -7.356185,-1.99537 -4.75087,-2.2447925 -1.532539,-1.62123604 z"
       style="display:inline;fill:#000000;fill-opacity:0.15686275;fill-rule:evenodd;stroke:none" />
    <path
       inkscape:connector-curvature="0"
       id="path3105"
       d="m 9.4332813,-30.101667 -1.532539,4.11545 0.3065078,3.491898 1.5325391,3.61661 3.9846018,4.614292 10.727771,6.8590839 9.654994,3.8660321 11.034281,1.6212361 9.195232,0.3741321 11.340788,-1.4965284 7.356185,-2.1200794 10.114756,-4.4895833 8.582217,-6.2355321 3.524841,-4.739002 0.919523,-3.491899 -1.379286,-5.362558 -1.072776,3.990741 -2.605318,4.988425 -3.065076,3.367187 -5.823648,3.741319 -9.195233,3.8660304 -11.49404,2.1200795 -8.275711,1.2471075 -4.904123,-0.1247131 -8.428964,-1.1223909 -8.122456,-1.8706586 -9.04198,-3.1177658 -5.976899,-3.741319 -3.524841,-3.367187 -2.605315,-4.364872 -1.0727769,-2.369502 -0.1532601,-3.866029 z"
       style="display:inline;fill:#000000;fill-opacity:0.15686275;fill-rule:evenodd;stroke:none" />
    <path
       inkscape:connector-curvature="0"
       id="path3107"
       d="m 38.755133,-27.131238 1.517137,-4.409186 3.467738,1.322756 6.176912,0.881838 4.768142,0 9.861383,-2.82188 0.758569,4.585553 -3.034273,2.380962 -8.452615,2.292778 -4.984875,-0.264552 c 0,0 -3.251005,-0.529102 -3.792839,-0.705471 -0.541835,-0.176366 -6.176912,-3.174613 -6.285279,-3.262798 z"
       style="display:inline;fill:#000000;fill-opacity:0.15686275;fill-rule:evenodd;stroke:none" />
    <path
       inkscape:connector-curvature="0"
       id="path3204"
       d="m 40.651554,-45.473455 -1.517137,0.13228 -0.541835,0.352735 -0.216733,0.661378 1.462953,1.807765 1.083669,0.176367 1.73387,0.176367 1.679685,-0.396828 0.650201,-0.396826 0.108358,-0.881837 -0.433466,-1.146388 -0.758569,-0.396827 -3.251005,-0.08819 z"
       style="fill:#ffffff;fill-opacity:0.1254902;fill-rule:evenodd;stroke:none" />
    <path
       inkscape:connector-curvature="0"
       id="path3208"
       d="m 58.748819,-42.78385 -0.650201,0.485011 -0.216734,0.529102 -0.487652,0.925928 0.379284,0.573194 0.866936,0.573197 1.571319,0.440918 1.679686,0 0.921118,-0.396828 0.975303,-0.70547 0.433468,-0.881837 -0.596019,-0.661378 -1.517135,-0.440919 -3.359373,-0.440918 z"
       style="fill:#ffffff;fill-opacity:0.1254902;fill-rule:evenodd;stroke:none" />
    <path
       inkscape:connector-curvature="0"
       sodipodi:nodetypes="cccccsssccccccccccscccccsscccccccccccccsscccccssccccccccccccccccccccccccccccccccccccccccccccccccccccccccccccccccccccccccsccccccsccccccccccccsccccccccccccccccccccccccccccccccccccccccccccccccccccccccccccccccccccccccccccccccccsccccccccccccccccccc"
       id="path3228"
       d="m 44.046808,-65.06059 c -0.940851,0.108056 -1.931807,0.466552 -2.990247,1.081474 -2.659175,3.572065 -2.360694,7.831806 -1.716623,11.941287 -3.161044,1.25909 -5.801083,3.169778 -7.420241,5.948111 -6.035868,2.868913 -8.649502,1.418347 -17.881516,7.928475 -10.1392463,10.360222 -7.7467248,19.757877 2.034828,25.981784 11.896699,7.5697527 23.220774,11.50361327 37.358827,11.0982622 3.819653,-0.1095094 18.99828,-1.6166006 30.221475,-8.2946038 10.917918,-6.4963594 17.793909,-15.4895854 6.987467,-28.1133254 -4.971112,-4.652461 -12.21451,-6.654983 -19.571,-8.690713 -1.436295,-2.739878 -3.951244,-4.588846 -6.977243,-5.81293 0.145411,-2.852695 -0.241076,-5.810404 -2.104247,-8.786982 -2.822506,-2.357527 -4.994742,-2.692936 -7.697117,-1.532091 -2.127235,1.349276 -2.647758,3.204569 -2.768746,5.452436 -0.07437,-2.499575 -0.479921,-4.680362 -2.768747,-6.714157 -1.688984,-1.155019 -3.138785,-1.667136 -4.70687,-1.487027 z m 0.830624,0.225304 c 1.191275,0.03845 2.442347,0.468902 3.820871,1.351847 2.362445,2.628938 2.81804,5.914797 2.547247,9.057352 -0.0947,1.098972 0.876054,1.600971 -0.498375,3.199365 0.341925,-0.19745 0.580814,-0.412943 0.719875,-0.675923 0.07384,0.382822 0.32228,0.723603 0.664499,1.081476 -0.05167,-0.164902 0.04258,-0.292606 0.05537,-0.585799 -1.319274,-1.936309 -0.577353,-9.477278 2.214997,-10.81475 0.689262,-0.266202 1.355251,-0.436399 1.993498,-0.495677 0.239342,-0.02224 0.487454,-0.05139 0.719874,-0.04506 1.626944,0.04428 3.079315,0.796413 4.48537,2.027766 3.503219,5.102497 1.918615,10.276161 1.218249,14.825221 -0.175428,0.866444 -0.365228,2.545945 -0.775249,3.695038 -0.04304,0.401077 -0.184935,0.91685 -0.387625,1.261721 -1.185954,0.937558 -3.24823,-0.160241 -2.381122,-1.081474 0.214045,-2.239361 1.538596,-5.557962 1.439748,-7.885756 -0.207605,-3.500971 0.440227,-7.622863 -4.319245,-10.048704 -1.804296,0.572379 -1.175409,1.63964 -2.270372,4.551206 0.108623,0.732325 -0.388045,4.497306 -1.052124,4.551208 -0.07868,0.09305 -0.07366,0.07462 -0.11075,0.180245 0.563673,-0.135309 0.550562,-0.365692 0.775249,-0.856168 0.164938,0.04928 0.316038,0.10935 0.498375,0.180246 -1.231498,1.97925 -4.340665,0.957764 -4.59612,-0.180246 0.115162,-0.05959 0.223312,-0.09447 0.332249,-0.135185 0.08835,0.07577 0.172611,0.158788 0.276875,0.225307 0.0013,-0.120159 0,-0.240456 0,-0.360491 -0.644013,-0.630596 -1.430591,-4.117411 -1.328998,-4.776515 -1.094962,-3.190007 -0.466077,-4.105812 -2.270373,-5.137007 -4.75947,1.215557 -4.111639,5.473991 -4.319245,8.922168 -0.09884,2.302661 1.225703,5.99752 1.439748,8.29131 0.423628,0.740248 -1.87046,1.294138 -2.768747,0.31543 -0.20777,-0.226373 0.203429,-0.580588 0.05538,-0.991352 -0.460432,-1.277427 -0.645094,-3.182097 -0.830624,-4.145655 -0.700364,-4.727155 -2.229595,-10.298127 1.273624,-14.509788 1.071281,-0.665761 2.186596,-1.029798 3.377871,-0.991354 z m 1.938123,3.60492 c 1.49384,1.844571 1.686806,4.867486 2.159622,7.164772 -2.036139,0.14137 -4.020319,0.457935 -5.925118,0.901228 -0.7991,-3.333069 0.05024,-7.354032 3.765496,-8.066 z m 9.413739,1.757396 c 2.724931,1.21511 3.908821,3.816129 4.042371,6.353666 -1.910841,-0.437954 -3.914831,-0.74867 -5.925119,-0.90123 0.340345,-1.982815 0.646183,-4.239984 1.882748,-5.452436 z m -8.41699,6.533911 c -0.522711,0.264728 -1.046959,0.574148 -1.550498,0.991352 -0.0057,0.08054 9.25e-4,0.148635 0,0.225308 l -0.05537,0.315431 c -1.00899,0.120864 -2.000861,0.268324 -2.990247,0.450613 -0.04214,-0.394944 -0.0455,-0.773903 -0.05537,-1.171597 1.411492,-0.336713 2.952097,-0.591016 4.651495,-0.811107 z m 6.312743,0 c 1.098493,0.264602 2.069819,0.726421 2.768747,1.441967 -0.640565,1.300906 -2.258828,2.407428 -3.820871,2.79381 -2.799895,0.315254 -4.985681,-1.09933 -5.925118,-3.019117 0.62774,-0.429155 1.372898,-0.737886 2.159622,-0.991352 0.07067,0.190339 0.118777,0.376498 0.2215,0.540737 l -0.996749,0.270369 c 0.427551,2.374558 1.897436,2.34378 4.540745,2.208011 1.587313,-0.106408 1.320232,-0.847005 2.214997,-1.622212 -0.504009,-0.566489 -0.877858,-0.870215 -1.273623,-1.081476 0.042,-0.164281 0.0735,-0.36482 0.11075,-0.540737 z m 2.547247,0 c 1.241999,0.169191 2.430844,0.45383 3.599371,0.766045 -0.02461,0.466935 -0.07348,0.912161 -0.166125,1.351845 -0.731892,-0.150691 -1.471049,-0.294699 -2.214998,-0.405553 -0.0074,-0.869124 -0.479499,-1.383162 -1.218248,-1.712337 z m -17.166231,1.937644 c 0.05991,0.358381 0.106249,0.727066 0.166125,1.081474 -2.79395,1.187513 -4.346218,3.111369 -4.983744,5.857991 1.280864,6.588824 9.551281,7.587698 16.557106,7.795631 6.734349,0.02731 13.092311,-1.137015 15.560357,-6.038235 0.225542,-0.544524 0.401393,-1.114048 0.609125,-1.667274 -0.167773,-2.622026 -1.547832,-4.434785 -3.543996,-5.58762 0.06117,-0.439607 0.122764,-0.862083 0.166124,-1.306783 3.151595,1.500242 5.608076,3.787412 6.700368,7.11971 -2.138463,7.800882 -11.071752,9.315197 -19.602728,10.18389 -19.397417,-1.168828 -24.979081,-12.370967 -11.628737,-17.438784 z m 6.644993,0.270368 -0.2215,1.802458 c -0.792386,0.0945 -1.564359,0.254184 -2.325747,0.405553 -0.09004,-0.535705 -0.193765,-1.040101 -0.276875,-1.622213 0.958924,-0.223073 1.896261,-0.437546 2.824122,-0.585798 z m 11.684111,0.270369 c 0.700237,0.15847 1.402503,0.334772 2.104248,0.540737 0.0087,0.52402 -0.0021,1.024922 -0.05537,1.53209 -0.644029,-0.163307 -1.310733,-0.300154 -1.993498,-0.405553 l -0.05538,-1.667274 z m -0.775249,0.04506 0.05537,6.353666 c -3.725705,1.884041 -7.215021,1.835663 -10.742738,-0.180248 l 0.885999,-5.362312 c 1.333193,0.95495 3.559826,1.90923 5.814369,1.802458 1.865602,0.06838 3.503584,-1.408791 3.986995,-2.613564 z m -17.221605,1.396905 c 0.09193,0.468306 0.160507,0.957189 0.2215,1.441967 -1.617174,0.625705 -2.984049,1.462867 -3.876246,2.613564 0.442122,-1.953755 1.747808,-3.156575 3.654746,-4.055531 z m 23.866598,0.540737 c 1.689485,0.961183 2.950208,2.375651 3.100996,4.506146 -0.05624,0.235418 -0.143726,0.455791 -0.221499,0.675922 -0.695488,-1.652933 -1.786123,-2.802381 -3.156372,-3.649978 0.08989,-0.508384 0.19295,-1.015295 0.276875,-1.53209 z m -5.814369,0.5858 c 0.638508,0.08488 1.269362,0.187112 1.882748,0.31543 -0.173124,1.179374 -0.469836,2.275054 -0.553749,3.199363 -0.06165,0.445825 -0.147661,0.919022 -0.2215,1.396905 -0.71339,0.248389 -0.890916,0.319179 -1.439748,1.441966 -0.364888,0.498707 -0.59217,0.98759 -0.05537,1.351845 1.494563,0.833271 2.80735,1.289623 4.70687,1.036412 1.324708,-0.990871 2.891672,-1.388743 1.882747,-2.748748 -0.628077,-0.116083 -0.980845,-0.427469 -1.439748,-0.450615 0.270214,-0.965333 0.33564,-2.14379 0.553749,-3.199363 0.04481,-0.263481 0.06383,-0.545052 0.11075,-0.811106 1.460786,0.748415 2.624861,1.779722 3.211747,3.244425 -1.935063,5.021969 -9.412995,6.002208 -15.283483,6.17342 -6.161634,-0.03574 -12.608684,-1.33338 -14.785108,-6.218482 l 0.05537,0 c 0.04053,-1.602557 1.575035,-2.706307 3.71012,-3.469732 0.05929,0.386132 0.123828,0.732718 0.2215,1.081475 -0.564725,-0.201391 -1.015566,0.12023 -1.771998,0.135186 -1.319454,1.170826 0.160455,1.789604 1.218249,2.974057 1.800491,0.553837 3.205471,0.351039 4.872994,-0.225307 0.614697,-0.270692 0.513385,-0.804274 0.276875,-1.351845 -0.2623,-1.176022 -0.430642,-1.273427 -1.052124,-1.622213 -0.07205,-0.407832 -0.115127,-0.834853 -0.166125,-1.216659 -0.01648,-0.184778 -0.08367,-0.431024 -0.11075,-0.630861 0.694094,-0.132191 1.392904,-0.272712 2.104248,-0.360491 l -0.442999,4.055531 c 4.414956,2.782149 8.172793,2.449031 12.625485,0.405553 l -0.11075,-4.506146 z m -18.162979,2.568545 c 0.277474,-0.0046 0.566625,0.04301 0.830624,0.135186 -0.01921,1.505064 1.182307,1.655524 3.100996,1.57715 0.449229,-0.575634 0.476427,-0.926101 0.387625,-1.622212 0.213069,0.142096 0.432236,0.255077 0.609124,0.360493 -0.08642,0.226819 0.533288,1.303967 -0.05537,1.937642 -1.726377,1.096153 -3.734487,0.644893 -4.706869,0.09012 -2.049513,-1.676756 -1.242725,-2.460533 -0.166125,-2.47838 z m 31.840589,0.09008 c 10.637525,2.436265 20.129655,7.211841 22.0946,16.717801 C 93.244686,-13.135279 67.719718,-7.2195441 51.1348,-6.4356327 34.6018,-6.8853741 9.737257,-13.832572 9.9358466,-28.515748 10.667694,-37.229197 20.682313,-41.398412 31.365947,-45.008242 c -0.403321,0.477895 -0.487133,1.170924 -0.609124,1.667274 -8.799373,1.255598 -14.476942,7.084987 -17.110856,14.419667 2.338327,14.217425 23.365504,17.303283 37.876458,17.844338 14.598798,-0.345383 35.4382,-3.76652 37.876457,-17.844338 -0.78508,-7.8691 -8.813289,-12.194373 -17.055481,-14.960404 -0.08209,-0.863778 -0.490367,-0.855081 -0.775249,-1.351844 z m -40.534454,2.208011 c 0.01329,0.593638 0.102155,1.150578 0.166125,1.712336 -9.346388,2.89874 -15.280322,7.508887 -16.169482,13.157947 -0.06002,-0.25554 -0.12,-0.502781 -0.166125,-0.766046 0.84643,-7.305657 8.378652,-11.613074 16.169482,-14.104237 z m 41.531203,0.09012 c 7.501966,2.330593 13.585248,6.377202 15.671107,12.707332 -2.066396,-5.670836 -8.714502,-8.35837 -15.615732,-10.679566 0.07905,-0.669324 0.06255,-1.338408 -0.05537,-2.027766 z m -0.775249,0.09012 c 0.644915,3.785181 -1.406414,6.03905 -5.371369,9.012292 -9.100323,5.765589 -20.931252,5.25445 -29.736342,-0.09012 -2.48696,-2.441438 -5.333946,-4.634292 -5.149869,-7.795633 2.641516,6.165129 12.192007,8.302328 19.602728,8.651801 7.908526,-0.243694 18.579996,-2.758505 20.654852,-9.778337 z m -12.846986,0.225308 c -0.05293,0.607461 -0.0124,1.233261 0.387625,1.84752 1.984817,0.58515 2.799222,-0.09523 3.211746,-1.21666 1.284564,-0.02798 2.557839,0.922127 -0.2215,2.433319 -1.087982,0.387363 -3.225543,0.49612 -4.651494,-0.856166 -0.423074,-0.715878 0.472609,-1.656336 0.442999,-1.892582 0.231781,-0.0872 0.558848,-0.194792 0.830624,-0.315431 z m -27.632094,2.117887 c 0.48189,2.795359 1.76574,5.240378 4.92837,7.525265 1.118565,0.631508 2.254942,1.189437 3.433246,1.667275 l -1.107499,4.145655 c 6.824379,6.424012 20.174015,5.98638 27.02297,-0.135186 l -0.6645,-4.506148 c 0.03748,-0.12147 1.66015,-0.911025 2.270373,-1.216659 2.945326,-2.313644 4.852872,-4.739458 5.371369,-7.299956 7.244511,2.307406 14.324669,6.099753 15.892607,12.482024 -3.071943,12.78491 -23.481417,15.528002 -36.935083,16.041879 -12.96557,-0.362506 -32.056468,-3.374027 -36.10446,-15.005465 0.274736,-5.575322 6.232789,-10.700322 15.892607,-13.698684 z m -21.4301004,8.516615 c 0,0 0,0 0,0 z M 30.535323,-34.14843 c -7.682036,2.318169 -6.250223,5.338958 -0.11075,8.156124 l 0.11075,-0.450615 c -5.383897,-1.915974 -5.257892,-5.231165 0,-7.254894 l 0,-0.450615 z m 33.723337,2.523443 0.443,4.100591 c -7.212452,5.54285 -19.314172,5.529372 -25.361722,0.225307 l 1.162874,-3.604916 c 5.370972,2.416113 16.069206,2.906358 23.755848,-0.720982 z m 7.807866,1.757396 -0.553749,0.180245 c 6.552989,4.123773 -3.861974,5.9221 -7.973991,6.263543 l 0.2215,0.450615 c 6.74802,0.02213 15.517959,-3.385035 8.30624,-6.894403 z m 22.7591,1.57715 C 97.183041,-21.212716 93.005172,-15.553621 81.4048,-8.8160467 62.947272,0.93520846 40.33777,0.50077182 22.062958,-9.3195663 14.505906,-13.591704 6.0555431,-19.365393 8.8837227,-27.208965 12.430919,-11.937541 34.424963,-6.8358681 51.1348,-6.0300796 68.386829,-6.5560682 91.756049,-12.250759 94.825626,-28.290441 Z m 0.426938,5.011975 c -3.462247,17.5621484 -37.975812,21.9718589 -45.094358,21.8518487 -5.284904,-0.089096 -6.9073,-0.8577806 -16.211572,-2.625745 l -1.861989,5.1419931 c 11.02841,9.1358992 28.532168,6.70195 38.652883,0.450615 L 69.630029,-3.7770065 C 73.838797,-4.986989 77.97169,-6.5475307 81.923265,-8.4633983 88.71687,-13.081914 94.794747,-15.761887 95.252564,-23.278466 Z m -65.38174,1.882428 0,0.360493 c 8.16161,6.089917 17.866138,7.315483 28.019718,4.01047 l 0,-0.540737 c -9.526791,3.233874 -20.273069,1.521054 -28.019718,-3.830226 z m -19.215103,5.001823 0,0 z M 69.408529,-3.7319376 69.07628,-3.146146 70.073029,1.1346926 C 60.094904,7.3359086 41.379168,8.0749832 32.750321,0.81926147 l 1.56197,-4.71087357 c 11.566166,3.36688039 23.391089,3.48668148 35.096238,0.1596745 z"
       style="fill:#000000;fill-opacity:1;stroke:none" />
  </g>
</svg>
