<?xml version="1.0" encoding="UTF-8" standalone="no"?>
<!-- Created with Inkscape (http://www.inkscape.org/) -->

<svg
   xmlns:dc="http://purl.org/dc/elements/1.1/"
   xmlns:cc="http://creativecommons.org/ns#"
   xmlns:rdf="http://www.w3.org/1999/02/22-rdf-syntax-ns#"
   xmlns:svg="http://www.w3.org/2000/svg"
   xmlns="http://www.w3.org/2000/svg"
   xmlns:xlink="http://www.w3.org/1999/xlink"
   xmlns:sodipodi="http://sodipodi.sourceforge.net/DTD/sodipodi-0.dtd"
   xmlns:inkscape="http://www.inkscape.org/namespaces/inkscape"
   width="100"
   height="100"
   inkscape:export-xdpi="90"
   inkscape:export-ydpi="90"
   id="svg2"
   sodipodi:version="0.32"
   inkscape:version="0.91 r13725"
   version="1.0"
   sodipodi:docname="fountain.svg"
   inkscape:output_extension="org.inkscape.output.svg.inkscape"
   style="display:inline">
  <defs
     id="defs4">
    <inkscape:perspective
       sodipodi:type="inkscape:persp3d"
       inkscape:vp_x="0 : 64 : 1"
       inkscape:vp_y="0 : 1000 : 0"
       inkscape:vp_z="128 : 64 : 1"
       inkscape:persp3d-origin="64 : 42.666667 : 1"
       id="perspective79" />
    <linearGradient
       id="linearGradient2338">
      <stop
         style="stop-color:#b1b1b1;stop-opacity:1;"
         offset="0"
         id="stop2340" />
      <stop
         style="stop-color:#e4e4e4;stop-opacity:1;"
         offset="1"
         id="stop2342" />
    </linearGradient>
    <linearGradient
       id="linearGradient2888">
      <stop
         id="stop2890"
         offset="0"
         style="stop-color:#007dff;stop-opacity:1;" />
      <stop
         id="stop2892"
         offset="1"
         style="stop-color:#58abff;stop-opacity:1;" />
    </linearGradient>
    <linearGradient
       inkscape:collect="always"
       xlink:href="#linearGradient2338"
       id="linearGradient3115"
       gradientUnits="userSpaceOnUse"
       x1="95.135132"
       y1="57.574238"
       x2="101.53513"
       y2="69.595856"
       gradientTransform="matrix(1,0,0,0.81375293,0,20.05073)" />
    <linearGradient
       inkscape:collect="always"
       xlink:href="#linearGradient2338"
       id="linearGradient3118"
       gradientUnits="userSpaceOnUse"
       x1="40.302704"
       y1="59.286484"
       x2="44.194595"
       y2="65.599998"
       gradientTransform="matrix(1,0,0,0.81375293,0,20.05073)" />
    <linearGradient
       inkscape:collect="always"
       xlink:href="#linearGradient2338"
       id="linearGradient3127"
       gradientUnits="userSpaceOnUse"
       x1="63.74054"
       y1="90.37838"
       x2="96.086487"
       y2="113.03784"
       gradientTransform="matrix(1,0,0,0.81375293,0,20.05073)" />
    <linearGradient
       inkscape:collect="always"
       xlink:href="#linearGradient2338"
       id="linearGradient3134"
       gradientUnits="userSpaceOnUse"
       x1="56.653049"
       y1="98.429657"
       x2="58.692608"
       y2="123.99252"
       gradientTransform="matrix(1,0,0,0.81375293,0,20.05073)" />
    <linearGradient
       inkscape:collect="always"
       xlink:href="#linearGradient2338"
       id="linearGradient4444"
       gradientUnits="userSpaceOnUse"
       gradientTransform="matrix(1,0,0,0.81375293,0,20.05073)"
       x1="67.286484"
       y1="70.443245"
       x2="94.875679"
       y2="75.027023" />
    <linearGradient
       inkscape:collect="always"
       xlink:href="#linearGradient2338"
       id="linearGradient4446"
       gradientUnits="userSpaceOnUse"
       gradientTransform="matrix(1,0,0,0.81375293,0,20.05073)"
       x1="62.616215"
       y1="73.081078"
       x2="66.162163"
       y2="37.535133" />
    <linearGradient
       inkscape:collect="always"
       xlink:href="#linearGradient2338"
       id="linearGradient4448"
       gradientUnits="userSpaceOnUse"
       gradientTransform="matrix(1,0,0,0.81375293,0,20.05073)"
       x1="53.571938"
       y1="51.219669"
       x2="55.039661"
       y2="53.665878" />
    <linearGradient
       inkscape:collect="always"
       xlink:href="#linearGradient2338"
       id="linearGradient4450"
       gradientUnits="userSpaceOnUse"
       gradientTransform="matrix(1,0,0,0.81375293,0,20.05073)"
       x1="81.886787"
       y1="50.118877"
       x2="85.066856"
       y2="54.399742" />
    <linearGradient
       inkscape:collect="always"
       xlink:href="#linearGradient2338"
       id="linearGradient4454"
       gradientUnits="userSpaceOnUse"
       gradientTransform="matrix(1,0,0,0.81375293,0,20.05073)"
       x1="65.741821"
       y1="58.435982"
       x2="74.181236"
       y2="62.105293" />
    <linearGradient
       inkscape:collect="always"
       xlink:href="#linearGradient2338"
       id="linearGradient4456"
       gradientUnits="userSpaceOnUse"
       gradientTransform="matrix(1,0,0,0.81375293,0,20.05073)"
       x1="65.619507"
       y1="54.522049"
       x2="77.605927"
       y2="56.417858" />
    <linearGradient
       inkscape:collect="always"
       xlink:href="#linearGradient2338"
       id="linearGradient4458"
       gradientUnits="userSpaceOnUse"
       gradientTransform="matrix(1,0,0,0.81375293,0,20.05073)"
       x1="67.087234"
       y1="55.317066"
       x2="65.252579"
       y2="39.294411" />
    <linearGradient
       inkscape:collect="always"
       xlink:href="#linearGradient2888"
       id="linearGradient4460"
       gradientUnits="userSpaceOnUse"
       gradientTransform="matrix(1,0,0,0.81375293,0,20.05073)"
       x1="61.460957"
       y1="46.602451"
       x2="71.612717"
       y2="52.595661" />
    <linearGradient
       inkscape:collect="always"
       xlink:href="#linearGradient2338"
       id="linearGradient4462"
       gradientUnits="userSpaceOnUse"
       gradientTransform="matrix(1,0,0,0.81375293,0,20.05073)"
       x1="68.126869"
       y1="43.911625"
       x2="70.94001"
       y2="48.131332" />
    <linearGradient
       inkscape:collect="always"
       xlink:href="#linearGradient2338"
       id="linearGradient4464"
       gradientUnits="userSpaceOnUse"
       gradientTransform="matrix(1,0,0,0.81375293,0,20.05073)"
       x1="67.087227"
       y1="45.440506"
       x2="71.184631"
       y2="49.109818" />
    <linearGradient
       inkscape:collect="always"
       xlink:href="#linearGradient2338"
       id="linearGradient4466"
       gradientUnits="userSpaceOnUse"
       gradientTransform="matrix(1,0,0,0.81375293,0,20.05073)"
       x1="68.310341"
       y1="45.318195"
       x2="66.90377"
       y2="41.893505" />
    <linearGradient
       inkscape:collect="always"
       xlink:href="#linearGradient2888"
       id="linearGradient4468"
       gradientUnits="userSpaceOnUse"
       gradientTransform="matrix(1,0,0,0.81375293,0,20.05073)"
       x1="67.087234"
       y1="42.74968"
       x2="68.738426"
       y2="44.462025" />
    <linearGradient
       inkscape:collect="always"
       xlink:href="#linearGradient2888"
       id="linearGradient4470"
       gradientUnits="userSpaceOnUse"
       gradientTransform="matrix(1,0,0,0.81375293,0,20.05073)"
       x1="62.439438"
       y1="36.573006"
       x2="67.759941"
       y2="41.343109" />
    <linearGradient
       inkscape:collect="always"
       xlink:href="#linearGradient2888"
       id="linearGradient4472"
       gradientUnits="userSpaceOnUse"
       gradientTransform="matrix(1,0,0,0.81375293,0,20.05073)"
       x1="69.013618"
       y1="37.03167"
       x2="74.0895"
       y2="49.170971" />
  </defs>
  <sodipodi:namedview
     id="base"
     pagecolor="#ff00ff"
     bordercolor="#666666"
     borderopacity="1.0"
     gridtolerance="10000"
     guidetolerance="10"
     objecttolerance="10"
     inkscape:pageopacity="0"
     inkscape:pageshadow="2"
     inkscape:zoom="2.9416149"
     inkscape:cx="-71.761612"
     inkscape:cy="23.69938"
     inkscape:document-units="px"
     inkscape:current-layer="g3176"
     showgrid="false"
     width="744.09px"
     inkscape:window-width="1440"
     inkscape:window-height="874"
     inkscape:window-x="0"
     inkscape:window-y="0"
     showguides="false"
     inkscape:guide-bbox="true"
     inkscape:window-maximized="1" />
  <metadata
     id="metadata7">
    <rdf:RDF>
      <cc:Work
         rdf:about="">
        <dc:format>image/svg+xml</dc:format>
        <dc:type
           rdf:resource="http://purl.org/dc/dcmitype/StillImage" />
        <dc:title />
        <dc:description>jfitie@gmail.com</dc:description>
        <cc:license
           rdf:resource="http://creativecommons.org/publicdomain/zero/1.0/" />
      </cc:Work>
      <cc:License
         rdf:about="http://creativecommons.org/publicdomain/zero/1.0/">
        <cc:permits
           rdf:resource="http://creativecommons.org/ns#Reproduction" />
        <cc:permits
           rdf:resource="http://creativecommons.org/ns#Distribution" />
        <cc:permits
           rdf:resource="http://creativecommons.org/ns#DerivativeWorks" />
      </cc:License>
    </rdf:RDF>
  </metadata>
  <g
     inkscape:label="color"
     inkscape:groupmode="layer"
     id="layer1"
     style="display:inline"
     transform="translate(0,78)" />
  <g
     id="g3176"
     inkscape:groupmode="layer"
     inkscape:label="outline"
     style="display:inline"
     transform="translate(0,78)">
    <path
       style="fill:#000000;stroke:#ffffff;stroke-width:2.5;stroke-miterlimit:4;stroke-dasharray:none;stroke-opacity:1"
       d="m 6.4655317,14.980343 -2.695774,-6.0350177 -1.392555,-0.118924 -1.39256401,-0.118925 0,-3.9968549 0,-3.99685529 20.40410331,-0.099153 20.404103,-0.099153 0.11411,-2.39603951 0.11411,-2.3960396 2.184945,0.2885779 c 1.201719,0.1587139 3.82302,0.2885779 5.825112,0.2885779 2.002093,0 4.623394,-0.129864 5.825113,-0.2885779 l 2.184945,-0.2885779 0.11411,2.3960396 0.114109,2.39603951 20.404104,0.099153 20.404104,0.099153 0,3.99685529 0,3.9968549 -1.39256,0.118925 -1.392564,0.118924 -2.695771,6.0350177 -2.69577,6.035018 -40.86982,0 -40.8698173,0 -2.695773,-6.035018 z M 42.878819,-8.2653807 c -5.740615,-1.0934807 -11.881158,-3.6774973 -16.370835,-6.8890553 -2.612645,-1.868883 -6.219389,-5.516832 -7.332668,-7.416436 -0.709649,-1.210889 -0.801703,-1.245322 -3.329444,-1.245322 l -2.599613,0 0,-4.214933 0,-4.214923 36.784863,0 36.784863,0 0,4.214923 0,4.214933 -2.586435,7.68e-4 -2.586436,7.68e-4 -1.081199,1.7114 c -0.594662,0.941276 -2.337502,2.880797 -3.872983,4.31004 -4.451915,4.143921 -10.184563,7.170642 -17.006864,8.9792754 -3.827656,1.0147391 -12.815808,1.30825 -16.803249,0.5487194 z m 3.205383,-28.0553213 c -0.147407,-0.1474 -0.268012,-2.400175 -0.268012,-5.006149 0,-3.412601 -0.166229,-5.136693 -0.594183,-6.162746 -2.253924,-5.403963 -8.979491,-6.541733 -13.472395,-2.279133 l -1.230193,1.167131 -2.888944,-2.585592 c -1.588919,-1.422074 -2.888946,-2.66329 -2.888946,-2.758249 0,-0.58713 1.927692,-2.585346 3.615546,-3.74781 3.971704,-2.735415 9.724503,-3.69978 14.141223,-2.370538 0.981854,0.295491 1.784546,0.424813 1.783756,0.287377 -0.0034,-0.60832 -1.560766,-2.709519 -3.288938,-4.437688 -6.093021,-6.093023 -16.21117,-6.202515 -22.511842,-0.24359 -2.996077,2.833554 -5.215894,7.44384 -5.230466,10.862997 l -0.0045,1.067132 -3.9275493,-0.109196 -3.927556,-0.109197 -0.123632,-1.293076 c -0.06804,-0.711195 0.151369,-2.529153 0.487485,-4.039924 1.82172,-8.188295 7.9915333,-14.990435 15.9967023,-17.636179 9.603216,-3.173894 20.639515,-0.09967 26.558145,7.397935 0.841324,1.065773 1.615894,1.937769 1.721267,1.937769 0.105374,0 0.879944,-0.871996 1.721268,-1.937769 4.497263,-5.69704 12.697495,-9.181706 20.337879,-8.642518 10.828057,0.764148 19.902021,8.475524 22.21697,18.880762 0.336114,1.510771 0.555478,3.328729 0.48748,4.039924 l -0.123632,1.293076 -3.927551,0.109197 -3.92755,0.109196 -0.0045,-1.067132 c -0.01456,-3.419157 -2.234389,-8.029443 -5.230464,-10.862997 -6.300675,-5.958925 -16.41882,-5.849433 -22.511845,0.24359 -1.728173,1.728169 -3.285452,3.829368 -3.288938,4.437688 -7.67e-4,0.137436 0.801901,0.0079 1.783755,-0.287377 4.416721,-1.329242 10.16952,-0.364877 14.141224,2.370538 1.687854,1.162464 3.615546,3.16068 3.615546,3.74781 0,0.09492 -1.300027,1.336175 -2.888946,2.758249 l -2.888944,2.585592 -1.230194,-1.167131 c -4.326865,-4.105087 -10.571842,-3.257234 -13.350031,1.812474 -0.341375,0.622951 -0.591945,2.833869 -0.716534,6.322394 l -0.191588,5.36446 -3.851126,0.108359 c -2.118123,0.05957 -3.971735,-0.01231 -4.119139,-0.159659 z"
       id="path4216"
       inkscape:connector-curvature="0" />
  </g>
</svg>
