/* XPM */
static char *dummy[]={
"24 32 2 1",
"# c #000000",
". c #ffffff",
"........................",
"........................",
"........................",
"........................",
"........................",
"........................",
"........................",
"........................",
"........................",
"........................",
"........................",
"........................",
"...........#.....#......",
"....#......#.....#......",
"....#......#....#.......",
".....#.....#....#.......",
".....#.....#....#.......",
"......#....#...#........",
"......#....#...#........",
"......#....#...#........",
".......#...#..#.........",
".......#...#..#.........",
"........#..#..#.........",
"........#..#..#.........",
"........#..#.#..........",
".........#.#.#..........",
".........#.#.#..........",
".........#.##...........",
"..........###...........",
"..........###...........",
"...........#............",
"...........#............"};
