<?xml version="1.0" encoding="UTF-8" standalone="no"?>
<!-- Created with Inkscape (http://www.inkscape.org/) -->

<svg
   xmlns:dc="http://purl.org/dc/elements/1.1/"
   xmlns:cc="http://creativecommons.org/ns#"
   xmlns:rdf="http://www.w3.org/1999/02/22-rdf-syntax-ns#"
   xmlns:svg="http://www.w3.org/2000/svg"
   xmlns="http://www.w3.org/2000/svg"
   xmlns:xlink="http://www.w3.org/1999/xlink"
   xmlns:sodipodi="http://sodipodi.sourceforge.net/DTD/sodipodi-0.dtd"
   xmlns:inkscape="http://www.inkscape.org/namespaces/inkscape"
   width="22"
   height="22"
   inkscape:export-xdpi="90"
   inkscape:export-ydpi="90"
   id="svg2"
   sodipodi:version="0.32"
   inkscape:version="0.47 r22583"
   version="1.0"
   sodipodi:docname="fountain.svg"
   inkscape:output_extension="org.inkscape.output.svg.inkscape"
   style="display:inline">
  <defs
     id="defs4">
    <inkscape:perspective
       sodipodi:type="inkscape:persp3d"
       inkscape:vp_x="0 : 64 : 1"
       inkscape:vp_y="0 : 1000 : 0"
       inkscape:vp_z="128 : 64 : 1"
       inkscape:persp3d-origin="64 : 42.666667 : 1"
       id="perspective79" />
    <linearGradient
       id="linearGradient2338">
      <stop
         style="stop-color:#b1b1b1;stop-opacity:1;"
         offset="0"
         id="stop2340" />
      <stop
         style="stop-color:#e4e4e4;stop-opacity:1;"
         offset="1"
         id="stop2342" />
    </linearGradient>
    <linearGradient
       id="linearGradient2888">
      <stop
         id="stop2890"
         offset="0"
         style="stop-color:#007dff;stop-opacity:1;" />
      <stop
         id="stop2892"
         offset="1"
         style="stop-color:#58abff;stop-opacity:1;" />
    </linearGradient>
    <filter
       inkscape:collect="always"
       id="filter3197"
       x="-0.078178316"
       width="1.1563566"
       y="-0.10603384"
       height="1.2120677"
       color-interpolation-filters="sRGB">
      <feGaussianBlur
         inkscape:collect="always"
         stdDeviation="0.49535895"
         id="feGaussianBlur3199" />
    </filter>
    <filter
       inkscape:collect="always"
       id="filter3201"
       color-interpolation-filters="sRGB">
      <feGaussianBlur
         inkscape:collect="always"
         stdDeviation="0.80813571"
         id="feGaussianBlur3203" />
    </filter>
    <linearGradient
       inkscape:collect="always"
       xlink:href="#linearGradient2338"
       id="linearGradient3115"
       gradientUnits="userSpaceOnUse"
       x1="95.135132"
       y1="57.574238"
       x2="101.53513"
       y2="69.595856"
       gradientTransform="matrix(1,0,0,0.81375293,0,20.05073)" />
    <linearGradient
       inkscape:collect="always"
       xlink:href="#linearGradient2338"
       id="linearGradient3118"
       gradientUnits="userSpaceOnUse"
       x1="40.302704"
       y1="59.286484"
       x2="44.194595"
       y2="65.599998"
       gradientTransform="matrix(1,0,0,0.81375293,0,20.05073)" />
    <linearGradient
       inkscape:collect="always"
       xlink:href="#linearGradient2338"
       id="linearGradient3127"
       gradientUnits="userSpaceOnUse"
       x1="63.74054"
       y1="90.37838"
       x2="96.086487"
       y2="113.03784"
       gradientTransform="matrix(1,0,0,0.81375293,0,20.05073)" />
    <linearGradient
       inkscape:collect="always"
       xlink:href="#linearGradient2338"
       id="linearGradient3134"
       gradientUnits="userSpaceOnUse"
       x1="56.653049"
       y1="98.429657"
       x2="58.692608"
       y2="123.99252"
       gradientTransform="matrix(1,0,0,0.81375293,0,20.05073)" />
    <linearGradient
       inkscape:collect="always"
       xlink:href="#linearGradient2338"
       id="linearGradient3423"
       gradientUnits="userSpaceOnUse"
       gradientTransform="matrix(1,0,0,0.81375293,0,20.05073)"
       x1="64.951347"
       y1="76.627029"
       x2="78.875679"
       y2="79.827026" />
    <linearGradient
       inkscape:collect="always"
       xlink:href="#linearGradient2338"
       id="linearGradient3425"
       gradientUnits="userSpaceOnUse"
       gradientTransform="matrix(1,0,0,0.81375293,0,20.05073)"
       x1="67.286484"
       y1="70.443245"
       x2="94.875679"
       y2="75.027023" />
    <linearGradient
       inkscape:collect="always"
       xlink:href="#linearGradient2338"
       id="linearGradient3427"
       gradientUnits="userSpaceOnUse"
       gradientTransform="matrix(1,0,0,0.81375293,0,20.05073)"
       x1="62.616215"
       y1="73.081078"
       x2="66.162163"
       y2="37.535133" />
    <linearGradient
       inkscape:collect="always"
       xlink:href="#linearGradient2888"
       id="linearGradient3429"
       gradientUnits="userSpaceOnUse"
       gradientTransform="matrix(1,0,0,0.81375293,0,20.05073)"
       x1="58.118919"
       y1="51.382431"
       x2="80.432434"
       y2="65.739189" />
    <linearGradient
       inkscape:collect="always"
       xlink:href="#linearGradient2338"
       id="linearGradient3431"
       gradientUnits="userSpaceOnUse"
       gradientTransform="matrix(1,0,0,0.81375293,0,20.05073)"
       x1="53.571938"
       y1="51.219669"
       x2="55.039661"
       y2="53.665878" />
    <linearGradient
       inkscape:collect="always"
       xlink:href="#linearGradient2338"
       id="linearGradient3433"
       gradientUnits="userSpaceOnUse"
       gradientTransform="matrix(1,0,0,0.81375293,0,20.05073)"
       x1="81.886787"
       y1="50.118877"
       x2="85.066856"
       y2="54.399742" />
    <linearGradient
       inkscape:collect="always"
       xlink:href="#linearGradient2338"
       id="linearGradient3435"
       gradientUnits="userSpaceOnUse"
       gradientTransform="matrix(1,0,0,0.81375293,0,20.05073)"
       x1="65.741821"
       y1="58.435982"
       x2="74.181236"
       y2="62.105293" />
    <linearGradient
       inkscape:collect="always"
       xlink:href="#linearGradient2338"
       id="linearGradient3437"
       gradientUnits="userSpaceOnUse"
       gradientTransform="matrix(1,0,0,0.81375293,0,20.05073)"
       x1="65.619507"
       y1="54.522049"
       x2="77.605927"
       y2="56.417858" />
    <linearGradient
       inkscape:collect="always"
       xlink:href="#linearGradient2338"
       id="linearGradient3439"
       gradientUnits="userSpaceOnUse"
       gradientTransform="matrix(1,0,0,0.81375293,0,20.05073)"
       x1="67.087234"
       y1="55.317066"
       x2="65.252579"
       y2="39.294411" />
    <linearGradient
       inkscape:collect="always"
       xlink:href="#linearGradient2888"
       id="linearGradient3441"
       gradientUnits="userSpaceOnUse"
       gradientTransform="matrix(1,0,0,0.81375293,0,20.05073)"
       x1="61.460957"
       y1="46.602451"
       x2="71.612717"
       y2="52.595661" />
    <linearGradient
       inkscape:collect="always"
       xlink:href="#linearGradient2338"
       id="linearGradient3443"
       gradientUnits="userSpaceOnUse"
       gradientTransform="matrix(1,0,0,0.81375293,0,20.05073)"
       x1="68.126869"
       y1="43.911625"
       x2="70.94001"
       y2="48.131332" />
    <linearGradient
       inkscape:collect="always"
       xlink:href="#linearGradient2338"
       id="linearGradient3445"
       gradientUnits="userSpaceOnUse"
       gradientTransform="matrix(1,0,0,0.81375293,0,20.05073)"
       x1="67.087227"
       y1="45.440506"
       x2="71.184631"
       y2="49.109818" />
    <linearGradient
       inkscape:collect="always"
       xlink:href="#linearGradient2338"
       id="linearGradient3447"
       gradientUnits="userSpaceOnUse"
       gradientTransform="matrix(1,0,0,0.81375293,0,20.05073)"
       x1="68.310341"
       y1="45.318195"
       x2="66.90377"
       y2="41.893505" />
    <linearGradient
       inkscape:collect="always"
       xlink:href="#linearGradient2888"
       id="linearGradient3449"
       gradientUnits="userSpaceOnUse"
       gradientTransform="matrix(1,0,0,0.81375293,0,20.05073)"
       x1="67.087234"
       y1="42.74968"
       x2="68.738426"
       y2="44.462025" />
    <linearGradient
       inkscape:collect="always"
       xlink:href="#linearGradient2888"
       id="linearGradient3451"
       gradientUnits="userSpaceOnUse"
       gradientTransform="matrix(1,0,0,0.81375293,0,20.05073)"
       x1="62.439438"
       y1="36.573006"
       x2="67.759941"
       y2="41.343109" />
    <linearGradient
       inkscape:collect="always"
       xlink:href="#linearGradient2888"
       id="linearGradient3453"
       gradientUnits="userSpaceOnUse"
       gradientTransform="matrix(1,0,0,0.81375293,0,20.05073)"
       x1="69.013618"
       y1="37.03167"
       x2="74.0895"
       y2="49.170971" />
  </defs>
  <sodipodi:namedview
     id="base"
     pagecolor="#ffffff"
     bordercolor="#666666"
     borderopacity="1.0"
     gridtolerance="10000"
     guidetolerance="10"
     objecttolerance="10"
     inkscape:pageopacity="0.0"
     inkscape:pageshadow="2"
     inkscape:zoom="23.532919"
     inkscape:cx="13.955723"
     inkscape:cy="10.454959"
     inkscape:document-units="px"
     inkscape:current-layer="g3176"
     showgrid="false"
     width="744.09px"
     inkscape:window-width="1248"
     inkscape:window-height="975"
     inkscape:window-x="266"
     inkscape:window-y="46"
     showguides="false"
     inkscape:guide-bbox="true"
     inkscape:window-maximized="0" />
  <metadata
     id="metadata7">
    <rdf:RDF>
      <cc:Work
         rdf:about="">
        <dc:format>image/svg+xml</dc:format>
        <dc:type
           rdf:resource="http://purl.org/dc/dcmitype/StillImage" />
      </cc:Work>
    </rdf:RDF>
  </metadata>
  <g
     inkscape:label="color"
     inkscape:groupmode="layer"
     id="layer1"
     style="display:inline" />
  <g
     id="g3176"
     inkscape:groupmode="layer"
     inkscape:label="outline"
     style="display:inline">
    <g
       id="g3393"
       transform="matrix(0.37386129,0,0,0.37386129,-13.764978,-14.646603)">
      <path
         transform="matrix(1,0,0,0.81375293,0,20.05073)"
         sodipodi:nodetypes="ccsssc"
         id="path3113"
         d="M 57,79.75 C 56.021626,75.74683 54.079113,75.600214 52.5,74 c 0,0 -9.302192,-3.444116 -10.25,-5.5 -3.648955,-7.914925 4.342914,-11.76181 10.25,-11.25 5.73395,0.496809 15.5,4 16,7.25 C 69,67.75 58,79.75 57,79.75 z"
         style="fill:#000000;fill-opacity:0.58823529;fill-rule:evenodd;stroke:none;display:inline;filter:url(#filter3201)" />
      <path
         id="path3028"
         d="M 56.908108,84.728693 57.6,82.054305 l 4.497297,1.196436 5.621622,0.351893 4.497297,-0.49265 5.448649,-1.126058 0.605405,3.096659 -3.2,1.689088 -5.535135,1.126058 -4.92973,0.140757 -4.151351,-1.126058 -2.681081,-1.266816 -0.864865,-0.914921 z"
         style="fill:url(#linearGradient3423);fill-rule:evenodd;stroke:none;display:inline" />
      <path
         id="path3032"
         d="m 43.935135,67.345171 -0.864865,2.322494 0.172973,1.970602 0.864865,2.040981 2.248649,2.604009 6.054054,3.870824 5.448648,2.181739 6.227028,0.914921 5.189189,0.211136 6.4,-0.844544 4.151351,-1.196436 5.708108,-2.533631 4.843243,-3.518932 1.98919,-2.674387 0.518919,-1.970602 -0.778379,-3.026282 -0.605405,2.252117 -1.470271,2.815145 -1.729729,1.900223 -3.286487,2.111359 -5.189189,2.181738 -6.486486,1.196436 -4.670271,0.703787 -2.767567,-0.07038 -4.756757,-0.633405 -4.583784,-1.055679 -5.102703,-1.759466 -3.372972,-2.111359 -1.98919,-1.900223 -1.47027,-2.463252 -0.605405,-1.337194 -0.08649,-2.181737 z"
         style="fill:url(#linearGradient3425);fill-rule:evenodd;stroke:none;display:inline" />
      <path
         id="path3036"
         d="m 56.994595,58.407084 -5.016217,1.970602 -3.459459,1.337194 -2.075676,1.900223 -1.989189,2.322495 -0.691892,2.674388 0.605406,2.111359 1.816216,2.885524 2.767567,2.463252 7.005406,2.885524 3.372973,0.914922 5.275675,0.844543 3.632433,0.211137 4.410811,-0.492651 5.275675,-0.9853 4.843244,-1.548331 2.594594,-1.337193 1.72973,-0.985301 1.643243,-1.266816 1.989189,-2.53363 1.124325,-3.448553 -1.124325,-3.307796 -2.594594,-2.885524 -5.448649,-2.533631 -4.67027,-1.126058 -21.016216,-0.07038 z"
         style="fill:url(#linearGradient3427);fill-rule:evenodd;stroke:none;display:inline" />
      <path
         sodipodi:nodetypes="cccccccccscccccccccc"
         id="path3042"
         d="m 56.648649,61.151851 -4.410811,1.829845 -1.72973,1.196436 -2.162162,1.829845 -1.368945,2.976516 1.195972,2.86491 3.891892,2.885524 3.978378,1.54833 5.362162,1.055679 c 0,0 4.670271,0.140758 6.140541,0.49265 1.47027,0.351894 7.005405,-0.49265 7.005405,-0.49265 L 79.827027,76.1425 84.843243,73.890383 87.091892,71.779025 88.994595,68.611986 87.524324,66.219112 86.4,64.741161 83.372973,62.840938 79.567568,61.362987 56.648649,61.151851 z"
         style="fill:url(#linearGradient3429);fill-rule:evenodd;stroke:none;display:inline" />
      <path
         id="path3046"
         d="m 46.539093,68.026186 0.978483,-2.338965 1.406569,-1.940843 3.057759,-2.388731 4.342018,-1.492956 0,1.443191 -2.507363,0.746479 -2.507362,1.34366 -1.834655,1.542721 -1.40657,1.542722 -1.039638,2.48826 -0.489241,-0.945538 z"
         style="fill:url(#linearGradient3431);fill-rule:evenodd;stroke:none;display:inline" />
      <path
         id="path3050"
         d="m 79.31827,59.715395 3.852776,1.592487 2.874294,1.891078 2.079276,2.239435 0.917328,2.687321 -1.712345,-2.139904 -1.773501,-1.891078 -2.813138,-1.492956 -3.30238,-1.194366 -0.12231,-1.692017 z"
         style="fill:url(#linearGradient3433);fill-rule:evenodd;stroke:none;display:inline" />
      <path
         transform="matrix(1,0,0,0.81375293,0,20.05073)"
         sodipodi:nodetypes="ccsssc"
         id="path3115"
         d="m 60.75,60 -2.5,-3.5 c 0,0 -3.75,-0.75 -3.75,-2.75 0,-2 5.75,-5.75 9.5,-4.75 3.75,1 6.5,5.75 5.5,6.75 -1,1 -8,4.75 -8.75,4.25 z"
         style="fill:#000000;fill-opacity:0.54901961;fill-rule:evenodd;stroke:none;display:inline;filter:url(#filter3197)" />
      <path
         id="path3054"
         d="m 60.482474,69.021489 0.856173,-2.48826 1.956965,0.746478 3.485846,0.497653 2.690828,0 5.565121,-1.592487 0.428087,2.58779 -1.712346,1.343661 -4.770104,1.293896 -2.813138,-0.149296 c 0,0 -1.834655,-0.298591 -2.140431,-0.398122 -0.305776,-0.09953 -3.485846,-1.791547 -3.547001,-1.841313 z"
         style="fill:url(#linearGradient3435);fill-rule:evenodd;stroke:none;display:inline" />
      <path
         id="path3058"
         d="m 56.507387,59.864691 -0.24462,0.846009 0.12231,0.945539 0.856173,2.040374 1.89581,1.791547 2.018121,0.995304 c 0,0 3.30238,0.846009 3.913932,1.04507 0.611552,0.19906 3.852776,0.298591 3.852776,0.298591 l 2.385052,-0.348356 4.342018,-1.542722 2.629673,-2.040374 1.039638,-1.940843 0.06115,-1.443191 -0.611552,-1.393426 -22.260486,0.746478 z"
         style="fill:url(#linearGradient3437);fill-rule:evenodd;stroke:none;display:inline" />
      <path
         style="fill:#000000;fill-opacity:0.15686275;fill-rule:evenodd;stroke:none;display:inline"
         d="m 56.507387,59.864691 -0.24462,0.846009 0.12231,0.945539 0.856173,2.040374 1.89581,1.791547 2.018121,0.995304 c 0,0 3.30238,0.846009 3.913932,1.04507 0.611552,0.19906 3.852776,0.298591 3.852776,0.298591 l 2.385052,-0.348356 4.342018,-1.542722 2.629673,-2.040374 1.039638,-1.940843 0.06115,-1.443191 -0.611552,-1.393426 -22.260486,0.746478 z"
         id="path3109" />
      <path
         id="path3063"
         d="m 56.568543,58.919152 0.06115,1.443192 0.795017,1.642252 1.406569,1.094834 1.895811,1.045069 4.097397,1.194365 2.323897,0.199061 2.568517,-0.149296 4.464329,-1.094834 3.118914,-1.592487 1.590035,-3.085443 -1.40657,-2.338965 -2.751983,-1.940843 -3.363535,-1.194365 -6.115518,-0.09953 -4.770104,1.24413 -2.751983,1.791548 -1.161948,2.090138 0,-0.248826 z"
         style="fill:url(#linearGradient3439);fill-rule:evenodd;stroke:none;display:inline" />
      <path
         sodipodi:nodetypes="cccccccccccccc"
         id="path3067"
         d="m 58.953595,59.466569 0.428086,1.891078 2.262742,1.393426 1.956965,0.597182 4.097398,0.398123 4.036241,-0.398123 2.996604,-1.293894 1.284259,-1.244131 0.305776,-0.796243 C 75.788761,59.139511 75.049948,58.600152 74.3647,57.973613 L 71.06232,57.028075 63.723699,57.2769 c -1.365799,-0.05825 -2.731598,0.732978 -4.097397,1.443192 l -0.672707,0.746477 z"
         style="fill:url(#linearGradient3441);fill-rule:evenodd;stroke:none;display:inline" />
      <path
         id="path3097"
         d="m 61.55269,58.670326 -0.856173,0.07465 -0.305776,0.199061 -0.12231,0.373239 0.825595,1.020186 0.611552,0.09953 0.978483,0.09953 0.947905,-0.223944 0.366931,-0.223943 0.06115,-0.497652 -0.24462,-0.646947 -0.428087,-0.223944 -1.834655,-0.04977 z"
         style="fill:#ffffff;fill-opacity:0.1254902;fill-rule:evenodd;stroke:none;display:inline" />
      <path
         sodipodi:nodetypes="ccccccccccccc"
         id="path3071"
         d="m 58.403198,59.167978 1.406569,-2.040373 3.791621,-1.443191 7.277467,-0.199061 4.403173,1.542721 1.223104,1.692018 -0.244621,1.343661 c -0.387798,-0.7615 -0.796661,-1.454432 -1.345414,-1.692018 l -3.118914,-1.24413 -7.460932,-0.199061 -3.852777,1.045069 -1.65119,1.542722 -0.428086,-0.348357 z"
         style="fill:url(#linearGradient3443);fill-rule:evenodd;stroke:none;display:inline" />
      <path
         id="path3099"
         d="m 71.765605,60.188165 -0.366931,0.273709 -0.12231,0.298591 -0.275199,0.522534 0.214043,0.323474 0.489242,0.323475 0.88675,0.248826 0.947905,0 0.519819,-0.223944 0.550397,-0.398122 0.244621,-0.497652 -0.336354,-0.373239 -0.856172,-0.248826 -1.895811,-0.248826 z"
         style="fill:#ffffff;fill-opacity:0.1254902;fill-rule:evenodd;stroke:none;display:inline" />
      <path
         style="fill:#000000;fill-opacity:0.15686275;fill-rule:evenodd;stroke:none;display:inline"
         d="m 58.403198,59.167978 1.406569,-2.040373 3.791621,-1.443191 7.277467,-0.199061 4.403173,1.542721 1.223104,1.692018 -0.244621,1.343661 c -0.387798,-0.7615 -0.796661,-1.454432 -1.345414,-1.692018 l -3.118914,-1.24413 -7.460932,-0.199061 -3.852777,1.045069 -1.65119,1.542722 -0.428086,-0.348357 z"
         id="path3075"
         sodipodi:nodetypes="ccccccccccccc" />
      <path
         sodipodi:nodetypes="ccccccccc"
         id="path3077"
         d="m 64.457561,59.466569 0.672707,-4.478868 c 0.06584,1.028925 0.838613,1.29083 1.345414,1.841313 1.581883,0.321817 2.738311,0.124313 3.669311,-0.348357 0.811086,-0.333173 0.555379,-1.013588 0.611552,-1.592486 l 0.428086,4.777459 -2.690828,0.895774 -3.057759,-0.497651 -0.978483,-0.597184 z"
         style="fill:url(#linearGradient3445);fill-rule:evenodd;stroke:none;display:inline" />
      <path
         id="path3081"
         d="m 66.720303,56.829014 -1.65119,-1.1446 -0.06115,-0.547417 1.406569,-0.796244 2.813138,-0.199061 1.712345,0.945539 -0.366931,0.846008 -1.406569,0.995305 -2.446207,-0.09953 z"
         style="fill:url(#linearGradient3447);fill-rule:evenodd;stroke:none;display:inline" />
      <path
         id="path3085"
         d="m 67.698786,54.838406 -1.345414,0.248825 0.428086,0.895774 1.406569,0.248826 1.406569,-0.646948 -0.489241,-0.547417 -1.406569,-0.19906 z"
         style="fill:url(#linearGradient3449);fill-rule:evenodd;stroke:none;display:inline" />
      <path
         sodipodi:nodetypes="cccccccccccccccccccccccccccccccc"
         id="path3089"
         d="m 67.39301,55.286292 0.366931,-0.597182 -0.183466,-0.995305 0.03058,-2.090138 -0.611552,-1.965726 -0.825595,-1.119717 -1.314836,-0.696713 -1.498302,-0.174178 -1.100794,0.398121 -0.88675,0.796244 -0.519819,1.567604 -0.214043,1.293895 0.09173,1.791548 0.580974,3.906568 0.244621,1.318779 0.12231,0.572299 0.305776,0.298591 0.550397,0.149296 0.580974,-0.07465 0.305776,-0.298591 -0.366931,-2.438496 -0.366931,-2.811734 -0.06115,-1.592486 0.428086,-1.517839 0.978483,-1.069952 0.978483,-0.298592 0.489241,0.646948 0.305776,0.945539 0.366931,1.293896 0.275198,1.542721 0.489242,1.020186 c 0.15586,0.314841 0.221866,0.345268 0.458664,0.199062 z"
         style="fill:url(#linearGradient3451);fill-rule:evenodd;stroke:none;display:inline" />
      <path
         sodipodi:nodetypes="cccccccccccccccccccccccccccccccccccccc"
         id="path3093"
         d="m 67.912829,55.336057 -0.122311,-0.87089 -0.24462,-0.547418 0.152888,-1.766665 0.428086,-1.592486 0.458664,-0.821127 0.519819,-0.423004 0.733862,-0.348356 0.947905,-0.149295 0.978483,0.19906 0.856173,0.348357 0.764439,0.572299 0.305776,0.423004 0.428087,0.821127 0.336353,0.945538 0.183466,0.895774 0.06115,1.468074 -0.336354,2.911264 -0.458664,2.38873 -0.24462,0.920657 -0.152888,0.472769 -0.214043,0.149296 -0.451563,0.111347 -0.679808,-0.13623 -0.275199,-0.622065 0.703285,-3.433799 0.152888,-2.264317 -0.183466,-1.891078 -0.88675,-1.567604 -1.284258,-0.995304 -0.397509,0.398122 -0.305776,0.746477 -0.366931,1.368544 -0.183466,1.119717 -0.183465,0.995304 -0.183466,0.447887 -0.275198,0.09953 c 0,0 -0.611552,0.348357 -0.580974,-0.373239 z"
         style="fill:url(#linearGradient3453);fill-opacity:1;fill-rule:evenodd;stroke:none;display:inline" />
      <path
         style="fill:#000000;fill-opacity:0.15686275;fill-rule:evenodd;stroke:none;display:inline"
         d="M 56.908108,84.728693 57.6,82.054305 l 4.497297,1.196436 5.621622,0.351893 4.497297,-0.49265 5.448649,-1.126058 0.605405,3.096659 -3.2,1.689088 -5.535135,1.126058 -4.92973,0.140757 -4.151351,-1.126058 -2.681081,-1.266816 -0.864865,-0.914921 z"
         id="path3103" />
      <path
         style="fill:#000000;fill-opacity:0.15686275;fill-rule:evenodd;stroke:none;display:inline"
         d="m 43.935135,67.345171 -0.864865,2.322494 0.172973,1.970602 0.864865,2.040981 2.248649,2.604009 6.054054,3.870824 5.448648,2.181739 6.227028,0.914921 5.189189,0.211136 6.4,-0.844544 4.151351,-1.196436 5.708108,-2.533631 4.843243,-3.518932 1.98919,-2.674387 0.518919,-1.970602 -0.778379,-3.026282 -0.605405,2.252117 -1.470271,2.815145 -1.729729,1.900223 -3.286487,2.111359 -5.189189,2.181738 -6.486486,1.196436 -4.670271,0.703787 -2.767567,-0.07038 -4.756757,-0.633405 -4.583784,-1.055679 -5.102703,-1.759466 -3.372972,-2.111359 -1.98919,-1.900223 -1.47027,-2.463252 -0.605405,-1.337194 -0.08649,-2.181737 z"
         id="path3105" />
      <path
         style="fill:#000000;fill-opacity:0.15686275;fill-rule:evenodd;stroke:none;display:inline"
         d="m 60.482474,69.021489 0.856173,-2.48826 1.956965,0.746478 3.485846,0.497653 2.690828,0 5.565121,-1.592487 0.428087,2.58779 -1.712346,1.343661 -4.770104,1.293896 -2.813138,-0.149296 c 0,0 -1.834655,-0.298591 -2.140431,-0.398122 -0.305776,-0.09953 -3.485846,-1.791547 -3.547001,-1.841313 z"
         id="path3107" />
      <path
         style="fill:#ffffff;fill-opacity:0.1254902;fill-rule:evenodd;stroke:none"
         d="m 61.55269,58.670326 -0.856173,0.07465 -0.305776,0.199061 -0.12231,0.373239 0.825595,1.020186 0.611552,0.09953 0.978483,0.09953 0.947905,-0.223944 0.366931,-0.223943 0.06115,-0.497652 -0.24462,-0.646947 -0.428087,-0.223944 -1.834655,-0.04977 z"
         id="path3204" />
      <path
         style="fill:#ffffff;fill-opacity:0.1254902;fill-rule:evenodd;stroke:none"
         d="m 71.765605,60.188165 -0.366931,0.273709 -0.12231,0.298591 -0.275199,0.522534 0.214043,0.323474 0.489242,0.323475 0.88675,0.248826 0.947905,0 0.519819,-0.223944 0.550397,-0.398122 0.244621,-0.497652 -0.336354,-0.373239 -0.856172,-0.248826 -1.895811,-0.248826 z"
         id="path3208" />
      <path
         style="fill:#000000;fill-opacity:1;stroke:none"
         d="m 63.46875,47.616611 c -0.530955,0.06098 -1.090186,0.263292 -1.6875,0.610314 -1.500665,2.015843 -1.332222,4.419766 -0.96875,6.738892 -1.783887,0.710549 -3.273753,1.788818 -4.1875,3.35673 -3.40625,1.619029 -4.881214,0.800423 -10.09116,4.474319 -5.721929,5.846641 -4.371746,11.150071 1.148324,14.662442 6.71372,4.27188 13.104289,6.491897 21.082883,6.263143 2.155563,-0.0618 10.721389,-0.912305 17.055028,-4.680939 6.16136,-3.666126 10.041722,-8.741322 3.94327,-15.865346 -2.805371,-2.625549 -6.893072,-3.755643 -11.044595,-4.904478 -0.810551,-1.54621 -2.229824,-2.589648 -3.9375,-3.280442 0.08206,-1.609877 -0.136048,-3.279017 -1.1875,-4.958806 -1.592838,-1.330436 -2.818706,-1.519719 -4.34375,-0.864613 -1.200473,0.761444 -1.494222,1.808452 -1.5625,3.077003 -0.04197,-1.410599 -0.270836,-2.641294 -1.5625,-3.789037 -0.953152,-0.651818 -1.771325,-0.940824 -2.65625,-0.839182 z m 0.46875,0.127147 c 0.672278,0.0217 1.378301,0.264618 2.15625,0.762895 1.33321,1.483603 1.590318,3.33793 1.4375,5.111385 -0.05344,0.620189 0.494388,0.903485 -0.28125,1.805515 0.19296,-0.111428 0.327773,-0.233038 0.40625,-0.381447 0.04167,0.21604 0.181874,0.408355 0.375,0.610315 -0.02916,-0.09306 0.02403,-0.165128 0.03125,-0.330587 -0.744512,-1.092728 -0.32582,-5.348364 1.25,-6.103147 0.388974,-0.150227 0.764815,-0.246275 1.125,-0.279728 0.135069,-0.01255 0.275087,-0.029 0.40625,-0.02543 0.918141,0.02499 1.737764,0.449444 2.53125,1.14434 1.976988,2.87952 1.082741,5.799202 0.6875,8.366398 -0.099,0.488965 -0.206111,1.436767 -0.4375,2.085241 -0.02429,0.226342 -0.104365,0.517411 -0.21875,0.712034 -0.669275,0.529097 -1.833089,-0.09043 -1.34375,-0.610314 0.120793,-1.263751 0.868283,-3.136555 0.8125,-4.450212 -0.117159,-1.975722 0.248435,-4.301852 -2.4375,-5.67084 -1.018227,0.323014 -0.663324,0.925307 -1.28125,2.568407 0.0613,0.413277 -0.218987,2.537989 -0.59375,2.568408 -0.0444,0.05251 -0.04157,0.04211 -0.0625,0.101719 0.3181,-0.07636 0.310701,-0.206373 0.4375,-0.483166 0.09308,0.02781 0.178351,0.06171 0.28125,0.101719 -0.694977,1.116961 -2.449588,0.5405 -2.59375,-0.101719 0.06499,-0.03363 0.126023,-0.05331 0.1875,-0.07629 0.04986,0.04276 0.09741,0.08961 0.15625,0.127149 7.61e-4,-0.06781 0,-0.135698 0,-0.203438 -0.363439,-0.355868 -0.807332,-2.323601 -0.75,-2.695557 -0.617925,-1.800234 -0.263023,-2.317055 -1.28125,-2.898995 -2.685934,0.685982 -2.320341,3.089167 -2.4375,5.035096 -0.05578,1.299473 0.691707,3.384613 0.8125,4.67908 0.239068,0.417748 -1.055566,0.730328 -1.5625,0.178008 -0.117252,-0.12775 0.114802,-0.327646 0.03125,-0.559455 -0.259838,-0.720897 -0.364049,-1.79577 -0.46875,-2.33954 -0.39524,-2.667701 -1.258238,-5.811598 0.71875,-8.188388 0.604561,-0.375712 1.233972,-0.581151 1.90625,-0.559456 z m 1.09375,2.034384 c 0.843026,1.040957 0.951923,2.746895 1.21875,4.043335 -1.149064,0.07978 -2.268806,0.258429 -3.34375,0.508595 -0.45096,-1.880969 0.02835,-4.150141 2.125,-4.55193 z m 5.3125,0.991761 c 1.537773,0.68573 2.205883,2.153577 2.28125,3.585599 -1.078354,-0.247153 -2.209275,-0.422501 -3.34375,-0.508596 0.192068,-1.118973 0.364663,-2.392773 1.0625,-3.077003 z m -4.75,3.687318 c -0.294984,0.149395 -0.590835,0.324012 -0.875,0.559455 -0.0032,0.04545 5.22e-4,0.08388 0,0.127149 L 64.6875,55.321834 C 64.118092,55.390042 63.558345,55.473259 63,55.576131 62.97622,55.35325 62.97432,55.13939 62.96875,54.914957 c 0.796554,-0.190019 1.665971,-0.333531 2.625,-0.457736 z m 3.5625,0 c 0.619918,0.149324 1.168071,0.409945 1.5625,0.813753 -0.361493,0.734147 -1.274735,1.358597 -2.15625,1.576646 -1.580078,0.177909 -2.813593,-0.620391 -3.34375,-1.703795 0.354256,-0.242187 0.774774,-0.416415 1.21875,-0.559455 0.03988,0.107415 0.06703,0.212471 0.125,0.305157 L 66,55.042106 c 0.241282,1.340047 1.070789,1.322678 2.5625,1.246059 0.895776,-0.06005 0.745053,-0.477995 1.25,-0.915472 -0.28443,-0.31969 -0.495406,-0.491093 -0.71875,-0.610315 0.0237,-0.09271 0.04148,-0.205881 0.0625,-0.305157 z m 1.4375,0 c 0.700903,0.09548 1.37181,0.256112 2.03125,0.432306 -0.01389,0.263508 -0.04147,0.514765 -0.09375,0.762894 -0.413032,-0.08504 -0.830164,-0.166309 -1.25,-0.228868 -0.0042,-0.490477 -0.270598,-0.780567 -0.6875,-0.966332 z m -9.6875,1.093481 c 0.03381,0.202247 0.05996,0.410309 0.09375,0.610314 -1.576723,0.670156 -2.452722,1.755856 -2.8125,3.305872 0.722836,3.718307 5.39012,4.282007 9.34375,4.399351 3.800427,0.01541 7.388446,-0.641658 8.78125,-3.40759 0.127281,-0.307294 0.22652,-0.628697 0.34375,-0.940902 -0.09468,-1.479702 -0.873495,-2.502706 -2,-3.153292 0.03452,-0.248086 0.06928,-0.486504 0.09375,-0.737464 1.778554,0.84664 3.164832,2.137371 3.78125,4.017905 -1.206809,4.402314 -6.248174,5.256896 -11.0625,5.74713 -10.946636,-0.659611 -14.096563,-6.981375 -6.5625,-9.841324 z m 3.75,0.152578 -0.125,1.017191 c -0.447171,0.05333 -0.882822,0.143445 -1.3125,0.228868 -0.05081,-0.302317 -0.109348,-0.586966 -0.15625,-0.915472 0.541154,-0.125888 1.070126,-0.246923 1.59375,-0.330587 z M 71.25,55.855859 c 0.395168,0.08943 0.791481,0.188924 1.1875,0.305157 0.0049,0.295723 -0.0012,0.5784 -0.03125,0.864613 -0.363448,-0.09216 -0.739692,-0.169388 -1.125,-0.228868 L 71.25,55.855859 z m -0.4375,0.02543 0.03125,3.585599 c -2.102545,1.063231 -4.071687,1.03593 -6.0625,-0.10172 l 0.5,-3.026143 c 0.752367,0.538912 2.008933,1.077446 3.28125,1.017191 1.052824,0.03859 1.977194,-0.795031 2.25,-1.474927 z m -9.71875,0.788323 c 0.05188,0.264282 0.09058,0.540176 0.125,0.813753 -0.912627,0.353108 -1.684002,0.825548 -2.1875,1.474927 0.249505,-1.102573 0.986349,-1.781367 2.0625,-2.28868 z m 13.46875,0.305157 c 0.953435,0.54243 1.664905,1.340664 1.75,2.542978 -0.03174,0.132855 -0.08111,0.257219 -0.125,0.381447 -0.392488,-0.932809 -1.007971,-1.581483 -1.78125,-2.059812 0.05073,-0.286899 0.108888,-0.572967 0.15625,-0.864613 z m -3.28125,0.330588 c 0.360332,0.0479 0.716345,0.105594 1.0625,0.178008 -0.0977,0.665563 -0.265145,1.283894 -0.3125,1.805514 -0.03479,0.251595 -0.08333,0.518637 -0.125,0.788323 -0.402591,0.140175 -0.502775,0.180124 -0.8125,0.813753 -0.205919,0.281438 -0.334182,0.557332 -0.03125,0.762894 0.843434,0.470244 1.584285,0.72778 2.65625,0.584884 0.747579,-0.559184 1.631871,-0.783717 1.0625,-1.551216 -0.354446,-0.06551 -0.553525,-0.241236 -0.8125,-0.254298 0.152491,-0.544772 0.189413,-1.209817 0.3125,-1.805514 0.02529,-0.148692 0.03602,-0.307592 0.0625,-0.457736 0.824372,0.422357 1.4813,1.00436 1.8125,1.830944 -1.092023,2.834075 -5.31208,3.387259 -8.625,3.48388 -3.477224,-0.02017 -7.115518,-0.752474 -8.34375,-3.50931 l 0.03125,0 c 0.02287,-0.90438 0.888847,-1.527265 2.09375,-1.958093 0.03346,0.217908 0.06988,0.413499 0.125,0.610315 -0.318694,-0.113652 -0.573119,0.06785 -1,0.07629 -0.744614,0.660739 0.09055,1.009937 0.6875,1.678366 1.01608,0.31255 1.808959,0.198104 2.75,-0.127149 0.346895,-0.152761 0.289721,-0.45388 0.15625,-0.762894 -0.148025,-0.663671 -0.243026,-0.71864 -0.59375,-0.915472 -0.04066,-0.230154 -0.06497,-0.471137 -0.09375,-0.686604 -0.0093,-0.104277 -0.04722,-0.243242 -0.0625,-0.356017 0.391701,-0.0746 0.786064,-0.153901 1.1875,-0.203438 l -0.25,2.28868 c 2.491513,1.570065 4.612191,1.382075 7.125,0.228868 l -0.0625,-2.542978 z m -10.25,1.449521 c 0.156588,-0.0026 0.319766,0.02427 0.46875,0.07629 -0.01084,0.849361 0.667217,0.934271 1.75,0.890042 0.253515,-0.324851 0.268864,-0.522632 0.21875,-0.915472 0.120242,0.08019 0.243926,0.143949 0.34375,0.203439 -0.04877,0.128002 0.300953,0.735875 -0.03125,1.09348 -0.974255,0.618598 -2.107501,0.363936 -2.65625,0.05086 -1.156611,-0.946253 -0.701313,-1.388566 -0.09375,-1.398638 z M 79,58.805713 c 6.003125,1.374871 11.359863,4.069898 12.46875,9.434448 -0.235929,8.679744 -14.640555,12.018203 -24,12.460592 -9.330146,-0.253805 -23.362071,-4.174355 -23.25,-12.460592 0.413007,-4.917308 6.064604,-7.270144 12.09375,-9.307299 -0.227608,0.269693 -0.274906,0.660794 -0.34375,0.940902 -4.965792,0.708578 -8.169841,3.998309 -9.65625,8.137529 1.319599,8.023397 13.185965,9.764856 21.375,10.070193 8.238609,-0.194912 19.999007,-2.125581 21.375,-10.070193 -0.443048,-4.440812 -4.973645,-6.881717 -9.625,-8.442686 C 79.391174,59.081146 79.160769,59.086054 79,58.805713 z m -22.875,1.246059 c 0.0075,0.335011 0.05765,0.649312 0.09375,0.966332 -5.274491,1.635862 -8.623216,4.237531 -9.125,7.425496 C 47.05988,68.29939 47.02603,68.159863 47,68.011293 c 0.47767,-4.122841 4.728364,-6.553669 9.125,-7.959521 z m 23.4375,0.05086 c 4.23362,1.315236 7.666627,3.598881 8.84375,7.171198 -1.166139,-3.200254 -4.917896,-4.716925 -8.8125,-6.026858 0.04461,-0.377723 0.0353,-0.755311 -0.03125,-1.14434 z m -0.4375,0.05086 c 0.363948,2.136112 -0.793688,3.40805 -3.03125,5.085956 -5.135628,3.253726 -11.812232,2.965272 -16.78125,-0.05086 -1.403478,-1.37779 -3.010131,-2.615295 -2.90625,-4.399352 1.490699,3.479201 6.880373,4.685298 11.0625,4.882518 4.463056,-0.137525 10.485337,-1.556722 11.65625,-5.518262 z m -7.25,0.127149 c -0.02987,0.342812 -0.007,0.695973 0.21875,1.042621 1.120101,0.330221 1.579698,-0.05374 1.8125,-0.686604 0.724924,-0.01579 1.443477,0.520389 -0.125,1.373208 -0.613986,0.218603 -1.820286,0.279978 -2.625,-0.483165 -0.238755,-0.403995 0.26671,-0.934729 0.25,-1.068051 0.130802,-0.04921 0.315377,-0.109928 0.46875,-0.178009 z M 56.28125,61.47584 c 0.271947,1.57752 0.996468,2.957331 2.78125,4.246774 0.631245,0.356382 1.272542,0.671241 1.9375,0.940902 l -0.625,2.33954 c 3.851234,3.625298 11.384897,3.378327 15.25,-0.07629 L 75.25,66.383787 c 0.02115,-0.06855 0.93688,-0.514124 1.28125,-0.686604 1.66215,-1.305671 2.738644,-2.674644 3.03125,-4.119624 4.088329,1.302151 8.083908,3.442307 8.96875,7.044049 -1.733604,7.214978 -13.251379,8.763002 -20.84375,9.053001 -7.316921,-0.204575 -18.090578,-1.904083 -20.375,-8.468116 0.155043,-3.146352 3.517379,-6.038571 8.96875,-7.730653 z M 44.1875,66.282068 c 0,0 0,0 0,0 z m 11.65625,-1.220629 c -4.33524,1.308225 -3.527218,3.012963 -0.0625,4.60279 l 0.0625,-0.254298 c -3.03832,-1.081252 -2.967211,-2.952132 0,-4.094194 l 0,-0.254298 z m 19.03125,1.424068 0.25,2.314109 c -4.070237,3.128027 -10.899658,3.120421 -14.3125,0.127149 l 0.65625,-2.034382 c 3.031026,1.363498 9.068411,1.640161 13.40625,-0.406876 z m 4.40625,0.991761 -0.3125,0.101719 c 3.698079,2.327191 -2.179446,3.342051 -4.5,3.534739 l 0.125,0.254298 c 3.808142,0.01249 8.757323,-1.910295 4.6875,-3.890756 z M 92.125,68.36731 c 1.330371,3.994211 -1.027345,7.187839 -7.573838,10.990091 C 74.134938,84.86038 61.375611,84.615212 51.0625,79.073247 46.797793,76.662328 42.02896,73.404031 43.625,68.977625 45.626806,77.595831 58.038809,80.474886 67.46875,80.929621 77.204669,80.632787 90.392731,77.419071 92.125,68.36731 z m 0.240936,2.828435 C 90.41207,81.106688 70.934867,83.595244 66.917624,83.527518 63.935169,83.477238 63.019595,83.043442 57.768871,82.045717 l -1.050785,2.901809 c 6.223715,5.155712 16.101693,3.782148 21.813164,0.254298 l -0.625,-3.000714 c 2.375154,-0.682836 4.707489,-1.563505 6.9375,-2.644697 3.833867,-2.606392 7.263824,-4.118796 7.522186,-8.360668 z m -36.897186,1.062321 0,0.203439 c 4.60588,3.436756 10.082482,4.128386 15.8125,2.26325 l 0,-0.305157 c -5.376299,1.82499 -11.440797,0.858385 -15.8125,-2.161532 z m -10.84375,2.822706 0,0 z m 33.15625,7.145772 -0.1875,0.330583 0.5625,2.415829 c -5.631002,3.499566 -16.192942,3.916652 -21.0625,-0.178009 l 0.881474,-2.658513 c 6.527189,1.90005 13.200404,1.967658 19.806026,0.09011 z"
         id="path3228"
         sodipodi:nodetypes="cccccsssccccccccccscccccsscccccccccccccsscccccssccccccccccccccccccccccccccccccccccccccccccccccccccccccccccccccccccccccccsccccccsccccccccccccsccccccccccccccccccccccccccccccccccccccccccccccccccccccccccccccccccccccccccccccccccsccccccccccccccccccc" />
    </g>
  </g>
</svg>
