/* XPM */
static char *dummy[]={
"16 16 38 1",
". c None",
"G c #090909",
"J c #202020",
"E c #3d3d3d",
"e c #505050",
"y c #565656",
"c c #5e5e5e",
"b c #5f5f5f",
"r c #6b6b6b",
"i c #6c6c6c",
"H c #797979",
"F c #7b7b7b",
"l c #7f7f7f",
"o c #818181",
"t c #858585",
"C c #868686",
"g c #888888",
"j c #939393",
"A c #959595",
"w c #9f9f9f",
"I c #aeaeae",
"v c #b0b0b0",
"z c #b9b9b9",
"B c #bababa",
"k c #bcbcbc",
"f c #c6c6c6",
"D c #c9c9c9",
"m c #cfcfcf",
"s c #d3d3d3",
"p c #d9d9d9",
"# c #dbdbdb",
"h c #e3e3e3",
"q c #e4e4e4",
"d c #f1f1f1",
"n c #f3f3f3",
"u c #f5f5f5",
"x c #f9f9f9",
"a c #fcfcfc",
"................",
"...#a...b...b...",
"...cd...e..fg...",
"...hi...e..jk...",
"....lm..e.nop...",
"....kj..e.qr....",
"....stu.e.vw....",
".....rq.e.e.....",
".....xy.e.e.....",
"......e.ezA.....",
"......BAeCD.....",
"......DCElh.....",
"......nFGH......",
".......IJI......",
"........e.......",
"................"};
