/* XPM */
static char *dummy[]={
"16 16 3 1",
". c None",
"a c #000000",
"# c #808080",
"................",
"................",
"................",
"........#.......",
"....a...a...a...",
".....#..#..#....",
"......#.a.#.....",
"......a.#.a.....",
".......#a#......",
".......a#a......",
"........a.......",
"........#.......",
"........a.......",
"................",
"................",
"................"};
