<?xml version="1.0" encoding="UTF-8" standalone="no"?>
<!-- Created with Inkscape (http://www.inkscape.org/) -->

<svg
   xmlns:dc="http://purl.org/dc/elements/1.1/"
   xmlns:cc="http://creativecommons.org/ns#"
   xmlns:rdf="http://www.w3.org/1999/02/22-rdf-syntax-ns#"
   xmlns:svg="http://www.w3.org/2000/svg"
   xmlns="http://www.w3.org/2000/svg"
   xmlns:xlink="http://www.w3.org/1999/xlink"
   xmlns:sodipodi="http://sodipodi.sourceforge.net/DTD/sodipodi-0.dtd"
   xmlns:inkscape="http://www.inkscape.org/namespaces/inkscape"
   width="100"
   height="100"
   id="svg2"
   sodipodi:version="0.32"
   inkscape:version="0.91 r13725"
   version="1.0"
   sodipodi:docname="fuel.svg"
   inkscape:output_extension="org.inkscape.output.svg.inkscape"
   inkscape:export-filename="/home/jeff/projets/navit/icons/png/fuel.png"
   inkscape:export-xdpi="90"
   inkscape:export-ydpi="90">
  <defs
     id="defs4">
    <linearGradient
       id="linearGradient3172">
      <stop
         style="stop-color:#ffffff;stop-opacity:1;"
         offset="0"
         id="stop3174" />
      <stop
         id="stop3184"
         offset="0.98979592"
         style="stop-color:#ffffff;stop-opacity:1;" />
      <stop
         style="stop-color:#ffffff;stop-opacity:0;"
         offset="1"
         id="stop3176" />
    </linearGradient>
    <linearGradient
       id="linearGradient3179">
      <stop
         style="stop-color:#e5a80d;stop-opacity:1;"
         offset="0"
         id="stop3181" />
      <stop
         style="stop-color:#a11708;stop-opacity:1;"
         offset="1"
         id="stop3183" />
    </linearGradient>
    <linearGradient
       id="linearGradient3171">
      <stop
         style="stop-color:#7f7f7f;stop-opacity:1;"
         offset="0"
         id="stop3173" />
      <stop
         style="stop-color:#000000;stop-opacity:1;"
         offset="1"
         id="stop3175" />
    </linearGradient>
    <inkscape:perspective
       sodipodi:type="inkscape:persp3d"
       inkscape:vp_x="0 : 526.18109 : 1"
       inkscape:vp_y="0 : 1000 : 0"
       inkscape:vp_z="744.09448 : 526.18109 : 1"
       inkscape:persp3d-origin="372.04724 : 350.78739 : 1"
       id="perspective10" />
    <inkscape:perspective
       id="perspective2394"
       inkscape:persp3d-origin="372.04724 : 350.78739 : 1"
       inkscape:vp_z="744.09448 : 526.18109 : 1"
       inkscape:vp_y="0 : 1000 : 0"
       inkscape:vp_x="0 : 526.18109 : 1"
       sodipodi:type="inkscape:persp3d" />
    <linearGradient
       inkscape:collect="always"
       xlink:href="#linearGradient3171"
       id="linearGradient3177"
       x1="8.4442434"
       y1="3.2490435"
       x2="9.3754778"
       y2="7"
       gradientUnits="userSpaceOnUse"
       gradientTransform="matrix(5.0162828,0,0,5.0163063,-10.552679,-83.132944)" />
    <linearGradient
       inkscape:collect="always"
       xlink:href="#linearGradient3179"
       id="linearGradient3185"
       x1="6.9290147"
       y1="9.9886541"
       x2="9.8439093"
       y2="17.43853"
       gradientUnits="userSpaceOnUse"
       gradientTransform="matrix(5.0162828,0,0,5.0163063,-10.711028,-82.466142)" />
    <radialGradient
       inkscape:collect="always"
       xlink:href="#linearGradient3172"
       id="radialGradient3180"
       cx="11.616755"
       cy="10.509515"
       fx="11.616755"
       fy="10.509515"
       r="10.038391"
       gradientUnits="userSpaceOnUse" />
  </defs>
  <sodipodi:namedview
     id="base"
     pagecolor="#4eadff"
     bordercolor="#666666"
     borderopacity="1.0"
     inkscape:pageopacity="1"
     inkscape:pageshadow="2"
     inkscape:zoom="5.6"
     inkscape:cx="68.816464"
     inkscape:cy="49.363892"
     inkscape:document-units="px"
     inkscape:current-layer="layer1"
     showgrid="true"
     inkscape:window-width="1440"
     inkscape:window-height="874"
     inkscape:window-x="0"
     inkscape:window-y="0"
     inkscape:window-maximized="1">
    <inkscape:grid
       type="xygrid"
       id="grid2380"
       visible="true"
       enabled="true" />
  </sodipodi:namedview>
  <metadata
     id="metadata7">
    <rdf:RDF>
      <cc:Work
         rdf:about="">
        <dc:format>image/svg+xml</dc:format>
        <dc:type
           rdf:resource="http://purl.org/dc/dcmitype/StillImage" />
        <dc:title></dc:title>
        <dc:description>jfitie@gmail.com</dc:description>
        <cc:license
           rdf:resource="http://creativecommons.org/publicdomain/zero/1.0/" />
      </cc:Work>
      <cc:License
         rdf:about="http://creativecommons.org/publicdomain/zero/1.0/">
        <cc:permits
           rdf:resource="http://creativecommons.org/ns#Reproduction" />
        <cc:permits
           rdf:resource="http://creativecommons.org/ns#Distribution" />
        <cc:permits
           rdf:resource="http://creativecommons.org/ns#DerivativeWorks" />
      </cc:License>
    </rdf:RDF>
  </metadata>
  <g
     inkscape:label="Calque 1"
     inkscape:groupmode="layer"
     id="layer1"
     transform="translate(0,78)">
    <path
       style="color:#000000;font-style:normal;font-variant:normal;font-weight:normal;font-stretch:normal;font-size:medium;line-height:normal;font-family:sans-serif;text-indent:0;text-align:start;text-decoration:none;text-decoration-line:none;text-decoration-style:solid;text-decoration-color:#000000;letter-spacing:normal;word-spacing:normal;text-transform:none;direction:ltr;block-progression:tb;writing-mode:lr-tb;baseline-shift:baseline;text-anchor:start;white-space:normal;clip-rule:nonzero;display:inline;overflow:visible;visibility:visible;opacity:1;isolation:auto;mix-blend-mode:normal;color-interpolation:sRGB;color-interpolation-filters:linearRGB;solid-color:#000000;solid-opacity:1;fill:#ffffff;fill-opacity:1;fill-rule:evenodd;stroke:none;stroke-width:4.80707788px;stroke-linecap:butt;stroke-linejoin:miter;stroke-miterlimit:4;stroke-dasharray:none;stroke-dashoffset:0;stroke-opacity:1;color-rendering:auto;image-rendering:auto;shape-rendering:auto;text-rendering:auto;enable-background:accumulate"
       d="m 64.319043,-75.976132 c -2.407391,3.519501 -5.08403,9.050025 -0.743915,12.344983 10.999548,7.547369 17.061127,22.318083 13.366022,35.382021 -1.150836,7.484334 2.291497,14.493522 4.6347,21.2414424 0.612068,4.3357714 -2.50523,12.5555817 -7.89977,10.2029032 -8.563274,-8.9624759 -3.595773,-22.3897596 -6.161257,-33.3703826 -0.771474,-8.014441 -6.712423,-17.636327 -15.874957,-16.062541 -3.018933,0.207075 -3.530272,3.812793 -3.703279,5.651747 -4.113839,2.957054 1.832882,6.086454 4.386043,7.153854 5.626672,13.239411 -0.481344,29.159604 7.852907,41.6655921 5.507575,10.2767089 21.350403,12.0860219 28.566365,2.6821849 7.913118,-8.6882028 7.589794,-22.35007 1.844495,-32.043557 -0.721218,-9.151484 2.08055,-19.006876 -0.478955,-27.745129 5.002615,-1.851306 3.754044,-8.345175 0.136555,-10.963128 C 83.618437,-67.920476 74.42948,-73.333766 65.226008,-78 c -0.302319,0.674622 -0.604647,1.349245 -0.906965,2.023868 z"
       id="path3174-3"
       inkscape:connector-curvature="0" />
    <path
       style="display:inline;overflow:visible;visibility:visible;opacity:1;fill:#ffffff;fill-opacity:1;fill-rule:evenodd;stroke:#ffffff;stroke-width:5.01630592;stroke-linecap:round;stroke-linejoin:miter;stroke-miterlimit:4;stroke-dasharray:none;stroke-dashoffset:0;stroke-opacity:1;marker:none;marker-start:none;marker-mid:none;marker-end:none;enable-background:accumulate"
       d="m 7.7581472,-71.804362 c 0,30.432072 0,60.864144 0,91.296215 16.2424998,0 32.4850008,0 48.7275018,0 0,-31.127755 0,-62.25551 0,-93.383265 -16.242501,0 -32.485002,0 -48.7275018,0 l 0,1.043525 0,1.043525 z"
       id="rect2400-3"
       inkscape:connector-curvature="0" />
    <rect
       style="display:inline;overflow:visible;visibility:visible;opacity:1;fill:url(#linearGradient3185);fill-opacity:1;fill-rule:evenodd;stroke:#000000;stroke-width:5.01630592;stroke-linecap:round;stroke-linejoin:miter;stroke-miterlimit:4;stroke-dasharray:none;stroke-dashoffset:0;stroke-opacity:1;marker:none;marker-start:none;marker-mid:none;marker-end:none;enable-background:accumulate"
       id="rect2400"
       width="40.37933"
       height="85.034531"
       x="11.933069"
       y="-69.81002" />
    <rect
       style="display:inline;overflow:visible;visibility:visible;opacity:1;fill:url(#linearGradient3177);fill-opacity:1;fill-rule:evenodd;stroke:none;stroke-width:1;stroke-linecap:round;stroke-linejoin:miter;stroke-miterlimit:4;stroke-dasharray:none;stroke-dashoffset:0;stroke-opacity:1;marker:none;marker-start:none;marker-mid:none;marker-end:none;enable-background:accumulate"
       id="rect3172"
       width="25.336052"
       height="25.177818"
       x="19.217184"
       y="-62.400917" />
    <path
       style="color:#000000;font-style:normal;font-variant:normal;font-weight:normal;font-stretch:normal;font-size:medium;line-height:normal;font-family:sans-serif;text-indent:0;text-align:start;text-decoration:none;text-decoration-line:none;text-decoration-style:solid;text-decoration-color:#000000;letter-spacing:normal;word-spacing:normal;text-transform:none;direction:ltr;block-progression:tb;writing-mode:lr-tb;baseline-shift:baseline;text-anchor:start;white-space:normal;clip-rule:nonzero;display:inline;overflow:visible;visibility:visible;opacity:1;isolation:auto;mix-blend-mode:normal;color-interpolation:sRGB;color-interpolation-filters:linearRGB;solid-color:#000000;solid-opacity:1;fill:#000000;fill-opacity:1;fill-rule:evenodd;stroke:none;stroke-width:4.80707788px;stroke-linecap:butt;stroke-linejoin:miter;stroke-miterlimit:4;stroke-dasharray:none;stroke-dashoffset:0;stroke-opacity:1;color-rendering:auto;image-rendering:auto;shape-rendering:auto;text-rendering:auto;enable-background:accumulate"
       d="m 66.848643,-72.617869 -2.048316,4.571538 c 0,0 1.484614,0.926758 1.82616,1.108746 0.593089,0.404944 1.202276,0.809107 2.14207,1.652927 2.457025,2.206105 5.827145,6.06365 9.181755,12.611977 3.334402,6.508882 3.951233,10.678644 3.841865,14.65419 -0.109365,3.975548 -1.108739,7.94316 -1.108739,13.337555 0,5.459139 1.499744,8.418637 2.661791,10.545311 1.162049,2.126673 2.003225,3.422068 1.930105,8.1015855 C 85.133258,3.0589662 79.702566,7.7714289 74.540528,7.6499981 72.174912,7.5943552 69.5989,6.1726231 67.435624,2.4996312 c -2.163277,-3.6729917 -3.731007,-9.5642874 -3.58914,-17.7929172 0.242192,-13.966436 -1.757271,-20.646151 -4.55521,-24.204891 -1.398969,-1.779369 -3.082533,-2.678117 -4.451266,-2.965486 -1.368731,-0.287368 -2.629181,0.05503 -2.629181,0.05503 l 1.471526,4.795731 c 0,0 -0.152737,5.08e-4 0.126364,0.05911 0.279101,0.05859 0.78227,0.192846 1.540824,1.157661 1.517105,1.929629 3.713977,7.586909 3.481116,21.015209 -0.153392,8.8971143 1.484619,15.67292733 4.284141,20.4261874 2.79952,4.7532607 6.942914,7.5158856 11.307518,7.6185486 8.302138,0.195298 15.694224,-7.442431 15.868844,-18.6183626 0.0853,-5.4586624 -1.369944,-8.4381934 -2.54358,-10.5860724 -1.173635,-2.14788 -2.048316,-3.464981 -2.048316,-8.140311 0,-4.741309 0.978544,-8.540302 1.106702,-13.198961 0.125447,-4.560022 -0.759575,-9.786566 -4.202614,-16.655639 0.788972,0.961847 1.499558,1.932592 2.042201,2.898229 l 4.373817,-2.457992 c -3.053048,-5.432891 -8.525903,-9.87337 -13.227433,-13.13374 -3.480978,-2.413955 -5.998657,-3.813638 -7.380052,-4.555233 -0.175035,-0.105454 -0.146253,-0.07912 -0.295528,-0.163051 -0.303222,-0.160457 -1.055749,-0.576791 -1.055749,-0.576791 l -0.0062,0.01426 c -0.02035,-0.0089 -0.20585,-0.108022 -0.20585,-0.108022 z"
       id="path3174"
       inkscape:connector-curvature="0" />
  </g>
</svg>
