/* XPM */
static char *fuel[]={
"16 16 7 1",
". c None",
"d c #000000",
"a c #0000ff",
"c c #7f7f7f",
"e c #d1d2d3",
"b c #fefefe",
"# c #ffffff",
".##############.",
"#aaaaaaaaaaaaaa#",
"#aaaaaaaaaaaaaa#",
"#aabbbbbbbbbbaa#",
"#aabbbcdddcbbaa#",
"#aabbed#bbdbbaa#",
"#aabbed#bbdbbaa#",
"#aabbccddddbbaa#",
"#aabbccddddbbaa#",
"#aabeecddddbbaa#",
"#aabcecddddbbaa#",
"#aabccedddcbbaa#",
"#aabbbbbbbbbbaa#",
"#aaaaaaaaaaaaaa#",
"#aaaaaaaaaaaaaa#",
".##############."};
