<?xml version="1.0" encoding="UTF-8" standalone="no"?>
<!-- Created with Inkscape (http://www.inkscape.org/) -->

<svg
   xmlns:dc="http://purl.org/dc/elements/1.1/"
   xmlns:cc="http://creativecommons.org/ns#"
   xmlns:rdf="http://www.w3.org/1999/02/22-rdf-syntax-ns#"
   xmlns:svg="http://www.w3.org/2000/svg"
   xmlns="http://www.w3.org/2000/svg"
   xmlns:sodipodi="http://sodipodi.sourceforge.net/DTD/sodipodi-0.dtd"
   xmlns:inkscape="http://www.inkscape.org/namespaces/inkscape"
   width="241"
   height="241"
   id="svg2"
   version="1.1"
   inkscape:version="0.48.1 r9760"
   sodipodi:docname="gui_formerdests.svg">
  <defs
     id="defs4" />
  <sodipodi:namedview
     id="base"
     pagecolor="#353535"
     bordercolor="#666666"
     borderopacity="1.0"
     inkscape:pageopacity="0.90980392"
     inkscape:pageshadow="2"
     inkscape:zoom="1.4142136"
     inkscape:cx="72.316131"
     inkscape:cy="65.244573"
     inkscape:document-units="px"
     inkscape:current-layer="layer1"
     showgrid="false"
     fit-margin-top="10"
     fit-margin-left="10"
     fit-margin-right="10"
     fit-margin-bottom="0"
     inkscape:window-width="1024"
     inkscape:window-height="723"
     inkscape:window-x="-4"
     inkscape:window-y="-4"
     inkscape:window-maximized="1" />
  <metadata
     id="metadata7">
    <rdf:RDF>
      <cc:Work
         rdf:about="">
        <dc:format>image/svg+xml</dc:format>
        <dc:type
           rdf:resource="http://purl.org/dc/dcmitype/StillImage" />
        <dc:title />
      </cc:Work>
    </rdf:RDF>
  </metadata>
  <g
     inkscape:label="Layer 1"
     inkscape:groupmode="layer"
     id="layer1"
     transform="translate(-282.75539,-173.64774)">
    <path
       style="fill:#ffffff;fill-opacity:1;stroke:#ffffff;stroke-width:1.07859778px;stroke-linecap:butt;stroke-linejoin:miter;stroke-opacity:1"
       d="m 315.9221,179.55511 1.84369,229.21288 13.23082,0.36698 -1.76081,-113.90014 152.29728,42.19098 -2.00302,-113.97032 z"
       id="path3990"
       inkscape:connector-curvature="0"
       sodipodi:nodetypes="ccccccc" />
    <path
       style="fill:#ffffff;fill-opacity:1;fill-rule:nonzero;stroke:none"
       d="m 454.72593,250.97521 -13.77775,-3.82963 -0.54538,-7.09091 c -0.29997,-3.90001 -0.54539,-9.37233 -0.54539,-12.16069 0,-5.99341 -1.81607,-5.90559 16.4994,-0.79782 l 12.34178,3.44184 0.54387,4.13946 c 0.75377,5.73685 0.68358,20.28086 -0.0975,20.19659 -0.35273,-0.0381 -6.84132,-1.79254 -14.41907,-3.89884 z"
       id="path3929-6"
       inkscape:connector-curvature="0" />
    <path
       style="fill:#ffffff;fill-opacity:1;fill-rule:nonzero;stroke:none"
       d="m 392.30272,235.32956 -13.77774,-3.82963 -0.54539,-7.09092 c -0.29997,-3.90001 -0.54539,-9.37232 -0.54539,-12.16068 0,-5.99341 -1.81607,-5.9056 16.4994,-0.79782 l 12.34178,3.44184 0.54387,4.13945 c 0.75377,5.73686 0.68358,20.28086 -0.0975,20.19659 -0.35273,-0.0381 -6.84131,-1.79253 -14.41907,-3.89883 z"
       id="path3929-5"
       inkscape:connector-curvature="0" />
    <path
       style="fill:none;stroke:#000000;stroke-width:7.55018425;stroke-linecap:butt;stroke-linejoin:miter;stroke-miterlimit:4;stroke-opacity:1;stroke-dasharray:none"
       d="m 324.6767,407.10155 -2.35123,-219.4681 150.11302,40.42662 2.70471,101.76364 -152.81773,-43.21463"
       id="path2996"
       inkscape:connector-curvature="0"
       sodipodi:nodetypes="ccccc" />
    <path
       style="fill:none;stroke:#000000;stroke-width:1.07859778px;stroke-linecap:butt;stroke-linejoin:miter;stroke-opacity:1"
       d="m 377.67719,200.20462 2.56533,103.39733"
       id="path3766"
       inkscape:connector-curvature="0" />
    <path
       style="fill:none;stroke:#000000;stroke-width:1.07859778px;stroke-linecap:butt;stroke-linejoin:miter;stroke-opacity:1"
       d="m 438.81774,220.27187 2.56534,103.39733"
       id="path3766-0"
       inkscape:connector-curvature="0" />
    <path
       style="fill:none;stroke:#000000;stroke-width:1.07859778px;stroke-linecap:butt;stroke-linejoin:miter;stroke-opacity:1"
       d="m 407.17858,207.68733 2.56533,103.39733"
       id="path3766-6"
       inkscape:connector-curvature="0" />
    <path
       style="fill:none;stroke:#000000;stroke-width:1.07859778px;stroke-linecap:butt;stroke-linejoin:miter;stroke-opacity:1"
       d="m 349.03091,194.08241 2.56534,103.39734"
       id="path3766-1"
       inkscape:connector-curvature="0" />
    <path
       style="fill:none;stroke:#000000;stroke-width:1.07859778px;stroke-linecap:butt;stroke-linejoin:miter;stroke-opacity:1"
       d="m 322.09489,238.97862 148.78958,40.81474"
       id="path3807"
       inkscape:connector-curvature="0" />
    <path
       style="fill:none;stroke:#000000;stroke-width:1.07859778px;stroke-linecap:butt;stroke-linejoin:miter;stroke-opacity:1"
       d="m 325.51533,264.82795 148.78958,40.81474"
       id="path3807-5"
       inkscape:connector-curvature="0" />
    <path
       style="fill:none;stroke:#000000;stroke-width:1.07859778px;stroke-linecap:butt;stroke-linejoin:miter;stroke-opacity:1"
       d="m 325.51533,217.21075 148.78958,40.81474"
       id="path3807-54"
       inkscape:connector-curvature="0" />
    <path
       style="fill:#000000;fill-opacity:1;fill-rule:nonzero;stroke:none"
       d="m 337.66403,242.81332 c -6.31866,-1.76013 -11.59191,-3.23587 -11.71834,-3.2794 -0.12644,-0.0436 -0.19446,-4.96066 -0.15117,-10.92694 l 0.0787,-10.8478 11.63962,3.18734 11.63963,3.18735 0.20168,5.85751 c 0.39359,11.4314 0.42417,16.07994 0.10557,16.05055 -0.16898,-0.0156 -5.47705,-1.46846 -11.7957,-3.22861 z"
       id="path3840"
       inkscape:connector-curvature="0" />
    <path
       style="fill:#000000;fill-opacity:1;fill-rule:nonzero;stroke:none"
       d="m 364.29136,227.41896 c -7.30397,-2.00804 -13.44716,-3.74666 -13.65152,-3.86361 -0.2788,-0.15955 -0.45163,-3.4217 -0.69229,-13.06779 -0.1764,-7.07035 -0.28402,-12.88437 -0.23915,-12.92006 0.14716,-0.11707 26.94825,7.16337 27.25826,7.40463 0.32119,0.24995 1.08131,25.71753 0.77487,25.962 -0.0936,0.0746 -6.1462,-1.50714 -13.45017,-3.51517 l 0,0 z"
       id="path3842"
       inkscape:connector-curvature="0" />
    <path
       style="fill:#000000;fill-opacity:1;fill-rule:nonzero;stroke:none"
       d="m 393.51877,258.15443 c -7.52437,-2.07863 -13.73938,-3.82602 -13.81112,-3.88309 -0.1495,-0.11892 -0.77265,-21.7021 -0.6299,-21.81673 0.0516,-0.0415 6.40009,1.65195 14.10776,3.76308 l 14.01394,3.83839 0.1923,1.2875 c 0.10582,0.70813 0.28348,5.64361 0.39489,10.96775 0.16523,7.89517 0.12976,9.67492 -0.1923,9.65133 -0.21719,-0.0159 -6.55119,-1.72961 -14.07557,-3.80823 l 0,0 z"
       id="path3844"
       inkscape:connector-curvature="0" />
    <path
       style="fill:#000000;fill-opacity:1;fill-rule:nonzero;stroke:none"
       d="m 365.34279,275.31107 c -7.39082,-2.03409 -13.53357,-3.77975 -13.65056,-3.87923 -0.17515,-0.14896 -0.93803,-23.89793 -0.772,-24.03312 0.0287,-0.0233 6.24095,1.65418 13.80508,3.7278 l 13.75299,3.77022 0.18855,6.73409 c 0.26805,9.57281 0.37035,17.19377 0.23215,17.29331 -0.0651,0.0469 -6.16541,-1.57898 -13.55621,-3.61307 l 0,0 z"
       id="path3846"
       inkscape:connector-curvature="0" />
    <path
       style="fill:#000000;fill-opacity:1;fill-rule:nonzero;stroke:none"
       d="m 338.41984,288.68092 c -6.40179,-1.83191 -11.74672,-3.36585 -11.87761,-3.40875 -0.1309,-0.0429 -0.32287,-4.48688 -0.42659,-9.87552 -0.15202,-7.89681 -0.11331,-9.79752 0.1998,-9.79752 0.3591,0 23.88513,6.40265 24.0623,6.54859 0.0435,0.0359 0.17906,4.52958 0.30109,9.986 0.18793,8.40289 0.15753,9.91747 -0.19874,9.89935 -0.23134,-0.0117 -5.65845,-1.52024 -12.06025,-3.35215 z"
       id="path3848"
       inkscape:connector-curvature="0" />
    <path
       style="fill:#000000;fill-opacity:1;fill-rule:nonzero;stroke:none"
       d="m 394.95517,304.67042 c -7.56576,-2.16298 -13.86023,-3.96601 -13.98771,-4.00672 -0.19511,-0.0623 -0.92503,-20.15506 -0.7376,-20.30416 0.0351,-0.0279 6.41116,1.6876 14.169,3.81228 l 14.10517,3.86305 0.17031,2.91168 c 0.32252,5.51427 0.51174,17.7026 0.27445,17.67961 -0.13074,-0.0127 -6.42787,-1.79275 -13.99362,-3.95574 z"
       id="path3850"
       inkscape:connector-curvature="0" />
    <path
       style="fill:#000000;fill-opacity:1;fill-rule:nonzero;stroke:none"
       d="m 456.78123,322.1797 c -8.14774,-2.31718 -14.85743,-4.24259 -14.91044,-4.27868 -0.14913,-0.10154 -0.69825,-20.60478 -0.5549,-20.71882 0.0948,-0.0754 21.14041,5.6068 29.12026,7.86236 0.94706,0.26769 0.95895,0.29128 1.12708,2.23822 0.31436,3.64022 0.54897,19.16391 0.28922,19.1368 -0.14144,-0.0147 -6.92348,-1.9227 -15.07122,-4.23988 z"
       id="path3852"
       inkscape:connector-curvature="0" />
    <path
       style="fill:#000000;fill-opacity:1;fill-rule:nonzero;stroke:none"
       d="m 424.58331,291.57622 -14.66291,-4.04262 -0.18548,-1.64774 c -0.31915,-2.83525 -0.63688,-22.45126 -0.36364,-22.45126 0.80291,0 29.83981,8.1631 30.03025,8.44236 0.12604,0.18481 0.3281,5.61204 0.44903,12.06053 0.18434,9.82878 0.15325,11.72104 -0.19223,11.70294 -0.22667,-0.0118 -7.01043,-1.84077 -15.07502,-4.06421 z"
       id="path3854"
       inkscape:connector-curvature="0" />
    <path
       style="fill:#000000;fill-opacity:1;fill-rule:nonzero;stroke:none"
       d="m 455.52858,275.16102 -14.85743,-4.09944 -0.17691,-5.31664 c -0.54351,-16.33287 -0.54486,-16.50024 -0.13346,-16.49433 0.21838,0.003 6.99538,1.81839 15.05997,4.03388 l 14.66291,4.02819 0.18927,2.88058 c 0.3418,5.20205 0.59954,19.11507 0.35366,19.09087 -0.13233,-0.013 -6.92644,-1.86842 -15.09801,-4.12311 l 0,0 z"
       id="path3856"
       inkscape:connector-curvature="0" />
    <path
       style="fill:#000000;fill-opacity:1;fill-rule:nonzero;stroke:none"
       d="m 423.48654,243.66408 -14.85267,-4.09413 -0.18438,-3.2795 c -0.10146,-1.80372 -0.27275,-7.74601 -0.38075,-13.20508 l -0.19638,-9.92557 14.9311,4.00363 c 8.21211,2.20201 15.06316,4.10037 15.22454,4.21858 0.40983,0.30021 1.01709,26.42776 0.61355,26.39828 -0.16628,-0.0121 -6.98603,-1.86444 -15.15501,-4.11621 z"
       id="path3858"
       inkscape:connector-curvature="0" />
    <path
       style="fill:#ffffff;fill-opacity:1;fill-rule:nonzero;stroke:none"
       d="m 337.36872,220.16942 -10.26135,-2.93654 -0.23307,-12.32485 c -0.12818,-6.77867 0.0636,-12.32485 0.4263,-12.32485 0.36265,0 5.37374,1.24979 11.13575,2.77732 l 10.47639,2.77732 0.14759,12.01802 c 0.10379,8.45132 0.31377,10.70579 0.70752,7.59643 l 0.55993,-4.4216 0.14759,4.93178 c 0.12878,4.30297 -0.0432,4.92615 -1.34885,4.88765 -0.82305,-0.0242 -6.11406,-1.36557 -11.7578,-2.98068 z"
       id="path3913"
       inkscape:connector-curvature="0" />
    <path
       style="fill:#ffffff;fill-opacity:1;fill-rule:nonzero;stroke:none"
       d="m 363.87721,250.13934 -12.82669,-3.59415 -0.42755,-10.9964 c -0.23516,-6.04803 -0.23516,-11.00107 0,-11.00676 0.83329,-0.0202 26.08939,7.02978 26.61554,7.42943 0.29403,0.22335 0.79056,5.22733 1.10339,11.11996 0.45329,8.53863 0.34475,10.70658 -0.53461,10.67797 -0.60687,-0.0197 -6.8754,-1.65327 -13.93008,-3.63005 z"
       id="path3915"
       inkscape:connector-curvature="0" />
    <path
       style="fill:#ffffff;fill-opacity:1;fill-rule:nonzero;stroke:none"
       d="m 338.65139,268.09309 -11.54402,-3.23144 -0.23351,-11.99051 c -0.12843,-6.59479 0.0774,-11.99052 0.4575,-11.99052 0.38006,0 5.48754,1.34384 11.34997,2.98631 l 10.65897,2.98631 0.65686,7.04731 c 0.36127,3.87602 0.55367,9.38206 0.42756,12.23564 l -0.22931,5.18833 -11.54402,-3.23143 z"
       id="path3917"
       inkscape:connector-curvature="0" />
    <path
       style="fill:#ffffff;fill-opacity:1;fill-rule:nonzero;stroke:none"
       d="m 365.15988,295.38757 -13.25425,-3.84081 -0.23708,-9.6652 -0.23709,-9.66521 13.38143,3.73006 c 7.35978,2.05153 13.71948,3.89626 14.13266,4.0994 0.91102,0.4479 1.01899,19.36795 0.1099,19.25925 -0.35273,-0.0421 -6.60574,-1.80505 -13.89557,-3.91749 z"
       id="path3919"
       inkscape:connector-curvature="0" />
    <path
       style="fill:#ffffff;fill-opacity:1;fill-rule:nonzero;stroke:none"
       d="m 394.57737,283.46479 c -7.10082,-1.98119 -13.35383,-3.82008 -13.89558,-4.08644 -0.68271,-0.33564 -0.985,-4.14764 -0.985,-12.4212 0,-11.09404 0.10567,-11.90375 1.49645,-11.46698 0.82304,0.25847 7.17225,2.00941 14.10936,3.89098 l 12.6129,3.42103 0.15819,3.83457 0.15818,3.83455 0.31406,-3.57129 c 0.17273,-1.96421 0.59282,-3.57129 0.93352,-3.57129 0.3407,0 0.34797,2.37236 0.0162,5.27191 -0.33182,2.89954 -0.63069,8.25648 -0.66415,11.9043 -0.0335,3.64781 -0.34944,6.61656 -0.70217,6.5972 -0.35274,-0.0193 -6.4511,-1.65616 -13.55192,-3.63734 l 0,0 z"
       id="path3921"
       inkscape:connector-curvature="0" />
    <path
       style="fill:#ffffff;fill-opacity:1;fill-rule:nonzero;stroke:none"
       d="m 429.72087,313.64297 c -5.17343,-1.47187 -11.90744,-3.44264 -14.96447,-4.37948 l -5.55823,-1.70336 0.28399,-9.36026 c 0.1562,-5.14814 0.39178,-9.44601 0.52352,-9.55081 0.20925,-0.16646 24.90982,6.39305 28.90766,7.67675 1.32789,0.42638 1.49645,1.58328 1.49645,10.27129 0,5.38493 -0.28861,9.77531 -0.64134,9.7564 -0.35274,-0.019 -4.87414,-1.23865 -10.04758,-2.71053 z"
       id="path3927"
       inkscape:connector-curvature="0" />
    <path
       style="fill:#ffffff;fill-opacity:1;fill-rule:nonzero;stroke:none"
       d="m 455.27831,300.17543 -13.77775,-3.82963 -0.54539,-7.09092 c -0.29997,-3.9 -0.54538,-9.37232 -0.54538,-12.16068 0,-5.99341 -1.81608,-5.90559 16.4994,-0.79782 l 12.34177,3.44184 0.54388,4.13946 c 0.75376,5.73685 0.68358,20.28086 -0.0975,20.19658 -0.35273,-0.0381 -6.84132,-1.79253 -14.41907,-3.89883 z"
       id="path3929"
       inkscape:connector-curvature="0" />
    <path
       style="fill:#ffffff;fill-opacity:1;fill-rule:nonzero;stroke:none"
       d="m 423.94189,267.98136 -13.77775,-3.82963 -0.54539,-7.09091 c -0.29997,-3.90001 -0.54539,-9.37233 -0.54539,-12.16069 0,-5.99341 -1.81607,-5.90559 16.4994,-0.79782 l 12.34178,3.44184 0.54388,4.13946 c 0.75376,5.73685 0.68357,20.28086 -0.0975,20.19659 -0.35274,-0.0381 -6.84132,-1.79254 -14.41908,-3.89884 z"
       id="path3929-7"
       inkscape:connector-curvature="0" />
    <g
       id="g3980"
       transform="matrix(1.0309249,0,0,1.0276903,-76.232498,-29.689374)">
      <path
         transform="translate(223.6217,162.34266)"
         d="m 338.70415,94.651726 c 0,29.289324 -23.74369,53.033004 -53.03301,53.033004 -29.28932,0 -53.03301,-23.74368 -53.03301,-53.033004 0,-29.289322 23.74369,-53.033009 53.03301,-53.033009 29.28932,0 53.03301,23.743687 53.03301,53.033009 z"
         sodipodi:ry="53.033009"
         sodipodi:rx="53.033009"
         sodipodi:cy="94.651726"
         sodipodi:cx="285.67114"
         id="path3931"
         style="fill:#ffffff;fill-rule:evenodd;stroke:#ffffff;stroke-width:1px;stroke-linecap:butt;stroke-linejoin:miter;stroke-opacity:1"
         sodipodi:type="arc" />
      <path
         transform="translate(13.435028,131.52186)"
         d="m 544.47222,125.34519 c 0,26.94618 -21.84419,48.79037 -48.79037,48.79037 -26.94617,0 -48.79036,-21.84419 -48.79036,-48.79037 0,-26.946174 21.84419,-48.790365 48.79036,-48.790365 26.94618,0 48.79037,21.844191 48.79037,48.790365 z"
         sodipodi:ry="48.790367"
         sodipodi:rx="48.790367"
         sodipodi:cy="125.34519"
         sodipodi:cx="495.68185"
         id="path3860"
         style="fill:#9e9e9e;fill-opacity:1;fill-rule:evenodd;stroke:#000000;stroke-width:5;stroke-linecap:butt;stroke-linejoin:miter;stroke-miterlimit:4;stroke-opacity:1;stroke-dasharray:none"
         sodipodi:type="arc" />
      <path
         sodipodi:nodetypes="cc"
         inkscape:connector-curvature="0"
         id="path3862"
         d="m 501.69225,263.23101 31.81981,-37.1231"
         style="fill:none;stroke:#000000;stroke-width:5;stroke-linecap:butt;stroke-linejoin:miter;stroke-miterlimit:4;stroke-opacity:1;stroke-dasharray:none" />
      <path
         sodipodi:nodetypes="cc"
         inkscape:connector-curvature="0"
         id="path3866"
         d="m 504.16712,259.34193 20.85965,10.25304"
         style="fill:none;stroke:#000000;stroke-width:9;stroke-linecap:butt;stroke-linejoin:miter;stroke-miterlimit:4;stroke-opacity:1;stroke-dasharray:none" />
    </g>
  </g>
</svg>
