/* XPM */
static char *gui_sound_off______[] = {
/* columns rows colors chars-per-pixel */
"32 32 160 2",
"   c black",
".  c gray1",
"X  c #070707",
"o  c #141413",
"O  c #141514",
"+  c #161615",
"@  c #141616",
"#  c #161716",
"$  c #171716",
"%  c #161818",
"&  c #171919",
"*  c #181818",
"=  c #191919",
"-  c #191A19",
";  c #191B1B",
":  c #1C1C1B",
">  c #1C1D1C",
",  c #1F201F",
"<  c #222321",
"1  c #232424",
"2  c #232525",
"3  c #242626",
"4  c #252727",
"5  c #272726",
"6  c #282827",
"7  c #272B2C",
"8  c #292A29",
"9  c #2D2E2D",
"0  c #2A2F30",
"q  c #2B2F30",
"w  c #303231",
"e  c #333533",
"r  c #343635",
"t  c #343636",
"y  c #373737",
"u  c #383A38",
"i  c #383A39",
"p  c #3B3C3A",
"a  c #393D3C",
"s  c #3C3E3D",
"d  c #3F3F3F",
"f  c gray25",
"g  c #404241",
"h  c #454544",
"j  c #444744",
"k  c #464645",
"l  c #454948",
"z  c #4A4B4A",
"x  c #4A4E4D",
"c  c #4E504F",
"v  c #50514E",
"b  c #4C5050",
"n  c #505452",
"m  c #555957",
"M  c #575A56",
"N  c #595B56",
"B  c #585B5A",
"V  c #5C5D59",
"C  c #5D5E5B",
"Z  c #5B5F5D",
"A  c gray36",
"S  c #5F605B",
"D  c #636561",
"F  c #606462",
"G  c #656564",
"H  c #656764",
"J  c #656866",
"K  c #686A67",
"L  c #676A69",
"P  c #6B6D68",
"I  c #6E6F6D",
"U  c gray43",
"Y  c #737571",
"T  c #747874",
"R  c #767A78",
"E  c #7A7B7A",
"W  c #787C7A",
"Q  c #7B7E7A",
"!  c #7D7E7D",
"~  c #7E7F7C",
"^  c #7D807B",
"/  c #7F817A",
"(  c #7F807E",
")  c #838683",
"_  c #868686",
"`  c #898D89",
"'  c #8C8E8B",
"]  c #8F938F",
"[  c #91938A",
"{  c #90918F",
"}  c #949793",
"|  c #959793",
" . c #959695",
".. c #969795",
"X. c #959894",
"o. c gray61",
"O. c #9D9F9C",
"+. c #9DA099",
"@. c #A1A1A0",
"#. c #A2A5A1",
"$. c #A5A8A5",
"%. c #A9ACA8",
"&. c #ADAEAB",
"*. c #AEB0AD",
"=. c #B0B2AE",
"-. c gray69",
";. c #B1B3B0",
":. c #B4B5B5",
">. c #B7B8B5",
",. c #BABDB6",
"<. c #BBBEB7",
"1. c #B9B9B8",
"2. c #B9BAB9",
"3. c #B9BABA",
"4. c gray73",
"5. c #BCBCBC",
"6. c #BDC0B9",
"7. c #BEC1BC",
"8. c #BFC0BE",
"9. c #BFC1BE",
"0. c #C1C5BE",
"q. c #C2C4BF",
"w. c #C4C5C2",
"e. c #C5C5C4",
"r. c #C6C6C6",
"t. c #C6C7C6",
"y. c #C8C9C7",
"u. c #CBCFC7",
"i. c #CACBCA",
"p. c #CDCFCD",
"a. c #D0D1CF",
"s. c #D1D3CE",
"d. c #D1D4CD",
"f. c #D1D2D1",
"g. c #D2D2D1",
"h. c #D3D5D1",
"j. c #D5D6D5",
"k. c #D9DAD8",
"l. c #D9DAD9",
"z. c #DCDCDA",
"x. c #DDDEDD",
"c. c #DFE0DD",
"v. c #DFE1DE",
"b. c #E0E1DF",
"n. c #E1E2E0",
"m. c #E1E3E0",
"M. c #E4E5E3",
"N. c #E5E6E3",
"B. c #E5E6E4",
"V. c #E5E6E5",
"C. c #E6E7E5",
"Z. c #E7E8E7",
"A. c #E9E9E7",
"S. c #EAEBEA",
"D. c #ECEDEA",
"F. c #EDEDEB",
"G. c #EEEFED",
"H. c #F0F0EF",
"J. c #FAFBFA",
"K. c None",
/* pixels */
"K.K.K.K.K.K.K.K.K.K.K.K.K.K.K.K.K.K.K.K.K.K.K.K.K.K.K.K.K.K.K.K.",
"K.K.K.K.K.K.K.K.K.K.K.K.K.K.K.K.K.K.K.K.K.K.K.K.K.K.K.K.K.K.K.K.",
"K.K.K.K.K.K.K.K.K.K.K.K.K.K.K.K.K.K.K.K.K.K.K.K.K.K.K.K.K.K.K.K.",
"K.K.K.K.K.K.K.K.K.K.K.K.K.K.K.K.K.K.K.K.K.K.K.K.K.K.K.K.K.K.K.K.",
"K.K.K.K.K.K.K.K.K.K.K.K.K.K.K.K.K.K.K.K.K.K.K.K.K.K.K.K.K.K.K.K.",
"K.K.K.K.K.K.K.K.K.K.K.K.K.0.6.K.K.K.K.K.K.K.K.K.K.K.K.K.K.K.K.K.",
"K.K.K.K.K.K.K.K.K.K.K.K./ u.6.K.K.K.K.K.K.K.K.K.K.K.K.K.K.K.K.K.",
"K.K.K.K.K.K.K.K.K.K.K.K.H d.<.K.K.K.K.K.K.K.K.K.K.K.K.K.K.K.K.K.",
"K.K.K.K.K.K.K.K.K.K.K.z 0.S.w.K.K.K.K.K.K.K.K.K.K.K.K.K.K.K.K.K.",
"K.K.K.,.,.,.,.K.K.K.H 4.V G.5.K.K.K.K.K.K.K.K.K.K.K.K.K.K.K.K.K.",
"K.K.K.n.M.N.b.K.v o.@.p ! x.=.K.K.K.K.K.K.K.K.K.K.K.K.K.K.K.K.K.",
"K.K.K.M.,.,.b.K 4.I _ 1.} l.%.K.K.K.K.K.K.K.K.K.K.K.K.K.K.K.K.K.",
"K.K.Y H.h.s.V.;.k E 5.r...g.#.K.K.K.K.K.K.K.K.K.K.K.K.K.K.K.K.K.",
"K.D +.J.F.A.S.I k ! =.g...y.X.K.K.K.K.K.K.K.K.K.K.K.K.K.K.K.K.K.",
"K.S [ Z.z.z.V.u 5 9 8 1 h 0.] J K.K.K.K.K.K.K.K.K.K.K.K.K.K.K.K.",
"K.V / b.w.w.x.e + = : > g :.` x K.K.K.K.K.K.K.K.K.K.K.K.K.K.K.K.",
"K.N P l.&.&.j.x + + = > s *.R K.K.K.K.K.K.K.K.K.K.K.K.K.K.K.K.K.",
"K.K.M g.| X.p.L 5 O & = u $.W K.K.K.K.K.K.K.K.K.K.K.K.K.K.K.K.K.",
"K.K.K.i.! / r.y A y O + t +.F   K.K.K.K.K.K.K.K.K.K.K.K.K.K.K.K.",
"K.  O 4.r.r.:.& 5 s k % w ..S       K.K.K.K.K.K.K.K.K.K.K.K.K.K.",
"    . 7 0 0 7 .   = 1 f w ' B           K.K.K.K.K.K.K.K.K.K.K.K.",
"                    X ; u ) b           K.K.K.K.K.K.K.K.K.K.K.K.",
"                      . 2 Q x           K.K.K.K.K.K.K.K.K.K.K.K.",
"                        4 T l           K.K.K.K.K.K.K.K.K.K.K.K.",
"K.                      + B a         K.K.K.K.K.K.K.K.K.K.K.K.K.",
"K.K.                      & .     K.K.K.K.K.K.K.K.K.K.K.K.K.K.K.",
"K.K.K.K.K.                  K.K.K.K.K.K.K.K.K.K.K.K.K.K.K.K.K.K.",
"K.K.K.K.K.K.K.K.K.K.K.K.K.K.K.K.K.K.K.K.K.K.K.K.K.K.K.K.K.K.K.K.",
"K.K.K.K.K.K.K.K.K.K.K.K.K.K.K.K.K.K.K.K.K.K.K.K.K.K.K.K.K.K.K.K.",
"K.K.K.K.K.K.K.K.K.K.K.K.K.K.K.K.K.K.K.K.K.K.K.K.K.K.K.K.K.K.K.K.",
"K.K.K.K.K.K.K.K.K.K.K.K.K.K.K.K.K.K.K.K.K.K.K.K.K.K.K.K.K.K.K.K.",
"K.K.K.K.K.K.K.K.K.K.K.K.K.K.K.K.K.K.K.K.K.K.K.K.K.K.K.K.K.K.K.K."
};
