/* XPM */
static char * heliport_xpm[] = {
"20 12 4 1",
" 	c None",
".	c #FFFFFF",
"+	c #000000",
"@	c #000070",
"            .+.     ",
" ......    .+.      ",
".++++++....+..      ",
" ......+++++++......",
".      ..++...++++++",
"@.     .+@@@@@......",
"@.    .+@@@@  @@@.  ",
"@@....@@@@@@     @. ",
"@@@@@@@@@@@@      @.",
"........@@@@      @.",
"        .@@@@@   @@.",
"         ..@@@@@@@. "};
