/* XPM */
static char *dummy[]={
"16 16 72 2",
"Qt c None",
".S c #000000",
"#. c #030303",
"#e c #040404",
"#c c #060606",
".R c #0a0a0a",
"## c #0e0e0e",
".I c #0f0f0f",
"#a c #101010",
".J c #171717",
".H c #191919",
".1 c #1b1b1b",
"#d c #1c1c1c",
".K c #1f1f1f",
".2 c #202020",
"#f c #232323",
".k c #282828",
".T c #292929",
".j c #2d2d2d",
".Q c #2e2e2e",
".D c #2f2f54",
".9 c #343434",
".h c #373737",
".l c #383838",
".v c #3c3c3c",
".c c #3f3f3f",
".m c #3f3f93",
".G c #414141",
".0 c #434343",
".M c #444444",
".w c #464646",
".E c #474747",
".z c #484848",
".i c #4d4d4d",
".N c #4f4f4f",
".F c #505050",
".f c #535353",
".L c #565656",
".6 c #5a5a5a",
".y c #5b5b5b",
".C c #616161",
".P c #686868",
".8 c #6a6a6a",
".t c #6b6b6b",
".Y c #6c6c6c",
".4 c #6f6f6f",
".X c #727272",
".5 c #737373",
".n c #757575",
"#b c #7c7c7c",
".a c #7f7f7f",
".e c #848484",
".W c #868686",
".V c #898989",
".o c #8a8a8a",
".q c #8f8f8f",
".r c #909090",
".g c #949494",
".x c #9595b1",
".O c #999999",
".p c #9b9b9b",
".3 c #9d9d9d",
".B c #9e9e9e",
".A c #9f9f9f",
".b c #aaaaaa",
".d c #aaaacf",
".Z c #b1b1b1",
".u c #b3b3b3",
".s c #b8b8b8",
".U c #cacaca",
".7 c #ececec",
".# c #ffffff",
"Qt.#.#QtQtQt.aQtQtQtQtQtQtQtQtQt",
".b.a.a.a.a.c.aQtQtQtQtQtQtQtQtQt",
".dQtQt.e.f.f.g.h.i.c.j.k.k.lQtQt",
".m.n.o.p.q.q.r.s.t.u.v.h.h.wQtQt",
".x.y.z.o.A.A.A.B.C.D.E.FQtQtQtQt",
".G.a.H.I.J.J.J.J.K.L.M.E.NQtQtQt",
".O.P.Q.R.S.S.S.S.T.U.r.g.V.WQtQt",
"Qt.X.Y.Z.0.1.S.S.2.3.4.5.r.6.7Qt",
"QtQtQtQtQt.8.9.S#.##.R.R#a.J#bQt",
"QtQtQtQtQtQt.f.S.S.S.S.S.S#c.QQt",
"QtQtQtQtQtQtQt#d.S.S.S.S.S.kQtQt",
"QtQtQtQtQtQtQtQtQtQtQtQtQtQtQtQt",
"QtQtQtQtQtQt.9.S.S.S.S.S.S#e#fQt",
"QtQtQtQtQtQtQtQtQtQtQtQtQtQtQtQt",
"QtQtQtQtQtQtQtQtQtQtQtQtQtQtQtQt",
"QtQtQtQtQtQtQtQtQtQtQtQtQtQtQtQt"};
