/* XPM */
static char *hospital[]={
"16 16 5 1",
". c None",
"a c #0000ff",
"c c #e32b2b",
"b c #fdfefe",
"# c #ffffff",
".##############.",
"#aaaaaaaaaaaaaa#",
"#aaaaaaaaaaaaaa#",
"#aabbbb###bbbaa#",
"#aabbb#cc#bbbaa#",
"#aabbb#cc##bbaa#",
"#aa####cc####aa#",
"#aa#cccccccc#aa#",
"#aa#cccccccc#aa#",
"#aa####cc####aa#",
"#aabbb#cc#bbbaa#",
"#aabbb#cc#bbbaa#",
"#aabbb###bbbbaa#",
"#aaaaaaaaaaaaaa#",
"#aaaaaaaaaaaaaa#",
".##############."};
