<?xml version="1.0" encoding="UTF-8" standalone="no"?>
<!-- Created with Inkscape (http://www.inkscape.org/) -->

<svg
   xmlns:dc="http://purl.org/dc/elements/1.1/"
   xmlns:cc="http://creativecommons.org/ns#"
   xmlns:rdf="http://www.w3.org/1999/02/22-rdf-syntax-ns#"
   xmlns:svg="http://www.w3.org/2000/svg"
   xmlns="http://www.w3.org/2000/svg"
   xmlns:sodipodi="http://sodipodi.sourceforge.net/DTD/sodipodi-0.dtd"
   xmlns:inkscape="http://www.inkscape.org/namespaces/inkscape"
   width="100"
   height="100"
   id="svg2"
   sodipodi:version="0.32"
   inkscape:version="0.91 r13725"
   version="1.0"
   sodipodi:docname="hotel.svg"
   inkscape:output_extension="org.inkscape.output.svg.inkscape"
   inkscape:export-filename="/home/jeff/projets/navit/icons/png/shopping.png"
   inkscape:export-xdpi="90"
   inkscape:export-ydpi="90">
  <defs
     id="defs4">
    <linearGradient
       id="linearGradient3160">
      <stop
         style="stop-color:#208420;stop-opacity:1;"
         offset="0"
         id="stop3162" />
      <stop
         style="stop-color:#15d715;stop-opacity:1;"
         offset="1"
         id="stop3164" />
    </linearGradient>
    <inkscape:perspective
       sodipodi:type="inkscape:persp3d"
       inkscape:vp_x="0 : 526.18109 : 1"
       inkscape:vp_y="0 : 1000 : 0"
       inkscape:vp_z="744.09448 : 526.18109 : 1"
       inkscape:persp3d-origin="372.04724 : 350.78739 : 1"
       id="perspective10" />
    <inkscape:perspective
       id="perspective2390"
       inkscape:persp3d-origin="372.04724 : 350.78739 : 1"
       inkscape:vp_z="744.09448 : 526.18109 : 1"
       inkscape:vp_y="0 : 1000 : 0"
       inkscape:vp_x="0 : 526.18109 : 1"
       sodipodi:type="inkscape:persp3d" />
    <inkscape:perspective
       id="perspective2421"
       inkscape:persp3d-origin="372.04724 : 350.78739 : 1"
       inkscape:vp_z="744.09448 : 526.18109 : 1"
       inkscape:vp_y="0 : 1000 : 0"
       inkscape:vp_x="0 : 526.18109 : 1"
       sodipodi:type="inkscape:persp3d" />
    <pattern
       patternUnits="userSpaceOnUse"
       width="93.610447"
       height="68.066813"
       patternTransform="translate(22.133615,-61.586979)"
       id="pattern3532">
      <path
         inkscape:connector-curvature="0"
         d="m 22.384416,27.235557 2.776195,0 0,6.983784 -2.776195,0 z m -6.631484,-12.098892 0.531181,0 0,23.853249 -0.531181,0 z m 0.951638,22.590661 59.337406,0 0,0.310945 -59.337406,0 z m -7.7812825,11.453406 76.1021475,0 0,0.245319 -76.1021475,0 z m 78.0608875,-21.859388 0.80136,0 0,34.462077 -0.80136,0 z M 5.8249125,5.8249125 l 0.516157,0 0,56.4169875 -0.516157,0 z"
         style="opacity:1;fill:#ffffff;fill-opacity:1;stroke:#ffffff;stroke-width:11.6498251;stroke-linecap:butt;stroke-linejoin:miter;stroke-miterlimit:5;stroke-dasharray:none;stroke-dashoffset:0;stroke-opacity:1"
         id="rect3209-6" />
    </pattern>
    <pattern
       patternUnits="userSpaceOnUse"
       width="93.610447"
       height="68.066813"
       patternTransform="translate(22.133615,-61.586979)"
       id="pattern3532-6">
      <path
         inkscape:connector-curvature="0"
         d="m 22.384416,27.235557 2.776195,0 0,6.983784 -2.776195,0 z m -6.631484,-12.098892 0.531181,0 0,23.853249 -0.531181,0 z m 0.951638,22.590661 59.337406,0 0,0.310945 -59.337406,0 z m -7.7812825,11.453406 76.1021475,0 0,0.245319 -76.1021475,0 z m 78.0608875,-21.859388 0.80136,0 0,34.462077 -0.80136,0 z M 5.8249125,5.8249125 l 0.516157,0 0,56.4169875 -0.516157,0 z"
         style="opacity:1;fill:#ffffff;fill-opacity:1;stroke:#ffffff;stroke-width:11.6498251;stroke-linecap:butt;stroke-linejoin:miter;stroke-miterlimit:5;stroke-dasharray:none;stroke-dashoffset:0;stroke-opacity:1"
         id="rect3209-6-0" />
    </pattern>
    <pattern
       patternUnits="userSpaceOnUse"
       width="93.610447"
       height="68.066813"
       patternTransform="translate(22.133615,-61.586979)"
       id="pattern3532-6-8">
      <path
         inkscape:connector-curvature="0"
         d="m 22.384416,27.235557 2.776195,0 0,6.983784 -2.776195,0 z m -6.631484,-12.098892 0.531181,0 0,23.853249 -0.531181,0 z m 0.951638,22.590661 59.337406,0 0,0.310945 -59.337406,0 z m -7.7812825,11.453406 76.1021475,0 0,0.245319 -76.1021475,0 z m 78.0608875,-21.859388 0.80136,0 0,34.462077 -0.80136,0 z M 5.8249125,5.8249125 l 0.516157,0 0,56.4169875 -0.516157,0 z"
         style="opacity:1;fill:#ffffff;fill-opacity:1;stroke:#ffffff;stroke-width:11.6498251;stroke-linecap:butt;stroke-linejoin:miter;stroke-miterlimit:5;stroke-dasharray:none;stroke-dashoffset:0;stroke-opacity:1"
         id="rect3209-6-0-7" />
    </pattern>
    <pattern
       patternUnits="userSpaceOnUse"
       width="93.610447"
       height="68.066813"
       patternTransform="translate(22.133615,-61.586979)"
       id="pattern3532-3">
      <path
         inkscape:connector-curvature="0"
         d="m 22.384416,27.235557 2.776195,0 0,6.983784 -2.776195,0 z m -6.631484,-12.098892 0.531181,0 0,23.853249 -0.531181,0 z m 0.951638,22.590661 59.337406,0 0,0.310945 -59.337406,0 z m -7.7812825,11.453406 76.1021475,0 0,0.245319 -76.1021475,0 z m 78.0608875,-21.859388 0.80136,0 0,34.462077 -0.80136,0 z M 5.8249125,5.8249125 l 0.516157,0 0,56.4169875 -0.516157,0 z"
         style="opacity:1;fill:#ffffff;fill-opacity:1;stroke:#ffffff;stroke-width:11.6498251;stroke-linecap:butt;stroke-linejoin:miter;stroke-miterlimit:5;stroke-dasharray:none;stroke-dashoffset:0;stroke-opacity:1"
         id="rect3209-6-7" />
    </pattern>
  </defs>
  <sodipodi:namedview
     id="base"
     pagecolor="#22a638"
     bordercolor="#666666"
     borderopacity="1.0"
     inkscape:pageopacity="0"
     inkscape:pageshadow="2"
     inkscape:zoom="5.6"
     inkscape:cx="68.181417"
     inkscape:cy="64.388583"
     inkscape:document-units="px"
     inkscape:current-layer="g3421"
     showgrid="true"
     inkscape:window-width="1491"
     inkscape:window-height="855"
     inkscape:window-x="90"
     inkscape:window-y="83"
     showguides="true"
     inkscape:guide-bbox="true"
     inkscape:window-maximized="0">
    <inkscape:grid
       type="xygrid"
       id="grid2380"
       visible="true"
       enabled="true" />
  </sodipodi:namedview>
  <metadata
     id="metadata7">
    <rdf:RDF>
      <cc:Work
         rdf:about="">
        <dc:format>image/svg+xml</dc:format>
        <dc:type
           rdf:resource="http://purl.org/dc/dcmitype/StillImage" />
        <dc:title></dc:title>
        <dc:description>jfitie@gmail.com</dc:description>
        <cc:license
           rdf:resource="http://creativecommons.org/licenses/by/3.0/" />
        <dc:creator>
          <cc:Agent>
            <dc:title>Source	http://picol.org/</dc:title>
          </cc:Agent>
        </dc:creator>
        <dc:contributor>
          <cc:Agent>
            <dc:title>Description	
English: PICOL SVG icon.
Date	21 March 2015
Source	http://picol.org/
Author	Picol.org</dc:title>
          </cc:Agent>
        </dc:contributor>
      </cc:Work>
      <cc:License
         rdf:about="http://creativecommons.org/licenses/by/3.0/">
        <cc:permits
           rdf:resource="http://creativecommons.org/ns#Reproduction" />
        <cc:permits
           rdf:resource="http://creativecommons.org/ns#Distribution" />
        <cc:requires
           rdf:resource="http://creativecommons.org/ns#Notice" />
        <cc:requires
           rdf:resource="http://creativecommons.org/ns#Attribution" />
        <cc:permits
           rdf:resource="http://creativecommons.org/ns#DerivativeWorks" />
      </cc:License>
    </rdf:RDF>
  </metadata>
  <g
     inkscape:label="Calque 1"
     inkscape:groupmode="layer"
     id="layer1"
     transform="translate(0,78)">
    <g
       id="g3421"
       transform="matrix(0.9283947,0,0,0.92839336,4.2315074,0.70276789)">
      <path
         style="fill:#ffffff;stroke:#ffffff"
         inkscape:connector-curvature="0"
         id="path3379-7"
         d="m -1.4452623,-59.505028 c 4.381267,0.04757 13.1148493,-2.033912 12.7934393,5.109101 0.25094,1.96378 -1.5289103,6.09576 1.76562,3.462891 7.90769,-3.161339 17.82322,-1.19156 23.54297,5.232422 15.18515,-8.703994 34.43591,-8.505156 50.33594,-1.84375 1.07651,-6.811238 9.763199,-4.757492 14.523353,-4.846518 2.2614,4.083959 0.33475,12.302454 0.9747,17.987143 l 0,32.0722653 c -5.042264,-0.03104 -15.492748,2.65163121 -14.763836,-4.7534367 -1.036663,-3.2700566 1.425344,-8.7518766 -2.480317,-9.4086726 -24.76231,0.468589 -49.63012,0.02427 -74.3496,0.226563 -0.0866,4.360626 2.71404,12.4109733 -3.3711003,14.0449223 -3.96366,0.462362 -9.879009,1.57558599 -11.128899,-3.691407 -1.13064,-10.6889553 0.27984,-21.6095533 -0.26368,-32.3769533 l -0.14426,-21.024802 z"
         sodipodi:nodetypes="cccccccccccccccc" />
      <g
         transform="matrix(-3.5127551,0,0,3.5127551,105.33735,-91.091837)"
         id="bed">
        <path
           id="path3379"
           d="m 28,10 0,5 c 0,-1.657 -1.791,-3 -4,-3 -2.209,0 -4,1.343 -4,3 0,-1.657 -4.687,-3 -8,-3 -3.313,0 -8,1.343 -8,3 l 0,-3 -2,0 0,12 2,0 0,-4 24,0 0,4 2,0 0,-14 -2,0 z"
           inkscape:connector-curvature="0" />
      </g>
    </g>
  </g>
</svg>
