/* XPM */
static char * hunting_stand_xpm[] = {
"9 14 3 1",
" 	c None",
".	c #FFFFFF",
"+	c #000000",
"...++++..",
"...++++++",
"...++++++",
"...++++++",
"...++++++",
"...++++++",
"...++++++",
"..+++++++",
"..++....+",
".+++....+",
".+++....+",
"++.+....+",
"++.+....+",
"+..+....+"};
