/* XPM */
static char *dummy[]={
"16 16 4 1",
". c None",
"a c #000000",
"b c #808080",
"# c #c0c0c0",
".....#..........",
".....aaab#......",
".....aaaaaa.....",
".....aa..aa.....",
".....aaaaaa.....",
".....aaaaaa.....",
".....aaaaaa.....",
".....aaaaaa.....",
"....aaaaaaa.....",
"....aa....a.....",
"...a.a....a.....",
"...a.a....a.....",
"..a..a....a.....",
"..a..a....a.....",
".....a....a.....",
"................"};
