/* XPM */
static char * information_xpm[] = {
"16 16 51 1",
" 	c #156907",
".	c #1D6E0F",
"+	c #83B07C",
"@	c #A7C7A2",
"#	c #55934B",
"$	c #A7C6A2",
"%	c #FDFDFD",
"&	c #FAFCFA",
"*	c #4C8D42",
"=	c #1E6F11",
"-	c #F8FBF8",
";	c #A0C39B",
">	c #1F6F12",
",	c #A0C29B",
"'	c #B2CDAE",
")	c #FBFCFB",
"!	c #508F45",
"~	c #217014",
"{	c #93BA8C",
"]	c #B5D0B1",
"^	c #5E9855",
"/	c #75A970",
"(	c #D5E5D5",
"_	c #D5E5D4",
":	c #D9E7D8",
"<	c #DBE8DA",
"[	c #6FA368",
"}	c #1A6C0C",
"|	c #F4F8F3",
"1	c #83B17D",
"2	c #E4EEE2",
"3	c #82AF7B",
"4	c #E3EDE1",
"5	c #7FAD78",
"6	c #80AE79",
"7	c #DFEBDE",
"8	c #84B17E",
"9	c #DFEADD",
"0	c #1B6C0D",
"a	c #EFF4ED",
"b	c #A0C29A",
"c	c #186B0A",
"d	c #2E7C24",
"e	c #93BB8F",
"f	c #E3EDE3",
"g	c #E2EDE2",
"h	c #DCE9DC",
"i	c #DDEADD",
"j	c #D6E5D6",
"k	c #599754",
"l	c #25741A",
"      .+@#      ",
"      $%%&*     ",
"     =-%%%;     ",
"     >&%%%,     ",
"      '%%)!     ",
"      ~{]^      ",
"     /(_:<[     ",
"     }|%%%1     ",
"      2%%%3     ",
"      4%%%5     ",
"      4%%%6     ",
"      7%%%8     ",
"      9%%%3     ",
"     0a%%%b     ",
"   cdefghijkl   ",
"                "};
