/* XPM */
static char *dummy[]={
"16 16 17 1",
". c None",
"c c #0000f6",
"a c #0909f6",
"j c #0a0af6",
"m c #0c0cf6",
"k c #1f1ff7",
"b c #3434f8",
"d c #6060f9",
"e c #8a8afb",
"o c #9797fb",
"g c #a7a7fc",
"f c #adadfc",
"# c #aeaefc",
"h c #b2b2fc",
"i c #bdbdfd",
"l c #cacafd",
"n c #cfcffd",
"................",
"................",
"......#aa#......",
"......bccb......",
"......dccd......",
".......ee.......",
".....fgggh......",
".....ijcck......",
"......kcck......",
"......kcck......",
"......kcck......",
"......kcck......",
"......kcck......",
".....lmccml.....",
"....noooooon....",
"................"};
