/* XPM */
static char * justice_xpm[] = {
"16 13 4 1",
" 	c None",
".	c #FFFFFF",
"+	c #000000",
"@	c #9B9B9B",
"      ....      ",
"   ...++++...   ",
"  .+++....+++.  ",
" .+..........+. ",
"  .@........@.  ",
"  .@........@.  ",
" .@.@......@.@. ",
" .@.@......@.@. ",
".@...@....@...@.",
".@...@....@...@.",
"+.....+..+.....+",
".+++++.  .+++++.",
" .....    ..... "};
