/* XPM */
static char *library[] = {
/* columns rows colors chars-per-pixel */
"8 16 12 1",
"  c black",
". c #404040",
"X c #464646",
"o c #808080",
"O c #8F8F8F",
"+ c #BCBCBC",
"@ c #BFBFBF",
"# c #DCDCDC",
"$ c #FBFBFB",
"% c #FCFCFC",
"& c #FFFFFF",
"* c None",
/* pixels */
"***   * ",
"** X&X  ",
"* @&&.o ",
" @&@ @& ",
" .. &@@ ",
" && @.& ",
" && &o@ ",
" && O@@ ",
" && @.@ ",
" && #&& ",
" && &&& ",
" && &&. ",
" && &X *",
" && X **",
" &&  ***",
".   ****"
};
