/* XPM */
static char * mark_xpm[] = {
"96 96 3 1",
" 	c None",
".	c #808080",
"+	c #7E7E7E",
"                                                                                                ",
"                                                                                                ",
"                                                                                                ",
"                                                                                                ",
"                                                                                                ",
"                                                                                                ",
"                                                                                                ",
"                                                                                                ",
"                                                                                                ",
"                                                                                                ",
"                                                                                                ",
"                                                                                                ",
"                                                                                                ",
"                                                                                                ",
"                                                                                                ",
"                                                                                                ",
"                                                                                                ",
"                                                                                                ",
"                                                                                                ",
"                                                                                                ",
"                                                                                                ",
"                                                                                                ",
"                                                                                                ",
"                                                                                                ",
"                                                                                                ",
"                                                                                                ",
"                                                                                                ",
"                                                                                                ",
"                              ...                              ...                              ",
"                             .....                            .....+                            ",
"                            .......                          .......                            ",
"                            ........                        ........                            ",
"                            .........                      .........                            ",
"                             .........                    .........                             ",
"                              .........                  .........                              ",
"                               .........                .........                               ",
"                                .........              .........                                ",
"                                 .........            .........                                 ",
"                                  .........          .........                                  ",
"                                   .........        .........                                   ",
"                                    .........      .........                                    ",
"                                     .........    .........                                     ",
"                                      ....................                                      ",
"                                       ..................                                       ",
"                                        ................                                        ",
"                                         ..............                                         ",
"                                          ............                                          ",
"                                          ............                                          ",
"                                          ............                                          ",
"                                          ............                                          ",
"                                         ..............                                         ",
"                                        ................                                        ",
"                                       ..................                                       ",
"                                      ....................                                      ",
"                                     .........    .........                                     ",
"                                    .........      .........                                    ",
"                                   .........        .........                                   ",
"                                  .........          .........                                  ",
"                                 .........            .........                                 ",
"                                .........              .........                                ",
"                               .........                .........                               ",
"                              .........                  .........                              ",
"                             .........                    .........                             ",
"                            .........                      .........                            ",
"                            ........                        ........                            ",
"                             ......                          .......                            ",
"                             .....                            .....                             ",
"                               ..                              ...                              ",
"                                                                                                ",
"                                                                                                ",
"                                                                                                ",
"                                                                                                ",
"                                                                                                ",
"                                                                                                ",
"                                                                                                ",
"                                                                                                ",
"                                                                                                ",
"                                                                                                ",
"                                                                                                ",
"                                                                                                ",
"                                                                                                ",
"                                                                                                ",
"                                                                                                ",
"                                                                                                ",
"                                                                                                ",
"                                                                                                ",
"                                                                                                ",
"                                                                                                ",
"                                                                                                ",
"                                                                                                ",
"                                                                                                ",
"                                                                                                ",
"                                                                                                ",
"                                                                                                ",
"                                                                                                ",
"                                                                                                "};
