<?xml version="1.0" encoding="utf-8"?>
<!-- Generator: Adobe Illustrator 18.1.0, SVG Export Plug-In . SVG Version: 6.00 Build 0)  -->
<svg version="1.1" id="Layer_1" xmlns="http://www.w3.org/2000/svg" xmlns:xlink="http://www.w3.org/1999/xlink" x="0px" y="0px"
	 viewBox="0 0 16 16" enable-background="new 0 0 16 16" xml:space="preserve">
<path fill="#bfbfbf" d="M8,1C4.1,1,1,4.1,1,8c0,3.9,3.1,7,7,7c3.9,0,7-3.1,7-7C15,4.1,11.9,1,8,1z M10.8,11.3c-0.1,0-0.2,0-0.3-0.1
	c-1-0.6-2.3-0.9-3.6-0.9c-0.7,0-1.5,0.1-2.2,0.2c-0.1,0-0.3,0.1-0.3,0.1c-0.3,0-0.4-0.2-0.4-0.4c0-0.3,0.2-0.4,0.4-0.5
	C5.2,9.5,6,9.3,6.9,9.3c1.5,0,2.9,0.4,4.1,1.1c0.2,0.1,0.3,0.2,0.3,0.5C11.3,11.1,11.1,11.3,10.8,11.3z M11.6,9.5
	c-0.2,0-0.2-0.1-0.4-0.1c-1.1-0.7-2.7-1.1-4.4-1.1c-0.9,0-1.7,0.1-2.3,0.3c-0.1,0-0.2,0.1-0.3,0.1C3.9,8.6,3.6,8.3,3.6,8
	c0-0.3,0.1-0.5,0.4-0.6c0.8-0.2,1.6-0.4,2.8-0.4c1.8,0,3.6,0.5,5,1.3c0.2,0.1,0.3,0.3,0.3,0.6C12.1,9.2,11.9,9.5,11.6,9.5z
	 M12.5,7.3c-0.1,0-0.2,0-0.4-0.1C10.8,6.4,8.9,6,7,6C6,6,5.1,6.1,4.2,6.3c-0.1,0-0.2,0.1-0.4,0.1c-0.4,0-0.7-0.3-0.7-0.7
	c0-0.4,0.2-0.6,0.5-0.7c1-0.3,2.1-0.4,3.3-0.4c2.1,0,4.2,0.4,5.8,1.4c0.2,0.1,0.4,0.3,0.4,0.6C13.1,7,12.8,7.3,12.5,7.3z"/>
</svg>
