<?xml version="1.0" encoding="UTF-8" standalone="no"?>
<!-- Created with Inkscape (http://www.inkscape.org/) -->

<svg
   xmlns:dc="http://purl.org/dc/elements/1.1/"
   xmlns:cc="http://creativecommons.org/ns#"
   xmlns:rdf="http://www.w3.org/1999/02/22-rdf-syntax-ns#"
   xmlns:svg="http://www.w3.org/2000/svg"
   xmlns="http://www.w3.org/2000/svg"
   xmlns:sodipodi="http://sodipodi.sourceforge.net/DTD/sodipodi-0.dtd"
   xmlns:inkscape="http://www.inkscape.org/namespaces/inkscape"
   height="22"
   id="svg2"
   inkscape:output_extension="org.inkscape.output.svg.inkscape"
   inkscape:version="0.48.1 r9760"
   sodipodi:docname="memorial.svg"
   sodipodi:version="0.32"
   version="1.0"
   width="22">
  <metadata
     id="metadata2975">
    <rdf:RDF>
      <cc:Work
         rdf:about="">
        <dc:format>image/svg+xml</dc:format>
        <dc:type
           rdf:resource="http://purl.org/dc/dcmitype/StillImage" />
        <cc:license
           rdf:resource="http://web.resource.org/cc/PublicDomain" />
        <dc:language>en</dc:language>
        <dc:title />
      </cc:Work>
    </rdf:RDF>
  </metadata>
  <sodipodi:namedview
     bordercolor="#666666"
     borderopacity="1.0"
     gridtolerance="10.0"
     guidetolerance="10.0"
     id="base"
     inkscape:current-layer="svg2"
     inkscape:cx="66.34964"
     inkscape:cy="5.9279101"
     inkscape:pageopacity="0.0"
     inkscape:pageshadow="2"
     inkscape:window-height="725"
     inkscape:window-maximized="0"
     inkscape:window-width="1024"
     inkscape:window-x="11"
     inkscape:window-y="13"
     inkscape:zoom="5.2137931"
     objecttolerance="10.0"
     pagecolor="#ffffff"
     showgrid="false" />
  <defs
     id="defs4">
    <inkscape:perspective
       id="perspective2441"
       inkscape:persp3d-origin="290 : 193.33333 : 1"
       inkscape:vp_x="0 : 290 : 1"
       inkscape:vp_y="0 : 1000 : 0"
       inkscape:vp_z="580 : 290 : 1"
       sodipodi:type="inkscape:persp3d" />
    <inkscape:perspective
       id="perspective3452"
       inkscape:persp3d-origin="30 : 20 : 1"
       inkscape:vp_x="0 : 30 : 1"
       inkscape:vp_y="0 : 1000 : 0"
       inkscape:vp_z="60 : 30 : 1"
       sodipodi:type="inkscape:persp3d" />
    <symbol
       id="symbol-university"
       viewBox="244.5 110 489 219.9">
      <path
         d="M79,43l57,119c0,0,21-96,104-96s124,106,124,106l43-133l82-17L0,17L79,43z"
         id="path4460" />
      <path
         d="M94,176l-21,39"
         fill="none"
         id="path4462"
         stroke="#000000"
         stroke-width="20" />
      <path
         d="M300,19c0,10.5-22.6,19-50.5,19S199,29.5,199,19s22.6-19,50.5-19S300,8.5,300,19z"
         id="path4464" />
      <path
         d="M112,216l-16-38L64,88c0,0-9-8-4-35s16-24,16-24"
         id="path4466"
         ill="none"
         stroke="#000000"
         stroke-width="20" />
    </symbol>
    <inkscape:perspective
       id="perspective4471"
       inkscape:persp3d-origin="372.04724 : 350.78739 : 1"
       inkscape:vp_x="0 : 526.18109 : 1"
       inkscape:vp_y="0 : 1000 : 0"
       inkscape:vp_z="744.09448 : 526.18109 : 1"
       sodipodi:type="inkscape:persp3d" />
    <inkscape:perspective
       id="perspective4668"
       inkscape:persp3d-origin="6 : 4 : 1"
       inkscape:vp_x="0 : 6 : 1"
       inkscape:vp_y="0 : 1000 : 0"
       inkscape:vp_z="12 : 6 : 1"
       sodipodi:type="inkscape:persp3d" />
    <inkscape:perspective
       id="perspective4904"
       inkscape:persp3d-origin="16 : 10.666667 : 1"
       inkscape:vp_x="0 : 16 : 1"
       inkscape:vp_y="0 : 1000 : 0"
       inkscape:vp_z="32 : 16 : 1"
       sodipodi:type="inkscape:persp3d" />
    <marker
       id="Arrow2Lend"
       inkscape:stockid="Arrow2Lend"
       orient="auto"
       refX="0.0"
       refY="0.0"
       style="overflow:visible;">
      <path
         d="M 8.7185878,4.0337352 L -2.2072895,0.016013256 L 8.7185884,-4.0017078 C 6.9730900,-1.6296469 6.9831476,1.6157441 8.7185878,4.0337352 z "
         id="path4137"
         style="font-size:12.0;fill-rule:evenodd;stroke-width:0.62500000;stroke-linejoin:round;"
         transform="scale(1.1) rotate(180) translate(1,0)" />
    </marker>
    <marker
       id="Arrow1Mend"
       inkscape:stockid="Arrow1Mend"
       orient="auto"
       refX="0.0"
       refY="0.0"
       style="overflow:visible;">
      <path
         d="M 0.0,0.0 L 5.0,-5.0 L -12.5,0.0 L 5.0,5.0 L 0.0,0.0 z "
         id="path4125"
         style="fill-rule:evenodd;stroke:#000000;stroke-width:1.0pt;marker-start:none;"
         transform="scale(0.4) rotate(180) translate(10,0)" />
    </marker>
    <marker
       id="TriangleOutL"
       inkscape:stockid="TriangleOutL"
       orient="auto"
       refX="0.0"
       refY="0.0"
       style="overflow:visible">
      <path
         d="M 5.77,0.0 L -2.88,5.0 L -2.88,-5.0 L 5.77,0.0 z "
         id="path4214"
         style="fill-rule:evenodd;stroke:#000000;stroke-width:1.0pt;marker-start:none"
         transform="scale(0.8)" />
    </marker>
    <marker
       id="Arrow1Lend"
       inkscape:stockid="Arrow1Lend"
       orient="auto"
       refX="0.0"
       refY="0.0"
       style="overflow:visible;">
      <path
         d="M 0.0,0.0 L 5.0,-5.0 L -12.5,0.0 L 5.0,5.0 L 0.0,0.0 z "
         id="path4119"
         style="fill-rule:evenodd;stroke:#000000;stroke-width:1.0pt;marker-start:none;"
         transform="scale(0.8) rotate(180) translate(12.5,0)" />
    </marker>
    <marker
       id="Tail"
       inkscape:stockid="Tail"
       orient="auto"
       refX="0.0"
       refY="0.0"
       style="overflow:visible">
      <g
         id="g4152"
         transform="scale(-1.2)">
        <path
           d="M -3.8048674,-3.9585227 L 0.54352094,0"
           id="path4154"
           style="fill:none;fill-rule:evenodd;stroke:#000000;stroke-width:0.8;marker-start:none;marker-end:none;stroke-linecap:round" />
        <path
           d="M -1.2866832,-3.9585227 L 3.0617053,0"
           id="path4156"
           style="fill:none;fill-rule:evenodd;stroke:#000000;stroke-width:0.8;marker-start:none;marker-end:none;stroke-linecap:round" />
        <path
           d="M 1.3053582,-3.9585227 L 5.6537466,0"
           id="path4158"
           style="fill:none;fill-rule:evenodd;stroke:#000000;stroke-width:0.8;marker-start:none;marker-end:none;stroke-linecap:round" />
        <path
           d="M -3.8048674,4.1775838 L 0.54352094,0.21974226"
           id="path4160"
           style="fill:none;fill-rule:evenodd;stroke:#000000;stroke-width:0.8;marker-start:none;marker-end:none;stroke-linecap:round" />
        <path
           d="M -1.2866832,4.1775838 L 3.0617053,0.21974226"
           id="path4162"
           style="fill:none;fill-rule:evenodd;stroke:#000000;stroke-width:0.8;marker-start:none;marker-end:none;stroke-linecap:round" />
        <path
           d="M 1.3053582,4.1775838 L 5.6537466,0.21974226"
           id="path4164"
           style="fill:none;fill-rule:evenodd;stroke:#000000;stroke-width:0.8;marker-start:none;marker-end:none;stroke-linecap:round" />
      </g>
    </marker>
    <marker
       id="Arrow1Sstart"
       inkscape:stockid="Arrow1Sstart"
       orient="auto"
       refX="0.0"
       refY="0.0"
       style="overflow:visible">
      <path
         d="M 0.0,0.0 L 5.0,-5.0 L -12.5,0.0 L 5.0,5.0 L 0.0,0.0 z "
         id="path4128"
         style="fill-rule:evenodd;stroke:#000000;stroke-width:1.0pt;marker-start:none"
         transform="scale(0.2) translate(6,0)" />
    </marker>
    <marker
       id="Arrow1Send"
       inkscape:stockid="Arrow1Send"
       orient="auto"
       refX="0.0"
       refY="0.0"
       style="overflow:visible;">
      <path
         d="M 0.0,0.0 L 5.0,-5.0 L -12.5,0.0 L 5.0,5.0 L 0.0,0.0 z "
         id="path4131"
         style="fill-rule:evenodd;stroke:#000000;stroke-width:1.0pt;marker-start:none;"
         transform="scale(0.2) rotate(180) translate(6,0)" />
    </marker>
    <marker
       id="SemiCircleOut"
       inkscape:stockid="SemiCircleOut"
       orient="auto"
       refX="0.0"
       refY="0.0"
       style="overflow:visible">
      <path
         d="M -2.5,-0.80913858 C -2.5,1.9508614 -4.7400000,4.1908614 -7.5,4.1908614 L -7.5,-5.8091386 C -4.7400000,-5.8091386 -2.5,-3.5691386 -2.5,-0.80913858 z "
         id="path4235"
         style="fill-rule:evenodd;stroke:#000000;stroke-width:1.0pt;marker-start:none;marker-end:none"
         transform="scale(0.6) translate(7.125493,0.763446)" />
    </marker>
    <marker
       id="Arrow2Send"
       inkscape:stockid="Arrow2Send"
       orient="auto"
       refX="0.0"
       refY="0.0"
       style="overflow:visible;">
      <path
         d="M 8.7185878,4.0337352 L -2.2072895,0.016013256 L 8.7185884,-4.0017078 C 6.9730900,-1.6296469 6.9831476,1.6157441 8.7185878,4.0337352 z "
         id="path4149"
         style="font-size:12.0;fill-rule:evenodd;stroke-width:0.62500000;stroke-linejoin:round;"
         transform="scale(0.3) rotate(180) translate(-2.3,0)" />
    </marker>
    <marker
       id="TriangleOutS"
       inkscape:stockid="TriangleOutS"
       orient="auto"
       refX="0.0"
       refY="0.0"
       style="overflow:visible">
      <path
         d="M 5.77,0.0 L -2.88,5.0 L -2.88,-5.0 L 5.77,0.0 z "
         id="path4220"
         style="fill-rule:evenodd;stroke:#000000;stroke-width:1.0pt;marker-start:none"
         transform="scale(0.2)" />
    </marker>
    <marker
       id="CurveIn"
       inkscape:stockid="CurveIn"
       orient="auto"
       refX="0.0"
       refY="0.0"
       style="overflow:visible">
      <path
         d="M 4.6254930,-5.0456926 C 1.8654930,-5.0456926 -0.37450702,-2.8056926 -0.37450702,-0.045692580 C -0.37450702,2.7143074 1.8654930,4.9543074 4.6254930,4.9543074"
         id="path4238"
         style="fill-rule:evenodd;stroke:#000000;stroke-width:1.0pt;marker-start:none;marker-end:none;fill:none"
         transform="scale(0.6)" />
    </marker>
    <marker
       id="InfiniteLineStart"
       inkscape:stockid="InfiniteLineStart"
       orient="auto"
       refX="0"
       refY="0"
       style="overflow:visible">
      <g
         id="g4298"
         transform="translate(-13,0)">
        <circle
           cx="3"
           cy="0"
           d="M 3.8,0 C 3.8,0.44182781 3.4418278,0.80000001 3,0.80000001 2.5581722,0.80000001 2.2,0.44182781 2.2,0 c 0,-0.44182781 0.3581722,-0.80000001 0.8,-0.80000001 0.4418278,0 0.8,0.3581722 0.8,0.80000001 z"
           id="circle4300"
           r="0.8" />
        <circle
           cx="6.5"
           cy="0"
           d="M 7.3,0 C 7.3,0.44182781 6.9418278,0.80000001 6.5,0.80000001 6.0581722,0.80000001 5.7,0.44182781 5.7,0 c 0,-0.44182781 0.3581722,-0.80000001 0.8,-0.80000001 0.4418278,0 0.8,0.3581722 0.8,0.80000001 z"
           id="circle4302"
           r="0.8" />
        <circle
           cx="10"
           cy="0"
           d="M 10.8,0 C 10.8,0.44182781 10.441828,0.80000001 10,0.80000001 9.5581722,0.80000001 9.2,0.44182781 9.2,0 c 0,-0.44182781 0.3581722,-0.80000001 0.8,-0.80000001 0.441828,0 0.8,0.3581722 0.8,0.80000001 z"
           id="circle4304"
           r="0.8" />
      </g>
    </marker>
    <marker
       id="StopS"
       inkscape:stockid="StopS"
       orient="auto"
       refX="0.0"
       refY="0.0"
       style="overflow:visible">
      <path
         d="M 0.0,5.65 L 0.0,-5.65"
         id="path4229"
         style="fill:none;fill-opacity:0.75000000;fill-rule:evenodd;stroke:#000000;stroke-width:1.0pt"
         transform="scale(0.2)" />
    </marker>
    <marker
       id="Arrow2Sstart"
       inkscape:stockid="Arrow2Sstart"
       orient="auto"
       refX="0.0"
       refY="0.0"
       style="overflow:visible">
      <path
         d="M 8.7185878,4.0337352 L -2.2072895,0.016013256 L 8.7185884,-4.0017078 C 6.9730900,-1.6296469 6.9831476,1.6157441 8.7185878,4.0337352 z "
         id="path4146"
         style="font-size:12.0;fill-rule:evenodd;stroke-width:0.62500000;stroke-linejoin:round"
         transform="scale(0.3) translate(-2.3,0)" />
    </marker>
    <marker
       id="DiamondS"
       inkscape:stockid="DiamondS"
       orient="auto"
       refX="0.0"
       refY="0.0"
       style="overflow:visible">
      <path
         d="M 0,-7.0710768 L -7.0710894,0 L 0,7.0710589 L 7.0710462,0 L 0,-7.0710768 z "
         id="path4202"
         style="fill-rule:evenodd;stroke:#000000;stroke-width:1.0pt;marker-start:none"
         transform="scale(0.2)" />
    </marker>
    <marker
       id="RazorWire"
       inkscape:stockid="RazorWire"
       orient="auto"
       refX="0"
       refY="0">
       style=&quot;overflow:visible&quot;&gt;
      <path
   d="M 0.022727273,-0.74009011 L 0.022727273,0.69740989 L -7.7585227,3.0099099 L 10.678977,3.0099099 L 3.4914773,0.69740989 L 3.4914773,-0.74009011 L 10.741477,-2.8963401 L -7.7272727,-2.8963401 L 0.022727273,-0.74009011 z "
   id="path4286"
   style="fill:#808080;fill-opacity:1;fill-rule:evenodd;stroke:#000000;stroke-width:0.1pt"
   transform="scale(0.8,0.8)" />
</marker>
    <inkscape:perspective
       id="perspective5233"
       inkscape:persp3d-origin="16 : 10.666667 : 1"
       inkscape:vp_x="0 : 16 : 1"
       inkscape:vp_y="0 : 1000 : 0"
       inkscape:vp_z="32 : 16 : 1"
       sodipodi:type="inkscape:persp3d" />
    <inkscape:perspective
       id="perspective5412"
       inkscape:persp3d-origin="250 : 166.66667 : 1"
       inkscape:vp_x="0 : 250 : 1"
       inkscape:vp_y="0 : 1000 : 0"
       inkscape:vp_z="500 : 250 : 1"
       sodipodi:type="inkscape:persp3d" />
    <inkscape:perspective
       id="perspective5571"
       inkscape:persp3d-origin="202.85715 : 136.19048 : 1"
       inkscape:vp_x="0 : 204.28572 : 1"
       inkscape:vp_y="0 : 1000 : 0"
       inkscape:vp_z="405.71429 : 204.28572 : 1"
       sodipodi:type="inkscape:persp3d" />
    <inkscape:perspective
       id="perspective6552"
       inkscape:persp3d-origin="64 : 42.666667 : 1"
       inkscape:vp_x="0 : 64 : 1"
       inkscape:vp_y="0 : 1000 : 0"
       inkscape:vp_z="128 : 64 : 1"
       sodipodi:type="inkscape:persp3d" />
  </defs>
  <g
     id="g1327"
     transform="matrix(0.04107611,0,0,0.04107611,-1.1507936,-0.95856852)">
    <path
       d="M 66.275,1.768 C 24.94,1.768 1.704,23.139 1.704,66.804 l 0,450.123 c 0,40.844 20.895,62.229 62.192,62.229 l 452.024,0 c 41.307,0 62.229,-20.315 62.229,-62.229 l 0,-450.123 c 0,-42.601 -20.922,-65.036 -63.521,-65.036 -0.004,0 -448.495,-0.143 -448.353,0 z"
       id="path1329"
       style="fill:#111111;fill-opacity:0;stroke:#eeeeee;stroke-width:3.40799999;stroke-opacity:0"
       inkscape:connector-curvature="0" />
  </g>
  <path
     d="m 5.3982783,0.30195449 c -0.6296125,0 -1.1642509,0.5359219 -1.1642509,1.16553461 l 0,15.2803119 c 0.0024,0.05934 13.4585196,0.03227 13.4562766,0 l 0,-15.2803119 c 0,-0.62961271 -0.535923,-1.16553461 -1.165535,-1.16553461 l -11.1264907,0 z M 7.6934056,1.395606 c 0.047219,1.5e-6 0.087824,0.017493 0.1206611,0.052629 0.032837,0.035139 0.048777,0.08198 0.048777,0.141199 0,0.059222 -0.015939,0.1054933 -0.048777,0.1399156 -0.032837,0.034423 -0.073445,0.05263 -0.1206611,0.052629 -0.047248,1.3e-6 -0.086558,-0.018205 -0.1193774,-0.052629 -0.032816,-0.034422 -0.05006,-0.080694 -0.05006,-0.1399156 0,-0.059219 0.017244,-0.1060603 0.05006,-0.141199 0.032823,-0.035136 0.072127,-0.052627 0.1193774,-0.052629 z m 2.6904854,0.00257 c 0.04721,1.5e-6 0.08654,0.017493 0.119377,0.052629 0.03284,0.035139 0.05006,0.08198 0.05006,0.1411992 0,0.059222 -0.01722,0.1067769 -0.05006,0.1411991 -0.03284,0.034423 -0.07216,0.051346 -0.119377,0.051346 -0.04725,1.3e-6 -0.08784,-0.016921 -0.120661,-0.051346 -0.02289,-0.02401 -0.03672,-0.055062 -0.04364,-0.091138 -0.0033,0.012095 -0.0072,0.024235 -0.01284,0.038509 -0.01383,0.035117 -0.03204,0.070629 -0.05391,0.1078248 -0.01842,-0.012398 -0.04179,-0.025436 -0.0706,-0.038509 -0.02881,-0.01307 -0.06043,-0.019253 -0.09499,-0.019255 -0.02995,1.3e-6 -0.05501,0.00966 -0.07573,0.02824 -0.02073,0.018578 -0.03209,0.047317 -0.03209,0.087287 l 0,0.050062 0.2567246,0 0,0.3080708 -0.2567246,0 0,0.6893085 -0.342729,0 0,-0.9871102 c 0,-0.017904 -5.67e-4,-0.04278 0,-0.07445 5.62e-4,-0.031669 0.0028,-0.057725 0.0051,-0.077018 0.01498,-0.1115475 0.05417,-0.1956082 0.118094,-0.2541584 0.06393,-0.058547 0.152945,-0.088569 0.266995,-0.08857 0.02306,1.4e-6 0.04725,0.00169 0.07317,0.00514 0.02591,0.00345 0.05155,0.00851 0.07573,0.015403 0.04148,0.012401 0.07659,0.031683 0.106541,0.05648 0.01734,0.014354 0.02864,0.032432 0.03594,0.053912 0.0068,-0.03693 0.0217,-0.067552 0.04493,-0.092421 0.03282,-0.035136 0.07341,-0.052627 0.120661,-0.052629 z m -0.165589,0.14505 c -0.0028,0.015251 -0.0038,0.03147 -0.0038,0.048778 0,0.017914 0.0022,0.034417 0.0051,0.050062 0.0048,-0.017661 0.0077,-0.033962 0.0077,-0.04621 0,-0.01972 -0.0037,-0.036997 -0.009,-0.052629 z M 8.4160888,1.4071586 c 0.023065,1.5e-6 0.048538,0.00169 0.07445,0.00514 0.025906,0.00345 0.050262,0.00851 0.074451,0.015403 0.041485,0.0124 0.07787,0.0304 0.1078248,0.055196 0.029952,0.024799 0.044925,0.061004 0.044925,0.1078248 -7e-7,0.020638 -0.00671,0.048321 -0.020541,0.083436 -0.013833,0.035117 -0.032044,0.071912 -0.053912,0.1091084 -0.01842,-0.012399 -0.041788,-0.025436 -0.070601,-0.038509 -0.028813,-0.01307 -0.060432,-0.019253 -0.094988,-0.019255 -0.029953,1.3e-6 -0.056292,0.00838 -0.077018,0.026957 -0.020728,0.018578 -0.030804,0.0486 -0.030804,0.08857 l 0,0.048778 0.2554417,0 0,0.3080708 -0.2554417,0 0,0.6905921 -0.3440127,0 0,-0.9883939 c 0,-0.017904 7.147e-4,-0.041496 0.0013,-0.073167 5.626e-4,-0.031669 0.00151,-0.057725 0.00382,-0.077018 0.01498,-0.1115474 0.054157,-0.1968921 0.1180943,-0.2554419 0.06393,-0.058547 0.1529447,-0.087285 0.2669944,-0.087287 z m 0.4377176,0.01412 c 0.02767,1.5e-6 0.05496,0.00278 0.08087,0.00899 0.02591,0.0062 0.04845,0.01753 0.06803,0.033374 0.01958,0.015847 0.0354,0.037222 0.04749,0.065465 0.0121,0.028245 0.01797,0.065062 0.01797,0.1091084 l 0,1.2387014 c -0.04722,0.017905 -0.08892,0.026956 -0.125796,0.026956 -0.05298,0 -0.093854,-0.00795 -0.1232277,-0.023105 -0.029376,-0.015151 -0.05107,-0.034248 -0.065466,-0.059047 -0.014396,-0.024798 -0.022791,-0.05364 -0.025676,-0.086003 -0.00288,-0.032363 -0.00512,-0.066881 -0.00512,-0.1026903 l 0,-1.1976252 c 0.013819,-0.00138 0.028669,-0.00369 0.043641,-0.00642 0.012657,-0.00277 0.026801,-0.00503 0.042358,-0.00642 0.015557,-0.00138 0.029953,-0.00128 0.044925,-0.00128 z m -2.2540518,0.026957 c 0.027666,1.4e-6 0.053674,0.00278 0.079585,0.00899 0.025914,0.0062 0.048452,0.01753 0.068033,0.033374 0.019581,0.015847 0.036682,0.037221 0.048777,0.065465 0.012095,0.028245 0.017973,0.065062 0.017973,0.1091084 l 0,0.6649194 c 0.00577,-0.030262 0.01428,-0.060243 0.02696,-0.089854 0.012672,-0.029611 0.029195,-0.058328 0.048777,-0.087287 l 0.093705,-0.1424827 c 0.021868,-0.033036 0.045372,-0.061898 0.071885,-0.086003 0.026505,-0.024104 0.06305,-0.035941 0.1091086,-0.035942 0.026505,6e-7 0.052952,0.00389 0.078301,0.012836 0.025344,0.00895 0.047168,0.018512 0.06675,0.029523 0.021868,0.0124 0.042033,0.027188 0.061614,0.04236 L 7.135035,2.3698805 7.4148658,2.879481 c -0.076045,0.037155 -0.1458796,0.05648 -0.2092314,0.05648 -0.054142,0 -0.095966,-0.012531 -0.1270793,-0.035942 -0.031114,-0.023411 -0.059126,-0.052699 -0.082152,-0.089854 L 6.8860035,2.6253219 c -0.019581,-0.031649 -0.034676,-0.061019 -0.046209,-0.08857 -0.011532,-0.02755 -0.019906,-0.057997 -0.025676,-0.092421 l 0,0.4685243 -0.3465795,0 0,-1.4505 c 0.013819,-0.00138 0.028669,-0.00369 0.043641,-0.00642 0.012657,-0.00277 0.026801,-0.00374 0.042358,-0.00514 0.015557,-0.00138 0.031236,-0.00257 0.046209,-0.00257 z m -0.5147349,0.017971 c 0.027666,1.4e-6 0.053674,0.00407 0.079584,0.010269 0.025914,0.0062 0.049736,0.016246 0.069317,0.032091 0.019581,0.015847 0.035398,0.038505 0.047493,0.066749 0.012095,0.028245 0.017973,0.063779 0.017973,0.1078248 l 0,1.239985 c -0.047219,0.017905 -0.0902,0.026956 -0.1270794,0.026956 -0.052981,0 -0.093855,-0.00795 -0.1232281,-0.023105 -0.029374,-0.015151 -0.051069,-0.034248 -0.065465,-0.059047 -0.014396,-0.024798 -0.02279,-0.05364 -0.025673,-0.086003 -0.00288,-0.032363 -0.00385,-0.066881 -0.00385,-0.1026903 l 0,-1.1976253 c 0.013816,-0.00138 0.027383,-0.00369 0.04236,-0.00642 0.012656,-0.00277 0.026803,-0.00503 0.04236,-0.00642 0.015557,-0.00138 0.031233,-0.00257 0.046211,-0.00257 z m 6.6684483,0.00257 c 0.02307,1.5e-6 0.04726,0.00169 0.07317,0.00514 0.02591,0.00345 0.05155,0.00851 0.07573,0.015403 0.04148,0.0124 0.07659,0.031683 0.106542,0.05648 0.02247,0.0186 0.03674,0.04218 0.04236,0.073167 l 0,-0.1168102 c 0.01382,-0.00138 0.02867,-0.00369 0.04364,-0.00642 0.01266,-0.00277 0.0268,-0.00503 0.04236,-0.00642 0.01556,-0.00138 0.03124,-0.00257 0.04621,-0.00257 0.02767,1.5e-6 0.05367,0.00278 0.07959,0.00899 0.02591,0.0062 0.04845,0.01753 0.06803,0.033374 0.01958,0.015847 0.0354,0.038506 0.04749,0.066749 0.0121,0.028245 0.01797,0.063779 0.01797,0.1078249 l 0,1.239985 c -0.04722,0.017905 -0.08892,0.026956 -0.125796,0.026956 -0.05298,0 -0.09385,-0.00795 -0.123229,-0.023105 -0.02937,-0.015151 -0.05107,-0.035532 -0.06546,-0.060331 -0.0144,-0.024798 -0.02279,-0.052356 -0.02568,-0.084719 -0.0029,-0.032363 -0.0051,-0.066881 -0.0051,-0.1026903 l 0,-1.0243354 c -0.003,0.017055 -0.0087,0.036744 -0.01797,0.060331 -0.01383,0.035117 -0.03204,0.071913 -0.05391,0.1091084 -0.01842,-0.012398 -0.04179,-0.025436 -0.0706,-0.038509 -0.02881,-0.01307 -0.06043,-0.019253 -0.09499,-0.019255 -0.02995,1.3e-6 -0.05501,0.00966 -0.07573,0.02824 -0.02073,0.018578 -0.03081,0.047317 -0.03081,0.087287 l 0,0.050062 0.255442,0 0,0.3067872 -0.255442,0 0,0.690592 -0.344013,0 0,-0.9871102 c 0,-0.017904 -5.67e-4,-0.04278 0,-0.07445 5.63e-4,-0.031669 0.0028,-0.057725 0.0051,-0.077018 0.01498,-0.1115475 0.05416,-0.1968921 0.118094,-0.255442 0.06393,-0.058547 0.152945,-0.087285 0.266994,-0.087287 z m 0.297802,0.2066642 c 0.0015,-0.00834 0.0026,-0.01633 0.0026,-0.023105 0,-0.011705 -6.93e-4,-0.023045 -0.0026,-0.033374 l 0,0.05648 z m 1.906188,-0.2053806 c 0.02306,1.5e-6 0.04725,0.00169 0.07317,0.00514 0.02591,0.00345 0.05155,0.00851 0.07573,0.015403 0.04149,0.0124 0.07659,0.031683 0.106541,0.05648 0.02995,0.024799 0.04492,0.061004 0.04492,0.1078248 -10e-7,0.020638 -0.0067,0.048321 -0.02054,0.083436 -0.01383,0.035117 -0.03204,0.070629 -0.05391,0.1078247 -0.01842,-0.012398 -0.04179,-0.024152 -0.0706,-0.037225 -0.02881,-0.01307 -0.06043,-0.020537 -0.09499,-0.020538 -0.02995,1.3e-6 -0.05501,0.00966 -0.07573,0.02824 -0.02073,0.018578 -0.03081,0.047317 -0.03081,0.087287 l 0,0.050062 0.255442,0 0,0.3080708 -0.255442,0 0,0.6893084 -0.344012,0 0,-0.9871102 c 0,-0.017904 -5.67e-4,-0.04278 0,-0.074451 5.63e-4,-0.031669 0.0028,-0.056441 0.0051,-0.075734 0.01498,-0.1115474 0.05416,-0.1968921 0.118093,-0.2554419 0.06393,-0.058547 0.152945,-0.088569 0.266995,-0.08857 z m -2.924105,0.00257 c 0.02763,1.5e-6 0.05494,0.00278 0.08087,0.00899 0.02593,0.0062 0.04845,0.01753 0.06803,0.033374 0.01958,0.015847 0.0354,0.037222 0.04749,0.065465 0.0121,0.028245 0.01797,0.065062 0.01797,0.1091085 l 0,1.2476867 -0.259293,0 c -0.0173,0 -0.0324,-0.00576 -0.04621,-0.015403 -0.01382,-0.00965 -0.02054,-0.029965 -0.02054,-0.061614 -0.01614,0.024756 -0.04188,0.048047 -0.07702,0.068033 -0.03514,0.019985 -0.07923,0.029523 -0.132213,0.029523 -0.03916,0 -0.07751,-0.00795 -0.115527,-0.023105 -0.03802,-0.015152 -0.07217,-0.041716 -0.10269,-0.079585 -0.03051,-0.037869 -0.05543,-0.089899 -0.07445,-0.155319 -0.01902,-0.06542 -0.02824,-0.1472648 -0.02824,-0.2464567 0,-0.099149 0.0078,-0.1827234 0.02568,-0.2515911 0.01786,-0.068866 0.04193,-0.1254729 0.07188,-0.1681554 0.02995,-0.042681 0.06481,-0.073128 0.103974,-0.092421 0.03916,-0.019291 0.08058,-0.029523 0.123228,-0.029523 0.02763,6e-7 0.05256,0.00466 0.07445,0.011553 0.02188,0.00689 0.03964,0.014154 0.05519,0.023105 0.01556,0.00895 0.02872,0.018004 0.03851,0.026957 0.0098,0.00895 0.01581,0.015136 0.01926,0.019255 l 0,-0.5057496 c 0.01386,-0.00138 0.02871,-0.00369 0.04364,-0.00642 0.01269,-0.00277 0.0261,-0.00503 0.04107,-0.00642 0.01498,-0.00138 0.02995,-0.00128 0.04492,-0.00128 z m 1.631492,0.01412 c 0.02767,1.5e-6 0.05496,0.00278 0.08087,0.00899 0.02591,0.0062 0.04845,0.01753 0.06803,0.033374 0.01958,0.015847 0.0354,0.038506 0.04749,0.066749 0.01209,0.028245 0.01797,0.063779 0.01797,0.1078248 l 0,0.6649195 c 0.0058,-0.030262 0.01557,-0.060243 0.02824,-0.089854 0.01267,-0.029611 0.0292,-0.058328 0.04878,-0.087287 l 0.09242,-0.1424828 c 0.02187,-0.033035 0.04666,-0.061898 0.07317,-0.086003 0.0265,-0.024104 0.06305,-0.035941 0.109109,-0.035942 0.02651,7e-7 0.05167,0.00517 0.07702,0.01412 0.02534,0.00895 0.04845,0.018513 0.06803,0.029523 0.02187,0.0124 0.04203,0.025904 0.06161,0.041076 l -0.236187,0.3966412 0.27983,0.510884 c -0.07605,0.037155 -0.145879,0.055196 -0.209231,0.055196 -0.05414,0 -0.09725,-0.011247 -0.128363,-0.034658 -0.03111,-0.023411 -0.05784,-0.053983 -0.08087,-0.091138 l -0.110398,-0.18356 c -0.01958,-0.031648 -0.03468,-0.062302 -0.04621,-0.089854 -0.01153,-0.02755 -0.02119,-0.057998 -0.02696,-0.092421 l 0,0.4685243 -0.345296,0 0,-1.4492164 c 0.01382,-0.00138 0.02867,-0.00369 0.04364,-0.00642 0.01266,-0.00277 0.0268,-0.00503 0.04236,-0.00642 0.01556,-0.00138 0.02995,-0.00257 0.04492,-0.00257 z m 2.210407,0 c 0.02763,1.5e-6 0.05494,0.00278 0.08087,0.00899 0.02593,0.0062 0.04845,0.01753 0.06803,0.033374 0.01958,0.015847 0.0354,0.038506 0.04749,0.066749 0.01209,0.028245 0.01797,0.063778 0.01797,0.1078248 l 0,1.2476868 -0.259293,0 c -0.0173,0 -0.0324,-0.00447 -0.04621,-0.01412 -0.01382,-0.00965 -0.02054,-0.029965 -0.02054,-0.061614 -0.01614,0.024756 -0.04188,0.046764 -0.07702,0.066749 -0.03514,0.019985 -0.07923,0.029523 -0.132214,0.029523 -0.03916,0 -0.0775,-0.00667 -0.115526,-0.021821 -0.03802,-0.015152 -0.07217,-0.041716 -0.102691,-0.079585 -0.03052,-0.037869 -0.05543,-0.089899 -0.07445,-0.155319 -0.01902,-0.06542 -0.02824,-0.1472648 -0.02824,-0.2464567 0,-0.099149 0.0078,-0.184007 0.02568,-0.2528747 0.01786,-0.068866 0.04193,-0.1241893 0.07188,-0.1668718 0.02995,-0.042681 0.06481,-0.073128 0.103974,-0.092421 0.03916,-0.019291 0.08058,-0.029523 0.123228,-0.029523 0.02763,6e-7 0.05256,0.00338 0.07445,0.010269 0.02188,0.00689 0.03964,0.015438 0.0552,0.024389 0.01556,0.00895 0.02872,0.018004 0.03851,0.026956 0.0098,0.00895 0.01581,0.015136 0.01926,0.019255 l 0,-0.5057496 c 0.01385,-0.00138 0.0287,-0.00369 0.04364,-0.00642 0.01269,-0.00277 0.0261,-0.00503 0.04107,-0.00642 0.01497,-0.00138 0.02995,-0.00257 0.04492,-0.00257 z m -4.880354,0.4030593 c 0.09447,7e-7 0.177461,0.016923 0.24774,0.051345 0.03108,0.015173 0.05685,0.033846 0.07702,0.055196 0.02017,0.021352 0.02952,0.046818 0.02953,0.075734 0,0.024758 -0.006,0.054127 -0.01926,0.08857 -0.01323,0.034445 -0.03048,0.067149 -0.05006,0.098839 -0.0346,-0.031691 -0.06982,-0.057053 -0.107825,-0.077018 -0.038,-0.019964 -0.07765,-0.029522 -0.116809,-0.029523 -0.04953,1.3e-6 -0.07445,0.016923 -0.07445,0.051345 0,0.022025 0.0098,0.038356 0.02824,0.050062 0.01842,0.011705 0.04167,0.021265 0.06932,0.029523 0.02765,0.00826 0.0576,0.017901 0.08985,0.02824 0.03225,0.01034 0.0622,0.025554 0.08985,0.04621 0.02765,0.020659 0.05087,0.048911 0.06932,0.084719 0.01844,0.03581 0.02696,0.083366 0.02696,0.1411991 -10e-7,0.1102038 -0.03246,0.1977236 -0.09756,0.2631438 -0.06509,0.06542 -0.159262,0.098839 -0.283682,0.098839 -0.07144,0 -0.127127,-0.00745 -0.166872,-0.020538 -0.03975,-0.013092 -0.07196,-0.026006 -0.09499,-0.039792 -0.02995,-0.017905 -0.0501,-0.037696 -0.06161,-0.059047 -0.01151,-0.02135 -0.01669,-0.043338 -0.01669,-0.066749 0,-0.03581 0.0061,-0.070834 0.02054,-0.1052575 0.01439,-0.034422 0.03164,-0.06837 0.05006,-0.1014067 0.01382,0.015131 0.02964,0.029267 0.04749,0.04236 0.01786,0.013092 0.03702,0.02493 0.05776,0.035942 0.02074,0.011012 0.04229,0.019473 0.06418,0.025673 0.02188,0.0062 0.04215,0.00899 0.0629,0.00899 0.02995,7e-7 0.05151,-0.00498 0.06418,-0.016687 0.01267,-0.011705 0.01926,-0.027021 0.01926,-0.044927 0,-0.020678 -0.0092,-0.037662 -0.02824,-0.050062 -0.01902,-0.012398 -0.04295,-0.022465 -0.0706,-0.032091 -0.02765,-0.00962 -0.05774,-0.020975 -0.09114,-0.033374 -0.0334,-0.012399 -0.06349,-0.029993 -0.09114,-0.051345 -0.02765,-0.021351 -0.0516,-0.049603 -0.0706,-0.084719 -0.019,-0.035116 -0.02824,-0.080859 -0.02824,-0.1373482 0,-0.055058 0.0099,-0.1024496 0.02953,-0.1437664 0.01958,-0.041315 0.04548,-0.075832 0.0783,-0.1026903 0.03282,-0.026856 0.07033,-0.047237 0.112959,-0.060331 0.04263,-0.013092 0.08753,-0.019254 0.134782,-0.019255 z m -3.3322989,0.00128 c 0.027666,6e-7 0.054957,0.00279 0.080868,0.00899 0.025914,0.0062 0.048452,0.017551 0.068033,0.033374 0.019581,0.015825 0.035398,0.037222 0.047493,0.065465 0.012095,0.028245 0.017973,0.065062 0.017973,0.1091085 l 0,0.7316681 c 0,0.030305 -0.00151,0.066913 -0.00382,0.1116757 -0.00231,0.044762 -0.00735,0.084851 -0.015405,0.1206611 -0.012694,0.055101 -0.032556,0.101455 -0.059047,0.1386318 -0.026491,0.037176 -0.055736,0.067115 -0.088571,0.089854 -0.032837,0.022738 -0.065437,0.039153 -0.098839,0.048778 -0.0334,0.00962 -0.0631,0.014119 -0.087286,0.01412 -0.049534,-8e-7 -0.084779,-0.010658 -0.1078248,-0.033374 -0.023043,-0.022718 -0.039444,-0.056034 -0.047493,-0.100123 -0.00346,-0.017905 -0.00599,-0.036516 -0.0077,-0.05648 -0.00173,-0.019964 -0.00411,-0.047729 -0.00642,-0.082152 0.036884,-0.00412 0.066807,-0.01199 0.089854,-0.024389 0.023043,-0.012399 0.04124,-0.028202 0.053912,-0.047494 0.012672,-0.019292 0.021067,-0.042562 0.025676,-0.068033 0.00462,-0.02547 0.0077,-0.053132 0.0077,-0.083436 l 0,-0.9627213 c 0.013819,-0.00139 0.027385,-0.00369 0.042358,-0.00642 0.012657,-0.00277 0.026801,-0.00505 0.042358,-0.00642 0.015557,-0.00136 0.031236,-0.00128 0.046209,-0.00128 z m 2.6904849,0.00257 c 0.02767,6e-7 0.05367,0.00279 0.07958,0.00899 0.02591,0.0062 0.04845,0.017551 0.06803,0.033374 0.01958,0.015825 0.0354,0.038506 0.04749,0.066749 0.0121,0.028245 0.01926,0.063778 0.01926,0.1078248 l 0,0.7316681 c -10e-7,0.030304 -0.0015,0.068197 -0.0038,0.1129593 -0.0023,0.044762 -0.0073,0.084851 -0.01541,0.1206611 -0.01269,0.055101 -0.03256,0.1014551 -0.05905,0.1386319 -0.02649,0.037176 -0.05574,0.067115 -0.08857,0.089854 -0.03284,0.022737 -0.06673,0.03787 -0.100124,0.047494 -0.0334,0.00962 -0.06182,0.015403 -0.086,0.015403 -0.04953,-8e-7 -0.08606,-0.011941 -0.109109,-0.034658 -0.02304,-0.022718 -0.03816,-0.056033 -0.04621,-0.100123 -0.0035,-0.017905 -0.006,-0.036516 -0.0077,-0.05648 -0.0017,-0.019964 -0.0041,-0.047729 -0.0064,-0.082152 0.03688,-0.00412 0.06681,-0.01199 0.08985,-0.024389 0.02304,-0.012399 0.04124,-0.028202 0.05391,-0.047494 0.01267,-0.019292 0.02107,-0.041279 0.02568,-0.066749 0.0046,-0.02547 0.0064,-0.054415 0.0064,-0.084719 l 0,-0.9627213 c 0.01382,-0.00139 0.02867,-0.0024 0.04364,-0.00514 0.01266,-0.00277 0.0268,-0.00505 0.04236,-0.00642 0.01556,-0.00136 0.03124,-0.00257 0.04621,-0.00257 z m 1.49286,0.3221906 c -0.03916,7e-7 -0.06648,0.0203 -0.08087,0.061614 -0.0144,0.041317 -0.02183,0.09782 -0.02183,0.169439 0,0.033037 0.0017,0.064177 0.0051,0.092421 0.0035,0.028245 0.0093,0.053099 0.01797,0.07445 0.0086,0.021351 0.02084,0.037663 0.03466,0.050062 0.01382,0.012399 0.0306,0.019255 0.05134,0.019255 0.01382,0 0.02531,-0.00177 0.03337,-0.00385 0.0081,-0.00208 0.01321,-0.00374 0.01669,-0.00514 l 0,-0.4441354 c -0.0069,-0.0055 -0.016,-0.00949 -0.02696,-0.011553 -0.01096,-0.00206 -0.02032,-0.00257 -0.02953,-0.00257 z m 3.827779,0.015403 c -0.03156,0.00452 -0.05415,0.025464 -0.06675,0.061614 -0.0144,0.041317 -0.02182,0.09782 -0.02182,0.169439 0,0.033036 0.0017,0.062894 0.0051,0.091138 0.0035,0.028245 0.0093,0.053099 0.01797,0.07445 0.0086,0.021351 0.02084,0.038946 0.03466,0.051345 0.01382,0.012399 0.0306,0.017971 0.05134,0.017971 0.01382,0 0.02531,-4.807e-4 0.03337,-0.00257 0.0081,-0.00208 0.01321,-0.00374 0.01669,-0.00514 l 0,-0.4441355 c -0.0069,-0.0055 -0.016,-0.00949 -0.02696,-0.011553 -0.01096,-0.00206 -0.02031,-0.00257 -0.02952,-0.00257 -0.0049,10e-8 -0.0096,-6.457e-4 -0.01412,0 z M 8.4533141,3.4802184 c 0.027666,2e-6 0.053674,0.00408 0.079584,0.010269 0.025914,0.0062 0.049736,0.016247 0.069317,0.032091 0.019581,0.015847 0.035398,0.038505 0.047493,0.066749 0.012095,0.028245 0.017973,0.063778 0.017973,0.1078248 l 0,1.2399849 c -0.047219,0.017905 -0.0902,0.026956 -0.1270793,0.026956 -0.052981,0 -0.093855,-0.00795 -0.123228,-0.023105 -0.029376,-0.015151 -0.05107,-0.034249 -0.065466,-0.059047 -0.014396,-0.024798 -0.022791,-0.05364 -0.025676,-0.086003 -0.00288,-0.032363 -0.00512,-0.066881 -0.00512,-0.1026902 l 0,-1.1976253 c 0.013819,-0.00138 0.028669,-0.00368 0.043641,-0.00642 0.012657,-0.00277 0.026801,-0.00503 0.042358,-0.00642 0.015557,-0.00138 0.031236,-0.00257 0.046209,-0.00257 z m 0.4826443,0 c 0.02767,2e-6 0.05496,0.00408 0.08087,0.010269 0.02591,0.0062 0.04845,0.016247 0.06803,0.032091 0.01958,0.015847 0.0354,0.038505 0.04749,0.066749 0.0121,0.028245 0.01797,0.063778 0.01797,0.1078248 l 0,0.6649194 c 0.0058,-0.030262 0.01556,-0.058959 0.02824,-0.08857 0.01267,-0.02961 0.02919,-0.05961 0.04878,-0.08857 l 0.09242,-0.1424827 c 0.02187,-0.033034 0.04666,-0.061897 0.07317,-0.086003 0.02651,-0.024103 0.06305,-0.035941 0.109108,-0.035942 0.02651,8e-7 0.05167,0.00517 0.07702,0.01412 0.02534,0.00895 0.04845,0.018512 0.06803,0.029523 0.02187,0.0124 0.04203,0.025904 0.06162,0.041076 l -0.236188,0.3966412 0.279831,0.510884 c -0.07605,0.037155 -0.145879,0.055196 -0.209231,0.055196 -0.05414,0 -0.09725,-0.011247 -0.128363,-0.034658 -0.03111,-0.023411 -0.05784,-0.053982 -0.08087,-0.091138 L 9.2234904,4.6585893 c -0.01958,-0.031648 -0.03468,-0.062302 -0.04621,-0.089854 -0.01153,-0.02755 -0.02119,-0.057997 -0.02696,-0.092421 l 0,0.4685244 -0.3452958,0 0,-1.4492165 c 0.013819,-0.00138 0.028669,-0.00368 0.043641,-0.00642 0.012657,-0.00277 0.0268,-0.00503 0.042357,-0.00642 0.01556,-0.00138 0.02995,-0.00257 0.04492,-0.00257 z m -0.9832597,0.010269 c 0.02763,2.1e-6 0.053652,0.00279 0.079585,0.00899 0.025928,0.0062 0.048452,0.01753 0.068033,0.033374 0.019581,0.015847 0.035398,0.038505 0.047493,0.066749 0.012095,0.028245 0.019257,0.063778 0.019257,0.1078248 l 0,1.2476868 -0.2592924,0 c -0.017295,0 -0.033681,-0.00448 -0.047493,-0.01412 C 7.8464623,4.931342 7.8397403,4.911027 7.8397403,4.879378 7.8235993,4.904133 7.7978583,4.926142 7.7627223,4.946127 7.7275843,4.966112 7.6834903,4.97565 7.6305086,4.97565 c -0.039163,0 -0.077504,-0.00667 -0.1155268,-0.021821 -0.038022,-0.015158 -0.072173,-0.041721 -0.1026893,-0.07959 -0.030515,-0.03787 -0.055434,-0.089898 -0.07445,-0.1553191 -0.019019,-0.06542 -0.028243,-0.1472648 -0.028243,-0.2464566 0,-0.099149 0.00909,-0.184007 0.02696,-0.2528748 0.017857,-0.068866 0.041932,-0.1241891 0.071885,-0.1668717 0.029953,-0.042681 0.063526,-0.073129 0.1026903,-0.092421 0.039163,-0.019291 0.080583,-0.029523 0.1232281,-0.029523 0.02763,8e-7 0.052563,0.00338 0.074451,0.010269 0.021882,0.00689 0.040922,0.015438 0.056479,0.024389 0.015557,0.00895 0.027436,0.016721 0.037223,0.025673 0.00979,0.00895 0.017093,0.016419 0.020541,0.020538 l 0,-0.5070332 c 0.013855,-0.00138 0.027421,-0.0024 0.042358,-0.00514 0.012694,-0.00277 0.027385,-0.00503 0.042358,-0.00642 0.01498,-0.00138 0.029953,-0.00257 0.044925,-0.00257 z m -0.9486016,0.00128 c 0.023065,1.3e-6 0.047255,0.00169 0.073167,0.00514 0.025914,0.00345 0.051546,0.00851 0.075734,0.015403 0.041485,0.0124 0.076586,0.031683 0.106541,0.05648 0.029953,0.024799 0.044925,0.059721 0.044925,0.1065412 0,0.020638 -0.00671,0.04832 -0.02054,0.083436 -0.013833,0.035117 -0.032044,0.071912 -0.053912,0.1091085 -0.01842,-0.012399 -0.041788,-0.025436 -0.070601,-0.038509 -0.028813,-0.01307 -0.060432,-0.019253 -0.094989,-0.019255 -0.029953,1.2e-6 -0.055008,0.00966 -0.075734,0.02824 -0.020728,0.018578 -0.030804,0.047317 -0.030804,0.087287 l 0,0.050062 0.2554425,0 0,0.3067872 -0.2554425,0 0,0.690592 -0.344012,0 0,-0.9871102 c 0,-0.017904 7.147e-4,-0.042779 0.0013,-0.07445 5.633e-4,-0.031669 0.00151,-0.057725 0.00382,-0.077018 C 6.6339721,3.7229546 6.6731561,3.6376096 6.7370857,3.57906 6.8010157,3.520513 6.8900311,3.491775 7.0040808,3.491773 z m 8.2832539,0.025673 c 0.04722,1.2e-6 0.08782,0.017493 0.120661,0.052629 0.03284,0.035139 0.04878,0.083263 0.04878,0.1424827 0,0.059222 -0.01594,0.1054934 -0.04878,0.1399156 -0.03284,0.034423 -0.07345,0.051346 -0.120661,0.051345 -0.04725,1.2e-6 -0.08656,-0.016921 -0.119378,-0.051345 -0.03282,-0.034422 -0.04878,-0.080694 -0.04878,-0.1399156 0,-0.05922 0.01596,-0.1073441 0.04878,-0.1424827 0.03282,-0.035136 0.07213,-0.052628 0.119378,-0.052629 z m -4.477296,0.00128 c 0.02767,2.1e-6 0.05496,0.00279 0.08087,0.00899 0.02591,0.0062 0.04845,0.01753 0.06803,0.033374 0.01958,0.015848 0.0354,0.037222 0.04749,0.065465 0.0121,0.028245 0.01797,0.065062 0.01797,0.1091084 l 0,0.6649195 c 0.0058,-0.030261 0.01428,-0.060243 0.02696,-0.089854 0.01267,-0.02961 0.02919,-0.058327 0.04878,-0.087287 l 0.0937,-0.1424873 c 0.02187,-0.033034 0.04537,-0.061897 0.07188,-0.086003 0.02651,-0.024103 0.06305,-0.035941 0.109109,-0.035942 0.02651,8e-7 0.05295,0.00389 0.0783,0.012836 0.02534,0.00895 0.04717,0.019796 0.06675,0.030807 0.02187,0.0124 0.04332,0.025904 0.0629,0.041076 l -0.237471,0.3966412 0.279831,0.5096004 c -0.07605,0.037155 -0.144595,0.05648 -0.207948,0.05648 -0.05414,0 -0.09725,-0.012531 -0.128362,-0.035942 -0.03111,-0.023411 -0.05784,-0.052699 -0.08087,-0.089854 L 11.096305,4.6958103 c -0.01958,-0.031648 -0.03468,-0.061019 -0.04621,-0.08857 -0.01153,-0.02755 -0.01991,-0.057997 -0.02568,-0.092421 l 0,0.4685244 -0.345297,0 0,-1.4505 c 0.01382,-0.00138 0.02739,-0.00368 0.04236,-0.00642 0.01266,-0.00277 0.0268,-0.00374 0.04236,-0.00514 0.01556,-0.00138 0.03124,-0.00257 0.04621,-0.00257 z m 1.255389,0.00514 c 0.02306,1.2e-6 0.04725,0.00169 0.07317,0.00514 0.02591,0.00345 0.05155,0.00851 0.07573,0.015403 0.04148,0.0124 0.07659,0.0304 0.106541,0.055196 0.02995,0.024799 0.04493,0.061004 0.04493,0.1078249 -10e-7,0.020638 -0.0067,0.04832 -0.02054,0.083436 -0.01383,0.035117 -0.03076,0.071913 -0.05263,0.1091084 -0.01842,-0.012399 -0.04307,-0.025436 -0.07188,-0.038509 -0.02881,-0.01307 -0.06043,-0.019253 -0.09499,-0.019254 -0.02995,1.2e-6 -0.05501,0.00838 -0.07573,0.026956 -0.02073,0.018578 -0.03081,0.048601 -0.03081,0.08857 l 0,0.048778 0.255441,0 0,0.3080708 -0.255441,0 0,0.690592 -0.344013,0 0,-0.9883938 c 0,-0.017904 7.15e-4,-0.04278 0.0013,-0.07445 5.63e-4,-0.031669 0.0015,-0.056442 0.0038,-0.075734 0.01498,-0.1115475 0.05416,-0.1968926 0.118093,-0.2554421 0.06393,-0.058547 0.152946,-0.087286 0.266995,-0.087287 z m 1.675134,0.029523 c 0.02764,2e-6 0.05494,0.00279 0.08087,0.00899 0.02593,0.0062 0.04845,0.01753 0.06803,0.033374 0.01958,0.015848 0.0354,0.037222 0.04749,0.065465 0.0121,0.028245 0.01797,0.065062 0.01797,0.1091084 l 0,1.2476868 -0.259293,0 c -0.01729,0 -0.0324,-0.00576 -0.04621,-0.015403 -0.01382,-0.00965 -0.02054,-0.029965 -0.02054,-0.061614 -0.01614,0.024756 -0.04187,0.046764 -0.07702,0.066749 -0.03514,0.019985 -0.07923,0.030807 -0.132214,0.030807 -0.03916,0 -0.0775,-0.00795 -0.115526,-0.023105 -0.03802,-0.015152 -0.07218,-0.041716 -0.102691,-0.079585 -0.03052,-0.03787 -0.05543,-0.089898 -0.07445,-0.1553191 -0.01902,-0.065419 -0.02824,-0.1472648 -0.02824,-0.2464566 0,-0.099149 0.0078,-0.1827234 0.02568,-0.2515912 0.01786,-0.068866 0.04193,-0.1254727 0.07188,-0.1681553 0.02995,-0.042681 0.06481,-0.073129 0.103974,-0.092421 0.03916,-0.019291 0.08058,-0.029523 0.123228,-0.029523 0.02763,8e-7 0.05256,0.00466 0.07445,0.011553 0.02188,0.00689 0.03964,0.014154 0.0552,0.023105 0.01556,0.00895 0.02872,0.018005 0.03851,0.026956 0.0098,0.00895 0.01581,0.015136 0.01926,0.019255 l 0,-0.5057496 c 0.01385,-0.00138 0.0287,-0.00368 0.04364,-0.00642 0.01269,-0.00277 0.0261,-0.00503 0.04107,-0.00642 0.01498,-0.00138 0.02995,-0.00128 0.04492,-0.00128 z m 0.483929,0 c 0.02767,2e-6 0.05367,0.00279 0.07958,0.00899 0.02591,0.0062 0.04845,0.01753 0.06803,0.033374 0.01958,0.015848 0.0354,0.037222 0.04749,0.065465 0.0121,0.028245 0.01926,0.065062 0.01926,0.1091084 l 0,0.6649194 c 0.0058,-0.030261 0.01428,-0.060243 0.02696,-0.089854 0.01267,-0.02961 0.0292,-0.059611 0.04878,-0.08857 l 0.0937,-0.1424786 c 0.02187,-0.033034 0.04537,-0.060613 0.07188,-0.08472 0.02651,-0.024103 0.06305,-0.037225 0.109108,-0.037225 0.02651,8e-7 0.05167,0.00517 0.07702,0.01412 0.02534,0.00895 0.04845,0.018512 0.06803,0.029523 0.02187,0.0124 0.04203,0.025904 0.06162,0.041076 l -0.236188,0.3966412 0.279831,0.5108841 c -0.07605,0.037155 -0.145879,0.055196 -0.209231,0.055196 -0.05414,0 -0.09597,-0.011247 -0.127079,-0.034658 -0.03111,-0.023411 -0.05913,-0.053982 -0.08215,-0.091138 L 14.510756,4.7304725 c -0.01958,-0.031648 -0.03468,-0.061019 -0.04621,-0.088571 -0.01153,-0.02755 -0.01991,-0.059281 -0.02568,-0.093705 l 0,0.469808 -0.346579,0 0,-1.4505001 c 0.01382,-0.00138 0.02867,-0.00368 0.04364,-0.00642 0.01266,-0.00277 0.0268,-0.00503 0.04236,-0.00642 0.01556,-0.00138 0.03124,-0.00128 0.04621,-0.00128 z m -4.024175,0.3838048 c 0.134791,9e-7 0.23063,0.031629 0.288816,0.094989 0.05818,0.063362 0.08729,0.1639199 0.08729,0.3016526 l 0,0.4030593 c 0,0.034423 0.0031,0.072316 0.0077,0.1129593 0.0046,0.040643 0.0112,0.076237 0.01926,0.1065412 -0.01613,0.00551 -0.03098,0.00939 -0.04364,0.012836 -0.01266,0.00345 -0.02511,0.00692 -0.03722,0.00899 -0.01211,0.00206 -0.02527,0.00316 -0.03851,0.00385 -0.01323,6.901e-4 -0.02751,0.00128 -0.04364,0.00128 -0.09331,0 -0.148044,-0.031606 -0.163021,-0.094989 -0.01958,0.023411 -0.04798,0.044889 -0.086,0.064181 -0.03802,0.019291 -0.08618,0.02824 -0.143767,0.02824 -0.03572,0 -0.06985,-0.00568 -0.1026896,-0.016687 -0.03284,-0.011012 -0.06194,-0.028524 -0.08729,-0.052629 -0.02535,-0.024104 -0.04535,-0.055732 -0.06033,-0.094989 -0.01498,-0.039256 -0.02182,-0.087277 -0.02182,-0.1437663 0,-0.079857 0.01749,-0.1437451 0.05263,-0.1912607 0.03514,-0.047514 0.07696,-0.083026 0.127079,-0.1078248 0.05012,-0.024797 0.1030406,-0.040622 0.1566026,-0.047494 0.05356,-0.00687 0.09931,-0.010268 0.137348,-0.010269 l 0,-0.029523 c -10e-7,-0.019291 -0.0032,-0.034504 -0.009,-0.04621 -0.0058,-0.011705 -0.01331,-0.020756 -0.02311,-0.026957 -0.0098,-0.0062 -0.02141,-0.00949 -0.03465,-0.011553 -0.01326,-0.00206 -0.02739,-0.00385 -0.04236,-0.00385 -0.04029,8e-7 -0.08019,0.00619 -0.119377,0.019255 -0.03918,0.013072 -0.08255,0.034043 -0.1309296,0.061614 -0.0219,-0.03169 -0.03913,-0.0634 -0.05006,-0.093705 -0.01093,-0.030304 -0.01669,-0.052901 -0.01669,-0.068033 0,-0.020678 0.0065,-0.040469 0.01797,-0.059047 0.01151,-0.018577 0.03488,-0.037083 0.0706,-0.057763 0.03111,-0.019291 0.07281,-0.035198 0.1257956,-0.04621 0.05298,-0.011011 0.107718,-0.016686 0.163021,-0.016687 z m 2.468417,0.053917 c 0.09447,8e-7 0.176177,0.016924 0.246457,0.051345 0.03108,0.015174 0.05685,0.033845 0.07702,0.055196 0.02016,0.021352 0.0308,0.045535 0.0308,0.07445 0,0.024758 -0.0073,0.054127 -0.02054,0.08857 -0.01323,0.034445 -0.0292,0.068433 -0.04878,0.100123 -0.0346,-0.03169 -0.07111,-0.058336 -0.109109,-0.078301 -0.038,-0.019964 -0.07636,-0.029522 -0.115527,-0.029523 -0.04953,1.2e-6 -0.07445,0.016923 -0.07445,0.051346 0,0.022025 0.0085,0.03964 0.02696,0.051345 0.01842,0.011705 0.04167,0.021265 0.06932,0.029523 0.02765,0.00826 0.0576,0.0179 0.08985,0.02824 0.03225,0.01034 0.06221,0.025554 0.08985,0.04621 0.02765,0.020659 0.05087,0.04891 0.06932,0.08472 0.01844,0.03581 0.02824,0.082082 0.02824,0.1399155 0,0.1102039 -0.03246,0.1990072 -0.09755,0.2644274 -0.06509,0.06542 -0.160546,0.097556 -0.284966,0.097556 -0.07144,0 -0.127127,-0.00616 -0.166872,-0.019255 -0.03975,-0.013092 -0.07068,-0.02729 -0.0937,-0.041076 -0.02995,-0.017904 -0.05139,-0.037696 -0.0629,-0.059047 -0.01151,-0.021351 -0.01669,-0.043338 -0.01669,-0.066749 0,-0.03581 0.0074,-0.070834 0.02183,-0.1052575 0.01439,-0.034422 0.03036,-0.06837 0.04878,-0.1014066 0.01382,0.015131 0.02964,0.029267 0.04749,0.04236 0.01786,0.013092 0.03702,0.02493 0.05776,0.035941 0.02074,0.011013 0.04229,0.019473 0.06418,0.025673 0.02188,0.0062 0.04344,0.01027 0.06418,0.010269 0.02995,9e-7 0.05151,-0.00627 0.06418,-0.017971 0.01267,-0.011705 0.01926,-0.027022 0.01926,-0.044927 0,-0.020678 -0.0105,-0.036378 -0.02953,-0.048778 -0.01902,-0.012399 -0.04167,-0.023749 -0.06932,-0.033374 -0.02765,-0.00962 -0.05903,-0.020975 -0.09242,-0.033374 -0.0334,-0.012399 -0.06349,-0.02871 -0.09114,-0.050062 -0.02765,-0.021351 -0.05031,-0.049603 -0.06932,-0.08472 -0.019,-0.035116 -0.02953,-0.080859 -0.02953,-0.1373482 -1e-6,-0.055059 0.0099,-0.1037332 0.02953,-0.14505 0.01958,-0.041315 0.04548,-0.074549 0.0783,-0.1014067 0.03282,-0.026856 0.07162,-0.047237 0.114243,-0.060331 0.04262,-0.013092 0.08753,-0.019254 0.134781,-0.019255 z m 2.587795,0.023105 c 0.02767,1.2e-6 0.05496,0.00279 0.08087,0.00899 0.02591,0.0062 0.04845,0.01755 0.06803,0.033374 0.01958,0.015825 0.0354,0.037222 0.04749,0.065465 0.01209,0.028245 0.01797,0.065062 0.01797,0.1091085 l 0,0.7303845 c 0,0.030304 -0.0015,0.068197 -0.0038,0.1129593 -0.0023,0.044762 -0.0073,0.08485 -0.01541,0.120661 -0.01269,0.055101 -0.03127,0.101456 -0.05776,0.1386319 -0.02649,0.037176 -0.05702,0.067115 -0.08985,0.089854 -0.03284,0.022737 -0.06544,0.039153 -0.09884,0.048778 -0.0334,0.00962 -0.06182,0.014119 -0.086,0.01412 -0.04953,-8e-7 -0.08606,-0.011941 -0.109108,-0.034658 -0.02304,-0.022718 -0.03944,-0.056033 -0.04749,-0.100123 -0.0035,-0.017905 -0.006,-0.036516 -0.0077,-0.05648 -0.0017,-0.019964 -0.0028,-0.046446 -0.0051,-0.080869 0.03688,-0.00412 0.06681,-0.013274 0.08985,-0.025673 0.02304,-0.012399 0.03996,-0.028202 0.05263,-0.047494 0.01267,-0.019292 0.02235,-0.041278 0.02696,-0.066749 0.0046,-0.025471 0.0064,-0.053131 0.0064,-0.083436 l 0,-0.9627213 c 0.01382,-0.00138 0.02867,-0.00369 0.04364,-0.00642 0.01266,-0.00277 0.0268,-0.00506 0.04236,-0.00642 0.01556,-0.00136 0.02995,-0.00128 0.04493,-0.00128 z m -7.5066585,0.220779 c -0.031561,0.00452 -0.05415,0.025464 -0.06675,0.061614 -0.014396,0.041317 -0.02054,0.09782 -0.02054,0.169439 -7e-7,0.033037 0.00166,0.062894 0.00512,0.091138 0.00346,0.028245 0.00932,0.053099 0.017973,0.07445 0.00865,0.021351 0.01956,0.038946 0.033371,0.051345 0.013819,0.012399 0.030602,0.017971 0.051344,0.017971 0.013819,0 0.025308,-4.806e-4 0.033371,-0.00257 0.00807,-0.00208 0.013206,-0.00374 0.016689,-0.00514 l 0,-0.4441354 c -0.00692,-0.0055 -0.01472,-0.00949 -0.025676,-0.011553 -0.010948,-0.00206 -0.021593,-0.00257 -0.030804,-0.00257 -0.0049,0 -0.00961,-6.448e-4 -0.014122,0 z m 5.8032835,0.061614 c -0.03916,9e-7 -0.06648,0.0203 -0.08087,0.061614 -0.0144,0.041317 -0.02182,0.09782 -0.02182,0.1694389 -10e-7,0.033036 0.0017,0.064178 0.0051,0.092421 0.0035,0.028245 0.0093,0.053099 0.01797,0.07445 0.0086,0.021351 0.02084,0.037662 0.03465,0.050062 0.01382,0.012399 0.0306,0.019255 0.05134,0.019255 0.01382,0 0.02531,-0.00176 0.03337,-0.00385 0.0081,-0.00208 0.0132,-0.00374 0.01669,-0.00514 l 0,-0.4441354 c -0.0069,-0.0055 -0.016,-0.00949 -0.02696,-0.011553 -0.01096,-0.00206 -0.02031,-0.00257 -0.02952,-0.00257 z m -3.298925,0.2028133 c -0.02187,0.00278 -0.0433,0.00733 -0.0629,0.012836 -0.0196,0.00551 -0.03695,0.012788 -0.05134,0.023105 -0.0144,0.010319 -0.02475,0.024538 -0.03337,0.041076 -0.0086,0.01654 -0.01412,0.038038 -0.01412,0.064181 0,0.031691 0.0074,0.055956 0.02182,0.073167 0.0144,0.017211 0.03498,0.025673 0.06033,0.025673 0.02074,0 0.03908,-0.00568 0.0552,-0.016687 0.01612,-0.011011 0.02439,-0.027995 0.02439,-0.050062 l 0,-0.1732899 z m 2.340055,3.1500241 c 0.04721,1.4e-6 0.08782,0.01749 0.120661,0.052628 0.03284,0.035138 0.04878,0.08198 0.04878,0.1411995 0,0.05922 -0.01594,0.1067768 -0.04878,0.1411988 -0.03284,0.034424 -0.07345,0.051344 -0.120661,0.051344 -0.04725,1.4e-6 -0.08656,-0.01692 -0.119378,-0.051344 -0.03282,-0.034424 -0.05006,-0.081977 -0.05006,-0.1411988 0,-0.05922 0.01725,-0.1060607 0.05006,-0.1411995 0.03282,-0.035138 0.07213,-0.052628 0.119378,-0.052628 z m -3.6634756,0.019257 c 0.02307,7e-7 0.04854,0.00166 0.07445,0.00512 0.02591,0.00346 0.05026,0.00851 0.07445,0.015405 0.04148,0.012398 0.07787,0.0304 0.107825,0.055195 0.02995,0.024803 0.04492,0.061001 0.04492,0.1078248 -10e-7,0.020634 -0.008,0.048322 -0.02182,0.083436 -0.01383,0.035117 -0.03076,0.07063 -0.05263,0.1078248 -0.01842,-0.012398 -0.04179,-0.024154 -0.0706,-0.037223 -0.02881,-0.013069 -0.06171,-0.020533 -0.09627,-0.02054 -0.02995,1.4e-6 -0.05501,0.00966 -0.07573,0.028236 -0.02073,0.018579 -0.03081,0.048603 -0.03081,0.08857 l 0,0.048777 0.255442,0 0,0.3080711 -0.255442,0 0,0.6905923 -0.3440125,0 0,-0.9883938 c 0,-0.017901 7.147e-4,-0.042783 0.0013,-0.074451 5.625e-4,-0.031669 0.00151,-0.056443 0.00382,-0.075734 0.014973,-0.1115477 0.054157,-0.1968926 0.1180936,-0.2554425 0.06393,-0.058549 0.1529447,-0.087286 0.2669942,-0.087286 z m 4.3746056,0 c 0.02306,7e-7 0.04725,0.00166 0.07317,0.00512 0.02591,0.00346 0.05155,0.00851 0.07573,0.015405 0.04148,0.012398 0.07659,0.0304 0.106541,0.055195 0.02995,0.024803 0.04493,0.061001 0.04493,0.1078248 -2e-6,0.020634 -0.0067,0.048322 -0.02054,0.083436 -0.01383,0.035117 -0.03204,0.07063 -0.05391,0.1078248 -0.01842,-0.012398 -0.04179,-0.024154 -0.0706,-0.037223 -0.02881,-0.013069 -0.06043,-0.020533 -0.09499,-0.02054 -0.02995,1.4e-6 -0.05501,0.00966 -0.07573,0.028236 -0.02073,0.018579 -0.03081,0.048603 -0.0308,0.08857 l 0,0.048777 0.255442,0 0,0.3080711 -0.255442,0 0,0.6905923 -0.344013,0 0,-0.9883938 c 0,-0.017901 -5.67e-4,-0.042783 0,-0.074451 5.63e-4,-0.031669 0.0028,-0.056443 0.0051,-0.075734 0.01498,-0.1115477 0.05416,-0.1968926 0.118094,-0.2554425 0.06393,-0.058549 0.152945,-0.087286 0.266994,-0.087286 z m -3.161577,0.015405 c 0.02767,2.2e-6 0.05367,0.00404 0.07958,0.01027 0.02591,0.0062 0.04974,0.016249 0.06932,0.032095 0.01958,0.015845 0.0354,0.038506 0.04749,0.066749 0.0121,0.028243 0.01797,0.063778 0.01797,0.1078248 l 0,1.2399845 c -0.04722,0.01791 -0.0902,0.02696 -0.12708,0.02696 -0.05298,0 -0.09385,-0.008 -0.123228,-0.02311 -0.02937,-0.01515 -0.05107,-0.03425 -0.06547,-0.05905 -0.01439,-0.0248 -0.02279,-0.053638 -0.02567,-0.086003 -0.0029,-0.032362 -0.0038,-0.066879 -0.0038,-0.1026904 l 0,-1.1976251 c 0.01382,-0.00137 0.02738,-0.00368 0.04236,-0.00642 0.01266,-0.00274 0.0268,-0.00505 0.04236,-0.00642 0.01556,-0.00137 0.03124,-0.0026 0.04621,-0.0026 z m 0.482644,0 c 0.02767,2.2e-6 0.05367,0.00404 0.07958,0.01027 0.02591,0.0062 0.04974,0.016249 0.06932,0.032095 0.01958,0.015845 0.0354,0.038506 0.04749,0.066749 0.0121,0.028243 0.01797,0.063778 0.01797,0.1078248 l 0,0.6662033 c 0.0058,-0.030263 0.01428,-0.060244 0.02696,-0.089854 0.01267,-0.029614 0.02919,-0.059609 0.04878,-0.08857 l 0.0937,-0.1424833 c 0.02187,-0.033032 0.04537,-0.061896 0.07188,-0.086003 0.0265,-0.024103 0.06305,-0.035939 0.109109,-0.035939 0.02651,8e-7 0.05295,0.00519 0.0783,0.014122 0.02534,0.00895 0.04717,0.018514 0.06675,0.02952 0.02187,0.012398 0.04332,0.025907 0.0629,0.041074 l -0.237471,0.3966406 0.279831,0.5108842 c -0.07605,0.03716 -0.14588,0.05519 -0.209232,0.05519 -0.05414,0 -0.09597,-0.01124 -0.127079,-0.03465 -0.03111,-0.02341 -0.05913,-0.05398 -0.08215,-0.09114 L 10.912752,8.8624835 c -0.01958,-0.031647 -0.03468,-0.061016 -0.04621,-0.088571 -0.01153,-0.027551 -0.01991,-0.059285 -0.02568,-0.093705 l 0,0.4698083 -0.346579,0 0,-1.4505001 c 0.01382,-0.00137 0.02867,-0.00368 0.04364,-0.00642 0.01266,-0.00274 0.0268,-0.00505 0.04236,-0.00642 0.01556,-0.00137 0.03124,-0.0026 0.04621,-0.0026 z M 9.5520994,8.1243875 c 0.09447,7e-7 0.177461,0.01692 0.247741,0.051344 0.03108,0.015175 0.05685,0.033847 0.07702,0.055195 0.02017,0.021356 0.02953,0.046815 0.02953,0.075734 0,0.02476 -0.006,0.054128 -0.01926,0.088571 -0.01323,0.034446 -0.03048,0.067146 -0.05006,0.098839 -0.0346,-0.031691 -0.07111,-0.057049 -0.109108,-0.077018 -0.038,-0.019964 -0.07636,-0.02952 -0.115527,-0.02952 -0.04953,7e-7 -0.07445,0.01692 -0.07445,0.051344 -1e-6,0.022026 0.0098,0.038355 0.02824,0.05006 0.01842,0.011706 0.04167,0.022546 0.06932,0.030804 0.02765,0.00826 0.0576,0.016617 0.08985,0.026959 0.03225,0.010342 0.06221,0.026837 0.08985,0.047493 0.02765,0.020656 0.05087,0.048914 0.06932,0.08472 0.01844,0.035809 0.02695,0.082083 0.02695,0.1399158 0,0.1102041 -0.03246,0.1977235 -0.09755,0.2631433 -0.06509,0.06542 -0.159262,0.09884 -0.283682,0.09884 -0.07144,0 -0.127127,-0.0074 -0.166872,-0.02054 -0.03975,-0.01309 -0.07196,-0.02601 -0.09499,-0.03979 -0.02995,-0.01791 -0.0501,-0.0377 -0.06161,-0.05905 -0.01151,-0.021348 -0.01797,-0.043338 -0.01797,-0.066749 0,-0.035809 0.0074,-0.070832 0.02182,-0.105258 0.0144,-0.034424 0.03164,-0.068372 0.05006,-0.1014065 0.01382,0.015131 0.02964,0.029267 0.04749,0.042358 0.01786,0.01309 0.03702,0.024926 0.05776,0.035939 0.02074,0.011013 0.0423,0.019473 0.06418,0.025676 0.02188,0.0062 0.04216,0.00899 0.0629,0.00899 0.02995,0 0.05151,-0.00498 0.06418,-0.016689 0.01267,-0.011706 0.01926,-0.027024 0.01926,-0.044925 0,-0.020678 -0.0092,-0.037662 -0.02824,-0.05006 -0.01902,-0.012398 -0.04295,-0.022466 -0.0706,-0.032094 -0.02765,-0.00962 -0.05774,-0.020973 -0.09114,-0.033371 -0.0334,-0.012398 -0.06349,-0.028712 -0.09114,-0.05006 -0.02765,-0.021348 -0.0516,-0.049599 -0.0706,-0.08472 -0.019,-0.035116 -0.02824,-0.080859 -0.02824,-0.1373481 0,-0.055058 0.0099,-0.1037333 0.02952,-0.1450502 0.01958,-0.041312 0.04548,-0.075832 0.0783,-0.1026903 0.03282,-0.026858 0.07033,-0.045957 0.11296,-0.059047 0.04262,-0.01309 0.08753,-0.020541 0.13478,-0.020541 z m 2.3657276,0 c 0.13479,7e-7 0.231914,0.031626 0.290099,0.094988 0.05818,0.06336 0.08729,0.1639196 0.08729,0.3016529 l 0,0.4030587 c 0,0.034424 0.0018,0.072316 0.0064,0.1129592 0.0046,0.040641 0.0112,0.076237 0.01926,0.1065415 -0.01614,0.0055 -0.03098,0.0094 -0.04364,0.01284 -0.01266,0.0035 -0.02511,0.0069 -0.03722,0.009 -0.01211,0.0021 -0.02399,0.0032 -0.03722,0.0038 -0.01323,6.9e-4 -0.02879,0.0013 -0.04493,0.0013 -0.09331,0 -0.146762,-0.0316 -0.161738,-0.09499 -0.01958,0.02341 -0.04798,0.04361 -0.086,0.0629 -0.03802,0.01929 -0.08618,0.02952 -0.143766,0.02952 -0.03572,0 -0.06985,-0.0057 -0.102691,-0.01669 -0.03284,-0.01101 -0.06194,-0.02853 -0.08729,-0.05263 -0.02535,-0.0241 -0.04536,-0.05573 -0.06033,-0.094989 -0.01498,-0.039256 -0.02311,-0.087276 -0.02311,-0.1437664 0,-0.079857 0.01749,-0.1437447 0.05263,-0.1912606 0.03514,-0.047514 0.07825,-0.083026 0.128362,-0.1078248 0.05012,-0.024796 0.101758,-0.040619 0.155319,-0.047493 0.05356,-0.00685 0.09931,-0.01027 0.137349,-0.01027 l 0,-0.029527 c 0,-0.019293 -0.0032,-0.034503 -0.009,-0.046209 -0.0058,-0.011705 -0.01331,-0.020757 -0.02311,-0.02696 -0.0098,-0.0062 -0.02141,-0.010775 -0.03466,-0.012838 -0.01326,-0.00209 -0.02738,-0.0026 -0.04236,-0.0026 -0.04029,7e-7 -0.0802,0.0062 -0.119378,0.019257 -0.03918,0.013076 -0.08255,0.034042 -0.130931,0.061614 -0.0219,-0.031691 -0.03784,-0.063403 -0.04878,-0.093705 -0.01093,-0.030299 -0.01669,-0.052895 -0.01669,-0.068026 0,-0.020677 0.0052,-0.040468 0.01669,-0.059047 0.01151,-0.018579 0.03488,-0.037085 0.0706,-0.057763 0.03111,-0.019293 0.0741,-0.035196 0.127079,-0.046209 0.05298,-0.011013 0.106435,-0.016689 0.161737,-0.016689 z m 0.645665,0.020541 c 0.02767,1.4e-6 0.05496,0.00411 0.08087,0.01027 0.02591,0.0062 0.04845,0.016264 0.06803,0.032087 0.01958,0.015824 0.0354,0.038506 0.04749,0.06675 0.0121,0.028243 0.01797,0.063778 0.01797,0.1078248 l 0,0.7316683 c 0,0.03031 -0.0015,0.0682 -0.0038,0.112959 -0.0023,0.04476 -0.0074,0.08485 -0.0154,0.120661 -0.01269,0.0551 -0.03256,0.101456 -0.05905,0.138632 -0.02649,0.03717 -0.05574,0.06712 -0.08857,0.08985 -0.03284,0.02274 -0.06544,0.03916 -0.09884,0.04878 -0.0334,0.0096 -0.0631,0.01412 -0.08729,0.01412 -0.04953,0 -0.08478,-0.01194 -0.107825,-0.03465 -0.02304,-0.02272 -0.03944,-0.05603 -0.04749,-0.100122 -0.0035,-0.01791 -0.006,-0.03652 -0.0077,-0.05648 -0.0017,-0.01996 -0.0041,-0.04773 -0.0064,-0.08215 0.03688,-0.0041 0.06681,-0.01199 0.08985,-0.02439 0.02304,-0.0124 0.04124,-0.0282 0.05391,-0.04749 0.01267,-0.01929 0.02107,-0.04128 0.02568,-0.06675 0.0046,-0.02547 0.0077,-0.05313 0.0077,-0.08344 l 0,-0.9627205 c 0.01382,-0.00137 0.02739,-0.00368 0.04236,-0.00642 0.01266,-0.00274 0.0268,-0.00505 0.04236,-0.00642 0.01556,-0.00137 0.03124,-0.0026 0.04621,-0.0026 z M 11.971739,8.68662 c -0.02187,0.00274 -0.04201,0.00733 -0.06161,0.012838 -0.0196,0.00548 -0.03695,0.012787 -0.05134,0.023108 -0.0144,0.010321 -0.02603,0.024536 -0.03466,0.041074 -0.0086,0.016538 -0.01284,0.036754 -0.01284,0.062898 0,0.031691 0.0074,0.057237 0.02182,0.07445 0.0144,0.017208 0.0337,0.025676 0.05905,0.025676 0.02074,0 0.03908,-0.0057 0.05519,-0.016689 0.01612,-0.011013 0.02439,-0.027998 0.02439,-0.05006 l 0,-0.1732897 z M 9.2465964,9.7148083 c 0.04722,2e-6 0.08782,0.01877 0.120661,0.05391 0.03284,0.03514 0.04878,0.08198 0.04878,0.141199 0,0.05922 -0.01594,0.1054937 -0.04878,0.1399147 -0.03284,0.03442 -0.07345,0.05134 -0.120661,0.05134 -0.04725,10e-7 -0.08784,-0.01692 -0.120662,-0.05134 -0.03282,-0.03442 -0.04878,-0.08069 -0.04878,-0.1399147 0,-0.05922 0.01596,-0.10606 0.04878,-0.141199 0.03282,-0.03514 0.07341,-0.05391 0.120662,-0.05391 z m 3.7738666,0 c 0.04721,2e-6 0.08654,0.01877 0.119378,0.05391 0.03284,0.03514 0.04878,0.08198 0.04878,0.141199 0,0.05922 -0.01594,0.1054937 -0.04878,0.1399147 -0.03284,0.03442 -0.07216,0.05134 -0.119378,0.05134 -0.04725,10e-7 -0.08784,-0.01692 -0.120661,-0.05134 -0.02635,-0.02764 -0.04102,-0.06292 -0.04621,-0.1065407 -0.0032,0.01657 -0.0091,0.03524 -0.01797,0.05776 -0.01383,0.03512 -0.03076,0.07191 -0.05263,0.109108 -0.01842,-0.0124 -0.04307,-0.02544 -0.07188,-0.03851 -0.02881,-0.01307 -0.06043,-0.01926 -0.09499,-0.01926 -0.02995,2e-6 -0.05501,0.0097 -0.07573,0.02824 -0.02073,0.01858 -0.03081,0.04732 -0.03081,0.08729 l 0,0.05006 0.255442,0 0,0.306787 -0.255442,0 0,0.690593 -0.344013,0 0,-0.98711 c 0,-0.0179 7.15e-4,-0.04278 0.0013,-0.07445 5.63e-4,-0.03167 0.0015,-0.05773 0.0038,-0.07702 0.01498,-0.1115477 0.05416,-0.1968917 0.118093,-0.2554417 0.06393,-0.05855 0.152945,-0.08728 0.266995,-0.08729 0.02307,2e-6 0.04725,0.0017 0.07317,0.0051 0.02591,0.0035 0.05155,0.0085 0.07573,0.0154 0.04148,0.0124 0.07659,0.03168 0.106541,0.05648 0.02175,0.018 0.03512,0.04099 0.04107,0.0706 0.0045,-0.04601 0.02014,-0.08367 0.04749,-0.112959 0.03282,-0.03514 0.07341,-0.05391 0.120661,-0.05391 z m -0.168155,0.166873 c -9.37e-4,0.0092 -0.0013,0.01838 -0.0013,0.02824 0,0.01168 0.0013,0.02266 0.0026,0.03337 0.0018,-0.0093 0.0026,-0.01828 0.0026,-0.02567 -1e-6,-0.01283 -0.0016,-0.02477 -0.0038,-0.03594 z m 1.658448,-0.147618 c 0.02307,10e-7 0.04725,0.0017 0.07317,0.0051 0.02591,0.0035 0.05026,0.0085 0.07445,0.01541 0.04148,0.0124 0.07787,0.03168 0.107825,0.05648 0.02995,0.0248 0.04492,0.05972 0.04492,0.106542 -10e-7,0.02063 -0.0067,0.04832 -0.02054,0.08344 -0.01383,0.03512 -0.03204,0.07191 -0.05391,0.109107 -0.01842,-0.0124 -0.04179,-0.02544 -0.0706,-0.03851 -0.02881,-0.01307 -0.06043,-0.01926 -0.09499,-0.01926 -0.02995,2e-6 -0.05501,0.0097 -0.07573,0.02824 -0.02073,0.01858 -0.03209,0.04732 -0.03209,0.08729 l 0,0.05006 0.256726,0 0,0.306787 -0.256726,0 0,0.690593 -0.344013,0 0,-0.98711 c 0,-0.0179 7.15e-4,-0.04278 0.0013,-0.07445 5.63e-4,-0.03167 0.0015,-0.05773 0.0038,-0.07702 0.01498,-0.1115467 0.05545,-0.1968917 0.119377,-0.2554407 0.06393,-0.05855 0.152945,-0.08729 0.266995,-0.08729 z m -6.5580573,0.01669 c 0.02763,2e-6 0.054943,0.0028 0.080869,0.009 0.025928,0.0062 0.048452,0.01753 0.068033,0.03337 0.019581,0.01585 0.035398,0.03722 0.047493,0.06546 0.012095,0.02824 0.017973,0.06506 0.017973,0.109109 l 0,1.2476867 -0.2592924,0 c -0.017295,0 -0.032398,-0.0045 -0.046209,-0.01412 -0.013819,-0.0096 -0.02054,-0.03125 -0.02054,-0.0629 -0.016141,0.02475 -0.041882,0.04805 -0.077018,0.06803 -0.035138,0.01999 -0.079233,0.02952 -0.1322137,0.02952 -0.039163,0 -0.078788,-0.008 -0.1168106,-0.02311 -0.038023,-0.01515 -0.072175,-0.04172 -0.1026903,-0.07958 -0.030515,-0.03787 -0.055433,-0.08862 -0.07445,-0.154036 -0.019019,-0.06542 -0.028243,-0.148548 -0.028243,-0.24774 0,-0.09915 0.00909,-0.182724 0.02696,-0.251591 0.017857,-0.06887 0.041932,-0.12419 0.071885,-0.166872 0.029953,-0.04268 0.064809,-0.07441 0.1039741,-0.0937 0.039163,-0.01929 0.079299,-0.02824 0.1219443,-0.02824 0.02763,1e-6 0.052563,0.0034 0.074451,0.01027 0.021882,0.0069 0.040922,0.01415 0.056479,0.02311 0.015557,0.009 0.028719,0.018 0.038506,0.02696 0.00979,0.009 0.015809,0.01514 0.019257,0.01926 l 0,-0.5057497 c 0.013848,-0.0014 0.028698,-0.0037 0.043641,-0.0064 0.012693,-0.0027 0.026101,-0.005 0.041074,-0.0064 0.014973,-0.0014 0.029953,-0.0013 0.044925,-0.0013 z m 0.6713376,0.4402847 c 0.094466,10e-7 0.1774606,0.01693 0.2477401,0.05134 0.03108,0.01518 0.05686,0.03385 0.07702,0.05519 0.02016,0.02136 0.02952,0.04554 0.02952,0.07445 -1e-6,0.02475 -0.006,0.05413 -0.01926,0.08857 -0.01323,0.03445 -0.03048,0.06843 -0.05006,0.100123 -0.0346,-0.03169 -0.071106,-0.05833 -0.1091088,-0.0783 -0.038009,-0.01996 -0.076362,-0.02952 -0.1155267,-0.02952 -0.049534,1e-6 -0.074451,0.01692 -0.07445,0.05134 -7e-7,0.02203 0.00982,0.03964 0.028236,0.05134 0.01842,0.01171 0.041665,0.02126 0.069317,0.02952 0.027652,0.0083 0.057597,0.0179 0.089854,0.02824 0.032253,0.01034 0.062205,0.02555 0.089854,0.04621 0.02765,0.02066 0.05088,0.04891 0.06932,0.08472 0.01844,0.03581 0.02695,0.08208 0.02695,0.139915 0,0.110204 -0.03246,0.199007 -0.09756,0.264427 -0.065091,0.06542 -0.1592621,0.09756 -0.2836816,0.09756 -0.071438,0 -0.1271269,-0.0061 -0.1668716,-0.01926 -0.039747,-0.01309 -0.071964,-0.02729 -0.094989,-0.04107 -0.029953,-0.0179 -0.050104,-0.03641 -0.061614,-0.05776 -0.011511,-0.02136 -0.017973,-0.04462 -0.017973,-0.06803 0,-0.03581 0.00742,-0.07083 0.021824,-0.105258 0.014396,-0.03442 0.03164,-0.06837 0.05006,-0.101406 0.013819,0.01513 0.029635,0.02927 0.047493,0.04236 0.017857,0.01309 0.03702,0.02493 0.057763,0.03594 0.020742,0.01101 0.0423,0.02076 0.064182,0.02696 0.021889,0.0062 0.042156,0.009 0.062898,0.009 0.029952,0 0.05151,-0.0063 0.064182,-0.01797 0.012672,-0.0117 0.019257,-0.02574 0.019257,-0.04364 0,-0.02068 -0.00922,-0.03766 -0.028243,-0.05006 -0.019019,-0.0124 -0.042949,-0.02375 -0.070601,-0.03337 -0.027652,-0.0096 -0.057741,-0.02097 -0.091138,-0.03338 -0.0334,-0.0124 -0.063489,-0.02871 -0.091138,-0.05006 -0.027652,-0.02135 -0.051597,-0.0496 -0.070601,-0.08472 -0.019004,-0.03512 -0.028243,-0.08086 -0.028243,-0.137348 0,-0.05506 0.00994,-0.103734 0.029527,-0.145051 0.019581,-0.04131 0.045481,-0.07455 0.078301,-0.101406 0.032823,-0.02686 0.070334,-0.04724 0.11296,-0.06033 0.042624,-0.01309 0.087529,-0.01926 0.1347806,-0.01926 z m 1.3413911,0 c 0.07028,10e-7 0.1301716,0.01243 0.1797076,0.03722 0.04953,0.0248 0.09013,0.05753 0.120662,0.09884 0.03054,0.04132 0.05293,0.08997 0.06675,0.145051 0.01382,0.05508 0.02054,0.112682 0.02054,0.173289 l 0,0.02696 c -1e-6,0.01171 -6.95e-4,0.02482 -0.0013,0.03722 -5.79e-4,0.0124 -7.21e-4,0.02365 -0.0013,0.03466 -5.62e-4,0.01101 -0.0014,0.01888 -0.0026,0.02439 l -0.4621066,0 c 0.0058,0.05232 0.02229,0.09699 0.04878,0.133497 0.02649,0.0365 0.06961,0.0552 0.1283626,0.0552 0.04609,0 0.08443,-0.0092 0.115526,-0.02568 0.0311,-0.01652 0.06259,-0.03789 0.0937,-0.06547 0.01497,0.02757 0.02995,0.05918 0.04493,0.09499 0.01497,0.03581 0.02182,0.06746 0.02182,0.09499 -10e-7,0.02341 -0.005,0.04609 -0.0154,0.06675 -0.01037,0.02066 -0.02873,0.03975 -0.0552,0.05905 -0.02535,0.0179 -0.05948,0.03381 -0.10269,0.04621 -0.04321,0.0124 -0.09722,0.01797 -0.161737,0.01797 -0.04722,0 -0.09731,-0.0068 -0.1514676,-0.02054 -0.05416,-0.01378 -0.105396,-0.04094 -0.151468,-0.08087 -0.04607,-0.03993 -0.08371,-0.09584 -0.114243,-0.168155 -0.03054,-0.07231 -0.04621,-0.166627 -0.04621,-0.283682 0,-0.08679 0.01246,-0.162578 0.03722,-0.225919 0.02477,-0.06334 0.05781,-0.115286 0.09755,-0.156602 0.03975,-0.04131 0.08479,-0.07185 0.136066,-0.09114 0.05128,-0.01929 0.102212,-0.02824 0.154035,-0.02824 z m 0.9126596,0 c 0.07949,10e-7 0.146228,0.01352 0.20153,0.04107 0.0553,0.02755 0.100221,0.06485 0.134781,0.111675 0.03456,0.04682 0.06018,0.101639 0.07573,0.164305 0.01556,0.06267 0.02311,0.12873 0.02311,0.198962 -10e-7,0.07023 -0.0083,0.138678 -0.02439,0.204097 -0.01614,0.06542 -0.0419,0.122432 -0.07702,0.172006 -0.03512,0.04958 -0.08018,0.08846 -0.136065,0.118094 -0.05588,0.02963 -0.12473,0.04493 -0.20538,0.04493 -0.07949,0 -0.146246,-0.01471 -0.20153,-0.04364 -0.05528,-0.02894 -0.100925,-0.06793 -0.136064,-0.11681 -0.03514,-0.04889 -0.06088,-0.105385 -0.07702,-0.169439 -0.01614,-0.06405 -0.02439,-0.131193 -0.02439,-0.202813 0,-0.07162 0.0098,-0.140063 0.02824,-0.204097 0.01844,-0.06403 0.04599,-0.118766 0.08343,-0.165589 0.03744,-0.04682 0.08463,-0.08412 0.139916,-0.111675 0.05528,-0.02755 0.120226,-0.04107 0.195111,-0.04107 z m 1.066696,0 c 0.01729,10e-7 0.03465,10e-4 0.05134,0.0051 0.0167,0.0041 0.03111,0.01158 0.04492,0.02054 0.01382,0.009 0.02601,0.02079 0.03466,0.03594 0.0086,0.01515 0.01284,0.03317 0.01284,0.05519 0,0.02203 -0.0031,0.047 -0.0077,0.07317 -0.0046,0.02617 -0.01048,0.05204 -0.01797,0.07958 -0.0075,0.02755 -0.01516,0.05471 -0.02439,0.08087 -0.0092,0.02617 -0.01903,0.04992 -0.02824,0.0706 -0.02419,-0.02341 -0.04685,-0.04092 -0.06932,-0.05263 -0.02247,-0.01171 -0.04798,-0.01797 -0.07445,-0.01797 -0.02995,1e-6 -0.05189,0.0091 -0.06803,0.02696 -0.01614,0.01791 -0.02439,0.04168 -0.02439,0.0706 l 0,0.576349 -0.347863,0 0,-0.98711 c 0.01037,-0.0027 0.02213,-0.0063 0.03594,-0.009 0.01266,-0.0027 0.02751,-0.005 0.04364,-0.0064 0.01613,-0.0014 0.03445,-0.0013 0.0552,-0.0013 0.103678,10e-7 0.168479,0.03385 0.193828,0.10269 0.0057,-0.0124 0.01484,-0.02534 0.02696,-0.03979 0.01211,-0.01446 0.02624,-0.02868 0.04236,-0.04107 0.01612,-0.0124 0.03445,-0.02255 0.0552,-0.03081 0.02074,-0.0083 0.04244,-0.01155 0.06547,-0.01155 z m 1.714927,0 c 0.09447,10e-7 0.177461,0.01693 0.247741,0.05134 0.03108,0.01518 0.05557,0.03385 0.07573,0.05519 0.02016,0.02136 0.0308,0.04554 0.0308,0.07445 -10e-7,0.02475 -0.006,0.05413 -0.01926,0.08857 -0.01323,0.03445 -0.03048,0.06843 -0.05006,0.100123 -0.0346,-0.03169 -0.07111,-0.05833 -0.109108,-0.0783 -0.03801,-0.01996 -0.07636,-0.02952 -0.115527,-0.02952 -0.04953,1e-6 -0.07445,0.01692 -0.07445,0.05134 0,0.02203 0.0098,0.03964 0.02824,0.05134 0.01842,0.01171 0.04167,0.02126 0.06932,0.02952 0.02765,0.0083 0.0576,0.0179 0.08985,0.02824 0.03225,0.01034 0.06221,0.02555 0.08985,0.04621 0.02765,0.02066 0.05087,0.04891 0.06932,0.08472 0.01844,0.03581 0.02695,0.08208 0.02695,0.139915 -1e-6,0.110204 -0.03246,0.199007 -0.09756,0.264427 -0.06509,0.06542 -0.159262,0.09756 -0.283681,0.09756 -0.07144,0 -0.127127,-0.0061 -0.166872,-0.01926 -0.03975,-0.01309 -0.07196,-0.02729 -0.09499,-0.04107 -0.02995,-0.0179 -0.0501,-0.03641 -0.06161,-0.05776 -0.01151,-0.02136 -0.01797,-0.04462 -0.01797,-0.06803 0,-0.03581 0.0074,-0.07083 0.02182,-0.105258 0.0144,-0.03442 0.03164,-0.06837 0.05006,-0.101406 0.01382,0.01513 0.02964,0.02927 0.04749,0.04236 0.01786,0.01309 0.03702,0.02493 0.05776,0.03594 0.02074,0.01101 0.04101,0.02076 0.0629,0.02696 0.02188,0.0062 0.04344,0.009 0.06418,0.009 0.02995,0 0.0515,-0.0063 0.06418,-0.01797 0.01267,-0.0117 0.01926,-0.02574 0.01926,-0.04364 -10e-7,-0.02068 -0.0092,-0.03766 -0.02824,-0.05006 -0.01902,-0.0124 -0.04295,-0.02375 -0.0706,-0.03337 -0.02765,-0.0096 -0.05774,-0.02097 -0.09114,-0.03338 -0.0334,-0.0124 -0.06477,-0.02871 -0.09242,-0.05006 -0.02765,-0.02135 -0.05031,-0.0496 -0.06932,-0.08472 -0.019,-0.03512 -0.02824,-0.08086 -0.02824,-0.137348 0,-0.05506 0.0099,-0.103734 0.02953,-0.145051 0.01958,-0.04131 0.04548,-0.07455 0.0783,-0.101406 0.03282,-0.02686 0.07033,-0.04724 0.11296,-0.06033 0.04262,-0.01309 0.08753,-0.01926 0.134781,-0.01926 z m -4.4439216,0.02054 c 0.02767,2e-6 0.05367,0.0028 0.07959,0.009 0.02591,0.0062 0.04974,0.01755 0.06932,0.03337 0.01958,0.01582 0.0354,0.03722 0.04749,0.06547 0.0121,0.02824 0.01797,0.06506 0.01797,0.109108 l 0,0.730385 c 0,0.03031 -0.0015,0.0682 -0.0038,0.11296 -0.0023,0.04476 -0.0073,0.08485 -0.01541,0.12066 -0.01269,0.0551 -0.03256,0.101456 -0.05905,0.138632 -0.02649,0.03718 -0.05574,0.06712 -0.08857,0.08985 -0.03284,0.02274 -0.06672,0.03915 -0.100123,0.04878 -0.0334,0.0096 -0.06182,0.01412 -0.086,0.01412 -0.04953,-1e-6 -0.08606,-0.01066 -0.109108,-0.03338 -0.02304,-0.02272 -0.03816,-0.05603 -0.04621,-0.100123 -0.0035,-0.01791 -0.006,-0.0378 -0.0077,-0.05776 -0.0017,-0.01996 -0.0041,-0.04645 -0.0064,-0.08087 0.03688,-0.0041 0.06681,-0.01199 0.08985,-0.02439 0.02304,-0.0124 0.04124,-0.02948 0.05391,-0.04878 0.01267,-0.01929 0.02107,-0.04128 0.02567,-0.06675 0.0046,-0.02547 0.0064,-0.05313 0.0064,-0.08344 l 0,-0.962721 c 0.01382,-0.0014 0.02867,-0.0037 0.04364,-0.0064 0.01266,-0.0027 0.0268,-0.005 0.04236,-0.0064 0.01556,-0.0014 0.03124,-0.0013 0.04621,-0.0013 z m 3.7725836,0 c 0.02767,2e-6 0.05496,0.0028 0.08087,0.009 0.02591,0.0062 0.04845,0.01755 0.06803,0.03337 0.01958,0.01582 0.0354,0.03722 0.04749,0.06547 0.0121,0.02824 0.01797,0.06506 0.01797,0.109108 l 0,0.730385 c 0,0.03031 -2.46e-4,0.0682 -0.0026,0.11296 -0.0023,0.04476 -0.0086,0.08485 -0.01669,0.12066 -0.01269,0.0551 -0.03127,0.101456 -0.05776,0.138632 -0.02649,0.03718 -0.05702,0.06712 -0.08985,0.08985 -0.03284,0.02274 -0.06544,0.03915 -0.09884,0.04878 -0.0334,0.0096 -0.06182,0.01412 -0.086,0.01412 -0.04953,-1e-6 -0.08606,-0.01066 -0.109109,-0.03338 -0.02304,-0.02272 -0.03944,-0.05603 -0.04749,-0.100123 -0.0035,-0.01791 -0.006,-0.0378 -0.0077,-0.05776 -0.0017,-0.01996 -0.0028,-0.04645 -0.0051,-0.08087 0.03688,-0.0041 0.06681,-0.01199 0.08985,-0.02439 0.02304,-0.0124 0.03996,-0.02948 0.05263,-0.04878 0.01267,-0.01929 0.02235,-0.04128 0.02696,-0.06675 0.0046,-0.02547 0.0064,-0.05313 0.0064,-0.08344 l 0,-0.962721 c 0.01382,-0.0014 0.02867,-0.0037 0.04364,-0.0064 0.01266,-0.0027 0.0268,-0.005 0.04236,-0.0064 0.01556,-0.0014 0.02995,-0.0013 0.04493,-0.0013 z M 9.9628614,10.44905 c -0.05418,1e-6 -0.08215,0.04975 -0.08215,0.148901 l 0.1668716,0 c -10e-7,-0.05644 -0.0073,-0.09546 -0.02054,-0.11681 -0.01323,-0.02135 -0.03423,-0.03209 -0.06418,-0.03209 z m -2.1988557,0.04492 c -0.039163,2e-6 -0.065192,0.02159 -0.079585,0.0629 -0.014396,0.04132 -0.021824,0.09654 -0.021824,0.168156 l 0,0.0013 c -7e-7,0.03304 0.00166,0.06289 0.00512,0.09114 0.00346,0.02824 0.00933,0.0531 0.017973,0.07445 0.00865,0.02135 0.01956,0.03895 0.033371,0.05134 0.013819,0.0124 0.031885,0.01797 0.052628,0.01797 0.013819,0 0.024024,-4.89e-4 0.032095,-0.0026 0.00807,-0.0021 0.014489,-0.0038 0.017973,-0.0051 l 0,-0.44542 c -0.00692,-0.0055 -0.016004,-0.0082 -0.026959,-0.01027 -0.010955,-0.0021 -0.021593,-0.0038 -0.030804,-0.0038 z m 3.1102313,0.0026 c -0.01958,0 -0.03611,0.0056 -0.04878,0.01797 -0.01267,0.0124 -0.02274,0.0294 -0.03081,0.05006 -0.0081,0.02066 -0.0138,0.04443 -0.01669,0.0706 -0.0029,0.02617 -0.0038,0.05206 -0.0038,0.07958 0,0.03031 9.37e-4,0.05974 0.0038,0.08729 0.0029,0.02755 0.0086,0.05181 0.01669,0.07317 0.0081,0.02136 0.01872,0.03897 0.03081,0.05134 0.01209,0.01238 0.02791,0.01797 0.04749,0.01797 0.01958,1e-6 0.03482,-0.0062 0.04749,-0.01926 0.01267,-0.01307 0.02262,-0.03 0.02953,-0.05134 0.0069,-0.02135 0.01252,-0.0469 0.01541,-0.07445 0.0029,-0.02755 0.0038,-0.0557 0.0038,-0.086 -1e-6,-0.06056 -0.0067,-0.112026 -0.02054,-0.154036 -0.01382,-0.04201 -0.03873,-0.0629 -0.07445,-0.0629 z m -2.8714766,1.284912 c 0.047211,10e-7 0.087824,0.01749 0.1206612,0.05263 0.032837,0.03514 0.048776,0.08198 0.048776,0.141199 0,0.05922 -0.015939,0.106777 -0.048776,0.141199 -0.032837,0.03442 -0.073446,0.05134 -0.1206612,0.05134 -0.047255,2e-6 -0.086559,-0.01692 -0.1193773,-0.05134 -0.032823,-0.03442 -0.05006,-0.08198 -0.05006,-0.141199 0,-0.05922 0.017245,-0.106061 0.05006,-0.141199 0.032816,-0.03514 0.072126,-0.05263 0.1193773,-0.05263 z M 6.50605,11.799452 c 0.023065,10e-7 0.047255,0.0017 0.073166,0.0051 0.025914,0.0035 0.051546,0.0085 0.075734,0.0154 0.041485,0.0124 0.076586,0.03168 0.106541,0.05648 0.029953,0.0248 0.044925,0.061 0.044925,0.107825 0,0.02063 -0.00671,0.04832 -0.020541,0.08344 -0.013833,0.03512 -0.03076,0.07063 -0.052628,0.107825 -0.01842,-0.0124 -0.043072,-0.02415 -0.071885,-0.03722 -0.028813,-0.01307 -0.060432,-0.02054 -0.094989,-0.02054 -0.029953,10e-7 -0.055008,0.0097 -0.075734,0.02824 -0.020728,0.01858 -0.030804,0.04732 -0.030804,0.08729 l 0,0.05006 0.2554425,0 0,0.30807 -0.2554425,0 0,0.689308 -0.344012,0 0,-0.98711 c 0,-0.0179 7.148e-4,-0.04278 0.0013,-0.07445 5.626e-4,-0.03167 0.00151,-0.05644 0.00382,-0.07573 0.01498,-0.111548 0.054164,-0.196893 0.1180936,-0.255442 0.063929,-0.05855 0.1529454,-0.08857 0.2669951,-0.08857 z m 3.65834,0 c 0.02306,10e-7 0.04854,0.0017 0.07445,0.0051 0.02591,0.0035 0.05026,0.0085 0.07445,0.0154 0.04148,0.0124 0.07787,0.03168 0.107825,0.05648 0.02995,0.0248 0.04492,0.061 0.04492,0.107825 -10e-7,0.02063 -0.008,0.04832 -0.02182,0.08344 -0.01383,0.03512 -0.03076,0.07063 -0.05263,0.107825 -0.01842,-0.0124 -0.04179,-0.02415 -0.0706,-0.03722 -0.02881,-0.01307 -0.06172,-0.02054 -0.09627,-0.02054 -0.02995,10e-7 -0.05501,0.0097 -0.07573,0.02824 -0.02073,0.01858 -0.03081,0.04732 -0.03081,0.08729 l 0,0.05006 0.255442,0 0,0.30807 -0.255442,0 0,0.689308 -0.3440126,0 0,-0.98711 c 0,-0.0179 7.15e-4,-0.04278 0.0013,-0.07445 5.63e-4,-0.03167 0.0015,-0.05644 0.0038,-0.07573 0.01498,-0.111548 0.05416,-0.196893 0.118094,-0.255442 0.06393,-0.05855 0.1529446,-0.08857 0.2669936,-0.08857 z m -3.2257579,0.01669 c 0.027666,2e-6 0.054958,0.0028 0.080869,0.009 0.025914,0.0062 0.048452,0.01753 0.068033,0.03338 0.019581,0.01584 0.035398,0.03851 0.047493,0.06675 0.012095,0.02824 0.017973,0.06378 0.017973,0.107825 l 0,0.66492 c 0.00577,-0.03026 0.015564,-0.06024 0.028243,-0.08985 0.012672,-0.02961 0.027911,-0.05833 0.047493,-0.08729 l 0.093705,-0.142483 c 0.021868,-0.03303 0.046656,-0.0619 0.073167,-0.086 0.026505,-0.0241 0.061766,-0.03594 0.1078248,-0.03594 0.026505,1e-6 0.052952,0.0052 0.078301,0.01412 0.025344,0.009 0.048452,0.01851 0.068033,0.02953 0.021868,0.0124 0.042033,0.02591 0.061614,0.04107 L 7.4751937,12.737816 7.7550245,13.2487 c -0.076046,0.03716 -0.1458796,0.0552 -0.2092314,0.0552 -0.054142,0 -0.097249,-0.01125 -0.1283631,-0.03466 C 7.386316,13.24583 7.359588,13.21526 7.336562,13.1781 L 7.2261699,12.994523 c -0.019581,-0.03165 -0.03596,-0.0623 -0.047493,-0.08985 -0.011532,-0.02755 -0.019906,-0.05799 -0.025676,-0.09242 l 0,0.468524 -0.3452965,0 0,-1.449216 c 0.013819,-0.0014 0.028669,-0.0037 0.043641,-0.0064 0.012658,-0.0027 0.026801,-0.005 0.042358,-0.0064 0.015557,-0.0014 0.029952,-0.0026 0.044925,-0.0026 z m 1.5159651,0 c 0.027666,2e-6 0.053674,0.0028 0.079585,0.009 0.025914,0.0062 0.049736,0.01753 0.069317,0.03338 0.019581,0.01584 0.035398,0.03851 0.047493,0.06675 0.012095,0.02824 0.017973,0.06378 0.017973,0.107825 l 0,1.239985 c -0.047219,0.01791 -0.0902,0.02696 -0.1270793,0.02696 -0.052981,0 -0.093855,-0.008 -0.1232288,-0.02311 -0.029376,-0.01515 -0.05107,-0.03553 -0.065466,-0.06033 -0.014396,-0.0248 -0.022791,-0.05235 -0.025668,-0.08472 -0.00288,-0.03236 -0.00382,-0.06688 -0.00382,-0.10269 l 0,-1.197625 c 0.013819,-0.0014 0.027385,-0.0037 0.042358,-0.0064 0.012657,-0.0027 0.026801,-0.005 0.042358,-0.0064 0.015557,-0.0014 0.031236,-0.0026 0.046209,-0.0026 z m 0.9678562,0 c 0.02763,2e-6 0.05494,0.0028 0.08087,0.009 0.02593,0.0062 0.04845,0.01753 0.06803,0.03338 0.01958,0.01584 0.0354,0.03851 0.04749,0.06675 0.0121,0.02824 0.01797,0.06378 0.01797,0.107825 l 0,1.247686 -0.259293,0 c -0.0173,0 -0.0324,-0.0045 -0.04621,-0.01412 -0.01382,-0.0096 -0.02054,-0.02997 -0.02054,-0.06162 -0.01614,0.02475 -0.04188,0.04677 -0.07702,0.06675 -0.03514,0.01999 -0.07923,0.02953 -0.132214,0.02953 -0.03916,0 -0.0775,-0.0066 -0.115526,-0.02182 -0.03802,-0.01515 -0.07346,-0.04172 -0.103974,-0.07959 -0.03051,-0.03787 -0.054149,-0.0899 -0.073167,-0.155319 -0.019019,-0.06542 -0.02952,-0.147265 -0.02952,-0.246456 0,-0.09915 0.00909,-0.184007 0.026959,-0.252875 0.017858,-0.06886 0.041932,-0.124189 0.071885,-0.166872 0.02995,-0.04268 0.06481,-0.07313 0.103973,-0.09242 0.03916,-0.01929 0.0793,-0.02952 0.121945,-0.02953 0.02763,10e-7 0.05256,0.0034 0.07445,0.01027 0.02188,0.0069 0.04092,0.01543 0.05648,0.02439 0.01556,0.009 0.02872,0.018 0.03851,0.02695 0.0098,0.009 0.01581,0.01514 0.01926,0.01926 l 0,-0.50575 c 0.01385,-0.0014 0.0287,-0.0037 0.04364,-0.0064 0.01269,-0.0027 0.0261,-0.005 0.04107,-0.0064 0.01498,-0.0014 0.02995,-0.0026 0.04492,-0.0026 z m 4.4991166,0.0783 c 0.08061,3e-6 0.149059,0.01582 0.206665,0.04749 0.0576,0.03167 0.104336,0.07864 0.141198,0.139915 0.03686,0.06128 0.06415,0.135888 0.08087,0.223352 0.01672,0.08747 0.02567,0.186254 0.02568,0.297801 -10e-7,0.227259 -0.03737,0.402423 -0.111675,0.525005 -0.0743,0.122581 -0.191293,0.183558 -0.349147,0.183558 -0.15898,0 -0.274984,-0.05868 -0.350431,-0.17714 -0.07545,-0.118462 -0.114243,-0.295926 -0.114243,-0.531423 0,-0.108815 0.0098,-0.206506 0.02824,-0.29395 0.01842,-0.08744 0.0467,-0.16207 0.08472,-0.223351 0.03802,-0.06128 0.08701,-0.108142 0.146334,-0.1412 0.05933,-0.03305 0.129988,-0.05006 0.211798,-0.05006 z m 1.002514,0 c 0.07488,3e-6 0.141937,0.01473 0.198963,0.04364 0.05703,0.02892 0.104476,0.0708 0.142482,0.124512 0.038,0.05372 0.0657,0.119271 0.08472,0.196395 0.01902,0.07713 0.02952,0.162876 0.02953,0.259293 -2e-6,0.141853 -0.01735,0.264015 -0.05134,0.364551 -0.034,0.100537 -0.07878,0.181833 -0.133498,0.245173 -0.05472,0.06334 -0.117008,0.110284 -0.186126,0.139915 -0.06912,0.02963 -0.13767,0.04364 -0.207948,0.04364 -0.04029,0 -0.07279,-0.0034 -0.09756,-0.01027 -0.02477,-0.0069 -0.04535,-0.01702 -0.06033,-0.03081 -0.01498,-0.01378 -0.02562,-0.0301 -0.03081,-0.05006 -0.0052,-0.01996 -0.0077,-0.04436 -0.0077,-0.07188 0,-0.02068 0.0023,-0.04495 0.0051,-0.07317 0.0029,-0.02822 0.0054,-0.05249 0.0077,-0.07317 0.02303,0.0055 0.04151,0.0089 0.05648,0.01027 0.01498,0.0014 0.03305,0.0026 0.05263,0.0026 0.0265,0 0.05251,-0.004 0.07958,-0.01027 0.02707,-0.0062 0.05283,-0.01566 0.07702,-0.0308 0.02419,-0.01515 0.04729,-0.03614 0.06803,-0.06161 0.02074,-0.02547 0.03752,-0.05769 0.05134,-0.09627 -0.02535,0.01929 -0.05447,0.03351 -0.08729,0.04107 -0.03282,0.0076 -0.06206,0.01027 -0.08857,0.01027 -0.0553,0 -0.103583,-0.01245 -0.14505,-0.03722 -0.04147,-0.02477 -0.07632,-0.05691 -0.103974,-0.09756 -0.02765,-0.04064 -0.04907,-0.08751 -0.0629,-0.1412 -0.01383,-0.0537 -0.02054,-0.110279 -0.02054,-0.168155 0,-0.08952 0.01147,-0.166243 0.03337,-0.232337 0.0219,-0.06609 0.05197,-0.121497 0.09114,-0.165588 0.03916,-0.04409 0.08551,-0.07751 0.137348,-0.09884 0.05184,-0.02133 0.107088,-0.03209 0.168156,-0.03209 z m -1.006365,0.317057 c -0.02074,10e-7 -0.03882,0.0061 -0.05263,0.01926 -0.01382,0.01309 -0.02472,0.03449 -0.03338,0.06547 -0.0086,0.03098 -0.01453,0.07168 -0.01797,0.121944 -0.0035,0.05027 -0.0051,0.111837 -0.0051,0.184843 0,0.144627 0.0083,0.246976 0.02439,0.305504 0.01612,0.05853 0.04439,0.08729 0.08472,0.08729 0.01958,0 0.03552,-0.0061 0.04878,-0.01926 0.01326,-0.01309 0.02474,-0.03577 0.03337,-0.06675 0.0086,-0.03098 0.01521,-0.07167 0.01926,-0.121944 0.004,-0.05027 0.0051,-0.111836 0.0051,-0.184843 0,-0.07301 -0.0011,-0.134573 -0.0051,-0.184843 -0.004,-0.05027 -0.01062,-0.09097 -0.01926,-0.121944 -0.0086,-0.03098 -0.02012,-0.05237 -0.03337,-0.06547 -0.01326,-0.01309 -0.0292,-0.01926 -0.04878,-0.01926 z m 1.008933,0.0013 c -0.02303,10e-7 -0.04221,0.01701 -0.05776,0.05006 -0.01556,0.03306 -0.02311,0.08279 -0.02311,0.148902 0,0.06746 0.0085,0.11662 0.02696,0.147617 0.01844,0.031 0.0449,0.04621 0.0783,0.04621 0.02651,0 0.04986,-0.0034 0.0706,-0.01027 0.0023,-0.02063 0.004,-0.04154 0.0051,-0.0629 0.0012,-0.02135 0.0013,-0.04334 0.0013,-0.06675 -10e-7,-0.03308 -9.38e-4,-0.06469 -0.0038,-0.09499 -0.0029,-0.03031 -0.0086,-0.05746 -0.01669,-0.08087 -0.0081,-0.02341 -0.01813,-0.04271 -0.0308,-0.05648 -0.01267,-0.01376 -0.02932,-0.02054 -0.05006,-0.02054 z m -3.796973,0.04364 c 0.09447,2e-6 0.177461,0.01692 0.24774,0.05134 0.03108,0.01517 0.05685,0.03385 0.07702,0.0552 0.02016,0.02135 0.02952,0.04681 0.02953,0.07573 -2e-6,0.02476 -0.006,0.05413 -0.01926,0.08857 -0.01323,0.03445 -0.02919,0.06715 -0.04878,0.09884 -0.0346,-0.03169 -0.07111,-0.05705 -0.109107,-0.07702 -0.03801,-0.01996 -0.07636,-0.0308 -0.115527,-0.0308 -0.04953,10e-7 -0.07445,0.0182 -0.07445,0.05263 0,0.02203 0.0085,0.03835 0.02696,0.05006 0.01842,0.0117 0.04167,0.02126 0.06932,0.02953 0.02765,0.0083 0.0576,0.0179 0.08985,0.02824 0.03225,0.01034 0.0622,0.02555 0.08985,0.04621 0.02765,0.02066 0.05088,0.04891 0.06932,0.08472 0.01844,0.03581 0.02696,0.08337 0.02696,0.1412 0,0.110203 -0.03246,0.197724 -0.09756,0.263144 -0.06509,0.06542 -0.159262,0.09755 -0.283681,0.09755 -0.07144,0 -0.127127,-0.0061 -0.166872,-0.01926 -0.03975,-0.01309 -0.07068,-0.02601 -0.0937,-0.03979 -0.02995,-0.0179 -0.05139,-0.0377 -0.0629,-0.05905 -0.01151,-0.02135 -0.01669,-0.04334 -0.01669,-0.06675 0,-0.03581 0.0074,-0.07083 0.02182,-0.105257 0.0144,-0.03443 0.03036,-0.06837 0.04878,-0.101407 0.01382,0.01513 0.02964,0.02927 0.04749,0.04236 0.01786,0.01309 0.03702,0.02493 0.05776,0.03594 0.02074,0.01101 0.0423,0.01947 0.06418,0.02568 0.02189,0.0062 0.04344,0.009 0.06418,0.009 0.02995,0 0.05023,-0.005 0.0629,-0.01669 0.01267,-0.0117 0.01926,-0.02702 0.01926,-0.04492 -10e-7,-0.02068 -0.0092,-0.03766 -0.02824,-0.05006 -0.01902,-0.0124 -0.04295,-0.02247 -0.0706,-0.03209 -0.02765,-0.0096 -0.05774,-0.02097 -0.09114,-0.03337 -0.0334,-0.0124 -0.06349,-0.03 -0.09114,-0.05134 -0.02765,-0.02135 -0.0516,-0.0496 -0.0706,-0.08472 -0.019,-0.03512 -0.02824,-0.08086 -0.02824,-0.137348 0,-0.05506 0.0099,-0.102449 0.02952,-0.143766 0.01958,-0.04131 0.04548,-0.07583 0.0783,-0.10269 0.03282,-0.02686 0.07033,-0.04724 0.11296,-0.06033 0.04263,-0.01309 0.08753,-0.01926 0.134781,-0.01926 z m 0.851045,0 c 0.134792,2e-6 0.230632,0.03163 0.288817,0.09499 0.05818,0.06336 0.08728,0.16392 0.08729,0.301653 l 0,0.403059 c -10e-7,0.03442 0.0031,0.07232 0.0077,0.112959 0.0046,0.04064 0.0112,0.07624 0.01926,0.106541 -0.01614,0.0055 -0.03099,0.0094 -0.04364,0.01284 -0.01266,0.0035 -0.02511,0.0056 -0.03722,0.0077 -0.01211,0.0021 -0.02527,0.0045 -0.03851,0.0051 -0.01323,6.91e-4 -0.02751,0 -0.04364,0 -0.09331,0 -0.146761,-0.0316 -0.161737,-0.09499 -0.01958,0.02341 -0.04927,0.04489 -0.08729,0.06418 -0.03802,0.01929 -0.08618,0.02953 -0.143766,0.02953 -0.03572,0 -0.06986,-0.0057 -0.10269,-0.01669 -0.03284,-0.01101 -0.06194,-0.02853 -0.08729,-0.05263 -0.02535,-0.0241 -0.04535,-0.05574 -0.06033,-0.09499 -0.01498,-0.03926 -0.02182,-0.08728 -0.02182,-0.143766 -1e-6,-0.07986 0.01749,-0.143745 0.05263,-0.19126 0.03514,-0.04752 0.07696,-0.08303 0.12708,-0.107825 0.05012,-0.0248 0.10304,-0.04062 0.156603,-0.04749 0.05356,-0.0069 0.09931,-0.01027 0.137348,-0.01027 l 0,-0.02953 c -1e-6,-0.01929 -0.0032,-0.0345 -0.009,-0.04621 -0.0058,-0.01171 -0.01331,-0.02076 -0.02311,-0.02696 -0.0098,-0.0062 -0.02141,-0.01077 -0.03466,-0.01284 -0.01326,-0.0021 -0.02739,-0.0026 -0.04236,-0.0026 -0.04029,2e-6 -0.0802,0.0062 -0.119378,0.01926 -0.03918,0.01308 -0.08255,0.03404 -0.13093,0.06161 -0.0219,-0.03169 -0.03913,-0.0634 -0.05006,-0.0937 -0.01093,-0.03031 -0.01669,-0.0529 -0.01669,-0.06803 0,-0.02068 0.0065,-0.04047 0.01797,-0.05905 0.01152,-0.01858 0.03488,-0.03837 0.0706,-0.05905 0.03111,-0.01929 0.07281,-0.03391 0.125795,-0.04492 0.05298,-0.01101 0.107718,-0.01669 0.163021,-0.01669 z m 1.065412,0 c 0.03572,2e-6 0.07168,0.0085 0.109108,0.02439 0.03743,0.01585 0.07216,0.04172 0.10269,0.07958 0.03053,0.03787 0.05545,0.08872 0.07445,0.152752 0.019,0.06403 0.02824,0.143725 0.02824,0.238755 -10e-7,0.111591 -0.0099,0.203098 -0.02953,0.274696 -0.01958,0.0716 -0.04604,0.128713 -0.0783,0.170723 -0.03225,0.04201 -0.06808,0.07144 -0.107825,0.08729 -0.03975,0.01585 -0.07905,0.02311 -0.119377,0.02311 -0.03108,0 -0.05841,-0.004 -0.08087,-0.01155 -0.02247,-0.0076 -0.04092,-0.01662 -0.05648,-0.02696 -0.01556,-0.01033 -0.0286,-0.01928 -0.03722,-0.02824 -0.0086,-0.009 -0.01296,-0.01514 -0.01412,-0.01926 l 0,0.5096 -0.342729,0 0,-1.437664 c 0.01037,-0.0027 0.02341,-0.005 0.03722,-0.0077 0.01266,-0.0027 0.02622,-0.005 0.04236,-0.0064 0.01614,-0.0014 0.03445,-0.0026 0.05519,-0.0026 0.104838,2e-6 0.16964,0.03273 0.193828,0.09884 0.01958,-0.03169 0.04701,-0.05933 0.08215,-0.08344 0.03514,-0.0241 0.08245,-0.03594 0.141199,-0.03594 z m -5.0741827,0.02054 c 0.027666,10e-7 0.053674,0.0028 0.079585,0.009 0.025914,0.0062 0.049736,0.01755 0.069317,0.03337 0.019581,0.01582 0.035398,0.03851 0.047493,0.06675 0.012095,0.02824 0.017973,0.06378 0.017973,0.107825 l 0,0.731668 c 0,0.03031 -0.00151,0.0682 -0.00382,0.112959 -0.00231,0.04476 -0.00736,0.08485 -0.015405,0.120661 -0.012694,0.0551 -0.032556,0.101456 -0.059047,0.138632 -0.026491,0.03717 -0.055736,0.06712 -0.08857,0.08985 -0.032837,0.02274 -0.066721,0.03787 -0.1001228,0.04749 -0.0334,0.0096 -0.061816,0.0154 -0.086003,0.0154 -0.049534,0 -0.086063,-0.01194 -0.1091086,-0.03465 -0.023043,-0.02272 -0.03816,-0.05603 -0.046209,-0.100122 -0.00346,-0.01791 -0.00599,-0.03652 -0.0077,-0.05648 -0.00173,-0.01996 -0.00411,-0.04773 -0.00642,-0.08215 0.036876,-0.0041 0.066807,-0.01199 0.089854,-0.02439 0.023043,-0.0124 0.04124,-0.0282 0.053912,-0.04749 0.012672,-0.01929 0.021067,-0.04128 0.025676,-0.06675 0.00462,-0.02547 0.0077,-0.05442 0.0077,-0.08472 l 0,-0.962721 c 0.013819,-0.0014 0.027385,-0.0024 0.042358,-0.0051 0.012658,-0.0027 0.026801,-0.005 0.042358,-0.0064 0.015557,-0.0014 0.031236,-0.0026 0.046209,-0.0026 z m 4.9188637,0.274696 c -0.01385,1e-6 -0.02532,0.0018 -0.03337,0.0038 -0.008,0.0021 -0.0132,0.0038 -0.01669,0.0051 l 0,0.417179 c 0.0069,0.0055 0.01472,0.0095 0.02568,0.01155 0.01095,0.0021 0.02159,0.0026 0.03081,0.0026 0.03916,0 0.06647,-0.02201 0.08087,-0.06675 0.01439,-0.04474 0.02054,-0.102953 0.02054,-0.174573 0,-0.062 -0.0076,-0.111216 -0.02311,-0.146334 -0.01556,-0.03512 -0.04327,-0.05263 -0.08472,-0.05263 z m -3.6711766,0.009 c -0.03156,0.0045 -0.05287,0.02547 -0.06547,0.06161 -0.0144,0.04132 -0.02182,0.09782 -0.02182,0.169439 0,0.03304 0.0017,0.06418 0.0051,0.09242 0.0035,0.02824 0.0093,0.05181 0.01797,0.07317 0.0086,0.02135 0.01956,0.03895 0.03338,0.05134 0.01382,0.0124 0.03189,0.01797 0.05263,0.01797 0.01382,0 0.02402,-4.81e-4 0.03209,-0.0026 0.0081,-0.0021 0.01449,-0.0038 0.01797,-0.0051 l 0,-0.444136 c -0.0069,-0.0055 -0.016,-0.0095 -0.02696,-0.01155 -0.01095,-0.0021 -0.02159,-0.0026 -0.0308,-0.0026 -0.0049,0 -0.0096,-6.45e-4 -0.01412,0 z m 2.8149966,0.258011 c -0.02187,0.0027 -0.0433,0.0073 -0.0629,0.01284 -0.0196,0.0055 -0.03695,0.01279 -0.05134,0.02311 -0.01439,0.01032 -0.02474,0.02325 -0.03337,0.03979 -0.0086,0.01654 -0.01412,0.03804 -0.01412,0.06418 0,0.03169 0.0074,0.05595 0.02182,0.07317 0.0144,0.01721 0.03498,0.02696 0.06033,0.02696 0.02074,0 0.03908,-0.0057 0.0552,-0.01669 0.01612,-0.01101 0.02439,-0.028 0.02439,-0.05006 l 0,-0.17329 z m 3.667326,0.109108 c 0.04837,0 0.08756,0.01751 0.118094,0.05263 0.03053,0.03512 0.04621,0.0809 0.04621,0.137348 -1e-6,0.05649 -0.01485,0.103412 -0.04364,0.139915 -0.02879,0.0365 -0.06881,0.05391 -0.120662,0.05391 -0.0507,0 -0.09129,-0.01741 -0.120661,-0.05391 -0.02937,-0.0365 -0.04364,-0.08343 -0.04364,-0.139915 0,-0.05645 0.01638,-0.102232 0.04749,-0.137348 0.03111,-0.03512 0.06959,-0.05263 0.116809,-0.05263 z m -5.8610466,0.919078 c 0.04721,2e-6 0.08654,0.01749 0.119377,0.05263 0.03284,0.03514 0.05006,0.08326 0.05006,0.142483 0,0.05922 -0.01722,0.105493 -0.05006,0.139915 -0.03284,0.03442 -0.07216,0.05134 -0.119377,0.05134 -0.04725,10e-7 -0.08784,-0.01692 -0.120662,-0.05134 -0.03281,-0.03442 -0.04878,-0.08069 -0.04878,-0.139915 0,-0.05922 0.01596,-0.107344 0.04878,-0.142483 0.03282,-0.03514 0.07341,-0.05263 0.120662,-0.05263 z m -1.355512,0.01926 c 0.023065,10e-7 0.048538,0.0017 0.074451,0.0051 0.025914,0.0035 0.050262,0.0085 0.07445,0.01541 0.041485,0.0124 0.07787,0.0304 0.1078248,0.05519 0.029953,0.0248 0.044925,0.061 0.044925,0.107825 -7e-7,0.02064 -0.00799,0.04832 -0.021824,0.08344 -0.013833,0.03512 -0.03076,0.07191 -0.052628,0.109108 -0.01842,-0.0124 -0.043072,-0.02544 -0.071885,-0.03851 -0.028813,-0.01307 -0.060432,-0.01926 -0.094988,-0.01926 -0.029953,10e-7 -0.055008,0.0084 -0.075734,0.02696 -0.020728,0.01858 -0.030811,0.0486 -0.030804,0.08857 l 0,0.04878 0.2554418,0 0,0.308071 -0.2554418,0 0,0.690592 -0.3440127,0 0,-0.988394 c 0,-0.0179 7.148e-4,-0.0415 0.0013,-0.07317 5.633e-4,-0.03167 0.00151,-0.05773 0.00382,-0.07702 0.01498,-0.111548 0.054157,-0.196893 0.1180936,-0.255443 0.06393,-0.05855 0.1529454,-0.08729 0.2669951,-0.08729 z m 2.0653576,0 c 0.02307,10e-7 0.04854,0.0017 0.07445,0.0051 0.02591,0.0035 0.05026,0.0085 0.07445,0.01541 0.04148,0.0124 0.07787,0.0304 0.107825,0.05519 0.02995,0.0248 0.04492,0.061 0.04492,0.107825 0,0.02064 -0.0067,0.04832 -0.02054,0.08344 -0.01383,0.03512 -0.03204,0.07191 -0.05391,0.109108 -0.01842,-0.0124 -0.04179,-0.02544 -0.0706,-0.03851 -0.02881,-0.01307 -0.06043,-0.01926 -0.09499,-0.01926 -0.02995,10e-7 -0.05629,0.0084 -0.07702,0.02696 -0.02073,0.01858 -0.03081,0.0486 -0.03081,0.08857 l 0,0.04878 0.255442,0 0,0.308071 -0.255442,0 0,0.690592 -0.344012,0 0,-0.988394 c 0,-0.0179 7.14e-4,-0.0415 0.0013,-0.07317 5.62e-4,-0.03167 0.0015,-0.05773 0.0038,-0.07702 0.01498,-0.111548 0.05416,-0.196893 0.118095,-0.255443 0.06393,-0.05855 0.152944,-0.08729 0.266994,-0.08729 z m 2.117987,0.01669 c 0.02767,2e-6 0.05367,0.0028 0.07958,0.009 0.02591,0.0062 0.04845,0.01753 0.06803,0.03337 0.01958,0.01585 0.0354,0.03722 0.04749,0.06546 0.0121,0.02824 0.01797,0.06506 0.01797,0.109109 l 0,0.664919 c 0.0058,-0.03026 0.01556,-0.06024 0.02824,-0.08985 0.01267,-0.02961 0.02919,-0.05961 0.04878,-0.08857 l 0.09242,-0.142483 c 0.02187,-0.03303 0.04666,-0.06061 0.07317,-0.08472 0.02651,-0.0241 0.06305,-0.03722 0.109109,-0.03722 0.02651,0 0.05167,0.0052 0.07702,0.01412 0.02534,0.009 0.04845,0.01851 0.06803,0.02953 0.02187,0.0124 0.04203,0.02591 0.06161,0.04107 l -0.236188,0.396641 0.279831,0.510884 c -0.07605,0.03716 -0.145879,0.0552 -0.209231,0.0552 -0.05414,0 -0.09725,-0.01124 -0.128363,-0.03466 -0.03111,-0.02341 -0.05784,-0.05398 -0.08087,-0.09114 l -0.110391,-0.183559 c -0.01958,-0.03165 -0.03468,-0.06102 -0.04621,-0.08857 -0.01153,-0.02755 -0.02119,-0.05929 -0.02696,-0.0937 l 0,0.469809 -0.345296,0 0,-1.4505 c 0.01382,-0.0014 0.02867,-0.0037 0.04364,-0.0064 0.01266,-0.0027 0.0268,-0.005 0.04236,-0.0064 0.01556,-0.0014 0.03124,-0.0013 0.04621,-0.0013 z m 1.032037,0 c 0.02767,2e-6 0.05496,0.0028 0.08087,0.009 0.02591,0.0062 0.04845,0.01753 0.06803,0.03337 0.01958,0.01585 0.0354,0.03722 0.04749,0.06546 0.0121,0.02824 0.01797,0.06506 0.01797,0.109109 l 0,1.238701 c -0.04722,0.01791 -0.08892,0.02696 -0.125796,0.02696 -0.05298,0 -0.09385,-0.0066 -0.123228,-0.02182 -0.02937,-0.01515 -0.05235,-0.03554 -0.06675,-0.06033 -0.0144,-0.0248 -0.02279,-0.05364 -0.02568,-0.086 -0.0029,-0.03236 -0.0038,-0.06688 -0.0038,-0.10269 l 0,-1.197626 c 0.01382,-0.0014 0.02738,-0.0037 0.04236,-0.0064 0.01266,-0.0027 0.0268,-0.005 0.04236,-0.0064 0.01556,-0.0014 0.03124,-0.0013 0.04621,-0.0013 z m -4.5145206,0.439001 c 0.07028,10e-7 0.130171,0.01243 0.179708,0.03722 0.04953,0.02479 0.09013,0.05881 0.120661,0.100122 0.03054,0.04132 0.05165,0.08869 0.06547,0.143767 0.01382,0.05508 0.02182,0.113966 0.02182,0.174573 -10e-7,0.0069 -10e-7,0.01525 0,0.02696 -10e-7,0.0117 -6.9e-4,0.02354 -0.0013,0.03594 -5.84e-4,0.0124 -7.21e-4,0.02493 -0.0013,0.03594 -5.63e-4,0.01101 -0.0014,0.01888 -0.0026,0.02439 l -0.462106,0 c 0.0058,0.05232 0.02229,0.09699 0.04878,0.133498 0.02649,0.0365 0.06833,0.05519 0.127079,0.05519 0.04609,0 0.08571,-0.0092 0.11681,-0.02568 0.0311,-0.01652 0.0613,-0.03789 0.09242,-0.06546 0.01498,0.02757 0.02995,0.05918 0.04493,0.09499 0.01497,0.03581 0.0231,0.06746 0.02311,0.09499 -2e-6,0.02341 -0.005,0.04481 -0.01541,0.06547 -0.01037,0.02066 -0.02873,0.04104 -0.05519,0.06033 -0.02535,0.0179 -0.05948,0.03253 -0.10269,0.04493 -0.04321,0.0124 -0.09722,0.01926 -0.161737,0.01926 -0.04722,0 -0.09859,-0.0068 -0.152752,-0.02054 -0.05416,-0.01379 -0.104111,-0.04094 -0.150185,-0.08087 -0.04607,-0.03993 -0.083709,-0.09584 -0.1142427,-0.168155 -0.030537,-0.07231 -0.046209,-0.166627 -0.046209,-0.283682 0,-0.08679 0.012456,-0.162578 0.037223,-0.225919 0.024767,-0.06334 0.056529,-0.115286 0.096272,-0.156602 0.03975,-0.04131 0.08607,-0.07185 0.137348,-0.09114 0.05127,-0.01929 0.102213,-0.02952 0.154035,-0.02952 z m 2.0563726,0 c 0.134791,10e-7 0.231915,0.03291 0.2901,0.09627 0.05818,0.06336 0.08729,0.162636 0.08729,0.300369 l 0,0.403059 c 0,0.03442 0.0018,0.07232 0.0064,0.112959 0.0046,0.04064 0.0112,0.07624 0.01926,0.106542 -0.01614,0.0055 -0.03099,0.0094 -0.04364,0.01284 -0.01266,0.0035 -0.02383,0.0069 -0.03594,0.009 -0.01211,0.0021 -0.02527,0.0032 -0.03851,0.0038 -0.01323,6.89e-4 -0.02751,0.0013 -0.04364,0.0013 -0.09331,0 -0.148044,-0.0316 -0.163021,-0.09499 -0.01958,0.02341 -0.04798,0.04489 -0.086,0.06418 -0.03802,0.01929 -0.08618,0.02824 -0.143767,0.02824 -0.03572,0 -0.06986,-0.0057 -0.10269,-0.01669 -0.03284,-0.01101 -0.06194,-0.02852 -0.08729,-0.05263 -0.02535,-0.0241 -0.04535,-0.05573 -0.06033,-0.09499 -0.01498,-0.03926 -0.02311,-0.08728 -0.02311,-0.143766 0,-0.07986 0.01749,-0.142461 0.05263,-0.189977 0.03514,-0.04751 0.07825,-0.08431 0.128363,-0.109109 0.05012,-0.0248 0.101757,-0.04062 0.155319,-0.04749 0.05356,-0.0069 0.09931,-0.01027 0.137348,-0.01027 l 0,-0.02953 c 0,-0.01929 -0.0032,-0.0345 -0.009,-0.04621 -0.0058,-0.01171 -0.01331,-0.02076 -0.02311,-0.02695 -0.0098,-0.0062 -0.02141,-0.0095 -0.03465,-0.01155 -0.01326,-0.0021 -0.02739,-0.0038 -0.04236,-0.0038 -0.04029,10e-7 -0.08019,0.0075 -0.119377,0.02054 -0.03918,0.01308 -0.08256,0.03276 -0.13093,0.06033 -0.0219,-0.03169 -0.03784,-0.06212 -0.04878,-0.09242 -0.01093,-0.03031 -0.01669,-0.05419 -0.01669,-0.06932 0,-0.02068 0.0052,-0.03918 0.01669,-0.05776 0.01152,-0.01858 0.03616,-0.03837 0.07188,-0.05905 0.03111,-0.01929 0.07281,-0.0352 0.125796,-0.04621 0.05298,-0.01101 0.106434,-0.01668 0.161737,-0.01669 z m 0.834358,0 c 0.09447,10e-7 0.176177,0.0182 0.246457,0.05263 0.03108,0.01518 0.05685,0.03256 0.07702,0.05391 0.02016,0.02135 0.0308,0.04681 0.03081,0.07573 0,0.02476 -0.0073,0.05413 -0.02054,0.08857 -0.01323,0.03445 -0.02919,0.06843 -0.04878,0.100123 -0.0346,-0.03169 -0.0711,-0.05833 -0.109107,-0.0783 -0.03801,-0.01996 -0.07636,-0.02952 -0.115527,-0.02952 -0.04953,1e-6 -0.07445,0.01692 -0.07445,0.05134 0,0.02203 0.0098,0.03964 0.02824,0.05134 0.01842,0.01171 0.04167,0.02126 0.06932,0.02953 0.02765,0.0083 0.0576,0.0179 0.08985,0.02824 0.03225,0.01034 0.06221,0.02555 0.08985,0.04621 0.02765,0.02066 0.04959,0.04891 0.06803,0.08472 0.01844,0.03581 0.02824,0.08208 0.02824,0.139915 0,0.110205 -0.03246,0.197725 -0.09756,0.263144 -0.06509,0.06542 -0.160545,0.09884 -0.284965,0.09884 -0.07144,0 -0.127127,-0.0061 -0.166872,-0.01926 -0.03975,-0.01309 -0.07068,-0.02729 -0.0937,-0.04107 -0.02995,-0.01791 -0.0501,-0.0377 -0.06161,-0.05905 -0.01151,-0.02135 -0.01797,-0.04334 -0.01797,-0.06675 0,-0.03581 0.0074,-0.07083 0.02182,-0.105258 0.0144,-0.03442 0.03036,-0.06837 0.04878,-0.101406 0.01382,0.01513 0.02963,0.02927 0.04749,0.04236 0.01786,0.01309 0.0383,0.02493 0.05905,0.03594 0.02074,0.01101 0.04102,0.01947 0.0629,0.02568 0.02188,0.0062 0.04344,0.01027 0.06418,0.01027 0.02995,0 0.05151,-0.0063 0.06418,-0.01797 0.01267,-0.01171 0.01926,-0.02702 0.01926,-0.04493 -1e-6,-0.02068 -0.0092,-0.03638 -0.02824,-0.04878 -0.01902,-0.0124 -0.04295,-0.02375 -0.0706,-0.03338 -0.02765,-0.0096 -0.05774,-0.02097 -0.09114,-0.03337 -0.0334,-0.0124 -0.06477,-0.02871 -0.09242,-0.05006 -0.02765,-0.02135 -0.05031,-0.0496 -0.06932,-0.08472 -0.019,-0.03512 -0.02824,-0.08086 -0.02824,-0.137348 0,-0.05506 0.0087,-0.103733 0.02824,-0.14505 0.01958,-0.04131 0.04676,-0.07583 0.07958,-0.102691 0.03282,-0.02686 0.07033,-0.04596 0.11296,-0.05905 0.04262,-0.01309 0.08753,-0.02054 0.134781,-0.02054 z m -2.2668876,0.02182 c 0.02767,2e-6 0.05367,0.0028 0.07959,0.009 0.02591,0.0062 0.04845,0.01755 0.06803,0.03337 0.01958,0.01582 0.0354,0.03722 0.04749,0.06547 0.01209,0.02824 0.01797,0.06506 0.01797,0.109108 l 0,0.730385 c -10e-7,0.03031 -2.47e-4,0.0682 -0.0026,0.112959 -0.0023,0.04476 -0.0073,0.08485 -0.01541,0.120661 -0.01269,0.0551 -0.03256,0.101456 -0.05905,0.138632 -0.02649,0.03717 -0.05574,0.06712 -0.08857,0.08985 -0.03284,0.02274 -0.06672,0.03916 -0.100123,0.04878 -0.0334,0.0096 -0.06182,0.01412 -0.086,0.01412 -0.04953,-10e-7 -0.08606,-0.01066 -0.109108,-0.03337 -0.02304,-0.02272 -0.03816,-0.05732 -0.04621,-0.101407 -0.0035,-0.01791 -0.006,-0.03652 -0.0077,-0.05648 -0.0017,-0.01996 -0.0041,-0.04645 -0.0064,-0.08087 0.03688,-0.0041 0.06681,-0.01328 0.08985,-0.02568 0.02304,-0.0124 0.04124,-0.0282 0.05391,-0.04749 0.01267,-0.01929 0.02107,-0.04128 0.02567,-0.06675 0.0046,-0.02547 0.0064,-0.05313 0.0064,-0.08344 l 0,-0.962721 c 0.01382,-0.0014 0.02867,-0.0037 0.04364,-0.0064 0.01266,-0.0027 0.0268,-0.005 0.04236,-0.0064 0.01556,-0.0014 0.03124,-0.0013 0.04621,-0.0013 z m -0.627694,0.237462 c -0.05418,2e-6 -0.08087,0.04975 -0.08087,0.148902 l 0.165589,0 c -1e-6,-0.05645 -0.006,-0.09546 -0.01926,-0.116811 -0.01323,-0.02135 -0.03551,-0.03209 -0.06547,-0.03209 z m 2.1141356,0.302937 c -0.02187,0.0027 -0.04201,0.0073 -0.06161,0.01284 -0.0196,0.0055 -0.03695,0.01279 -0.05134,0.02311 -0.0144,0.01032 -0.02603,0.02454 -0.03466,0.04107 -0.0086,0.01654 -0.01284,0.03804 -0.01284,0.06418 -1e-6,0.03169 0.0074,0.05595 0.02182,0.07317 0.0144,0.01721 0.0337,0.02567 0.05905,0.02567 0.02074,0 0.03908,-0.0057 0.0552,-0.01669 0.01612,-0.01101 0.02439,-0.028 0.02439,-0.05006 l 0,-0.17329 z"
     id="rect3812"
     style="font-size:medium;font-style:normal;font-variant:normal;font-weight:normal;font-stretch:normal;text-indent:0;text-align:start;text-decoration:none;line-height:normal;letter-spacing:normal;word-spacing:normal;text-transform:none;direction:ltr;block-progression:tb;writing-mode:lr-tb;text-anchor:start;opacity:0.75;color:#000000;fill:#b26609;fill-opacity:1;stroke:none;stroke-width:35;marker:none;visibility:visible;display:inline;overflow:visible;enable-background:accumulate;font-family:Bitstream Vera Sans;-inkscape-font-specification:Bitstream Vera Sans"
     inkscape:connector-curvature="0" />
  <path
     d="m 4.1836061,17.471233 13.4417839,0 0.74997,1.038421 -14.932688,0 0.7409341,-1.038421 z"
     id="path4453"
     sodipodi:nodetypes="ccccc"
     style="opacity:0.75;fill:#b26609;fill-opacity:1;stroke:#b26609;stroke-width:0.53171611;stroke-linecap:round;stroke-linejoin:round;stroke-miterlimit:4;stroke-opacity:1;stroke-dasharray:none"
     inkscape:connector-curvature="0" />
  <path
     d="m 3.2693308,21.313096 15.2703332,0 1e-6,-1.788391 -15.2612975,0 -0.00904,1.788391 z"
     id="path4457"
     sodipodi:nodetypes="ccccc"
     style="opacity:0.75;fill:#b26609;fill-opacity:1;stroke:#b26609;stroke-width:0.53171611;stroke-linecap:round;stroke-linejoin:round;stroke-miterlimit:4;stroke-opacity:1;stroke-dasharray:none"
     inkscape:connector-curvature="0" />
</svg>
