/* XPM */
static char * memorial_xpm[] = {
"15 32 65 1",
" 	c None",
".	c #000000",
"+	c #999999",
"@	c #9A9A9A",
"#	c #C8B466",
"$	c #F9D130",
"%	c #D5BC57",
"&	c #9A9998",
"*	c #ADA583",
"=	c #FED42B",
"-	c #FFD42A",
";	c #BCAD73",
">	c #D2BA5B",
",	c #F1C928",
"'	c #695711",
")	c #E0BA25",
"!	c #E2C34A",
"~	c #E6C546",
"{	c #927918",
"]	c #6A5811",
"^	c #F5CF34",
"/	c #ECC93F",
"(	c #705D12",
"_	c #483C0C",
":	c #FCD22E",
"<	c #E5C546",
"[	c #937B18",
"}	c #6C5912",
"|	c #F5CE35",
"1	c #D1BA5C",
"2	c #F3CA28",
"3	c #6E5C12",
"4	c #E2BC25",
"5	c #E1C34A",
"6	c #ACA484",
"7	c #FED32B",
"8	c #BBAD74",
"9	c #C6B368",
"0	c #F7CF33",
"a	c #D3BB5A",
"b	c #A09D92",
"c	c #AEA582",
"d	c #9E9C94",
"e	c #ACA485",
"f	c #AEA583",
"g	c #A6A18A",
"h	c #A39F8F",
"i	c #A29E8F",
"j	c #DEC14E",
"k	c #A9A288",
"l	c #D6BC57",
"m	c #B9AC76",
"n	c #B9AB76",
"o	c #A7A189",
"p	c #B7AA79",
"q	c #B1A77F",
"r	c #C9B565",
"s	c #9F9C92",
"t	c #CAB564",
"u	c #AFA681",
"v	c #A6A08B",
"w	c #B3A87C",
"x	c #C3B16C",
"y	c #C2B16C",
"z	c #9E9C93",
"......+++......",
".....+++++@....",
"...+++++++++...",
"..+++++++++++..",
".+++++++++++++.",
"+++++++++++++++",
"++++++#$%&+++++",
"+++++*=--;+++++",
"+++++>,')!+++++",
"+++++~{.]^+++++",
"+++++/(._:+++++",
"+++++<[.}|+++++",
"+++++12345+++++",
"+++++67--8+++++",
"++++++90a++++++",
"+++++++++++++++",
"+++++++++++++++",
"+++++++++++++++",
"++bcccdeffghi++",
"++fjjjkljj9mn++",
"+++++++++++++++",
"+++++++++++++++",
"++opqrrrstttu++",
"++vwfxxyzyyye++",
"+++++++++++++++",
"+++++++++++++++",
"+++++++++++++++",
"+++++++++++++++",
"+++++++++++++++",
"+++++++++++++++",
"+++++++++++++++",
"+++++++++++++++"};
