/* XPM */
static char *pharmacy[] = {
/* columns rows colors chars-per-pixel */
"16 16 17 1",
"  c #00CC00",
". c #01CC01",
"X c #02CC02",
"o c #04CD04",
"O c #1CD21C",
"+ c #40D940",
"@ c #41D941",
"# c #77E477",
"$ c #80E680",
"% c #82E682",
"& c #9CEB9C",
"* c #BFF2BF",
"= c #C0F2C0",
"- c #DAF8DA",
"; c #E7FAE7",
": c #FDFFFD",
"> c gray100",
/* pixels */
"#             O-",
" ;>>>>>>>>>>>>$$",
" >    $$$@   $$$",
" >    >>>$   $$$",
" >    >>>%   $$$",
" >  oo>>>%   $$$",
" >$>>>>>>>>>>$$$",
" >$>>>>>>>>>>$$$",
" >$>>>>>>>>>>$$$",
" >@$$$>>>=%%$$$$",
" >    >>>$   $$$",
" >   o>>>$   $$$",
" >    >>>%   $$$",
" >$$$$$$$$$$$=$$",
"O$$$$$$$$$$$$%@&",
"-$$$$$$$$$$$$#&>"
};
