/* XPM */
static char *picnic[] = {
/* columns rows colors chars-per-pixel */
"16 15 45 1",
"  c #000023",
". c #060629",
"X c #0A0A2D",
"o c #141436",
"O c #1B1B3E",
"+ c #1F1F41",
"@ c #262648",
"# c #28284A",
"$ c #29294C",
"% c #2B2B4D",
"& c #353558",
"* c #37375A",
"= c #404062",
"- c #454567",
"; c #48486B",
": c #4A4A6C",
"> c #4C4C6F",
", c #535375",
"< c #2727C6",
"1 c #646486",
"2 c #666688",
"3 c #68688B",
"4 c #737396",
"5 c #7B7B9D",
"6 c #7E7EA1",
"7 c #4D4DCF",
"8 c #8181A4",
"9 c #8A8AAD",
"0 c #8C8CAE",
"q c #9898BB",
"w c #9A9ABC",
"e c #A6A6C9",
"r c #AFAFD2",
"t c #B4B4D6",
"y c #B9B9DB",
"u c #BDBDDF",
"i c #B5B5E8",
"p c #C2C2E4",
"a c #C9C9EF",
"s c #CECEF1",
"d c #CFCFF1",
"f c #D0D0F2",
"g c #D1D1F2",
"h c #F6F6FC",
"j c None",
/* pixels */
"jjgggggdgddgddjj",
"jadgggdgdggggddj",
"ddgq,,,,,,,,,gdd",
"dgd4        .ddd",
"dddie* ::  6eddd",
"ddddt+ yy  wddgd",
"dddd3 #pd2 +ddgg",
"d>%%. o#%o .%%%0",
"d@     .       6",
"ddd- =dgdd0  ddd",
"dgd Xqddddd% 2dd",
"gg6 *dddddd* ,dd",
"gg8,4gddgggi,,td",
"jgggdgddggggdddj",
"jjdgggggggggddjj"
};
