/* XPM */
static char *dummy[]={
"16 15 20 1",
". c None",
"d c #020202",
"e c #080808",
"q c #0c0c0c",
"n c #161616",
"i c #212121",
"o c #282828",
"k c #2a2a2a",
"m c #2d2d2d",
"f c #393939",
"# c #424242",
"p c #474747",
"g c #4c4c4c",
"b c #555555",
"l c #686868",
"j c #6a6a6a",
"c c #757575",
"h c #808080",
"r c #838383",
"a c #9a9a9a",
"................",
"................",
"..#abbbbbbbbb#..",
"...cdddddddde...",
".....fdggddh....",
".....id..dd.....",
"....jdk..ldi....",
"..mmednkmndemm..",
".odddddeddddddd.",
"...pd#....#dd...",
"...dq#.....mdl..",
"..hdf......fdb..",
"..rbc.......bb..",
"................",
"................"};
