<?xml version="1.0" encoding="UTF-8" standalone="no"?>
<!-- Created with Inkscape (http://www.inkscape.org/) -->

<svg
   xmlns:dc="http://purl.org/dc/elements/1.1/"
   xmlns:cc="http://creativecommons.org/ns#"
   xmlns:rdf="http://www.w3.org/1999/02/22-rdf-syntax-ns#"
   xmlns:svg="http://www.w3.org/2000/svg"
   xmlns="http://www.w3.org/2000/svg"
   xmlns:sodipodi="http://sodipodi.sourceforge.net/DTD/sodipodi-0.dtd"
   xmlns:inkscape="http://www.inkscape.org/namespaces/inkscape"
   height="22"
   id="svg2"
   inkscape:output_extension="org.inkscape.output.svg.inkscape"
   inkscape:version="0.91 r13725"
   sodipodi:docname="picnic.svg"
   sodipodi:version="0.32"
   version="1.0"
   width="22">
  <metadata
     id="metadata2975">
    <rdf:RDF>
      <cc:Work
         rdf:about="">
        <dc:format>image/svg+xml</dc:format>
        <dc:type
           rdf:resource="http://purl.org/dc/dcmitype/StillImage" />
        <cc:license
           rdf:resource="http://creativecommons.org/publicdomain/zero/1.0/" />
        <dc:language>en</dc:language>
        <dc:title />
        <dc:description>jfitie@gmail.com</dc:description>
      </cc:Work>
      <cc:License
         rdf:about="http://creativecommons.org/publicdomain/zero/1.0/">
        <cc:permits
           rdf:resource="http://creativecommons.org/ns#Reproduction" />
        <cc:permits
           rdf:resource="http://creativecommons.org/ns#Distribution" />
        <cc:permits
           rdf:resource="http://creativecommons.org/ns#DerivativeWorks" />
      </cc:License>
    </rdf:RDF>
  </metadata>
  <sodipodi:namedview
     bordercolor="#666666"
     borderopacity="1.0"
     gridtolerance="10.0"
     guidetolerance="10.0"
     id="base"
     inkscape:current-layer="svg2"
     inkscape:cx="27.84447"
     inkscape:cy="54.066506"
     inkscape:pageopacity="0"
     inkscape:pageshadow="2"
     inkscape:window-height="874"
     inkscape:window-width="1440"
     inkscape:window-x="0"
     inkscape:window-y="0"
     inkscape:zoom="5.2137932"
     objecttolerance="10.0"
     pagecolor="#ff00ff"
     showgrid="false"
     inkscape:window-maximized="1" />
  <defs
     id="defs4">
    <inkscape:perspective
       id="perspective2441"
       inkscape:persp3d-origin="290 : 193.33333 : 1"
       inkscape:vp_x="0 : 290 : 1"
       inkscape:vp_y="0 : 1000 : 0"
       inkscape:vp_z="580 : 290 : 1"
       sodipodi:type="inkscape:persp3d" />
    <inkscape:perspective
       id="perspective3452"
       inkscape:persp3d-origin="30 : 20 : 1"
       inkscape:vp_x="0 : 30 : 1"
       inkscape:vp_y="0 : 1000 : 0"
       inkscape:vp_z="60 : 30 : 1"
       sodipodi:type="inkscape:persp3d" />
    <symbol
       id="symbol-university"
       viewBox="244.5 110 489 219.9">
      <path
         d="m 79,43 57,119 c 0,0 21,-96 104,-96 83,0 124,106 124,106 L 407,39 489,22 0,17 79,43 Z"
         id="path4460"
         inkscape:connector-curvature="0" />
      <path
         d="M 94,176 73,215"
         id="path4462"
         inkscape:connector-curvature="0"
         style="fill:none;stroke:#000000;stroke-width:20" />
      <path
         d="M 300,19 C 300,29.5 277.4,38 249.5,38 221.6,38 199,29.5 199,19 199,8.5 221.6,0 249.5,0 277.4,0 300,8.5 300,19 Z"
         id="path4464"
         inkscape:connector-curvature="0" />
      <path
         d="M 112,216 96,178 64,88 C 64,88 55,80 60,53 65,26 76,29 76,29"
         id="path4466"
         ill="none"
         inkscape:connector-curvature="0"
         style="stroke:#000000;stroke-width:20" />
    </symbol>
    <inkscape:perspective
       id="perspective4471"
       inkscape:persp3d-origin="372.04724 : 350.78739 : 1"
       inkscape:vp_x="0 : 526.18109 : 1"
       inkscape:vp_y="0 : 1000 : 0"
       inkscape:vp_z="744.09448 : 526.18109 : 1"
       sodipodi:type="inkscape:persp3d" />
    <inkscape:perspective
       id="perspective4668"
       inkscape:persp3d-origin="6 : 4 : 1"
       inkscape:vp_x="0 : 6 : 1"
       inkscape:vp_y="0 : 1000 : 0"
       inkscape:vp_z="12 : 6 : 1"
       sodipodi:type="inkscape:persp3d" />
  </defs>
  <g
     id="layer3"
     inkscape:label="Layout"
     style="display:none;stroke:#757575;stroke-opacity:1"
     transform="matrix(48.14969,0,0,48.14969,-536.27327,44.693248)">
    <rect
       height="10"
       id="rect4134"
       style="display:inline;fill:none;stroke:#757575;stroke-width:0.1;stroke-miterlimit:4;stroke-dasharray:none;stroke-opacity:1"
       width="10"
       x="1"
       y="1" />
    <rect
       height="8"
       id="rect4136"
       style="display:inline;fill:none;stroke:#757575;stroke-width:0.1;stroke-miterlimit:4;stroke-dasharray:none;stroke-opacity:1"
       width="8"
       x="2"
       y="2" />
  </g>
  <g
     id="g3366"
     transform="matrix(0.20536404,0,0,0.20535957,1.0039722,-1.9465945)">
    <path
       inkscape:connector-curvature="0"
       id="flowRoot3192-3"
       d="m 75.629978,23.490569 c -20.741,0.912667 -41.584931,0.113552 -62.365238,0.382813 0.392658,5.454312 -2.628917,14.670294 4.496094,17.064453 3.082761,1.134707 6.792794,-1.40298 9.371093,-0.541016 -1.770374,4.663194 -3.426705,9.427895 -5.359375,13.984376 -3.59674,3.924483 -9.365775,1.213934 -13.9628903,1.787109 -4.098936,-0.831093 -11.660783,-1.195222 -11.648438,4.734375 -1.661327,5.141116 0.41725,12.806681 6.976563,12.416016 3.553198,0.281696 7.9757773,-2.294732 11.0019533,-0.07031 -3.742035,9.121989 -7.8060183,18.388744 -11.3535163,27.708985 6.503679,-3.349395 15.5550043,2.9631 20.6621103,-3.515626 3.535525,-8.125745 6.687942,-16.439584 10.082031,-24.634765 10.15625,0 20.312503,0 30.468753,0 3.74529,9.244854 7.49176,18.489229 11.23633,27.734371 5.36648,-2.390354 12.86841,2.70433 17.16406,-2.242184 1.38247,-5.476343 -3.97201,-10.437228 -4.93633,-15.669726 -3.40853,-6.473778 -5.72847,-12.214063 4.02031,-9.822461 3.72357,-0.878389 12.047612,2.604554 9.908202,-3.681641 0.21152,-4.479386 1.7461,-12.837381 -4.716792,-13.5 -6.60206,0.737222 -13.30589,0.383662 -19.97656,0.455078 -1.88421,-5.1396 -4.91038,-11.075563 -6.11915,-15.74414 4.43546,0.319995 12.97615,2.506541 13.87891,-4.029297 0.52274,-4.296391 1.38148,-10.50877 -3.95117,-12.212891 -1.55443,-0.566711 -3.23705,-0.670774 -4.87695,-0.603516 z m -25.66016,17.113282 c 0.68167,4.653881 8.14896,13.872697 4.29687,15.476562 -3.81653,-1.471089 -16.75095,3.19176 -13.879162,-2.778803 3.058252,-4.1991 2.459917,-14.818456 9.582292,-12.697759 z"
       style="font-style:normal;font-variant:normal;font-weight:normal;font-stretch:normal;font-size:40px;line-height:125%;font-family:NPSPICT3;-inkscape-font-specification:NPSPICT3;text-align:start;writing-mode:lr-tb;text-anchor:start;fill:#ffffff;fill-opacity:1;stroke:#ffffff" />
    <path
       inkscape:connector-curvature="0"
       style="font-style:normal;font-variant:normal;font-weight:normal;font-stretch:normal;font-size:40px;line-height:125%;font-family:NPSPICT3;-inkscape-font-specification:NPSPICT3;text-align:start;writing-mode:lr-tb;text-anchor:start;fill:#b26609;fill-opacity:1;stroke:none"
       id="flowRoot3192"
       d="m 33.443282,59.937898 9.554748,-23.476467 9.792363,0 9.554747,23.476467 -28.901858,0 z m 31.144749,-23.476467 15.923384,0 0,-8.730319 -63.113925,0 0,8.730319 15.808181,0 -9.554751,23.476467 -23.3576593,0 0,8.726718 19.8187303,0 -10.969603,27.371809 10.735593,0 11.088408,-27.371809 35.860918,0 11.088412,27.371809 10.854393,0 -11.088403,-27.371809 19.937535,0 0,-8.726718 -23.476462,0 -9.554751,-23.476467 z" />
  </g>
</svg>
