/* XPM */
static char *dummy[]={
"16 16 13 1",
". c None",
"# c #000000",
"e c #0000a5",
"h c #0000b2",
"c c #0000cc",
"d c #0000cd",
"g c #0000d3",
"b c #0000db",
"k c #0000e8",
"f c #0000e9",
"j c #0000eb",
"a c #0000ec",
"i c #0000ff",
"......####......",
"........#.......",
"...########.....",
"...##########...",
"...###########..",
"............##..",
"............##..",
".....aaab...##..",
"....caaad...##..",
"....eaaaa...##..",
".....faag.......",
".....gaah....i..",
".....gaa.....i..",
"......jk........",
"............ii..",
"................"};
