/* XPM */
static char * potable_water_xpm[] = {
"24 32 43 1",
" 	c None",
".	c #000000",
"+	c #00008B",
"@	c #0000EC",
"#	c #0000D3",
"$	c #000004",
"%	c #00005E",
"&	c #0000C2",
"*	c #000002",
"=	c #000016",
"-	c #0000DA",
";	c #0000B5",
">	c #000003",
",	c #0000BE",
"'	c #0000A7",
")	c #0000B0",
"!	c #000090",
"~	c #00009B",
"{	c #000063",
"]	c #000070",
"^	c #0000E0",
"/	c #000025",
"(	c #000023",
"_	c #0000E1",
":	c #0000C7",
"<	c #0000FF",
"[	c #0000C3",
"}	c #0000B8",
"|	c #0000B3",
"1	c #0000AC",
"2	c #0000A1",
"3	c #000098",
"4	c #00007E",
"5	c #000074",
"6	c #000035",
"7	c #0000E6",
"8	c #0000EB",
"9	c #0000E5",
"0	c #000036",
"a	c #000046",
"b	c #00004D",
"c	c #000048",
"d	c #000001",
"........................",
"........................",
"........................",
"........................",
"........................",
"........................",
"........................",
"........................",
"........................",
"........................",
"........................",
"........................",
"........................",
"........................",
"....+@@@@@@@@#$.........",
"....%@@@@@@@@&*.........",
"....=-@@@@@@@;..........",
"....>,@@@@@@@'..........",
".....)@@@@@@@!..........",
".....~@@@@@@@{..........",
".....]@@@@@@^/..........",
".....(_@@@@@:>.....<<<<<",
".....*[@@@@@}......<<<<<",
"......|@@@@@1......<<<<<",
"......2@@@@@3......<<<<<",
"......4@@@@@5......<<<<<",
"......6788890......<<<<<",
"......$abbbcd......<<<<<",
"...................<<<<<",
"...................<<<<<",
"...................<<<<<",
"........................"};
