<?xml version="1.0" encoding="UTF-8" standalone="no"?>
<!-- Created with Inkscape (http://www.inkscape.org/) -->

<svg
   xmlns:dc="http://purl.org/dc/elements/1.1/"
   xmlns:cc="http://creativecommons.org/ns#"
   xmlns:rdf="http://www.w3.org/1999/02/22-rdf-syntax-ns#"
   xmlns:svg="http://www.w3.org/2000/svg"
   xmlns="http://www.w3.org/2000/svg"
   xmlns:sodipodi="http://sodipodi.sourceforge.net/DTD/sodipodi-0.dtd"
   xmlns:inkscape="http://www.inkscape.org/namespaces/inkscape"
   width="100"
   height="100"
   id="svg2"
   sodipodi:version="0.32"
   inkscape:version="0.91 r13725"
   version="1.0"
   sodipodi:docname="public_office.svg"
   inkscape:output_extension="org.inkscape.output.svg.inkscape"
   inkscape:export-filename="/home/jeff/navit/icons/png/post.png"
   inkscape:export-xdpi="90"
   inkscape:export-ydpi="90">
  <defs
     id="defs4">
    <inkscape:perspective
       sodipodi:type="inkscape:persp3d"
       inkscape:vp_x="0 : 526.18109 : 1"
       inkscape:vp_y="0 : 1000 : 0"
       inkscape:vp_z="744.09448 : 526.18109 : 1"
       inkscape:persp3d-origin="372.04724 : 350.78739 : 1"
       id="perspective10" />
  </defs>
  <sodipodi:namedview
     id="base"
     pagecolor="#f4ca00"
     bordercolor="#666666"
     borderopacity="1.0"
     inkscape:pageopacity="0"
     inkscape:pageshadow="2"
     inkscape:zoom="5.6568542"
     inkscape:cx="67.651727"
     inkscape:cy="74.753525"
     inkscape:document-units="px"
     inkscape:current-layer="layer1"
     showgrid="true"
     inkscape:window-width="943"
     inkscape:window-height="682"
     inkscape:window-x="114"
     inkscape:window-y="134"
     inkscape:window-maximized="0">
    <inkscape:grid
       type="xygrid"
       id="grid2380"
       visible="true"
       enabled="true" />
  </sodipodi:namedview>
  <metadata
     id="metadata7">
    <rdf:RDF>
      <cc:Work
         rdf:about="">
        <dc:format>image/svg+xml</dc:format>
        <dc:type
           rdf:resource="http://purl.org/dc/dcmitype/StillImage" />
        <dc:title />
        <dc:description>jfitie@gmail.com</dc:description>
        <cc:license
           rdf:resource="http://creativecommons.org/publicdomain/zero/1.0/" />
      </cc:Work>
      <cc:License
         rdf:about="http://creativecommons.org/publicdomain/zero/1.0/">
        <cc:permits
           rdf:resource="http://creativecommons.org/ns#Reproduction" />
        <cc:permits
           rdf:resource="http://creativecommons.org/ns#Distribution" />
        <cc:permits
           rdf:resource="http://creativecommons.org/ns#DerivativeWorks" />
      </cc:License>
    </rdf:RDF>
  </metadata>
  <g
     inkscape:label="Calque 1"
     inkscape:groupmode="layer"
     id="layer1"
     transform="translate(0,78)">
    <path
       style="fill:#ffffff;stroke:#ffffff;stroke-width:0.95520186"
       d="m 32.036151,-77.499567 c -6.591122,0.671956 -5.621382,8.772593 -5.464433,13.436261 -0.184268,1.76016 1.352671,5.982305 -2.018609,4.675264 -5.926703,0.975443 -5.922586,8.306703 -6.330075,12.43628 -6.903358,2.507147 -8.4554276,10.727912 -7.479221,17.17306 -0.09678,17.100205 -0.01299,34.2007447 -0.04117,51.301103 l 79.281755,0 0,-56.22259 C 90,-36 87,-41 82.008834,-42.422014 81,-42.518493 73,-43.999984 69.865458,-40.116107 c -1.734952,1.643607 -1.289503,5.017532 -4.404741,4.026023 -5.905584,0.509629 -5.861348,7.85473 -4.680871,11.979206 -2.103451,1.180037 -7.86242,1.541361 -6.710666,-2.35442 0.561248,-6.93508 1.030519,-17.519808 -7.201324,-20.098414 -2.331132,-2.075051 0.74394,-6.301619 -1.468251,-8.865467 -1.379922,-2.697633 -4.526434,-4.131238 -7.287139,-4.408476 -0.294527,-5.376306 2.321513,-13.446568 -3.238736,-17.176841 -0.88487,-0.390362 -1.873695,-0.574267 -2.837618,-0.485071 z m -1.414148,28.848214 c 1.154658,1.016402 5.976058,-0.347101 2.759263,1.522353 -0.943596,0.03582 -5.147019,-0.430013 -2.759263,-1.522353 z m -8.197571,22.684174 c 2.263561,0.40725 -0.618617,2.922879 -0.113803,1.026097 0.712476,1.559596 -0.307718,-1.765433 0.113803,-1.026097 z m 20.111479,1.947714 c -2.678768,-1.017233 1.375606,-3.49688 0,0 z M 32.48203,-25.857102 c 2.194681,0.907308 -0.763465,2.317511 -0.981317,0.74438 0.355392,-0.175127 0.693275,-0.652527 0.981317,-0.74438 z m -10.057598,11.829946 c 2.45763,0.735209 -1.294642,3.271557 -0.16418,0.367533 l 0,-0.563426 z m 20.135732,1.975701 c -1.304386,-0.844302 -1.279044,-1.224969 -0.0038,-2.100699 9.55e-4,0.70023 0.0029,1.40047 0.0038,2.100699 z M 32.48203,-13.917078 c 2.194557,0.906973 -0.763608,2.317682 -0.981317,0.744379 0.355392,-0.175127 0.693275,-0.652527 0.981317,-0.744379 z m 10.100514,13.83363415 c -1.328218,-0.87112499 -1.297422,-1.25467675 -0.0038,-2.15667385 9.56e-4,0.7188945 0.0029,1.43777938 0.0038,2.15667385 z M 22.424432,-2.0871326 c 2.547447,0.8886434 -1.647933,3.4183332 -0.108205,-0.128723 z m 10.057598,0.1100775 c 2.194557,0.9069737 -0.763608,2.31768267 -0.981317,0.7443792 0.355392,-0.1751267 0.693275,-0.652527 0.981317,-0.7443792 z M 42.603072,9.9629681 c -0.660475,0.3162009 0.327691,-0.7777253 0,0 z M 22.424432,9.8528907 c 0.249747,0.4758723 -0.511625,-0.4395075 0,0 z m 10.053872,0.1044799 c -0.170293,0.1178814 -0.05225,-0.1356577 0,0 z"
       id="path3347-3"
       inkscape:connector-curvature="0"
       sodipodi:nodetypes="ccccccccccccccccccccccccccccccccccccccccccccccccccccccc" />
    <path
       style="fill:#000000"
       d="m 14.545276,-9.1564096 c 0,-29.8306964 -0.04871,-28.4445934 1.067381,-30.3494854 1.17101,-1.998569 3.565835,-3.607439 5.780805,-3.8836 l 1.080744,-0.134746 0.09332,-4.680098 0.09332,-4.680095 0.510011,-0.729694 c 0.280514,-0.40133 0.819678,-0.939575 1.198139,-1.196099 0.641389,-0.434733 0.869663,-0.47051 3.361164,-0.526811 l 2.673037,-0.06041 0,-8.014431 c 0,-8.600942 0.03162,-8.917328 0.954619,-9.56385 0.557169,-0.390255 1.63798,-0.390255 2.195149,0 0.923041,0.646522 0.95462,0.962908 0.95462,9.56385 l 0,8.014431 2.673036,0.06041 c 2.491511,0.0563 2.719775,0.09208 3.361165,0.526811 0.37846,0.256524 0.917624,0.794769 1.198138,1.196099 l 0.510021,0.729694 0.09332,4.680095 0.09332,4.680098 1.080735,0.134746 c 3.112019,0.388005 5.922977,2.982004 6.650325,6.137026 0.112045,0.485997 0.190591,4.250123 0.193295,9.262917 l 0.0048,8.444243 6.949466,-0.04891 6.949475,-0.04891 0.04929,-5.923369 0.04929,-5.923369 3.915201,0 3.9152,0 0,-2.985006 0,-2.985006 5.965274,0 5.965274,0 0.05139,2.938364 0.05139,2.938363 0.979454,0.05636 0.979454,0.05636 0,24.803115 0,24.803106 -35.820069,0 -35.82007,0 0,-27.2922569 z m 31.858857,-2.0594344 -0.04986,-25.433883 -0.562566,-0.909877 c -0.409552,-0.662395 -0.833986,-1.051668 -1.560446,-1.43117 l -0.99788,-0.521301 -10.77804,0 -10.778039,0 -0.997871,0.521301 c -0.726469,0.379511 -1.150894,0.768775 -1.560446,1.431179 l -0.562576,0.909887 -0.04929,25.433874 -0.04929,25.433863 13.998082,0 13.998073,0 -0.04986,-25.433873 z M 25.436946,7.8917562 C 24.727537,7.4591835 24.433115,6.6782391 24.433115,5.2291788 c 0,-2.2594059 0.723575,-2.9511726 3.086878,-2.9511726 2.402342,0 2.883133,0.5179104 2.883133,3.1057242 0,1.5659197 -0.01184,1.6074806 -0.634321,2.2299761 -0.620241,0.6202412 -0.668861,0.6342922 -2.192111,0.633614 -1.201845,-5.636e-4 -1.690775,-0.081765 -2.139748,-0.3555643 z m 9.970913,0.036871 c -0.7143,-0.4431373 -0.900354,-0.993964 -0.900354,-2.6655863 0,-2.4566455 0.510335,-2.9850059 2.883133,-2.9850059 2.373715,0 3.086878,0.6896271 3.086878,2.9850059 0,1.4174622 -0.365173,2.3151514 -1.095416,2.6927713 -0.790009,0.4085303 -3.299582,0.3913653 -3.974241,-0.027223 z M 25.436946,-4.0482384 c -0.709409,-0.4325727 -1.003831,-1.2135171 -1.003831,-2.6625774 0,-2.2594059 0.723575,-2.9511726 3.086878,-2.9511726 2.402342,0 2.883133,0.5179104 2.883133,3.1057242 0,1.5659197 -0.01184,1.6074806 -0.634321,2.2299761 -0.620241,0.6202412 -0.668861,0.6342922 -2.192111,0.633614 -1.201845,-5.635e-4 -1.690775,-0.081765 -2.139748,-0.3555643 z m 9.970913,0.036871 c -0.7143,-0.4431373 -0.900354,-0.993964 -0.900354,-2.6655863 0,-2.4566455 0.510335,-2.9850059 2.883133,-2.9850059 2.373715,0 3.086878,0.6896271 3.086878,2.9850059 0,1.4174622 -0.365173,2.3151514 -1.095416,2.6927713 -0.790009,0.4085303 -3.299582,0.3913653 -3.974241,-0.027223 z M 25.436946,-15.988233 c -0.709409,-0.432573 -1.003831,-1.213517 -1.003831,-2.662577 0,-2.259406 0.723575,-2.951173 3.086878,-2.951173 2.402342,0 2.883133,0.51791 2.883133,3.105724 0,1.56592 -0.01184,1.607481 -0.634321,2.229976 -0.620241,0.620242 -0.668861,0.634293 -2.192111,0.633614 -1.201845,-5.63e-4 -1.690775,-0.08177 -2.139748,-0.355564 z m 9.970913,0.03687 c -0.7143,-0.443137 -0.900354,-0.993964 -0.900354,-2.665587 0,-2.456645 0.510335,-2.985005 2.883133,-2.985005 2.373715,0 3.086878,0.689627 3.086878,2.985005 0,1.417463 -0.365173,2.315152 -1.095416,2.692772 -0.790009,0.40853 -3.299582,0.391365 -3.974241,-0.02722 z m -9.970913,-11.976866 c -0.709409,-0.432572 -1.003831,-1.213517 -1.003831,-2.662577 0,-2.259406 0.723575,-2.951173 3.086878,-2.951173 2.402342,0 2.883133,0.517911 2.883133,3.105725 0,1.565919 -0.01184,1.60748 -0.634321,2.229976 -0.620241,0.620241 -0.668861,0.634292 -2.192111,0.633614 -1.201845,-5.64e-4 -1.690775,-0.08177 -2.139748,-0.355565 z m 9.970913,0.03687 c -0.7143,-0.443137 -0.900354,-0.993964 -0.900354,-2.665586 0,-2.456646 0.510335,-2.985006 2.883133,-2.985006 2.373715,0 3.086878,0.689627 3.086878,2.985006 0,1.417462 -0.365173,2.315151 -1.095416,2.692771 -0.790009,0.408531 -3.299582,0.391366 -3.974241,-0.02722 z m 28.949704,27.184472 0,-14.925029 -6.996109,0 -6.996108,0 0,14.925029 0,14.925029 6.996108,0 6.996109,0 0,-14.925029 z M 55.287004,7.8918708 C 54.577595,7.4592981 54.283173,6.6783537 54.283173,5.2292934 c 0,-2.2594058 0.723575,-2.9511726 3.086878,-2.9511726 2.402342,0 2.883134,0.5179105 2.883134,3.1057242 0,1.5659198 -0.01185,1.6074806 -0.634321,2.2299761 -0.620242,0.6202412 -0.668861,0.6342922 -2.192112,0.633614 -1.201845,-5.635e-4 -1.690774,-0.081765 -2.139748,-0.3555643 z m 0,-11.9400233 c -0.709409,-0.4325727 -1.003831,-1.2135171 -1.003831,-2.6625774 0,-2.2594058 0.723575,-2.9511725 3.086878,-2.9511725 2.402342,0 2.883134,0.5179104 2.883134,3.1057242 0,1.5659197 -0.01185,1.6074805 -0.634321,2.229976 -0.620242,0.6202413 -0.668861,0.6342923 -2.192112,0.6336141 -1.201845,-5.636e-4 -1.690774,-0.081765 -2.139748,-0.3555644 z m 26.980594,-2.6287441 0,-20.8950404 -6.996109,0 -6.996109,0 0,20.8950404 0,20.8950406 6.996109,0 6.996109,0 0,-20.8950406 z M 73.197039,7.8918708 C 72.48763,7.4592981 72.193208,6.6783537 72.193208,5.2292934 c 0,-2.2594058 0.723575,-2.9511726 3.086878,-2.9511726 2.402342,0 2.883133,0.5179105 2.883133,3.1057242 0,1.5659198 -0.01184,1.6074806 -0.634321,2.2299761 -0.620241,0.6202412 -0.668861,0.6342922 -2.192111,0.633614 -1.201845,-5.635e-4 -1.690775,-0.081765 -2.139748,-0.3555643 z m 0,-11.9400233 c -0.709409,-0.4325727 -1.003831,-1.2135171 -1.003831,-2.6625774 0,-2.2594058 0.723575,-2.9511725 3.086878,-2.9511725 2.402342,0 2.883133,0.5179104 2.883133,3.1057242 0,1.5659197 -0.01184,1.6074805 -0.634321,2.229976 -0.620241,0.6202413 -0.668861,0.6342923 -2.192111,0.6336141 -1.201845,-5.636e-4 -1.690775,-0.081765 -2.139748,-0.3555644 z m 0,-11.9400235 c -0.709409,-0.432572 -1.003831,-1.213517 -1.003831,-2.662577 0,-2.259406 0.723575,-2.951173 3.086878,-2.951173 2.402342,0 2.883133,0.517911 2.883133,3.105725 0,1.565919 -0.01184,1.60748 -0.634321,2.229976 -0.620241,0.620241 -0.668861,0.634292 -2.192111,0.633614 -1.201845,-5.64e-4 -1.690775,-0.08177 -2.139748,-0.355565 z m -34.771717,-30.818505 0,-3.376787 -0.634311,-0.634314 -0.634311,-0.634314 -4.701389,0 -4.70138,0 -0.634311,0.634314 -0.634321,0.634314 0,3.376787 0,3.376788 5.970012,0 5.970011,0 0,-3.376788 z"
       id="path3347"
       inkscape:connector-curvature="0" />
  </g>
</svg>
