<?xml version="1.0" encoding="UTF-8" standalone="no"?>
<!-- Created with Inkscape (http://www.inkscape.org/) -->

<svg
   xmlns:dc="http://purl.org/dc/elements/1.1/"
   xmlns:cc="http://creativecommons.org/ns#"
   xmlns:rdf="http://www.w3.org/1999/02/22-rdf-syntax-ns#"
   xmlns:svg="http://www.w3.org/2000/svg"
   xmlns="http://www.w3.org/2000/svg"
   version="1.0"
   width="22"
   height="22"
   id="svg2">
  <defs
     id="defs22">
    <marker
       markerUnits="strokeWidth"
       refX="10"
       refY="5"
       markerWidth="4"
       markerHeight="3"
       orient="auto"
       viewBox="0 0 10 10"
       id="ArrowStart">
      <path
         d="M 10,0 0,5 10,10 z"
         id="path3568" />
    </marker>
    <marker
       markerUnits="strokeWidth"
       refX="0"
       refY="5"
       markerWidth="4"
       markerHeight="3"
       orient="auto"
       viewBox="0 0 10 10"
       id="ArrowEnd">
      <path
         d="M 0,0 10,5 0,10 z"
         id="path3565" />
    </marker>
  </defs>
  <metadata
     id="metadata10">
    <rdf:RDF>
      <cc:Work
         rdf:about="">
        <dc:format>image/svg+xml</dc:format>
        <dc:type
           rdf:resource="http://purl.org/dc/dcmitype/StillImage" />
        <cc:license
           rdf:resource="http://web.resource.org/cc/PublicDomain" />
        <dc:language>en</dc:language>
        <dc:title></dc:title>
      </cc:Work>
    </rdf:RDF>
  </metadata>
  <g
     transform="matrix(0.03543117,0,0,0.03543117,32.15603,1.9567887)"
     id="g2319">
    <path
       d=""
       id="path2323"
       style="fill:#ffffff;stroke:none" />
  </g>
  <g
     transform="matrix(0.03543117,0,0,0.03543117,32.15603,1.9567887)"
     id="g2325">
    <path
       d=""
       id="path2329"
       style="fill:#ffffff;stroke:none" />
  </g>
  <g
     transform="matrix(0.04942432,0,0,0.04942432,-3.9923488,-5.4054936)"
     id="g3574"
     style="fill:#000000">
    <g
       id="g3576"
       style="fill:#000000">
      <path
         d="M 295.5625,77.1875 213.03125,77.25 c -38.43866,-1.1e-5 -66.71875,30.86801 -66.71875,64.5 l 0,238.21875 c 3e-5,32.58264 25.49108,59.30702 51.125,63.4375 l -76.875,115.3125 44.375,0 54.96875,-80.59375 75.28125,0 0.0625,0 0.0625,0 75.28125,0 54.96875,80.59375 44.375,0 -76.875,-115.3125 c 25.63388,-4.1305 51.15625,-30.85484 51.15625,-63.4375 l 0,-238.21875 c -4e-5,-33.63196 -28.31137,-64.5 -66.75,-64.5 L 295.5625,77.1875 z M 262.875,91 l 32.3125,0 0.0625,0 0.0625,0 32.3125,0 c 5.84817,0 10.9375,4.90183 10.9375,10.75 l 0,18.9375 c 0,5.84817 -4.81084,10.875 -10.9375,10.875 l -32.3125,0 -0.0625,0 -0.0625,0 -32.3125,0 c -6.12665,0 -10.9375,-5.02683 -10.9375,-10.875 l 0,-18.9375 c 0,-5.84817 5.08932,-10.749997 10.9375,-10.75 z m -47.625,53.40625 79.9375,0 0.125,0 79.9375,0 c 21.72176,1e-5 33.25001,15.552 33.25,33.375 l 0,42.875 c 0.16931,20.60784 -14.87004,33.25 -33.25,33.25 l -79.9375,0 -0.0625,0 -0.0625,0 -79.9375,0 c -18.37997,0 -33.41932,-12.64216 -33.25,-33.25 l 0,-42.875 c -1e-5,-17.823 11.52822,-33.375 33.25,-33.375 z m -3.625,205.75 c 16.15766,-3e-5 29.28125,13.09234 29.28125,29.25 0,16.1565 -13.12359,29.25 -29.28125,29.25 -16.15769,-2e-5 -29.25,-13.09346 -29.25,-29.25 -4e-5,-16.1577 13.09234,-29.25 29.25,-29.25 z m 166.5625,0 c 16.15764,-2e-5 29.25,13.09233 29.25,29.25 -2e-5,16.15652 -13.09233,29.25001 -29.25,29.25 -16.15768,-2e-5 -29.25001,-13.09347 -29.25,-29.25 -2e-5,-16.15768 13.09235,-29.25 29.25,-29.25 z"
         transform="matrix(0.8977168,0,0,0.8977168,40.710583,46.777129)"
         id="path3578"
         style="fill:#000000;stroke:none" />
    </g>
    <g
       id="g3584"
       style="fill:#000000" />
  </g>
</svg>
