<?xml version="1.0" encoding="UTF-8" standalone="no"?>
<!-- Created with Inkscape (http://www.inkscape.org/) -->

<svg
   xmlns:dc="http://purl.org/dc/elements/1.1/"
   xmlns:cc="http://creativecommons.org/ns#"
   xmlns:rdf="http://www.w3.org/1999/02/22-rdf-syntax-ns#"
   xmlns:svg="http://www.w3.org/2000/svg"
   xmlns="http://www.w3.org/2000/svg"
   xmlns:xlink="http://www.w3.org/1999/xlink"
   xmlns:sodipodi="http://sodipodi.sourceforge.net/DTD/sodipodi-0.dtd"
   xmlns:inkscape="http://www.inkscape.org/namespaces/inkscape"
   width="100"
   height="100"
   id="svg2"
   sodipodi:version="0.32"
   inkscape:version="0.91 r13725"
   version="1.0"
   sodipodi:docname="school.svg"
   inkscape:output_extension="org.inkscape.output.svg.inkscape"
   inkscape:export-filename="/home/jeff/projets/navit/icons/png/police.png"
   inkscape:export-xdpi="90"
   inkscape:export-ydpi="90">
  <defs
     id="defs4">
    <linearGradient
       id="linearGradient3155">
      <stop
         id="stop3163"
         offset="0"
         style="stop-color:#000000;stop-opacity:1;" />
      <stop
         style="stop-color:#0000ff;stop-opacity:0.74901962;"
         offset="1"
         id="stop3171" />
      <stop
         style="stop-color:#0000ff;stop-opacity:0.49803922;"
         offset="1"
         id="stop3165" />
    </linearGradient>
    <inkscape:perspective
       sodipodi:type="inkscape:persp3d"
       inkscape:vp_x="0 : 526.18109 : 1"
       inkscape:vp_y="0 : 1000 : 0"
       inkscape:vp_z="744.09448 : 526.18109 : 1"
       inkscape:persp3d-origin="372.04724 : 350.78739 : 1"
       id="perspective10" />
    <inkscape:perspective
       id="perspective3181"
       inkscape:persp3d-origin="372.04724 : 350.78739 : 1"
       inkscape:vp_z="744.09448 : 526.18109 : 1"
       inkscape:vp_y="0 : 1000 : 0"
       inkscape:vp_x="0 : 526.18109 : 1"
       sodipodi:type="inkscape:persp3d" />
    <linearGradient
       inkscape:collect="always"
       xlink:href="#linearGradient3155"
       id="linearGradient3173"
       x1="1.6414979"
       y1="10.983024"
       x2="19.824244"
       y2="10.983024"
       gradientUnits="userSpaceOnUse"
       gradientTransform="matrix(4.0143712,0,0,4.0143564,4.3700298,-78.815764)" />
  </defs>
  <sodipodi:namedview
     id="base"
     pagecolor="#f4ca00"
     bordercolor="#666666"
     borderopacity="1.0"
     inkscape:pageopacity="1"
     inkscape:pageshadow="2"
     inkscape:zoom="2.8284271"
     inkscape:cx="31.918419"
     inkscape:cy="53.448586"
     inkscape:document-units="px"
     inkscape:current-layer="layer1"
     showgrid="true"
     inkscape:window-width="1130"
     inkscape:window-height="766"
     inkscape:window-x="284"
     inkscape:window-y="45"
     showguides="true"
     inkscape:guide-bbox="true"
     inkscape:window-maximized="0">
    <inkscape:grid
       type="xygrid"
       id="grid2380"
       visible="true"
       enabled="true" />
  </sodipodi:namedview>
  <metadata
     id="metadata7">
    <rdf:RDF>
      <cc:Work
         rdf:about="">
        <dc:format>image/svg+xml</dc:format>
        <dc:type
           rdf:resource="http://purl.org/dc/dcmitype/StillImage" />
        <dc:title />
        <dc:description>jfitie@gmail.com</dc:description>
        <cc:license
           rdf:resource="http://creativecommons.org/publicdomain/zero/1.0/" />
      </cc:Work>
      <cc:License
         rdf:about="http://creativecommons.org/publicdomain/zero/1.0/">
        <cc:permits
           rdf:resource="http://creativecommons.org/ns#Reproduction" />
        <cc:permits
           rdf:resource="http://creativecommons.org/ns#Distribution" />
        <cc:permits
           rdf:resource="http://creativecommons.org/ns#DerivativeWorks" />
      </cc:License>
    </rdf:RDF>
  </metadata>
  <g
     inkscape:label="Calque 1"
     inkscape:groupmode="layer"
     id="layer1"
     transform="translate(0,78)">
    <path
       style="fill:#ffffff;fill-opacity:1;fill-rule:evenodd;stroke:#ffffff;stroke-width:0.81724006px;stroke-linecap:butt;stroke-linejoin:miter;stroke-opacity:1"
       d="M 49.173682,-66.047165 C 34.371042,-59.670384 19.449327,-53.547074 4.2349111,-48.216134 0,-43 0,-43 13.415074,-36.641774 c 2.133594,1.124935 6.095682,1.631849 7.013557,3.189017 -2.438926,5.609861 -3.190458,11.772773 -3.414243,17.835822 11.103925,10.0870627 26.782392,14.8086489 41.556,11.9207546 1.970802,-0.1033449 4.068994,-0.4503161 5.900374,-0.8414336 -1.254069,3.2654026 -1.968457,6.701488 -2.795216,10.090836 4.277884,0.1779907 8.522807,2.5469342 12.69971,2.1989369 2.297376,4.2050481 9.540857,3.6312761 10.097543,-1.5569807 1.774232,-5.57197274 -0.06682,-11.450515 -2.565472,-16.3730582 -0.812356,-2.694066 -0.282717,-5.217095 2.104384,-6.713384 3.631882,-5.815762 -0.902204,-12.241596 -1.448653,-18.247824 -0.958225,-2.50441 -2.846833,-5.440693 0.431068,-7.186548 4.817692,-5.208239 9.715079,-10.341935 14.427265,-15.647582 -16.106242,-1.828241 -31.93703,-7.637634 -48.247709,-8.073947 z"
       id="path3197-3"
       inkscape:connector-curvature="0"
       sodipodi:nodetypes="cccccccccccccccc" />
    <path
       style="fill:url(#linearGradient3173);fill-opacity:1;fill-rule:evenodd;stroke:none;stroke-width:1px;stroke-linecap:butt;stroke-linejoin:miter;stroke-opacity:1"
       d="m 10.959612,-45.243939 40.804718,-15.206671 32.187574,6.082667 -10.644712,13.686005 4.308573,8.36367 2.534457,12.165337 -16.473956,10.6446684 -24.330763,0.5068888 -17.234291,-9.1240012 1.520672,-9.630895 5.322355,-10.391222 -17.994627,-7.096447 z"
       id="path3197"
       inkscape:connector-curvature="0" />
    <path
       id="path3187"
       style="fill:none;fill-opacity:1;fill-rule:nonzero;stroke:#000000;stroke-width:5.22670174;stroke-linecap:butt;stroke-linejoin:miter;stroke-miterlimit:4;stroke-dasharray:none;stroke-opacity:1;marker-start:none"
       d="m 29.102717,-37.59846 c 0,0 -2.585846,1.616148 -5.818153,10.989802 -1.803648,5.230558 0,9.373659 0,9.373659 0,0 10.015412,8.5428792 22.302917,8.7271944 25.535227,0.387867 33.292766,-11.6362624 33.292766,-11.6362624 0,0 1.015062,-3.444173 -1.292925,-11.95949 -2.376937,-8.769716 -3.878769,-8.403972 -3.878769,-8.403972 m -63.029987,-3.814106 49.454299,17.389745 25.858456,-27.797735 -34.521039,-6.78782 -40.791716,17.19581 z m 55.91891,12.218078 c 0,0 5.936155,3.880441 8.404002,12.929178 2.909074,10.6665744 0.228538,13.4479051 0.228538,13.4479051 0,0 5.17169,3.6201748 4.525231,7.822158 m -5.818152,0.9050406 c 0,0 3.87877,-4.5252111 1.292921,-10.0201145 0,0 -3.232304,2.909068 -4.848461,9.1150739"
       sodipodi:nodetypes="cscscscccccccsccccc"
       inkscape:connector-curvature="0" />
  </g>
</svg>
