/* XPM */
static char * shelter_xpm[] = {
"16 16 24 1",
" 	c None",
".	c #FFFFFF",
"+	c #6E6E6E",
"@	c #373737",
"#	c #303030",
"$	c #444444",
"%	c #7D7D7D",
"&	c #353535",
"*	c #080808",
"=	c #000000",
"-	c #6C6C6C",
";	c #525252",
">	c #121212",
",	c #333333",
"'	c #727272",
")	c #505050",
"!	c #111111",
"~	c #0A0A0A",
"{	c #101010",
"]	c #414141",
"^	c #010101",
"/	c #313131",
"(	c #202020",
"_	c #2E2E2E",
"................",
"................",
"................",
"................",
"................",
"......+@#$......",
"....%&*==*&-....",
"...;>======*,'..",
".)!==~{]]{{^==/.",
".(_@=).....*@_(.",
"...)=).....*)...",
"...)=).....*)...",
"...)=).....*)...",
"...)=).....*)...",
"...)=).....*)...",
"................"};
