/* XPM */
static char *tower[] = {
"10 16 12 1",
" 	c None",
".	c #797979",
"+	c #AEAEAE",
"@	c #000000",
"#	c #1B1B1B",
"$	c #D7D7D7",
"%	c #363636",
"&	c #404040",
"*	c #262626",
"=	c #1E1E1E",
"-	c #131313",
";	c #141414",
"          ",
"    ..    ",
"   +@@+   ",
"   +##+   ",
"   $@@$   ",
"    @@    ",
"    @@    ",
"    %%    ",
"    &%    ",
"    #*    ",
"    ==    ",
"    -;    ",
"    **    ",
"    --    ",
"    @@    ",
"    @@    "};
