/* XPM */
static char * traffic_signals_xpm[] = {
"16 16 120 2",
"  	c None",
". 	c #FBF9F9",
"+ 	c #D2D2D2",
"@ 	c #CCCCCC",
"# 	c #C5C2C2",
"$ 	c #C4BFBD",
"% 	c #D3CFC9",
"& 	c #DDDDDC",
"* 	c #FFFEFC",
"= 	c #F0EFEF",
"- 	c #2D2B2B",
"; 	c #3D1618",
"> 	c #5F0101",
", 	c #5F0205",
"' 	c #42221E",
") 	c #5B5A59",
"! 	c #EEECEC",
"~ 	c #0C0505",
"{ 	c #8C0007",
"] 	c #E90002",
"^ 	c #E80103",
"/ 	c #5A0202",
"( 	c #433D3A",
"_ 	c #F0EDED",
": 	c #490E0D",
"< 	c #CF0006",
"[ 	c #F70301",
"} 	c #F20200",
"| 	c #9A0300",
"1 	c #483937",
"2 	c #EFEAEA",
"3 	c #250A09",
"4 	c #8B0202",
"5 	c #E70401",
"6 	c #E00004",
"7 	c #520002",
"8 	c #4D3E3F",
"9 	c #FCFAFA",
"0 	c #EDE4E4",
"a 	c #0D0606",
"b 	c #1F0603",
"c 	c #843B01",
"d 	c #652703",
"e 	c #110302",
"f 	c #423939",
"g 	c #F9F8F8",
"h 	c #EEE8E9",
"i 	c #171408",
"j 	c #8D9202",
"k 	c #E7ED02",
"l 	c #E1E602",
"m 	c #5F5900",
"n 	c #5C4644",
"o 	c #F7F6F6",
"p 	c #EFE9E9",
"q 	c #362F06",
"r 	c #C8CB02",
"s 	c #F9FE02",
"t 	c #F8FD03",
"u 	c #ABB100",
"v 	c #635045",
"w 	c #F8F8F8",
"x 	c #2C2509",
"y 	c #B9BE04",
"z 	c #F5FF03",
"A 	c #F8FE02",
"B 	c #929C00",
"C 	c #624E48",
"D 	c #EEE9E9",
"E 	c #110906",
"F 	c #4C5001",
"G 	c #BBC401",
"H 	c #A1A603",
"I 	c #2D2D05",
"J 	c #5F494C",
"K 	c #0C0908",
"L 	c #013703",
"M 	c #058301",
"N 	c #017306",
"O 	c #002303",
"P 	c #5E464A",
"Q 	c #081C04",
"R 	c #029A07",
"S 	c #02D204",
"T 	c #02D104",
"U 	c #027403",
"V 	c #524843",
"W 	c #FCFCFC",
"X 	c #EFEBE9",
"Y 	c #0C2906",
"Z 	c #02AB03",
"` 	c #00D108",
" .	c #02D307",
"..	c #029705",
"+.	c #383E37",
"@.	c #FDFDFD",
"#.	c #EFEDEB",
"$.	c #0A170A",
"%.	c #067905",
"&.	c #02C005",
"*.	c #02B704",
"=.	c #095003",
"-.	c #4A3F3E",
";.	c #F7F7F7",
">.	c #F1EEEB",
",.	c #252321",
"'.	c #0B1A07",
").	c #104809",
"!.	c #123F09",
"~.	c #101208",
"{.	c #565454",
"].	c #FEFEFE",
"^.	c #FCFAF8",
"/.	c #CCCAC8",
"(.	c #C4C2C1",
"_.	c #C5C1C1",
":.	c #C6C2C2",
"<.	c #C4C3C3",
"[.	c #DCDBDB",
"}.	c #FFFEFE",
"        . + @ # $ % & *         ",
"        = - ; > , ' )           ",
"        ! ~ { ] ^ / (           ",
"        _ : < [ } | 1           ",
"        2 3 4 5 6 7 8 9         ",
"        0 a b c d e f g         ",
"        h i j k l m n o         ",
"        p q r s t u v w         ",
"        p x y z A B C           ",
"        D E F G H I J           ",
"        D K L M N O P           ",
"        D Q R S T U V W         ",
"        X Y Z `  ...+.@.        ",
"        #.$.%.&.*.=.-.;.        ",
"        >.,.'.).!.~.{.].        ",
"        ^./.(._.:.<.[.}.        "};
