/* XPM */
static char *noname[] = {
/* width height ncolors chars_per_pixel */
"13 14 3 1",
/* colors */
"  c yellow",
". c blue",
"X c None",
/* pixels */
"             ",
" ........... ",
" ...     ... ",
" .. ..... .. ",
" ........ .. ",
" ........ .. ",
" ......  ... ",
" ..... ..... ",
" ..... ..... ",
" ........... ",
" ..... ..... ",
" ........... ",
" ........... ",
"             "
};
