<?xml version="1.0" encoding="UTF-8" standalone="no"?>
<!-- Created with Inkscape (http://www.inkscape.org/) -->

<svg
   xmlns:dc="http://purl.org/dc/elements/1.1/"
   xmlns:cc="http://creativecommons.org/ns#"
   xmlns:rdf="http://www.w3.org/1999/02/22-rdf-syntax-ns#"
   xmlns:svg="http://www.w3.org/2000/svg"
   xmlns="http://www.w3.org/2000/svg"
   xmlns:sodipodi="http://sodipodi.sourceforge.net/DTD/sodipodi-0.dtd"
   xmlns:inkscape="http://www.inkscape.org/namespaces/inkscape"
   version="1.1"
   width="100"
   height="100"
   id="svg2"
   inkscape:version="0.91 r13725"
   sodipodi:docname="viewpoint.svg">
  <metadata
     id="metadata7">
    <rdf:RDF>
      <cc:Work
         rdf:about="">
        <dc:format>image/svg+xml</dc:format>
        <dc:type
           rdf:resource="http://purl.org/dc/dcmitype/StillImage" />
        <dc:title></dc:title>
        <dc:description>jfitie@gmail.com</dc:description>
        <cc:license
           rdf:resource="http://creativecommons.org/publicdomain/zero/1.0/" />
      </cc:Work>
      <cc:License
         rdf:about="http://creativecommons.org/publicdomain/zero/1.0/">
        <cc:permits
           rdf:resource="http://creativecommons.org/ns#Reproduction" />
        <cc:permits
           rdf:resource="http://creativecommons.org/ns#Distribution" />
        <cc:permits
           rdf:resource="http://creativecommons.org/ns#DerivativeWorks" />
      </cc:License>
    </rdf:RDF>
  </metadata>
  <sodipodi:namedview
     pagecolor="#ff00ff"
     bordercolor="#666666"
     borderopacity="1"
     objecttolerance="10"
     gridtolerance="10"
     guidetolerance="10"
     inkscape:pageopacity="0"
     inkscape:pageshadow="2"
     inkscape:window-width="863"
     inkscape:window-height="754"
     id="namedview5"
     showgrid="false"
     inkscape:zoom="3.6875"
     inkscape:cx="23.319342"
     inkscape:cy="37.716858"
     inkscape:window-x="0"
     inkscape:window-y="0"
     inkscape:window-maximized="0"
     inkscape:current-layer="svg2" />
  <defs
     id="defs6" />
  <path
     style="fill:#ffffff;stroke:#ffffff;stroke-width:1.00914073"
     d="M 47.930073,0.66722425 C 41.767088,0.24841961 33.987796,5.3037942 36.580968,12.25226 38.255104,18.085255 40.690762,25.147612 40.917333,30.509846 35.756217,21.170703 31.427306,9.6605068 21.313987,4.5756801 13.61633,3.1180679 5.703703,9.6035537 3.744689,16.831239 c 0.411323,9.522867 10.664503,13.626685 16.99644,18.94227 5.325602,3.746747 12.687948,9.628723 19.297148,5.815221 3.480795,-1.785098 1.814616,-8.89863 1.716722,-9.113816 3.037383,6.019764 12.496284,5.217762 15.955066,1.572844 -0.996919,4.900323 3.784027,9.14129 8.02188,8.303741 -5.157899,4.729484 -1.890955,13.031511 3.689671,15.866397 -4.222408,-2.388097 -11.115377,-1.08226 -11.234575,4.651515 0.02006,8.39609 6.235611,15.222988 10.020453,22.301649 3.889294,5.757308 10.337481,13.412 18.075838,9.632184 C 92.287227,91.91283 99.576666,84.771279 95.314353,77.726668 90.319449,70.642915 81.694504,66.076644 75.411418,61.223642 c 6.108101,1.519576 12.884259,4.008517 19.110602,2.195672 6.7136,-4.071639 5.262882,-13.365091 4.460312,-19.964065 -0.730729,-5.980111 -7.42946,-9.259002 -12.769955,-6.581105 -5.026685,1.302703 -9.90779,3.43494 -15.15485,3.675878 7.812349,-5.000196 17.000527,-8.745838 22.869258,-16.17781 C 99.375776,16.684557 92.171329,6.8086135 84.659246,3.8582431 77.280837,2.3885818 72.017799,10.051991 68.278753,15.290492 65.386035,18.763403 61.897236,25.095354 59.89588,27.226192 59.93561,19.679816 67.734553,11.124193 62.040304,4.0277473 58.387916,0.34487376 52.671286,0.8320325 47.930073,0.66722425 Z M 9.941444,36.300588 C 1.799989,36.129464 0.09434901,45.94449 0.87888701,52.226114 -8.9909127e-6,58.950575 6.462405,66.205239 13.430075,63.336533 21.661669,61.187593 31.240708,59.483916 37.198098,53.028303 40.123655,46.809116 32.518976,42.159838 27.433873,40.977725 21.796119,38.832254 16.035675,36.595006 9.941444,36.300588 Z M 36.752657,57.90254 C 25.247513,59.956098 15.376033,67.396109 6.825328,74.931814 2.47806,80.198172 4.780685,87.610743 9.365918,91.86057 c 3.80453,5.109517 12.252096,6.64144 16.136396,0.707581 7.368984,-8.025332 15.022443,-16.956417 17.738803,-27.717905 0.303247,-3.690205 -2.636493,-7.247139 -6.48846,-6.947706 z m 12.831066,4.507631 c -8.412693,2.831983 -8.747038,13.380217 -11.798273,20.316865 -2.53453,5.765829 -1.764366,15.118663 6.007539,15.941304 6.481416,1.34313 16.282403,1.90285 19.469321,-5.254638 2.35843,-8.509923 -3.348916,-16.577075 -5.514796,-24.532799 -1.255255,-3.40488 -4.174103,-6.956751 -8.163791,-6.470732 z"
     id="path3335-6"
     inkscape:connector-curvature="0" />
  <path
     style="fill:#0000ff"
     d="M 11.730305,87.461023 C 6.198281,80.795333 7.563806,77.506228 18.964529,70.036182 41.986024,54.951898 45.960448,60.046113 28.68777,82.498946 20.013561,93.774573 17.564776,94.491134 11.730305,87.461023 Z M 42.230311,82.058475 C 46.667936,67.621744 49.44802,63.545964 52.528103,66.96125 c 1.170081,1.29742 3.889417,8.09117 6.042965,15.097225 3.213649,10.454836 1.749037,12.738289 -8.170379,12.738289 -9.91941,0 -11.384027,-2.283453 -8.170378,-12.738289 z M 70.931752,80.941293 C 55.847491,57.919766 60.941699,53.945336 83.394495,71.21804 94.670112,79.892262 95.38667,82.341055 88.35657,88.175534 81.690886,93.707563 78.401793,92.342031 70.931752,80.941293 Z M 5.109086,49.505087 c 0,-9.919431 2.283449,-11.384044 12.738263,-8.17039 14.436711,4.437626 18.512491,7.217719 15.097203,10.297808 -1.297418,1.170083 -8.091158,3.889422 -15.097203,6.042973 C 7.392535,60.889132 5.109086,59.424519 5.109086,49.505087 Z M 77.292578,56.92542 C 67.08046,54.256704 63.332002,43.843629 72.583458,43.843629 c 2.859122,0 9.228254,-1.5464 14.153626,-3.436444 6.419796,-2.463511 8.955207,-0.05922 8.955207,8.492189 0,12.143965 -0.989818,12.575731 -18.399713,8.026046 z M 17.406888,27.792136 C 6.131272,19.117915 5.414708,16.669124 12.444808,10.834646 19.110492,5.3026132 22.399586,6.6681403 29.869626,18.06888 44.953887,41.09041 39.85968,45.064839 17.406888,27.792136 Z m 44.44259,6.143939 c 0.06924,-2.335351 4.688094,-10.176529 10.26413,-17.424843 8.674208,-11.2756339 11.122995,-11.9921929 16.957465,-4.962081 5.532024,6.665693 4.166499,9.954791 -7.234224,17.424843 C 66.30962,39.147839 61.660742,40.301973 61.849478,33.936075 Z m -17.11024,-6.613784 c 0,-2.859133 -1.546396,-9.228274 -3.436437,-14.153647 -2.49589,-6.5041957 -0.0057,-8.9552274 9.097888,-8.9552274 9.103703,0 11.593779,2.4510317 9.097889,8.9552274 -1.890042,4.925373 -3.436439,11.294514 -3.436439,14.153647 0,2.859128 -2.547652,5.19842 -5.66145,5.19842 -3.113797,0 -5.661451,-2.339292 -5.661451,-5.19842 z"
     id="path3335"
     inkscape:connector-curvature="0" />
</svg>
