/* XPM */
static char * wifi_xpm[] = {
"13 15 3 1",
" 	c None",
".	c #0000FF",
"+	c #000000",
"    .....    ",
"   .     .   ",
"  .  ...  .  ",
" .  .   .  . ",
".  .     .  .",
". .  +++  . .",
". .  +++  . .",
". .  +++  . .",
".  .  +  .  .",
" .  . + .  ..",
"  .   +   .  ",
"   .. + ..   ",
"      +      ",
"      +      ",
"             "};
