<?xml version="1.0" encoding="UTF-8" standalone="no"?>
<!-- Created with Inkscape (http://www.inkscape.org/) -->

<svg
   xmlns:dc="http://purl.org/dc/elements/1.1/"
   xmlns:cc="http://creativecommons.org/ns#"
   xmlns:rdf="http://www.w3.org/1999/02/22-rdf-syntax-ns#"
   xmlns:svg="http://www.w3.org/2000/svg"
   xmlns="http://www.w3.org/2000/svg"
   xmlns:sodipodi="http://sodipodi.sourceforge.net/DTD/sodipodi-0.dtd"
   xmlns:inkscape="http://www.inkscape.org/namespaces/inkscape"
   version="1.1"
   width="100"
   height="100"
   id="svg2"
   inkscape:version="0.91 r13725"
   sodipodi:docname="zoo.svg">
  <metadata
     id="metadata7">
    <rdf:RDF>
      <cc:Work
         rdf:about="">
        <dc:format>image/svg+xml</dc:format>
        <dc:type
           rdf:resource="http://purl.org/dc/dcmitype/StillImage" />
        <dc:title></dc:title>
        <dc:description>jfitie@gmail.com</dc:description>
        <cc:license
           rdf:resource="http://creativecommons.org/publicdomain/zero/1.0/" />
      </cc:Work>
      <cc:License
         rdf:about="http://creativecommons.org/publicdomain/zero/1.0/">
        <cc:permits
           rdf:resource="http://creativecommons.org/ns#Reproduction" />
        <cc:permits
           rdf:resource="http://creativecommons.org/ns#Distribution" />
        <cc:permits
           rdf:resource="http://creativecommons.org/ns#DerivativeWorks" />
      </cc:License>
    </rdf:RDF>
  </metadata>
  <sodipodi:namedview
     pagecolor="#ff3dff"
     bordercolor="#666666"
     borderopacity="1"
     objecttolerance="10"
     gridtolerance="10"
     guidetolerance="10"
     inkscape:pageopacity="0"
     inkscape:pageshadow="2"
     inkscape:window-width="1440"
     inkscape:window-height="874"
     id="namedview5"
     showgrid="false"
     inkscape:zoom="10.429825"
     inkscape:cx="38.789415"
     inkscape:cy="50.702732"
     inkscape:window-x="0"
     inkscape:window-y="0"
     inkscape:window-maximized="1"
     inkscape:current-layer="svg2" />
  <defs
     id="defs6" />
  <path
     style="fill:#ffffff;stroke:#ffffff;stroke-width:0.35351375;stroke-linecap:butt;stroke-linejoin:miter;stroke-miterlimit:4;stroke-dasharray:none;stroke-opacity:1"
     d="M 42.664752,13.643567 C 34.559872,14.294987 27.039998,18.37686 18.938896,18.647641 11.380783,22.5117 9.0951881,31.814626 7.3305732,39.42689 5.9457812,47.118316 7.1040791,55.641585 8.8047009,62.743565 3.0340298,60.402469 -2.5133484,68.411918 1.5945951,73.088303 6.5028422,82.238697 22.122479,78.68453 23.407883,68.714277 c 0.779739,-5.467238 -4.516462,-12.491675 0.845812,-16.567478 1.840174,0.411154 4.761054,-3.368573 4.398216,-0.305523 0.13049,7.843049 -2.069103,15.743589 -4.368872,23.038755 -5.079984,2.920778 -2.443214,12.589864 3.785435,11.124968 3.846285,0.604551 9.621622,-0.358745 9.826941,-5.24229 1.278806,-4.103729 2.874081,-9.59605 4.508689,-12.654309 1.04646,3.754777 2.418331,7.627963 0.750873,11.314831 -0.640257,4.278056 3.609229,7.731887 7.684796,6.592117 3.745033,0.744993 9.627171,-1.211931 8.356266,-6.027672 -1.047382,-6.63552 -1.083249,-13.529272 -0.129461,-20.276934 1.287688,0.903729 4.96075,-0.118586 3.652522,2.46319 -0.866392,5.556218 0.159415,11.424128 -2.656536,16.374151 -1.161219,4.267821 2.783396,8.591516 7.170404,7.501794 4.108703,0.809642 9.43102,-1.437967 8.908227,-6.331313 0.377703,-2.787503 0.889351,-8.408246 2.149455,-2.749898 -2.381949,4.415581 1.761388,10.604525 6.894222,9.134715 3.978242,0.703827 9.874403,-1.883499 8.150854,-6.771639 C 92.509567,74.247419 90.805145,67.96969 91.124535,63.560021 95.324307,67.113915 102.03515,61.368311 99.10968,56.59851 95.392223,47.163959 98.639296,35.68286 92.272421,27.022863 87.229282,17.046709 75.184682,12.840516 64.600266,14.858746 c -6.693133,0.99508 -13.55769,0.580907 -20.088539,-1.18756 -0.615701,-0.02002 -1.230552,-0.05659 -1.846975,-0.02762 z M 19.938333,35.442964 c -3.515984,2.078995 -3.973937,1.388322 0,0 z"
     id="path3793-6"
     inkscape:connector-curvature="0" />
  <path
     style="fill:#000000;stroke:none;stroke-width:0.40000001;stroke-linecap:butt;stroke-linejoin:miter;stroke-miterlimit:4;stroke-dasharray:none;stroke-opacity:1"
     d="m 42.635617,17.741468 c -0.343792,0.0092 -0.697428,0.04075 -1.074002,0.06819 -1.271601,0.09259 -2.152877,0.228924 -6.341731,1.397903 -0.65193,0.181933 -1.614362,0.531193 -2.284386,0.784189 -5.153144,1.945794 -9.228478,2.10944 -11.541267,2.199141 -1.336422,0.05183 -2.762751,0.893768 -3.562961,1.789997 -0.906857,1.015666 -1.743663,2.410007 -2.386672,3.614091 -0.489714,0.917024 -1.258864,1.894837 -1.60248,2.778758 -1.316879,3.38754 -1.672608,3.940341 -2.574198,7.586181 -0.228341,0.923362 -0.717991,5.360909 -0.937621,6.239419 -0.285748,1.142986 -0.02158,4.008171 -0.0341,5.216563 -0.04466,4.311764 0.637654,7.575202 1.449051,10.705904 0.324207,1.278321 0.558479,2.510774 0.971717,3.750474 0.176078,0.528228 0.71209,1.386168 0.886478,1.909332 0.29008,0.870217 0.45905,2.319674 -0.238668,3.017394 -0.259757,0.259779 -0.969215,1.022854 -1.414954,1.022854 -0.493921,0 -0.912456,-0.0403 -1.363814,-0.153398 C 10.214995,69.575665 8.860131,68.713358 8.3357216,67.537485 7.97925,66.738183 7.3987166,66.683362 6.6309558,66.565802 5.7983498,66.438307 4.255491,67.609275 4.0567584,67.963707 c -0.8147234,1.452992 -0.2398542,2.746098 0.7330502,4.006152 1.6231596,2.102227 2.4938833,2.945992 4.7733451,3.409518 0.388697,0.07901 2.7329513,0.193389 3.1197223,0 0.730538,-0.365232 2.232666,-0.691666 2.91515,-1.125135 1.624401,-1.031701 2.808798,-1.684145 3.699342,-3.460636 0.360102,-0.718356 0.42734,-1.798047 0.545526,-2.625338 0.175484,-1.228405 -0.401642,-2.447539 -0.545526,-3.614088 -0.221994,-1.799841 -0.692251,-2.988211 -0.818288,-4.46647 -0.06206,-0.727892 -0.216375,-2.899346 -0.204571,-3.665259 0.01627,-1.055466 0.356322,-2.204914 0.545525,-2.7276 1.073313,-2.57407 2.279595,-3.742802 4.466487,-4.517614 0.493865,-0.174981 1.108764,-0.0175 1.466099,-0.255714 0.25475,-0.169828 1.344221,-0.560028 1.517243,-0.733046 0.172934,-0.172936 0.316544,-0.305602 0.477333,-0.426191 0.250343,-0.187757 0.974153,-0.838277 1.363813,-1.176283 0.178977,-0.155251 1.832216,-1.308612 2.199149,-1.125142 1.561078,0.329044 1.17418,1.089006 1.312669,2.096854 0.297936,1.910595 0.494645,4.415209 0.528478,5.455236 0.02749,0.844754 0.118964,1.825567 -0.08524,2.642377 -0.245372,5.311658 -1.42215,10.322069 -2.829913,15.240558 -0.53568,1.871586 -1.162842,4.420919 -1.38086,5.745011 -0.349407,2.122086 -1.960602,1.074026 -2.471912,2.727619 -0.370283,1.197534 -0.569505,3.1384 0.596669,3.46068 0.923067,0.255096 4.652317,0.305339 6.239444,0.0852 0.510976,-0.07088 1.131929,0.116686 1.500195,-0.477331 0.230966,-0.372532 2.074231,-6.298392 2.284385,-7.006532 1.473248,-4.96426 2.007438,-5.632638 3.119723,-8.677252 1.276056,-3.092629 3.455804,-7.152682 3.699342,-12.802731 0.256266,1.411418 0.729059,4.914795 1.261527,6.512187 0.712254,2.136766 0.844819,3.61339 1.363813,6.000752 0.97417,4.481149 3.178055,11.71849 2.386673,11.984438 -1.647905,0.553822 -1.08246,2.767441 -0.971717,3.648184 0.112792,0.897119 1.31705,0.869456 3.273151,0.869456 0.5384,0 4.168144,0.08617 4.909725,-0.187547 1.071425,-0.395343 0.615391,-1.379081 0.596669,-1.755873 -0.09246,-1.860787 0.0022,-0.754026 -0.392096,-3.170862 -0.220799,-1.353434 -0.55127,-6.071233 -0.494382,-9.001123 0.07202,-3.70913 0.289809,-5.63187 0.971717,-9.700116 0,-0.584472 0.197266,-2.043252 -0.630764,-4.040265 4.578514,1.802148 6.71921,2.530367 11.882217,3.017411 -0.385561,3.155413 -0.991039,6.703447 -1.261527,9.700115 -0.11564,1.281105 -0.337074,3.720195 -0.323905,6.171225 0.01593,2.968466 -0.302074,4.279081 -0.630763,4.330093 -1.540012,0.238939 -1.437983,2.000601 -1.039907,3.955042 0.173788,0.853204 3.054406,0.706947 3.938009,0.733018 1.027655,0.03058 3.339945,0.142978 4.193724,-0.42616 0.396461,-0.264313 0.540752,-1.410075 0.579621,-1.807044 0.943594,-6.715069 2.270049,-13.482988 4.193726,-19.042202 0.102936,0.465497 1.072198,4.385577 1.363814,5.165454 0.942225,2.51977 1.12651,4.052744 2.233243,6.273513 0.560752,1.125197 0.470963,0.822492 0.886478,1.704764 0.599948,1.273849 0.610596,1.761158 0.869432,2.147998 0.779457,1.164746 -0.529575,1.65369 -0.681907,2.676448 -0.340953,2.289279 0.389663,2.929774 1.02286,3.222015 0.870576,0.401785 3.207541,0.08387 4.688107,0 1.480571,-0.08387 1.520962,0.125965 2.079814,-0.153451 0.299063,-0.149528 0.396149,-0.529218 0.73305,-0.681909 -0.02559,-2.851605 -0.09373,-3.315308 -0.426191,-4.432365 -1.465544,-4.924057 -3.188972,-14.750129 -1.022861,-24.83834 0.152545,-0.710446 1.145511,-4.602075 1.210384,-9.018177 1.340697,5.742534 0.269293,10.79139 3.409536,17.388535 0.513012,1.199762 3.271591,-0.198462 3.256099,-1.108069 -0.0095,-0.556544 -0.834864,-2.16251 -1.159237,-3.119735 -1.617814,-4.774105 -1.626384,-8.886054 -1.807052,-14.473378 -0.07315,-2.262677 -0.58599,-5.294492 -1.892296,-8.66018 C 89.811326,29.76198 87.222864,26.458511 84.624004,23.63994 83.207886,22.104097 80.948713,20.696642 76.91846,19.412136 73.251367,18.402701 70.059325,18.607572 64.933953,18.832518 c -1.909153,0.08378 -5.558525,0.796497 -8.813638,0.767143 -0.981683,-0.0088 -2.156993,-0.09449 -3.170866,-0.119334 -3.512899,-0.0861 -5.156957,-1.877287 -10.313832,-1.738859 z"
     id="path3793"
     inkscape:connector-curvature="0"
     sodipodi:nodetypes="ccssssssssscsscscssssccsssssscsscssccccssssccsccssccscssscccssccccccssscscsscsscccsssscscsc" />
</svg>
