/* XPM */
static char *dummy[]={
"96 96 3 1",
"# c None",
". c #0000ff",
"a c #808080",
".###############################################################################################",
"################################################################################################",
"################################################################################################",
"################################################################################################",
"################################################################################################",
"################################################################################################",
"################################################################################################",
"################################################################################################",
"################################################################################################",
"################################################################################################",
"################################################################################################",
"################################################################################################",
"################################################################################################",
"################################################################################################",
"################################################################################################",
"################################################################################################",
"################################################################################################",
"################################################################################################",
"################################################################################################",
"################################################################################################",
"################################################################################################",
"################################################################################################",
"################################################################################################",
"################################################################################################",
"################################################################################################",
"##############################################aaaa##############################################",
"#############################################aaaaa##############################################",
"#############################################aaaaaa#############################################",
"#############################################aaaaaa#############################################",
"#############################################aaaaaa#############################################",
"#############################################aaaaaa#############################################",
"#############################################aaaaaa#############################################",
"#############################################aaaaaa#############################################",
"#############################################aaaaaa#############################################",
"#############################################aaaaaa#############################################",
"#############################################aaaaaa#############################################",
"#############################################aaaaaa#############################################",
"#############################################aaaaaa#############################################",
"#############################################aaaaaa#############################################",
"#############################################aaaaaa#############################################",
"#############################################aaaaaa#############################################",
"#############################################aaaaaa#############################################",
"#############################################aaaaaa#############################################",
"#############################################aaaaaa#############################################",
"#############################################aaaaaa#############################################",
"##########################aaaaaaaaaaaaaaaaaaaaaaaaaaaaaaaaaaaaaaaaaaaa##########################",
"#########################aaaaaaaaaaaaaaaaaaaaaaaaaaaaaaaaaaaaaaaaaaaaaa#########################",
"#########################aaaaaaaaaaaaaaaaaaaaaaaaaaaaaaaaaaaaaaaaaaaaaa#########################",
"#########################aaaaaaaaaaaaaaaaaaaaaaaaaaaaaaaaaaaaaaaaaaaaaa#########################",
"#########################aaaaaaaaaaaaaaaaaaaaaaaaaaaaaaaaaaaaaaaaaaaaaa#########################",
"##########################aaaaaaaaaaaaaaaaaaaaaaaaaaaaaaaaaaaaaaaaaaaa##########################",
"#############################################aaaaaa#############################################",
"#############################################aaaaaa#############################################",
"#############################################aaaaaa#############################################",
"#############################################aaaaaa#############################################",
"#############################################aaaaaa#############################################",
"#############################################aaaaaa#############################################",
"#############################################aaaaaa#############################################",
"#############################################aaaaaa#############################################",
"#############################################aaaaaa#############################################",
"#############################################aaaaaa#############################################",
"#############################################aaaaaa#############################################",
"#############################################aaaaaa#############################################",
"#############################################aaaaaa#############################################",
"#############################################aaaaaa#############################################",
"#############################################aaaaaa#############################################",
"#############################################aaaaaa#############################################",
"#############################################aaaaaa#############################################",
"#############################################aaaaaa#############################################",
"#############################################aaaaa##############################################",
"##############################################aaaa##############################################",
"################################################################################################",
"################################################################################################",
"################################################################################################",
"################################################################################################",
"################################################################################################",
"################################################################################################",
"################################################################################################",
"################################################################################################",
"################################################################################################",
"################################################################################################",
"################################################################################################",
"################################################################################################",
"################################################################################################",
"################################################################################################",
"################################################################################################",
"################################################################################################",
"################################################################################################",
"################################################################################################",
"################################################################################################",
"################################################################################################",
"################################################################################################",
"################################################################################################",
"################################################################################################",
"################################################################################################",
"################################################################################################"};
