<?xml version="1.0" encoding="UTF-8" standalone="no"?>
<svg
   xmlns:dc="http://purl.org/dc/elements/1.1/"
   xmlns:cc="http://creativecommons.org/ns#"
   xmlns:rdf="http://www.w3.org/1999/02/22-rdf-syntax-ns#"
   xmlns:svg="http://www.w3.org/2000/svg"
   xmlns="http://www.w3.org/2000/svg"
   xmlns:sodipodi="http://sodipodi.sourceforge.net/DTD/sodipodi-0.dtd"
   xmlns:inkscape="http://www.inkscape.org/namespaces/inkscape"
   version="1.1"
   height="100"
   width="100"
   id="Svg"
   sodipodi:docname="wood.svg"
   inkscape:version="0.92.4 5da689c313, 2019-01-14">
  <sodipodi:namedview
     pagecolor="#ffffff"
     bordercolor="#666666"
     borderopacity="1"
     objecttolerance="10"
     gridtolerance="10"
     guidetolerance="10"
     inkscape:pageopacity="0"
     inkscape:pageshadow="2"
     inkscape:window-width="1889"
     inkscape:window-height="1025"
     id="namedview62"
     showgrid="false"
     inkscape:zoom="3.2773438"
     inkscape:cx="128"
     inkscape:cy="79.179976"
     inkscape:window-x="31"
     inkscape:window-y="0"
     inkscape:window-maximized="1"
     inkscape:current-layer="Svg" />
  <metadata
     id="metadata333">
    <rdf:RDF>
      <cc:Work
         rdf:about="">
        <dc:format>image/svg+xml</dc:format>
        <dc:type
           rdf:resource="http://purl.org/dc/dcmitype/StillImage" />
        <dc:title></dc:title>
      </cc:Work>
    </rdf:RDF>
  </metadata>
  <defs
     id="defs3" />
  <path
     id="path5244"
     d="m 46.371871,3.0512518 -3,8.0000002 v 1 h 3 v 4 h 1 v -4 h 3 v -1 l -3,-8.0000002 z m 0.5,1 2.5,7.0000002 h -5 z M 82.312872,18.38975 c -1.972095,0 -3.5,1.83548 -3.5,4 0,1.97579 1.278087,3.65969 3,3.94141 v 5.05859 h 1 v -5.05859 c 1.721913,-0.28172 3,-1.96562 3,-3.94141 0,-2.16452 -1.527905,-4 -3.5,-4 z m -53.871871,1.915375 -3,8 v 1 h 3 v 4 h 1 v -4 h 3 v -1 l -3,-8 z M 82.312872,19.38975 c 1.341598,0 2.5,1.29875 2.5,3 0,1.70125 -1.158402,3 -2.5,3 -1.341598,0 -2.5,-1.29875 -2.5,-3 0,-1.70125 1.158402,-3 2.5,-3 z m -53.371871,1.915375 2.5,7 h -5 z m 22.871871,16.084625 -3,8 v 1 h 3 v 4 h 1 v -4 h 3 v -1 l -3,-8 z m 0.5,1 2.5,7 h -5 z m -42.4999995,12 -3,8 v 1 h 3 v 4 h 0.9999995 v -4 h 3 v -1 l -3,-8 z m 0.4999995,1 2.5,7 H 7.8128725 Z m 63.5,3 -3,8 v 1 h 3 v 4 h 1 v -4 h 3 v -1 l -3,-8 z m 0.5,1 2.5,7 h -5 z m -34,8 c -1.972095,0 -3.5,1.83548 -3.5,4 0,1.97579 1.278087,3.65969 3,3.94141 v 5.05859 h 1 v -5.05859 c 1.721913,-0.28172 3,-1.96562 3,-3.94141 0,-2.16452 -1.527905,-4 -3.5,-4 z m 0,1 c 1.341598,0 2.5,1.29875 2.5,3 0,1.70125 -1.158402,3 -2.5,3 -1.341598,0 -2.5,-1.29875 -2.5,-3 0,-1.70125 1.158402,-3 2.5,-3 z m 52.541118,7.507747 c -1.97209,0 -3.499998,1.83548 -3.499998,4 0,1.97579 1.278088,3.65969 2.999998,3.94141 v 5.05859 h 1 v -5.05859 c 1.72191,-0.28172 3,-1.96562 3,-3.94141 0,-2.16452 -1.52791,-4 -3.5,-4 z m 0,1 c 1.3416,0 2.5,1.29875 2.5,3 0,1.70125 -1.1584,3 -2.5,3 -1.3416,0 -2.499998,-1.29875 -2.499998,-3 0,-1.70125 1.158398,-3 2.499998,-3 z m -76.041118,10.492253 -3,8 v 1 h 3 v 4 h 1 v -4 h 3 v -1 l -3,-8 z m 0.5,1 2.5,7 h -5 z"
     style="fill:#6b8d5e"
     inkscape:connector-curvature="0"
     sodipodi:nodetypes="cccccccccccccccssccccsscccccccccccssssscccccccccccccccccccccccccccccccccccccccccccccccccssccccsssssssssccccsssssssccccccccccccccc" />
  <rect
     style="fill:none;fill-opacity:1;stroke:none"
     id="rect8566"
     y="-156"
     x="0"
     rx="0"
     height="256"
     width="256" />
  <desc
     id="desc329">Created with Snap</desc>
  <path
     sodipodi:nodetypes="cccccccccccccccssccccsscccccccccccssssscccccccccccccccccccccccccccccccccccccccccccccccccssccccsssssssssccccsssssssccccccccccccccc"
     inkscape:connector-curvature="0"
     style="fill:#6b8d5e"
     d="m 46.371871,3.0512518 -3,8.0000002 v 1 h 3 v 4 h 1 v -4 h 3 v -1 l -3,-8.0000002 z m 0.5,1 2.5,7.0000002 h -5 z M 82.312872,18.38975 c -1.972095,0 -3.5,1.83548 -3.5,4 0,1.97579 1.278087,3.65969 3,3.94141 v 5.05859 h 1 v -5.05859 c 1.721913,-0.28172 3,-1.96562 3,-3.94141 0,-2.16452 -1.527905,-4 -3.5,-4 z M 7.6924906,3.2181166 l -3,7.9999994 v 1 h 3 v 4 h 1 v -4 h 3.0000004 v -1 L 8.6924906,3.2181166 Z M 82.312872,19.38975 c 1.341598,0 2.5,1.29875 2.5,3 0,1.70125 -1.158402,3 -2.5,3 -1.341598,0 -2.5,-1.29875 -2.5,-3 0,-1.70125 1.158402,-3 2.5,-3 z M 8.1924906,4.2181166 10.692491,11.218116 H 5.6924906 Z M 51.812872,37.38975 l -3,8 v 1 h 3 v 4 h 1 v -4 h 3 v -1 l -3,-8 z m 0.5,1 2.5,7 h -5 z m -42.4999995,12 -3,8 v 1 h 3 v 4 h 0.9999995 v -4 h 3 v -1 l -3,-8 z m 0.4999995,1 2.5,7 H 7.8128725 Z m 63.5,3 -3,8 v 1 h 3 v 4 h 1 v -4 h 3 v -1 l -3,-8 z m 0.5,1 2.5,7 h -5 z m -34,8 c -1.972095,0 -3.5,1.83548 -3.5,4 0,1.97579 1.278087,3.65969 3,3.94141 v 5.05859 h 1 v -5.05859 c 1.721913,-0.28172 3,-1.96562 3,-3.94141 0,-2.16452 -1.527905,-4 -3.5,-4 z m 0,1 c 1.341598,0 2.5,1.29875 2.5,3 0,1.70125 -1.158402,3 -2.5,3 -1.341598,0 -2.5,-1.29875 -2.5,-3 0,-1.70125 1.158402,-3 2.5,-3 z m 52.541118,7.507747 c -1.97209,0 -3.499998,1.83548 -3.499998,4 0,1.97579 1.278088,3.65969 2.999998,3.94141 v 5.05859 h 1 v -5.05859 c 1.72191,-0.28172 3,-1.96562 3,-3.94141 0,-2.16452 -1.52791,-4 -3.5,-4 z m 0,1 c 1.3416,0 2.5,1.29875 2.5,3 0,1.70125 -1.1584,3 -2.5,3 -1.3416,0 -2.499998,-1.29875 -2.499998,-3 0,-1.70125 1.158398,-3 2.499998,-3 z m -76.041118,10.492253 -3,8 v 1 h 3 v 4 h 1 v -4 h 3 v -1 l -3,-8 z m 0.5,1 2.5,7 h -5 z"
     id="path64" />
  <path
     sodipodi:nodetypes="cccccccccccccccssccccsscccccccccccssssscccccccccccccccccccccccccccccccccccccccccccccccccssccccsssssssssccccsssssss"
     inkscape:connector-curvature="0"
     style="fill:#6b8d5e"
     d="m 46.371871,3.0512518 -3,8.0000002 v 1 h 3 v 4 h 1 v -4 h 3 v -1 l -3,-8.0000002 z m 0.5,1 2.5,7.0000002 h -5 z M 82.312872,18.38975 c -1.972095,0 -3.5,1.83548 -3.5,4 0,1.97579 1.278087,3.65969 3,3.94141 v 5.05859 h 1 v -5.05859 c 1.721913,-0.28172 3,-1.96562 3,-3.94141 0,-2.16452 -1.527905,-4 -3.5,-4 z m -53.871871,1.915375 -3,8 v 1 h 3 v 4 h 1 v -4 h 3 v -1 l -3,-8 z M 82.312872,19.38975 c 1.341598,0 2.5,1.29875 2.5,3 0,1.70125 -1.158402,3 -2.5,3 -1.341598,0 -2.5,-1.29875 -2.5,-3 0,-1.70125 1.158402,-3 2.5,-3 z m -53.371871,1.915375 2.5,7 h -5 z m 22.871871,16.084625 -3,8 v 1 h 3 v 4 h 1 v -4 h 3 v -1 l -3,-8 z m 0.5,1 2.5,7 h -5 z m -42.4999995,12 -3,8 v 1 h 3 v 4 h 0.9999995 v -4 h 3 v -1 l -3,-8 z m 0.4999995,1 2.5,7 H 7.8128725 Z m 56.176996,34.733015 -3,8 v 1 h 3 v 4 h 1 v -4 h 3 v -1 l -3,-8 z m 0.5,1 2.5,7 h -5 z M 40.312872,63.38975 c -1.972095,0 -3.5,1.83548 -3.5,4 0,1.97579 1.278087,3.65969 3,3.94141 v 5.05859 h 1 v -5.05859 c 1.721913,-0.28172 3,-1.96562 3,-3.94141 0,-2.16452 -1.527905,-4 -3.5,-4 z m 0,1 c 1.341598,0 2.5,1.29875 2.5,3 0,1.70125 -1.158402,3 -2.5,3 -1.341598,0 -2.5,-1.29875 -2.5,-3 0,-1.70125 1.158402,-3 2.5,-3 z m 52.541118,7.507747 c -1.97209,0 -3.499998,1.83548 -3.499998,4 0,1.97579 1.278088,3.65969 2.999998,3.94141 v 5.05859 h 1 v -5.05859 c 1.72191,-0.28172 3,-1.96562 3,-3.94141 0,-2.16452 -1.52791,-4 -3.5,-4 z m 0,1 c 1.3416,0 2.5,1.29875 2.5,3 0,1.70125 -1.1584,3 -2.5,3 -1.3416,0 -2.499998,-1.29875 -2.499998,-3 0,-1.70125 1.158398,-3 2.499998,-3 z"
     id="path66" />
</svg>
