<?xml version="1.0" encoding="UTF-8" standalone="no"?>
<!-- Created with Inkscape (http://www.inkscape.org/) -->

<svg
   xmlns:dc="http://purl.org/dc/elements/1.1/"
   xmlns:cc="http://creativecommons.org/ns#"
   xmlns:rdf="http://www.w3.org/1999/02/22-rdf-syntax-ns#"
   xmlns:svg="http://www.w3.org/2000/svg"
   xmlns="http://www.w3.org/2000/svg"
   version="1.1"
   width="100%"
   height="100%"
   viewBox="0 0 14 14"
   id="svg2">
  <metadata
     id="metadata8">
    <rdf:RDF>
      <cc:Work
         rdf:about="">
        <dc:format>image/svg+xml</dc:format>
        <dc:type
           rdf:resource="http://purl.org/dc/dcmitype/StillImage" />
        <dc:title></dc:title>
      </cc:Work>
    </rdf:RDF>
  </metadata>
  <defs
     id="defs6" />
  <rect
     width="14"
     height="14"
     x="0"
     y="0"
     id="canvas"
     style="fill:none;stroke:none;visibility:hidden" />
  <path
     d="m 7,8 c 2,0 2,1 2,3 0,1 -1.009121,3 0,3 1,0 1.751359,-1.142963 2,-3 C 11.248641,9.142963 11,8 11,7 11,5 12,3 12,2 12,1 11.599761,0.21742 11,0 9,0 9,1 7,1 5,1 5,0 3,0 2.400799,0.21742 2,1 2,2 2,3 3,5 3,7 3,8 2.87761,9.57334 3,11 3.12239,12.42666 4,14 5,14 6.008702,14 5,12 5,11 5,9 5,8 7,8 z"
     id="dentist"
     style="fill:#000000;fill-opacity:1;stroke:none" />
</svg>
