<?xml version="1.0" encoding="UTF-8" standalone="no"?>
<!-- Created with Inkscape (http://www.inkscape.org/) -->

<svg
   xmlns:dc="http://purl.org/dc/elements/1.1/"
   xmlns:cc="http://creativecommons.org/ns#"
   xmlns:rdf="http://www.w3.org/1999/02/22-rdf-syntax-ns#"
   xmlns:svg="http://www.w3.org/2000/svg"
   xmlns="http://www.w3.org/2000/svg"
   version="1.1"
   width="100%"
   height="100%"
   viewBox="0 0 14 14"
   id="svg2">
  <metadata
     id="metadata8">
    <rdf:RDF>
      <cc:Work
         rdf:about="">
        <dc:format>image/svg+xml</dc:format>
        <dc:type
           rdf:resource="http://purl.org/dc/dcmitype/StillImage" />
        <dc:title></dc:title>
      </cc:Work>
    </rdf:RDF>
  </metadata>
  <defs
     id="defs6" />
  <rect
     width="14"
     height="14"
     x="0"
     y="0"
     id="canvas"
     style="fill:none;stroke:none;visibility:hidden" />
  <path
     d="M 3.375,2 0.4375,5 2.53125,5 0,7.5 2.125,7.5 0,10 l 2.75,0 0,2 1.28125,0 0,-2 2.75,0 -2.125,-2.5 2.125,0 L 4.5,5 6.34375,5 3.375,2 z m 7,0 C 9.2328442,2 9.09375,3 9.09375,3 7.4014424,3.2115384 6.9481223,5.1538462 8.25,6 6.1317693,6.8461537 6.9755191,10 9.09375,10 l 0.625,0 0,2 1.28125,0 0,-2 0.625,0 c 2.135977,0 2.997474,-3.1538463 0.84375,-4 1.266384,-0.8461538 0.848557,-2.7884616 -0.84375,-3 0,0 -0.07235,-1 -1.25,-1 z"
     id="tree-unspecified"
     style="fill:#000000;fill-opacity:1;stroke:none" />
</svg>
