<?xml version="1.0" encoding="UTF-8" standalone="no"?>
<!-- Created with Inkscape (http://www.inkscape.org/) -->

<svg
   xmlns:dc="http://purl.org/dc/elements/1.1/"
   xmlns:cc="http://creativecommons.org/ns#"
   xmlns:rdf="http://www.w3.org/1999/02/22-rdf-syntax-ns#"
   xmlns:svg="http://www.w3.org/2000/svg"
   xmlns="http://www.w3.org/2000/svg"
   version="1.1"
   width="100%"
   height="100%"
   viewBox="0 0 14 14"
   id="svg2">
  <metadata
     id="metadata8">
    <rdf:RDF>
      <cc:Work
         rdf:about="">
        <dc:format>image/svg+xml</dc:format>
        <dc:type
           rdf:resource="http://purl.org/dc/dcmitype/StillImage" />
        <dc:title></dc:title>
      </cc:Work>
    </rdf:RDF>
  </metadata>
  <defs
     id="defs6" />
  <rect
     width="14"
     height="14"
     x="0"
     y="0"
     id="canvas"
     style="fill:none;stroke:none;visibility:hidden" />
  <path
     d="m 0,1 0,1.25 c 1.9973598,0 2.9578431,0.3559307 3,2 L 3,6.5 c 0,2 1.5,3 2.5,3 0,0 -1,-1 -1,-3 l 0,-2.25 C 4.5,3.3890411 4.1949144,2.7403338 3.71875,2.25 4.9723257,2.25 5.9613912,2.7730892 6,4.25 L 6,6.5 c 0,2 1.5,3 2.5,3 0,0 -1,-1 -1,-3 l 0,-2.25 C 7.5,3.3355769 7.2575127,2.6919337 6.90625,2.25 8,2.25 9,2.8004763 9,4.25 L 9,6.5 c 0,2 1.5,3 2.5,3 0,0 -1,-1 -1,-3 l 0,-2.25 C 10.5,1.25 8,1 7,1 z m 3,9.5 c -0.5338983,0 -1.4922852,1 -2,1 L 1,13 c 0.5371839,0 1.5254237,-1 2,-1 0.5042373,0 1.4661017,1 2,1 0.4755023,0 1.4922852,-1 2,-1 0.5042373,0 1.5217305,1 2,1 0.5042373,0 1.525424,-1 2,-1 0.474576,0 1.495763,1 2,1 l 0,-1.5 c -0.415254,0 -1.466102,-1.029661 -2,-1 -0.47827,0 -1.4652784,1 -2,1 -0.4449153,0 -1.4957627,-1 -2,-1 -0.5042373,0 -1.5540971,1 -2,1 -0.4755023,0 -1.4661017,-1 -2,-1 z"
     id="waterfall"
     style="color:#000000;fill:#000000;fill-opacity:1;fill-rule:nonzero;stroke:none;stroke-width:2;marker:none;visibility:visible;display:inline;overflow:visible;enable-background:accumulate" />
</svg>
