/* XPM */
static char *dummy[]={
"16 16 4 1",
". c None",
"a c #000000",
"# c #7f7f7f",
"b c #bfbfbf",
"................",
"................",
"................",
"......#aa#......",
"....baaaaaab....",
".......aa.......",
"....baaaaaab....",
"......#aa#......",
".......aa.......",
".......aa.......",
".......aa.......",
".......aa.......",
".......aa.......",
"................",
"................",
"................"};
