/* XPM */
static char *dummy[]={
"16 16 3 1",
"# c None",
". c #000000",
"a c #010101",
".#.#.######.#.#.",
".....######.....",
".....######.....",
"#...########...#",
"#...#.a..a.#...#",
"#..............#",
"#..............#",
"#..#........#..#",
"#.###......###.#",
"#.###......###.#",
"#......##......#",
"#.....a##a.....#",
"#.....####.....#",
"#.....####.....#",
"#.....####.....#",
"################"};
