/* XPM */
static char * church_xpm[] = {
"10 16 5 1",
" 	c None",
".	c #FFFFFF",
"+	c #2F2F2F",
"@	c #B1B1B1",
"#	c #000000",
"   .++.   ",
"   .++.   ",
" ...++... ",
".+++@@+++.",
".+++@@+++.",
" ...++... ",
"   .++.   ",
" ...++... ",
".########.",
".########.",
".########.",
".########.",
".########.",
".########.",
".########.",
".########."};
