/* XPM */
static char *gc_event[] = {
/* columns rows colors chars-per-pixel */
"16 16 19 1",
"  c #393000",
". c #393041",
"X c #396541",
"o c #7B3041",
"O c #7B6541",
"+ c #7B008B",
"@ c #7B308B",
"# c #7B658B",
"$ c #399541",
"% c #7B9541",
"& c #7B958B",
"* c none",
"= c #BD9541",
"- c #838383",
"; c #BD95B4",
": c #BDCAB4",
"> c #FFCA8B",
", c #C5C5C5",
"< c gray100",
/* pixels */
"****************",
"****************",
"*****+$&&%o*****",
"***$O>>>>>>=.***",
"** >><<<<<<<>X**",
"*X><<,,,,,,,<<.*",
"*%><<--;;;;;<<:-",
"*%><<<<,,,,,<<<+",
"*%><<<<----;<<:-",
"*o:<<<<<<<<<<< *",
"** ,<<<<<<<<< **",
"***#X;<<<<<<X***",
"*****-+%&o&%****",
"**********X@****",
"**********+*****",
"****************"
};
