/* XPM */
static char *gc_multi[] = {
/* columns rows colors chars-per-pixel */
"16 16 28 1",
"  c black",
". c #003000",
"X c #393000",
"o c #390041",
"O c #393041",
"+ c #396500",
"@ c #396541",
"# c #7B3000",
"$ c #7B0041",
"% c #7B6500",
"& c #414141",
"* c #7B008B",
"= c #7B308B",
"- c #7B658B",
"; c #7B9500",
": c #7B9541",
"> c #7B958B",
", c #7B95B4",
"< c #FF3000",
"1 c none",
"2 c #BD9500",
"3 c #BDCA00",
"4 c #FF9500",
"5 c #FFCA00",
"6 c yellow",
"7 c #838383",
"8 c #BDCAB4",
"9 c gray100",
/* pixels */
"1111111111111111",
"1111111111111111",
"1111=;######%..1",
"11- %2222222;3+1",
"117;%%%%%%%;X:*1",
"111@99&2456X 9*1",
"111O-%4<4;;& 9$1",
"11-;4<4;;;,9 @11",
"1.#222X;-999o111",
"1+;%%; 9999@1111",
"1OX%X9&99>@11111",
"1.9899&9X>111111",
"1=:>:>X=11111111",
"1111111111111111",
"1111111111111111",
"1111111111111111"
};
