/* XPM */
static char *gc_stages[] = {
/* columns rows colors chars-per-pixel */
"16 16 23 1",
"  c black",
". c #802000",
"X c #804000",
"o c #A04000",
"O c #A06000",
"+ c #804040",
"@ c #806040",
"# c #A06040",
"$ c #C06040",
"% c #A08040",
"& c #C08040",
"* c #808080",
"= c #A08080",
"- c #A0A0A4",
"; c #C08080",
": c #C0A080",
"> c #E0A080",
", c #C0A0C0",
"< c #C0C080",
"1 c #C0C0C0",
"2 c #C0DCC0",
"3 c #FFFBF0",
"4 c gray100",
/* pixels */
"                ",
" 41-:3444434434 ",
" 3#..#244444444 ",
" 1X.X.;43444344 ",
" 1X.X.%4442:=14 ",
" 3@.oX%433#..@3 ",
" 4:Xo##34-.X..1 ",
" 43&#&:33:..XX1 ",
" 442<33,31XXoX1 ",
" 3441+X#42#OX$3 ",
" 4443=&:33&&&>3 ",
" 44433334333434 ",
" 44434444,++*34 ",
" 444444431%#:44 ",
" 44444443332334 ",
"                "
};
