/* XPM */
static char *dummy[]={
"16 16 21 1",
". c None",
"# c #000000",
"h c #010101",
"p c #020202",
"c c #040404",
"k c #080808",
"r c #0a0a0a",
"f c #161616",
"i c #1e1e1e",
"a c #232323",
"b c #323232",
"o c #515151",
"n c #525252",
"g c #535353",
"m c #5d5d5d",
"s c #626262",
"l c #676767",
"j c #f7f7f8",
"q c #fdfdfd",
"e c #fefefe",
"d c #ffffff",
"................",
"....########a...",
"......bcdef#g...",
"......##d#h#....",
"........#ij#....",
".......##k#.....",
"......l###......",
"......m##n......",
"......m##n......",
"......n##n......",
"......o##n......",
"......k##n......",
".....p#q#n......",
"....#re.#n......",
"........#s......",
"................"};
