/* XPM */
static char * golf_xpm[] = {
"16 16 256 2",
"  	c #3D3D3D",
". 	c #696969",
"+ 	c #393939",
"@ 	c #474747",
"# 	c #3A3223",
"$ 	c #0D0D0D",
"% 	c #060606",
"& 	c #4A412F",
"* 	c #5A5A5A",
"= 	c #555555",
"- 	c #15110B",
"; 	c #514632",
"> 	c #121212",
", 	c #221D13",
"' 	c #6E5C3B",
") 	c #4D3E22",
"! 	c #292929",
"~ 	c #161616",
"{ 	c #2B2B2B",
"] 	c #222222",
"^ 	c #564B37",
"/ 	c #1E1E1E",
"( 	c #242424",
"_ 	c #29251B",
": 	c #202020",
"< 	c #090909",
"[ 	c #1C1C1C",
"} 	c #110E08",
"| 	c #020202",
"1 	c #181818",
"2 	c #1A1A1A",
"3 	c #080807",
"4 	c #0F0C07",
"5 	c #010101",
"6 	c #ADADAD",
"7 	c #65583D",
"8 	c #FEFEFE",
"9 	c #484848",
"0 	c #909090",
"a 	c #292317",
"b 	c #3C3424",
"c 	c #504631",
"d 	c #4C3D21",
"e 	c #62573F",
"f 	c #6E5D3C",
"g 	c #867552",
"h 	c #886D36",
"i 	c #6C6C6C",
"j 	c #F7F7F7",
"k 	c #FDFDFD",
"l 	c #A2A2A2",
"m 	c #FAFAFA",
"n 	c #FBFBFB",
"o 	c #6D6D6D",
"p 	c #C7C7C7",
"q 	c #F1F1F1",
"r 	c #989898",
"s 	c #FFCE6D",
"t 	c #D4D4D4",
"u 	c #262626",
"v 	c #F6F6F6",
"w 	c #F5F5F5",
"x 	c #B1B1B1",
"y 	c #FFD278",
"z 	c #ACACAC",
"A 	c #505050",
"B 	c #D1D1D1",
"C 	c #BEBEBE",
"D 	c #BDBDBD",
"E 	c #B0B0B0",
"F 	c #9A9A9A",
"G 	c #404040",
"H 	c #8F8F8F",
"I 	c #A3A3A3",
"J 	c #F3F3F3",
"K 	c #635840",
"L 	c #4C4C4C",
"M 	c #878787",
"N 	c #FCFCFC",
"O 	c #CDCDCD",
"P 	c #D7D7D7",
"Q 	c #4D4D4D",
"R 	c #A1A1A1",
"S 	c #C3C3C3",
"T 	c #373737",
"U 	c #F0F0F0",
"V 	c #F4F4F4",
"W 	c #E1E1E1",
"X 	c #F2F2F2",
"Y 	c #DBDBDB",
"Z 	c #B2B2B2",
"` 	c #A9A9A9",
" .	c #424242",
"..	c #BFBFBF",
"+.	c #7D7D7D",
"@.	c #D0D0D0",
"#.	c #EAEAEA",
"$.	c #8B8B8B",
"%.	c #2C2C2C",
"&.	c #898989",
"*.	c #AEAEAE",
"=.	c #F9F9F9",
"-.	c #272115",
";.	c #5C5C5C",
">.	c #D8D8D8",
",.	c #DFDFDF",
"'.	c #494949",
").	c #B3B3B3",
"!.	c #2F2F2F",
"~.	c #888888",
"{.	c #515151",
"].	c #9D9D9D",
"^.	c #6F6F6F",
"/.	c #2F281B",
"(.	c #434343",
"_.	c #2D271B",
":.	c #F5C86E",
"<.	c #6B6B6B",
"[.	c #A18D63",
"}.	c #DCB568",
"|.	c #5B4D32",
"1.	c #554729",
"2.	c #F2C469",
"3.	c #D2D2D2",
"4.	c #BA9E66",
"5.	c #86734E",
"6.	c #FACB6F",
"7.	c #D0AF6D",
"8.	c #FDCB69",
"9.	c #9E9E9E",
"0.	c #A5A5A5",
"a.	c #666666",
"b.	c #B7B7B7",
"c.	c #777777",
"d.	c #927B4D",
"e.	c #5C5038",
"f.	c #E6E6E6",
"g.	c #6E6E6E",
"h.	c #6A6A6A",
"i.	c #040403",
"j.	c #9B7E43",
"k.	c #67583A",
"l.	c #999999",
"m.	c #EFEFEF",
"n.	c #3E3729",
"o.	c #62553A",
"p.	c #CBCBCB",
"q.	c #828282",
"r.	c #FACC6E",
"s.	c #D5B370",
"t.	c #524732",
"u.	c #443B29",
"v.	c #DCDCDC",
"w.	c #93805A",
"x.	c #ABABAB",
"y.	c #BBBBBB",
"z.	c #C1C1C1",
"A.	c #6C5B3A",
"B.	c #DDB86D",
"C.	c #756341",
"D.	c #BCBCBC",
"E.	c #483F2D",
"F.	c #8B7854",
"G.	c #F9C866",
"H.	c #FDCD6F",
"I.	c #787878",
"J.	c #B49455",
"K.	c #E7BE6B",
"L.	c #716348",
"M.	c #E2BA6C",
"N.	c #62563F",
"O.	c #847351",
"P.	c #A88D55",
"Q.	c #AE8F50",
"R.	c #A28B5E",
"S.	c #E3E3E3",
"T.	c #C8C8C8",
"U.	c #D2B06C",
"V.	c #A7A7A7",
"W.	c #303030",
"X.	c #201B12",
"Y.	c #4E3F23",
"Z.	c #9B9B9B",
"`.	c #CECECE",
" +	c #5F533D",
".+	c #5F543E",
"++	c #9B8457",
"@+	c #848484",
"#+	c #727272",
"$+	c #65583E",
"%+	c #66583E",
"&+	c #EAC06C",
"*+	c #ECC068",
"=+	c #8C8C8C",
"-+	c #FECC6A",
";+	c #322E26",
">+	c #939393",
",+	c #B5B5B5",
"'+	c #C6C6C6",
")+	c #F5C971",
"!+	c #D5D5D5",
"~+	c #776748",
"{+	c #959595",
"]+	c #534832",
"^+	c #C3A363",
"/+	c #AA8B4D",
"(+	c #AD8E4F",
"_+	c #7F7F7F",
":+	c #0C0B09",
"<+	c #F8F8F8",
"[+	c #7A7A7A",
"}+	c #444444",
"|+	c #403828",
"1+	c #A38851",
"2+	c #443C2D",
"3+	c #FECC66",
"4+	c #EBEBEB",
"5+	c #957E4F",
"6+	c #DADADA",
"7+	c #BFA166",
"8+	c #636363",
"9+	c #504227",
"0+	c #CCCCCC",
"a+	c #D3B372",
"b+	c #757575",
"c+	c #988256",
"d+	c #B9B9B9",
"e+	c #AC9363",
"f+	c #C2C2C2",
"g+	c #64573D",
"h+	c #AFAFAF",
"i+	c #605031",
"j+	c #E8E8E8",
"k+	c #E9E9E9",
"l+	c #E5E5E5",
"m+	c #705E3D",
"n+	c #D3D3D3",
"o+	c #565656",
"p+	c #B8B8B8",
"q+	c #B6B6B6",
"r+	c #A6A6A6",
"s+	c #584D36",
"t+	c #5B4F37",
"u+	c #5E523A",
"v+	c #353535",
"w+	c #969696",
"x+	c #979797",
"y+	c #8D8D8D",
"z+	c #4B422F",
"A+	c #5D5D5D",
"B+	c #7B7B7B",
"C+	c #020201",
"D+	c #FFCF6F",
"E+	c #FFCC66",
"F+	c #FFFFFF",
"G+	c #000000",
"G+G+G+G+G+G+G+G+G+G+G+G+G+G+G+G+",
"G+G+G+G+F+F+F+F+F+F+F+F+v.G+G+G+",
"G+G+G+G+G+G+O n G+5 k+F+z G+G+G+",
"G+G+G+G+G+G+F+F+G+F+8 F+G+G+G+G+",
"G+G+G+G+G+G+G+G+F+W 3 F+G+G+G+G+",
"G+G+G+G+G+G+G+F+F+j F+G+G+G+G+G+",
"G+G+G+G+G+G+r F+F+F+G+G+G+G+G+G+",
"G+G+G+G+G+G+l F+F+6 G+G+G+G+G+G+",
"G+G+G+G+G+G+l F+F+6 G+G+G+G+G+G+",
"G+G+G+G+G+G+6 F+F+6 G+G+G+G+G+G+",
"G+G+G+G+G+G+*.F+F+6 G+G+G+G+G+G+",
"G+G+G+G+G+G+j F+F+6 G+G+G+G+G+G+",
"G+G+G+G+G+k F+| F+6 G+G+G+G+G+G+",
"G+G+G+G+F+w 5 G+F+6 G+G+G+G+G+G+",
"G+G+G+G+G+G+G+G+F+].G+G+G+G+G+G+",
"G+G+G+G+G+G+G+G+G+G+G+G+G+G+G+G+"};
