/* XPM */
static char *gui_sound______[] = {
/* columns rows colors chars-per-pixel */
"32 32 166 2",
"   c black",
".  c gray1",
"X  c #070707",
"o  c #03070C",
"O  c #050C15",
"+  c #050C16",
"@  c #141413",
"#  c #141514",
"$  c #161615",
"%  c #141616",
"&  c #161716",
"*  c #171716",
"=  c #161818",
"-  c #171919",
";  c #181818",
":  c #191919",
">  c #191A19",
",  c #191B1B",
"<  c #1C1C1B",
"1  c #1C1D1C",
"2  c #1F201F",
"3  c #222321",
"4  c #232424",
"5  c #232525",
"6  c #242626",
"7  c #252727",
"8  c #272726",
"9  c #282827",
"0  c #272B2C",
"q  c #292A29",
"w  c #2D2E2D",
"e  c #2A2F30",
"r  c #2B2F30",
"t  c #303231",
"y  c #333533",
"u  c #343635",
"i  c #343636",
"p  c #373737",
"a  c #383A38",
"s  c #383A39",
"d  c #3B3C3A",
"f  c #393D3C",
"g  c #3C3E3D",
"h  c #3F3F3F",
"j  c #193A69",
"k  c #1B3F73",
"l  c gray25",
"z  c #404241",
"x  c #454544",
"c  c #444744",
"v  c #464645",
"b  c #454948",
"n  c #4A4B4A",
"m  c #4A4E4D",
"M  c #4E504F",
"N  c #50514E",
"B  c #4C5050",
"V  c #505452",
"C  c #555957",
"Z  c #575A56",
"A  c #595B56",
"S  c #585B5A",
"D  c #5C5D59",
"F  c #5D5E5B",
"G  c #5B5F5D",
"H  c gray36",
"J  c #5F605B",
"K  c #636561",
"L  c #606462",
"P  c #656564",
"I  c #656764",
"U  c #656866",
"Y  c #686A67",
"T  c #676A69",
"R  c #6B6D68",
"E  c #6E6F6D",
"W  c gray43",
"Q  c #737571",
"!  c #747874",
"~  c #767A78",
"^  c #7A7B7A",
"/  c #787C7A",
"(  c #7B7E7A",
")  c #7D7E7D",
"_  c #7E7F7C",
"`  c #7D807B",
"'  c #7F817A",
"]  c #7F807E",
"[  c #204A87",
"{  c #838683",
"}  c #868686",
"|  c #898D89",
" . c #8C8E8B",
".. c #8F938F",
"X. c #91938A",
"o. c #90918F",
"O. c #949793",
"+. c #959793",
"@. c #959695",
"#. c #969795",
"$. c #959894",
"%. c gray61",
"&. c #9D9F9C",
"*. c #9DA099",
"=. c #A1A1A0",
"-. c #A2A5A1",
";. c #A5A8A5",
":. c #A9ACA8",
">. c #ADAEAB",
",. c #AEB0AD",
"<. c #B0B2AE",
"1. c gray69",
"2. c #B1B3B0",
"3. c #B4B5B5",
"4. c #B7B8B5",
"5. c #BABDB6",
"6. c #BBBEB7",
"7. c #B9B9B8",
"8. c #B9BAB9",
"9. c #B9BABA",
"0. c gray73",
"q. c #BCBCBC",
"w. c #BDC0B9",
"e. c #BEC1BC",
"r. c #BFC0BE",
"t. c #BFC1BE",
"y. c #C1C5BE",
"u. c #C2C4BF",
"i. c #C4C5C2",
"p. c #C5C5C4",
"a. c #C6C6C6",
"s. c #C6C7C6",
"d. c #C8C9C7",
"f. c #CBCFC7",
"g. c #CACBCA",
"h. c #CDCFCD",
"j. c #D0D1CF",
"k. c #D1D3CE",
"l. c #D1D4CD",
"z. c #D1D2D1",
"x. c #D2D2D1",
"c. c #D3D5D1",
"v. c #D5D6D5",
"b. c #D9DAD8",
"n. c #D9DAD9",
"m. c #DCDCDA",
"M. c #DDDEDD",
"N. c #DFE0DD",
"B. c #DFE1DE",
"V. c #E0E1DF",
"C. c #E1E2E0",
"Z. c #E1E3E0",
"A. c #E4E5E3",
"S. c #E5E6E3",
"D. c #E5E6E4",
"F. c #E5E6E5",
"G. c #E6E7E5",
"H. c #E7E8E7",
"J. c #E9E9E7",
"K. c #EAEBEA",
"L. c #ECEDEA",
"P. c #EDEDEB",
"I. c #EEEFED",
"U. c #F0F0EF",
"Y. c #FAFBFA",
"T. c None",
/* pixels */
"T.T.T.T.T.T.T.T.T.T.T.T.T.T.T.T.T.T.T.T.T.T.T.T.T.T.T.T.T.T.T.T.",
"T.T.T.T.T.T.T.T.T.T.T.T.T.T.T.T.T.T.T.T.T.T.T.T.T.T.T.T.T.T.T.T.",
"T.T.T.T.T.T.T.T.T.T.T.T.T.T.T.T.T.T.T.T.T.T.T.T.T.T.T.T.T.T.T.T.",
"T.T.T.T.T.T.T.T.T.T.T.T.T.T.T.T.T.T.T.T.T.T.T.T.T.T.T.T.T.T.T.T.",
"T.T.T.T.T.T.T.T.T.T.T.T.T.T.T.T.T.T.T.T.T.T.T.T.[ T.T.T.T.T.T.T.",
"T.T.T.T.T.T.T.T.T.T.T.T.T.y.w.T.T.T.T.T.T.T.T.T.T.[ T.T.T.T.T.T.",
"T.T.T.T.T.T.T.T.T.T.T.T.' f.w.T.T.T.T.T.T.T.T.T.T.T.[ T.T.T.T.T.",
"T.T.T.T.T.T.T.T.T.T.T.T.I l.6.T.T.T.T.T.T.[ T.T.T.T.T.T.T.T.T.T.",
"T.T.T.T.T.T.T.T.T.T.T.n y.K.i.T.T.T.T.T.T.T.T.T.T.T.T.[ T.T.T.T.",
"T.T.T.5.5.5.5.T.T.T.I 0.D I.q.T.T.T.T.T.T.T.[ T.T.T.T.T.T.T.T.T.",
"T.T.T.C.A.S.V.T.N %.=.d ) M.<.T.T.T.[ T.T.T.T.[ T.T.T.T.[ T.T.T.",
"T.T.T.A.5.5.V.Y 0.E } 7.O.n.:.T.T.T.T.[ T.T.T.[ T.T.T.T.[ T.T.T.",
"T.T.Q U.c.k.F.2.v ^ q.a.#.x.-.T.T.T.T.[ T.T.T.T.T.T.T.T.[ T.T.T.",
"T.K *.Y.P.J.K.E v ) <.x.#.d.$.T.T.T.T.T.T.T.T.T.[ T.T.T.T.T.T.T.",
"T.J X.H.m.m.F.a 8 w q 4 x y...U T.T.T.T.[ T.T.T.[ T.T.T.T.T.T.T.",
"T.D ' V.i.i.M.y $ : < 1 z 3.| m T.T.T.T.[ T.T.T.[ T.T.T.T.T.T.T.",
"T.A R n.>.>.v.B $ $ : 1 g ,.~ T.T.T.T.T.T.T.T.T.T.T.T.T.[ T.T.T.",
"T.T.Z x.+.+.h.T 8 # - : a ;./ T.T.T.T.[ T.T.T.T.T.T.T.T.[ T.T.T.",
"T.T.T.g.) ' a.i H i @ $ i *.L   T.T.T.[ T.T.T.[ T.T.T.T.[ T.T.T.",
"T.  $ 0.a.a.3.- 8 l v = t #.J     + k T.T.T.T.[ T.T.T.T.[ T.T.T.",
"      0 r r 0 .   : 4 g t  .S     + o   T.T.[ T.T.T.T.T.T.T.T.T.",
"                    X , a { B           T.T.T.T.T.T.T.[ T.T.T.T.",
"                      . 5 ( m           j [ T.T.T.T.T.T.T.T.T.T.",
"                        7 ! b           T.T.T.T.T.T.[ T.T.T.T.T.",
"T.                      $ S f         T.T.T.T.T.T.[ T.T.T.T.T.T.",
"T.T.                      - .     T.T.T.T.T.T.T.[ T.T.T.T.T.T.T.",
"T.T.T.T.T.                  T.T.T.T.T.T.T.T.T.[ T.T.T.T.T.T.T.T.",
"T.T.T.T.T.T.T.T.T.T.T.T.T.T.T.T.T.T.T.T.T.T.T.T.T.T.T.T.T.T.T.T.",
"T.T.T.T.T.T.T.T.T.T.T.T.T.T.T.T.T.T.T.T.T.T.T.T.T.T.T.T.T.T.T.T.",
"T.T.T.T.T.T.T.T.T.T.T.T.T.T.T.T.T.T.T.T.T.T.T.T.T.T.T.T.T.T.T.T.",
"T.T.T.T.T.T.T.T.T.T.T.T.T.T.T.T.T.T.T.T.T.T.T.T.T.T.T.T.T.T.T.T.",
"T.T.T.T.T.T.T.T.T.T.T.T.T.T.T.T.T.T.T.T.T.T.T.T.T.T.T.T.T.T.T.T."
};
