/* XPM */
static char *dummy[]={
"16 16 6 1",
". c None",
"# c #000000",
"a c #3f3f3f",
"b c #7f7f7f",
"d c #bfbfbf",
"c c #ffffff",
"................",
"................",
"................",
"..############..",
"..abccccccccba..",
"..bcbdccccbbcb..",
"..bccdbdbbcccb..",
"..bccccdcccccb..",
"..bccccccccccb..",
"..bccccccccccb..",
"..############..",
"................",
"................",
"................",
"................",
"................"};
