/* XPM */
static char *tst[]={
"16 16 54 1",
". c None",
"o c #000000",
"a c #0000ff",
"v c #161717",
"X c #181919",
"V c #191a1a",
"S c #1a1b1b",
"M c #1b1c1c",
"T c #1c1d1d",
"F c #1e1f1f",
"Q c #1f2020",
"L c #212222",
"y c #292a2a",
"G c #2b2c2c",
"Z c #3f3f3f",
"g c #3f4040",
"z c #4d4e4e",
"D c #4e4f4f",
"s c #505050",
"n c #606161",
"A c #6b6c6c",
"E c #6d6d6d",
"r c #6f6f6f",
"t c #6f7070",
"l c #737373",
"w c #7b7b7b",
"h c #7e7e7e",
"P c #7f7f7f",
"W c #818181",
"B c #858686",
"k c #888888",
"K c #8f9090",
"H c #909090",
"q c #919292",
"Y c #929393",
"J c #9a9b9b",
"f c #9c9c9c",
"u c #a8a8a8",
"N c #b1b2b2",
"m c #bfbfbf",
"p c #dedede",
"i c #e8e8e8",
"I c #f3f3f3",
"x c #f8f8f8",
"O c #f9f9f9",
"C c #fafafa",
"U c #fcfcfc",
"e c #fcfcfe",
"c c #fcfdfe",
"b c #fcfdff",
"R c #fdfdfd",
"d c #fdfdff",
"j c #fefefe",
"# c #ffffff",
".##############.",
"#aaaaaaaaaaaaaa#",
"#a#bcddddde#d#a#",
"#a#fghi##jklm#a#",
"#a#nooop#qrst#a#",
"#a#uoovwxyzAB#a#",
"#a#CDovEmFGHj#a#",
"#a##IJKLMNO###a#",
"#a####PQFPR###a#",
"#a##jPSmmTPU##a#",
"#a#RPVP##PMPC#a#",
"#a#WXY####uVP#a#",
"#a#oPj#####Po#a#",
"#a############a#",
"#PZmaaaaaaaaaaa#",
".##############."};
