/* XPM */
static char * school_xpm[] = {
"16 16 75 1",
" 	c None",
".	c #C06F2E",
"+	c #583314",
"@	c #603716",
"#	c #74431B",
"$	c #BC6C2D",
"%	c #000000",
"&	c #2F662F",
"*	c #759975",
"=	c #5A855A",
"-	c #326832",
";	c #7FA17F",
">	c #9FB89F",
",	c #407240",
"'	c #8DAB8D",
")	c #528052",
"!	c #759A75",
"~	c #A4BCA4",
"{	c #F5F7F5",
"]	c #CDDACD",
"^	c #B8CBB8",
"/	c #729772",
"(	c #8CAA8C",
"_	c #FFFFFF",
":	c #E5ECE5",
"<	c #A8BFA8",
"[	c #195619",
"}	c #467746",
"|	c #BECFBE",
"1	c #185618",
"2	c #0E4E0E",
"3	c #044704",
"4	c #3F723F",
"5	c #5F895F",
"6	c #6F956F",
"7	c #678F67",
"8	c #E1E9E1",
"9	c #699069",
"0	c #ACC2AC",
"a	c #7A9D7A",
"b	c #668E66",
"c	c #5F8A5F",
"d	c #084908",
"e	c #245E24",
"f	c #0D4D0D",
"g	c #266026",
"h	c #386D38",
"i	c #5E895E",
"j	c #B6C9B6",
"k	c #BBCDBB",
"l	c #97B297",
"m	c #000400",
"n	c #ABC1AB",
"o	c #6E946E",
"p	c #2B632B",
"q	c #145314",
"r	c #004400",
"s	c #255F25",
"t	c #96B296",
"u	c #648D64",
"v	c #527F52",
"w	c #C6D4C6",
"x	c #BFD0BF",
"y	c #98B398",
"z	c #99B399",
"A	c #DEE7DE",
"B	c #6D3F1A",
"C	c #593315",
"D	c #955623",
"E	c #804A1E",
"F	c #7E491E",
"G	c #40250F",
"H	c #6F401A",
"I	c #5D3516",
"J	c #573214",
"         .+     ",
"         @#$    ",
" %%%%%%%%%%%%%%%",
" %&*==-;-;>,;')%",
" %!~{{];^/(_:_<%",
" %[};||12234456%",
" %789}_0aab654c%",
" %[defg)3hijkl,m",
" %7nopqrrrrstu&%",
" %rvwxyyyxyzA5r%",
" %%%%%%%%%%%%%%%",
"  .B         C. ",
"  +D         EF ",
".GH          .G ",
"GG.           FH",
"I.            .J"};
