<?xml version="1.0" encoding="UTF-8" standalone="no"?>
<!-- Created with Inkscape (http://www.inkscape.org/) -->

<svg
   xmlns:dc="http://purl.org/dc/elements/1.1/"
   xmlns:cc="http://creativecommons.org/ns#"
   xmlns:rdf="http://www.w3.org/1999/02/22-rdf-syntax-ns#"
   xmlns:svg="http://www.w3.org/2000/svg"
   xmlns="http://www.w3.org/2000/svg"
   xmlns:sodipodi="http://sodipodi.sourceforge.net/DTD/sodipodi-0.dtd"
   xmlns:inkscape="http://www.inkscape.org/namespaces/inkscape"
   height="22"
   id="svg2"
   inkscape:output_extension="org.inkscape.output.svg.inkscape"
   inkscape:version="0.48.1 r9760"
   sodipodi:docname="sikh.svg"
   sodipodi:version="0.32"
   version="1.0"
   width="22">
  <metadata
     id="metadata2975">
    <rdf:RDF>
      <cc:Work
         rdf:about="">
        <dc:format>image/svg+xml</dc:format>
        <dc:type
           rdf:resource="http://purl.org/dc/dcmitype/StillImage" />
        <cc:license
           rdf:resource="http://web.resource.org/cc/PublicDomain" />
        <dc:language>en</dc:language>
      </cc:Work>
    </rdf:RDF>
  </metadata>
  <sodipodi:namedview
     bordercolor="#666666"
     borderopacity="1.0"
     gridtolerance="10.0"
     guidetolerance="10.0"
     id="base"
     inkscape:current-layer="svg2"
     inkscape:cx="6.7203054"
     inkscape:cy="6.7914959"
     inkscape:pageopacity="0.0"
     inkscape:pageshadow="2"
     inkscape:window-height="725"
     inkscape:window-width="1024"
     inkscape:window-x="0"
     inkscape:window-y="20"
     inkscape:zoom="14.746834"
     objecttolerance="10.0"
     pagecolor="#ffffff"
     showgrid="false"
     inkscape:window-maximized="0" />
  <defs
     id="defs4">
    <inkscape:perspective
       id="perspective2441"
       inkscape:persp3d-origin="290 : 193.33333 : 1"
       inkscape:vp_x="0 : 290 : 1"
       inkscape:vp_y="0 : 1000 : 0"
       inkscape:vp_z="580 : 290 : 1"
       sodipodi:type="inkscape:persp3d" />
    <inkscape:perspective
       id="perspective2466"
       inkscape:persp3d-origin="372.04724 : 350.78739 : 1"
       inkscape:vp_x="0 : 526.18109 : 1"
       inkscape:vp_y="0 : 1000 : 0"
       inkscape:vp_z="744.09448 : 526.18109 : 1"
       sodipodi:type="inkscape:persp3d" />
    <inkscape:perspective
       id="perspective3333"
       inkscape:persp3d-origin="372.04724 : 350.78739 : 1"
       inkscape:vp_x="0 : 526.18109 : 1"
       inkscape:vp_y="0 : 1000 : 0"
       inkscape:vp_z="744.09448 : 526.18109 : 1"
       sodipodi:type="inkscape:persp3d" />
    <inkscape:perspective
       id="perspective3401"
       inkscape:persp3d-origin="372.04724 : 350.78739 : 1"
       inkscape:vp_x="0 : 526.18109 : 1"
       inkscape:vp_y="0 : 1000 : 0"
       inkscape:vp_z="744.09448 : 526.18109 : 1"
       sodipodi:type="inkscape:persp3d" />
    <inkscape:perspective
       id="perspective3464"
       inkscape:persp3d-origin="372.04724 : 350.78739 : 1"
       inkscape:vp_x="0 : 526.18109 : 1"
       inkscape:vp_y="0 : 1000 : 0"
       inkscape:vp_z="744.09448 : 526.18109 : 1"
       sodipodi:type="inkscape:persp3d" />
    <inkscape:perspective
       id="perspective3581"
       inkscape:persp3d-origin="225 : 150 : 1"
       inkscape:vp_x="0 : 225 : 1"
       inkscape:vp_y="0 : 1000 : 0"
       inkscape:vp_z="450 : 225 : 1"
       sodipodi:type="inkscape:persp3d" />
    <inkscape:perspective
       id="perspective4312"
       inkscape:persp3d-origin="225 : 150 : 1"
       inkscape:vp_x="0 : 225 : 1"
       inkscape:vp_y="0 : 1000 : 0"
       inkscape:vp_z="450 : 225 : 1"
       sodipodi:type="inkscape:persp3d" />
  </defs>
  <g
     id="g1327"
     transform="matrix(0.0428488,0,0,0.0428488,-0.6103005,-1.0167421)">
    <path
       d="M 66.275,1.768 C 24.94,1.768 1.704,23.139 1.704,66.804 l 0,450.123 c 0,40.844 20.895,62.229 62.192,62.229 l 452.024,0 c 41.307,0 62.229,-20.315 62.229,-62.229 l 0,-450.123 c 0,-42.601 -20.922,-65.036 -63.521,-65.036 -0.004,0 -448.495,-0.143 -448.353,0 z"
       id="path1329"
       style="fill:#111111;fill-opacity:0;stroke:#eeeeee;stroke-width:3.40799999;stroke-opacity:0"
       inkscape:connector-curvature="0" />
  </g>
  <path
     d="M 10.890585,0.4682366 C 10.400154,1.2327904 9.5346054,1.6805884 9.058799,2.4593668 9.0616735,2.880966 9.0582308,3.348632 8.8298256,3.7100161 8.3965234,4.016248 7.9003262,4.2586967 7.5553236,4.6733638 6.7716988,5.4090957 6.0719126,6.3400702 5.9991271,7.4472347 5.876274,8.4532105 5.9766463,9.5143665 6.5144302,10.388814 c 0.5503405,0.888482 1.2318733,1.747555 2.1855103,2.221701 0.3592178,0.26314 0.461622,0.757459 0.3227043,1.171647 -0.05888,0.200783 0.02909,0.426781 0.2640082,0.445098 0.5236109,0.217953 0.994557,0.600246 1.293279,1.089424 0.162122,0.296735 0.260147,0.747621 -0.01607,1.005608 -0.242178,0.17611 -0.498293,-0.107149 -0.7172034,-0.189025 C 9.1694156,15.69353 8.5525117,15.179135 7.9214305,14.677028 6.6238193,13.604138 5.1774155,12.188139 4.6761702,10.544398 4.1726094,9.1140151 4.0316466,7.2706258 4.7484775,5.8685243 5.0718283,5.1945417 5.6141187,4.6798876 6.1142831,4.1344871 6.2038248,4.0016665 6.024793,3.9085273 5.9147681,3.9845163 5.2963274,4.1718383 4.7950987,4.6123476 4.3298615,5.040508 3.1818567,6.1831775 2.545413,8.0190793 2.6502253,9.631184 c 0.056054,2.263091 1.3025376,4.481015 2.660205,6.250847 0.531649,0.750363 1.1174248,1.513222 1.351514,2.412645 -0.051554,0.1721 0.1457667,0.246105 0.2517366,0.117835 0.749979,-0.388249 1.2137938,-1.176231 1.9817575,-1.529167 0.3385906,-0.09456 0.6369681,0.116917 0.9091973,0.279856 0.1318216,0.05139 0.4563233,0.173625 0.2865513,0.356181 -0.3382047,0.208614 -0.7376688,0.3111 -1.055884,0.558197 -0.6048992,0.402816 -1.1571163,1.046039 -1.1575242,1.806521 0.03057,0.402544 0.4831015,0.72135 0.8623324,0.534271 0.4447902,-0.157708 0.6863947,-0.697765 0.5222199,-1.136833 0.010636,-0.447803 0.4885088,-0.660061 0.8409069,-0.819483 0.17894,-0.122469 0.530815,-0.188127 0.591849,0.09507 0.132612,0.454337 -0.01266,0.931638 -0.05758,1.383212 -0.06456,0.330346 -0.284397,0.602114 -0.39769,0.902504 -0.003,0.390298 0.323295,0.689915 0.609255,0.90652 0.286878,0.232068 0.18271,-0.153641 0.198176,-0.341452 0,-7.05934 0,-14.1186789 0,-21.17801877 -0.05222,0.0794496 -0.104443,0.15889763 -0.156665,0.23834645 z M 9.3065186,4.9352241 C 9.6814107,4.9656485 9.7753716,5.4247562 9.8390154,5.725337 10.193967,7.1096187 10.570907,8.3809846 10.239582,9.8084683 10.09616,10.349701 9.9945486,10.737719 9.7591088,11.246049 9.6797828,11.45558 9.4707096,11.594677 9.2476014,11.507159 8.7108919,11.277854 8.4717323,10.917837 8.0805843,10.499493 7.3041011,9.6370135 6.8944515,8.4771165 7.2161581,7.3307249 7.427679,6.3640586 7.9522454,5.7675962 8.7596471,5.2439047 8.9423149,5.1517343 9.0963464,4.9531942 9.3065186,4.9352241 z"
     id="path7034"
     sodipodi:nodetypes="cccccccccccccccccccccccccccccccccccccccccccccc"
     style="fill:#5e8019"
     inkscape:connector-curvature="0" />
  <path
     d="M 12.675505,2.2290545 C 12.57154,2.385432 12.46903,2.5444694 12.326019,2.6655767 c -0.463806,0.5312684 -1.090315,0.9219695 -1.464893,1.5291665 0.02517,0.2730736 -0.0499,1.1598905 -0.289228,1.3162614 -0.373686,0.2788437 -0.822503,0.4650385 -1.1274601,0.8261787 -0.901004,0.8652296 -1.5811382,1.6768336 -1.6536957,2.9471934 -0.1236679,1.2609303 0.050381,2.1737813 0.8020761,3.2216943 0.4782729,0.677667 1.0389627,1.325707 1.7849207,1.695205 0.306961,0.160112 0.576514,0.644327 0.49276,1.016321 -0.0034,0.178067 -0.120974,0.410966 -0.02277,0.566407 0.28532,0.124045 0.585783,0.229098 0.818144,0.449912 0.475406,0.349346 0.963214,0.893564 0.850281,1.533185 -0.02205,0.285399 -0.336079,0.537699 -0.605239,0.35484 C 11.254896,17.843271 10.73242,17.331516 10.155457,16.922176 8.6987238,15.781752 7.2852414,14.43221 6.6632818,12.64399 6.1265825,11.204848 5.814228,9.5400174 6.4316304,8.0765766 6.7378262,7.3203624 7.2878034,6.7036267 7.8630478,6.1457024 7.9000303,6.1019827 8.0057332,5.9797327 7.8683866,6.0265295 7.3825985,6.1408952 6.9778653,6.4840207 6.5882789,6.7830787 5.3389212,7.8418625 4.6582197,9.4825968 4.7042705,11.113485 c -0.028073,2.245157 0.8825475,4.400876 2.2026963,6.171566 0.5950727,0.83909 1.2576005,1.670581 1.5519294,2.668677 0.015819,0.04894 -0.035584,0.224512 0.062939,0.132563 0.7141726,-0.359681 1.1825658,-1.053239 1.8491938,-1.470248 0.308589,-0.217271 0.706889,-0.124097 1.00159,0.07097 0.167623,0.15237 0.451369,0.168499 0.562391,0.372249 0.06155,0.29337 -0.327992,0.364031 -0.518202,0.460625 -0.79108,0.355616 -1.5823705,0.98613 -1.7326989,1.885346 -0.078866,0.380385 0.2652328,0.799366 0.6601389,0.670852 0.428938,-0.102956 0.718728,-0.606166 0.549001,-1.020337 -0.03868,-0.478407 0.424993,-0.770648 0.816804,-0.913215 0.212042,-0.146127 0.598867,-0.27649 0.748516,0.01875 0.188362,0.423809 0.03422,0.900771 0.008,1.343042 -0.05008,0.372785 -0.232901,0.70947 -0.424471,1.020337 -0.03669,0.342656 0.26887,0.601693 0.487406,0.819483 0.04678,0.03136 0.09615,0.05659 0.145954,0.07767 l 0,-21.1927491 z m -1.667087,4.1616897 c 0.414341,0.00804 0.552735,0.4816249 0.617291,0.8154662 0.460869,1.860143 0.816539,3.0873746 0.250398,4.9664436 -0.131054,0.435301 -0.198459,0.946498 -0.531592,1.272073 C 10.94822,13.63551 10.564133,13.280388 10.271956,13.051053 8.9345395,11.944295 8.1913948,10.44617 8.7548399,8.7527844 9.1124933,7.6433402 9.9014701,7.0340888 10.882551,6.4161856 c 0.04014,-0.015952 0.08285,-0.020937 0.125867,-0.02544 z"
     id="path2439"
     style="opacity:0.25;fill:#ffffff;fill-opacity:0"
     inkscape:connector-curvature="0" />
  <path
     d="m 12.671973,2.2290545 c 0.103965,0.1563775 0.206475,0.3154149 0.349486,0.4365222 0.463806,0.5312684 1.090315,0.9219695 1.464892,1.5291665 -0.02517,0.2730736 0.0499,1.1598905 0.289229,1.3162614 0.373686,0.2788437 0.822502,0.4650385 1.12746,0.8261787 0.901004,0.8652296 1.581139,1.6768336 1.653695,2.9471934 0.123669,1.2609303 -0.05038,2.1737813 -0.802075,3.2216943 -0.478273,0.677667 -1.038963,1.325707 -1.78492,1.695205 -0.306964,0.160112 -0.576514,0.644327 -0.492761,1.016321 0.0034,0.178067 0.120974,0.410966 0.02277,0.566407 -0.28532,0.124045 -0.585784,0.229098 -0.818145,0.449912 -0.475406,0.349346 -0.963214,0.893564 -0.85028,1.533185 0.02205,0.285399 0.336078,0.537699 0.605239,0.35484 0.656021,-0.27867 1.178497,-0.790425 1.755461,-1.199765 1.456735,-1.140424 2.870218,-2.489966 3.492177,-4.278186 0.5367,-1.439142 0.849055,-3.1039726 0.231653,-4.5674134 -0.306196,-0.7562142 -0.856174,-1.3729499 -1.431419,-1.9308742 -0.03698,-0.04372 -0.142685,-0.1659697 -0.0054,-0.1191729 0.485789,0.1143657 0.890522,0.4574912 1.280108,0.7565492 1.249358,1.0587838 1.93006,2.6995181 1.884008,4.3304063 0.02807,2.245157 -0.882547,4.400876 -2.202695,6.171566 -0.595073,0.83909 -1.2576,1.670581 -1.55193,2.668677 -0.01582,0.04894 0.03559,0.224512 -0.06294,0.132563 -0.714173,-0.359681 -1.182566,-1.053239 -1.849193,-1.470248 -0.308589,-0.217271 -0.70689,-0.124097 -1.001591,0.07097 -0.167623,0.15237 -0.451369,0.168499 -0.56239,0.372249 -0.06155,0.29337 0.32799,0.364031 0.518202,0.460625 0.791078,0.355616 1.58237,0.98613 1.732699,1.885346 0.07886,0.380385 -0.265234,0.799366 -0.660139,0.670852 -0.42894,-0.102956 -0.718729,-0.606166 -0.549001,-1.020337 0.03869,-0.478407 -0.424994,-0.770648 -0.816805,-0.913215 -0.212043,-0.146127 -0.598867,-0.27649 -0.748515,0.01875 -0.188364,0.423809 -0.03422,0.900771 -0.008,1.343042 0.05008,0.372785 0.232903,0.70947 0.424472,1.020337 0.03669,0.342656 -0.26887,0.601693 -0.487406,0.819483 -0.04678,0.03136 -0.09616,0.05659 -0.145954,0.07767 l 0,-21.1927491 z m 1.667085,4.1616897 c -0.414339,0.00804 -0.552734,0.4816249 -0.61729,0.8154662 -0.460868,1.860143 -0.816538,3.0873746 -0.250397,4.9664436 0.131054,0.435301 0.198458,0.946498 0.531593,1.272073 0.396294,0.190783 0.78038,-0.164339 1.072558,-0.393674 1.337416,-1.106758 2.080561,-2.604883 1.517116,-4.2982686 -0.357654,-1.1094442 -1.14663,-1.7186956 -2.127711,-2.3365988 -0.04014,-0.015952 -0.08285,-0.020937 -0.125869,-0.02544 z"
     id="path2441"
     style="opacity:0.25;fill:#ffffff;fill-opacity:0"
     inkscape:connector-curvature="0" />
  <path
     d="m 11.11456,0.4682366 c 0.490432,0.7645538 1.35598,1.2123518 1.831787,1.9911302 -0.0029,0.4215992 5.68e-4,0.8892652 0.228973,1.2506493 0.433302,0.3062319 0.9295,0.5486806 1.274502,0.9633477 0.783624,0.7357319 1.483411,1.6667064 1.556197,2.7738709 0.122853,1.0059758 0.02248,2.0671318 -0.515303,2.9415793 -0.55034,0.888482 -1.231875,1.747555 -2.18551,2.221701 -0.35922,0.26314 -0.461622,0.757459 -0.322706,1.171647 0.05888,0.200783 -0.02909,0.426781 -0.264007,0.445098 -0.523612,0.217953 -0.994557,0.600246 -1.293278,1.089424 -0.162124,0.296735 -0.26015,0.747621 0.01607,1.005608 0.242177,0.17611 0.498292,-0.107149 0.717204,-0.189025 0.677243,-0.439737 1.294148,-0.954132 1.925228,-1.456239 1.297612,-1.07289 2.744016,-2.488889 3.245261,-4.13263 0.503561,-1.4303829 0.644523,-3.2737722 -0.07231,-4.6758737 -0.32335,-0.6739826 -0.865641,-1.1886367 -1.365805,-1.7340372 -0.08954,-0.1328206 0.08949,-0.2259598 0.199515,-0.1499708 0.618442,0.187322 1.11967,0.6278313 1.584907,1.0559917 1.148005,1.1426695 1.784448,2.9785713 1.679636,4.590676 -0.05606,2.263091 -1.302537,4.481015 -2.660205,6.250847 -0.531648,0.750363 -1.117425,1.513222 -1.351513,2.412645 0.05155,0.1721 -0.145768,0.246105 -0.251738,0.117835 -0.749979,-0.388249 -1.213793,-1.176231 -1.981756,-1.529167 -0.338591,-0.09456 -0.63697,0.116917 -0.909199,0.279856 -0.131821,0.05139 -0.456323,0.173625 -0.286551,0.356181 0.338205,0.208614 0.73767,0.3111 1.055884,0.558197 0.604899,0.402816 1.157118,1.046039 1.157525,1.806521 -0.03057,0.402544 -0.483102,0.72135 -0.862333,0.534271 -0.444791,-0.157708 -0.686395,-0.697765 -0.522219,-1.136833 -0.01063,-0.447803 -0.488509,-0.660061 -0.840909,-0.819483 -0.17894,-0.122469 -0.530815,-0.188127 -0.591848,0.09507 -0.132611,0.454337 0.01266,0.931638 0.05758,1.383212 0.06456,0.330346 0.284398,0.602114 0.397691,0.902504 0.003,0.390298 -0.323297,0.689915 -0.609257,0.90652 -0.286876,0.232068 -0.18271,-0.153641 -0.198175,-0.341452 0,-7.05934 0,-14.1186789 0,-21.17801877 0.05222,0.0794496 0.104444,0.15889763 0.156665,0.23834645 z m 1.584067,4.4669875 c -0.374891,0.030424 -0.468853,0.4895321 -0.532497,0.7901129 -0.354952,1.3842817 -0.731891,2.6556476 -0.400567,4.0831313 0.143421,0.5412327 0.245034,0.9292507 0.480473,1.4375807 0.07934,0.209531 0.2884,0.348628 0.511509,0.26111 0.536708,-0.229305 0.775868,-0.589322 1.167016,-1.007666 C 14.701044,9.6370135 15.110695,8.4771165 14.788987,7.3307249 14.577467,6.3640586 14.0529,5.7675962 13.245499,5.2439047 13.062831,5.1517343 12.908799,4.9531942 12.698627,4.9352241 z"
     id="path3778"
     sodipodi:nodetypes="cccccccccccccccccccccccccccccccccccccccccccccc"
     style="fill:#5e8019"
     inkscape:connector-curvature="0" />
</svg>
