/* XPM */
static char *dummy[]={
"96 96 2 1",
". c None",
"# c #808080",
"................................................................................................",
"................................................................................................",
"................................................................................................",
"................................................................................................",
"................................................................................................",
"................................................................................................",
"................................................................................................",
"................................................................................................",
"................................................................................................",
"................................................................................................",
"................................................................................................",
"................................................................................................",
"................................................................................................",
"................................................................................................",
"................................................................................................",
"................................................................................................",
"................................................................................................",
"................................................................................................",
"................................................................................................",
"................................................................................................",
"................................................................................................",
"................................................................................................",
"................................................................................................",
"................................................................................................",
"........................######################..................................................",
"........................#######################.................................................",
"........................#######################.................................................",
"........................#######################.................................................",
"........................#######################.................................................",
"........................######################..................................................",
"........................######..................................................................",
"........................######..................................................................",
"........................######..................................................................",
"........................######..................................................................",
"........................######..................................................................",
"........................######..................................................................",
"........................######..................................................................",
"........................######..................................................................",
"........................######..................................................................",
"........................######..................................................................",
"........................######..................................................................",
"........................######..................................................................",
"........................######..................................................................",
"........................######..................................................................",
"........................######..................................................................",
"........................######..................................................................",
".........................####...................................................................",
"................................................................................................",
"................................................................................................",
"...................................................................####.........................",
"..................................................................######........................",
"..................................................................######........................",
"..................................................................######........................",
"..................................................................######........................",
"..................................................................######........................",
"..................................................................######........................",
"..................................................................######........................",
"..................................................................######........................",
"..................................................................######........................",
"..................................................................######........................",
"..................................................................######........................",
"..................................................................######........................",
"..................................................................######........................",
"..................................................................######........................",
"..................................................................######........................",
"..................................................................######........................",
"..................................................######################........................",
".................................................#######################........................",
".................................................#######################........................",
".................................................#######################........................",
".................................................#######################........................",
"..................................................######################........................",
"................................................................................................",
"................................................................................................",
"................................................................................................",
"................................................................................................",
"................................................................................................",
"................................................................................................",
"................................................................................................",
"................................................................................................",
"................................................................................................",
"................................................................................................",
"................................................................................................",
"................................................................................................",
"................................................................................................",
"................................................................................................",
"................................................................................................",
"................................................................................................",
"................................................................................................",
"................................................................................................",
"................................................................................................",
"................................................................................................",
"................................................................................................",
"................................................................................................",
"................................................................................................",
"................................................................................................"};
