/* XPM */
static char *dummy[]={
"48 48 2 1",
"# c None",
". c #808080",
"......................##########################",
".......................#########################",
".......................#########################",
".......................#########################",
".......................#########################",
"......................##########################",
"......##########################################",
"......##########################################",
"......##########################################",
"......##########################################",
"......##########################################",
"......##########################################",
"......##########################################",
"......##########################################",
"......##########################################",
"......##########################################",
"......##########################################",
"......##########################################",
"......##########################################",
"......##########################################",
"......##########################################",
"......##########################################",
"#....###########################################",
"################################################",
"################################################",
"###########################################....#",
"##########################################......",
"##########################################......",
"##########################################......",
"##########################################......",
"##########################################......",
"##########################################......",
"##########################################......",
"##########################################......",
"##########################################......",
"##########################################......",
"##########################################......",
"##########################################......",
"##########################################......",
"##########################################......",
"##########################################......",
"##########################################......",
"##########################......................",
"#########################.......................",
"#########################.......................",
"#########################.......................",
"#########################.......................",
"##########################......................"};
