/* XPM */
static char * viewpoint_xpm[] = {
"16 16 3 1",
" 	c None",
".	c #FFFFFF",
"+	c #0000FF",
"..+...++++...+..",
".+++..++++..+++.",
"++++...++...++++",
".++++..++..++++.",
"...+++.++.+++...",
"....++....++....",
"++............++",
"+++++......+++++",
"+++++......+++++",
"++............++",
"....++....++....",
"...+++.++.+++...",
".++++..++..++++.",
"++++...++...++++",
".+++..++++..+++.",
"..+...++++...+.."};
