/* XPM */
static char *dummy[]={
"16 16 64 1",
". c None",
"h c #000000",
"n c #010101",
"V c #020202",
"r c #040404",
"b c #050505",
"P c #060606",
"j c #070707",
"0 c #080808",
"s c #1b1b1b",
"4 c #1e1e1e",
"3 c #202020",
"x c #262626",
"# c #272727",
"N c #292929",
"M c #313131",
"o c #343434",
"8 c #373737",
"W c #383838",
"i c #434343",
"A c #484848",
"Q c #515151",
"G c #535353",
"6 c #555555",
"H c #585858",
"t c #5d5d5d",
"2 c #5f5f5f",
"y c #606060",
"g c #6a6a6a",
"L c #6e6e6e",
"X c #707070",
"c c #717171",
"J c #7b7b7b",
"Z c #7c7c7c",
"1 c #808080",
"7 c #838383",
"5 c #848484",
"q c #8c8c8c",
"l c #949494",
"m c #969696",
"z c #9a9a9a",
"K c #9c9c9c",
"E c #9f9f9f",
"u c #a2a2a2",
"I c #a3a3a3",
"D c #acacac",
"B c #b6b6b6",
"9 c #bfbfbf",
"d c #c7c7c7",
"O c #c9c9c9",
"w c #cdcdcd",
"U c #d3d3d3",
"Y c #d4d4d4",
"S c #d8d8d8",
"F c #e6e6e6",
"T c #f0f0f0",
"C c #f4f4f4",
"a c #f5f5f5",
"p c #f6f6f6",
"v c #f7f7f7",
"k c #fbfbfb",
"f c #fdfdfd",
"R c #fefefe",
"e c #ffffff",
"................",
".....#a.........",
"....bcdeeef.....",
"...ghijkeelh....",
"..mnhmopeeqrs...",
"..thhuveeefwx...",
"..yhhzeeeeeeA...",
"..yhhBCDeEFeG...",
"..HhhIJDeKLeMN..",
"..OPhQRaSTRUVh..",
"...WhhXYZTm0hh..",
"..12hhh3ccNhhhh.",
"..h4hhhnlR5hhh..",
"..hhhhh6.78hhh..",
"...9hhhh.hhhhh..",
"....hhhh........"};
