/* XPM */
static char * airport_xpm[] = {
"16 16 56 1",
" 	c None",
".	c #03705F",
"+	c #0F7767",
"@	c #0F7766",
"#	c #DBEAE8",
"$	c #D9EAE7",
"%	c #FEFEFE",
"&	c #FAFCFB",
"*	c #F8FAFA",
"=	c #FBFDFC",
"-	c #FCFDFD",
";	c #0A7463",
">	c #73B0A6",
",	c #F8FBFB",
"'	c #F9FBFB",
")	c #82B7AE",
"!	c #58A095",
"~	c #057160",
"{	c #5CA398",
"]	c #F8FBFA",
"^	c #FFFFFF",
"/	c #FBFCFC",
"(	c #E1EDEB",
"_	c #077261",
":	c #459689",
"<	c #EFF6F5",
"[	c #6FADA3",
"}	c #2E897B",
"|	c #F1F7F6",
"1	c #FAFCFC",
"2	c #388E81",
"3	c #ECF4F3",
"4	c #F3F8F7",
"5	c #EDF5F3",
"6	c #519C90",
"7	c #0A7464",
"8	c #FDFEFE",
"9	c #087362",
"0	c #4A988C",
"a	c #AED1CC",
"b	c #61A59B",
"c	c #529D91",
"d	c #0B7564",
"e	c #F7FAFA",
"f	c #338B7D",
"g	c #66A89E",
"h	c #077362",
"i	c #B4D4CF",
"j	c #E7F1F0",
"k	c #097363",
"l	c #DCEBE9",
"m	c #218172",
"n	c #348C7E",
"o	c #047160",
"p	c #278476",
"q	c #30897B",
".......+@.......",
".......#$.......",
".......%%.......",
".......&*.......",
".......=-.......",
".......&-.......",
".....;>,')!.....",
"...~{]^^^^/(_...",
"..:^^^^^^^^^<[..",
"}|^^^^/^-1/^^^(2",
"3^4567.88.90#'^a",
"bcd....e^....f6g",
"......./1.......",
".....hi%%jk.....",
".....l^--^^.....",
".....mno.pq....."};
