/* XPM */
static char * bank_xpm[] = {
"16 16 60 1",
" 	c None",
".	c #FFFFFF",
"+	c #E7E7E7",
"@	c #ECECEC",
"#	c #8F8F8F",
"$	c #A9A9A9",
"%	c #D5D5D5",
"&	c #626262",
"*	c #6F6F6F",
"=	c #C3C3C3",
"-	c #F5F5F5",
";	c #F1F1F1",
">	c #454545",
",	c #060606",
"'	c #1A1A1A",
")	c #202020",
"!	c #0E0E0E",
"~	c #0D0D0D",
"{	c #7C7C7C",
"]	c #141414",
"^	c #DEDEDE",
"/	c #FBFBFB",
"(	c #B4B4B4",
"_	c #4F4F4F",
":	c #474747",
"<	c #787878",
"[	c #0A0A0A",
"}	c #AFAFAF",
"|	c #8A8A8A",
"1	c #4D4D4D",
"2	c #010101",
"3	c #272727",
"4	c #727272",
"5	c #DCDCDC",
"6	c #DDDDDD",
"7	c #606060",
"8	c #414141",
"9	c #1B1B1B",
"0	c #0B0B0B",
"a	c #CBCBCB",
"b	c #F2F2F2",
"c	c #5F5F5F",
"d	c #FEFEFE",
"e	c #434343",
"f	c #545454",
"g	c #696969",
"h	c #929292",
"i	c #8B8B8B",
"j	c #999999",
"k	c #949494",
"l	c #030303",
"m	c #9F9F9F",
"n	c #9E9E9E",
"o	c #2B2B2B",
"p	c #000000",
"q	c #151515",
"r	c #888888",
"s	c #7A7A7A",
"t	c #FDFDFD",
"u	c #8E8E8E",
"................",
".......+@.......",
".......#$.......",
"......%&*=-.....",
"....;>,')!~.....",
"....{]^#$/(.....",
"...._:.#$.......",
"....<[}|$.......",
"....;122345.....",
"......67890a....",
".......#$b)c....",
"....d..#$.ef....",
"....gh^ijklm....",
"....no22pqrd....",
"......;sjt......",
".......u$......."};
