/* XPM */
static char * cafe_xpm[] = {
"16 16 6 1",
" 	c None",
".	c #FFFFFF",
"+	c #0000FF",
"@	c #FEFEFE",
"#	c #000000",
"$	c #808080",
" .............. ",
".++++++++++++++.",
".++++++++++++++.",
".++@@@@@@@@@@++.",
".++@@.####.@@++.",
".++@##....##@++.",
".++@#######$#++.",
".++@#######$#++.",
".++@########@++.",
".++@.######.@++.",
".++#..####.@#++.",
".++@########@++.",
".++@@@@@@@@@@++.",
".++++++++++++++.",
".++++++++++++++.",
" .............. "};
