/* XPM */
static char *cinema[] = {
/* columns rows colors chars-per-pixel */
"12 16 114 2",
"   c gray4",
".  c #0B0B0B",
"X  c #0C0C0C",
"o  c gray5",
"O  c #0E0E0E",
"+  c gray6",
"@  c #101010",
"#  c #111111",
"$  c #161616",
"%  c #191919",
"&  c #1E1E1E",
"*  c gray13",
"=  c #282828",
"-  c gray16",
";  c gray17",
":  c #2D2D2D",
">  c #2F2F2F",
",  c gray19",
"<  c gray20",
"1  c #3A3A3A",
"2  c gray23",
"3  c #384B50",
"4  c #3F4D51",
"5  c #345158",
"6  c #3A6B77",
"7  c gray25",
"8  c #414141",
"9  c #464646",
"0  c #404648",
"q  c #4C4C4C",
"w  c #4E4E4E",
"e  c gray32",
"r  c #585858",
"t  c gray36",
"y  c #466D76",
"u  c #576F75",
"i  c #5A7278",
"p  c #606060",
"a  c #646464",
"s  c gray40",
"d  c DimGray",
"f  c gray42",
"g  c #607478",
"h  c #66797E",
"j  c gray44",
"k  c #747474",
"l  c gray46",
"z  c #707A7C",
"x  c #7C7C7C",
"c  c #6B7F83",
"v  c #3E9FB7",
"b  c #2CA5C3",
"n  c #34A8C5",
"m  c #3CABC7",
"M  c #588894",
"N  c #5F8F9B",
"B  c #4299AF",
"V  c #5FA8BA",
"C  c #658B95",
"Z  c #69909A",
"A  c #7B8E93",
"S  c #739097",
"D  c #7D959B",
"F  c #619BAA",
"G  c #679CAA",
"H  c #6C9CA8",
"J  c #7C9EA6",
"K  c #67A1AF",
"L  c #60A8BA",
"P  c #69ACBD",
"I  c #72A3AF",
"U  c #70AAB9",
"Y  c #47A8C0",
"T  c #4BACC4",
"R  c #48AFC8",
"E  c #4BB1CA",
"W  c #56B7CF",
"Q  c #6AB3C5",
"!  c #79BDCE",
"~  c #78C1D3",
"^  c #78C5D9",
"/  c gray51",
"(  c gray52",
")  c #989898",
"_  c gray65",
"`  c #AAAAAA",
"'  c #ACACAC",
"]  c #AEAEAE",
"[  c gray70",
"{  c #B7B7B7",
"}  c gray74",
"|  c #89CDDD",
" . c #AADBE7",
".. c #ABDBE7",
"X. c #C5C5C5",
"o. c gray80",
"O. c gray82",
"+. c gainsboro",
"@. c #DDDDDD",
"#. c #CCE9F1",
"$. c #DAEEF2",
"%. c #E4E4E4",
"&. c #EAEAEA",
"*. c #ECECEC",
"=. c #EEF8FA",
"-. c #F3F3F3",
";. c #F4F4F4",
":. c #F6F6F6",
">. c gray97",
",. c #F8F8F8",
"<. c gray99",
"1. c #FDFDFD",
"2. c #FEFEFE",
"3. c gray100",
/* pixels */
"3.3.3.3.3.3.3.:.O.,.3.3.",
"3.3.3.3.#. .^ K d @.3.3.",
",.j A B B N y e O [ 3.3.",
"1.x > : # @ ; e , ) 3.3.",
"3.A * c G Q E b l a 3.3.",
"<.[ p v b b b b h : 3.3.",
"<.+.o I b b b m Z a *.3.",
"3.-.s S L J i 0 =   o.3.",
"3.3.2 O   $ < 3 i t ] 3.",
"3.3.l 9 H P T n E 0 d 3.",
"3.3._ 9 ~ b b b b u ( ,.",
"3.3.X.8 V b b b b D ; &.",
"3.3.%.2 C U M z q & w O.",
"3.3.:.2 % @ # > 5 6 = ` ",
"3.3.3./ r F ! W |  .} &.",
"3.3.3.` ) $.=.3.3.3.3.3."
};
