/* XPM */
static char * dumping_station_xpm[] = {
"16 16 93 2",
"  	c #899EBF",
". 	c #5170A1",
"+ 	c #516FA2",
"@ 	c #526FA1",
"# 	c #748CB4",
"$ 	c #516FA1",
"% 	c #5270A1",
"& 	c #AEBBD1",
"* 	c #5C78A6",
"= 	c #325692",
"- 	c #5572A3",
"; 	c #FBFCFD",
"> 	c #FFFFFF",
", 	c #FEFEFE",
"' 	c #F8F9FB",
") 	c #EEF1F6",
"! 	c #DFE4EE",
"~ 	c #E3E7EF",
"{ 	c #F1F3F7",
"] 	c #506EA0",
"^ 	c #899BBD",
"/ 	c #8399BD",
"( 	c #A9B9D1",
"_ 	c #C1CCDC",
": 	c #BDC9D9",
"< 	c #8DA0C1",
"[ 	c #8196BA",
"} 	c #8498BC",
"| 	c #6D86B0",
"1 	c #315693",
"2 	c #889CBE",
"3 	c #325593",
"4 	c #F8F9FA",
"5 	c #46679B",
"6 	c #879CBC",
"7 	c #9EAEC8",
"8 	c #47669B",
"9 	c #DCE2E9",
"0 	c #FFFFFE",
"a 	c #FFFEFE",
"b 	c #FDFEFE",
"c 	c #FEFFFD",
"d 	c #748DB6",
"e 	c #DDE2EC",
"f 	c #CFD6E3",
"g 	c #B8C4D6",
"h 	c #F9FAFC",
"i 	c #325691",
"j 	c #DAE0EB",
"k 	c #FBFBFC",
"l 	c #D2DBE5",
"m 	c #C9D3E0",
"n 	c #C3CDDC",
"o 	c #F3F5F8",
"p 	c #E1E6EE",
"q 	c #9FAEC7",
"r 	c #CCD5E1",
"s 	c #CBD4E1",
"t 	c #CAD3E0",
"u 	c #5876A5",
"v 	c #6D86AD",
"w 	c #48679C",
"x 	c #6F88B0",
"y 	c #6983AC",
"z 	c #49679C",
"A 	c #E8ECF2",
"B 	c #D6DEE8",
"C 	c #4D6B9E",
"D 	c #647DA9",
"E 	c #5572A2",
"F 	c #49679B",
"G 	c #94A6C4",
"H 	c #9CACC8",
"I 	c #A0B0CA",
"J 	c #D5DCE7",
"K 	c #CAD3E1",
"L 	c #BDC7DA",
"M 	c #BDC8DA",
"N 	c #DCE2EA",
"O 	c #FFFEFF",
"P 	c #5F7AA7",
"Q 	c #AAB9D0",
"R 	c #A1B2CD",
"S 	c #7A91B5",
"T 	c #375994",
"U 	c #335792",
"V 	c #FEFFFE",
"W 	c #7990B5",
"X 	c #AEBCD1",
"Y 	c #98AAC5",
"Z 	c #BCC7D8",
"` 	c #FAFAFA",
" .	c #F3F3F3",
"  . + @ # @ @ + @ $ @ @ % % % & ",
"* = = - ; > , ' > ) ! ~ { ] = ^ ",
"* = = / ; ( _ > : < [ } > | 1 2 ",
"* = 3 } 4 5 6 > 7 8 5 5 9 | 1 2 ",
"* = 3 } 0 a b > , a a , c | 1 2 ",
"* = d e > > > f g h > > c | 1 2 ",
"* i j k l m n o p q r s t u 1 2 ",
"v w x y z w z A B C D E z z F G ",
"> > > > > > > > > > H I > > > > ",
"> > > > > > > J K K L M K K N O ",
"> > > > > > > P i i Q R = i S 0 ",
"> > > > > > > P = = T U = = S V ",
"> > > > > > > P = = = = = = W V ",
"> > > > > > > X Y Y Y Y Y Y Z 0 ",
"> > > > > > > V V V V V V V > > ",
"` > > > > > > > > > > > > > >  ."};
