/* XPM */
static char * exit_xpm[] = {
"16 16 59 1",
" 	c None",
".	c #4F4FD1",
"+	c #9292E2",
"@	c #CCCCF2",
"#	c #0000BC",
"$	c #0A0AB9",
"%	c #2E2EC2",
"&	c #1E1EBD",
"*	c #2424C2",
"=	c #1010BE",
"-	c #3030C5",
";	c #1C1CBD",
">	c #7D7DD8",
",	c #F9F9F9",
"'	c #BABAEA",
")	c #E0E0E8",
"!	c #2020C4",
"~	c #D7D7F0",
"{	c #FBFBFB",
"]	c #8B8BD9",
"^	c #BEBEE7",
"/	c #FFFFFF",
"(	c #C2C2F2",
"_	c #3C3CC0",
":	c #9C9CE3",
"<	c #DEDEEE",
"[	c #F4F4FC",
"}	c #F7F7F7",
"|	c #2323C6",
"1	c #1212C2",
"2	c #C0C0F0",
"3	c #F2F2FA",
"4	c #F0F0F8",
"5	c #2929C0",
"6	c #6E6EDB",
"7	c #B1B1E3",
"8	c #5B5BD1",
"9	c #8888D6",
"0	c #0505BE",
"a	c #2020C6",
"b	c #9E9EE7",
"c	c #AEAEE4",
"d	c #6161D2",
"e	c #DBDBF4",
"f	c #AEAEE1",
"g	c #7272DB",
"h	c #2929C7",
"i	c #9F9FD2",
"j	c #A5A5DE",
"k	c #6161D5",
"l	c #E6E6FA",
"m	c #E9E9FA",
"n	c #8E8ED0",
"o	c #C6C6E6",
"p	c #0909BF",
"q	c #1616C3",
"r	c #1A1AC4",
"s	c #0E0EC0",
"t	c #0F0FC1",
" .++++++++++++. ",
".@############@.",
"+##############+",
"+###$%&*#=%%-;#+",
"+###>,')#!~,{]#+",
"+###^/(/_:<[}|#+",
"+##1}/2/34567##+",
"+##8//'//9#0a##+",
"+##b//c//d#####+",
"+##e//f//g#####+",
"+#h///i//j#####+",
"+#klmlnlmo#####+",
"+#pqrqsqrt#####+",
"+##############+",
".@############@.",
" .++++++++++++. "};
