/* XPM */
static char *firebrigade[] = {
/* columns rows colors chars-per-pixel */
"16 10 91 1",
"  c #0C0E1A",
". c #0E101A",
"X c #11111D",
"o c #121220",
"O c #141524",
"+ c #151725",
"@ c #1B1C2B",
"# c #1A1D2C",
"$ c #222636",
"% c #262637",
"& c #202439",
"* c #2A2A41",
"= c #313648",
"- c #393A4D",
"; c #3A4156",
": c #3F4352",
"> c #434658",
", c #42475C",
"< c #474856",
"1 c #43495B",
"2 c #454B5D",
"3 c #53535E",
"4 c #4B5265",
"5 c #4C5269",
"6 c #525664",
"7 c #555561",
"8 c #555562",
"9 c #545765",
"0 c #555765",
"q c #646D7E",
"w c #6B707D",
"e c #555586",
"r c #565797",
"t c #666D82",
"y c #737585",
"u c #7C7D88",
"i c #6060F6",
"p c #FF0005",
"a c #FF0207",
"s c #FF050A",
"d c #FF060B",
"f c #FE080E",
"g c #FF0A0F",
"h c #FF191E",
"j c #FF3D41",
"k c #FF4246",
"l c #FF474B",
"z c #FF5154",
"x c #FE5558",
"c c #FF5558",
"v c #FF676A",
"b c #FF6A6D",
"n c #82838D",
"m c #808094",
"M c #868593",
"N c #898992",
"B c #90929E",
"V c #8A90A3",
"C c #9096A0",
"Z c #9799A5",
"A c #959AA8",
"S c #99A0AF",
"D c #9EAAB6",
"F c #AAABB3",
"G c #8A8AFD",
"H c #FF8082",
"J c #FFACAE",
"K c #CCCCD5",
"L c #D1D0D5",
"P c #D2D2D6",
"I c #D3D3D7",
"U c #D6D6D9",
"Y c #D9DCE3",
"T c #DFE0E3",
"R c #FEC4C7",
"E c #FFC4C6",
"W c #FFD4D5",
"Q c #FFDDDE",
"! c #E0E0E2",
"~ c #ECEDEE",
"^ c #EDEDEF",
"/ c #FFE2E3",
"( c #FFE9E9",
") c #F0F0F3",
"_ c #F4F5F8",
"` c gray98",
"' c #FBFBFC",
"] c #FFFBFB",
"[ c #FFFDFD",
"{ c #FFFEFE",
"} c gray100",
/* pixels */
"}}}}}}}}}}}}}}}}",
"}}}}Gi}}}}}}}}}}",
"}YnNerY}}}}}}W}}",
"_uPPZ]F~}}}}/zR}",
"yC}US})ZP~}}JpgR",
"#-52=,>$O:D(kppx",
",V<+oX..wq6Qspsh",
"-&t000304@C}hlbg",
"u*K'''''M%!}zvjH",
"}}}}}}}}}}}}}}}}"
};
