/* XPM */
static char *gc_tradi[] = {
/* columns rows colors chars-per-pixel */
"16 16 19 1",
"  c black",
". c #003000",
"X c #393000",
"o c #393041",
"O c #396500",
"+ c #396541",
"@ c #414141",
"# c #7B6541",
"$ c #7B308B",
"% c #7B658B",
"& c #399541",
"* c #7B9541",
"= c #7B958B",
"- c none",
"; c #838383",
": c #BD95B4",
"> c #BDCAB4",
", c #C5C5C5",
"< c gray100",
/* pixels */
"----------------",
"----------------",
"----------------",
"-------%X+@++  -",
"------oOOXO+oo+-",
"----+@OXO*oo@>$-",
"--&@*+#*@oo;<<=-",
"-.@@@@@o ;<<<<*-",
"-X@@@oo@<<<<<+--",
"-+ oo@<%<<<:+---",
"-X<,<<<#<<+-----",
"-.<<<<<%=+------",
"--&====+--------",
"----------------",
"----------------",
"----------------"
};
