/* XPM */
static char *gc_webcam[] = {
/* columns rows colors chars-per-pixel */
"16 16 22 1",
"  c black",
". c #393000",
"X c #393041",
"o c #006500",
"O c #396541",
"+ c #7B3041",
"@ c #414141",
"# c #7B6541",
"$ c #7B008B",
"% c #7B308B",
"& c #7B658B",
"* c #7B9541",
"= c #7B958B",
"- c #7BCA8B",
"; c #BD308B",
": c #BD30B4",
"> c none",
", c #838383",
"< c #BD95B4",
"1 c #BDCAB4",
"2 c #C5C5C5",
"3 c gray100",
/* pixels */
">>>>>>:$$;>>>>>>",
">>>>>.1333=2>>>>",
">>>>.3322331,>>>",
">>>O33 @@ 13->>>",
">>>X3@2,&,X312>>",
">>>*3&2<<,X31,>>",
">>>O3#3,<< 3<,>>",
">>>O3<,3<@&3O,>>",
">>>,O32##<3<&>>>",
">>>>&X1333O+>>>>",
">>>>>>OXXO>>>>>>",
">>>>>>: @:>>>>>>",
">>>>>>:.=:>>>>>>",
">>>>>&*<=@%>>>>>",
">>>>oO<<<O@ >>>>",
">>>>>>>>>>>>>>>>"
};
