/* XPM */
static char *hotel[]={
"16 16 7 1",
". c None",
"b c #000000",
"a c #0000ff",
"d c #555566",
"c c #727283",
"e c #ededef",
"# c #ffffff",
".##############.",
"#aaaaaaaaaaaaaa#",
"#aaaaaaaaaaaaaa#",
"#aa##########aa#",
"#aa#b########aa#",
"#aa#bc#######aa#",
"#aa#bdc####b#aa#",
"#aa#bcdccccb#aa#",
"#aa#bbbbbbbb#aa#",
"#aa#b######b#aa#",
"#aa#e########aa#",
"#aa##########aa#",
"#aa##########aa#",
"#aaaaaaaaaaaaaa#",
"#aaaaaaaaaaaaaa#",
".##############."};
