/* XPM */
static char * level_crossing_xpm[] = {
"11 11 2 1",
" 	c None",
".	c #797774",
".         .",
"..       ..",
" ..     .. ",
"  ..   ..  ",
"   .. ..   ",
"    ...    ",
"   .. ..   ",
"  ..   ..  ",
" ..     .. ",
"..       ..",
".         ."};
