/* XPM */
static char * museum_xpm[] = {
"16 15 49 1",
" 	c None",
".	c #FFFFFF",
"+	c #EEEEEE",
"@	c #A2A2A2",
"#	c #565656",
"$	c #3A3A3A",
"%	c #878787",
"&	c #DADADA",
"*	c #E6E6E6",
"=	c #949494",
"-	c #454545",
";	c #080808",
">	c #000000",
",	c #313131",
"'	c #B5B5B5",
")	c #9C9C9C",
"!	c #909090",
"~	c #9B9B9B",
"{	c #6D6D6D",
"]	c #3E3E3E",
"^	c #B9B9B9",
"/	c #F8F8F8",
"(	c #F3F3F3",
"_	c #CACACA",
":	c #747474",
"<	c #141414",
"[	c #F0F0F0",
"}	c #515151",
"|	c #646464",
"1	c #1A1A1A",
"2	c #ABABAB",
"3	c #121212",
"4	c #5D5D5D",
"5	c #686868",
"6	c #1E1E1E",
"7	c #8C8C8C",
"8	c #626262",
"9	c #222222",
"0	c #353535",
"a	c #C6C6C6",
"b	c #0F0F0F",
"c	c #7C7C7C",
"d	c #ECECEC",
"e	c #4D4D4D",
"f	c #494949",
"g	c #8A8A8A",
"h	c #7D7D7D",
"i	c #B2B2B2",
"j	c #BCBCBC",
"     ......     ",
"  ...+@#$%&...  ",
" .*=-;>>>>>,%&. ",
".&;>>>>>>>>>>>'.",
" .)!!!!!!!!!!~. ",
" .{]^./--(._]:. ",
" .{<[..}|. .12. ",
" .%3. .45. .62. ",
" .71. .|8. .62. ",
" .!<. .||. .92. ",
" .@3. .5|. .92. ",
" .53[.*0-..abc. ",
".[;>!._>>&.!>9. ",
".defg_^hh^_i==. ",
".[^^^^^^^^^^^j/ "};
