/* XPM */
static char * turn_left_v2_sv_xpm[] = {
"64 64 2 1",
" 	c None",
".	c #000000",
"                                                                ",
"                              ..                                ",
"                           .....                                ",
"                         ......                                 ",
"                      .........                                 ",
"                    ...........                                 ",
"                 .............                                  ",
"              ................                                  ",
"            ........................                            ",
"         .................................                      ",
"       .......................................                  ",
"    .............................................               ",
"  .................................................             ",
" ...................................................            ",
"    ..................................................          ",
"       ................................................         ",
"          ..............................................        ",
"             ............................................       ",
"               ................   .......................       ",
"                  .............         ..................      ",
"                     ..........             ...............     ",
"                        ........              .............     ",
"                           .....               .............    ",
"                              ...               ............    ",
"                                                 ...........    ",
"                                                  ..........    ",
"                                                  ...........   ",
"                                                   ..........   ",
"                                                   ..........   ",
"                                                   ..........   ",
"                                                   ..........   ",
"                                                   ...........  ",
"                                                   ...........  ",
"                                                    ..........  ",
"                                                    ..........  ",
"                                                    ..........  ",
"                                                    ..........  ",
"                                                    ..........  ",
"                                                    ..........  ",
"                                                    ..........  ",
"                                                    ..........  ",
"                                                    ..........  ",
"                                                    ..........  ",
"                                                    ..........  ",
"                                                    ..........  ",
"                                                    ..........  ",
"                                                    ..........  ",
"                                                    ..........  ",
"                                                    ..........  ",
"                                                    ..........  ",
"                                                    ..........  ",
"                                                    ..........  ",
"                                                    ..........  ",
"                                                    ..........  ",
"                                                   ...........  ",
"                                                   ...........  ",
"                                                   ...........  ",
"                                                   ...........  ",
"                                                   ...........  ",
"                                                   ...........  ",
"                                                   ...........  ",
"                                                   ...........  ",
"                                                   ...........  ",
"                                                    ..........  "};
