/* XPM */
static char *parking[]={
"16 16 5 1",
". c None",
"a c #0000ff",
"b c #8080ff",
"c c #f6f6fa",
"# c #ffffff",
".##############.",
"#aaaaaaaaaaaaaa#",
"#aaa######baaaa#",
"#aaa##cccc#baaa#",
"#aaa##aaaab#baa#",
"#aaa##aaaab#baa#",
"#aaa##aaaab#baa#",
"#aaa######cbaaa#",
"#aaa##cc##baaaa#",
"#aaa##aaaaaaaaa#",
"#aaa##aaaaaaaaa#",
"#aaa##aaaaaaaaa#",
"#aaa##aaaaaaaaa#",
"#aaa##aaaaaaaaa#",
"#aaaaaaaaaaaaaa#",
".##############."};
