/* XPM */
static char * peak_xpm[] = {
"8 8 2 1",
" 	c None",
".	c #FF00FF",
"        ",
"   ..   ",
"   ..   ",
"  ....  ",
"  ....  ",
" ...... ",
" ...... ",
"........"};
