/* XPM */
static char * police_xpm[] = {
"16 16 63 1",
" 	c None",
".	c #035E9F",
"+	c #2372AB",
"@	c #0761A0",
"#	c #98BDD7",
"$	c #7BABCC",
"%	c #176BA6",
"&	c #629BC3",
"*	c #D4E3EE",
"=	c #B4CFE2",
"-	c #4E8DBB",
";	c #2E79AF",
">	c #BFD6E6",
",	c #488AB9",
"'	c #A8C7DD",
")	c #BBD4E5",
"!	c #C0D7E7",
"~	c #C3D9E8",
"{	c #347DB1",
"]	c #307BB0",
"^	c #5793BF",
"/	c #8AB4D2",
"(	c #1167A4",
"_	c #9EC1DA",
":	c #A5C5DC",
"<	c #99BDD8",
"[	c #699FC6",
"}	c #D3E3EE",
"|	c #74A6CA",
"1	c #7AAACC",
"2	c #649CC4",
"3	c #92B9D5",
"4	c #518FBC",
"5	c #2976AD",
"6	c #D5E4EF",
"7	c #1268A5",
"8	c #1E6FA9",
"9	c #6CA1C7",
"0	c #5290BD",
"a	c #E8F0F6",
"b	c #6AA0C6",
"c	c #C2D8E8",
"d	c #0A63A2",
"e	c #1368A5",
"f	c #CBDEEB",
"g	c #88B3D1",
"h	c #E0EBF3",
"i	c #5B96C0",
"j	c #C4D9E8",
"k	c #196CA7",
"l	c #3C82B4",
"m	c #0B63A2",
"n	c #2D79AF",
"o	c #045F9F",
"p	c #73A5C9",
"q	c #C6DBE9",
"r	c #ACCADF",
"s	c #93BAD5",
"t	c #E3EDF4",
"u	c #0C64A2",
"v	c #B9D2E4",
"w	c #E5EEF5",
"x	c #377FB2",
"................",
"..............+.",
"............@#$%",
"............&*=-",
"..........;>,')!",
"..........~{]^/(",
"........,/_:<[..",
"........(}|12...",
"......34.567....",
"....890abcd.....",
"...efghijk......",
"..5l6mcno.......",
".pqrst/.........",
"u*v9............",
".+w,............",
"..x+............"};
