/* XPM */
static char * restroom_xpm[] = {
"16 16 115 2",
"  	c None",
". 	c #262CA6",
"+ 	c #2C32A8",
"@ 	c #6D71C2",
"# 	c #3A3FAE",
"$ 	c #2A30A8",
"% 	c #8689CB",
"& 	c #484DB4",
"* 	c #3C42AF",
"= 	c #9699D4",
"- 	c #FEFEFE",
"; 	c #CACBE8",
"> 	c #2E34A9",
", 	c #E0E0F1",
"' 	c #4E53B6",
") 	c #FCFCFD",
"! 	c #EDEEF6",
"~ 	c #2D33A9",
"{ 	c #8286CB",
"] 	c #FCFCFC",
"^ 	c #ACAFDC",
"/ 	c #484DB3",
"( 	c #F6F7FA",
"_ 	c #E4E5F3",
": 	c #2C31A8",
"< 	c #484EB4",
"[ 	c #A0A2D7",
"} 	c #B4B6E0",
"| 	c #A3A6D8",
"1 	c #4F54B6",
"2 	c #6065BD",
"3 	c #A8ABDB",
"4 	c #BBBDE2",
"5 	c #B2B4DF",
"6 	c #A1A4D8",
"7 	c #272DA6",
"8 	c #D0D1EA",
"9 	c #FFFEFE",
"0 	c #FFFFFF",
"a 	c #FFFFFE",
"b 	c #DADBEE",
"c 	c #E1E1F1",
"d 	c #BEBFE3",
"e 	c #3D42AF",
"f 	c #DFE0F0",
"g 	c #E8E8F4",
"h 	c #EEEFF7",
"i 	c #CED0E9",
"j 	c #474CB3",
"k 	c #262CA5",
"l 	c #E9EAF6",
"m 	c #E7E8F4",
"n 	c #E7E7F4",
"o 	c #C6C6E6",
"p 	c #7D80C9",
"q 	c #B8B9E0",
"r 	c #FEFEFD",
"s 	c #AEB0DD",
"t 	c #898CCE",
"u 	c #AAADDC",
"v 	c #A9ACDB",
"w 	c #C8C9E8",
"x 	c #BDBFE2",
"y 	c #B6B9E0",
"z 	c #B0B2DE",
"A 	c #CBCDE8",
"B 	c #AAACDB",
"C 	c #CBCCE9",
"D 	c #8184CA",
"E 	c #C8C9E7",
"F 	c #CED0EA",
"G 	c #7A7EC8",
"H 	c #E3E4F2",
"I 	c #A8AADA",
"J 	c #A7AADA",
"K 	c #C5C7E6",
"L 	c #343AAC",
"M 	c #F9F9FB",
"N 	c #3B41AE",
"O 	c #3439AB",
"P 	c #9B9ED5",
"Q 	c #DDDEF0",
"R 	c #777BC6",
"S 	c #3036AA",
"T 	c #4A50B4",
"U 	c #A7AADB",
"V 	c #DADBEF",
"W 	c #E6E7F4",
"X 	c #A9ACDC",
"Y 	c #5156B7",
"Z 	c #2F34AA",
"` 	c #CCCEEA",
" .	c #F6F6FA",
"..	c #767AC6",
"+.	c #AAADDB",
"@.	c #A5A8DA",
"#.	c #C0C2E4",
"$.	c #E0E1F0",
"%.	c #AAAEDC",
"&.	c #A6A9DA",
"*.	c #C0C3E5",
"=.	c #AAAEDB",
"-.	c #A7A9DA",
";.	c #A0A3D6",
">.	c #9598D3",
",.	c #B8BAE0",
"'.	c #9498D2",
").	c #C9CAE8",
"!.	c #F2F3F8",
"~.	c #7276C4",
"{.	c #282EA6",
"].	c #2A2FA7",
"^.	c #292FA7",
"/.	c #7074C3",
"(.	c #4248B1",
". . + @ # . . $ % . . . & * . . ",
". . = - ; . . > , . . ' ) ! ~ . ",
". . { ] ^ . . > , . . / ( _ : . ",
". < [ } | 1 . > , . 2 3 4 5 6 ' ",
"7 8 9 0 a b . > , . c 0 0 0 0 d ",
"e f g 0 h i j > , k l m 0 a n o ",
"p q - 0 r s t > , . g u 0 a v w ",
"x y 0 0 0 z A > , . g u 0 a B C ",
"D E 0 0 0 F G > , k H I 0 a J K ",
"L M 0 0 0 ] N > , . O P Q M R S ",
"T U Q V W X Y Z , . . P `  .... ",
". . +.@.#.. . > $.. . P `  .... ",
". . %.&.*.. . > , . . P `  .... ",
". . =.-.*.. . > , . . P `  .... ",
". . ;.>.,.. . > , . . '.).!.~.. ",
". . {.. ].. . ^./.. . S * (.+ . "};
