/* XPM */
static char *sports[] = {
/* columns rows colors chars-per-pixel */
"16 16 73 1",
"  c black",
". c #010101",
"X c #000200",
"o c #020202",
"O c #0C0C0C",
"+ c #001B00",
"@ c #001C00",
"# c #0D150D",
"$ c #1E1E1E",
"% c #002100",
"& c #002300",
"* c #003A00",
"= c #003F00",
"- c #1F251F",
"; c #212D21",
": c gray17",
"> c #213421",
", c gray19",
"< c #343434",
"1 c #393939",
"2 c gray23",
"3 c gray24",
"4 c #054105",
"5 c #004C00",
"6 c #0E4E0E",
"7 c #005100",
"8 c #005B00",
"9 c #025F02",
"0 c #0B510B",
"q c #006700",
"w c #006D00",
"e c #007A00",
"r c #007D00",
"t c #007E00",
"y c #007F00",
"u c #205720",
"i c gray25",
"p c #444444",
"a c gray27",
"s c #4E4E4E",
"d c gray32",
"f c #5B5B5B",
"g c #5D5D5D",
"h c #5D6B5D",
"j c #606660",
"k c #6D6D6D",
"l c gray43",
"z c #6F6F6F",
"x c gray46",
"c c #777777",
"v c gray47",
"b c gray50",
"n c #008000",
"m c #808080",
"M c #808B80",
"N c #838A83",
"B c #828E82",
"V c gray55",
"C c #A7A7A7",
"Z c #ADAEAD",
"A c gray70",
"S c #B6B6B6",
"D c #C5C5C5",
"F c #C8C8C8",
"G c gray84",
"H c #DADADA",
"J c #DFDFDF",
"K c gray91",
"L c gray98",
"P c gray99",
"I c #FEFEFE",
"U c gray100",
"Y c None",
/* pixels */
"Y              Y",
"  nnnnnnnnnnnn  ",
" nnnnnnnnnnnnnn ",
" nnnny74*5ennnn ",
" nnn9>SKdih8nnn ",
" nnw#aIIxPIhqnn ",
" nn& gk< zJ2@nn ",
" nn-fII$  mk nn ",
" nnZmIDs,3IH2nn ",
" nnMi2vIIvFbNnn ",
" nn6  <GPa :unn ",
" nny&OCSV  +ynn ",
" nnny0BAS;=yynn ",
" nnnnnnnnnynnnn ",
"  nnnnnnnnnnnn  ",
"Y              Y"
};
