/* XPM */
static char *telephone[] = {
/* columns rows colors chars-per-pixel */
"9 10 35 1",
"  c black",
". c gray6",
"X c #161616",
"o c gray15",
"O c #282828",
"+ c #373737",
"@ c gray25",
"# c #464646",
"$ c #515151",
"% c #535353",
"& c #555555",
"* c #606060",
"= c gray46",
"- c gray50",
"; c #838383",
": c #9B9B9B",
"> c gray63",
", c #A2A2A2",
"< c #A9A9A9",
"1 c #C8C8C8",
"2 c gray83",
"3 c #DDDDDD",
"4 c #DFDFDF",
"5 c #E4E4E4",
"6 c #E9E9E9",
"7 c #EEEEEE",
"8 c gray96",
"9 c #F6F6F6",
"0 c gray97",
"q c #F9F9F9",
"w c gray98",
"e c gray99",
"r c #FDFDFD",
"t c #FEFEFE",
"y c gray100",
/* pixels */
"yyy88yyyy",
"yy;#&yyyy",
"y7X@=yyyy",
"y4 1wyyyy",
"y6.:yyyyy",
"yy+owyyyy",
"yy> <y5yy",
"yy8%o-%>y",
"yyy8% o-y",
"yyyyy42yy"
};
