/* XPM */
static char * telephone_xpm[] = {
"9 10 25 1",
" 	c None",
".	c #FFFFFF",
"+	c #F5F5F5",
"@	c #838383",
"#	c #464646",
"$	c #555555",
"%	c #EEEEEE",
"&	c #161616",
"*	c #404040",
"=	c #757575",
"-	c #DFDFDF",
";	c #000000",
">	c #C8C8C8",
",	c #FAFAFA",
"'	c #E9E9E9",
")	c #0F0F0F",
"!	c #9B9B9B",
"~	c #373737",
"{	c #262626",
"]	c #A1A1A1",
"^	c #A9A9A9",
"/	c #E4E4E4",
"(	c #535353",
"_	c #7F7F7F",
":	c #D4D4D4",
" ..++.   ",
"..@#$..  ",
".%&*=..  ",
".-;>,.   ",
".')!...  ",
"..~{,... ",
"..];^./..",
" .+({_(].",
" ..+(;{_.",
"  ...-:.."};
