/* XPM */
static char *theater[] = {
/* columns rows colors chars-per-pixel */
"16 15 128 2",
"   c black",
".  c #010101",
"X  c #020202",
"o  c gray1",
"O  c gray2",
"+  c gray4",
"@  c #0C0C0C",
"#  c gray7",
"$  c #151515",
"%  c #161616",
"&  c #1D1D1D",
"*  c #232323",
"=  c gray14",
"-  c #272727",
";  c gray16",
":  c gray17",
">  c #2C2C2C",
",  c gray18",
"<  c gray19",
"1  c gray20",
"2  c #343434",
"3  c gray22",
"4  c #393939",
"5  c gray23",
"6  c #3F3F3F",
"7  c gray27",
"8  c #464646",
"9  c gray28",
"0  c #484848",
"q  c #494949",
"w  c #4B4B4B",
"e  c #4C4C4C",
"r  c gray30",
"t  c gray31",
"y  c #505050",
"u  c #515151",
"i  c gray32",
"p  c gray33",
"a  c #555555",
"s  c gray34",
"d  c #585858",
"f  c gray35",
"g  c #5A5A5A",
"h  c #606060",
"j  c gray38",
"k  c #626262",
"l  c gray39",
"z  c gray40",
"x  c DimGray",
"c  c #6A6A6A",
"v  c gray42",
"b  c #6D6D6D",
"n  c gray44",
"m  c #717171",
"M  c gray45",
"N  c gray46",
"B  c #767676",
"V  c gray47",
"C  c #797979",
"Z  c #7C7C7C",
"A  c gray49",
"S  c #7E7E7E",
"D  c gray50",
"F  c #808080",
"G  c #818181",
"H  c gray51",
"J  c #838383",
"K  c #8B8B8B",
"L  c gray55",
"P  c #8D8D8D",
"I  c gray57",
"U  c #929292",
"Y  c #939393",
"T  c gray58",
"R  c #959595",
"E  c #979797",
"W  c #9A9A9A",
"Q  c #9D9D9D",
"!  c gray63",
"~  c #A2A2A2",
"^  c #A4A4A4",
"/  c #A5A5A5",
"(  c gray65",
")  c gray66",
"_  c #AAAAAA",
"`  c #ACACAC",
"'  c gray68",
"]  c #AFAFAF",
"[  c #B4B4B4",
"{  c #B7B7B7",
"}  c gray73",
"|  c gray",
" . c gray75",
".. c #C0C0C0",
"X. c #C3C3C3",
"o. c #CACACA",
"O. c #CDCDCD",
"+. c #CECECE",
"@. c gray81",
"#. c #D0D0D0",
"$. c LightGray",
"%. c gray83",
"&. c gray84",
"*. c #D8D8D8",
"=. c gray85",
"-. c #DADADA",
";. c gainsboro",
":. c gray87",
">. c gray88",
",. c #E2E2E2",
"<. c #E4E4E4",
"1. c gray90",
"2. c #E7E7E7",
"3. c #E9E9E9",
"4. c #EAEAEA",
"5. c gray92",
"6. c gray93",
"7. c #EEEEEE",
"8. c #F4F4F4",
"9. c gray96",
"0. c #F6F6F6",
"q. c gray97",
"w. c #F8F8F8",
"e. c #F9F9F9",
"r. c #FBFBFB",
"t. c gray99",
"y. c #FEFEFE",
"u. c gray100",
/* pixels */
"u.u.u.u.u.u.u.u.u.u.u.u.u.@.@.u.",
"u.u.u.u.u.u.@.F *.q.9.:.~ 4 h u.",
"u.Q U u.u.u.1.t t g t 9 9 g 6 9.",
"u.K E B q.u.3.9   s   4 F 4 4 9.",
"u.K u.~ h h h q * E O , , s 1 5.",
"u.A } ~ | u.1.z & _ 9 : } *.y | ",
":.A 3.U :.3.{ g - B q F # % t } ",
"&.W X.} F *.b 4 t   , E   + y 3.",
"u.b u.u.g 1.u.q.t , % E F 2 7 9.",
"u.v _ { s 7.~ 5.* q F U _ V v u.",
"u.F _ , X.V v y K q A @ : 6 @.u.",
"u.*.b :   1 s o.u.V q y 4 F u.u.",
"u.u.h _ v s _ u.u.u.~ U &.q.u.u.",
"u.u.@.y B g q.u.u.u.u.u.u.u.u.u.",
"u.u.u.9.3.9.u.u.u.u.u.u.u.u.u.u."
};
