<?xml version="1.0" encoding="UTF-8" standalone="no"?>
<!-- Created with Inkscape (http://www.inkscape.org/) -->

<svg
   xmlns:dc="http://purl.org/dc/elements/1.1/"
   xmlns:cc="http://creativecommons.org/ns#"
   xmlns:rdf="http://www.w3.org/1999/02/22-rdf-syntax-ns#"
   xmlns:svg="http://www.w3.org/2000/svg"
   xmlns="http://www.w3.org/2000/svg"
   xmlns:xlink="http://www.w3.org/1999/xlink"
   xmlns:sodipodi="http://sodipodi.sourceforge.net/DTD/sodipodi-0.dtd"
   xmlns:inkscape="http://www.inkscape.org/namespaces/inkscape"
   width="22"
   height="22"
   viewBox="0 0 22.000001 22"
   id="svg4900"
   version="1.1"
   inkscape:version="0.92.1 r15371"
   sodipodi:docname="navit.svg">
  <defs
     id="defs4902">
    <linearGradient
       inkscape:collect="always"
       xlink:href="#linearGradient3728"
       id="linearGradient1325"
       x1="0.18388532"
       y1="294.09717"
       x2="5.6532726"
       y2="294.09717"
       gradientUnits="userSpaceOnUse"
       gradientTransform="matrix(3.7795279,0,0,3.7795279,-0.58442088,-69.63366)" />
    <linearGradient
       id="linearGradient3728">
      <stop
         offset="0"
         stop-color="#ffda00"
         id="stop3730" />
      <stop
         offset="1"
         stop-color="#f57f0c"
         id="stop3732" />
    </linearGradient>
    <linearGradient
       inkscape:collect="always"
       xlink:href="#linearGradient3728"
       id="linearGradient1341"
       x1="1.5875"
       y1="294.08957"
       x2="4.2333331"
       y2="294.08957"
       gradientUnits="userSpaceOnUse"
       gradientTransform="matrix(3.7795281,0,0,3.7795281,-0.58442178,-69.63366)" />
  </defs>
  <sodipodi:namedview
     id="base"
     pagecolor="#ffffff"
     bordercolor="#666666"
     borderopacity="1.0"
     inkscape:pageopacity="0.0"
     inkscape:pageshadow="2"
     inkscape:zoom="22.4"
     inkscape:cx="8.0714281"
     inkscape:cy="8.9698474"
     inkscape:document-units="px"
     inkscape:current-layer="layer1"
     showgrid="false"
     units="px"
     inkscape:window-width="1920"
     inkscape:window-height="926"
     inkscape:window-x="0"
     inkscape:window-y="31"
     inkscape:window-maximized="1" />
  <metadata
     id="metadata4905">
    <rdf:RDF>
      <cc:Work
         rdf:about="">
        <dc:format>image/svg+xml</dc:format>
        <dc:type
           rdf:resource="http://purl.org/dc/dcmitype/StillImage" />
        <dc:title></dc:title>
      </cc:Work>
    </rdf:RDF>
  </metadata>
  <g
     inkscape:label="Calque 1"
     inkscape:groupmode="layer"
     id="layer1"
     transform="translate(0,-1030.3623)">
    <g
       id="g5494"
       transform="translate(0.55342518,-0.5529)">
      <path
         inkscape:connector-curvature="0"
         id="circle1307"
         d="m 10.415579,1036.886 a 5.0000004,5.0000004 0 0 0 -1.4902344,0.2324 l 2.4765624,4.7168 0.9375,2.1113 h 0.05859 c -0.04889,-0.5084 -0.107337,-1.0754 -0.175781,-1.7012 -0.05867,-0.6257 -0.08789,-1.2219 -0.08789,-1.789 v -3.2598 a 5.0000004,5.0000004 0 0 0 -1.718747,-0.3105 z m -3.7226561,1.6699 a 5.0000004,5.0000004 0 0 0 -1.277344,3.3301 5.0000004,5.0000004 0 0 0 1.277344,3.3261 z m 7.4941411,0.057 v 6.5508 a 5.0000004,5.0000004 0 0 0 1.228516,-3.2773 5.0000004,5.0000004 0 0 0 -1.228516,-3.2735 z m -5.7050784,1.1836 c 0.04889,0.528 0.103443,1.095 0.162109,1.7012 0.06844,0.6062 0.101563,1.1926 0.101563,1.7598 v 3.3339 a 5.0000004,5.0000004 0 0 0 1.6699214,0.295 5.0000004,5.0000004 0 0 0 1.550781,-0.252 l -2.4863274,-4.7539 -0.939453,-2.084 z"
         style="display:inline;fill:url(#linearGradient1341);fill-opacity:1;stroke:none;stroke-width:1.88976383;stroke-miterlimit:4;stroke-dasharray:none;stroke-opacity:1" />
      <ellipse
         inkscape:export-ydpi="96"
         inkscape:export-xdpi="96"
         ry="5.9375"
         rx="7.5000005"
         cy="1038.8679"
         cx="10.308436"
         id="ellipse1313"
         style="display:inline;fill:#000000;fill-opacity:0;stroke-width:0.26458332" />
      <path
         inkscape:export-ydpi="96"
         inkscape:export-xdpi="96"
         sodipodi:nodetypes="cccccccscccccscccccccccccsccccccccccccccsccccccccccccscccccccccccccccccsccccccccscccccccccsccccccccccczccscccz"
         inkscape:connector-curvature="0"
         id="path1315"
         d="m 10.593714,1049.8749 -9.1e-4,-2.3589 0.266653,-0.019 c 1.330607,-0.098 2.575221,-0.668 3.523588,-1.6136 0.923018,-0.9203 1.48054,-2.0846 1.617879,-3.3788 0.01308,-0.1232 0.02385,-0.2694 0.02392,-0.3254 l 1.81e-4,-0.1016 h 2.328482 c 1.280664,0 2.325431,0 2.321705,0.01 -0.0037,0 -0.687432,0.3008 -1.519342,0.6605 -0.83191,0.3594 -1.518827,0.6597 -1.526483,0.6668 -0.0077,0.01 -0.04908,0.1508 -0.09205,0.3194 -0.132715,0.5206 -0.29037,0.9508 -0.517639,1.4127 -0.167958,0.3413 -0.275467,0.5269 -0.499195,0.8617 -1.000766,1.4979 -2.485149,2.5475 -4.266583,3.0169 l -0.07101,0.019 -0.794147,1.5968 -0.794145,1.5968 -9.1e-4,-2.3589 z m -0.8872994,0.9173 c -0.322031,-0.7436 -0.588278,-1.3594 -0.591664,-1.3683 -0.0039,-0.011 0.01606,-0.011 0.05389,0 0.171281,0.03 0.556063,0.075 0.826463,0.093 l 0.3049514,0.019 v 1.3064 c 0,0.7185 -0.0018,1.3063 -0.0041,1.3062 -0.0022,0 -0.267545,-0.6085 -0.5895754,-1.352 z m 0.3984724,-1.5541 c -0.4129714,-0.015 -0.9841194,-0.1 -1.4231124,-0.2079 -1.1829774,-0.2918 -2.2498931,-0.8648 -3.1847034,-1.7108 -0.6211646,-0.5621 -1.2019874,-1.3307 -1.5867228,-2.0995 -0.4741759,-0.9476 -0.7080315,-1.8427 -0.7754332,-2.9681 l -0.010469,-0.175 h 0.869187 0.8691863 l 0.010318,0.2037 c 0.012284,0.2423 0.061463,0.5948 0.1190551,0.8536 0.4574593,2.0554 2.0220538,3.673 4.067024,4.2048 0.328796,0.085 0.901832,0.1704 1.1509234,0.1704 h 0.08991 v 0.8702 0.87 h -0.03659 c -0.02014,0 -0.09149,0 -0.158574,-0.01 z m -8.5472195,-6.4443 -1.43082728,-0.7144 H 1.4864869 2.8461342 l 0.011112,0.2237 c 0.017688,0.3561 0.1027616,1.0252 0.1499604,1.1792 0.0048,0.015 0.00255,0.03 -0.00499,0.03 -0.00752,0 -0.6575826,-0.3212 -1.4445378,-0.7143 z m 0.1659969,-1.8139 1.6130877,-0.8022 0.018331,-0.071 c 0.4155662,-1.6096 1.3767781,-3.0429 2.7081715,-4.0382 0.5508458,-0.4118 1.194233,-0.7624 1.8459792,-1.0062 0.1497071,-0.056 0.5689748,-0.1874 0.7133978,-0.2237 l 0.07096,-0.019 0.802579,-1.6131 0.8025784,-1.6131 6.51e-4,2.3761 6.51e-4,2.3761 -0.215501,0.011 c -0.9806364,0.048 -2.0201623,0.4154 -2.8581804,1.0096 -0.3839399,0.2721 -0.850989,0.7104 -1.1284755,1.0585 -0.5214527,0.6544 -0.8786801,1.3761 -1.0748315,2.1716 -0.085493,0.3466 -0.155229,0.8333 -0.155229,1.083 v 0.1039 H 2.4892044 0.11057482 Z m 14.3013666,0.7062 c 0,-0.054 -0.01126,-0.2056 -0.02506,-0.3368 -0.167061,-1.5908 -1.005735,-3.0256 -2.319287,-3.9677 -0.567371,-0.407 -1.216407,-0.7054 -1.903171,-0.8749 -0.366618,-0.091 -0.811717,-0.155 -1.072569,-0.155 h -0.112135 v -0.8719 -0.8719 l 0.199234,0.011 c 0.958324,0.054 1.802105,0.254 2.641376,0.6272 1.079455,0.4801 2.048175,1.2373 2.782665,2.1749 0.171677,0.2192 0.473811,0.6716 0.605547,0.9067 0.467664,0.8347 0.773114,1.7663 0.885259,2.6999 0.01939,0.1613 0.05791,0.6526 0.05834,0.744 0,0.01 -0.391502,0.011 -0.870074,0.011 h -0.870129 z m 2.00405,-0.2083 c -0.02098,-0.3284 -0.06477,-0.688 -0.11706,-0.9613 -0.01784,-0.093 -0.03073,-0.1708 -0.02861,-0.1723 0.0021,0 0.655233,0.3212 1.451362,0.7175 l 1.447508,0.7201 h -1.366826 -1.366826 l -0.01954,-0.3061 z m -6.213518,-7.0211 c -0.297191,-0.06 -0.853606,-0.1213 -1.104838,-0.1217 l -0.117914,-10e-5 v -1.3689 c 0,-0.7529 0.0026,-1.3658 0.0058,-1.3621 0.0316,0.038 1.434361,2.8932 1.42013,2.8918 -0.01051,0 -0.101949,-0.019 -0.203203,-0.039 z"
         style="display:inline;fill:url(#linearGradient1325);fill-opacity:1;stroke:none;stroke-width:0.00430322;stroke-opacity:1" />
    </g>
  </g>
</svg>
